<?xml version="1.0" encoding="UTF-8" standalone="no"?>
<!-- Created with Inkscape (http://www.inkscape.org/) -->

<svg
   width="100mm"
   height="127.73209mm"
   viewBox="0 0 100 127.73209"
   version="1.1"
   id="svg4352"
   xml:space="preserve"
   inkscape:version="1.2.2 (b0a8486541, 2022-12-01)"
   sodipodi:docname="avocado.svg"
   xmlns:inkscape="http://www.inkscape.org/namespaces/inkscape"
   xmlns:sodipodi="http://sodipodi.sourceforge.net/DTD/sodipodi-0.dtd"
   xmlns="http://www.w3.org/2000/svg"
   xmlns:svg="http://www.w3.org/2000/svg"><sodipodi:namedview
     id="namedview4354"
     pagecolor="#ffffff"
     bordercolor="#000000"
     borderopacity="0.25"
     inkscape:showpageshadow="2"
     inkscape:pageopacity="0.0"
     inkscape:pagecheckerboard="0"
     inkscape:deskcolor="#d1d1d1"
     inkscape:document-units="mm"
     showgrid="false"
     inkscape:zoom="0.59433567"
     inkscape:cx="312.11319"
     inkscape:cy="107.68326"
     inkscape:window-width="956"
     inkscape:window-height="1069"
     inkscape:window-x="960"
     inkscape:window-y="105"
     inkscape:window-maximized="1"
     inkscape:current-layer="layer1" /><defs
     id="defs4349" /><g
     inkscape:label="Ebene 1"
     inkscape:groupmode="layer"
     id="layer1"
     transform="translate(-38.731532,-88.626029)"><path
       style="fill:#000000;stroke-width:0"
       id="path8028"
       d="" /><g
       id="g23972"
       transform="matrix(0.718726,0,0,0.718726,10.894173,24.928198)"><path
         style="fill:#1c484b;fill-opacity:1;stroke-width:0"
         d="m 102.41047,265.96419 c -4.096519,-0.64062 -8.287569,-0.87236 -12.248289,-2.19067 -1.51636,-0.282 -2.96072,-0.74052 -4.36592,-1.37815 -11.23133,-3.4903 -21.15766,-10.41108 -29.24354,-18.85527 -1.16194,-1.15354 -2.32246,-2.31063 -3.40789,-3.53735 0.16802,-1.17841 -1.43247,-1.67627 -1.92385,-2.62223 -0.72755,-1.13726 -1.48063,-2.23824 -2.17174,-3.38541 -0.92996,-0.96464 -1.15267,-2.3361 -2.07923,-3.30651 -0.61877,-0.93811 -0.83856,-2.06919 -1.40513,-3.0445 -0.46553,-1.0475 -1.12764,-2.001 -1.64294,-3.01218 -0.22092,-1.51898 -1.11759,-2.76108 -1.57547,-4.15814 -0.44043,-1.33049 -0.97067,-2.62703 -1.23057,-4.00901 -0.38018,-1.40548 -0.86582,-2.81204 -0.87175,-4.28442 -0.58225,-1.61299 -0.73561,-3.32899 -0.97108,-5.01046 -0.50031,-1.89575 -0.30752,-3.86927 -0.44284,-5.80703 -0.17049,-5.08399 -0.21724,-10.20905 0.68516,-15.23477 0.50158,-2.94286 1.16694,-5.86881 2.11653,-8.69947 0.60908,-1.55452 0.86102,-3.22701 1.53453,-4.76393 1.16293,-2.90952 2.58102,-5.71369 4.23372,-8.37555 0.95612,-1.81003 1.83061,-3.66677 2.972,-5.37388 1.86414,-2.91485 3.45546,-5.99301 5.35525,-8.88643 1.67083,-3.15605 3.47673,-6.24156 5.41886,-9.23855 0.69396,-1.34363 1.5046,-2.63136 2.46888,-3.79457 1.36592,-2.5099 2.70928,-5.03628 4.31434,-7.40593 1.77215,-2.59618 3.12659,-5.46696 5.07802,-7.94058 0.55571,-1.13397 1.02846,-2.3055 1.7163,-3.3722 1.72492,-3.1551 3.44878,-6.35403 5.86769,-9.04549 2.25829,-2.74069 4.67133,-5.39994 7.55069,-7.50389 1.68495,-0.63384 2.96452,-2.013242 4.67766,-2.607271 1.72865,-0.852645 3.61216,-1.282669 5.36645,-2.071488 1.28729,-0.116179 2.165439,-1.12475 3.329539,-1.51729 1.09758,1.19598 2.5623,-0.366469 3.00313,-1.430102 1.77528,-2.433002 6.10647,-2.226854 7.50545,0.486864 0.76424,1.392486 2.40058,1.409515 3.73702,1.758923 1.57493,0.537811 3.14483,1.135648 4.78931,1.403771 1.74608,0.773285 3.54256,1.436227 5.18775,2.417473 2.32628,1.26826 4.4857,2.85049 6.29519,4.79199 2.64073,2.55496 5.12152,5.32777 7.03038,8.47898 1.19641,2.13873 2.1258,4.42751 3.49447,6.46729 0.81009,1.34135 1.67097,2.64881 2.51652,3.96732 0.42062,1.39633 1.59973,2.29643 2.17487,3.64336 0.95975,1.97752 2.4741,3.63787 3.32302,5.67526 0.94575,0.95076 1.23097,2.33394 2.06567,3.37018 0.76968,1.25852 1.55755,2.49479 2.35125,3.72779 0.61562,1.26564 1.54406,2.33703 2.16982,3.60279 0.85296,1.18192 1.22907,2.58534 2.26044,3.67172 0.89803,2.03543 2.21739,3.83777 3.27316,5.7885 1.02872,1.641 2.10042,3.25301 3.05239,4.94196 1.12294,1.84901 2.13403,3.76827 3.20294,5.64357 1.60404,2.03282 2.4251,4.51542 3.49317,6.8416 1.84751,4.32195 3.36614,8.8069 4.12851,13.4555 2.15014,11.71911 1.77381,24.06789 -2.25092,35.35536 -2.50153,7.18797 -6.27299,13.90255 -10.90031,19.93206 -1.10618,1.69752 -2.72856,2.96273 -4.09325,4.43911 -3.3658,3.38054 -6.80539,6.74818 -10.84658,9.3249 -9.87116,6.57674 -21.23284,10.93057 -32.98308,12.5696 -4.33432,0.56933 -8.74579,0.68769 -13.0857,0.10685 z m 13.93472,-9.19699 c 5.40464,-0.80492 10.73066,-2.20006 15.82802,-4.1643 1.36439,-0.92113 2.89286,-1.45536 4.38457,-2.09972 2.14602,-1.13369 4.17901,-2.47067 6.27885,-3.68259 2.82434,-1.94542 5.40723,-4.21856 7.9541,-6.50786 9.65917,-9.04249 16.14007,-21.42727 17.93936,-34.54561 1.7191,-12.29605 -0.72857,-25.05546 -6.53119,-36.00271 -0.98001,-1.91904 -2.11484,-3.75495 -3.37809,-5.49751 -2.5368,-4.49627 -5.21392,-8.91347 -7.83777,-13.36032 -5.08386,-8.54932 -10.24441,-17.05329 -15.48437,-25.50751 -2.02043,-3.25776 -3.60278,-6.78689 -5.95522,-9.83362 -3.83446,-5.17658 -9.17748,-9.53998 -15.55408,-11.02475 -5.42516,-1.28164 -11.23575,-0.48933 -16.246689,1.89793 -1.84491,0.74351 -3.661,1.6325 -5.14627,2.97708 -4.36459,3.11767 -7.27828,7.78079 -9.82572,12.40332 -3.64389,6.87995 -8.05429,13.31197 -11.98372,20.02632 -4.05072,6.71078 -8.1372,13.40085 -12.04222,20.19803 -2.70722,4.38707 -5.59799,8.71235 -7.45896,13.54962 -5.49331,13.50036 -5.39049,29.03323 -0.26724,42.62815 4.26904,11.48011 12.07871,21.68565 22.3134,28.46908 10.05545,6.82018 22.15642,10.62357 34.320439,10.58009 2.90437,0.013 5.80875,-0.16239 8.6928,-0.50312 z"
         id="path8042" /><path
         id="path8038"
         style="fill:#d35821;fill-opacity:1;stroke-width:0"
         d="m 108.27151,160.42773 c -4.58646,0.2015 -8.774959,2.49729 -12.418289,5.13104 -5.91286,4.3903 -10.81211,10.12324 -14.37252,16.56076 -2.57669,4.77877 -4.53222,10.16214 -4.135,15.66945 0.18551,3.41773 2.54755,6.23259 5.07819,8.31863 6.15384,5.04849 14.91475,6.81044 22.488239,4.26348 5.98896,-1.97398 10.80495,-6.74308 13.3881,-12.43315 2.70429,-5.78427 3.27811,-12.3551 2.52956,-18.64057 -0.40934,-3.87417 -0.21239,-7.96127 -1.29912,-11.721 -0.5989,-2.15998 -2.43932,-3.92543 -4.40479,-5.02737 -1.96701,-1.22082 -4.18097,-2.21021 -6.54539,-2.12242 -0.10279,0.003 -0.20642,-0.005 -0.30898,0.001 z m -6.91992,7.10157 c 0.66546,0.12982 0.27687,1.05112 0.0581,1.4273 -0.8467,1.36543 -2.290159,2.20595 -3.315639,3.42638 -4.9623,5.29169 -8.43695,11.93697 -10.16126,18.9725 -0.56142,2.049 -0.62871,4.1915 -1.11831,6.24804 -0.6884,0.15475 -1.80064,-0.005 -1.90625,-0.89258 -0.33119,-2.10192 0.41882,-4.18841 1.00108,-6.18053 1.20911,-3.60903 2.92552,-7.28348 4.8177,-10.69683 2.20466,-3.87517 4.6034,-7.74319 7.89997,-10.79256 0.79408,-0.641 1.653229,-1.45712 2.724609,-1.51172 z"
         sodipodi:nodetypes="ccccccccccccccccccccccc" /><path
         id="path8044"
         style="fill:#863519;fill-opacity:1;stroke-width:0"
         d="m 117.95315,164.43555 c -0.73799,0.12379 -0.46674,1.04618 -0.24081,1.52397 1.79063,4.8994 2.28899,10.19198 2.44487,15.34217 0.0774,4.59057 -0.16633,9.32093 -1.32125,13.72175 -0.79097,2.98403 -2.50439,5.53307 -4.54492,7.79297 -6.04812,6.52731 -15.846889,9.15916 -24.311019,6.62191 -4.67945,-1.3557 -8.79644,-4.52226 -11.25199,-8.73781 -0.38479,-0.64458 -0.90301,-1.19415 -1.35301,-1.79231 0.18681,5.73378 2.72298,11.27075 6.70447,15.3663 5.17547,5.43247 12.45052,8.55615 19.849949,9.35605 7.27136,0.90445 15.00197,0.0269 21.37991,-3.78406 5.90658,-3.43267 10.20642,-9.41114 11.70048,-16.0656 1.85524,-7.84257 0.10286,-16.21299 -3.77234,-23.17672 -3.54821,-6.41806 -8.76051,-11.83502 -14.72575,-16.05144 -0.17036,-0.0712 -0.37236,-0.18946 -0.55859,-0.11718 z m 13.0332,25.54492 c 0.78007,0.20736 0.76536,1.23467 0.92383,1.88476 0.72593,4.96955 -0.0823,10.20674 -2.64533,14.56098 -3.49218,6.13333 -9.9763,10.20129 -16.84421,11.4508 -3.16912,0.64152 -6.42458,0.57734 -9.55428,0.14613 -2.47834,-0.35646 -5.039309,-0.88661 -7.202269,-1.95478 -0.53506,-0.33676 -1.40053,-0.68558 -1.39258,-1.41211 0.26556,-1.01821 1.53855,-0.70266 2.28423,-0.52346 2.77579,0.90591 5.650529,1.70852 8.598749,1.90353 6.59903,0.56627 13.55994,-1.42156 18.3837,-6.07536 4.18516,-3.93981 6.40431,-9.71905 6.30132,-15.43205 0.0664,-1.43715 -0.19165,-2.96062 0.3211,-4.33273 0.16581,-0.26445 0.55899,-0.22122 0.82574,-0.21571 z" /><path
         id="path8046"
         style="fill:#c0dd6f;fill-opacity:1;stroke-width:0"
         d="m 106.52542,107.25 c -4.49183,-0.088 -8.588285,2.17261 -12.188331,4.63749 -2.344814,1.65793 -4.307431,3.83548 -5.888787,6.22311 -1.346761,2.20325 -2.841309,4.34134 -3.771343,6.76734 -1.220452,2.61548 -3.117832,4.82157 -4.511657,7.33654 -2.687638,4.52453 -5.295459,9.09997 -8.186365,13.49969 -1.736119,2.9028 -3.345357,5.88781 -5.256908,8.68015 -1.201647,2.32079 -2.577042,4.54392 -3.975545,6.74877 -2.380274,3.99006 -4.911845,7.89933 -7.045981,12.02925 -0.9681,2.34039 -1.930659,4.68867 -2.764028,7.07988 -1.909555,6.15906 -2.58393,12.64262 -2.601877,19.07066 0.0166,3.22436 0.413235,6.43802 1.078906,9.58896 0.434179,3.1485 1.477866,6.17221 2.526581,9.15843 1.12085,2.8986 2.445582,5.72996 4.160948,8.32767 4.875566,8.26318 12.005891,15.12699 20.297655,19.92277 3.561108,2.18069 7.435745,3.80301 11.398708,5.09355 2.913678,0.90494 5.869839,1.71523 8.905069,2.08368 3.968855,0.56119 7.990035,1.02608 12.000875,0.70434 4.45284,-0.22757 8.94092,-0.70676 13.18263,-2.15285 3.2398,-0.93933 6.57366,-1.75455 9.49599,-3.50485 1.62835,-0.88703 3.3533,-1.58422 5.01901,-2.38731 2.11036,-1.38434 4.19118,-2.82427 6.17927,-4.37876 3.25162,-2.59486 6.31591,-5.44719 8.91109,-8.70776 4.4726,-5.25548 7.43837,-11.58903 9.86193,-17.9982 0.76424,-2.26752 1.25916,-4.61556 1.84069,-6.93211 1.53027,-10.04111 1.12222,-20.57361 -2.50472,-30.14235 -0.86903,-2.29465 -1.77652,-4.58587 -2.98679,-6.72406 -0.67554,-1.43413 -1.41035,-2.84637 -2.37215,-4.11075 -1.09833,-1.73931 -3.09446,-4.28974 -4.13946,-6.06161 -1.12627,-0.55377 -0.57911,1.8123 -0.15611,2.59019 0.45641,0.75633 0.87363,1.51196 1.12557,2.38289 3.92346,10.57825 6.38337,21.88156 5.70799,33.2115 -0.63651,11.09436 -5.14921,22.04914 -13.00958,29.97669 -6.56616,6.88709 -15.16085,12.05416 -24.59996,13.70556 -10.32064,1.82791 -21.42323,-0.18314 -30.118541,-6.14324 -7.189455,-4.84809 -12.372359,-12.76944 -13.394584,-21.43362 -0.188517,-1.95785 -1.203398,-3.68256 -2.194461,-5.33037 -1.589813,-3.18599 -2.454407,-6.68337 -3.047983,-10.17722 -0.589608,-4.20186 0.213998,-8.44207 1.292581,-12.4962 0.882648,-3.10306 2.283953,-6.04152 4.013193,-8.75819 0.986649,-2.01533 2.20174,-3.91411 3.677387,-5.60685 2.25477,-2.82181 4.785297,-5.42983 7.641107,-7.64781 1.356146,-1.21145 2.777436,-2.35574 4.370069,-3.2431 2.154425,-1.32502 4.227535,-2.79031 6.450172,-3.99923 3.54841,-1.75215 7.76579,-2.28114 11.5882,-1.17555 2.49884,0.80085 4.63546,2.37157 6.83338,3.75317 0.64529,0.81605 1.98252,0.8054 2.58456,-0.0521 0.70863,-0.80052 0.43248,-1.90997 0.63168,-2.87121 1.49762,-13.48647 1.53078,-27.27051 -1.36123,-40.58032 -0.64658,-2.69719 -1.53231,-5.42369 -3.26949,-7.63164 -1.78928,-1.63418 -4.34156,-1.66244 -6.57462,-2.2038 -1.6081,-0.22415 -3.23708,-0.16919 -4.85474,-0.12125 z m -13.972659,26.48438 c 0.827716,0.88641 0.211766,2.19318 -0.489261,2.94905 -3.789411,4.25712 -7.825941,8.35339 -10.909304,13.17678 -1.71149,2.23003 -3.496988,4.4327 -4.773134,6.95215 -1.617074,2.55447 -3.126797,5.17615 -4.465579,7.88741 -1.073708,2.05611 -1.999087,4.18767 -2.905505,6.31878 -0.626395,1.09011 -0.48743,2.72251 -1.754204,3.36263 -0.911821,0.44069 -1.892406,-0.46547 -1.868065,-1.39498 -0.147065,-1.01398 0.535557,-1.8166 1.012211,-2.62652 0.829962,-1.64711 1.319323,-3.45094 2.300414,-5.0259 0.876555,-1.5967 1.881494,-3.16969 2.288606,-4.96856 1.579363,-2.05622 2.57126,-4.48658 4.09322,-6.58145 2.565291,-4.1242 5.583913,-7.93857 8.491482,-11.82145 2.517616,-3.20211 5.444317,-6.15521 8.979119,-8.22794 z"
         sodipodi:nodetypes="ccccccccccccccccccccccccccccccccccccccccccccccccccccccccccccccccccc" /><path
         id="path8048"
         style="fill:#68a043;fill-opacity:1;stroke-width:0"
         d="m 117.35745,109.02539 c -0.70739,0.45424 -0.42906,1.41319 0.0276,1.9439 0.51374,0.6298 1.0674,1.22986 1.38711,1.99155 1.10238,2.30728 2.08502,4.69176 2.60756,7.20447 0.69439,3.03711 0.83462,6.15872 0.94986,9.26061 0.37446,8.36139 0.35144,16.75011 -0.2997,25.09731 -0.21173,2.21156 -0.5637,4.41091 -0.65422,6.6331 0.29651,1.70126 1.97728,2.52266 3.20919,3.49029 6.43138,5.29038 11.64691,12.13127 14.69357,19.90517 1.25831,3.27321 2.23631,6.68914 2.55859,10.19068 0.55605,6.84761 -1.47306,13.84563 -5.46674,19.41858 -0.99098,1.26396 -1.83848,2.64999 -3.04095,3.73378 -2.10188,2.01714 -4.57039,3.59658 -7.06271,5.08188 -2.23582,1.22245 -4.64615,2.10444 -7.07537,2.85724 -3.89549,1.20501 -7.99491,1.4797 -12.049,1.53109 -3.26315,0.0245 -6.53567,-0.31258 -9.692596,-1.15803 -1.932871,-0.48476 -3.838002,-1.10595 -5.621854,-2.00113 -1.775153,-0.76196 -3.530067,-1.58853 -5.123493,-2.6912 -3.140371,-2.05239 -5.801087,-4.79315 -7.87818,-7.90932 -0.22017,-0.47255 -1.168711,-1.22686 -0.95898,-0.18544 0.08358,3.99794 1.230769,7.93947 3.165079,11.43092 4.737897,9.31434 13.699978,16.30852 23.836094,18.79058 9.90119,2.57428 20.73509,1.0999 29.67395,-3.84127 15.04655,-8.02781 25.28008,-24.25331 26.18611,-41.26705 0.8406,-12.58206 -2.01292,-25.2267 -7.19285,-36.66074 -4.01844,-8.80055 -9.571,-16.76325 -14.45317,-25.08432 -1.42581,-2.10854 -2.62305,-4.35994 -3.99513,-6.50259 -2.25149,-3.72449 -4.44727,-7.48331 -6.69883,-11.20707 -1.7769,-2.70199 -3.66105,-5.42761 -6.22147,-7.44779 -1.50638,-0.90659 -3.0301,-1.79946 -4.61673,-2.55492 l -0.0954,-0.0281 z m 8.49609,28.25 c 2.34808,0.98527 3.58691,3.34905 5.34325,5.04675 6.42033,7.51557 11.33065,16.17796 15.63299,25.03862 2.2213,4.69562 4.31858,9.54534 5.08205,14.72178 -0.17203,1.14473 -1.79303,0.9824 -2.34806,0.23373 -0.69391,-0.93583 -0.53763,-2.17932 -0.9899,-3.21672 -2.11846,-7.28737 -5.56538,-14.0978 -9.22406,-20.71605 -2.06804,-3.65564 -4.45861,-7.12081 -7.0483,-10.42448 -1.96912,-2.78076 -4.22854,-5.33506 -6.50874,-7.86027 -0.42568,-0.67093 -1.50434,-1.32766 -1.10774,-2.21698 0.21523,-0.41202 0.69881,-0.70339 1.16851,-0.60638 z m 22.11133,77.68359 c 0.75704,0.23108 0.84042,1.16753 0.52673,1.78094 -0.37134,0.83296 -1.00821,1.50644 -1.4851,2.27873 -2.06495,2.9114 -4.5599,5.47948 -7.12567,7.94774 -1.13505,1.08078 -2.21503,2.24249 -3.48489,3.16492 -1.66632,1.16074 -3.08514,2.66036 -4.88378,3.6334 -2.40156,1.54992 -4.86431,3.0716 -7.58917,3.98667 -0.80684,0.11733 -1.33108,-0.78511 -1.01278,-1.47747 0.21017,-0.85613 1.13898,-0.98649 1.75667,-1.4271 3.52939,-2.08109 7.09908,-4.14627 10.22659,-6.8165 1.66345,-1.41425 3.14573,-3.02308 4.70878,-4.54431 1.50855,-1.53034 2.97284,-3.10636 4.34324,-4.76229 1.44811,-0.87573 1.43146,-3.10028 3.1111,-3.70487 0.28888,-0.1067 0.60737,-0.0965 0.90828,-0.0599 z" /><path
         id="path8050"
         style="fill:#062627;fill-opacity:1;stroke-width:0"
         d="m 107.75586,88.636719 c -3.49971,0.123469 -7.01459,2.769816 -7.42369,6.36856 -0.19937,1.282108 1.39233,2.184913 2.46408,1.565302 1.19906,-0.368752 1.9774,-1.429173 2.5768,-2.459253 1.76631,-1.774263 5.05506,-1.053211 6.26172,1.03125 0.9674,1.059047 2.53108,1.979258 3.97641,1.452613 0.95047,-0.648133 0.58085,-1.904396 0.18891,-2.765443 -1.19947,-3.224684 -4.62989,-5.374684 -8.04423,-5.193029 z m -1.09375,14.470701 c -7.122268,0.31788 -13.738915,4.12024 -18.423184,9.36495 -2.394663,2.59276 -4.217944,5.63515 -5.890187,8.71343 -6.709459,11.73045 -14.101554,23.0515 -20.902746,34.72749 -3.496962,5.97102 -6.975589,11.97493 -9.961511,18.2235 -3.714768,8.44348 -5.195184,17.78248 -4.834091,26.97259 0.659045,14.41093 6.842375,28.53846 17.174301,38.63914 10.379577,10.23337 24.418191,16.44605 38.846098,18.04368 8.60665,0.98814 17.37973,-0.28306 25.52671,-3.14344 12.10782,-4.26539 23.1711,-11.94348 30.6503,-22.45859 7.89366,-10.96558 12.08209,-24.70376 10.9505,-38.22399 -0.83467,-10.79271 -4.6373,-21.24514 -10.41755,-30.36307 -7.42134,-12.31778 -14.70718,-24.72135 -22.32264,-36.92533 -3.10776,-5.289 -5.92015,-10.8978 -10.39018,-15.20711 -5.25033,-5.20546 -12.49735,-8.73109 -20.00582,-8.36325 z m 1.46094,4.31446 c 5.83676,-0.0342 11.44591,2.65791 15.5684,6.70026 1.74891,1.6293 3.29515,3.52346 4.50826,5.64459 1.31692,1.9134 2.30457,4.02299 3.31108,6.10397 0.9725,1.5193 2.09189,2.94832 2.91109,4.56082 1.55086,2.37706 3.0357,4.8003 4.54684,7.20036 1.05586,1.9655 2.13123,3.93059 3.47177,5.72027 1.61177,2.62633 2.88692,5.45902 4.72681,7.94264 1.52361,2.57341 2.8284,5.28119 4.60293,7.69893 4.48323,7.24249 9.32234,14.39676 11.69648,22.66532 3.93493,13.10325 2.84844,27.58326 -3.08076,39.91833 -3.22009,6.68879 -7.7958,12.66082 -13.37423,17.59646 -5.61735,4.99029 -12.43008,8.96779 -19.54048,11.46706 -5.68033,1.9834 -11.74695,3.08541 -17.81259,3.28396 -8.5676,0.22286 -17.18372,-1.60141 -24.969067,-5.04269 -10.504382,-4.64566 -19.838853,-12.32423 -25.876974,-22.19617 -2.120656,-3.46257 -3.778041,-7.00382 -5.113506,-10.86883 -0.797428,-2.32955 -1.354102,-4.72814 -2.048712,-7.08864 -0.972836,-6.40255 -0.833674,-12.93281 -0.235592,-19.34945 0.651163,-5.3477 2.525877,-10.40279 4.941941,-15.20107 6.197268,-12.83337 13.888705,-24.84253 21.28112,-37.01304 3.195971,-5.09989 6.495307,-10.14476 9.265633,-15.49519 2.622565,-4.74511 6.229446,-9.14956 11.118629,-11.67487 3.101528,-1.6366 6.590218,-2.54874 10.100928,-2.57302 z M 91.9375,133.68945 c -0.761491,0.13399 -1.371558,0.7596 -2.017266,1.1736 -3.008946,2.29504 -5.250389,5.39377 -7.667397,8.26554 -6.328479,7.93857 -11.587236,16.71061 -15.741839,25.96963 -0.794608,1.55191 -1.718452,3.35991 -1.120373,5.13811 0.589887,1.14342 2.435821,0.82947 2.864699,-0.30252 0.924458,-1.64953 1.396504,-3.50613 2.287627,-5.17523 4.31215,-9.34883 10.023639,-18.19304 16.728533,-26.00272 1.700903,-2.00517 3.519825,-3.87367 5.316022,-5.81951 0.654477,-0.71426 1.309408,-1.961 0.545306,-2.81135 -0.322549,-0.29114 -0.760406,-0.45423 -1.195312,-0.43555 z m 33.48633,3.10938 c -0.84895,0.11244 -1.78088,1.20693 -1.04492,1.98047 2.03921,3.23451 4.96918,5.78751 7.04669,8.99453 3.66026,4.3862 6.66147,9.35919 9.32768,14.42908 2.97995,5.20942 5.203,10.8193 7.10873,16.49895 0.47264,1.41239 0.89145,2.84144 1.31572,4.26884 0.66012,0.76939 2.21981,1.1287 2.74415,0.0332 0.48617,-2.17724 -0.34288,-4.38012 -0.93137,-6.46011 -1.53076,-5.90459 -4.44852,-11.30485 -7.07917,-16.76784 -1.84255,-3.55041 -4.23662,-6.76983 -6.22179,-10.23698 -1.15625,-1.83074 -2.68868,-3.38938 -3.9989,-5.10921 -1.48186,-1.80539 -3.01518,-3.57408 -4.41917,-5.43954 -1.13661,-0.93 -2.21413,-2.31171 -3.84765,-2.1914 z m -17.78711,19.34179 c -4.85576,0.18155 -9.214581,2.67641 -13.121962,5.35866 -7.264849,4.93287 -13.375798,11.60169 -17.52257,19.34838 -1.466169,3.18554 -2.844727,6.47074 -3.266641,9.98175 -0.498822,3.42334 -0.661729,6.92043 -0.282188,10.36395 0.444428,3.11147 1.575017,6.08297 2.831598,8.9478 1.814165,3.9952 4.548608,7.58901 7.98495,10.3248 2.262588,1.5716 4.587179,3.09332 7.138315,4.1639 5.44567,2.32979 11.394248,3.35184 17.303088,3.30951 2.35032,0.0777 4.74367,0.0885 7.01545,-0.59804 3.21177,-0.50478 6.34784,-1.49779 9.1978,-3.07612 5.36742,-2.91714 9.9146,-7.27319 13.27294,-12.35896 2.36672,-3.71595 4.14709,-7.90975 4.60083,-12.32057 0.15983,-2.96614 -0.38533,-5.91202 -0.786,-8.83686 -0.58136,-2.52707 -1.61015,-4.93094 -2.27649,-7.42959 -2.06881,-4.14779 -4.48626,-8.13041 -7.40444,-11.73848 -2.21166,-2.91676 -4.84466,-5.49662 -7.7795,-7.6819 -4.10035,-3.24249 -8.59018,-6.27956 -13.74633,-7.49624 -1.03746,-0.2135 -2.10078,-0.29173 -3.15885,-0.26199 z m 0.58594,4.73243 c 4.43329,0.11598 8.37306,2.58117 11.64393,5.38332 5.96205,4.74177 11.63523,10.27065 14.79644,17.32179 1.88942,4.10603 2.9586,8.738 2.89211,13.28197 -0.0314,6.01206 -2.26567,12.10924 -6.36143,16.59214 -5.27934,5.88435 -13.0328,9.52982 -20.96357,9.58261 -3.3933,0.10906 -6.7672,-0.10242 -10.03162,-0.76886 -7.352502,-1.48942 -14.411127,-5.57333 -18.520185,-11.97018 -2.89518,-4.51555 -4.121207,-9.99348 -3.738882,-15.3642 0.596868,-8.49583 4.868799,-16.39525 10.71471,-22.44998 3.881216,-4.01242 8.470366,-7.32858 13.422367,-9.89201 1.93123,-0.91787 3.96117,-1.79819 6.14613,-1.7166 z m 22.4082,28.60547 c -1.242,0.45972 -1.268,2.00762 -1.34652,3.11855 -0.006,1.7157 0.22538,3.43893 -0.0675,5.14512 -0.28165,2.40221 -1.11616,4.98654 -2.37424,7.17386 -1.90347,3.40966 -4.86426,6.19334 -8.39826,7.9275 -5.92438,2.98426 -12.95579,3.17853 -19.282895,1.48103 -1.51748,-0.52888 -3.244515,-1.36493 -4.817655,-0.57263 -0.728666,0.53228 -0.07777,1.4905 0.325568,2.02843 1.242721,1.38381 3.215812,1.58006 4.874915,2.18514 9.693647,3.04001 21.063967,-0.0958 27.673727,-7.84957 4.55852,-5.30299 6.71704,-12.84042 4.89532,-19.6765 -0.15252,-0.64031 -0.83267,-1.12754 -1.48242,-0.96093 z m 17.38086,24.94726 c -1.49965,0.006 -2.4942,1.29468 -3.22828,2.44106 -4.93763,6.45865 -11.04112,11.93936 -18.03149,16.09605 -1.43422,1.16269 -3.65467,1.38465 -4.52279,3.20074 -0.68587,0.95698 0.33178,2.29119 1.42912,2.09207 1.62547,-0.16192 2.95424,-1.23434 4.40373,-1.89044 4.35991,-2.35648 8.24275,-5.4701 12.03399,-8.63373 3.31199,-2.56796 5.61845,-6.13846 8.03264,-9.50382 0.57801,-0.92997 1.61469,-2.05404 1.01198,-3.20623 -0.24226,-0.37665 -0.6804,-0.61304 -1.1289,-0.5957 z" /><path
         id="path22990"
         style="fill:#ffffff;fill-opacity:1;stroke:none;stroke-width:0"
         d="m 101.02019,167.16499 c -0.77981,0.0359 -1.394083,0.58023 -1.991028,1.02186 -1.590085,1.2074 -2.875304,2.75842 -4.083873,4.33402 -2.223262,2.95469 -4.12147,6.14333 -5.808991,9.43033 -1.516568,2.99649 -2.889964,6.0782 -3.888631,9.28889 -0.434224,1.46526 -0.838211,2.96531 -0.862637,4.503 0.0048,0.70115 0.107725,1.50243 0.685228,1.97559 0.42073,0.29775 0.960795,0.39765 1.468644,0.37568 0.421095,-0.0361 0.680657,-0.43028 0.76843,-0.80925 0.26122,-1.03788 0.386733,-2.10415 0.568235,-3.15779 0.443005,-2.92484 1.2691,-5.78609 2.408626,-8.5146 1.273522,-3.02693 2.778442,-5.97164 4.670735,-8.66176 1.178612,-1.675 2.540256,-3.28127 3.983325,-4.76177 0.993773,-1.03118 2.077837,-1.99608 2.883577,-3.18986 0.25358,-0.39356 0.50309,-0.91238 0.26393,-1.36925 -0.19759,-0.3855 -0.66642,-0.4919 -1.06557,-0.46509 z" /></g></g></svg>
