<?xml version="1.0" encoding="UTF-8" standalone="no"?>
<!-- Created with Inkscape (http://www.inkscape.org/) -->

<svg
   width="210mm"
   height="297mm"
   viewBox="0 0 210 297"
   version="1.1"
   id="svg5"
   xml:space="preserve"
   inkscape:version="1.2.2 (b0a8486541, 2022-12-01)"
   sodipodi:docname="banana.svg"
   xmlns:inkscape="http://www.inkscape.org/namespaces/inkscape"
   xmlns:sodipodi="http://sodipodi.sourceforge.net/DTD/sodipodi-0.dtd"
   xmlns="http://www.w3.org/2000/svg"
   xmlns:svg="http://www.w3.org/2000/svg"><sodipodi:namedview
     id="namedview7"
     pagecolor="#ffffff"
     bordercolor="#000000"
     borderopacity="0.25"
     inkscape:showpageshadow="2"
     inkscape:pageopacity="0.0"
     inkscape:pagecheckerboard="0"
     inkscape:deskcolor="#d1d1d1"
     inkscape:document-units="mm"
     showgrid="false"
     inkscape:zoom="0.8314902"
     inkscape:cx="239.32934"
     inkscape:cy="544.80498"
     inkscape:window-width="1916"
     inkscape:window-height="1153"
     inkscape:window-x="0"
     inkscape:window-y="21"
     inkscape:window-maximized="1"
     inkscape:current-layer="layer1" /><defs
     id="defs2" /><g
     inkscape:label="Ebene 1"
     inkscape:groupmode="layer"
     id="layer1"><g
       id="g18627"><path
         style="fill:#fc8211;fill-opacity:1;stroke-width:0.352778"
         d="m 124.88333,174.07882 c -2.03729,-0.46732 -4.65667,-1.19049 -5.82083,-1.60703 -4.68535,-1.67643 -9.60618,-5.79467 -14.8223,-11.23065 -1.77197,-1.84665 -2.80523,-3.31518 -3.08971,-3.61295 -0.21307,-0.22304 0.36067,0.056 1.6786,1.3688 2.17861,2.17019 6.4153,5.95742 9.53063,7.77888 4.48539,2.62252 10.61337,4.3062 15.69861,4.31326 2.97391,0.004 5.64445,-0.47344 5.64445,-1.00936 0,-0.15331 -0.99219,-1.54092 -2.20487,-3.08359 -4.23133,-5.38279 -9.4291,-13.58301 -12.49423,-19.71146 -3.54413,-7.08616 -5.56064,-13.07688 -6.88731,-20.46111 -0.99721,-5.55046 -1.06879,-17.32161 -0.14158,-23.28333 1.52928,-9.832944 5.15546,-21.834395 9.43761,-31.857365 1.34005,-3.13655 2.62536,-2.883156 3.12091,-2.387606 0.6509,0.6509 -0.49434,4.198547 -1.60718,9.374127 -1.74748,8.12719 -2.7612,13.92482 -2.76491,22.930564 -0.006,14.00227 1.83622,22.77952 8.06542,38.43247 3.57234,8.97671 4.5035,11.68579 5.97408,17.38075 0.68694,2.66026 1.82582,5.71367 2.09598,6.92131 l 0.55673,2.48862 c 0,0 -0.38514,0.28655 -0.73715,0.56556 -0.54582,0.43263 -1.28255,1.46688 -1.59438,2.07453 -0.31182,0.60765 -1.27263,2.097 -2.13512,3.30967 -0.75289,1.05858 -0.54505,1.79695 -1.19173,2.08195 -0.94206,0.41516 -2.96238,-0.008 -6.31172,-0.77604 z"
         id="path486"
         sodipodi:nodetypes="sssssscsssssssscssscsssss" /><path
         id="path488"
         style="fill:#f5a50a;fill-opacity:1;stroke-width:0.352778"
         d="m 108.85739,70.415107 c -7.22252,10.160653 -11.328316,22.314121 -12.728753,34.646923 -0.959325,7.60598 -0.654628,15.32901 0.518293,22.89268 1.15701,8.01966 3.229343,15.96303 6.80724,23.26177 2.38602,5.08429 5.37378,9.91237 9.17156,14.06857 1.66211,1.79432 3.27003,3.88198 5.71703,4.61392 2.76016,0.9944 5.6567,1.66251 8.60299,1.65626 2.14231,0.002 6.91259,-0.66467 7.08706,-1.20556 0.23981,-0.83039 -3.84836,-5.78803 -5.66931,-8.53142 -4.67598,-6.83231 -8.90506,-14.02415 -12.02412,-21.7088 -4.11138,-10.47455 -5.3549,-22.00511 -4.19592,-33.12804 1.01224,-10.073712 3.75796,-19.81868 7.37169,-29.23018 1.07475,-2.707478 2.08678,-5.461151 3.48271,-8.021855 0.87755,-0.922086 0.15665,-2.215465 -0.15192,-3.227835 -0.98739,-2.651934 -1.76763,-5.300857 -3.6889,-7.415472 -3.53233,3.765427 -7.75275,7.685687 -10.29965,11.329039 z"
         sodipodi:nodetypes="cccccccccccccccc" /><path
         id="path480"
         style="fill:#fff28f;fill-opacity:1;stroke-width:0.352778"
         d="m 114.16992,57.248047 c -1.75856,0.181846 -3.26568,1.234962 -4.82617,1.979045 -8.20439,4.330066 -15.167298,11.001982 -19.70413,19.105624 -2.962259,5.220396 -5.009313,10.941004 -6.297823,16.794237 -1.402171,7.339527 -1.598113,14.899787 -0.605562,22.304917 1.193688,8.94907 3.740923,17.78398 8.068435,25.73814 2.21803,4.18654 4.665066,8.29835 7.8775,11.80913 4.03595,4.49881 8.51172,8.67032 13.6771,11.84909 1.02964,0.69954 2.37756,1.25188 3.46629,1.85423 -2.90243,-3.45886 -6.39449,-8.15003 -8.66261,-11.97081 -5.3428,-8.91698 -8.424113,-19.00481 -9.953591,-29.21315 -0.83012,-5.51371 -0.84415,-11.08647 -0.771859,-16.6567 0.09113,-7.92196 1.729641,-15.844466 4.4096,-23.316286 2.01134,-5.582049 4.71673,-10.973802 7.98132,-15.846534 1.88177,-2.806556 4.02434,-5.541131 6.30874,-8.002272 1.40664,-1.497725 2.8458,-2.964468 4.26714,-4.448192 -1.60904,-0.678243 -3.11133,-1.745956 -4.87305,-1.976563 -0.12036,7.98e-4 -0.24108,-0.01018 -0.36133,-0.0039 z"
         sodipodi:nodetypes="sccccccccccccccccss" /><path
         style="fill:#4b4440;fill-opacity:1;stroke-width:0.352778"
         d="m 117.21167,58.240091 c -1.01796,-0.50254 -2.17578,-0.741131 -2.17646,-0.849311 -7.1e-4,-0.10816 0.99781,-0.942139 1.82243,-1.534179 6.6439,-4.77009 8.5319,-6.06677 10.84791,-7.4504 1.45521,-0.86937 3.98102,-2.17997 5.6129,-2.91244 2.42226,-1.08723 3.66774,-1.694814 4.1975,-1.363984 0.3569,0.22289 0.64805,0.48613 0.64699,0.58498 -0.001,0.0988 -2.15021,1.544574 -4.06515,2.678044 -3.80022,2.2494 -8.29831,5.73164 -12.23926,9.47516 -1.38887,1.31929 -2.44365,2.529937 -2.51813,2.498887 -0.0745,-0.031 -1.11078,-0.624227 -2.12873,-1.126757 z"
         id="path482"
         sodipodi:nodetypes="sccssscsscs" /><path
         id="path484"
         style="fill:#262529;fill-opacity:1;stroke-width:0.352778"
         d="m 137.61133,44.703125 c -5.65219,3.120684 -10.89793,6.968798 -15.67383,11.306641 -0.93877,0.96464 -1.93177,1.939357 -2.58708,3.131991 -0.3227,0.991669 0.54483,1.629136 0.88516,2.472929 1.46662,2.476642 2.14142,5.300025 3.33083,7.898986 0.20131,0.482832 0.55945,0.912318 1.13476,0.80664 1.21727,-2.755192 2.293,-5.594042 3.98361,-8.108921 2.45611,-3.819945 5.61311,-7.219868 9.42076,-9.719111 1.12636,-0.727366 2.01908,-1.854736 2.1586,-3.221836 0.34326,-1.551166 -0.9661,-2.751404 -1.67055,-3.980267 -0.33042,-0.343596 -0.42828,-1.162368 -0.98226,-0.587052 z m -0.68188,122.118265 c -1.17554,0.0875 -1.60642,1.41774 -2.18277,2.25708 -1.07107,1.92364 -2.53324,3.58497 -3.64225,5.47633 -0.30357,0.54255 0.1937,0.83664 0.65363,1.01003 1.19297,0.62515 2.40959,1.53082 3.64233,2.07579 1.17215,-0.51402 2.16886,-1.38036 3.1679,-2.17169 1.28778,-1.0497 2.39752,-2.76311 1.817,-4.47425 -0.48793,-1.47008 -1.60017,-2.9233 -2.75467,-3.92329 -0.20727,-0.13592 -0.4507,-0.24785 -0.70117,-0.25 z"
         sodipodi:nodetypes="cccccccccccccccccccc" /></g></g></svg>
