<?xml version="1.0" encoding="UTF-8" standalone="no"?>
<!-- Created with Inkscape (http://www.inkscape.org/) -->

<svg
   width="210mm"
   height="297mm"
   viewBox="0 0 210 297"
   version="1.1"
   id="svg15350"
   xml:space="preserve"
   inkscape:version="1.2.2 (b0a8486541, 2022-12-01)"
   sodipodi:docname="coconut.svg"
   xmlns:inkscape="http://www.inkscape.org/namespaces/inkscape"
   xmlns:sodipodi="http://sodipodi.sourceforge.net/DTD/sodipodi-0.dtd"
   xmlns="http://www.w3.org/2000/svg"
   xmlns:svg="http://www.w3.org/2000/svg"><sodipodi:namedview
     id="namedview15352"
     pagecolor="#ffffff"
     bordercolor="#000000"
     borderopacity="0.25"
     inkscape:showpageshadow="2"
     inkscape:pageopacity="0.0"
     inkscape:pagecheckerboard="0"
     inkscape:deskcolor="#d1d1d1"
     inkscape:document-units="mm"
     showgrid="false"
     inkscape:zoom="0.84096521"
     inkscape:cx="326.41065"
     inkscape:cy="540.45042"
     inkscape:window-width="1920"
     inkscape:window-height="1200"
     inkscape:window-x="0"
     inkscape:window-y="0"
     inkscape:window-maximized="1"
     inkscape:current-layer="layer1" /><defs
     id="defs15347" /><g
     inkscape:label="Ebene 1"
     inkscape:groupmode="layer"
     id="layer1"><g
       id="g20714"
       transform="translate(-264.37032,16.838501)"><ellipse
         style="fill:#aa5c3e;fill-opacity:1;stroke:none;stroke-width:1.98256;stroke-linecap:round"
         id="ellipse18294"
         cx="361.86688"
         cy="142.34352"
         rx="59.445724"
         ry="62.294876" /><path
         id="path17737"
         style="fill:#d47a4c;fill-opacity:1;stroke:none;stroke-width:2.37822;stroke-linecap:round"
         d="m 315.60742,102.51367 c -2.95577,4.04466 -5.58271,8.33766 -7.6316,12.91478 -2.39855,5.37084 -4.33758,11.01512 -5.10484,16.86697 -0.5725,5.61837 -0.60534,11.2949 -0.18755,16.92591 0.48981,5.03232 1.7023,9.98295 3.35563,14.75523 3.46025,9.84118 9.56843,18.69695 17.36719,25.60352 4.52133,3.86438 9.45144,7.33826 14.9082,9.75195 1.03716,0.34511 2.10121,1.03344 3.24219,0.81836 1.02914,-0.83357 2.38808,-1.2 3.59495,-1.75423 1.50369,-0.67248 3.17771,-1.18373 4.36794,-2.37272 0.33091,-0.27614 0.20353,-0.92973 0.76953,-0.80078 1.97543,0.0526 3.54239,-1.35875 5.13071,-2.33303 7.62075,-5.10322 14.25536,-11.50207 21.35506,-17.25175 4.91301,-4.1116 10.22841,-7.91962 14.08907,-13.10755 0.96409,-1.37813 1.85386,-2.81349 2.80407,-4.1983 0.60396,-1.81474 0.70972,-3.76425 0.91601,-5.64062 0.50742,-0.46842 1.32095,-0.57494 1.66993,-1.25 0.97832,-1.70512 1.31611,-3.6882 1.91994,-5.54058 1.17452,-3.89141 1.50506,-7.96471 1.58512,-12.01043 0.069,-5.5535 0.37012,-11.15051 -0.44256,-16.66579 -0.72982,-4.2928 -1.92315,-8.50418 -3.39186,-12.60007 -0.33439,-0.70069 -0.49862,-1.66348 -1.20761,-2.06263 -4.19278,-0.19967 -8.39706,-0.13734 -12.59467,-0.19388 -22.11869,-0.11342 -44.23776,-0.0624 -66.35665,-0.079 -0.0527,0.0749 -0.10546,0.14974 -0.1582,0.22461 z" /><path
         style="fill:#000000;stroke-width:0.352778"
         d="m 356.86191,208.28542 c -15.18285,-1.59538 -26.98435,-6.98621 -37.69736,-17.21984 -10.0908,-9.63928 -16.08829,-20.39137 -19.25837,-34.52574 -1.31132,-5.84674 -1.72432,-10.77118 -1.48322,-17.68537 0.42306,-12.13234 3.3987,-22.42431 9.33266,-32.27917 3.48585,-5.78914 8.81757,-12.066534 13.82852,-16.281244 7.66664,-6.448421 18.32698,-11.590788 28.39861,-13.699013 7.45472,-1.560445 18.30508,-1.253084 25.75531,0.72958 1.55082,0.412708 3.16829,0.829811 3.59437,0.926899 0.7129,0.162443 2.28452,-2.843964 19.706,-37.696374 10.41223,-20.830091 19.00231,-37.9480351 19.08906,-38.0398738 0.16537,-0.1750695 4.64547,2.1182364 4.9021,2.5093223 0.0815,0.1241213 -8.26421,17.0642095 -18.54591,37.6446395 -10.2817,20.580433 -18.68754,37.544503 -18.67966,37.697933 0.008,0.153433 1.45961,0.98015 3.22606,1.837153 12.25053,5.943395 23.00235,16.787487 29.23538,29.486258 4.85749,9.89635 7.07021,20.73279 6.55514,32.10278 -0.4915,10.84976 -2.40868,18.49658 -7.07576,28.22222 -7.60018,15.83787 -20.64182,27.57612 -36.7891,33.11236 -7.535,2.58344 -17.33483,3.8677 -24.09383,3.15748 z M 369.91469,203.09 c 17.33538,-3.28239 30.67655,-12.13933 39.99106,-26.54923 7.3085,-11.30656 10.94381,-24.81915 10.32862,-38.39186 -0.58278,-12.85722 -4.16848,-23.29743 -11.41953,-33.2493 l -1.86353,-2.55764 h -45.29978 -45.29977 l -1.04257,1.32292 c -3.47183,4.40539 -7.2129,11.55712 -9.28069,17.74171 -2.85314,8.53349 -3.83786,16.94436 -2.99707,25.59906 1.53958,15.84758 6.96028,28.11089 17.09544,38.67516 8.43858,8.79585 18.48084,14.44698 29.86965,16.80868 1.9327,0.40079 3.99025,0.79553 4.57234,0.87721 1.55732,0.21853 13.9063,-0.004 15.34583,-0.27671 z m -19.22348,-4.78777 c -0.39984,-0.64695 -1.91034,-10.72733 -2.4588,-16.40888 -1.09723,-11.36617 -1.59464,-27.07698 -0.93262,-29.45694 0.13493,-0.48507 0.47629,-0.88194 0.75858,-0.88194 0.43384,0 0.54771,1.74697 0.73584,11.28889 0.26865,13.62517 1.33334,25.83062 2.76959,31.74999 0.52383,2.15891 0.45407,4.05695 -0.14912,4.05695 -0.27959,0 -0.60515,-0.15664 -0.72347,-0.34807 z m 31.23542,-3.86732 c -0.41995,-0.2654 -0.032,-1.26027 2.16475,-5.55051 5.83423,-11.39447 9.40882,-23.22786 10.34408,-34.24313 0.22224,-2.61747 0.31982,-2.91041 0.96956,-2.91041 0.69714,0 0.71441,0.13129 0.49307,3.74886 -0.4194,6.85443 -2.7245,16.4064 -5.94854,24.64975 -1.79904,4.59984 -6.63563,14.35341 -7.2066,14.53299 -0.16756,0.0527 -0.5349,-0.0497 -0.81632,-0.22755 z m -44.99101,-13.15892 c -2.05722,-8.86582 -3.05281,-18.27407 -3.26273,-30.83249 -0.21312,-12.7501 0.016,-17.05708 0.9075,-17.0571 0.53508,-1e-5 0.58721,1.15071 0.6033,13.31736 0.0164,12.37629 0.0848,13.82843 0.96776,20.54932 0.52258,3.97757 1.25288,8.81944 1.6229,10.75972 0.37001,1.94028 0.59984,3.64684 0.51073,3.79236 -0.34075,0.55644 -1.17331,0.22996 -1.34946,-0.52917 z m 65.6304,0.11957 c -0.10925,-0.17677 0.68943,-2.20083 1.77484,-4.49792 2.82232,-5.97294 4.9972,-11.92242 6.36166,-17.40255 1.40244,-5.63271 2.60383,-13.15931 2.60383,-16.31275 0,-1.33296 0.19421,-2.51833 0.47565,-2.90323 2.78487,-3.80853 0.73445,13.43847 -2.97831,25.05194 -1.38918,4.34535 -5.31444,13.75451 -6.48034,15.5339 -0.56663,0.86479 -1.39602,1.11522 -1.75733,0.53061 z m -36.70051,-4.9577 c -0.11565,-0.18712 0.1125,-2.05243 0.50699,-4.14514 2.17384,-11.53174 3.52771,-27.43991 3.53884,-41.58154 0.002,-2.3445 0.0982,-4.35762 0.21423,-4.47361 0.11598,-0.11598 0.43348,-0.12545 0.70556,-0.0211 1.11402,0.4275 0.3131,22.14876 -1.28549,34.86295 -0.78721,6.26102 -2.02617,13.68191 -2.48845,14.90486 -0.31448,0.83197 -0.83529,1.03019 -1.19168,0.45353 z m -50.06938,-8.4421 c -0.91517,-2.89704 -2.32924,-9.91042 -3.10157,-15.38296 -0.74464,-5.27636 -0.53982,-18.4469 0.3758,-24.16528 0.92641,-5.78575 1.01029,-6.06891 1.75295,-5.91807 0.6869,0.13951 0.68292,0.49769 -0.05,4.50696 -2.18435,11.94811 -1.14526,28.62867 2.54186,40.8047 0.47291,1.56169 0.55098,2.28334 0.27668,2.55763 -0.69411,0.69412 -0.90751,0.40854 -1.79567,-2.40298 z m 62.938,-8.64082 c 0,-0.49188 0.31018,-3.32133 0.68928,-6.28767 0.77313,-6.04948 1.42158,-18.09505 1.42508,-26.47183 0.002,-5.45176 0.0166,-5.55625 0.76175,-5.55625 h 0.75944 l -0.20844,11.2007 c -0.19343,10.3939 -0.72947,17.93471 -1.77388,24.95426 -0.32699,2.19776 -0.55491,2.84359 -1.03621,2.93628 -0.45649,0.0879 -0.61702,-0.11384 -0.61702,-0.77549 z m 21.31101,-3.47894 c 1.39188,-6.86275 2.07774,-14.39962 1.91816,-21.07848 -0.11758,-4.92083 -0.0954,-5.11527 0.58333,-5.11527 0.65184,0 0.72853,0.33574 1.00723,4.40972 0.33012,4.82561 -0.37774,14.75611 -1.408,19.75264 -0.64605,3.13322 -0.66861,3.17791 -1.60442,3.17791 -0.63479,0 -0.69883,-0.14794 -0.4963,-1.14652 z m -45.87606,-2.26102 c 0.7708,-5.62361 1.69797,-20.72858 1.91295,-31.16468 0.21572,-10.4719 0.32458,-12.17083 0.77988,-12.17083 0.46082,0 0.52379,1.55012 0.48756,12.00084 -0.0386,11.13381 -0.33474,17.57279 -1.21653,26.45194 -0.64711,6.51599 -0.64943,6.52638 -1.45726,6.52638 -0.66818,0 -0.71228,-0.14307 -0.5066,-1.64365 z m -31.7225,-8.61846 c -0.69682,-1.12748 0.8846,-16.78034 2.50953,-24.83927 1.73833,-8.62135 2.37888,-10.91297 3.08857,-11.04965 0.83726,-0.16124 0.78673,0.29945 -0.80508,7.33925 -1.74124,7.7007 -2.81902,15.07506 -3.0429,20.82012 -0.25105,6.44199 -0.4632,8.11389 -1.02963,8.11389 -0.26563,0 -0.58985,-0.17296 -0.72049,-0.38434 z m 69.34033,-25.1057 c 0,-0.078 -0.63424,-3.14555 -1.40943,-6.81684 -1.60622,-7.60707 -1.64806,-8.00689 -0.82131,-7.84746 0.6157,0.11873 0.98704,1.3878 2.51085,8.58073 1.04377,4.927 1.10015,5.94691 0.33725,6.10081 -0.33955,0.0685 -0.61736,0.0607 -0.61736,-0.0173 z M 331.04347,96.217117 c 0.56739,-1.569085 2.65811,-3.682291 4.44688,-4.494703 2.72163,-1.236091 6.41388,-0.8096 9.18029,1.060415 1.15202,0.778729 2.66167,3.046709 2.66447,4.002892 0.002,0.575373 0.78852,0.617361 11.56942,0.617361 h 11.56762 l 3.66522,-7.403729 c 2.01588,-4.072051 3.59701,-7.46306 3.51364,-7.535577 -0.15606,-0.135724 -3.47708,-0.921864 -7.20715,-1.706051 -2.79139,-0.586842 -14.44681,-0.603052 -17.4625,-0.02427 -1.26118,0.242041 -2.67365,0.515246 -3.13882,0.60712 -6.44118,1.27218 -15.55769,5.370544 -21.56888,9.696383 -1.99795,1.437767 -7.0423,5.80634 -7.0423,6.098843 0,0.147006 2.11123,0.267282 4.69163,0.267282 h 4.69163 z M 349.624,95.62953 c -0.31567,-0.510762 1.03159,-3.105351 2.38989,-4.602522 0.62912,-0.693437 1.84639,-1.725312 2.70504,-2.293055 1.45278,-0.960582 1.79572,-1.03226 4.93889,-1.03226 2.85219,0 3.62469,0.128285 4.9652,0.824541 2.65111,1.376976 5.3428,4.41012 4.7561,5.359431 -0.3706,0.599638 -0.71714,0.387876 -2.84757,-1.740073 -1.66751,-1.665566 -2.48947,-2.199833 -4.10563,-2.668612 -4.05506,-1.176196 -7.63209,0.311157 -10.22196,4.250366 -1.43345,2.180261 -2.103,2.673921 -2.57996,1.902184 z m -4.05098,1.397582 c 0,-1.040377 -1.42293,-2.649491 -3.32201,-3.756667 -1.25508,-0.731724 -5.14043,-0.560944 -6.53149,0.287087 -1.26575,0.771642 -2.49262,2.116953 -2.92332,3.205547 -0.23905,0.604189 0.11136,0.640003 6.2618,0.640003 4.37609,0 6.51502,-0.123434 6.51502,-0.37597 z m 56.44445,0.185448 c 0,-0.364585 -3.01562,-3.080046 -5.64445,-5.082631 -2.82062,-2.148688 -6.00077,-4.078372 -10.1391,-6.152303 l -2.55438,-1.280131 -3.18012,6.352793 -3.18012,6.352794 h 12.34908 c 6.792,0 12.34909,-0.08573 12.34909,-0.190522 z"
         id="path17590" /></g></g></svg>
