<?xml version="1.0" encoding="UTF-8" standalone="no"?>
<!-- Created with Inkscape (http://www.inkscape.org/) -->

<svg
   width="100mm"
   height="127.732mm"
   viewBox="0 0 100 127.732"
   version="1.1"
   id="svg15350"
   xml:space="preserve"
   inkscape:version="1.2.2 (b0a8486541, 2022-12-01)"
   sodipodi:docname="coconut.svg"
   xmlns:inkscape="http://www.inkscape.org/namespaces/inkscape"
   xmlns:sodipodi="http://sodipodi.sourceforge.net/DTD/sodipodi-0.dtd"
   xmlns="http://www.w3.org/2000/svg"
   xmlns:svg="http://www.w3.org/2000/svg"><sodipodi:namedview
     id="namedview15352"
     pagecolor="#ffffff"
     bordercolor="#000000"
     borderopacity="0.25"
     inkscape:showpageshadow="2"
     inkscape:pageopacity="0.0"
     inkscape:pagecheckerboard="0"
     inkscape:deskcolor="#d1d1d1"
     inkscape:document-units="mm"
     showgrid="false"
     inkscape:zoom="0.51112243"
     inkscape:cx="277.81994"
     inkscape:cy="564.44403"
     inkscape:window-width="956"
     inkscape:window-height="1048"
     inkscape:window-x="960"
     inkscape:window-y="126"
     inkscape:window-maximized="1"
     inkscape:current-layer="layer1" /><defs
     id="defs15347" /><g
     inkscape:label="Ebene 1"
     inkscape:groupmode="layer"
     id="layer1"
     transform="translate(-33.987496,-41.974832)"><g
       id="g4250"
       transform="matrix(0.99999996,0,0,0.99832188,1.3913366e-6,0.07043896)"><ellipse
         style="fill:#aa5c3e;fill-opacity:1;stroke:none;stroke-width:0"
         id="ellipse18294"
         cx="79.546738"
         cy="122.47818"
         rx="42.644344"
         ry="44.688232" /><path
         id="path17737"
         style="fill:#d47a4c;fill-opacity:1;stroke:none;stroke-width:0"
         d="m 46.361776,93.905588 c -2.120367,2.901504 -4.004846,5.981142 -5.47465,9.264622 -1.720638,3.85286 -3.111633,7.90187 -3.66204,12.0998 -0.410691,4.03042 -0.43425,8.10257 -0.134541,12.14207 0.351373,3.61002 1.221171,7.16142 2.407215,10.5849 2.482266,7.05973 6.864067,13.41256 12.458632,18.3671 3.243449,2.77217 6.780143,5.26421 10.694638,6.99571 0.744023,0.24759 1.507337,0.74137 2.325837,0.58706 0.73827,-0.59796 1.713128,-0.86084 2.578896,-1.25842 1.078696,-0.4824 2.279581,-0.84916 3.133411,-1.70211 0.237384,-0.19808 0.146005,-0.66695 0.552035,-0.57445 1.417106,0.0378 2.541191,-0.97471 3.680597,-1.67363 5.466868,-3.66087 10.226311,-8.2512 15.319396,-12.37583 3.524427,-2.94951 7.337517,-5.68127 10.107008,-9.4029 0.69161,-0.98865 1.32992,-2.01831 2.01157,-3.01172 0.43325,-1.30184 0.50911,-2.70036 0.6571,-4.04639 0.364,-0.33603 0.94761,-0.41244 1.19796,-0.89671 0.70181,-1.2232 0.94413,-2.64579 1.37729,-3.97462 0.84256,-2.79158 1.07969,-5.71361 1.13713,-8.61588 0.0494,-3.98389 0.2655,-7.999 -0.31749,-11.95548 -0.52354,-3.07951 -1.3796,-6.100611 -2.43321,-9.038856 -0.23989,-0.502651 -0.3577,-1.193325 -0.8663,-1.47966 -3.00776,-0.143238 -6.023759,-0.09852 -9.034989,-0.139085 -15.867196,-0.08136 -31.734667,-0.04476 -47.602007,-0.05666 -0.03781,0.05373 -0.07564,0.107419 -0.113488,0.161128 z" /><path
         id="path17590"
         style="fill:#000000;stroke-width:0"
         d="m 79.030953,74.601075 c -2.863901,-0.01161 -5.6699,0.221649 -8.009541,0.71139 -7.225031,1.512367 -14.872548,5.201267 -20.372324,9.827132 -3.594678,3.023476 -7.41918,7.526631 -9.919808,11.679568 -4.256812,7.069525 -6.39152,14.452655 -6.695008,23.155975 -0.172956,4.96 0.123243,8.4929 1.063936,12.68715 2.274104,10.1395 6.576436,17.85257 13.81522,24.76746 7.685135,7.34125 16.151226,11.20829 27.042865,12.35277 4.848666,0.50948 11.878978,-0.41178 17.284317,-2.26505 11.58347,-3.9715 20.93907,-12.39204 26.39116,-23.75355 3.34799,-6.97683 4.72317,-12.46233 5.07575,-20.24554 0.36949,-8.15644 -1.21787,-15.93028 -4.70244,-23.02957 -4.47136,-9.10965 -12.18443,-16.888688 -20.972517,-21.152295 -1.055709,-0.512192 -2.031368,-0.950806 -2.289865,-1.078766 -0.226868,-0.113029 -4.404809,-1.707846 -4.754343,-1.799421 -0.38311,-0.06985 -1.457589,-0.34746 -2.490796,-0.62242 -3.006302,-0.800042 -6.784439,-1.219887 -10.466606,-1.234833 z m 0.465611,3.375307 c 2.611026,0.0037 5.201857,0.111656 6.20308,0.322146 2.675824,0.562549 4.960412,1.16142 5.170279,1.224081 1.938998,0.455834 2.544913,0.759091 4.324322,1.602175 l 1.832416,0.91825 c 2.9687,1.487755 5.250279,2.872264 7.273689,4.413661 1.88583,1.436583 4.04887,3.38439 4.04887,3.645926 0,0.07521 -3.9861,0.136795 -8.858453,0.136795 h -8.858838 c 0,0 -4.897882,0.01614 -4.911899,0 h -8.298324 c -7.733836,0 -8.298002,-0.03027 -8.299437,-0.443 -0.002,-0.685934 -1.084958,-2.312877 -1.911378,-2.871511 -1.984523,-1.341482 -4.633248,-1.647422 -6.585647,-0.760695 -1.283201,0.582789 -2.7833,2.098812 -3.190322,3.224424 l -0.30732,0.850782 h -3.365669 c -1.851087,0 -3.365668,-0.08619 -3.365668,-0.191658 0,-0.209831 3.618766,-3.343716 5.052025,-4.375108 4.312214,-3.10321 10.868061,-5.989287 15.488735,-6.901904 0.333697,-0.0659 1.351946,-0.282793 2.256671,-0.456425 1.081674,-0.207599 3.69185,-0.341598 6.302868,-0.337967 z m -1.494397,5.014531 c -1.763381,0.0685 -2.541032,0.340425 -3.583205,1.029514 -0.615966,0.407284 -1.488984,1.147757 -1.940292,1.645206 -0.974397,1.07402 -1.940982,2.935133 -1.71453,3.301534 0.342153,0.55362 0.822274,0.199464 1.85058,-1.364581 1.857882,-2.825855 4.424042,-3.892828 7.332998,-3.049085 1.159376,0.336286 1.749073,0.719533 2.945288,1.914349 1.528283,1.526505 1.77675,1.678329 2.042607,1.248175 0.420878,-0.681003 -1.509834,-2.856834 -3.411636,-3.844624 -0.961641,-0.499473 -2.107449,-0.935438 -3.52181,-0.880488 z m -14.142116,3.958118 c 0.674452,0.02324 1.277179,0.129004 1.61481,0.325849 1.362331,0.794246 2.383288,1.948357 2.383288,2.694684 0,0.181165 -1.534649,0.26988 -4.6739,0.26988 -4.41211,0 -4.66337,-0.0259 -4.491883,-0.459314 0.308967,-0.780903 1.189097,-1.745961 2.097102,-2.299501 0.623685,-0.38022 1.946499,-0.570393 3.070583,-0.531598 z m -16.964393,6.833277 h 32.496738 32.496364 l 1.33677,1.835013 c 5.20166,7.139119 7.77387,14.628489 8.19193,23.851799 0.44132,9.73659 -2.16648,19.43017 -7.40937,27.5411 -6.68189,10.33716 -16.252265,16.69088 -28.688057,19.04555 -1.032668,0.19563 -9.891411,0.3551 -11.008576,0.19832 -0.417573,-0.0586 -1.893586,-0.34156 -3.280035,-0.6291 -8.169931,-1.69417 -15.373824,-5.74822 -21.427363,-12.05803 -7.270605,-7.57843 -11.15936,-16.37575 -12.263802,-27.74425 -0.603152,-6.20857 0.103001,-12.24221 2.149743,-18.36382 1.483359,-4.43661 4.167368,-9.567305 6.657937,-12.727564 z m 52.322274,2.054473 c -0.37583,0.05283 -0.22677,0.8695 0.781436,5.644419 0.556082,2.63365 1.010942,4.83406 1.010942,4.89002 0,0.056 0.19941,0.0618 0.443,0.0127 0.54726,-0.11041 0.50668,-0.84213 -0.24209,-4.3766 -1.09311,-5.159944 -1.359588,-6.070445 -1.801266,-6.155617 -0.07425,-0.01426 -0.138341,-0.02243 -0.192022,-0.01488 z M 55.478317,98.62191 c -0.05427,-0.0086 -0.119546,-3.33e-4 -0.194623,0.01409 -0.509106,0.09806 -0.968343,1.74185 -2.215358,7.92651 -1.165667,5.78119 -2.300409,17.01005 -1.800535,17.81888 0.09373,0.15163 0.326586,0.27581 0.51714,0.27581 0.406335,0 0.558359,-1.19961 0.738452,-5.82088 0.160603,-4.1213 0.933633,-9.41129 2.182736,-14.9355 0.999171,-4.418839 1.152005,-5.224104 0.772188,-5.278909 z m 20.477976,0.854491 c -0.326618,0 -0.404653,1.218759 -0.5594,8.730949 -0.15422,7.48649 -0.819423,18.32253 -1.372367,22.35673 -0.147548,1.07646 -0.115662,1.17884 0.363666,1.17884 0.579508,0 0.581188,-0.007 1.045399,-4.68168 0.632567,-6.36957 0.84496,-10.98884 0.872652,-18.97585 0.02598,-7.49699 -0.01939,-8.608989 -0.34995,-8.608989 z m 17.753632,7.718909 c -0.534546,0 -0.54499,0.075 -0.546425,3.98587 -0.003,6.00921 -0.467808,14.65026 -1.022411,18.98993 -0.271954,2.12797 -0.494531,4.15758 -0.494531,4.51044 0,0.47464 0.115158,0.61948 0.442628,0.55642 0.345268,-0.0665 0.509073,-0.52976 0.743644,-2.10636 0.749224,-5.03557 1.133509,-10.44534 1.272273,-17.90156 l 0.149765,-8.03474 z m -48.090249,1.05022 c -0.377509,0.0231 -0.496519,0.6326 -1.078022,4.26426 -0.656833,4.10218 -0.803684,13.55003 -0.269506,17.33511 0.554043,3.92579 1.568487,8.95703 2.224997,11.03527 0.637135,2.01688 0.790285,2.22175 1.288215,1.72381 0.196772,-0.19679 0.140919,-0.71436 -0.19833,-1.83466 -2.64501,-8.73465 -3.390494,-20.70078 -1.823519,-29.27193 0.525771,-2.87612 0.528346,-3.13324 0.0356,-3.23332 -0.06658,-0.0136 -0.125495,-0.0219 -0.179424,-0.0186 z m 40.062542,2.61201 c -0.09173,0.003 -0.169334,0.025 -0.210935,0.0666 -0.08325,0.0833 -0.15241,1.52737 -0.153846,3.20924 -0.0079,10.1447 -0.979175,21.55663 -2.538615,29.82911 -0.282872,1.5006 -0.446381,2.83862 -0.363662,2.97382 0.255655,0.41334 0.62931,0.27122 0.854857,-0.32547 0.33161,-0.8773 1.220612,-6.20094 1.785332,-10.69237 1.146774,-9.12072 1.721103,-24.70285 0.921958,-25.00953 -0.09759,-0.0375 -0.203351,-0.0542 -0.295089,-0.0515 z m 23.046622,2.53787 c -0.48691,0 -0.50252,0.13965 -0.41817,3.66966 0.11448,4.79119 -0.37759,10.19777 -1.37607,15.12084 -0.14528,0.71636 -0.0995,0.82261 0.35588,0.82261 0.67132,0 0.6876,-0.0322 1.15106,-2.27985 0.73907,-3.58433 1.24699,-10.70827 1.01017,-14.17 -0.19991,-2.92251 -0.25526,-3.16326 -0.72287,-3.16326 z m -48.756416,2.65725 c -0.639531,2e-5 -0.803851,3.08953 -0.650965,12.23601 0.150588,9.00897 0.86451,15.75833 2.340287,22.11836 0.126364,0.54458 0.723851,0.77878 0.968292,0.3796 0.06392,-0.1044 -0.1012,-1.32876 -0.366631,-2.72063 -0.265439,-1.39188 -0.789147,-4.86517 -1.164027,-7.71853 -0.633404,-4.82134 -0.682573,-5.86294 -0.694339,-14.74127 -0.01155,-8.72792 -0.04876,-9.55355 -0.432617,-9.55354 z m 57.288676,4.55861 c -0.12821,0.006 -0.28501,0.12977 -0.4723,0.38592 -0.2019,0.27611 -0.34105,1.12642 -0.34105,2.08262 0,2.26219 -0.86195,7.66149 -1.868,11.7022 -0.97883,3.93125 -2.53879,8.1992 -4.56344,12.48401 -0.77862,1.64783 -1.35176,3.09984 -1.27339,3.22663 0.25919,0.4194 0.85432,0.24003 1.26079,-0.38035 0.83638,-1.27645 3.65215,-8.02631 4.64869,-11.14352 2.41371,-7.55004 3.84789,-18.41939 2.6087,-18.35751 z m -47.620209,8.47441 c -0.202506,0 -0.447408,0.28483 -0.544202,0.63281 -0.474909,1.7073 -0.117983,12.97785 0.669131,21.13154 0.393446,4.07573 1.477004,11.30703 1.763833,11.77112 0.08488,0.13732 0.318427,0.2495 0.518994,0.2495 0.432709,0 0.482911,-1.36135 0.107135,-2.91007 -1.030315,-4.24636 -1.794281,-13.00216 -1.987002,-22.77638 -0.134956,-6.84503 -0.216668,-8.09852 -0.527889,-8.09852 z m 33.965119,0.12679 c -0.4661,0 -0.53639,0.21014 -0.69581,2.08783 -0.67093,7.90196 -3.235236,16.39069 -7.420501,24.56468 -1.575873,3.07766 -1.854159,3.79141 -1.552897,3.98178 0.201877,0.12759 0.465517,0.20093 0.585718,0.16311 0.409592,-0.12882 3.879352,-7.12568 5.169904,-10.42546 2.312826,-5.91347 3.966376,-12.76569 4.267236,-17.68281 0.15878,-2.59511 0.14646,-2.68913 -0.35365,-2.68913 z"
         sodipodi:nodetypes="sssssssssssssccsscscccsssccscssccsscssccsssssssssscssssscccccsscscssscccssssscccsssssccsssssssscssssccscsssssccccsccscssssssssssssssssscsscssssssscssssssssssssssss" /><path
         style="fill:#73473a;fill-opacity:1;stroke-width:0"
         d="m 131.46518,41.974832 2.52232,2.240069 -43.411475,46.027006 c -1.652066,0.0065 -3.304124,6.24e-4 -4.956188,-0.0037 z"
         id="path14385"
         sodipodi:nodetypes="ccccc" /></g></g></svg>
