<?xml version="1.0" encoding="UTF-8" standalone="no"?>
<!-- Created with Inkscape (http://www.inkscape.org/) -->

<svg
   width="210mm"
   height="297mm"
   viewBox="0 0 210 297"
   version="1.1"
   id="svg15350"
   xml:space="preserve"
   inkscape:version="1.2.2 (b0a8486541, 2022-12-01)"
   sodipodi:docname="coconut.svg"
   xmlns:inkscape="http://www.inkscape.org/namespaces/inkscape"
   xmlns:sodipodi="http://sodipodi.sourceforge.net/DTD/sodipodi-0.dtd"
   xmlns="http://www.w3.org/2000/svg"
   xmlns:svg="http://www.w3.org/2000/svg"><sodipodi:namedview
     id="namedview15352"
     pagecolor="#ffffff"
     bordercolor="#000000"
     borderopacity="0.25"
     inkscape:showpageshadow="2"
     inkscape:pageopacity="0.0"
     inkscape:pagecheckerboard="0"
     inkscape:deskcolor="#d1d1d1"
     inkscape:document-units="mm"
     showgrid="false"
     inkscape:zoom="0.83097232"
     inkscape:cx="-43.924447"
     inkscape:cy="249.10577"
     inkscape:window-width="1916"
     inkscape:window-height="1153"
     inkscape:window-x="0"
     inkscape:window-y="21"
     inkscape:window-maximized="1"
     inkscape:current-layer="layer1" /><defs
     id="defs15347" /><g
     inkscape:label="Ebene 1"
     inkscape:groupmode="layer"
     id="layer1"><ellipse
       style="fill:#aa5c3e;fill-opacity:1;stroke:none;stroke-width:1.98256;stroke-linecap:round"
       id="ellipse18294"
       cx="97.496559"
       cy="159.18202"
       rx="59.445724"
       ry="62.294876" /><path
       id="path17737"
       style="fill:#d47a4c;fill-opacity:1;stroke:none;stroke-width:2.37822;stroke-linecap:round"
       d="m 51.2371,119.35217 c -2.95577,4.04466 -5.58271,8.33766 -7.6316,12.91478 -2.39855,5.37084 -4.33758,11.01512 -5.10484,16.86697 -0.5725,5.61837 -0.60534,11.2949 -0.18755,16.92591 0.48981,5.03232 1.7023,9.98295 3.35563,14.75523 3.46025,9.84118 9.56843,18.69695 17.36719,25.60352 4.52133,3.86438 9.45144,7.33826 14.9082,9.75195 1.03716,0.34511 2.10121,1.03344 3.24219,0.81836 1.02914,-0.83357 2.38808,-1.2 3.59495,-1.75423 1.50369,-0.67248 3.17771,-1.18373 4.36794,-2.37272 0.33091,-0.27614 0.20353,-0.92973 0.76953,-0.80078 1.97543,0.0526 3.54239,-1.35875 5.13071,-2.33303 7.62075,-5.10322 14.25536,-11.50207 21.35506,-17.25175 4.91301,-4.1116 10.22841,-7.91962 14.08907,-13.10755 0.96409,-1.37813 1.85386,-2.81349 2.80407,-4.1983 0.60396,-1.81474 0.70972,-3.76425 0.91601,-5.64062 0.50742,-0.46842 1.32095,-0.57494 1.66993,-1.25 0.97832,-1.70512 1.31611,-3.6882 1.91994,-5.54058 1.17452,-3.89141 1.50506,-7.96471 1.58512,-12.01043 0.069,-5.5535 0.37012,-11.15051 -0.44256,-16.66579 -0.72982,-4.2928 -1.92315,-8.50418 -3.39186,-12.60007 -0.33439,-0.70069 -0.49862,-1.66348 -1.20761,-2.06263 -4.19278,-0.19967 -8.39706,-0.13734 -12.59467,-0.19388 -22.11869,-0.11342 -44.23776,-0.0624 -66.35665,-0.079 -0.0527,0.0749 -0.10546,0.14974 -0.1582,0.22461 z" /><path
       id="path17590"
       style="fill:#000000;stroke-width:0.352778"
       d="m 96.777555,92.441903 c -3.992246,-0.0162 -7.903776,0.308977 -11.16521,0.99167 -10.07161,2.108221 -20.732159,7.250507 -28.398783,13.698907 -5.01094,4.21469 -10.342253,10.49204 -13.828097,16.28118 -5.933948,9.85484 -8.909705,20.14684 -9.332763,32.27916 -0.2411,6.91419 0.171797,11.83902 1.483113,17.68574 3.170074,14.13435 9.167478,24.88629 19.258256,34.52555 10.71299,10.23361 22.514621,15.62424 37.697441,17.21962 6.758986,0.71022 16.559158,-0.57401 24.094138,-3.15743 16.14724,-5.53624 29.18881,-17.27436 36.78897,-33.11219 4.66706,-9.72562 6.58405,-17.37233 7.07553,-28.22205 0.51507,-11.36997 -1.69768,-22.20662 -6.55515,-32.10295 -6.23301,-12.69875 -16.98494,-23.54264 -29.23543,-29.48606 -1.47165,-0.713988 -2.8317,-1.32541 -3.19205,-1.503784 -0.31626,-0.157565 -6.14025,-2.380719 -6.6275,-2.508374 -0.53405,-0.09737 -2.03186,-0.484357 -3.47214,-0.867647 -4.19075,-1.115249 -9.45743,-1.700508 -14.590325,-1.721342 z m 0.649056,4.705139 c 3.639739,0.0051 7.251329,0.155647 8.647019,0.449068 3.73007,0.784185 6.91476,1.619005 7.20731,1.706356 2.70294,0.635426 3.54758,1.058164 6.02806,2.233414 l 2.55436,1.28003 c 4.13833,2.07391 7.31882,4.0039 10.13944,6.15259 2.62881,2.00258 5.6441,4.7178 5.6441,5.08238 0,0.10482 -5.55662,0.19069 -12.3486,0.19069 h -12.34912 c 0,0 -6.82759,0.0225 -6.84713,0 H 94.534281 c -10.780878,0 -11.567319,-0.0422 -11.569319,-0.61754 -0.0028,-0.95618 -1.512419,-3.22412 -2.664437,-4.00285 -2.766404,-1.87001 -6.458694,-2.29649 -9.180318,-1.0604 -1.788768,0.8124 -3.879886,2.92572 -4.447274,4.49481 l -0.428398,1.18598 h -4.691703 c -2.580394,0 -4.691703,-0.12016 -4.691703,-0.26717 0,-0.2925 5.044518,-4.6611 7.042464,-6.09885 6.011178,-4.32584 15.149952,-8.348997 21.591118,-9.621175 0.46517,-0.09187 1.884597,-0.394208 3.145775,-0.636249 1.507841,-0.289391 5.146393,-0.476184 8.786125,-0.471124 z m -2.083173,6.990198 c -2.458133,0.0955 -3.54217,0.47455 -4.994948,1.43513 -0.858648,0.56775 -2.075626,1.59996 -2.704744,2.2934 -1.358298,1.49717 -2.705705,4.09154 -2.390035,4.6023 0.476958,0.77174 1.146241,0.27805 2.579687,-1.90221 2.589866,-3.93921 6.167064,-5.42656 10.222116,-4.25039 1.616156,0.46878 2.438186,1.00302 4.105696,2.66858 2.13041,2.12793 2.47677,2.33957 2.84737,1.73994 0.5867,-0.94931 -2.10469,-3.98239 -4.75578,-5.35936 -1.340516,-0.69626 -2.93776,-1.30399 -4.909362,-1.22739 z m -19.713946,5.51757 c 0.940176,0.0324 1.780371,0.17983 2.251026,0.45423 1.899076,1.10717 3.322277,2.71599 3.322277,3.75636 0,0.25254 -2.139284,0.37621 -6.515364,0.37621 -6.150428,0 -6.500683,-0.0361 -6.261633,-0.64028 0.430698,-1.08857 1.657589,-2.43385 2.923335,-3.20548 0.869411,-0.53002 2.713399,-0.79512 4.280359,-0.74104 z m -23.648169,9.52551 h 45.300078 45.299559 l 1.86345,2.55799 c 7.25105,9.95185 10.83668,20.39193 11.41946,33.24913 0.61519,13.57269 -3.02007,27.08543 -10.32857,38.39197 -9.31449,14.40988 -22.6555,23.26691 -39.99084,26.54928 -1.43953,0.27271 -13.788515,0.495 -15.345831,0.27647 -0.58209,-0.0817 -2.639635,-0.47616 -4.572331,-0.87695 -11.388788,-2.36168 -21.430931,-8.01296 -29.869495,-16.80879 -10.135138,-10.56425 -15.556019,-22.8276 -17.095597,-38.67516 -0.840788,-8.65468 0.143582,-17.06548 2.996716,-25.59895 2.067786,-6.18459 5.809264,-13.3367 9.281088,-17.74207 z m 72.936637,2.86391 c -0.52389,0.0737 -0.31611,1.21208 1.08934,7.86825 0.77517,3.67129 1.40921,6.73864 1.40921,6.81664 0,0.078 0.27799,0.0861 0.61754,0.0176 0.76288,-0.1539 0.70632,-1.17392 -0.33745,-6.10092 -1.52381,-7.19291 -1.89526,-8.46214 -2.51096,-8.58087 -0.10334,-0.0199 -0.19284,-0.0312 -0.26768,-0.0207 z m -60.972509,3.88245 c -0.07564,-0.0109 -0.166645,-4.8e-4 -0.271301,0.0196 -0.70969,0.13668 -1.349858,2.42812 -3.088184,11.04945 -1.624926,8.05891 -3.206744,23.71183 -2.509924,24.83931 0.13064,0.21138 0.455256,0.38448 0.720886,0.38448 0.566428,0 0.778346,-1.67225 1.029394,-8.11424 0.22388,-5.74504 1.301473,-13.11922 3.042709,-20.81992 1.39283,-6.1598 1.605882,-7.28231 1.07642,-7.35872 z m 28.546061,1.19114 c -0.4553,0 -0.564079,1.69896 -0.779797,12.17084 -0.21498,10.43608 -1.142264,25.54141 -1.913062,31.16502 -0.20568,1.50058 -0.161232,1.64331 0.506946,1.64331 0.807828,0 0.810167,-0.0102 1.457275,-6.52622 0.881788,-8.87913 1.177864,-15.31834 1.216464,-26.45213 0.03623,-10.4507 -0.02701,-12.00082 -0.487826,-12.00082 z m 24.748358,10.76007 c -0.74515,0 -0.75971,0.10449 -0.76171,5.55625 -0.004,8.37676 -0.65212,20.42229 -1.42523,26.47177 -0.3791,2.96634 -0.68937,5.79559 -0.68937,6.28747 0,0.66165 0.16053,0.86356 0.61702,0.77566 0.4813,-0.0927 0.70964,-0.73849 1.03663,-2.93625 1.04441,-7.01953 1.5801,-14.56067 1.77353,-24.95455 l 0.20878,-11.20035 z m -67.03725,1.46399 c -0.526243,0.0323 -0.692143,0.88183 -1.50275,5.94434 -0.915618,5.71838 -1.120326,18.88858 -0.375688,24.16494 0.772328,5.47252 2.186452,12.486 3.10162,15.38304 0.888158,2.8115 1.101646,3.09707 1.795756,2.40295 0.274298,-0.27429 0.196439,-0.99578 -0.276469,-2.55747 -3.687114,-12.17599 -4.72631,-28.85665 -2.541964,-40.80474 0.732918,-4.00927 0.736508,-4.36771 0.04961,-4.50722 -0.09283,-0.0188 -0.174936,-0.0304 -0.250114,-0.0258 z m 55.84672,3.64112 c -0.12788,0.004 -0.23605,0.035 -0.29404,0.093 -0.11603,0.11599 -0.21246,2.12913 -0.21446,4.47363 -0.0111,14.14161 -1.36496,30.04972 -3.5388,41.58144 -0.39432,2.09182 -0.62225,3.95701 -0.50694,4.14548 0.35638,0.57619 0.87725,0.37806 1.19166,-0.45371 0.46226,-1.22295 1.70152,-8.64402 2.48873,-14.90504 1.59859,-12.71417 2.3992,-34.43549 1.2852,-34.86299 -0.13604,-0.0522 -0.28347,-0.0756 -0.41135,-0.0718 z m 32.12672,3.53777 c -0.67873,0 -0.70049,0.19464 -0.58291,5.11545 0.15958,6.67886 -0.52635,14.21557 -1.91823,21.0783 -0.20253,0.99858 -0.13869,1.1467 0.4961,1.1467 0.93581,0 0.9585,-0.0449 1.60455,-3.1781 1.03026,-4.99651 1.7383,-14.92719 1.40818,-19.7528 -0.2787,-4.07396 -0.35585,-4.40955 -1.00769,-4.40955 z m -67.965875,3.70417 c -0.891498,2e-5 -1.120558,4.30676 -0.907438,17.05684 0.209918,12.5584 1.205117,21.96694 3.262333,30.83274 0.17615,0.75913 1.00904,1.08561 1.349788,0.52917 0.08911,-0.14552 -0.14107,-1.85227 -0.51108,-3.79253 -0.370018,-1.94028 -1.10006,-6.782 -1.62264,-10.75955 -0.882958,-6.72089 -0.951499,-8.17287 -0.967899,-20.54914 -0.01609,-12.16663 -0.06798,-13.31754 -0.603064,-13.31753 z m 79.859725,6.35465 c -0.1787,0.009 -0.39728,0.1809 -0.65836,0.53795 -0.28144,0.3849 -0.47542,1.57022 -0.47542,2.90318 0,3.15344 -1.20154,10.68001 -2.60398,16.3127 -1.36446,5.48013 -3.53905,11.42962 -6.36137,17.40256 -1.08539,2.29709 -1.88433,4.32116 -1.77508,4.49791 0.36131,0.58461 1.1909,0.33459 1.75751,-0.5302 1.1659,-1.77937 5.09105,-11.1886 6.48023,-15.53393 3.36468,-10.52469 5.36391,-25.67644 3.63647,-25.59017 z m -66.381995,11.81323 c -0.28229,0 -0.62368,0.39705 -0.75861,0.88212 -0.662018,2.37996 -0.164468,18.09097 0.93276,29.45712 0.548458,5.68153 2.058926,15.76186 2.458764,16.40881 0.11832,0.19143 0.443882,0.34779 0.72347,0.34779 0.60319,0 0.673175,-1.89771 0.149345,-4.0566 -1.436246,-5.91937 -2.501207,-18.12487 -2.769857,-31.75 -0.188128,-9.5419 -0.302032,-11.28924 -0.735872,-11.28924 z m 47.346985,0.17674 c -0.64974,0 -0.74773,0.29294 -0.96997,2.91041 -0.93526,11.01525 -4.50986,22.84842 -10.34407,34.24287 -2.19675,4.29024 -2.58468,5.28517 -2.16473,5.55057 0.28142,0.17785 0.64893,0.28008 0.81649,0.22738 0.57097,-0.17958 5.40777,-9.93313 7.20679,-14.53297 3.22404,-8.24333 5.52908,-17.79523 5.94848,-24.64966 0.22134,-3.61755 0.20415,-3.7486 -0.49299,-3.7486 z"
       sodipodi:nodetypes="sssssssssssssccsscscccsssccscssccsscssccsssssssssscssssscccccsscscssscccssssscccsssssccsssssssscssssccscsssssccccsccscssssssssssssssssscsscssssssscssssssssssssssss" /><path
       style="fill:#fff6d5;stroke-width:2;stroke-linecap:round"
       d="m 153.8869,19.450955 4.75392,2.465551 -45.76957,92.328544 c -2.30296,0.009 -4.60591,8.7e-4 -6.90887,-0.005 z"
       id="path14385"
       sodipodi:nodetypes="ccccc" /></g></svg>
