<?xml version="1.0" encoding="UTF-8" standalone="no"?>
<!-- Created with Inkscape (http://www.inkscape.org/) -->

<svg
   width="100mm"
   height="127.732mm"
   viewBox="0 0 100 127.732"
   version="1.1"
   id="svg15350"
   xml:space="preserve"
   inkscape:version="1.2.2 (b0a8486541, 2022-12-01)"
   sodipodi:docname="coconut.svg"
   xmlns:inkscape="http://www.inkscape.org/namespaces/inkscape"
   xmlns:sodipodi="http://sodipodi.sourceforge.net/DTD/sodipodi-0.dtd"
   xmlns="http://www.w3.org/2000/svg"
   xmlns:svg="http://www.w3.org/2000/svg"><sodipodi:namedview
     id="namedview15352"
     pagecolor="#ffffff"
     bordercolor="#000000"
     borderopacity="0.25"
     inkscape:showpageshadow="2"
     inkscape:pageopacity="0.0"
     inkscape:pagecheckerboard="0"
     inkscape:deskcolor="#d1d1d1"
     inkscape:document-units="mm"
     showgrid="false"
     inkscape:zoom="2.850379"
     inkscape:cx="193.83387"
     inkscape:cy="302.24051"
     inkscape:window-width="1920"
     inkscape:window-height="1200"
     inkscape:window-x="0"
     inkscape:window-y="0"
     inkscape:window-maximized="1"
     inkscape:current-layer="layer1" /><defs
     id="defs15347" /><g
     inkscape:label="Ebene 1"
     inkscape:groupmode="layer"
     id="layer1"
     transform="translate(-33.987496,-41.974832)"><path
       id="ellipse18294"
       style="fill:#aa5c3e;fill-opacity:1;stroke:none;stroke-width:0"
       d="m 76.433594,77.320312 c -2.928637,0.270867 -5.838139,0.767316 -8.656196,1.620152 -2.987776,0.886997 -5.87833,2.10839 -8.594389,3.639634 -2.800942,1.562917 -5.416522,3.455948 -7.798423,5.60423 -2.067019,1.811285 -3.83725,3.918856 -5.618961,6.003172 18.360628,0.02064 36.72205,-0.05428 55.082035,0.119141 0.70384,0.07004 1.50351,-0.05965 2.15384,0.143722 0.88462,1.827762 1.39276,3.826019 1.95912,5.773487 0.91233,3.22084 1.3196,6.42333 1.3137,9.81774 -0.0303,3.49241 0.0173,7.14758 -0.34268,10.517 -0.28986,2.51063 -1.00689,4.95136 -1.8336,7.32993 -0.16966,0.58804 -0.56144,1.04131 -1.13654,1.25338 -0.72225,0.28839 -0.44271,1.15743 -0.59772,1.77162 -0.14901,1.24236 -0.22343,2.58943 -1.09976,3.56891 -1.787276,2.99123 -4.276667,5.47877 -6.953001,7.68003 -4.121434,3.35919 -8.210965,6.75881 -12.239767,10.22989 -3.019875,2.50971 -6.088125,5.01201 -9.496731,6.97729 -0.562891,0.36666 -1.249715,0.22073 -1.846005,0.4077 -0.3537,0.33576 -0.433307,0.86921 -0.945188,1.06515 -1.602582,0.9848 -3.503215,1.43206 -5.099688,2.39536 -1.34931,-0.20173 -2.564808,-0.93393 -3.785906,-1.51552 -6.513348,-3.49016 -12.189789,-8.57692 -16.247343,-14.76387 -0.192486,-0.48963 -1.050886,-0.9251 -1.307323,-0.91399 0.01935,0.71679 0.213577,1.36773 0.697757,1.90946 2.202765,3.34479 4.856026,6.39401 7.870916,9.02988 2.836504,2.47255 5.989514,4.57767 9.369878,6.23195 2.84715,1.40114 5.859418,2.45294 8.945016,3.1909 4.410602,0.99213 8.979954,1.32765 13.482349,0.86873 10.464223,-1.02638 20.384666,-6.23032 27.349876,-14.07971 8.34596,-9.25702 12.51103,-22.02784 11.52269,-34.42637 C 121.71813,106.79317 116.039,95.176771 106.86053,87.386589 98.708144,80.362035 87.792995,76.553843 77.029195,77.297376 c -0.198533,0.0076 -0.397067,0.01529 -0.595601,0.02294 z" /><path
       id="path17737"
       style="fill:#d47a4c;fill-opacity:1;stroke:none;stroke-width:0"
       d="m 46.361776,93.818442 c -2.120367,2.896635 -4.004846,5.971105 -5.47465,9.249078 -1.720638,3.84639 -3.111633,7.88861 -3.66204,12.07949 -0.410691,4.02366 -0.43425,8.08897 -0.134541,12.1217 0.351373,3.60396 1.221171,7.1494 2.407215,10.56713 2.482266,7.04789 6.864067,13.39006 12.458631,18.33628 3.243449,2.76752 6.780143,5.25538 10.694638,6.98397 0.744023,0.24718 1.507337,0.74013 2.325837,0.58608 0.73827,-0.59696 1.713128,-0.8594 2.578896,-1.25631 1.078696,-0.48159 2.279581,-0.84774 3.133411,-1.69926 0.237384,-0.19774 0.146005,-0.66583 0.552035,-0.57348 1.417105,0.0377 2.54119,-0.97308 3.680596,-1.67082 5.466868,-3.65473 10.226311,-8.23736 15.319396,-12.35506 3.524427,-2.94457 7.337516,-5.67174 10.10701,-9.38713 0.69161,-0.98699 1.32992,-2.01492 2.01157,-3.00666 0.43325,-1.29966 0.50911,-2.69583 0.6571,-4.0396 0.364,-0.33547 0.94761,-0.41175 1.19796,-0.89521 0.70181,-1.22114 0.94413,-2.64135 1.37729,-3.96795 0.84256,-2.78689 1.07969,-5.70402 1.13713,-8.60142 0.0494,-3.9772 0.2655,-7.98557 -0.31749,-11.93542 -0.52354,-3.07434 -1.3796,-6.090369 -2.43321,-9.023683 -0.23989,-0.501807 -0.3577,-1.191322 -0.8663,-1.477177 -3.00776,-0.142998 -6.023761,-0.09836 -9.034991,-0.138852 -15.867196,-0.08122 -31.734666,-0.04468 -47.602005,-0.05656 -0.03781,0.05364 -0.07564,0.107238 -0.113488,0.160857 z" /><path
       id="path17590"
       style="fill:#000000;stroke-width:0"
       d="m 79.030951,74.546324 c -2.863901,-0.01159 -5.6699,0.221277 -8.00954,0.710197 -7.225031,1.509829 -14.872548,5.192538 -20.372324,9.81064 -3.594677,3.018403 -7.419179,7.514001 -9.919807,11.659969 -4.256812,7.05766 -6.39152,14.4284 -6.695008,23.11712 -0.172956,4.95167 0.123243,8.47864 1.063936,12.66586 2.274104,10.12248 6.576436,17.82261 13.815219,24.72589 7.685135,7.32893 16.151226,11.18948 27.042864,12.33204 4.848666,0.50863 11.878978,-0.41109 17.284317,-2.26125 11.583472,-3.96483 20.939072,-12.37124 26.391162,-23.71368 3.34799,-6.96513 4.72317,-12.44142 5.07575,-20.21157 0.36949,-8.14275 -1.21787,-15.90355 -4.70244,-22.99092 -4.47136,-9.094366 -12.18443,-16.86035 -20.97252,-21.116802 -1.055709,-0.511333 -2.031367,-0.949211 -2.289864,-1.076956 -0.226868,-0.112839 -4.404809,-1.70498 -4.754343,-1.796401 -0.38311,-0.06973 -1.457589,-0.346877 -2.490796,-0.621376 -3.006302,-0.798699 -6.784439,-1.21784 -10.466606,-1.232761 z m 0.465611,3.369643 c 2.611026,0.0037 5.201857,0.111469 6.20308,0.321606 2.675824,0.561605 4.960412,1.159471 5.170279,1.222026 1.938998,0.45507 2.544913,0.757818 4.324322,1.599487 l 1.832416,0.916709 c 2.968699,1.485258 5.250281,2.867444 7.273691,4.406254 1.88583,1.434172 4.04887,3.378711 4.04887,3.639808 0,0.07508 -3.9861,0.136565 -8.858456,0.136565 h -8.858837 c 0,0 -4.897882,0.01611 -4.911899,0 h -8.298324 c -7.733835,0 -8.298001,-0.03022 -8.299436,-0.442256 -0.002,-0.684783 -1.084958,-2.308996 -1.911378,-2.866692 -1.984523,-1.339231 -4.633248,-1.644658 -6.585647,-0.759419 -1.283201,0.581811 -2.7833,2.09529 -3.190322,3.219013 l -0.30732,0.849354 h -3.365669 c -1.851087,0 -3.365668,-0.08604 -3.365668,-0.191336 0,-0.209479 3.618766,-3.338105 5.052025,-4.367766 4.312214,-3.098002 10.868061,-5.979236 15.488735,-6.890322 0.333697,-0.06579 1.351945,-0.282318 2.25667,-0.455659 1.081674,-0.20725 3.69185,-0.341025 6.302868,-0.3374 z m -1.494397,5.006116 c -1.763381,0.06839 -2.541032,0.339854 -3.583205,1.027787 -0.615966,0.4066 -1.488984,1.145831 -1.940292,1.642445 -0.974396,1.072217 -1.940981,2.930207 -1.714529,3.295993 0.342153,0.552691 0.822274,0.19913 1.850579,-1.362291 1.857882,-2.821113 4.424042,-3.886295 7.332998,-3.043968 1.159376,0.335722 1.749073,0.718326 2.945288,1.911137 1.528283,1.523943 1.77675,1.675512 2.042607,1.24608 0.420878,-0.67986 -1.509834,-2.85204 -3.411636,-3.838172 -0.961641,-0.498635 -2.107449,-0.933869 -3.52181,-0.879011 z M 63.86005,86.873559 c 0.674452,0.0232 1.277179,0.128788 1.61481,0.325302 1.362331,0.792913 2.383288,1.945088 2.383288,2.690162 0,0.180861 -1.534649,0.269427 -4.6739,0.269427 -4.41211,0 -4.66337,-0.02586 -4.491883,-0.458543 0.308967,-0.779592 1.189097,-1.743031 2.097102,-2.295642 0.623685,-0.379582 1.946499,-0.569436 3.070583,-0.530706 z m -16.964392,6.82181 h 32.496736 32.496366 l 1.33677,1.831934 c 5.20166,7.127137 7.77387,14.603937 8.19193,23.811777 0.44132,9.72025 -2.16648,19.39756 -7.40937,27.49488 -6.68189,10.31981 -16.252268,16.66287 -28.688059,19.01359 -1.032668,0.1953 -9.891411,0.3545 -11.008576,0.19798 -0.417573,-0.0585 -1.893586,-0.34098 -3.280034,-0.62804 C 62.86149,163.72616 55.657597,159.67892 49.604058,153.3797 42.333454,145.81398 38.444699,137.03143 37.340257,125.682 36.737105,119.48385 37.443258,113.46034 39.49,107.349 c 1.483359,-4.42916 4.167368,-9.55125 6.657937,-12.706206 z m 52.322271,2.051025 c -0.37583,0.05274 -0.22677,0.868041 0.781436,5.634946 0.556085,2.62923 1.010945,4.82595 1.010945,4.88182 0,0.0559 0.19941,0.0617 0.443,0.0127 0.54726,-0.11022 0.50668,-0.84071 -0.24209,-4.36925 -1.09311,-5.151287 -1.359591,-6.06026 -1.801269,-6.145289 -0.07425,-0.01424 -0.138341,-0.02239 -0.192022,-0.01485 z M 55.478316,98.52685 c -0.05427,-0.0086 -0.119546,-3.33e-4 -0.194623,0.01407 -0.509106,0.0979 -0.968343,1.73892 -2.215358,7.9132 -1.165667,5.77149 -2.300409,16.98151 -1.800535,17.78898 0.09373,0.15138 0.326586,0.27535 0.51714,0.27535 0.406335,0 0.558359,-1.1976 0.738452,-5.81111 0.160603,-4.11439 0.933633,-9.3955 2.182736,-14.91044 0.999171,-4.411419 1.152005,-5.215332 0.772188,-5.270045 z m 20.477975,0.853057 c -0.326618,0 -0.404653,1.216713 -0.5594,8.716293 -0.15422,7.47393 -0.819423,18.29179 -1.372367,22.31922 -0.147548,1.07465 -0.115662,1.17686 0.363666,1.17686 0.579508,0 0.581188,-0.007 1.045399,-4.67383 0.632567,-6.35888 0.84496,-10.97039 0.872652,-18.944 0.02598,-7.48441 -0.01939,-8.594543 -0.34995,-8.594543 z m 17.753632,7.705953 c -0.534546,0 -0.54499,0.0749 -0.546425,3.97918 -0.003,5.99913 -0.467808,14.62568 -1.022411,18.95807 -0.271954,2.1244 -0.494531,4.1506 -0.494531,4.50287 0,0.47384 0.115158,0.61844 0.442628,0.55548 0.345268,-0.0664 0.509073,-0.52887 0.743644,-2.10282 0.749224,-5.02712 1.133509,-10.42781 1.272273,-17.87152 l 0.149765,-8.02126 z m -48.090247,1.04846 c -0.377509,0.0231 -0.496519,0.63154 -1.078022,4.2571 -0.656833,4.0953 -0.803684,13.5273 -0.269506,17.30602 0.554043,3.91921 1.568487,8.942 2.224997,11.01676 0.637135,2.01349 0.790284,2.21802 1.288214,1.72091 0.196772,-0.19646 0.140919,-0.71316 -0.19833,-1.83158 -2.645009,-8.71999 -3.390493,-20.66604 -1.823518,-29.22281 0.525771,-2.87129 0.528346,-3.12798 0.0356,-3.22789 -0.06658,-0.0136 -0.125495,-0.0219 -0.179424,-0.0186 z m 40.06254,2.60763 c -0.09173,0.003 -0.169334,0.025 -0.210935,0.0665 -0.08325,0.0832 -0.15241,1.52481 -0.153846,3.20386 -0.0079,10.12768 -0.979175,21.52045 -2.538615,29.77905 -0.282872,1.49808 -0.446381,2.83386 -0.363662,2.96883 0.255655,0.41265 0.62931,0.27077 0.854857,-0.32492 0.33161,-0.87583 1.220612,-6.19054 1.785332,-10.67443 1.146774,-9.10541 1.721103,-24.66139 0.921958,-24.96756 -0.09759,-0.0374 -0.203351,-0.0541 -0.295089,-0.0514 z m 23.046624,2.53361 c -0.48691,0 -0.50252,0.13941 -0.41817,3.6635 0.11448,4.78315 -0.37759,10.18066 -1.37607,15.09547 -0.14528,0.71515 -0.0995,0.82122 0.35588,0.82122 0.67132,0 0.6876,-0.0321 1.15106,-2.27602 0.73907,-3.57831 1.24699,-10.6903 1.01017,-14.14622 -0.19991,-2.91761 -0.25526,-3.15795 -0.72287,-3.15795 z m -48.756417,2.65279 c -0.639531,2e-5 -0.803851,3.08434 -0.650965,12.21548 0.150588,8.99385 0.86451,15.73188 2.340287,22.08124 0.126364,0.54366 0.723851,0.77747 0.968292,0.37896 0.06392,-0.10422 -0.1012,-1.32653 -0.366631,-2.71606 -0.265439,-1.38955 -0.789147,-4.85701 -1.164027,-7.70558 -0.633404,-4.81325 -0.682573,-5.8531 -0.694339,-14.71653 -0.01155,-8.71328 -0.04876,-9.53752 -0.432617,-9.53751 z m 57.288677,4.55096 c -0.12821,0.006 -0.28501,0.12955 -0.4723,0.38527 -0.2019,0.27565 -0.34105,1.12453 -0.34105,2.07913 0,2.25839 -0.86195,7.64863 -1.868,11.68256 -0.97883,3.92465 -2.53879,8.18544 -4.56344,12.46306 -0.77862,1.64506 -1.35176,3.09464 -1.27339,3.22121 0.25919,0.4187 0.85432,0.23963 1.26079,-0.37971 0.83638,-1.27431 3.65215,-8.01284 4.64869,-11.12482 2.41371,-7.53737 3.84789,-18.38848 2.6087,-18.3267 z m -47.62021,8.46019 c -0.202506,0 -0.447408,0.28435 -0.544202,0.63175 -0.474909,1.70443 -0.117983,12.95607 0.669131,21.09607 0.393446,4.06889 1.477004,11.28806 1.763833,11.75137 0.08488,0.13709 0.318427,0.24908 0.518994,0.24908 0.432708,0 0.48291,-1.35906 0.107135,-2.90518 -1.030315,-4.23924 -1.794281,-12.98034 -1.987002,-22.73816 -0.134956,-6.83355 -0.216668,-8.08493 -0.527889,-8.08493 z m 33.96512,0.12657 c -0.4661,0 -0.53639,0.20979 -0.69581,2.08433 -0.67093,7.8887 -3.235239,16.36319 -7.420503,24.52346 -1.575873,3.07249 -1.854159,3.78505 -1.552897,3.9751 0.201877,0.12737 0.465517,0.20059 0.585718,0.16283 0.409592,-0.1286 3.879351,-7.11372 5.169903,-10.40796 2.312829,-5.90355 3.966379,-12.74427 4.267239,-17.65314 0.15878,-2.59075 0.14646,-2.68462 -0.35365,-2.68462 z"
       sodipodi:nodetypes="sssssssssssssccsscscccsssccscssccsscssccsssssssssscssssscccccsscscssscccssssscccsssssccsssssssscssssccscsssssccccsccscssssssssssssssssscsscssssssscssssssssssssssss" /><path
       style="fill:#73473a;fill-opacity:1;stroke-width:0"
       d="m 131.46518,41.974832 2.52232,2.23631 -43.411477,45.949767 c -1.652066,0.0065 -3.304124,6.23e-4 -4.956188,-0.0037 z"
       id="path14385"
       sodipodi:nodetypes="ccccc" /></g></svg>
