<?xml version="1.0" encoding="UTF-8" standalone="no"?>
<!-- Created with Inkscape (http://www.inkscape.org/) -->

<svg
   version="1.1"
   id="svg1"
   width="899.46472"
   height="677.46344"
   viewBox="0 0 899.46472 677.46344"
   sodipodi:docname="arrow.svg"
   inkscape:version="1.3 (0e150ed6c4, 2023-07-21)"
   xmlns:inkscape="http://www.inkscape.org/namespaces/inkscape"
   xmlns:sodipodi="http://sodipodi.sourceforge.net/DTD/sodipodi-0.dtd"
   xmlns="http://www.w3.org/2000/svg"
   xmlns:svg="http://www.w3.org/2000/svg">
  <defs
     id="defs1" />
  <sodipodi:namedview
     id="namedview1"
     pagecolor="#ffffff"
     bordercolor="#000000"
     borderopacity="0.25"
     inkscape:showpageshadow="2"
     inkscape:pageopacity="0.0"
     inkscape:pagecheckerboard="0"
     inkscape:deskcolor="#d1d1d1"
     inkscape:zoom="0.24261221"
     inkscape:cx="133.95863"
     inkscape:cy="614.14881"
     inkscape:window-width="956"
     inkscape:window-height="1006"
     inkscape:window-x="960"
     inkscape:window-y="168"
     inkscape:window-maximized="1"
     inkscape:current-layer="g1" />
  <g
     inkscape:groupmode="layer"
     inkscape:label="Image"
     id="g1"
     transform="translate(-260.72813,17.49601)">
    <path
       style="fill:#657b83;fill-opacity:1"
       d="m 685.23968,658.59717 c -4.62326,-2.52872 -6,-5.42849 -6,-12.63746 0,-8.60633 6.50711,-44.28748 18.81244,-103.15623 5.13516,-24.56666 11.34423,-54.26666 13.79792,-65.99999 3.57458,-17.09329 4.13103,-21.68012 2.7997,-23.07814 -2.0193,-2.12045 -13.85515,-1.17182 -139.41006,11.17356 -310.41757,30.52229 -302.94255,29.87605 -309.04898,26.71829 -2.33515,-1.20755 -4.58855,-3.5615 -5.00757,-5.23099 -0.41901,-1.66949 -0.57771,-73.23536 -0.35265,-159.03526 0.38737,-147.67673 0.53745,-156.19551 2.81305,-159.66768 4.42726,-6.75524 5.97228,-6.88831 42.58423,-3.66786 28.22692,2.48289 159.00016,15.45119 366.65184,36.35952 23.26863,2.3429 42.71996,3.84646 43.22518,3.34124 0.50522,-0.50523 -2.55354,-18.46726 -6.79726,-39.91563 C 690.08139,66.62888 680.57301,12.133141 680.57301,-0.88656656 c 0,-9.73961244 2.01088,-14.31250244 7.14266,-16.24293244 5.0582,-1.902749 11.94487,2.383499 68.19067,42.441734 135.44648,96.464915 394.66706,285.908505 400.98416,293.047305 1.2746,1.44041 2.6778,4.42035 3.1181,6.62208 1.4157,7.07853 -4.1907,12.02426 -57.4356,50.66662 -95.6881,69.44548 -307.9755,218.65954 -369.99999,260.06821 -36.548,24.4001 -40.79872,26.45488 -47.33333,22.88072 z"
       id="path1" />
  </g>
</svg>
