<?xml version="1.0" encoding="UTF-8" standalone="no"?>
<!-- Created with Inkscape (http://www.inkscape.org/) -->

<svg
   width="50.927696mm"
   height="68.83313mm"
   viewBox="0 0 50.927696 68.83313"
   version="1.1"
   id="svg3835"
   inkscape:version="1.1.2 (0a00cf5339, 2022-02-04)"
   sodipodi:docname="bubble_say_full.svg"
   xmlns:inkscape="http://www.inkscape.org/namespaces/inkscape"
   xmlns:sodipodi="http://sodipodi.sourceforge.net/DTD/sodipodi-0.dtd"
   xmlns="http://www.w3.org/2000/svg"
   xmlns:svg="http://www.w3.org/2000/svg">
  <sodipodi:namedview
     id="namedview3837"
     pagecolor="#ffffff"
     bordercolor="#666666"
     borderopacity="1.0"
     inkscape:pageshadow="2"
     inkscape:pageopacity="0.0"
     inkscape:pagecheckerboard="0"
     inkscape:document-units="mm"
     showgrid="false"
     inkscape:zoom="4.5885158"
     inkscape:cx="63.855071"
     inkscape:cy="162.2529"
     inkscape:window-width="3766"
     inkscape:window-height="2096"
     inkscape:window-x="74"
     inkscape:window-y="27"
     inkscape:window-maximized="1"
     inkscape:current-layer="layer1"
     fit-margin-top="0"
     fit-margin-left="0"
     fit-margin-right="0"
     fit-margin-bottom="0"
     inkscape:showpageshadow="2"
     inkscape:deskcolor="#d1d1d1" />
  <defs
     id="defs3832" />
  <g
     inkscape:label="Layer 1"
     inkscape:groupmode="layer"
     id="layer1"
     transform="translate(-137.12681,-94.114713)">
    <path
       style="color:#000000;fill:#657b83;stroke:none;-inkscape-stroke:none;fill-opacity:1"
       d="m 165.91585,94.116904 c -5.40494,0.07828 -10.75973,3.271352 -14.9043,9.455086 -8.25128,12.31098 -9.11286,32.38098 -2.05859,46.34765 -1.70643,4.47674 -5.95542,7.62318 -11.82617,9.96094 l 0.14648,0.36914 0.043,0.40039 c 4.63074,-0.48865 6.35808,1.3136 16.81641,-3.32812 4.7198,4.83629 10.28516,6.52147 15.53515,5.17382 5.32695,-1.36739 10.2838,-5.77921 13.78125,-12.86718 6.99492,-14.17595 5.9162,-34.35528 -2.51757,-46.48438 -4.21689,-6.064554 -9.61069,-9.105623 -15.01563,-9.027346 z m 0.0117,0.798828 c 5.09806,-0.07383 10.2412,2.777864 14.34766,8.683598 8.21291,11.81146 9.30317,31.79938 2.45703,45.67383 -3.42308,6.93722 -8.22303,11.15335 -13.26367,12.44726 -5.04065,1.29391 -10.36086,-0.2901 -14.97071,-5.13086 l -0.19531,-0.20507 -0.25781,0.11523 c -9.02111,4.04456 -11.43917,3.33994 -14.92578,3.33008 5.14399,-2.32868 9.04285,-5.39154 10.64843,-9.75195 l 0.0605,-0.16602 -0.0801,-0.1543 c -7.00425,-13.67069 -6.14946,-33.689 1.92774,-45.74023 4.0386,-6.025624 9.15389,-9.027735 14.25195,-9.101568 z"
       id="path4926" />
    <path
       style="fill:none;fill-opacity:1;stroke:#ffffff;stroke-width:1.31791;stroke-opacity:1"
       d="M 101.38212,256.2433 C 89.601426,254.26907 78.941644,248.45625 67.762408,237.91032 l -2.919345,-2.75396 -6.705157,2.86682 c -8.419685,3.59988 -19.320952,7.29937 -25.742401,8.73602 -4.185548,0.93641 -6.359841,1.135 -14.306867,1.30671 l -9.3712222,0.20247 5.3520312,-2.81305 C 30.946772,236.58456 42.26435,225.71516 47.15447,213.6805 l 1.057312,-2.60205 -2.612552,-5.7415 C 29.06755,169.00595 25.475895,124.09423 35.801007,82.81545 44.194842,49.257723 61.52854,22.86647 83.354378,10.413539 97.279861,2.4682242 113.42729,1.171417 128.14601,6.8163012 c 28.35338,10.8740078 51.02651,46.3304178 58.35413,91.2546258 1.95152,11.964393 2.23273,16.139063 2.21675,32.908243 -0.016,16.80421 -0.50352,22.79171 -2.87464,35.30554 -6.90649,36.44973 -24.07626,66.68687 -45.92773,80.88188 -12.45167,8.08878 -25.74369,11.21985 -38.5324,9.07671 z"
       id="path1200"
       transform="matrix(0.26458333,0,0,0.26458333,137.12681,94.114713)" />
    <path
       style="fill:#eee8d5;fill-opacity:1;stroke:#eee8d5;stroke-width:0.658954;stroke-opacity:1"
       d="m 106.13454,257.36446 c -9.34771,-0.91058 -16.353398,-3.20975 -24.481597,-8.03456 -2.400815,-1.4251 -6.60709,-4.40186 -8.753554,-6.19483 -1.809295,-1.51134 -6.560768,-5.77886 -7.287125,-6.54493 -0.352053,-0.3713 -0.755488,-0.67508 -0.896521,-0.67508 -0.141032,0 -2.01055,0.74659 -4.154483,1.65908 -8.156731,3.47162 -16.304309,6.43919 -22.969233,8.366 -7.219594,2.08714 -9.174087,2.34836 -19.925149,2.66304 -6.741844,0.19734 -8.7228576,0.19607 -8.7900613,-0.005 -0.047716,-0.14323 -0.22951,-0.26035 -0.4039873,-0.26035 -0.6927149,0 0.5387035,-0.84053 3.5136176,-2.39827 6.618583,-3.46569 11.629135,-6.55203 15.909283,-9.79957 9.41248,-7.14168 15.634862,-14.78877 19.07011,-23.43652 l 0.649559,-1.63517 -1.653818,-3.64913 C 38.084164,190.0373 33.530768,174.12166 31.075796,155.38794 29.293581,141.78797 29.016227,126.15243 30.306486,112.01879 33.93105,72.314935 49.150684,37.590802 71.355886,18.363134 81.602365,9.4906253 91.941778,4.6116504 103.62828,3.1343973 c 2.67357,-0.337957 9.1155,-0.3426179 11.76851,-0.00851 13.3721,1.6839971 25.34762,7.9484337 36.51221,19.0996777 3.72476,3.720303 5.932,6.262682 9.08529,10.464749 12.17647,16.226319 21.31324,38.567641 25.53502,62.438491 2.26546,12.809415 2.74043,18.827625 2.74338,34.760695 0.003,17.48488 -0.61784,24.91093 -3.15331,37.70282 -5.1277,25.8702 -15.05286,48.0868 -28.91615,64.72627 -2.38068,2.85743 -7.57535,8.05875 -10.31477,10.328 -9.43828,7.81836 -19.92899,12.70315 -30.69177,14.29098 -2.30715,0.34037 -8.32801,0.59581 -10.06215,0.42689 z"
       id="path2196"
       transform="matrix(0.26458333,0,0,0.26458333,137.12681,94.114713)" />
  </g>
</svg>
