<?xml version="1.0" encoding="UTF-8" standalone="no"?>
<!-- Created with Inkscape (http://www.inkscape.org/) -->

<svg
   width="58.210339mm"
   height="76.852646mm"
   viewBox="0 0 58.210339 76.852646"
   version="1.1"
   id="svg3835"
   inkscape:version="1.3 (0e150ed6c4, 2023-07-21)"
   sodipodi:docname="bubble_think_full.svg"
   xmlns:inkscape="http://www.inkscape.org/namespaces/inkscape"
   xmlns:sodipodi="http://sodipodi.sourceforge.net/DTD/sodipodi-0.dtd"
   xmlns="http://www.w3.org/2000/svg"
   xmlns:svg="http://www.w3.org/2000/svg">
  <sodipodi:namedview
     id="namedview3837"
     pagecolor="#ffffff"
     bordercolor="#666666"
     borderopacity="1.0"
     inkscape:pageshadow="2"
     inkscape:pageopacity="0.0"
     inkscape:pagecheckerboard="0"
     inkscape:document-units="mm"
     showgrid="false"
     inkscape:zoom="0.76658438"
     inkscape:cx="21.524049"
     inkscape:cy="240.67801"
     inkscape:window-width="956"
     inkscape:window-height="1027"
     inkscape:window-x="960"
     inkscape:window-y="147"
     inkscape:window-maximized="1"
     inkscape:current-layer="layer1"
     fit-margin-top="0"
     fit-margin-left="0"
     fit-margin-right="0"
     fit-margin-bottom="0"
     inkscape:showpageshadow="2"
     inkscape:deskcolor="#d1d1d1" />
  <defs
     id="defs3832" />
  <g
     inkscape:label="Layer 1"
     inkscape:groupmode="layer"
     id="layer1"
     transform="translate(-37.579073,-74.35626)">
    <path
       id="path2"
       style="fill:#eee8d5;fill-opacity:1;stroke-width:0.135926;stroke-linecap:round"
       d="m 81.609459,137.0222 c -1.642718,0.0359 -3.322976,0.82283 -4.204393,2.24534 -0.951688,1.52097 -0.739719,3.67678 0.529918,4.95547 0.902351,0.91307 2.169755,1.42639 3.441025,1.51524 1.843331,0.13375 3.743804,-0.83072 4.644904,-2.45918 0.625202,-1.08467 0.697825,-2.47511 0.135027,-3.60066 -0.663167,-1.38314 -2.049526,-2.36437 -3.560326,-2.58915 -0.325662,-0.053 -0.656344,-0.0743 -0.986155,-0.0671 z" />
    <path
       id="path3"
       style="fill:#eee8d5;fill-opacity:1;stroke-width:0.135926;stroke-linecap:round"
       d="m 91.514798,144.05898 c -0.98738,0.0148 -1.992757,0.34844 -2.703711,1.05317 -0.822593,0.76665 -1.224905,1.97987 -0.928426,3.07669 0.345223,1.37055 1.638829,2.40401 3.032043,2.53616 1.044136,0.11819 2.18698,-0.002 3.04383,-0.66196 0.775388,-0.57924 1.404919,-1.46332 1.446467,-2.45595 -0.0053,-1.03592 -0.536573,-2.02729 -1.29553,-2.7125 -0.704911,-0.62098 -1.674238,-0.84953 -2.594673,-0.83561 z" />
    <path
       id="path1"
       style="fill:#eee8d5;fill-opacity:1;stroke-width:0.135926;stroke-linecap:round"
       d="m 59.916727,74.890594 c -1.43466,0.01105 -2.884369,0.178505 -4.233219,0.689996 -1.096043,0.413872 -2.156709,0.923156 -3.17396,1.503634 -1.267336,0.735988 -2.283119,1.812854 -3.293398,2.856458 -0.730607,0.755566 -1.306216,1.646609 -1.751531,2.596087 -0.77303,1.575661 -1.32636,3.269312 -1.562756,5.01081 -0.06495,0.407781 -0.04232,0.823686 -0.0897,1.231573 -0.180814,0.263261 -0.504406,0.386416 -0.761043,0.565482 -2.591133,1.537967 -4.610992,3.966675 -5.763106,6.742082 -1.479959,3.52608 -1.607832,7.555134 -0.564307,11.217404 0.760351,2.65061 2.253676,5.07119 4.228413,6.98984 0.346447,0.34159 0.710331,0.66481 1.066871,0.99572 -0.538557,1.04189 -1.092087,2.08596 -1.424433,3.21628 -0.630682,1.97599 -0.304312,4.17077 0.62791,5.99718 1.167412,2.31909 3.289633,4.13494 5.763348,4.92603 0.136152,0.0661 0.335989,0.0821 0.434481,0.17795 0.114742,1.32974 0.29351,2.66671 0.747465,3.92861 0.623162,1.82405 1.77475,3.42973 3.169523,4.74531 1.062255,1.03204 2.287963,1.93627 3.704438,2.41122 1.898926,0.67709 4.030395,0.69937 5.928213,0.007 2.341075,-0.83358 4.255205,-2.66233 5.371342,-4.86355 0.592696,-1.13821 0.949669,-2.38175 1.175904,-3.64064 0.03307,-0.16297 0.06614,-0.32594 0.09921,-0.48891 0.890654,0.38228 1.754635,0.91254 2.746597,0.9698 0.874774,0.0604 1.754122,0.0478 2.629988,0.0187 0.728702,-0.0172 1.432756,-0.24183 2.080776,-0.56503 1.72009,-0.75653 3.123287,-2.12352 4.072932,-3.73085 1.521719,-2.51021 2.092105,-5.55205 1.691196,-8.4518 -0.297591,-2.26125 -1.169231,-4.42808 -2.43644,-6.31849 -0.143192,-0.14506 -0.147635,-0.27111 0.04167,-0.37061 0.806145,-0.6976 1.593799,-1.42808 2.225413,-2.29227 1.566322,-2.06952 2.356763,-4.65927 2.428555,-7.23892 0.07791,-1.65663 -0.116766,-3.33798 -0.701279,-4.896447 -0.641252,-1.730892 -1.542243,-3.388074 -2.812936,-4.739655 -1.846569,-2.007589 -4.39063,-3.365862 -7.095757,-3.741534 -0.236339,0.03547 -0.114379,-0.222861 -0.132395,-0.366413 0.06291,-1.123041 0.09869,-2.254596 -0.06775,-3.37104 -0.413856,-3.111761 -1.990164,-6.039738 -4.325376,-8.131998 -1.549567,-1.3969 -3.416107,-2.431219 -5.401731,-3.061469 -1.500538,-0.463557 -3.082017,-0.553751 -4.643128,-0.5271 z" />
    <path
       style="color:#000000;fill:#657b83;fill-opacity:1;-inkscape-stroke:none"
       d="m 37.837487,105.40737 c -0.234333,-1.33835 -0.311265,-2.71502 -0.217354,-4.09882 0.370175,-5.454653 3.362766,-10.233062 7.899624,-12.685231 0.06385,-5.224101 3.073001,-10.038856 7.876291,-12.510127 4.874397,-2.507854 10.755018,-2.196778 15.241705,0.812895 4.383437,2.940413 6.667419,7.987 6.045136,13.131458 4.926288,0.636265 9.089345,4.465035 10.432038,9.693275 1.344105,5.23373 -0.439661,10.67807 -4.421721,13.73225 3.102301,4.37539 3.547577,10.47805 0.968564,14.9292 -2.547691,4.39709 -7.429461,5.89989 -11.796373,3.78519 -0.869108,5.80668 -5.445786,9.91465 -10.795953,9.35233 -5.413169,-0.56894 -9.65015,-5.65453 -9.966994,-11.69552 -3.118977,-0.98018 -5.5664,-3.15261 -6.628483,-5.98543 -1.050434,-2.80175 -0.604717,-5.91332 1.12803,-8.51154 -3.033924,-2.50024 -5.081753,-6.05053 -5.76451,-9.94993 z m 0.788964,-0.1373 c 0.671133,3.82644 2.692845,7.32516 5.715346,9.70478 l 0.299827,0.23667 -0.222673,0.31116 c -1.757856,2.45521 -2.190191,5.41463 -1.196376,8.06536 0.993812,2.65073 3.317267,4.71527 6.335613,5.59256 l 0.279185,0.0816 0.0079,0.29049 c 0.180613,5.8086 4.265778,10.67141 9.307894,11.20135 5.042121,0.52995 9.417288,-3.39793 10.050107,-9.09964 l 0.06528,-0.59395 0.523911,0.28872 c 4.13228,2.26446 8.725266,0.89284 11.177472,-3.33944 2.452204,-4.23229 2.008553,-10.23095 -1.083339,-14.35593 l -0.244841,-0.32625 0.333079,-0.24014 c 3.894703,-2.79564 5.664156,-8.07704 4.364473,-13.137805 -1.299706,-5.060761 -5.36662,-8.743895 -10.089489,-9.192393 l -0.420409,-0.03968 0.06222,-0.41662 c 0.734919,-4.965182 -1.46036,-9.867014 -5.699437,-12.71059 -4.239079,-2.843578 -9.813143,-3.141477 -14.430663,-0.765784 -4.617521,2.375693 -7.495447,7.016233 -7.472023,12.020524 l -6.26e-4,0.244396 -0.215469,0.113207 c -4.387986,2.281095 -7.296647,6.887114 -7.654584,12.161425 -0.08948,1.31857 -0.01608,2.6305 0.207626,3.90598 z"
       id="path6280" />
    <path
       style="color:#000000;fill:#657b83;-inkscape-stroke:none;fill-opacity:1"
       d="m 81.652344,136.63086 c -2.89701,0 -5.296875,2.10706 -5.296875,4.75586 0,2.6488 2.399865,4.75586 5.296875,4.75586 2.897009,0 5.298828,-2.10706 5.298828,-4.75586 0,-2.6488 -2.401819,-4.75586 -5.298828,-4.75586 z m 0,0.79883 c 2.512448,0 4.498047,1.79431 4.498047,3.95703 0,2.16272 -1.985599,3.95508 -4.498047,3.95508 -2.512449,0 -4.496094,-1.79236 -4.496094,-3.95508 0,-2.16272 1.983645,-3.95703 4.496094,-3.95703 z"
       id="path6930" />
    <path
       style="color:#000000;fill:#657b83;-inkscape-stroke:none;fill-opacity:1"
       d="m 91.580078,143.64453 c -2.293642,0 -4.203125,1.67108 -4.203125,3.7832 0,2.11213 1.909483,3.78516 4.203125,3.78516 2.293642,0 4.205078,-1.67303 4.205078,-3.78516 0,-2.11212 -1.911436,-3.7832 -4.205078,-3.7832 z m 0,0.79883 c 1.909082,0 3.40625,1.35833 3.40625,2.98437 0,1.62605 -1.497168,2.98438 -3.40625,2.98438 -1.909081,0 -3.404297,-1.35833 -3.404297,-2.98438 0,-1.62604 1.495216,-2.98437 3.404297,-2.98437 z"
       id="ellipse7012" />
  </g>
</svg>
