<?xml version="1.0" encoding="UTF-8" standalone="no"?>
<!-- Created with Inkscape (http://www.inkscape.org/) -->

<svg
   width="58.210339mm"
   height="76.852646mm"
   viewBox="0 0 58.210339 76.852646"
   version="1.1"
   id="svg3835"
   inkscape:version="1.1.2 (0a00cf5339, 2022-02-04)"
   sodipodi:docname="bubble_think_full.svg"
   xmlns:inkscape="http://www.inkscape.org/namespaces/inkscape"
   xmlns:sodipodi="http://sodipodi.sourceforge.net/DTD/sodipodi-0.dtd"
   xmlns="http://www.w3.org/2000/svg"
   xmlns:svg="http://www.w3.org/2000/svg">
  <sodipodi:namedview
     id="namedview3837"
     pagecolor="#ffffff"
     bordercolor="#666666"
     borderopacity="1.0"
     inkscape:pageshadow="2"
     inkscape:pageopacity="0.0"
     inkscape:pagecheckerboard="0"
     inkscape:document-units="mm"
     showgrid="false"
     inkscape:zoom="2.3453188"
     inkscape:cx="67.36824"
     inkscape:cy="70.5661"
     inkscape:window-width="3766"
     inkscape:window-height="2096"
     inkscape:window-x="74"
     inkscape:window-y="27"
     inkscape:window-maximized="1"
     inkscape:current-layer="layer1"
     fit-margin-top="0"
     fit-margin-left="0"
     fit-margin-right="0"
     fit-margin-bottom="0"
     inkscape:showpageshadow="2"
     inkscape:deskcolor="#d1d1d1" />
  <defs
     id="defs3832" />
  <g
     inkscape:label="Layer 1"
     inkscape:groupmode="layer"
     id="layer1"
     transform="translate(-37.579073,-74.35626)">
    <path
       style="color:#000000;fill:#657b83;-inkscape-stroke:none;fill-opacity:1"
       d="m 100.98828,37.583984 c -1.358653,0.01217 -2.72646,0.186081 -4.070311,0.529297 C 91.620806,39.466162 87.46408,43.275416 85.875,48.181641 80.749033,49.191479 76.559565,53.023607 75,58.195312 c -1.582652,5.248265 -0.210669,10.975056 3.5625,14.841797 3.686339,3.777758 9.063357,5.109032 14.009766,3.564453 1.518778,4.729319 6.038804,8.129303 11.423824,8.501954 5.39068,0.373043 10.42144,-2.368137 12.70313,-6.837891 4.86529,2.257711 10.94756,1.589295 14.85742,-1.753906 3.86238,-3.3026 4.4553,-8.375917 1.58398,-12.28711 5.55292,-1.907366 8.76314,-7.15292 7.24024,-12.3125 -1.54083,-5.220338 -7.31025,-8.465181 -13.30859,-7.68164 -1.52936,-2.889608 -4.10947,-4.902653 -7.08789,-5.433594 -2.94575,-0.525118 -5.92497,0.477293 -8.16602,2.652344 -3.00881,-2.530402 -6.87151,-3.90069 -10.83008,-3.865235 z m 0.008,0.800782 c 3.88471,-0.03366 7.69196,1.320293 10.58008,3.861328 l 0.28711,0.251953 0.26563,-0.275391 c 2.09586,-2.173819 4.92787,-3.135486 7.71484,-2.638672 2.78697,0.496812 5.23851,2.407501 6.64844,5.216797 l 0.13086,0.259766 0.28711,-0.04492 c 5.74509,-0.875384 11.26791,2.260543 12.70312,7.123047 1.43522,4.862506 -1.63443,9.877241 -7.12695,11.533203 l -0.57227,0.171875 0.37891,0.462891 c 2.97606,3.6533 2.4598,8.418837 -1.25781,11.597656 -3.71762,3.178818 -9.69731,3.829978 -14.31446,1.537109 l -0.36523,-0.18164 -0.17578,0.371093 c -2.04327,4.336975 -6.91639,7.034543 -12.12891,6.673828 -5.212519,-0.360713 -9.571892,-3.692549 -10.869139,-8.255859 l -0.115235,-0.40625 -0.398437,0.136719 c -4.749685,1.622846 -9.968266,0.352564 -13.533203,-3.300781 -3.564938,-3.653346 -4.868389,-9.081048 -3.369141,-14.052735 1.499248,-4.971687 5.541177,-8.643183 10.466797,-9.527344 l 0.240234,-0.04492 0.07227,-0.232422 c 1.447828,-4.728806 5.450236,-8.42427 10.572265,-9.732422 1.280508,-0.327038 2.584006,-0.492686 3.878903,-0.503906 z"
       id="path6280"
       transform="matrix(0,1,1,0,0,0)" />
    <path
       style="color:#000000;fill:#657b83;-inkscape-stroke:none;fill-opacity:1"
       d="m 81.652344,136.63086 c -2.89701,0 -5.296875,2.10706 -5.296875,4.75586 0,2.6488 2.399865,4.75586 5.296875,4.75586 2.897009,0 5.298828,-2.10706 5.298828,-4.75586 0,-2.6488 -2.401819,-4.75586 -5.298828,-4.75586 z m 0,0.79883 c 2.512448,0 4.498047,1.79431 4.498047,3.95703 0,2.16272 -1.985599,3.95508 -4.498047,3.95508 -2.512449,0 -4.496094,-1.79236 -4.496094,-3.95508 0,-2.16272 1.983645,-3.95703 4.496094,-3.95703 z"
       id="path6930" />
    <path
       style="color:#000000;fill:#657b83;-inkscape-stroke:none;fill-opacity:1"
       d="m 91.580078,143.64453 c -2.293642,0 -4.203125,1.67108 -4.203125,3.7832 0,2.11213 1.909483,3.78516 4.203125,3.78516 2.293642,0 4.205078,-1.67303 4.205078,-3.78516 0,-2.11212 -1.911436,-3.7832 -4.205078,-3.7832 z m 0,0.79883 c 1.909082,0 3.40625,1.35833 3.40625,2.98437 0,1.62605 -1.497168,2.98438 -3.40625,2.98438 -1.909081,0 -3.404297,-1.35833 -3.404297,-2.98438 0,-1.62604 1.495216,-2.98437 3.404297,-2.98437 z"
       id="ellipse7012" />
    <path
       style="fill:#eee8d5;stroke:#eee8d5;stroke-width:0.644608"
       d="m 59.480187,247.50976 c -11.600445,-1.88185 -21.473778,-9.57462 -27.082645,-21.10131 -2.150782,-4.42004 -3.476226,-8.71318 -4.278256,-13.85739 -0.459046,-2.94432 -0.479427,-10.14715 -0.03695,-13.06026 l 0.299884,-1.97435 -1.612862,-0.87877 c -2.322869,-1.26561 -5.010246,-3.04154 -6.729434,-4.44707 -2.053048,-1.67849 -5.29892,-5.11922 -6.749013,-7.15417 -4.444015,-6.23642 -6.6675714,-14.20653 -5.9440973,-21.30603 0.4414547,-4.33203 1.4540998,-7.74316 3.4492383,-11.61889 1.565124,-3.04039 3.376053,-5.58852 5.91295,-8.32 l 1.954601,-2.10452 -1.841866,-2.19612 C 11.470162,133.11004 7.1447513,124.53814 5.0102839,116.0835 1.4391541,101.93824 3.1099564,86.801956 9.6734318,73.838678 16.236611,60.875986 27.113655,51.233459 40.328763,46.662652 l 2.380827,-0.823474 0.24269,-1.280741 C 45.875013,29.134393 56.275678,15.707401 70.776165,8.6385175 76.316989,5.9374065 81.703321,4.3375944 88.154327,3.4769726 91.450649,3.037214 98.775303,3.1516661 102.3315,3.6984993 c 5.94093,0.9135296 10.92757,2.4953655 16.29322,5.1684518 10.08687,5.0251149 17.95525,12.7738239 22.91285,22.5643539 3.67176,7.251185 5.29686,14.115908 5.27742,22.292735 -0.0126,5.306201 -0.71395,9.697541 -2.37792,14.889376 -0.36982,1.153867 -0.64112,2.124754 -0.60289,2.157526 0.0382,0.03277 1.0733,0.368999 2.30018,0.747171 6.13779,1.891913 11.4483,5.087183 16.28563,9.798883 7.39446,7.202396 11.99253,16.366588 13.69942,27.303634 0.52619,3.37163 0.53443,10.64134 0.016,14.07058 -2.34718,15.524 -11.22317,28.43758 -23.91724,34.79697 -1.17255,0.58741 -2.16917,1.10226 -2.21471,1.14411 -0.0455,0.0418 0.42216,1.20604 1.03935,2.5871 3.23295,7.23427 4.56065,13.44591 4.56952,21.37839 0.005,4.6406 -0.17515,6.61152 -0.96559,10.55293 -2.71582,13.54216 -10.62589,24.68731 -21.18935,29.85545 -4.25272,2.08064 -7.28973,2.84655 -11.93867,3.01087 -4.94391,0.17476 -8.95403,-0.64221 -13.2892,-2.70732 -2.87889,-1.3714 -4.34762,-2.27667 -6.78515,-4.18208 -1.10225,-0.86163 -2.073072,-1.5648 -2.157381,-1.56262 -0.08431,0.002 -0.614586,1.43287 -1.17839,3.17931 -4.417536,13.68381 -14.915976,23.74692 -27.606615,26.46188 -2.758254,0.59009 -8.312489,0.74306 -11.021743,0.30356 z"
       id="path2693"
       transform="matrix(0.26458333,0,0,0.26458333,37.579073,74.35626)" />
    <path
       style="fill:#eee8d5;stroke:#eee8d5;stroke-width:0.644608"
       d="m 162.99817,267.85507 c -5.85319,-1.14804 -10.62854,-5.01775 -12.54111,-10.16269 -0.71145,-1.91386 -0.88758,-5.25604 -0.38892,-7.38007 1.02136,-4.3504 4.71416,-8.47856 9.262,-10.35394 2.51986,-1.0391 4.50417,-1.40161 7.49153,-1.36861 3.23068,0.0357 5.21521,0.50068 7.99465,1.87315 5.32441,2.62917 8.61544,7.52224 8.63052,12.83176 0.0193,6.81107 -5.45102,12.88459 -13.04356,14.48173 -1.60979,0.33863 -5.85005,0.38368 -7.40511,0.0787 z"
       id="path2732"
       transform="matrix(0.26458333,0,0,0.26458333,37.579073,74.35626)" />
    <path
       style="fill:#eee8d5;stroke:#eee8d5;stroke-width:0.644608"
       d="m 200.50579,286.87388 c -4.81001,-1.3011 -8.24568,-4.80541 -8.99491,-9.17462 -0.91988,-5.36433 3.05921,-10.70684 9.13228,-12.2614 1.65991,-0.4249 5.08052,-0.43077 6.85778,-0.0118 6.0033,1.4153 10.11466,6.87551 9.21101,12.23295 -0.73918,4.38237 -4.28047,7.96548 -9.08761,9.19494 -2.09295,0.53528 -5.18135,0.54392 -7.11855,0.0199 z"
       id="path2771"
       transform="matrix(0.26458333,0,0,0.26458333,37.579073,74.35626)" />
  </g>
</svg>
