<?xml version="1.0" encoding="UTF-8" standalone="no"?>
<!-- Created with Inkscape (http://www.inkscape.org/) -->

<svg
   width="53.317944mm"
   height="73.640961mm"
   viewBox="0 0 53.317944 73.640961"
   version="1.1"
   id="svg3835"
   inkscape:version="1.3 (0e150ed6c4, 2023-07-21)"
   sodipodi:docname="bubble_think_full.svg"
   xmlns:inkscape="http://www.inkscape.org/namespaces/inkscape"
   xmlns:sodipodi="http://sodipodi.sourceforge.net/DTD/sodipodi-0.dtd"
   xmlns="http://www.w3.org/2000/svg"
   xmlns:svg="http://www.w3.org/2000/svg">
  <sodipodi:namedview
     id="namedview3837"
     pagecolor="#ffffff"
     bordercolor="#666666"
     borderopacity="1.0"
     inkscape:pageshadow="2"
     inkscape:pageopacity="0.0"
     inkscape:pagecheckerboard="0"
     inkscape:document-units="mm"
     showgrid="false"
     inkscape:zoom="1.685996"
     inkscape:cx="106.1687"
     inkscape:cy="255.04212"
     inkscape:window-width="956"
     inkscape:window-height="1132"
     inkscape:window-x="960"
     inkscape:window-y="42"
     inkscape:window-maximized="1"
     inkscape:current-layer="layer1"
     fit-margin-top="0"
     fit-margin-left="0"
     fit-margin-right="0"
     fit-margin-bottom="0"
     inkscape:showpageshadow="2"
     inkscape:deskcolor="#d1d1d1" />
  <defs
     id="defs3832" />
  <g
     inkscape:label="Layer 1"
     inkscape:groupmode="layer"
     id="layer1"
     transform="translate(-37.581133,-74.429117)">
    <path
       id="path1"
       style="fill:#fdf6e3;stroke-width:0;stroke-linecap:round;fill-opacity:1"
       d="m 60.004053,74.891621 c -1.799201,0.02739 -3.591453,0.403364 -5.243707,1.118034 -2.411237,0.995593 -4.590294,2.605131 -6.125895,4.726366 -1.389095,1.895344 -2.248644,4.145932 -2.643496,6.453557 -0.08555,0.481245 -0.09886,0.970487 -0.128674,1.456242 -0.09341,0.351461 -0.483108,0.48416 -0.762359,0.660341 -1.05971,0.632279 -1.951635,1.504432 -2.796921,2.393991 -1.048826,1.129655 -2.012514,2.360703 -2.676795,3.759539 -0.84183,1.652336 -1.356237,3.468696 -1.495283,5.318469 -0.203972,2.40689 0.05413,4.8624 0.857063,7.14579 0.82572,2.39269 2.232142,4.57746 4.058476,6.32912 0.349323,0.34932 0.698646,0.69865 1.047969,1.04797 -0.466799,0.94939 -1.023821,1.86089 -1.373043,2.86339 -0.346062,1.05599 -0.275104,2.18404 -0.257921,3.27858 0.02108,0.93707 0.197034,1.88 0.623758,2.72103 0.672441,1.43057 1.769181,2.62182 2.986103,3.61137 0.814253,0.65586 1.726769,1.20167 2.728763,1.51496 0.202248,0.0729 0.404496,0.14573 0.606744,0.21859 0.201235,1.26589 0.357544,2.54931 0.78573,3.76446 0.614228,1.84694 1.676825,3.54034 3.078294,4.89172 1.048409,1.06651 2.297305,1.95894 3.71537,2.45931 1.303456,0.50229 2.736031,0.51415 4.108685,0.3834 1.206345,-0.1311 2.426845,-0.42314 3.449787,-1.10279 1.639446,-1.05329 2.924567,-2.6 3.831606,-4.31257 0.584092,-1.10937 0.981353,-2.31974 1.120138,-3.56775 0.04436,-0.11395 -0.02052,-0.43863 0.176326,-0.28655 0.90715,0.39809 1.839965,0.76225 2.82526,0.90886 1.938851,0.3298 3.993806,-0.0798 5.644531,-1.15339 1.966555,-1.25192 3.326604,-3.2867 4.080182,-5.46396 0.680389,-1.98112 0.744278,-4.12835 0.468664,-6.19035 -0.288247,-2.08238 -0.96063,-4.13705 -2.145305,-5.88661 -0.113027,-0.17809 -0.226055,-0.35618 -0.339082,-0.53427 0.817179,-0.76888 1.677839,-1.50685 2.334316,-2.42549 1.766583,-2.39138 2.60723,-5.40659 2.52482,-8.36455 -0.05419,-1.95516 -0.561665,-3.897673 -1.502931,-5.614434 -1.25263,-2.311168 -3.152526,-4.302731 -5.493133,-5.522893 -1.086446,-0.567219 -2.282233,-0.923178 -3.505118,-1.019511 -0.163121,-0.0203 -0.394356,0.01304 -0.28865,-0.218965 0.112003,-0.764395 0.183031,-1.538209 0.115811,-2.310423 -0.135695,-1.751922 -0.555707,-3.487033 -1.263235,-5.096547 -0.647271,-1.416002 -1.651222,-2.634835 -2.720917,-3.751976 -1.02948,-1.055755 -2.186463,-2.007365 -3.516862,-2.659152 -2.12199,-1.071611 -4.516434,-1.579673 -6.889069,-1.542908 z" />
    <path
       id="path2"
       style="fill:#fdf6e3;stroke-width:0;stroke-linecap:round;fill-opacity:1"
       d="m 77.855677,134.16552 c -1.800334,0.0752 -3.547272,1.18565 -4.294312,2.83859 -0.512858,1.1302 -0.418558,2.50779 0.254574,3.55196 0.642019,1.04473 1.758961,1.70022 2.917137,2.02545 1.221171,0.36729 2.592784,0.27081 3.710207,-0.36352 1.123601,-0.63276 2.106986,-1.66344 2.386748,-2.9542 0.271018,-1.1759 -0.146246,-2.42747 -0.925999,-3.32247 -0.979006,-1.18071 -2.51605,-1.8566 -4.048355,-1.77581 z" />
    <path
       id="path3"
       style="fill:#fdf6e3;stroke-width:0;stroke-linecap:round;fill-opacity:1"
       d="m 86.594679,140.94288 c -1.549662,0.0331 -3.087957,1.06195 -3.542419,2.57246 -0.288417,0.92145 -0.03369,1.96355 0.600869,2.68234 0.512003,0.60025 1.213855,1.02668 1.956596,1.27866 0.547436,0.18146 1.140188,0.23615 1.702991,0.0916 0.546986,-0.12984 1.126355,-0.24264 1.567225,-0.61815 0.654939,-0.51648 1.220287,-1.17946 1.536869,-1.95709 0.247647,-0.64693 0.0085,-1.35692 -0.286798,-1.94492 -0.437959,-0.84437 -1.157417,-1.5773 -2.078818,-1.87154 -0.46573,-0.16674 -0.96198,-0.24683 -1.456515,-0.23333 z" />
    <path
       style="color:#000000;fill:#657b83;fill-opacity:1;-inkscape-stroke:none"
       d="m 37.837487,105.40737 c -0.234333,-1.33835 -0.311265,-2.71502 -0.217354,-4.09882 0.370175,-5.454653 3.362766,-10.233062 7.899624,-12.685231 0.06385,-5.224101 3.073001,-10.038856 7.876291,-12.510127 4.874397,-2.507854 10.755018,-2.196778 15.241705,0.812895 4.383437,2.940413 6.667419,7.987 6.045136,13.131458 4.926288,0.636265 9.089345,4.465035 10.432038,9.693275 1.344105,5.23373 -0.439661,10.67807 -4.421721,13.73225 3.102301,4.37539 3.547577,10.47805 0.968564,14.9292 -2.547691,4.39709 -7.429461,5.89989 -11.796373,3.78519 -0.869108,5.80668 -5.445786,9.91465 -10.795953,9.35233 -5.413169,-0.56894 -9.65015,-5.65453 -9.966994,-11.69552 -3.118977,-0.98018 -5.5664,-3.15261 -6.628483,-5.98543 -1.050434,-2.80175 -0.604717,-5.91332 1.12803,-8.51154 -3.033924,-2.50024 -5.081753,-6.05053 -5.76451,-9.94993 z m 0.788964,-0.1373 c 0.671133,3.82644 2.692845,7.32516 5.715346,9.70478 l 0.299827,0.23667 -0.222673,0.31116 c -1.757856,2.45521 -2.190191,5.41463 -1.196376,8.06536 0.993812,2.65073 3.317267,4.71527 6.335613,5.59256 l 0.279185,0.0816 0.0079,0.29049 c 0.180613,5.8086 4.265778,10.67141 9.307894,11.20135 5.042121,0.52995 9.417288,-3.39793 10.050107,-9.09964 l 0.06528,-0.59395 0.523911,0.28872 c 4.13228,2.26446 8.725266,0.89284 11.177472,-3.33944 2.452204,-4.23229 2.008553,-10.23095 -1.083339,-14.35593 l -0.244841,-0.32625 0.333079,-0.24014 c 3.894703,-2.79564 5.664156,-8.07704 4.364473,-13.137805 -1.299706,-5.060761 -5.36662,-8.743895 -10.089489,-9.192393 l -0.420409,-0.03968 0.06222,-0.41662 c 0.734919,-4.965182 -1.46036,-9.867014 -5.699437,-12.71059 -4.239079,-2.843578 -9.813143,-3.141477 -14.430663,-0.765784 -4.617521,2.375693 -7.495447,7.016233 -7.472023,12.020524 l -6.26e-4,0.244396 -0.215469,0.113207 c -4.387986,2.281095 -7.296647,6.887114 -7.654584,12.161425 -0.08948,1.31857 -0.01608,2.6305 0.207626,3.90598 z"
       id="path6280" />
    <path
       style="color:#000000;fill:#657b83;fill-opacity:1;-inkscape-stroke:none"
       d="m 78.066137,133.72368 c -2.89701,0 -5.296875,2.10706 -5.296875,4.75586 0,2.6488 2.399865,4.75586 5.296875,4.75586 2.897009,0 5.298828,-2.10706 5.298828,-4.75586 0,-2.6488 -2.401819,-4.75586 -5.298828,-4.75586 z m 0,0.79883 c 2.512448,0 4.498047,1.79431 4.498047,3.95703 0,2.16272 -1.985599,3.95508 -4.498047,3.95508 -2.512449,0 -4.496094,-1.79236 -4.496094,-3.95508 0,-2.16272 1.983645,-3.95703 4.496094,-3.95703 z"
       id="path6930" />
    <path
       style="color:#000000;fill:#657b83;fill-opacity:1;-inkscape-stroke:none"
       d="m 86.693999,140.50172 c -2.293642,0 -4.203125,1.67108 -4.203125,3.7832 0,2.11213 1.909483,3.78516 4.203125,3.78516 2.293642,0 4.205078,-1.67303 4.205078,-3.78516 0,-2.11212 -1.911436,-3.7832 -4.205078,-3.7832 z m 0,0.79883 c 1.909082,0 3.40625,1.35833 3.40625,2.98437 0,1.62605 -1.497168,2.98438 -3.40625,2.98438 -1.909081,0 -3.404297,-1.35833 -3.404297,-2.98438 0,-1.62604 1.495216,-2.98437 3.404297,-2.98437 z"
       id="ellipse7012" />
  </g>
</svg>
