<?xml version="1.0" encoding="UTF-8" standalone="no"?>
<!-- Created with Inkscape (http://www.inkscape.org/) -->

<svg
   width="58.210339mm"
   height="76.852646mm"
   viewBox="0 0 58.210339 76.852646"
   version="1.1"
   id="svg3835"
   inkscape:version="1.2.2 (b0a8486541, 2022-12-01)"
   sodipodi:docname="bubble_think.svg"
   xmlns:inkscape="http://www.inkscape.org/namespaces/inkscape"
   xmlns:sodipodi="http://sodipodi.sourceforge.net/DTD/sodipodi-0.dtd"
   xmlns="http://www.w3.org/2000/svg"
   xmlns:svg="http://www.w3.org/2000/svg">
  <sodipodi:namedview
     id="namedview3837"
     pagecolor="#ffffff"
     bordercolor="#666666"
     borderopacity="1.0"
     inkscape:pageshadow="2"
     inkscape:pageopacity="0.0"
     inkscape:pagecheckerboard="0"
     inkscape:document-units="mm"
     showgrid="false"
     inkscape:zoom="1.1726594"
     inkscape:cx="53.72404"
     inkscape:cy="267.34105"
     inkscape:window-width="956"
     inkscape:window-height="964"
     inkscape:window-x="960"
     inkscape:window-y="210"
     inkscape:window-maximized="1"
     inkscape:current-layer="layer1"
     fit-margin-top="0"
     fit-margin-left="0"
     fit-margin-right="0"
     fit-margin-bottom="0"
     inkscape:showpageshadow="2"
     inkscape:deskcolor="#d1d1d1" />
  <defs
     id="defs3832" />
  <g
     inkscape:label="Layer 1"
     inkscape:groupmode="layer"
     id="layer1"
     transform="translate(-37.579073,-74.35626)">
    <path
       style="color:#000000;fill:#657b83;-inkscape-stroke:none;fill-opacity:1"
       d="m 100.98828,37.583984 c -1.358653,0.01217 -2.72646,0.186081 -4.070311,0.529297 C 91.620806,39.466162 87.46408,43.275416 85.875,48.181641 80.749033,49.191479 76.559565,53.023607 75,58.195312 c -1.582652,5.248265 -0.210669,10.975056 3.5625,14.841797 3.686339,3.777758 9.063357,5.109032 14.009766,3.564453 1.518778,4.729319 6.038804,8.129303 11.423824,8.501954 5.39068,0.373043 10.42144,-2.368137 12.70313,-6.837891 4.86529,2.257711 10.94756,1.589295 14.85742,-1.753906 3.86238,-3.3026 4.4553,-8.375917 1.58398,-12.28711 5.55292,-1.907366 8.76314,-7.15292 7.24024,-12.3125 -1.54083,-5.220338 -7.31025,-8.465181 -13.30859,-7.68164 -1.52936,-2.889608 -4.10947,-4.902653 -7.08789,-5.433594 -2.94575,-0.525118 -5.92497,0.477293 -8.16602,2.652344 -3.00881,-2.530402 -6.87151,-3.90069 -10.83008,-3.865235 z m 0.008,0.800782 c 3.88471,-0.03366 7.69196,1.320293 10.58008,3.861328 l 0.28711,0.251953 0.26563,-0.275391 c 2.09586,-2.173819 4.92787,-3.135486 7.71484,-2.638672 2.78697,0.496812 5.23851,2.407501 6.64844,5.216797 l 0.13086,0.259766 0.28711,-0.04492 c 5.74509,-0.875384 11.26791,2.260543 12.70312,7.123047 1.43522,4.862506 -1.63443,9.877241 -7.12695,11.533203 l -0.57227,0.171875 0.37891,0.462891 c 2.97606,3.6533 2.4598,8.418837 -1.25781,11.597656 -3.71762,3.178818 -9.69731,3.829978 -14.31446,1.537109 l -0.36523,-0.18164 -0.17578,0.371093 c -2.04327,4.336975 -6.91639,7.034543 -12.12891,6.673828 -5.212519,-0.360713 -9.571892,-3.692549 -10.869139,-8.255859 l -0.115235,-0.40625 -0.398437,0.136719 c -4.749685,1.622846 -9.968266,0.352564 -13.533203,-3.300781 -3.564938,-3.653346 -4.868389,-9.081048 -3.369141,-14.052735 1.499248,-4.971687 5.541177,-8.643183 10.466797,-9.527344 l 0.240234,-0.04492 0.07227,-0.232422 c 1.447828,-4.728806 5.450236,-8.42427 10.572265,-9.732422 1.280508,-0.327038 2.584006,-0.492686 3.878903,-0.503906 z"
       id="path6280"
       transform="matrix(0,1,1,0,0,0)" />
    <path
       style="color:#000000;fill:#657b83;-inkscape-stroke:none;fill-opacity:1"
       d="m 81.652344,136.63086 c -2.89701,0 -5.296875,2.10706 -5.296875,4.75586 0,2.6488 2.399865,4.75586 5.296875,4.75586 2.897009,0 5.298828,-2.10706 5.298828,-4.75586 0,-2.6488 -2.401819,-4.75586 -5.298828,-4.75586 z m 0,0.79883 c 2.512448,0 4.498047,1.79431 4.498047,3.95703 0,2.16272 -1.985599,3.95508 -4.498047,3.95508 -2.512449,0 -4.496094,-1.79236 -4.496094,-3.95508 0,-2.16272 1.983645,-3.95703 4.496094,-3.95703 z"
       id="path6930" />
    <path
       style="color:#000000;fill:#657b83;-inkscape-stroke:none;fill-opacity:1"
       d="m 91.580078,143.64453 c -2.293642,0 -4.203125,1.67108 -4.203125,3.7832 0,2.11213 1.909483,3.78516 4.203125,3.78516 2.293642,0 4.205078,-1.67303 4.205078,-3.78516 0,-2.11212 -1.911436,-3.7832 -4.205078,-3.7832 z m 0,0.79883 c 1.909082,0 3.40625,1.35833 3.40625,2.98437 0,1.62605 -1.497168,2.98438 -3.40625,2.98438 -1.909081,0 -3.404297,-1.35833 -3.404297,-2.98438 0,-1.62604 1.495216,-2.98437 3.404297,-2.98437 z"
       id="ellipse7012" />
  </g>
</svg>
