<?xml version="1.0" encoding="UTF-8" standalone="no"?>
<!-- Uploaded to: SVG Repo, www.svgrepo.com, Generator: SVG Repo Mixer Tools -->

<svg
   fill="#000000"
   height="800px"
   width="800px"
   version="1.1"
   id="Capa_1"
   viewBox="0 0 267.5 267.5"
   xml:space="preserve"
   sodipodi:docname="crown.svg"
   inkscape:version="1.1.2 (0a00cf5339, 2022-02-04)"
   xmlns:inkscape="http://www.inkscape.org/namespaces/inkscape"
   xmlns:sodipodi="http://sodipodi.sourceforge.net/DTD/sodipodi-0.dtd"
   xmlns="http://www.w3.org/2000/svg"
   xmlns:svg="http://www.w3.org/2000/svg"><defs
   id="defs1016" /><sodipodi:namedview
   id="namedview1014"
   pagecolor="#ffffff"
   bordercolor="#666666"
   borderopacity="1.0"
   inkscape:pageshadow="2"
   inkscape:pageopacity="0.0"
   inkscape:pagecheckerboard="0"
   showgrid="false"
   inkscape:zoom="1.09125"
   inkscape:cx="400"
   inkscape:cy="400"
   inkscape:window-width="1883"
   inkscape:window-height="2096"
   inkscape:window-x="1957"
   inkscape:window-y="27"
   inkscape:window-maximized="0"
   inkscape:current-layer="Capa_1" />
<path
   d="M256.975,100.34c0.041,0.736-0.013,1.485-0.198,2.229l-16.5,66c-0.832,3.325-3.812,5.663-7.238,5.681l-99,0.5  c-0.013,0-0.025,0-0.038,0H35c-3.444,0-6.445-2.346-7.277-5.688l-16.5-66.25c-0.19-0.764-0.245-1.534-0.197-2.289  C4.643,98.512,0,92.539,0,85.5c0-8.685,7.065-15.75,15.75-15.75S31.5,76.815,31.5,85.5c0,4.891-2.241,9.267-5.75,12.158  l20.658,20.814c5.221,5.261,12.466,8.277,19.878,8.277c8.764,0,17.12-4.162,22.382-11.135l33.95-44.984  C119.766,67.78,118,63.842,118,59.5c0-8.685,7.065-15.75,15.75-15.75s15.75,7.065,15.75,15.75c0,4.212-1.672,8.035-4.375,10.864  c0.009,0.012,0.02,0.022,0.029,0.035l33.704,45.108c5.26,7.04,13.646,11.243,22.435,11.243c7.48,0,14.514-2.913,19.803-8.203  l20.788-20.788C238.301,94.869,236,90.451,236,85.5c0-8.685,7.065-15.75,15.75-15.75s15.75,7.065,15.75,15.75  C267.5,92.351,263.095,98.178,256.975,100.34z M238.667,198.25c0-4.142-3.358-7.5-7.5-7.5h-194c-4.142,0-7.5,3.358-7.5,7.5v18  c0,4.142,3.358,7.5,7.5,7.5h194c4.142,0,7.5-3.358,7.5-7.5V198.25z"
   id="path1011"
   style="fill:#073642;fill-opacity:1" />
</svg>
