<?xml version="1.0" encoding="UTF-8" standalone="no"?>
<svg
   xml:space="preserve"
   viewBox="0 0 169 158"
   version="1.1"
   id="svg8"
   sodipodi:docname="icon.svg"
   inkscape:version="1.1.2 (0a00cf5339, 2022-02-04)"
   xmlns:inkscape="http://www.inkscape.org/namespaces/inkscape"
   xmlns:sodipodi="http://sodipodi.sourceforge.net/DTD/sodipodi-0.dtd"
   xmlns="http://www.w3.org/2000/svg"
   xmlns:svg="http://www.w3.org/2000/svg"><defs
   id="defs12">
      
    </defs><sodipodi:namedview
   id="namedview10"
   pagecolor="#ffffff"
   bordercolor="#666666"
   borderopacity="1.0"
   inkscape:pageshadow="2"
   inkscape:pageopacity="0.0"
   inkscape:pagecheckerboard="0"
   showgrid="false"
   inkscape:zoom="5.5253165"
   inkscape:cx="84.429553"
   inkscape:cy="79"
   inkscape:window-width="1883"
   inkscape:window-height="2096"
   inkscape:window-x="1957"
   inkscape:window-y="27"
   inkscape:window-maximized="0"
   inkscape:current-layer="switch6" />
  <switch
   id="switch6">
    <path
   d="M 8.5,133.7 V 72.9 c 0,-1.6 0.6,-3.1 1.8,-4.3 1.2,-1.2 2.6,-1.8 4.3,-1.8 H 42 c 1.6,0 3.1,0.6 4.3,1.8 1.2,1.2 1.8,2.6 1.8,4.3 v 60.8 c 0,1.6 -0.6,3.1 -1.8,4.3 -1.2,1.2 -2.6,1.8 -4.3,1.8 H 14.6 c -1.6,0 -3.1,-0.6 -4.3,-1.8 -1.2,-1.2 -1.8,-2.6 -1.8,-4.3 z m 12.2,-12.1 c 0,1.7 0.6,3.2 1.8,4.3 1.2,1.2 2.6,1.8 4.3,1.8 1.6,0 3.1,-0.6 4.3,-1.8 1.2,-1.2 1.8,-2.6 1.8,-4.3 0,-1.6 -0.6,-3.1 -1.8,-4.3 -1.2,-1.2 -2.6,-1.8 -4.3,-1.8 -1.7,0 -3.2,0.6 -4.3,1.8 -1.2,1.2 -1.8,2.6 -1.8,4.3 z m 33.4,12.1 V 72.8 c 0,-1.6 0.6,-3 1.7,-4.1 1.1,-1.2 2.5,-1.8 4.1,-1.9 1.5,-0.1 3.9,-2 7.2,-5.6 3.3,-3.6 6.5,-7.4 9.6,-11.5 4.3,-5.5 7.5,-9.3 9.6,-11.4 1.1,-1.1 2.1,-2.7 2.9,-4.6 0.8,-1.9 1.4,-3.4 1.7,-4.6 0.3,-1.2 0.7,-3.1 1.3,-5.7 0.4,-2.5 0.8,-4.4 1.2,-5.8 0.3,-1.4 1,-3 1.9,-4.9 0.9,-1.9 2,-3.5 3.2,-4.7 1.2,-1.2 2.6,-1.8 4.3,-1.8 2.9,0 5.5,0.3 7.8,1 2.3,0.7 4.2,1.5 5.7,2.5 1.5,1 2.8,2.3 3.8,3.8 1,1.6 1.8,3 2.3,4.3 0.5,1.3 0.9,2.8 1.1,4.7 0.3,1.9 0.4,3.3 0.5,4.3 v 3.7 c 0,2.4 -0.3,4.8 -0.9,7.2 -0.6,2.4 -1.2,4.3 -1.8,5.7 -0.6,1.4 -1.5,3.2 -2.6,5.3 -0.2,0.4 -0.5,0.9 -0.9,1.7 -0.4,0.8 -0.8,1.5 -1,2.1 -0.3,0.6 -0.5,1.4 -0.8,2.3 h 26.3 c 4.9,0 9.2,1.8 12.8,5.4 3.6,3.6 5.4,7.9 5.4,12.8 0,5.4 -1.7,10.2 -5.2,14.2 0.9,2.8 1.4,5.2 1.4,7.2 0.2,4.8 -1.2,9.2 -4.1,13 1.1,3.5 1.1,7.3 0,11.1 -0.9,3.6 -2.7,6.6 -5.1,8.9 0.6,7.1 -1,12.8 -4.7,17.2 -4.1,4.8 -10.3,7.3 -18.7,7.4 h -12.2 c -4.2,0 -8.7,-0.5 -13.7,-1.5 -4.9,-1 -8.8,-1.9 -11.5,-2.8 -2.8,-0.9 -6.6,-2.1 -11.4,-3.8 -7.8,-2.7 -12.8,-4.1 -15,-4.2 -1.6,-0.1 -3.1,-0.7 -4.3,-1.9 -1.3,-1 -1.9,-2.4 -1.9,-4.1 z"
   id="path2"
   style="fill:#073642;fill-opacity:1" />
  </switch>
</svg>
