<?xml version="1.0" encoding="UTF-8" standalone="no"?>
<svg
   width="41.050781"
   height="41.050781"
   viewBox="0 0 41.050781 41.050781"
   version="1.1"
   id="svg12"
   sodipodi:docname="logo-solarized.svg"
   inkscape:version="1.3 (0e150ed6c4, 2023-07-21)"
   inkscape:export-filename="logo-solarized.png"
   inkscape:export-xdpi="3000"
   inkscape:export-ydpi="3000"
   xmlns:inkscape="http://www.inkscape.org/namespaces/inkscape"
   xmlns:sodipodi="http://sodipodi.sourceforge.net/DTD/sodipodi-0.dtd"
   xmlns="http://www.w3.org/2000/svg"
   xmlns:svg="http://www.w3.org/2000/svg">
  <defs
     id="defs12" />
  <sodipodi:namedview
     id="namedview12"
     pagecolor="#ffffff"
     bordercolor="#000000"
     borderopacity="0.25"
     inkscape:showpageshadow="2"
     inkscape:pageopacity="0.0"
     inkscape:pagecheckerboard="0"
     inkscape:deskcolor="#d1d1d1"
     inkscape:zoom="4.6219715"
     inkscape:cx="0.54089473"
     inkscape:cy="31.047357"
     inkscape:window-width="956"
     inkscape:window-height="1069"
     inkscape:window-x="960"
     inkscape:window-y="105"
     inkscape:window-maximized="1"
     inkscape:current-layer="svg12" />
  <path
     fill-rule="evenodd"
     fill="#c1670c"
     fill-opacity="1"
     d="M 41.050781,20.523438 C 41.050781,9.191407 31.859375,0 20.527344,0 9.191407,0 0,9.191407 0,20.523438 c 0,11.335937 9.191407,20.527343 20.527344,20.527343 11.332031,0 20.523437,-9.191406 20.523437,-20.527343 z m 0,0"
     stroke-opacity="0"
     stroke-width="0"
     id="path1" />
  <path
     id="path2"
     style="color:#000000;fill:#002b36;stroke-linejoin:round;stroke-miterlimit:10;-inkscape-stroke:none"
     d="m 15.628909,6.052739 c -0.81763,0 -1.64867,0.26568 -2.30274,0.84375 -0.65407,0.57806 -1.08398,1.48684 -1.08398,2.52929 0,0.70374 0.19685,1.34591 0.52539,1.86719 l -4.56836,6.17383 c -0.22359,-0.0393 -0.45046,-0.0586 -0.67578,-0.0586 -0.85643,0 -1.72671,0.27756 -2.41016,0.88086 -0.68344,0.60331 -1.13281,1.551 -1.13281,2.64454 0,1.09421 0.44944,2.04254 1.13281,2.64648 0.68337,0.60394 1.55348,0.88281 2.41016,0.88281 0.31796,0 0.63779,-0.038 0.94922,-0.11719 l 5.16015,6.84375 c -0.14127,0.31552 -0.22265,0.67096 -0.22265,1.04102 0,0.72713 0.31136,1.40001 0.78711,1.82031 0.47575,0.4203 1.06869,0.60742 1.64843,0.60742 0.57975,0 1.17269,-0.18712 1.64844,-0.60742 0.40144,-0.35465 0.68658,-0.8892 0.76563,-1.48437 l 7.00586,-2.26953 c 0.0598,0.0628 0.12136,0.12302 0.18554,0.17968 0.66293,0.58526 1.50488,0.85547 2.33399,0.85547 0.8291,0 1.67105,-0.27021 2.33398,-0.85547 0.66293,-0.58525 1.09961,-1.50512 1.09961,-2.5625 0,-0.40125 -0.062,-0.78187 -0.17578,-1.13281 l 2.20508,-2.70508 c 0.45201,0.17613 0.93304,0.26172 1.41015,0.26172 0.8796,0 1.77207,-0.28719 2.47266,-0.90625 0.70059,-0.61905 1.16211,-1.58835 1.16211,-2.71289 0,-1.12454 -0.46152,-2.09383 -1.16211,-2.71289 -0.70059,-0.61905 -1.59306,-0.90625 -2.47266,-0.90625 -0.87958,0 -1.77206,0.2872 -2.47265,0.90625 -0.70059,0.61906 -1.16211,1.58835 -1.16211,2.71289 0,0.8163 0.2452,1.54885 0.64648,2.12695 l -1.84961,2.26758 c -0.60763,-0.42235 -1.32685,-0.61914 -2.03515,-0.61914 -0.82937,0 -1.67309,0.26958 -2.33594,0.85547 -0.66285,0.58589 -1.09766,1.5064 -1.09766,2.56445 0,0.19276 0.0152,0.38008 0.043,0.5625 l -6.67773,2.16211 c -0.0687,-0.0821 -0.14233,-0.15913 -0.22071,-0.22851 -0.4756,-0.42105 -1.07018,-0.60938 -1.65039,-0.60938 -0.22903,0 -0.46023,0.0304 -0.68554,0.0918 l -4.96094,-6.57813 c 0.53161,-0.5995 0.86719,-1.43586 0.86719,-2.38085 0,-1.04616 -0.41284,-1.95714 -1.04688,-2.5625 l 4.30078,-5.8125 c 0.41988,0.16276 0.86646,0.24023 1.3086,0.24023 0.81763,0 1.64866,-0.26569 2.30273,-0.84375 0.28038,-0.2478 0.51938,-0.55635 0.70117,-0.91016 l 6.13086,2.4668 c -0.008,0.0989 -0.0137,0.19914 -0.0137,0.30078 0,1.06975 0.43994,1.99808 1.10938,2.58984 0.66943,0.59176 1.52119,0.86524 2.35937,0.86524 0.83818,0 1.68994,-0.27348 2.35938,-0.86524 0.66943,-0.59176 1.10937,-1.52009 1.10937,-2.58984 0,-1.06975 -0.43994,-1.99808 -1.10937,-2.58984 -0.66944,-0.59176 -1.5212,-0.86524 -2.35938,-0.86524 -0.83818,0 -1.68994,0.27348 -2.35937,0.86524 -0.14115,0.12477 -0.27186,0.2651 -0.39063,0.41797 l -6.47266,-2.60547 c -0.0924,-0.87773 -0.4934,-1.63399 -1.06445,-2.13867 -0.65407,-0.57807 -1.4851,-0.84375 -2.30273,-0.84375 z m 0,2 c 0.37573,0 0.73756,0.12884 0.97851,0.34179 0.24095,0.21295 0.40821,0.49168 0.40821,1.03125 0,0.53958 -0.16726,0.8183 -0.40821,1.03125 -0.24095,0.21295 -0.60278,0.3418 -0.97851,0.3418 -0.37573,0 -0.73757,-0.12885 -0.97852,-0.3418 -0.24095,-0.21295 -0.4082,-0.49167 -0.4082,-1.03125 0,-0.53957 0.16725,-0.8183 0.4082,-1.03125 0.24095,-0.21295 0.60279,-0.34179 0.97852,-0.34179 z m 12.58984,4.30468 c 0.3962,0 0.77882,0.13669 1.03516,0.36328 0.25634,0.2266 0.43359,0.52483 0.43359,1.0918 0,0.56697 -0.17725,0.8652 -0.43359,1.0918 -0.25634,0.2266 -0.63896,0.36328 -1.03516,0.36328 -0.39619,0 -0.77881,-0.13668 -1.03516,-0.36328 -0.25633,-0.2266 -0.43359,-0.52483 -0.43359,-1.0918 0,-0.56697 0.17726,-0.8652 0.43359,-1.0918 0.25635,-0.22659 0.63897,-0.36328 1.03516,-0.36328 z m 6.43945,6.74219 c 0.43779,0 0.861,0.15031 1.14844,0.4043 0.28745,0.25399 0.48633,0.59329 0.48633,1.21484 0,0.62156 -0.19888,0.96085 -0.48633,1.21485 -0.28744,0.25398 -0.71065,0.40429 -1.14844,0.40429 -0.43778,0 -0.86099,-0.15031 -1.14843,-0.40429 -0.28745,-0.254 -0.48633,-0.59329 -0.48633,-1.21485 0,-0.62155 0.19888,-0.96085 0.48633,-1.21484 0.28744,-0.25399 0.71065,-0.4043 1.14843,-0.4043 z m -27.13476,0.30859 c 0.41505,0 0.81577,0.14237 1.08594,0.38086 0.27016,0.23849 0.45703,0.55448 0.45703,1.14454 0,0.59131 -0.18679,0.90765 -0.45703,1.14648 -0.27025,0.23883 -0.67114,0.38281 -1.08594,0.38281 -0.4148,0 -0.8157,-0.14398 -1.08594,-0.38281 -0.27024,-0.23883 -0.45703,-0.55517 -0.45703,-1.14648 0,-0.59006 0.18686,-0.90605 0.45703,-1.14454 0.27017,-0.23849 0.67088,-0.38086 1.08594,-0.38086 z m 20.26172,7.08594 c 0.38742,0 0.76197,0.13277 1.01172,0.35352 0.24974,0.22075 0.42187,0.51118 0.42187,1.0664 0,0.55395 -0.17221,0.84209 -0.42187,1.0625 -0.24967,0.22042 -0.62403,0.35547 -1.01172,0.35547 -0.38769,0 -0.76206,-0.13505 -1.01172,-0.35547 -0.24967,-0.22041 -0.42188,-0.50855 -0.42188,-1.0625 0,-0.55522 0.17213,-0.84565 0.42188,-1.0664 0.24974,-0.22075 0.62429,-0.35352 1.01172,-0.35352 z m -11.93946,5.30664 c 0.13758,0 0.26152,0.05 0.32422,0.10547 0.0627,0.0555 0.11133,0.0987 0.11133,0.32422 0,0.22401 -0.0487,0.26501 -0.11133,0.32031 -0.0626,0.0553 -0.18619,0.10742 -0.32422,0.10742 -0.13802,0 -0.26161,-0.0521 -0.32421,-0.10742 -0.0625,-0.0553 -0.11133,-0.0963 -0.11133,-0.32031 0,-0.22552 0.0486,-0.26872 0.11133,-0.32422 0.0627,-0.0555 0.18664,-0.10547 0.32421,-0.10547 z" />
</svg>
