<?xml version="1.0" encoding="UTF-8" standalone="no"?>
<!-- Created with Inkscape (http://www.inkscape.org/) -->

<svg
   width="1280"
   height="720"
   viewBox="0 0 338.66666 190.5"
   version="1.1"
   id="svg1"
   inkscape:version="1.3 (0e150ed6c4, 2023-07-21)"
   sodipodi:docname="thumbnail.svg"
   xmlns:inkscape="http://www.inkscape.org/namespaces/inkscape"
   xmlns:sodipodi="http://sodipodi.sourceforge.net/DTD/sodipodi-0.dtd"
   xmlns="http://www.w3.org/2000/svg"
   xmlns:svg="http://www.w3.org/2000/svg">
  <sodipodi:namedview
     id="namedview1"
     pagecolor="#ffffff"
     bordercolor="#000000"
     borderopacity="0.25"
     inkscape:showpageshadow="2"
     inkscape:pageopacity="0.0"
     inkscape:pagecheckerboard="0"
     inkscape:deskcolor="#d1d1d1"
     inkscape:document-units="mm"
     inkscape:zoom="0.19355952"
     inkscape:cx="343.56357"
     inkscape:cy="594.13249"
     inkscape:window-width="956"
     inkscape:window-height="1006"
     inkscape:window-x="960"
     inkscape:window-y="168"
     inkscape:window-maximized="1"
     inkscape:current-layer="layer1" />
  <defs
     id="defs1" />
  <g
     inkscape:label="Ebene 1"
     inkscape:groupmode="layer"
     id="layer1">
    <rect
       style="fill:#eee8d5;fill-opacity:1;stroke-width:1.264;stroke-linecap:round"
       id="rect651"
       width="338.66666"
       height="190.5"
       x="0"
       y="0" />
    <rect
       style="fill:#43391b;fill-opacity:0;stroke-width:0;stroke-linecap:round"
       id="rect1"
       width="3.8514085"
       height="3.4452257"
       x="-283.92258"
       y="147.25043"
       transform="scale(-1,1)" />
    <g
       id="g2"
       transform="matrix(0.21027242,0,0,0.21027242,127.87708,-81.027209)">
      <path
         style="fill:#f2f2f2;fill-opacity:1"
         d="m 183.86771,626.94135 c 7.97451,0.0357 13.61541,1.75553 19.85551,6.04883 5.9069,4.0641 10.4395,9.43616 13.5429,16.05273 2.3489,5.0079 2.6016,6.70856 2.6016,17.54493 0,10.06187 -0.339,12.72914 -2.0899,16.51171 -4.2179,9.1123 -12.5833,14.74138 -23.3613,15.71875 l -5.6758,0.51368 5.3594,5.35937 c 7.7109,7.71087 10.7656,14.77312 10.7656,24.89649 0,9.90417 -3.0513,17.1969 -10.0351,23.98437 -5.2635,5.1155 -16.32182,10.77582 -24.26369,12.41992 -7.5482,1.5625 -29.53345,1.27023 -36.19922,-0.48047 -9.74827,-2.56007 -19.37415,-7.9586 -24.82422,-13.92187 -6.092,-6.66557 -8.55475,-13.26574 -8.59375,-23.03711 -0.0342,-8.63897 3.0957,-15.76303 10.4668,-23.82813 l 4.90234,-5.36328 -4.97461,-0.58984 c -10.57367,-1.2523 -19.262173,-7.26679 -22.980473,-15.91016 -3.0569,-7.10577 -3.42048,-24.62191 -0.67578,-32.49218 5.22197,-14.97407 23.621033,-24.9508 40.888673,-22.16993 7.06987,1.1385 18.12937,6.54618 22.30664,10.90625 l 2.79102,2.91407 5.8125,-5.38086 c 7.39507,-6.8466 14.67005,-9.74027 24.38086,-9.69727 z"
         id="path51374" />
      <g
         id="g55762"
         transform="translate(-85.562303,288.4236)">
        <path
           style="fill:#ececec;fill-opacity:1"
           d="m 135.07844,360.84392 c 0.54888,0.009 1.19227,0.56648 2.06836,1.57032 1.1166,1.27927 1.67065,5.0449 2.06055,14 0.2937,6.73747 0.43475,12.25 0.31445,12.25 -0.78767,0 -5.64401,-6.05355 -6.97851,-8.69922 -2.018,-4.002 -2.03797,-7.51297 -0.0762,-14.11914 1.04181,-3.50813 1.69655,-5.01703 2.61132,-5.00196 z"
           id="path51382" />
        <path
           style="fill:#ececec;fill-opacity:1"
           d="m 340.88312,359.66424 c 0.4964,0 1.8758,2.5875 3.0645,5.75 2.7633,7.35197 2.1996,11.94243 -2.1778,17.7539 -1.8373,2.4392 -3.6773,4.44785 -4.0898,4.46485 -0.4125,0.017 -0.75,-4.94031 -0.75,-11.01758 0,-10.75817 1.4437,-16.95117 3.9531,-16.95117 z"
           id="path51380" />
        <path
           style="fill:#ececec;fill-opacity:1"
           d="m 139.00618,337.66424 c 5.12677,0 5.1385,0.007 4.375,2.75 -0.4211,1.51247 -1.26304,5.06779 -1.86914,7.90039 l -1.10156,5.15039 -3.49024,-1.85743 c -1.9199,-1.02197 -4.22394,-1.87739 -5.11914,-1.90039 -2.1401,-0.0551 -4.35252,2.54234 -2.91992,3.42774 1.7069,1.0549 1.21643,3.73311 -1.65234,9.03711 -3.3495,6.19257 -3.6542,14.02059 -0.7793,19.99219 1.0591,2.19997 4.97565,6.98626 8.70312,10.63476 3.7274,3.6485 6.77735,6.911 6.77735,7.25 0,3.0843 -10.95686,-4.1224 -16.03516,-10.54687 -6.02667,-7.6242 -8.2264,-14.56875 -8.3418,-26.33789 -0.0827,-8.4254 0.23812,-10.62983 2.04102,-14 4.1289,-7.7183 10.51334,-11.5 19.41211,-11.5 z"
           id="path51372" />
        <path
           style="fill:#ececec;fill-opacity:1"
           d="m 335.59212,337.64274 c 0.8907,0.0177 2.0861,0.0904 3.6719,0.19141 7.9277,0.5048 13.5814,3.88013 16.8945,10.08203 1.9817,3.7099 2.2715,5.70718 2.2715,15.74805 0,10.33547 -0.2683,12.07019 -2.6367,17.12109 -3.0293,6.46077 -8.4611,12.83695 -14.3067,16.79492 -9.5145,6.44197 -10.0928,4.27766 -1.0957,-4.10351 11.6862,-10.88627 14.1593,-20.07236 8.666,-32.1875 -2.1205,-4.6765 -2.6145,-6.78968 -1.8945,-8.07618 1.5782,-2.82017 -0.4772,-3.88871 -5.9082,-3.07421 -2.6539,0.39787 -5.0492,0.72289 -5.3242,0.71289 -0.275,-0.006 -0.8252,-1.96384 -1.2227,-4.34961 -0.3975,-2.3858 -0.984,-5.40374 -1.3007,-6.70704 -0.4263,-1.7525 -0.4868,-2.20555 2.1855,-2.15234 z"
           id="path51370" />
      </g>
      <path
         id="path1754"
         style="fill:#000000;fill-opacity:1"
         d="m 142.44727,525.09074 c 0.001,0 0.005,0.002 0.006,0.002 v -0.002 z m 0.006,0.002 c -0.31862,0.003 -0.57789,3.93734 -0.58789,8.74805 -0.0151,13.61648 -4.90191,24.70263 -13.75976,31.2168 -5.4584,4.01408 -6.17647,3.82767 -3.73047,-0.9668 2.4191,-4.7417 1.81905,-4.90647 -6.05273,-1.66797 -16.42322,6.75665 -37.025718,24.8594 -49.255864,43.2793 l -6.712891,10.11133 -8.259765,-0.11133 c -7.429086,-0.0998 -8.928739,0.21857 -14.904297,3.16015 -11.887846,5.85187 -17.747083,15.36166 -18.550781,30.10938 -0.850398,15.60583 4.1137,29.28167 14.34375,39.51172 6.020458,6.02048 14.855064,11.08629 22.011718,12.62109 4.612462,0.9892 5.068853,1.37298 7.248047,6.12305 1.279068,2.7881 1.944314,5.37745 1.478516,5.75195 -0.4658,0.3745 -3.542597,2.46519 -6.837891,4.64649 -9.050852,5.99128 -22.267561,19.76335 -29.748047,31 -13.523817,20.31437 -23.8088072,47.22348 -27.5332027,70.32031 l 32.8886717,-8.17969 0.19336,-0.0879 0.101562,-0.0293 c 0.220862,-0.16675 0.60182,-0.38042 1.089844,-0.6875 1.099998,-0.6921 7.850014,-3.13759 15,-5.43359 l 13,-4.17383 4.08789,-7.13867 4.089844,-7.13867 1.81836,6.00781 c 0.975978,3.22365 1.778184,5.73006 1.865234,5.85742 2.462014,-0.51691 4.920326,-1.05132 7.388672,-1.53906 0.320229,-0.0612 0.642539,-0.11665 0.96289,-0.17773 0.532418,-2.30031 1.196168,-4.56707 2.152344,-6.73047 1.253864,-1.5273 1.713116,-3.54195 3.015625,-5.04688 1.175317,-1.75929 2.730123,-3.20137 3.964844,-4.91406 0.825816,-0.58163 1.209409,-1.47833 1.681641,-2.3125 -0.331805,-0.1636 -0.614497,-0.42322 -0.763672,-0.80859 -1.586231,-3.64556 0.303388,-8.08881 3.5625,-10.12696 1.573013,-1.0233 3.468678,-1.49549 5.335938,-1.41015 1.86726,0.0853 3.70512,0.72808 5.16016,1.93164 0.7601,0.54269 1.66865,1.39994 1.44726,2.39453 1.75957,-0.34442 3.54443,-0.63991 5.22266,-1.27539 2.08426,-0.22322 4.15532,-0.57867 6.25781,-0.54883 2.90747,-0.0711 5.82757,0.2471 8.61328,1.09961 3.91258,0.97945 7.7938,2.2552 11.33789,4.20312 2.31114,1.37648 4.45051,3.0426 6.8711,4.23047 1.50625,0.8305 3.04287,1.59936 4.57031,2.38867 1.16621,1.09652 2.78043,1.30478 4.0664,2.26954 1.99769,1.35309 4.34824,2.1014 6.27344,3.57226 1.42086,0.38474 2.45226,1.54336 3.81445,2.07031 1.4224,0.77394 2.84807,1.51547 4.2793,2.25196 1.27985,0.86526 2.75147,1.37456 4.04102,2.23437 1.45953,0.65542 2.58737,1.78333 4.16406,2.25 1.9708,1.44204 4.21479,2.43208 6.28906,3.70703 1.87857,0.99536 3.78138,1.93843 5.61328,3.02149 2.08229,1.14139 4.09722,2.41138 6.14258,3.60742 2.64052,1.05207 4.78417,2.96083 7.07617,4.58594 4.12833,3.09451 8.03254,6.52478 11.3086,10.52539 4.875,5.7288 9.03313,12.13054 12.16797,18.98437 l 0.0273,-3.70312 c 0.1184,-15.91012 0.54349,-21.71497 2.04687,-27.93555 l 1.89844,-7.85156 5.57227,11.0664 c 7.27488,14.44562 11.59289,20.55117 13.86719,19.61329 5.38338,-2.22 5.17503,-1.2009 -0.99805,4.88867 -6.55164,6.46297 -12.09499,12.91127 -17.2793,20.01367 0.21138,1.1272 0.38996,2.2593 0.54688,3.39453 l 50.49609,2.67578 c 8.07601,-10.34575 12.4375,-18.68126 12.4375,-24.18945 0,-1.36847 -0.9978,-4.26274 -2.2168,-6.43164 -1.80998,-3.22037 -1.96565,-4.09808 -0.84765,-4.78906 2.75818,-1.7046 -1.05834,-25.30375 -7.60742,-47.04102 -6.4949,-21.5571 -17.7171,-41.51973 -29.57618,-52.61328 -5.70028,-5.33237 -14.30799,-11.73805 -16.96289,-12.62305 -0.567,-0.1891 0.2556,-2.65506 1.8418,-5.51953 2.6922,-4.86198 3.26626,-5.30062 9.36914,-7.16992 20.27166,-6.20917 34,-25.67017 34,-48.19727 0,-16.16273 -6.67262,-27.6304 -19.5,-33.51367 -5.03308,-2.3085 -7.31672,-2.74408 -14.16602,-2.70508 l -8.16601,0.0449 -1.83008,-4.10156 c -2.8671,-6.42458 -15.68939,-22.85084 -23.10547,-29.59961 -3.70358,-3.37028 -10.44828,-8.61543 -14.98828,-11.6582 -8.66498,-5.80748 -21.52673,-11.85343 -22.05273,-10.36523 -0.1697,0.48 0.64901,2.75087 1.82031,5.04687 l 2.13086,4.17578 -5.01953,-3.84961 c -2.82761,-2.1692 -9.12766,-9.32507 -14.43164,-16.39062 -7.94232,-10.58016 -20.55275,-23.94404 -22.60743,-23.95899 z m 107.58399,100.97657 c 0.8907,0.0177 2.08609,0.0904 3.67187,0.1914 7.9277,0.5048 13.58144,3.88015 16.89454,10.08203 1.98168,3.7099 2.27148,5.7072 2.27148,15.74805 0,10.33545 -0.26832,12.07021 -2.63672,17.12109 -3.0293,6.46077 -8.46106,12.83696 -14.30664,16.79493 -9.51448,6.44195 -10.09278,4.27763 -1.0957,-4.10352 11.68618,-10.88625 14.15931,-20.07238 8.66601,-32.1875 -2.12048,-4.6765 -2.61453,-6.78967 -1.89453,-8.07617 1.5782,-2.82017 -0.47722,-3.88872 -5.9082,-3.07422 -2.6539,0.39787 -5.04922,0.72289 -5.32422,0.71289 -0.275,-0.006 -0.82516,-1.96384 -1.22266,-4.34961 -0.3975,-2.3858 -0.98408,-5.40373 -1.30078,-6.70703 -0.4263,-1.7525 -0.48675,-2.20555 2.18555,-2.15234 z m -196.585938,0.0215 c 5.12676,0 5.138498,0.007 4.375,2.75 -0.4211,1.51247 -1.263043,5.06779 -1.869141,7.90039 l -1.101562,5.15039 -3.490235,-1.85742 c -1.919896,-1.02197 -4.223942,-1.87739 -5.11914,-1.90039 -2.140096,-0.0551 -4.35252,2.54233 -2.919922,3.42773 1.706896,1.0549 1.21642,3.73313 -1.652344,9.03711 -3.349494,6.19257 -3.654191,14.02061 -0.779297,19.99219 1.059098,2.19997 4.975663,6.98627 8.703125,10.63477 3.727392,3.64848 6.777344,6.911 6.777344,7.25 0,3.08428 -10.956866,-4.12243 -16.035156,-10.54688 -6.026658,-7.62418 -8.226397,-14.56877 -8.341797,-26.33789 -0.0827,-8.42538 0.238119,-10.62983 2.041015,-14 4.128892,-7.71828 10.513358,-11.5 19.41211,-11.5 z M 183.875,626.94426 c 7.97449,0.0357 13.61537,1.75554 19.85547,6.04882 5.90688,4.0641 10.43957,9.43617 13.54297,16.05274 2.34888,5.00788 2.60156,6.70857 2.60156,17.54492 0,10.06185 -0.33896,12.72915 -2.08984,16.51172 -4.2179,9.11228 -12.58335,14.74138 -23.36133,15.71875 l -5.67578,0.51367 5.35937,5.35938 c 7.71088,7.71085 10.76563,14.77313 10.76563,24.89648 0,9.90415 -3.05138,17.19692 -10.03516,23.98437 -5.26348,5.1155 -16.32182,10.77583 -24.26367,12.41993 -7.54818,1.5625 -29.53347,1.27023 -36.19922,-0.48047 -9.74825,-2.56007 -19.37415,-7.95861 -24.82422,-13.92188 -6.09198,-6.66555 -8.55475,-13.26576 -8.59375,-23.03711 -0.0342,-8.63895 3.09572,-15.76304 10.4668,-23.82812 l 4.90234,-5.36328 -4.97461,-0.58985 c -10.57365,-1.25228 -19.262174,-7.2668 -22.980466,-15.91015 -3.056894,-7.10577 -3.420476,-24.62194 -0.675782,-32.49219 5.22196,-14.97405 23.621068,-24.95079 40.888668,-22.16992 7.06987,1.1385 18.12939,6.54618 22.30664,10.90625 l 2.79102,2.91406 5.8125,-5.38086 c 7.39505,-6.84658 14.67007,-9.74026 24.38086,-9.69726 z m 2.9043,19.4746 c -11.08886,-0.36082 -22.39468,7.45223 -22.4043,16.6543 v 3.48242 l 2.59766,-3.82422 c 4.69328,-6.90665 17.00397,-10.62522 25.08593,-7.57812 7.5708,2.85427 13.25797,11.91792 13.29297,21.1875 0.012,3.16247 0.27112,5.75 0.57422,5.75 1.4147,0 3.44945,-7.51723 3.43945,-12.7168 -0.017,-10.41535 -7.30967,-19.50525 -17.87695,-22.28125 -1.5417,-0.405 -3.12098,-0.62228 -4.70508,-0.67383 z m -65.05469,0.10157 c -9.05745,-0.46752 -19.00718,5.16071 -23.441407,13.78125 -2.164896,4.20868 -2.572513,13.58604 -0.810547,18.64062 h -0.0039 c 1.685796,4.83607 2.899834,3.75549 2.923834,-2.60156 0.0526,-13.76015 9.89039,-22.93301 23.65429,-22.05664 5.1002,0.3247 6.92658,0.94465 9.93165,3.37695 2.02508,1.639 4.51672,4.53676 5.5371,6.43946 l 1.85547,3.45898 v -3.98438 c -0.007,-7.39345 -6.34454,-13.98485 -15.83789,-16.47265 -1.23882,-0.32465 -2.51467,-0.51524 -3.80859,-0.58203 z m 133.60351,1.57031 c 0.4964,0 1.87576,2.5875 3.06446,5.75 2.7633,7.35195 2.19966,11.94244 -2.17774,17.75391 -1.83728,2.43918 -3.67734,4.44784 -4.08984,4.46484 -0.4125,0.017 -0.75,-4.94031 -0.75,-11.01758 0,-10.75815 1.44374,-16.95117 3.95312,-16.95117 z m -205.804683,1.17969 c 0.54888,0.009 1.192272,0.56647 2.06836,1.57031 1.116598,1.27927 1.670647,5.04492 2.060547,14 0.293698,6.73745 0.434753,12.25 0.314453,12.25 -0.78767,0 -5.644018,-6.05355 -6.978516,-8.69922 -2.017996,-4.00198 -2.037938,-7.51299 -0.07617,-14.11914 1.041808,-3.50813 1.69656,-5.01702 2.611328,-5.00195 z m 271.333983,2.47656 c -11.23698,-0.35655 -22.1619,4.03864 -31.39258,13.90625 -20.34296,21.74697 -21.71446,54.49814 -2.8125,67.13086 13.23998,8.84848 27.28791,1.74934 27.09961,-13.69336 -0.066,-5.41558 -2.92588,-12.98318 -5.50976,-14.58008 -1.9997,-1.2359 5.29812,-4.33195 10.3164,-4.37695 6.0547,-0.0541 8.80382,1.04704 13.75,5.51562 7.2468,6.54707 13.34557,20.08686 16.72657,37.13086 2.66868,13.45285 2.37649,42.70802 -0.59571,59.81055 -8.19588,47.16075 -27.66819,70.36075 -69.79101,83.14453 l -9.22461,2.79883 -1.13672,5.52734 c -2.9133,14.15798 -11.24795,30.86897 -23.92383,47.96485 l -6.18945,8.3457 6.34961,-0.70313 c 23.49944,-2.60848 55.09823,-13.34192 75.43359,-25.625 44.23942,-26.72184 66.70396,-62.29821 72.90234,-115.44726 3.5834,-30.72602 0.37953,-68.1552 -7.97265,-93.15625 -13.07008,-39.1238 -39.30794,-62.90898 -64.0293,-63.69336 z m -199.57226,7.49805 c -0.30098,0.009 -0.67994,0.0881 -1.16016,0.21679 -1.2375,0.3317 -2.77863,0.60524 -3.42383,0.61524 -0.6452,0.007 -2.5577,1.39951 -4.25,3.09179 -5.67695,5.67707 -3.48786,15.0328 4.33789,18.53907 5.92827,2.65608 12.61023,-0.27895 15.95313,-7.00782 1.44217,-2.90288 1.62946,-4.25804 0.81836,-5.93554 -0.5781,-1.1956 -1.08214,-1.61133 -1.11914,-0.92383 -0.1162,2.14647 -5.04159,1.36857 -7.61329,-1.20313 -1.37668,-1.37668 -2.45312,-3.62408 -2.45312,-5.11718 0,-1.70445 -0.1869,-2.30129 -1.08984,-2.27539 z m 60.94726,0.8457 c -3.52972,0 -8.53991,4.27412 -9.35351,7.97852 -0.4262,1.94058 0.0354,4.45295 1.37109,7.47265 1.1069,2.50207 2.14986,4.55447 2.31836,4.56445 0.1684,0.008 2.1066,0.65215 4.30664,1.43165 6.08889,2.15738 10.94972,0.4493 14.63672,-5.14258 2.0033,-3.03827 2.47148,-7.81072 0.86328,-8.80469 -0.55,-0.3399 -1,-0.14109 -1,0.44141 0,0.5825 -1.50602,1.05859 -3.3457,1.05859 -3.8951,0 -6.54784,-2.44215 -6.86914,-6.32422 -0.181,-2.1861 -0.71685,-2.67578 -2.92774,-2.67578 z m -27.23437,28.08398 c -0.2423,0.0158 -0.37502,0.084 -0.37305,0.21485 0.009,0.628 3.62681,2.60734 8.03711,4.39844 9.27466,3.76698 11.5643,4.26936 9.3457,2.05078 -1.999,-1.99882 -14.66752,-6.81655 -17.00976,-6.66407 z m -7.81055,0.61719 c -5.17229,0.10732 -14.45508,4.16567 -14.45508,6.42188 0,0.9026 0.95841,0.76558 2.27149,-0.32422 1.24938,-1.0369 5.60493,-2.80178 9.67773,-3.92188 5.92556,-1.6295 6.52384,-2.06233 2.99414,-2.17383 -0.15784,-0.005 -0.32143,-0.005 -0.48828,-0.002 z m -5.56055,7.79102 c -0.29908,0.0229 -0.57854,0.08 -0.82812,0.17578 -1.2647,0.4853 -0.64122,1.52991 2.98828,5.00781 2.52247,2.41707 4.58789,4.82848 4.58789,5.35938 0,0.5308 0.48444,0.96484 1.07812,0.96484 1.2363,0 0.30466,-5.41123 -1.40234,-8.14453 -1.06118,-1.69917 -3.48604,-3.07443 -5.47461,-3.33203 -0.33143,-0.0429 -0.65014,-0.0523 -0.94922,-0.0293 z m 20.76953,0.50781 c -3.37715,0 -5.60064,2.64211 -6.65234,7.90039 l -0.6582,3.29297 5.14453,-5.14453 c 2.82927,-2.82937 5.14453,-5.34691 5.14453,-5.59571 0,-0.24878 -1.34122,-0.45312 -2.97852,-0.45312 z m -54.54882,38 c -0.3227,0 0.2131,1.35555 1.1914,3.01172 3.8586,6.53198 16.43716,14.05174 27.53321,16.46094 8.40565,1.82528 23.66728,1.83657 32.30273,0.0234 9.70525,-2.03758 20.55829,-7.57784 24.99219,-12.75781 1.9803,-2.3136 3.13586,-4.36168 2.56836,-4.55078 -0.5675,-0.1892 -4.6123,1.03691 -8.98828,2.72461 -22.56371,8.70145 -48.73159,7.83307 -73.10547,-2.42578 -3.24857,-1.36727 -6.17144,-2.48633 -6.49414,-2.48633 z m 42.5957,92.64648 c -0.0909,0.13425 -0.2264,0.22734 -0.34961,0.33204 0.24567,0.0198 0.491,0.024 0.73633,0.0469 -0.13209,-0.11261 -0.26329,-0.22651 -0.38086,-0.36719 -0.002,-0.004 -0.004,-0.008 -0.006,-0.0117 z m -68.439454,14.21289 c -1.189056,0.6875 -2.378439,1.3741 -3.5625,2.07032 -0.866238,0.92242 -0.880939,1.68208 -0.619141,2.90429 0.7043,3.28807 2.479485,17.00336 2.521485,19.48633 0.0291,1.7094 -0.138417,1.69852 -2.800781,-0.19726 -5.34309,-3.8047 -13.391213,-6.40368 -20.167969,-6.51368 -5.41859,-0.088 -7.285688,0.35405 -11.21875,2.66602 -9.66595,5.68198 -14.716743,17.83182 -12.873047,30.9668 1.740896,12.40268 6.865814,25.18254 16.259766,40.54492 8.984652,14.69286 22.774027,30.05543 40.832031,45.49609 5.774958,4.9378 10.89014,9.33413 11.36914,9.76953 0.4789,0.4349 -0.8711,0.41102 -3,-0.0547 -8.802752,-1.9242 -28.19821,-3.17876 -44.011718,-2.84766 -16.106308,0.3372 -17.069224,0.4713 -21.603516,3.0293 l -4.746094,2.67773 c -1.879196,1.8201 -2.541805,7.1314 -3.658203,14.19146 l 3.84961,2.2695 5.15039,-2.5566 c 6.894056,-3.4222 11.400752,-4.4896 5.433594,-1.2872 -4.65686,2.4994 -6.783203,4.9756 -6.783203,7.8946 0,0.8237 3.206761,3.7577 7.126953,6.5195 l 7.126953,5.0215 3.328125,-2.5371 c 7.947554,-6.062 20.28009,-7.2396 50.556639,-4.8262 12.29855,0.9804 23.99725,1.4737 25.99805,1.0957 5.50885,-1.0408 8.86328,-4.9451 8.86328,-10.3164 0,-4.7794 -2.10825,-9.60625 -8,-18.32423 -2.9258,-4.32918 -17.35159,-27.12081 -21.38086,-33.77929 -0.426,-0.704 2.41079,0.78188 6.30469,3.30078 8.39985,5.43388 14.71946,8.42703 17.85156,8.45703 2.1989,0.021 2.2242,-0.077 0.75,-2.92774 -2.261,-4.37218 -1.8992,-4.58507 1.98828,-1.17187 5.07427,4.45528 8.97598,6.21352 15.21485,6.85742 5.34108,0.5513 5.47011,0.50672 4.38671,-1.51758 -0.6141,-1.1474 -1.11523,-2.87584 -1.11523,-3.83984 0,-1.477 0.4328,-1.35067 2.75,0.79883 7.64905,7.09558 19.6633,6.13554 32.71289,-2.61524 3.5953,-2.41088 6.53711,-4.157 6.53711,-3.8789 0,0.8546 -12.039,17.33941 -19.21289,26.30859 -8.12138,10.15368 -9.70624,13.95918 -7.32617,17.59184 3.87738,5.9176 10.2062,5.6584 39.53906,-1.6172 27.54514,-6.83212 39.30982,-8.97369 53.08398,-9.66409 14.63108,-0.7333 19.92716,0.43783 26.49024,5.86133 4.77158,3.94286 5.04208,4.03056 11.28906,3.63286 5.6956,-0.3627 6.71508,-0.7605 9.26758,-3.61724 3.6011,-4.0306 3.60804,-6.61837 0.0352,-12.25195 -5.0195,-7.91488 -11.30573,-12.15198 -21.53711,-14.51758 l -6.13086,-1.41797 5.91992,0.5332 c 10.44478,0.941 19.05799,6.3171 24.21289,15.11328 1.5226,2.5982 3.02314,4.09944 3.71094,3.71094 4.65798,-2.63098 5.85792,-6.55947 3.36914,-11.03515 -1.5951,-2.8689 -13.25361,-12.97733 -17.71289,-15.35743 -1.925,-1.02748 -2.92004,-1.88811 -2.21094,-1.91211 2.5565,-0.088 8.79787,3.88117 13.16797,8.37305 4.55428,4.6812 6.71611,5.50861 8.84179,3.38281 3.8305,-3.83048 -0.74354,-11.92883 -9.17382,-16.24023 -7.9823,-4.0823 -18.9622,-4.55743 -38.69336,-1.67383 -14.33148,2.0945 -45.59986,8.19323 -49.43164,9.64063 -1.1251,0.425 0.4468,-1.82067 3.5957,-5.13477 22.79766,-23.99384 36.65449,-46.08734 40.51367,-64.5957 0.8085,-3.8777 1.23663,-7.28106 0.95313,-7.56446 -0.054,-0.054 -0.27199,0.043 -0.49219,0.14258 -4.4459,4.133 -9.05624,8.09036 -13.80274,11.86914 -13.45966,10.66958 -27.9881,20.0002 -43.29296,27.79688 -0.57933,0.2898 -1.19075,0.52246 -1.77344,0.80859 -1.38133,1.22962 -2.79143,2.42732 -4.25,3.56446 -3.80781,2.92003 -7.93651,5.45344 -12.38086,7.2832 -4.24582,1.63934 -8.35705,3.71808 -12.8457,4.63867 -1.59625,0.56416 -3.2205,0.92085 -4.90625,1.08594 -12.59228,2.84625 -25.82738,1.71629 -38.14844,-1.87305 -1.73766,-0.45886 -3.47459,-0.92177 -5.17969,-1.49219 -0.48703,-1.21243 -2.28324,-0.80794 -3.26953,-1.4375 -1.3158,-0.68179 -2.63529,-1.31418 -3.92188,-2.02539 -1.41345,-0.4066 -2.37761,-1.588 -3.79101,-2.00195 -1.10309,-0.55218 -1.93393,-1.50686 -3.00781,-2.12305 -1.01745,-0.74027 -2.17002,-1.28447 -3.21485,-1.96289 -1.04368,-1.32272 -2.57728,-2.01113 -3.77929,-3.08789 -1.1489,-1.02306 -2.36361,-1.96367 -3.36914,-3.13476 -1.13278,-1.12741 -2.36792,-2.1993 -3.18165,-3.59571 -1.438759,-1.21377 -2.525175,-2.75931 -3.67187,-4.22851 -1.516063,-1.52754 -2.417222,-3.50955 -3.609375,-5.27735 -2.952355,-4.73934 -5.808514,-9.58659 -7.708985,-14.85937 -1.138342,-3.07282 -2.112793,-6.21961 -2.763671,-9.43164 -0.274179,-1.81204 -0.951025,-3.54043 -1.154297,-5.3711 -0.491357,-3.40408 -0.682418,-6.8477 -0.572266,-10.28515 -0.08451,-2.2454 -0.273096,-4.491 -0.125,-6.74024 0.1723,-3.794 -0.0051,-7.59351 0.212891,-11.38672 -0.137654,-3.74861 -0.109779,-7.50288 0.06836,-11.25 z m 111.181644,32.26368 c -0.0885,0.37131 -0.20032,0.73671 -0.29883,1.10547 0.0198,-0.066 0.0472,-0.12912 0.0664,-0.19532 0.0972,-0.29969 0.16292,-0.60537 0.23243,-0.91015 z" />
      <path
         id="path8042"
         style="fill:#1c484b;fill-opacity:1;stroke-width:0.387237"
         d="m 121.125,767.37785 c -2.10249,-0.0298 -4.17355,0.32561 -6.25781,0.54883 -1.71043,0.64768 -3.5319,0.94179 -5.32422,1.29492 -1.46222,0.40136 -3.02683,1.28318 -4.51758,0.37891 -2.81929,-1.81189 -7.050059,0.36905 -7.402343,3.65625 0.164703,1.25304 -0.370536,3.54233 -2.070313,3.00781 -0.891171,1.01206 -1.172076,2.45257 -2.332031,3.26953 -1.234722,1.71269 -2.789526,3.15477 -3.964844,4.91406 -1.302511,1.50493 -1.76176,3.51958 -3.015625,5.04688 -1.54326,3.49171 -2.369602,7.2424 -3.005859,10.99218 3.501944,-0.69399 7.021058,-1.39191 10.001953,-1.91406 0.36348,-1.43843 0.837526,-2.84874 1.458984,-4.21484 0.673964,-2.09336 1.912079,-3.93495 3.257813,-5.6543 3.453255,-5.01955 8.541685,-8.96151 14.402345,-10.7207 6.87659,-2.08828 14.34973,-0.87308 20.83594,1.94336 3.90842,1.60517 7.34995,4.09209 11.05859,6.08008 9.62119,5.16082 19.19376,10.41115 28.71875,15.74804 4.93487,2.78718 9.90591,5.51651 14.78516,8.39844 2.15724,0.96319 4.24366,2.08665 6.22851,3.37305 11.52434,7.22193 20.85245,18.00829 25.9668,30.64062 2.97933,7.30425 4.47785,15.16027 4.59765,23.03906 2.92609,-4.70237 5.93952,-9.27336 8.34375,-12.72461 -0.015,-0.0799 -0.0258,-0.1604 -0.041,-0.24023 -2.36903,-12.93897 -8.78782,-24.8854 -17.26367,-34.8457 -3.27606,-4.00061 -7.18027,-7.43087 -11.3086,-10.52539 -2.29201,-1.62511 -4.43565,-3.53387 -7.07617,-4.58594 -2.04536,-1.19604 -4.06029,-2.46603 -6.14258,-3.60742 -1.83191,-1.08306 -3.73471,-2.02613 -5.61328,-3.02149 -2.07427,-1.27495 -4.31826,-2.26499 -6.28906,-3.70703 -1.57669,-0.46667 -2.70453,-1.59458 -4.16406,-2.25 -1.28955,-0.85981 -2.76117,-1.36911 -4.04102,-2.23437 -1.43123,-0.73649 -2.8569,-1.47802 -4.2793,-2.25196 -1.3622,-0.52695 -2.39359,-1.68557 -3.81445,-2.07031 -1.9252,-1.47086 -4.27575,-2.21916 -6.27344,-3.57226 -1.28598,-0.96476 -2.90019,-1.17302 -4.0664,-2.26954 -1.52744,-0.78932 -3.06405,-1.55817 -4.57031,-2.38867 -2.42059,-1.18787 -4.55996,-2.85399 -6.8711,-4.23047 -3.5441,-1.94793 -7.42531,-3.22367 -11.33789,-4.20312 -2.78571,-0.85251 -5.70581,-1.17071 -8.61328,-1.09961 z m -29.271485,65.08984 c -1.965778,0.63864 -5.471546,2.36235 -9.65039,4.74024 -0.184967,1.40249 -0.251874,2.82179 -0.185547,4.23633 -0.201353,3.91489 -0.225875,7.83865 -0.08203,11.75585 -0.217973,3.79321 -0.04059,7.59271 -0.212891,11.38672 -0.148096,2.24924 0.04049,4.49484 0.125,6.74024 -0.110152,3.43746 0.08091,6.88106 0.572266,10.28515 0.203272,1.83067 0.880118,3.55906 1.154297,5.3711 0.650879,3.21204 1.625327,6.35882 2.763671,9.43164 1.900472,5.27279 4.756627,10.12002 7.708985,14.85937 1.192154,1.7678 2.093311,3.74981 3.609375,5.27735 1.146696,1.4692 2.233105,3.01474 3.671869,4.22851 0.81373,1.39641 2.04887,2.4683 3.18165,3.59571 1.00554,1.17109 2.22024,2.1117 3.36914,3.13476 1.20202,1.07676 2.73561,1.76517 3.77929,3.08789 1.04483,0.67842 2.1974,1.22262 3.21485,1.96289 1.07388,0.61619 1.90472,1.57087 3.00781,2.12305 1.4134,0.41395 2.37755,1.59535 3.79101,2.00195 1.28659,0.71121 2.60608,1.3436 3.92188,2.02539 0.98629,0.62956 2.7825,0.22507 3.26953,1.4375 1.7051,0.57042 3.44203,1.03333 5.17969,1.49219 12.32107,3.58934 25.55615,4.7193 38.14844,1.87305 1.68576,-0.16509 3.31,-0.52178 4.90625,-1.08594 4.48866,-0.92059 8.59988,-2.99933 12.8457,-4.63867 4.44436,-1.82976 8.57305,-4.36316 12.38086,-7.2832 4.8017,-3.74354 9.17654,-8.02249 13.08594,-12.69141 -3.35067,1.87682 -6.73547,3.67395 -10.14649,5.37891 -9.80602,4.9014 -17.50442,7.38493 -23.96484,7.73046 -9.35497,3.68188 -19.54642,5.22924 -29.57617,4.50196 -13.45226,-0.83125 -26.477,-6.24625 -36.83594,-14.81641 -12.33166,-10.11171 -20.955091,-24.82133 -23.142579,-40.66992 -0.885811,-5.61976 -0.511436,-11.31837 -0.345703,-16.97461 -0.01838,-8.60473 0.193783,-17.20603 0.361328,-25.80859 0.0092,-1.56321 0.05325,-3.12649 0.09375,-4.68946 z" />
      <path
         id="path8038"
         style="fill:#d35821;fill-opacity:1;stroke-width:0.387237"
         d="m 137.59286,834.24805 c -4.24937,2.70878 -6.97101,7.19001 -8.98891,11.69329 -3.2113,7.4187 -4.72215,15.55743 -4.57357,23.63113 0.17333,5.95697 1.26897,12.14776 4.6692,17.16509 2.05213,3.14714 5.84243,4.52661 9.393,5.12072 8.62075,1.42172 17.91604,-1.71167 23.71766,-8.28948 4.6098,-5.16347 6.5705,-12.34026 5.90315,-19.16707 -0.60389,-6.98284 -3.66473,-13.54412 -7.82602,-19.10835 -2.51542,-3.45819 -4.57136,-7.45155 -7.66791,-10.42918 -1.7548,-1.72461 -4.47329,-2.39278 -6.94648,-2.36158 -2.53991,-0.081 -5.18755,0.19362 -7.38703,1.57476 -0.0961,0.0593 -0.19897,0.10854 -0.29317,0.17053 z m -2.68057,10.54879 c 0.70385,-0.24182 0.84009,0.84726 0.83859,1.32493 -0.0555,1.7627 -0.96635,3.35394 -1.27137,5.07693 -1.81296,7.75387 -1.46884,15.97801 0.75338,23.61247 0.59087,2.25594 1.70279,4.32957 2.36608,6.55326 -0.56947,0.52493 -1.71446,0.98351 -2.302,0.19772 -1.46845,-1.81635 -1.90062,-4.21144 -2.44047,-6.42475 -0.83137,-4.09441 -1.2164,-8.52943 -1.29105,-12.81272 -0.031,-4.89381 0.12631,-9.88733 1.58647,-14.5954 0.40306,-1.04517 0.77186,-2.29252 1.76037,-2.93244 z"
         sodipodi:nodetypes="ccccccccccccccccccccccc" />
      <path
         id="path8044"
         style="fill:#863519;fill-opacity:1;stroke-width:0.387237"
         d="m 148.99604,832.74429 c -0.6336,0.52272 0.13049,1.25068 0.6075,1.58088 4.39118,3.67468 7.7697,8.43238 10.74451,13.24268 2.59306,4.3214 4.95757,8.95192 6.27502,13.76928 0.88585,3.27079 0.65605,6.63434 -0.0434,9.90256 -2.167,9.52441 -10.03741,17.40424 -19.4761,19.63773 -5.19242,1.27951 -10.84403,0.52889 -15.49198,-2.13078 -0.71955,-0.40156 -1.51381,-0.63958 -2.26988,-0.96122 3.32451,5.3481 8.77434,9.21969 14.807,10.92779 7.90144,2.3237 16.53162,1.30029 24.00466,-2.00041 7.40867,-3.13102 14.27589,-8.20809 18.24726,-15.33131 3.73091,-6.50491 4.53719,-14.54807 2.30525,-21.69391 -2.54069,-8.4735 -8.80054,-15.46879 -16.30634,-19.96177 -6.89546,-4.15372 -14.8234,-6.44246 -22.80819,-7.1767 -0.20103,0.0258 -0.45796,0.0243 -0.59532,0.19518 z m 26.40962,17.1303 c 0.85536,-0.23101 1.4052,0.75364 1.91264,1.28465 3.41756,4.32572 5.52362,9.74787 5.47693,15.29378 0.0465,7.74709 -3.88477,15.17289 -9.72774,20.13007 -2.66053,2.34918 -5.79045,4.07489 -9.00226,5.38268 -2.55159,1.02135 -5.27705,1.92294 -7.91945,2.09463 -0.69347,-0.0265 -1.70764,0.11695 -2.09883,-0.57807 -0.30639,-1.11368 1.07692,-1.51238 1.88413,-1.75128 3.13591,-0.66229 6.30919,-1.47708 9.21884,-2.9098 6.58394,-3.0835 12.1101,-8.79358 14.14146,-15.86503 1.81617,-6.04223 0.75386,-12.75402 -2.47956,-18.12837 -0.72565,-1.40262 -1.80709,-2.70923 -2.07273,-4.295 0.0125,-0.34239 0.40997,-0.51709 0.66657,-0.65826 z" />
      <path
         id="path8046"
         style="fill:#c0dd6f;fill-opacity:1;stroke-width:0.387237"
         d="m 117.91992,780.46379 c -2.24078,-0.11013 -4.37478,1.02049 -6.49219,1.64257 -1.6517,0.66951 -3.17017,1.61542 -4.68164,2.54883 -4.3183,2.38163 -6.971572,6.77866 -9.041012,11.09766 -0.339422,0.73669 -0.632218,1.4924 -0.888672,2.26172 6.420004,-1.03937 11.912594,-1.75349 16.123044,-1.93555 v 0.002 c 6.25542,-0.27048 10.4355,0.36394 13.61524,1.7793 5.26868,2.3452 12.09443,9.57008 13.94922,14.76367 0.66101,1.85085 1.004,2.77967 1.22265,2.92188 0.97028,4.40871 -2.52148,6.9375 -2.52148,6.9375 l -0.1543,0.70312 -2.90625,2.44727 c -1.7261,1.4525 -3.87827,2.40298 -4.85937,2.14648 -1.0939,-0.2861 -1.58508,-1.5e-4 -1.29688,0.74805 0.2551,0.6648 -0.70095,1.73872 -2.12305,2.38672 -3.59388,1.6375 -4.24754,1.50022 -5.11914,-1.07227 -0.7245,-2.13809 -0.78901,-2.10309 -1.3164,0.6875 -0.4371,2.31289 -1.27769,3.12271 -3.95508,3.81641 -2.502,0.6481 -3.61958,0.53405 -4.23438,-0.43555 -0.6334,-0.99904 -0.83996,-1.01851 -0.85156,-0.0703 -0.014,1.13599 -2.56649,1.3942 -5.98633,0.94922 -0.1828,1.42452 -0.32161,2.85494 -0.38672,4.29492 -0.40304,3.05923 -0.8923,6.13309 -0.72265,9.22852 -0.13523,3.31582 -0.13144,6.63708 0.084,9.94921 0.10779,2.54387 0.3971,5.07823 0.70508,7.60157 0.003,1.38007 1.03258,2.8564 0.17969,4.16015 -0.62493,0.91937 -2.05595,0.59618 -2.54297,-0.30078 -0.69631,-0.88319 -0.48712,-2.0212 -0.47852,-3.05273 -0.11502,-2.02128 -0.6405,-4.00537 -0.57226,-6.04102 -0.0431,-1.99894 0.0495,-4.04505 -0.55078,-5.97851 0.37284,-2.82149 -0.0177,-5.67719 0.27929,-8.50391 0.13087,-3.98254 0.60409,-7.93834 1.09571,-11.89062 -0.89585,-0.20143 -1.77004,-0.36946 -2.70899,-0.6543 -1.858181,-0.56366 -3.836068,-0.96656 -5.499997,-1.22266 -0.04474,2.60155 -0.115467,5.20249 -0.265625,7.80078 -0.05721,3.7123 0.05024,7.43315 -0.234375,11.13672 0.131434,2.86569 0.04511,5.73414 -0.07422,8.59766 -0.07283,5.09939 -0.333616,10.20352 -0.0957,15.30078 0.364205,2.75614 0.737638,5.51754 1.257813,8.24805 1.565074,6.90293 4.481284,13.43618 7.992184,19.55664 1.78543,3.05601 3.92691,5.89345 6.28906,8.52343 2.14075,2.75472 4.79186,5.05714 7.42774,7.32032 2.65636,2.14029 5.47096,4.10289 8.52734,5.63086 9.16994,5.17921 19.71413,7.79072 30.22852,7.79882 4.58209,0.11852 9.15725,-0.46584 13.63281,-1.41406 1.04915,-0.23732 2.0873,-0.52262 3.12891,-0.79492 -0.012,-0.004 -0.0251,-0.004 -0.0371,-0.008 -3.49739,-1.0498 -5.84099,-2.92841 -5.11719,-4.09961 0.3014,-0.4877 3.46871,-0.88672 7.03711,-0.88672 5.67632,0 7.38983,-0.49498 13.6914,-3.95508 7.1389,-3.91979 12.61583,-7.69505 9.70313,-6.68945 -0.825,0.2848 -5.1,2.09027 -9.5,4.01367 -10.92958,4.7735 -19.08358,6.37369 -24.41797,4.77539 -2.939,-0.8805 -4.08203,-1.76294 -4.08203,-3.14844 0,-1.89993 1.40238,-3.03668 5.77539,-4.26172 -0.65428,-0.0184 -1.30885,-0.0489 -1.96289,-0.0996 -9.49523,-0.66282 -18.76912,-5.34817 -24.49609,-13.02344 -1.25375,-1.7577 -3.16522,-2.83883 -5.01172,-3.86133 -3.2599,-2.15611 -6.00061,-5.00642 -8.48242,-8.00195 -2.86663,-3.67076 -4.43113,-8.14396 -5.63086,-12.58985 -0.86402,-3.43425 -1.14502,-6.99575 -0.99219,-10.52734 -0.16816,-2.45732 -0.0538,-4.92862 0.41992,-7.34766 0.59471,-3.91995 1.56894,-7.78901 3.06641,-11.46484 0.62429,-1.89593 1.34608,-3.76283 2.37304,-5.48047 1.32081,-2.44202 2.48814,-4.97271 3.9375,-7.3418 2.41153,-3.61312 6.13066,-6.43161 10.3711,-7.47851 2.81497,-0.61016 5.70704,-0.28871 8.55468,-0.18164 1.0613,0.42159 2.32801,-0.32317 2.42969,-1.46875 0.23428,-1.14991 -0.63836,-2.05308 -0.97656,-3.07617 -5.97823,-13.64241 -13.51228,-26.76481 -23.56641,-37.83008 -2.09496,-2.20912 -4.43172,-4.3135 -7.29492,-5.45899 -0.32473,-0.0714 -0.64864,-0.11317 -0.96875,-0.1289 z m -1.73633,28.98047 c -0.16172,0.18358 1.21641,1.8531 3.69141,4.40625 6.01218,6.20209 7.89932,7.76492 5.41992,4.49023 -2.924,-3.8619 -5.56543,-6.54771 -8.41992,-8.5625 -0.4125,-0.29119 -0.63751,-0.39518 -0.69141,-0.33398 z m 64.48047,0.79101 c -1.37458,0.0917 0.44439,2.04152 1.27344,2.54883 0.84897,0.46849 1.65945,0.95683 2.37695,1.64648 9.53545,7.90251 18.07803,17.29837 23.6543,28.43946 5.48393,10.89582 7.20718,23.7866 4.08594,35.63672 -0.52434,2.16181 -1.20669,4.28913 -1.99024,6.38085 2.08319,0.63395 3.72495,1.09087 3.8086,0.99024 0.1311,-0.1576 2.1839,-3.88711 4.5625,-8.28711 0.80968,-1.49779 1.74241,-3.10215 2.67968,-4.70508 0.33777,-5.64875 -0.25857,-11.34833 -1.16992,-16.92187 -0.518,-2.57499 -1.33609,-5.07831 -2.05469,-7.59961 -4.05624,-10.38511 -10.2243,-20.17371 -18.92382,-27.2793 -2.0855,-1.70437 -4.20527,-3.38556 -6.5293,-4.75391 -1.42928,-0.99254 -2.90348,-1.93141 -4.51172,-2.60546 -1.99869,-1.05061 -5.29585,-2.3794 -7.26172,-3.49024 z" />
      <path
         id="path8048"
         style="fill:#68a043;fill-opacity:1;stroke-width:0.387237"
         d="m 121.12305,780.21574 c -0.96619,0.0116 -1.93309,0.0467 -2.89453,0.12305 l -0.10547,0.0254 -0.10547,0.0332 c -0.42315,0.82005 0.36836,1.57816 1.09375,1.83203 0.83403,0.31674 1.69014,0.5842 2.41211,1.13281 2.31426,1.58831 4.55778,3.31615 6.43359,5.41797 2.32698,2.50602 4.1724,5.3958 5.98438,8.28125 4.94502,7.74296 9.52795,15.73109 13.49023,24.02344 1.01252,2.21855 1.88401,4.50193 3.01758,6.66406 1.21559,1.45451 3.26465,1.31291 4.9668,1.55664 9.01733,1.49933 17.72976,5.13956 24.89257,10.85743 2.99264,2.42095 5.79725,5.13146 8.02539,8.2832 4.28682,6.20426 6.19874,13.96937 5.46094,21.45898 -0.24834,1.74543 -0.29354,3.52852 -0.8418,5.21875 -0.5257,1.81203 -1.26769,3.54352 -2.09765,5.23438 3.43357,0.51897 6.7259,1.13601 9.67773,1.80664 0.51558,-1.71337 0.9647,-3.44614 1.45117,-5.16797 0.59415,-2.28272 1.12174,-4.58388 1.51563,-6.91016 0.89596,-1.62725 -0.34104,-3.73389 0.92383,-5.23047 0.21605,-0.25997 0.52394,-0.42432 0.83008,-0.55468 h 0.002 c 0.84648,-0.19582 1.43809,0.64902 1.47656,1.40429 0.10416,0.99564 -0.13067,1.98459 -0.16015,2.98047 -0.36508,3.90095 -1.32772,7.71224 -2.41211,11.4668 -0.2655,0.9019 -0.50687,1.81474 -0.78125,2.7168 0.99858,0.26751 2.03239,0.53359 2.85742,0.81054 1.81828,0.61039 3.40519,1.10102 4.73242,1.49219 4.99601,-14.04881 4.18104,-30.16431 -2.5957,-43.49219 -6.10644,-12.42205 -15.75943,-22.87591 -26.95899,-30.90234 -8.65007,-6.16047 -18.29787,-10.68148 -27.50586,-15.91211 -2.51263,-1.22187 -4.8869,-2.70646 -7.36718,-3.99023 -4.18445,-2.30486 -8.33543,-4.67245 -12.51954,-6.97657 -3.1721,-1.59332 -6.45922,-3.1489 -10.00195,-3.66406 -0.96478,-0.0176 -1.9303,-0.0311 -2.89648,-0.0195 z m 21.5039,22.32617 c 2.36691,0.073 4.54607,1.34344 6.82227,1.91211 10.2281,3.6207 19.65056,9.16086 28.60351,15.22266 4.68874,3.24459 9.34336,6.7033 12.91016,11.20508 0.46474,1.18261 -1.165,1.91879 -2.10352,1.51171 -1.17326,-0.50877 -1.70773,-1.77768 -2.70703,-2.51562 -6.01343,-5.7648 -13.02832,-10.34747 -20.13867,-14.63086 -3.97226,-2.3401 -8.14493,-4.32182 -12.41992,-6.04102 -3.39807,-1.5627 -6.94843,-2.74939 -10.50195,-3.89843 -0.77289,-0.40417 -2.15845,-0.43693 -2.26953,-1.5 -0.0215,-0.5098 0.2776,-1.05318 0.77734,-1.21875 0.34661,-0.044 0.68921,-0.0573 1.02734,-0.0469 z m 41.23633,88.80469 c -0.30445,0.0165 -0.67543,0.0814 -1.00391,0.11719 -2.84269,2.78608 -6.18864,5.0066 -9.60156,7.03515 -1.59623,0.93764 -3.2514,1.77979 -4.95312,2.50782 5.54874,-0.19237 8.54611,-0.89495 15.42578,-3.29102 l 9.68945,-3.375 -3.66406,-1.73828 c -2.09617,-0.99465 -3.72652,-1.37317 -5.89258,-1.25586 z m -46.04687,9.33789 c -0.29114,0.0192 -0.42845,0.18756 -0.043,0.625 2.27368,3.75464 5.52817,6.87345 9.2832,9.13086 5.08453,3.30686 10.93782,5.33415 16.94922,6.05078 1.63217,-0.59818 3.91646,-1.18032 7.05273,-1.84766 8.20253,-1.74529 17.24598,-4.80649 21.32618,-7.21679 5.93549,-3.5061 2.77203,-3.1975 -8.25977,0.80859 -9.28192,3.3706 -12.92386,4.1754 -20.81055,4.5957 -7.65768,0.4081 -10.1936,0.18138 -12.75,-1.14062 -3.87992,-2.00632 -4.03318,-4.46044 -0.54883,-7.60156 -3.90201,-0.30142 -7.72456,-1.39605 -11.22851,-3.12891 -0.23433,-0.16419 -0.67957,-0.29459 -0.9707,-0.27539 z" />
      <path
         id="path8050"
         style="fill:#062627;fill-opacity:1;stroke-width:0.387237"
         d="m 103.03711,764.8759 c -1.86726,-0.0853 -3.762929,0.38685 -5.335938,1.41015 -3.259106,2.03815 -5.148729,6.4814 -3.5625,10.12696 0.514142,1.32817 2.522415,1.31394 3.201172,0.13671 0.937457,-1.0086 1.097111,-2.44376 1.101562,-3.75195 0.705296,-2.65606 4.226514,-3.77629 6.517574,-2.45703 1.50087,0.4758 3.49322,0.49311 4.57813,-0.80078 0.54782,-1.13778 -0.49472,-2.129 -1.33984,-2.73242 -1.45504,-1.20356 -3.2929,-1.84631 -5.16016,-1.93164 z m 16.08398,11.60742 c -5.11077,0.0717 -10.18274,1.36407 -14.51757,4.1582 -6.313971,4.03105 -10.407001,10.84758 -12.128911,18.05078 1.857636,-0.33014 3.283374,-0.50833 4.958985,-0.77539 0.646948,-2.09826 1.536605,-4.11634 2.736326,-5.98633 2.05014,-3.25797 4.86547,-6.04034 8.18945,-7.99023 5.52975,-3.23595 12.34106,-3.75397 18.47852,-2.17383 2.55677,0.58897 5.06549,1.54005 7.38281,2.89063 2.30203,1.09613 4.39913,2.56056 6.49805,3.98632 1.75833,0.91053 3.60578,1.65503 5.26953,2.73829 2.77889,1.40846 5.52163,2.89548 8.27539,4.34765 2.08246,1.28894 4.1829,2.56768 6.43945,3.5332 2.9736,1.61203 5.73943,3.60391 8.85157,4.95508 2.86072,1.61011 5.58772,3.46856 8.60156,4.79297 8.23676,4.42426 16.76363,8.56978 23.55859,15.12695 10.93214,10.29649 17.8469,24.65863 18.98047,39.63868 0.25125,3.34688 0.20088,6.70178 -0.10742,10.03515 4.5e-4,-7.8e-4 0.002,-10e-4 0.002,-0.002 7.4e-4,-10e-4 0.001,-0.003 0.002,-0.004 1.48395,-2.57076 3.05236,-5.19182 4.69336,-7.80078 0.0123,-0.0196 0.0228,-0.039 0.0352,-0.0586 0.007,-0.0105 0.0129,-0.0207 0.0195,-0.0312 -0.4048,-11.91336 -4.03499,-23.73923 -10.85156,-33.55274 -6.71687,-9.80159 -16.06737,-17.65129 -26.56641,-23.14648 -13.81524,-7.63633 -27.54899,-15.428 -41.48632,-22.84961 -5.85709,-3.32215 -11.61024,-7.11073 -18.22461,-8.75391 -2.943,-0.77502 -6.02337,-1.17193 -9.08985,-1.1289 z m 24.19922,25.39844 c -0.83037,-0.0867 -1.64721,-0.0152 -2.39062,0.49023 -0.74532,0.57282 -1.03038,2.12561 0.0937,2.45703 3.71369,1.95558 7.89974,2.77321 11.63476,4.68164 5.88682,2.1607 11.47006,5.24146 16.78711,8.59766 5.69193,3.31661 10.8837,7.43001 15.8125,11.7832 1.22447,1.08324 2.40702,2.21189 3.59375,3.33594 1.04979,0.3691 2.72977,-0.14543 2.62696,-1.47461 -0.73279,-2.33655 -2.73064,-3.97657 -4.43165,-5.63086 -4.6958,-4.77286 -10.4326,-8.30529 -15.93164,-12.05469 -3.70012,-2.36382 -7.74316,-4.11004 -11.5332,-6.3164 -2.10393,-1.10573 -4.41605,-1.74631 -6.60547,-2.66211 -2.39955,-0.90293 -4.82901,-1.74333 -7.1875,-2.7461 -0.79545,-0.13013 -1.63837,-0.37425 -2.46875,-0.46093 z m 3.01367,26.00585 c -2.88955,-5.2e-4 -5.76614,0.31179 -8.55078,1.14844 -1.10341,0.36645 -2.15698,0.8754 -3.14648,1.48438 -4.51632,2.83758 -7.29094,7.6026 -9.5332,12.29687 -4.19873,8.67646 -6.3468,18.36977 -6.03711,28.00977 0.35458,3.83288 0.84714,7.71206 2.37304,11.28125 1.40467,3.52802 3.16923,6.94265 5.41992,10.00781 2.13018,2.7139 4.83471,4.91747 7.60157,6.95117 3.91725,2.80222 8.48966,4.71696 13.25781,5.43164 0.58139,0.0487 1.16672,0.0604 1.75,0.0996 0.30304,-0.30146 0.60824,-0.60311 0.98242,-0.91797 0.71087,-0.59813 1.30044,-1.05745 1.92969,-1.41211 10e-4,-7e-4 0.003,-10e-4 0.004,-0.002 0.24152,-0.13582 0.503,-0.24321 0.76562,-0.34961 0.042,-0.0167 0.0786,-0.0404 0.12109,-0.0566 0.0437,-0.0167 0.0804,-0.0406 0.125,-0.0566 5.8e-4,-2.1e-4 0.001,2.1e-4 0.002,0 0.36275,-0.12952 0.75729,-0.2372 1.20508,-0.32422 1.77708,-0.34535 4.39232,-0.38867 9.17968,-0.38867 2.28616,0 4.13577,-0.0263 5.77149,-0.11133 0.004,-1.8e-4 0.006,1.9e-4 0.01,0 l 0.002,-0.002 c 1.88147,-0.82359 3.71912,-1.74872 5.48828,-2.78711 2.2769,-1.21608 4.55705,-2.52044 6.33984,-4.41992 0.93204,-0.75292 1.80656,-1.57262 2.65234,-2.41992 -0.003,1.4e-4 -0.006,-1.5e-4 -0.01,0 -0.001,4e-5 -0.003,-5e-5 -0.004,0 -0.77259,0.032 -1.59732,0.11585 -2.55078,0.27343 -1.90281,0.31453 -3.65283,0.50861 -5.33008,0.65235 -0.004,3.2e-4 -0.008,-3.3e-4 -0.0117,0 -0.004,3.2e-4 -0.008,0.002 -0.0117,0.002 -0.65496,0.0579 -1.31814,0.12693 -1.93555,0.16016 -0.12911,0.0784 -0.24655,0.17354 -0.37695,0.25 -3.16587,1.96601 -6.49001,3.61728 -9.95899,4.77539 -7.80682,2.61943 -16.75884,2.61089 -24.17578,-1.21485 -5.23047,-2.70353 -9.40212,-7.23743 -11.98633,-12.55273 -4.09541,-8.40382 -4.36891,-18.25851 -2.13476,-27.22266 1.48738,-5.9444 4.02956,-11.61484 7.33007,-16.76953 1.3321,-1.93247 2.77856,-3.88423 4.9004,-5.00586 4.27797,-2.32291 9.3762,-2.14199 14.02343,-1.27344 8.27006,1.23541 16.69727,3.37777 23.57227,8.34571 4.04962,2.86623 7.60836,6.68299 10.03906,11.03906 3.2698,5.73236 4.49169,12.75428 3.05859,19.26367 -0.55527,2.63557 -1.49122,5.1789 -2.69335,7.58985 1.78205,0.21593 3.58984,0.46446 5.3789,0.73828 1.78933,-4.32804 2.83479,-8.96915 3.11524,-13.63672 0.21039,-4.8314 -0.39918,-9.7943 -2.38868,-14.23633 -1.47595,-2.90738 -3.61151,-5.40825 -5.59765,-7.96875 -1.93961,-2.0832 -4.23545,-3.80495 -6.24024,-5.81445 -4.24307,-2.80752 -8.7281,-5.26547 -13.48242,-7.09375 -3.70323,-1.55888 -7.62205,-2.56661 -11.61133,-3.03321 -2.83869,-0.41597 -5.74127,-0.72991 -8.63086,-0.73047 z m -53.12109,4.21485 c -0.332397,-0.002 -0.960275,0.19314 -1.673828,0.44922 -0.0064,0.002 -0.01115,0.004 -0.01758,0.006 -0.157754,0.0577 -0.28151,0.0908 -0.453125,0.1582 -0.208266,7.646 -0.437354,15.2922 -0.466797,22.94141 -0.04714,7.59538 -0.05779,15.21031 0.533203,22.78906 1.102785,10.06528 4.819891,19.75687 10.207037,28.29492 8.53573,13.33752 22.16794,23.37337 37.5332,27.30469 14.76339,3.84378 30.67903,2.37725 44.77734,-3.31446 -0.002,3.2e-4 -0.005,-3.1e-4 -0.008,0 -0.73817,0.0947 -1.44945,0.14126 -2.15625,0.1836 -0.37347,0.0233 -0.7479,0.0475 -1.11328,0.0566 -0.5879,0.0127 -1.16893,0.009 -1.73633,-0.0156 -0.003,-1.1e-4 -0.005,1.2e-4 -0.008,0 -0.32635,-0.0129 -0.64227,-0.0458 -0.96094,-0.0742 -0.14214,-0.0118 -0.28532,-0.0215 -0.42773,-0.0332 -0.0528,-0.005 -0.10754,-0.008 -0.16016,-0.0137 -0.42708,-0.0461 -0.86124,-0.0801 -1.27734,-0.14844 -0.9392,-0.15043 -1.85782,-0.34333 -2.74414,-0.60937 -0.29888,-0.0897 -0.53168,-0.21362 -0.8125,-0.31446 -2.81323,0.68522 -5.66224,1.20498 -8.52539,1.51368 -12.53532,1.34897 -25.62329,-0.82601 -36.78125,-6.89649 -3.91632,-2.12767 -7.4354,-4.5842 -10.82618,-7.52539 -2.03655,-1.77685 -3.88205,-3.75253 -5.83789,-5.61523 -4.43872,-5.55244 -7.89059,-11.8357 -10.843748,-18.26367 -2.316011,-5.441 -3.3078,-11.27672 -3.644532,-17.16407 -1.066745,-14.44351 -0.533554,-28.91804 -0.171875,-43.38672 -0.913571,-0.15264 -1.874357,-0.32009 -2.404297,-0.32226 z m 9.875,2.05664 c -1.38247,10.35229 -1.49494,20.86424 -0.43359,31.25195 0.0964,1.91139 0.20942,4.13591 1.7539,5.49805 1.18831,0.7632 2.77022,-0.5479 2.55664,-1.85938 -0.0265,-2.07541 -0.59706,-4.10002 -0.66601,-6.17578 -0.85097,-9.28149 -0.59071,-18.75534 0.6914,-28.02148 -1.20338,-0.12848 -2.48819,-0.3595 -3.90039,-0.69336 -6.1e-4,-1.5e-4 -10e-4,1.5e-4 -0.002,0 z m 72.68359,15.09375 c -0.35632,-0.0237 -0.7154,0.0824 -0.97851,0.33984 -0.92836,1.11867 -0.10344,2.60396 0.43164,3.70313 0.93594,1.63426 2.10179,3.14505 2.75976,4.92773 1.05068,2.43816 1.67515,5.35326 1.67969,8.12305 0.0619,4.28597 -1.2251,8.5584 -3.63281,12.14648 -0.0721,0.10995 -0.15863,0.2078 -0.23242,0.31641 1.33029,0.0571 2.72311,0.13299 4.22656,0.25781 1.34875,-2.49118 2.33233,-5.17671 2.84961,-7.98242 1.42292,-7.54296 -0.66285,-15.89392 -6.14648,-21.39258 -0.24821,-0.26249 -0.60071,-0.41573 -0.95704,-0.43945 z m 29.92774,14.30664 c -0.24329,0.009 -0.48495,0.0777 -0.69336,0.20898 -1.4223,0.82877 -1.65987,2.59914 -1.72852,4.0918 -0.62823,4.83855 -1.76579,9.58537 -3.36523,14.17188 1.45973,0.32184 2.7838,0.65179 4.01953,0.99609 0.28534,-0.75539 0.57573,-1.50884 0.85352,-2.26563 1.739,-4.25885 1.97199,-8.91922 2.41992,-13.44335 0.0391,-1.20128 0.40648,-2.83902 -0.79883,-3.60352 -0.21851,-0.11254 -0.46374,-0.16488 -0.70703,-0.15625 z m -43.43945,25.66406 c -1.23059,0.48442 -2.47742,0.92026 -3.7461,1.25977 -1.73281,0.33009 -3.83392,0.48303 -4.89453,2.09961 -0.40054,0.90591 0.74518,1.46001 1.42383,1.75 1.94084,0.63342 3.92277,-0.26423 5.83203,-0.59961 1.8258,-0.40772 3.59505,-1.02082 5.29492,-1.78711 -0.57894,-0.14942 -1.09538,-0.32607 -1.53906,-0.5332 -0.008,-0.004 -0.0177,-0.006 -0.0254,-0.01 -0.44652,-0.21057 -0.82977,-0.4477 -1.12695,-0.7168 -0.50532,-0.45755 -0.90468,-0.95031 -1.21875,-1.46289 z" />
      <path
         id="path22990"
         style="fill:#ffffff;fill-opacity:1;stroke:none;stroke-width:1.30526;stroke-linecap:round;stroke-opacity:1"
         d="m 134.39731,844.63241 c -0.7216,0.46212 -1.00679,1.3167 -1.33187,2.06415 -0.84889,2.02048 -1.21938,4.20028 -1.50352,6.36138 -0.49182,4.02899 -0.54624,8.10197 -0.34639,12.15283 0.20291,3.68086 0.5887,7.36416 1.4015,10.9644 0.39141,1.63122 0.83066,3.27892 1.65139,4.75408 0.38938,0.66389 0.92699,1.36911 1.73567,1.50195 0.56337,0.0521 1.13159,-0.14931 1.6023,-0.44892 0.38049,-0.26543 0.41089,-0.7826 0.28634,-1.19103 -0.32131,-1.13 -0.78721,-2.2125 -1.19295,-3.31372 -1.18413,-3.02354 -1.9692,-6.19689 -2.38346,-9.41607 -0.45067,-3.57641 -0.63623,-7.20166 -0.31383,-10.79749 0.2011,-2.23915 0.61392,-4.51342 1.17317,-6.71282 0.37875,-1.52568 0.8797,-3.03791 0.99046,-4.61496 0.025,-0.5133 -0.0225,-1.14344 -0.5006,-1.44648 -0.39941,-0.25802 -0.90349,-0.10186 -1.26821,0.1427 z" />
      <path
         id="path25450"
         style="fill:#000000;fill-opacity:1"
         d="m 112.93873,796.07996 c -10.42569,0.4508 -26.617793,3.41513 -53.564453,9.46093 -22.33498,5.01109 -25.40483,5.73524 -24.60742,5.11914 l -0.13672,0.0391 -32.9062502,7.50195 c -1.01819998,6.09999 -1.68414998,12.00291 -1.72070998,17.39063 -0.0922,13.57358 1.80759998,18.77813 8.46288998,23.17773 3.9417002,2.6057 4.9664002,2.81358 13.3379002,2.70898 14.82908,-0.1852 30.51454,-6.32998 57.13671,-22.38476 6.7074,-4.045 12.73399,-7.00024 14.27149,-6.99024 1.4637,0.006 4.87041,0.68101 7.570313,1.5 6.04389,1.8335 11.58447,1.94678 11.60547,0.23829 0.0116,-0.9482 0.21816,-0.93064 0.85156,0.0684 0.6148,0.9696 1.73238,1.08365 4.23438,0.43555 2.67739,-0.6937 3.51798,-1.50351 3.95508,-3.8164 0.52739,-2.7906 0.5919,-2.8256 1.3164,-0.6875 0.8716,2.57249 1.52525,2.70976 5.11914,1.07226 1.4221,-0.648 2.37815,-1.72192 2.12305,-2.38672 -0.2882,-0.7482 0.20297,-1.03414 1.29687,-0.74804 0.9811,0.2565 3.13328,-0.69399 4.85938,-2.14649 l 2.90625,-2.44726 0.1543,-0.70313 c 0,0 3.49176,-2.52878 2.52148,-6.9375 -0.21865,-0.14221 -0.56165,-1.07102 -1.22266,-2.92187 -1.85479,-5.1936 -8.68052,-12.41848 -13.94921,-14.76368 -3.17974,-1.41536 -7.35982,-2.04977 -13.61524,-1.77929 z m 3.24414,13.36523 c 0.0539,-0.0612 0.27891,0.0428 0.69141,0.33399 2.85449,2.01479 5.49592,4.7006 8.41992,8.5625 2.4794,3.27469 0.59227,1.71186 -5.41992,-4.49024 -2.475,-2.55315 -3.85313,-4.22267 -3.69141,-4.40625 z m 116.7367,44.99102 c -4.2099,6.04055 -10.36808,15.54019 -14.48478,23.15549 -2.3786,4.4 -4.4314,8.1295 -4.5625,8.2871 -0.131,0.1576 -3.5678,-0.8314 -7.6367,-2.1973 -9.6765,-3.2483 -32.60417,-6.0052 -37.95506,-4.5644 -6.4633,1.7404 -8.97483,7.7926 -4.80274,11.5703 2.2741,2.0592 9.07778,2.4129 18.00391,0.9375 3.51449,-0.5809 5.47849,-0.3477 8.27339,0.9785 l 3.6641,1.7383 -9.68944,3.375 c -8.56804,2.9841 -10.87908,3.375 -19.94727,3.375 -9.57479,0 -10.45963,0.1729 -13.33203,2.5898 -3.9717,3.342 -3.93602,5.9159 0.11328,8.0098 2.5564,1.322 5.09231,1.5487 12.75,1.1406 7.88669,-0.4203 11.52862,-1.2251 20.81055,-4.5957 11.03181,-4.0061 14.19531,-4.3147 8.25981,-0.8086 -4.0802,2.4103 -13.12369,5.4696 -21.32622,7.2149 -8.37489,1.782 -10.68359,2.959 -10.68359,5.4453 0,1.3855 1.14303,2.266 4.08203,3.1465 5.33439,1.5983 13.48839,0 24.41798,-4.7735 4.4,-1.9234 8.675,-3.7289 9.5,-4.0137 2.9127,-1.0056 -2.5642,2.7697 -9.7031,6.6895 -6.30158,3.4601 -8.01511,3.9551 -13.69144,3.9551 -3.5684,0 -6.73571,0.399 -7.03711,0.8867 -0.7238,1.1712 1.61979,3.0479 5.11718,4.0977 7.98094,2.3956 17.87507,0.2808 32.20317,-6.8809 26.9919,-13.4916 52.4393,-32.6234 70.8789,-53.28907 3.0991,-3.47326 5.7924,-6.73992 8.2011,-9.85156 z"
         sodipodi:nodetypes="csccccscsccsscscsccccccssccscssscsssssscccscssscsscccsssssscc" />
    </g>
    <path
       style="fill:#000000;stroke-width:0"
       id="path8028"
       d="" />
    <g
       id="g6"
       transform="translate(12.847807,9.5351956)">
      <g
         id="g4"
         transform="matrix(1.3250765,0,0,1.3250765,-11.93874,-6.5690978)">
        <g
           id="g3"
           transform="translate(-23.195856,-13.827894)">
          <path
             id="path1-9"
             style="fill:#fdf6e3;fill-opacity:1;stroke-width:0;stroke-linecap:round"
             d="m 77.592179,19.247921 c -1.7992,0.02739 -3.59145,0.403364 -5.2437,1.118034 -2.41124,0.995593 -4.5903,2.605131 -6.1259,4.726366 -1.38909,1.895344 -2.24864,4.145932 -2.6435,6.453557 -0.0855,0.481245 -0.0989,0.970487 -0.12867,1.456242 -0.0934,0.351461 -0.48311,0.48416 -0.76236,0.660341 -1.05971,0.632279 -1.95163,1.504432 -2.79692,2.393991 -1.04883,1.129655 -2.01251,2.360703 -2.67679,3.759539 -0.84183,1.652336 -1.35624,3.468696 -1.49529,5.318469 -0.20397,2.40689 0.0541,4.8624 0.85707,7.14579 0.82572,2.39269 2.23214,4.57746 4.05847,6.32912 0.34933,0.34932 0.69865,0.69865 1.04797,1.04797 -0.4668,0.94939 -1.02382,1.86089 -1.37304,2.86339 -0.34606,1.05599 -0.27511,2.18404 -0.25792,3.27858 0.0211,0.93707 0.19703,1.88 0.62376,2.72103 0.67244,1.43057 1.76918,2.62182 2.9861,3.61137 0.81425,0.65586 1.72677,1.20167 2.72876,1.51496 0.20225,0.0729 0.4045,0.14573 0.60674,0.21859 0.20124,1.26589 0.35755,2.54931 0.78573,3.76446 0.61423,1.84694 1.67683,3.54034 3.0783,4.89172 1.04841,1.06651 2.2973,1.95894 3.71537,2.45931 1.30345,0.50229 2.73603,0.51415 4.10868,0.3834 1.20635,-0.1311 2.42685,-0.42314 3.44979,-1.10279 1.63945,-1.05329 2.92457,-2.6 3.83161,-4.31257 0.58409,-1.10937 0.98135,-2.31974 1.12013,-3.56775 0.0444,-0.11395 -0.0205,-0.43863 0.17633,-0.28655 0.90715,0.39809 1.83997,0.76225 2.82526,0.90886 1.93885,0.3298 3.99381,-0.0798 5.64453,-1.15339 1.96656,-1.25192 3.32661,-3.2867 4.08018,-5.46396 0.680391,-1.98112 0.744281,-4.12835 0.468671,-6.19035 -0.288251,-2.08238 -0.960631,-4.13705 -2.145311,-5.88661 -0.11302,-0.17809 -0.22605,-0.35618 -0.33908,-0.53427 0.81718,-0.76888 1.67784,-1.50685 2.334321,-2.42549 1.76658,-2.39138 2.60723,-5.40659 2.52482,-8.36455 -0.0542,-1.95516 -0.56167,-3.897673 -1.50293,-5.614434 -1.252631,-2.311168 -3.152531,-4.302731 -5.493141,-5.522893 -1.08644,-0.567219 -2.28223,-0.923178 -3.50512,-1.019511 -0.16312,-0.0203 -0.39435,0.01304 -0.28865,-0.218965 0.11201,-0.764395 0.18304,-1.538209 0.11582,-2.310423 -0.1357,-1.751922 -0.55571,-3.487033 -1.26324,-5.096547 -0.64727,-1.416002 -1.65122,-2.634835 -2.72092,-3.751976 -1.02948,-1.055755 -2.18646,-2.007365 -3.51686,-2.659152 -2.12199,-1.071611 -4.51643,-1.579673 -6.88907,-1.542908 z" />
          <path
             id="path2"
             style="fill:#fdf6e3;fill-opacity:1;stroke-width:0;stroke-linecap:round"
             d="m 95.443809,78.52182 c -1.80034,0.0752 -3.54728,1.18565 -4.29432,2.83859 -0.51285,1.1302 -0.41855,2.50779 0.25458,3.55196 0.64202,1.04473 1.75896,1.70022 2.91714,2.02545 1.22117,0.36729 2.59278,0.27081 3.7102,-0.36352 1.1236,-0.63276 2.106991,-1.66344 2.386751,-2.9542 0.27102,-1.1759 -0.14625,-2.42747 -0.926001,-3.32247 -0.979,-1.18071 -2.51605,-1.8566 -4.04835,-1.77581 z" />
          <path
             id="path3"
             style="fill:#fdf6e3;fill-opacity:1;stroke-width:0;stroke-linecap:round"
             d="m 104.18281,85.29918 c -1.54966,0.0331 -3.08796,1.06195 -3.54242,2.57246 -0.28842,0.92145 -0.0337,1.96355 0.60087,2.68234 0.512,0.60025 1.21385,1.02668 1.95659,1.27866 0.54744,0.18146 1.14019,0.23615 1.703,0.0916 0.54698,-0.12984 1.12635,-0.24264 1.56722,-0.61815 0.65494,-0.51648 1.22029,-1.17946 1.53687,-1.95709 0.24765,-0.64693 0.008,-1.35692 -0.2868,-1.94492 -0.43796,-0.84437 -1.15742,-1.5773 -2.07882,-1.87154 -0.46573,-0.16674 -0.96198,-0.24683 -1.45651,-0.23333 z" />
          <path
             style="color:#000000;fill:#657b83;fill-opacity:1;-inkscape-stroke:none"
             d="m 55.425619,49.76367 c -0.23434,-1.33835 -0.31127,-2.71502 -0.21736,-4.09882 0.37018,-5.454653 3.36277,-10.233062 7.89963,-12.685231 0.0639,-5.224101 3.073,-10.038856 7.87629,-12.510127 4.8744,-2.507854 10.75502,-2.196778 15.2417,0.812895 4.38344,2.940413 6.66742,7.987 6.04514,13.131458 4.92629,0.636265 9.089341,4.465035 10.432041,9.693275 1.3441,5.23373 -0.43966,10.67807 -4.421721,13.73225 3.102301,4.37539 3.547571,10.47805 0.96856,14.9292 -2.54769,4.39709 -7.42946,5.89989 -11.79637,3.78519 -0.86911,5.80668 -5.44579,9.91465 -10.79596,9.35233 -5.41316,-0.56894 -9.65015,-5.65453 -9.96699,-11.69552 -3.11898,-0.98018 -5.5664,-3.15261 -6.62848,-5.98543 -1.05044,-2.80175 -0.60472,-5.91332 1.12803,-8.51154 -3.03393,-2.50024 -5.08176,-6.05053 -5.76451,-9.94993 z m 0.78896,-0.1373 c 0.67113,3.82644 2.69285,7.32516 5.71535,9.70478 l 0.29982,0.23667 -0.22267,0.31116 c -1.75785,2.45521 -2.19019,5.41463 -1.19638,8.06536 0.99382,2.65073 3.31727,4.71527 6.33562,5.59256 l 0.27918,0.0816 0.008,0.29049 c 0.18062,5.8086 4.26578,10.67141 9.3079,11.20135 5.04212,0.52995 9.41728,-3.39793 10.0501,-9.09964 l 0.0653,-0.59395 0.52391,0.28872 c 4.13228,2.26446 8.72527,0.89284 11.17748,-3.33944 2.452201,-4.23229 2.008551,-10.23095 -1.08334,-14.35593 l -0.24484,-0.32625 0.33308,-0.24014 c 3.894701,-2.79564 5.664151,-8.07704 4.364471,-13.137805 -1.29971,-5.060761 -5.366621,-8.743895 -10.089491,-9.192393 l -0.42041,-0.03968 0.0622,-0.41662 c 0.73492,-4.965182 -1.46036,-9.867014 -5.69944,-12.71059 -4.23908,-2.843578 -9.81314,-3.141477 -14.43066,-0.765784 -4.61752,2.375693 -7.49545,7.016233 -7.47202,12.020524 l -6.3e-4,0.244396 -0.21547,0.113207 c -4.38798,2.281095 -7.29664,6.887114 -7.65458,12.161425 -0.0895,1.31857 -0.0161,2.6305 0.20762,3.90598 z"
             id="path6280" />
          <path
             style="color:#000000;fill:#657b83;fill-opacity:1;-inkscape-stroke:none"
             d="m 95.654269,78.07998 c -2.89701,0 -5.29688,2.10706 -5.29688,4.75586 0,2.6488 2.39987,4.75586 5.29688,4.75586 2.89701,0 5.298821,-2.10706 5.298821,-4.75586 0,-2.6488 -2.401811,-4.75586 -5.298821,-4.75586 z m 0,0.79883 c 2.51244,0 4.498041,1.79431 4.498041,3.95703 0,2.16272 -1.985601,3.95508 -4.498041,3.95508 -2.51245,0 -4.4961,-1.79236 -4.4961,-3.95508 0,-2.16272 1.98365,-3.95703 4.4961,-3.95703 z"
             id="path6930" />
          <path
             style="color:#000000;fill:#657b83;fill-opacity:1;-inkscape-stroke:none"
             d="m 104.28213,84.85802 c -2.29364,0 -4.20313,1.67108 -4.20313,3.7832 0,2.11213 1.90949,3.78516 4.20313,3.78516 2.29364,0 4.20508,-1.67303 4.20508,-3.78516 0,-2.11212 -1.91144,-3.7832 -4.20508,-3.7832 z m 0,0.79883 c 1.90908,0 3.40625,1.35833 3.40625,2.98437 0,1.62605 -1.49717,2.98438 -3.40625,2.98438 -1.90908,0 -3.4043,-1.35833 -3.4043,-2.98438 0,-1.62604 1.49522,-2.98437 3.4043,-2.98437 z"
             id="ellipse7012" />
        </g>
        <g
           id="g23972"
           transform="matrix(0.18630787,0,0,0.18630787,35.643235,6.1373392)">
          <path
             style="fill:#1c484b;fill-opacity:1;stroke-width:0"
             d="m 102.41047,265.96419 c -4.096519,-0.64062 -8.287569,-0.87236 -12.248289,-2.19067 -1.51636,-0.282 -2.96072,-0.74052 -4.36592,-1.37815 -11.23133,-3.4903 -21.15766,-10.41108 -29.24354,-18.85527 -1.16194,-1.15354 -2.32246,-2.31063 -3.40789,-3.53735 0.16802,-1.17841 -1.43247,-1.67627 -1.92385,-2.62223 -0.72755,-1.13726 -1.48063,-2.23824 -2.17174,-3.38541 -0.92996,-0.96464 -1.15267,-2.3361 -2.07923,-3.30651 -0.61877,-0.93811 -0.83856,-2.06919 -1.40513,-3.0445 -0.46553,-1.0475 -1.12764,-2.001 -1.64294,-3.01218 -0.22092,-1.51898 -1.11759,-2.76108 -1.57547,-4.15814 -0.44043,-1.33049 -0.97067,-2.62703 -1.23057,-4.00901 -0.38018,-1.40548 -0.86582,-2.81204 -0.87175,-4.28442 -0.58225,-1.61299 -0.73561,-3.32899 -0.97108,-5.01046 -0.50031,-1.89575 -0.30752,-3.86927 -0.44284,-5.80703 -0.17049,-5.08399 -0.21724,-10.20905 0.68516,-15.23477 0.50158,-2.94286 1.16694,-5.86881 2.11653,-8.69947 0.60908,-1.55452 0.86102,-3.22701 1.53453,-4.76393 1.16293,-2.90952 2.58102,-5.71369 4.23372,-8.37555 0.95612,-1.81003 1.83061,-3.66677 2.972,-5.37388 1.86414,-2.91485 3.45546,-5.99301 5.35525,-8.88643 1.67083,-3.15605 3.47673,-6.24156 5.41886,-9.23855 0.69396,-1.34363 1.5046,-2.63136 2.46888,-3.79457 1.36592,-2.5099 2.70928,-5.03628 4.31434,-7.40593 1.77215,-2.59618 3.12659,-5.46696 5.07802,-7.94058 0.55571,-1.13397 1.02846,-2.3055 1.7163,-3.3722 1.72492,-3.1551 3.44878,-6.35403 5.86769,-9.04549 2.25829,-2.74069 4.67133,-5.39994 7.55069,-7.50389 1.68495,-0.63384 2.96452,-2.013242 4.67766,-2.607271 1.72865,-0.852645 3.61216,-1.282669 5.36645,-2.071488 1.28729,-0.116179 2.165439,-1.12475 3.329539,-1.51729 1.09758,1.19598 2.5623,-0.366469 3.00313,-1.430102 1.77528,-2.433002 6.10647,-2.226854 7.50545,0.486864 0.76424,1.392486 2.40058,1.409515 3.73702,1.758923 1.57493,0.537811 3.14483,1.135648 4.78931,1.403771 1.74608,0.773285 3.54256,1.436227 5.18775,2.417473 2.32628,1.26826 4.4857,2.85049 6.29519,4.79199 2.64073,2.55496 5.12152,5.32777 7.03038,8.47898 1.19641,2.13873 2.1258,4.42751 3.49447,6.46729 0.81009,1.34135 1.67097,2.64881 2.51652,3.96732 0.42062,1.39633 1.59973,2.29643 2.17487,3.64336 0.95975,1.97752 2.4741,3.63787 3.32302,5.67526 0.94575,0.95076 1.23097,2.33394 2.06567,3.37018 0.76968,1.25852 1.55755,2.49479 2.35125,3.72779 0.61562,1.26564 1.54406,2.33703 2.16982,3.60279 0.85296,1.18192 1.22907,2.58534 2.26044,3.67172 0.89803,2.03543 2.21739,3.83777 3.27316,5.7885 1.02872,1.641 2.10042,3.25301 3.05239,4.94196 1.12294,1.84901 2.13403,3.76827 3.20294,5.64357 1.60404,2.03282 2.4251,4.51542 3.49317,6.8416 1.84751,4.32195 3.36614,8.8069 4.12851,13.4555 2.15014,11.71911 1.77381,24.06789 -2.25092,35.35536 -2.50153,7.18797 -6.27299,13.90255 -10.90031,19.93206 -1.10618,1.69752 -2.72856,2.96273 -4.09325,4.43911 -3.3658,3.38054 -6.80539,6.74818 -10.84658,9.3249 -9.87116,6.57674 -21.23284,10.93057 -32.98308,12.5696 -4.33432,0.56933 -8.74579,0.68769 -13.0857,0.10685 z m 13.93472,-9.19699 c 5.40464,-0.80492 10.73066,-2.20006 15.82802,-4.1643 1.36439,-0.92113 2.89286,-1.45536 4.38457,-2.09972 2.14602,-1.13369 4.17901,-2.47067 6.27885,-3.68259 2.82434,-1.94542 5.40723,-4.21856 7.9541,-6.50786 9.65917,-9.04249 16.14007,-21.42727 17.93936,-34.54561 1.7191,-12.29605 -0.72857,-25.05546 -6.53119,-36.00271 -0.98001,-1.91904 -2.11484,-3.75495 -3.37809,-5.49751 -2.5368,-4.49627 -5.21392,-8.91347 -7.83777,-13.36032 -5.08386,-8.54932 -10.24441,-17.05329 -15.48437,-25.50751 -2.02043,-3.25776 -3.60278,-6.78689 -5.95522,-9.83362 -3.83446,-5.17658 -9.17748,-9.53998 -15.55408,-11.02475 -5.42516,-1.28164 -11.23575,-0.48933 -16.246689,1.89793 -1.84491,0.74351 -3.661,1.6325 -5.14627,2.97708 -4.36459,3.11767 -7.27828,7.78079 -9.82572,12.40332 -3.64389,6.87995 -8.05429,13.31197 -11.98372,20.02632 -4.05072,6.71078 -8.1372,13.40085 -12.04222,20.19803 -2.70722,4.38707 -5.59799,8.71235 -7.45896,13.54962 -5.49331,13.50036 -5.39049,29.03323 -0.26724,42.62815 4.26904,11.48011 12.07871,21.68565 22.3134,28.46908 10.05545,6.82018 22.15642,10.62357 34.320439,10.58009 2.90437,0.013 5.80875,-0.16239 8.6928,-0.50312 z"
             id="path8042-1" />
          <path
             id="path8038-8"
             style="fill:#d35821;fill-opacity:1;stroke-width:0"
             d="m 108.27151,160.42773 c -4.58646,0.2015 -8.774959,2.49729 -12.418289,5.13104 -5.91286,4.3903 -10.81211,10.12324 -14.37252,16.56076 -2.57669,4.77877 -4.53222,10.16214 -4.135,15.66945 0.18551,3.41773 2.54755,6.23259 5.07819,8.31863 6.15384,5.04849 14.91475,6.81044 22.488239,4.26348 5.98896,-1.97398 10.80495,-6.74308 13.3881,-12.43315 2.70429,-5.78427 3.27811,-12.3551 2.52956,-18.64057 -0.40934,-3.87417 -0.21239,-7.96127 -1.29912,-11.721 -0.5989,-2.15998 -2.43932,-3.92543 -4.40479,-5.02737 -1.96701,-1.22082 -4.18097,-2.21021 -6.54539,-2.12242 -0.10279,0.003 -0.20642,-0.005 -0.30898,0.001 z m -6.91992,7.10157 c 0.66546,0.12982 0.27687,1.05112 0.0581,1.4273 -0.8467,1.36543 -2.290159,2.20595 -3.315639,3.42638 -4.9623,5.29169 -8.43695,11.93697 -10.16126,18.9725 -0.56142,2.049 -0.62871,4.1915 -1.11831,6.24804 -0.6884,0.15475 -1.80064,-0.005 -1.90625,-0.89258 -0.33119,-2.10192 0.41882,-4.18841 1.00108,-6.18053 1.20911,-3.60903 2.92552,-7.28348 4.8177,-10.69683 2.20466,-3.87517 4.6034,-7.74319 7.89997,-10.79256 0.79408,-0.641 1.653229,-1.45712 2.724609,-1.51172 z"
             sodipodi:nodetypes="ccccccccccccccccccccccc" />
          <path
             id="path8044-7"
             style="fill:#863519;fill-opacity:1;stroke-width:0"
             d="m 117.95315,164.43555 c -0.73799,0.12379 -0.46674,1.04618 -0.24081,1.52397 1.79063,4.8994 2.28899,10.19198 2.44487,15.34217 0.0774,4.59057 -0.16633,9.32093 -1.32125,13.72175 -0.79097,2.98403 -2.50439,5.53307 -4.54492,7.79297 -6.04812,6.52731 -15.846889,9.15916 -24.311019,6.62191 -4.67945,-1.3557 -8.79644,-4.52226 -11.25199,-8.73781 -0.38479,-0.64458 -0.90301,-1.19415 -1.35301,-1.79231 0.18681,5.73378 2.72298,11.27075 6.70447,15.3663 5.17547,5.43247 12.45052,8.55615 19.849949,9.35605 7.27136,0.90445 15.00197,0.0269 21.37991,-3.78406 5.90658,-3.43267 10.20642,-9.41114 11.70048,-16.0656 1.85524,-7.84257 0.10286,-16.21299 -3.77234,-23.17672 -3.54821,-6.41806 -8.76051,-11.83502 -14.72575,-16.05144 -0.17036,-0.0712 -0.37236,-0.18946 -0.55859,-0.11718 z m 13.0332,25.54492 c 0.78007,0.20736 0.76536,1.23467 0.92383,1.88476 0.72593,4.96955 -0.0823,10.20674 -2.64533,14.56098 -3.49218,6.13333 -9.9763,10.20129 -16.84421,11.4508 -3.16912,0.64152 -6.42458,0.57734 -9.55428,0.14613 -2.47834,-0.35646 -5.039309,-0.88661 -7.202269,-1.95478 -0.53506,-0.33676 -1.40053,-0.68558 -1.39258,-1.41211 0.26556,-1.01821 1.53855,-0.70266 2.28423,-0.52346 2.77579,0.90591 5.650529,1.70852 8.598749,1.90353 6.59903,0.56627 13.55994,-1.42156 18.3837,-6.07536 4.18516,-3.93981 6.40431,-9.71905 6.30132,-15.43205 0.0664,-1.43715 -0.19165,-2.96062 0.3211,-4.33273 0.16581,-0.26445 0.55899,-0.22122 0.82574,-0.21571 z" />
          <path
             id="path8046-9"
             style="fill:#c0dd6f;fill-opacity:1;stroke-width:0"
             d="m 106.52542,107.25 c -4.49183,-0.088 -8.588285,2.17261 -12.188331,4.63749 -2.344814,1.65793 -4.307431,3.83548 -5.888787,6.22311 -1.346761,2.20325 -2.841309,4.34134 -3.771343,6.76734 -1.220452,2.61548 -3.117832,4.82157 -4.511657,7.33654 -2.687638,4.52453 -5.295459,9.09997 -8.186365,13.49969 -1.736119,2.9028 -3.345357,5.88781 -5.256908,8.68015 -1.201647,2.32079 -2.577042,4.54392 -3.975545,6.74877 -2.380274,3.99006 -4.911845,7.89933 -7.045981,12.02925 -0.9681,2.34039 -1.930659,4.68867 -2.764028,7.07988 -1.909555,6.15906 -2.58393,12.64262 -2.601877,19.07066 0.0166,3.22436 0.413235,6.43802 1.078906,9.58896 0.434179,3.1485 1.477866,6.17221 2.526581,9.15843 1.12085,2.8986 2.445582,5.72996 4.160948,8.32767 4.875566,8.26318 12.005891,15.12699 20.297655,19.92277 3.561108,2.18069 7.435745,3.80301 11.398708,5.09355 2.913678,0.90494 5.869839,1.71523 8.905069,2.08368 3.968855,0.56119 7.990035,1.02608 12.000875,0.70434 4.45284,-0.22757 8.94092,-0.70676 13.18263,-2.15285 3.2398,-0.93933 6.57366,-1.75455 9.49599,-3.50485 1.62835,-0.88703 3.3533,-1.58422 5.01901,-2.38731 2.11036,-1.38434 4.19118,-2.82427 6.17927,-4.37876 3.25162,-2.59486 6.31591,-5.44719 8.91109,-8.70776 4.4726,-5.25548 7.43837,-11.58903 9.86193,-17.9982 0.76424,-2.26752 1.25916,-4.61556 1.84069,-6.93211 1.53027,-10.04111 1.12222,-20.57361 -2.50472,-30.14235 -0.86903,-2.29465 -1.77652,-4.58587 -2.98679,-6.72406 -0.67554,-1.43413 -1.41035,-2.84637 -2.37215,-4.11075 -1.09833,-1.73931 -3.09446,-4.28974 -4.13946,-6.06161 -1.12627,-0.55377 -0.57911,1.8123 -0.15611,2.59019 0.45641,0.75633 0.87363,1.51196 1.12557,2.38289 3.92346,10.57825 6.38337,21.88156 5.70799,33.2115 -0.63651,11.09436 -5.14921,22.04914 -13.00958,29.97669 -6.56616,6.88709 -15.16085,12.05416 -24.59996,13.70556 -10.32064,1.82791 -21.42323,-0.18314 -30.118541,-6.14324 -7.189455,-4.84809 -12.372359,-12.76944 -13.394584,-21.43362 -0.188517,-1.95785 -1.203398,-3.68256 -2.194461,-5.33037 -1.589813,-3.18599 -2.454407,-6.68337 -3.047983,-10.17722 -0.589608,-4.20186 0.213998,-8.44207 1.292581,-12.4962 0.882648,-3.10306 2.283953,-6.04152 4.013193,-8.75819 0.986649,-2.01533 2.20174,-3.91411 3.677387,-5.60685 2.25477,-2.82181 4.785297,-5.42983 7.641107,-7.64781 1.356146,-1.21145 2.777436,-2.35574 4.370069,-3.2431 2.154425,-1.32502 4.227535,-2.79031 6.450172,-3.99923 3.54841,-1.75215 7.76579,-2.28114 11.5882,-1.17555 2.49884,0.80085 4.63546,2.37157 6.83338,3.75317 0.64529,0.81605 1.98252,0.8054 2.58456,-0.0521 0.70863,-0.80052 0.43248,-1.90997 0.63168,-2.87121 1.49762,-13.48647 1.53078,-27.27051 -1.36123,-40.58032 -0.64658,-2.69719 -1.53231,-5.42369 -3.26949,-7.63164 -1.78928,-1.63418 -4.34156,-1.66244 -6.57462,-2.2038 -1.6081,-0.22415 -3.23708,-0.16919 -4.85474,-0.12125 z m -13.972659,26.48438 c 0.827716,0.88641 0.211766,2.19318 -0.489261,2.94905 -3.789411,4.25712 -7.825941,8.35339 -10.909304,13.17678 -1.71149,2.23003 -3.496988,4.4327 -4.773134,6.95215 -1.617074,2.55447 -3.126797,5.17615 -4.465579,7.88741 -1.073708,2.05611 -1.999087,4.18767 -2.905505,6.31878 -0.626395,1.09011 -0.48743,2.72251 -1.754204,3.36263 -0.911821,0.44069 -1.892406,-0.46547 -1.868065,-1.39498 -0.147065,-1.01398 0.535557,-1.8166 1.012211,-2.62652 0.829962,-1.64711 1.319323,-3.45094 2.300414,-5.0259 0.876555,-1.5967 1.881494,-3.16969 2.288606,-4.96856 1.579363,-2.05622 2.57126,-4.48658 4.09322,-6.58145 2.565291,-4.1242 5.583913,-7.93857 8.491482,-11.82145 2.517616,-3.20211 5.444317,-6.15521 8.979119,-8.22794 z"
             sodipodi:nodetypes="ccccccccccccccccccccccccccccccccccccccccccccccccccccccccccccccccccc" />
          <path
             id="path8048-2"
             style="fill:#68a043;fill-opacity:1;stroke-width:0"
             d="m 117.35745,109.02539 c -0.70739,0.45424 -0.42906,1.41319 0.0276,1.9439 0.51374,0.6298 1.0674,1.22986 1.38711,1.99155 1.10238,2.30728 2.08502,4.69176 2.60756,7.20447 0.69439,3.03711 0.83462,6.15872 0.94986,9.26061 0.37446,8.36139 0.35144,16.75011 -0.2997,25.09731 -0.21173,2.21156 -0.5637,4.41091 -0.65422,6.6331 0.29651,1.70126 1.97728,2.52266 3.20919,3.49029 6.43138,5.29038 11.64691,12.13127 14.69357,19.90517 1.25831,3.27321 2.23631,6.68914 2.55859,10.19068 0.55605,6.84761 -1.47306,13.84563 -5.46674,19.41858 -0.99098,1.26396 -1.83848,2.64999 -3.04095,3.73378 -2.10188,2.01714 -4.57039,3.59658 -7.06271,5.08188 -2.23582,1.22245 -4.64615,2.10444 -7.07537,2.85724 -3.89549,1.20501 -7.99491,1.4797 -12.049,1.53109 -3.26315,0.0245 -6.53567,-0.31258 -9.692596,-1.15803 -1.932871,-0.48476 -3.838002,-1.10595 -5.621854,-2.00113 -1.775153,-0.76196 -3.530067,-1.58853 -5.123493,-2.6912 -3.140371,-2.05239 -5.801087,-4.79315 -7.87818,-7.90932 -0.22017,-0.47255 -1.168711,-1.22686 -0.95898,-0.18544 0.08358,3.99794 1.230769,7.93947 3.165079,11.43092 4.737897,9.31434 13.699978,16.30852 23.836094,18.79058 9.90119,2.57428 20.73509,1.0999 29.67395,-3.84127 15.04655,-8.02781 25.28008,-24.25331 26.18611,-41.26705 0.8406,-12.58206 -2.01292,-25.2267 -7.19285,-36.66074 -4.01844,-8.80055 -9.571,-16.76325 -14.45317,-25.08432 -1.42581,-2.10854 -2.62305,-4.35994 -3.99513,-6.50259 -2.25149,-3.72449 -4.44727,-7.48331 -6.69883,-11.20707 -1.7769,-2.70199 -3.66105,-5.42761 -6.22147,-7.44779 -1.50638,-0.90659 -3.0301,-1.79946 -4.61673,-2.55492 l -0.0954,-0.0281 z m 8.49609,28.25 c 2.34808,0.98527 3.58691,3.34905 5.34325,5.04675 6.42033,7.51557 11.33065,16.17796 15.63299,25.03862 2.2213,4.69562 4.31858,9.54534 5.08205,14.72178 -0.17203,1.14473 -1.79303,0.9824 -2.34806,0.23373 -0.69391,-0.93583 -0.53763,-2.17932 -0.9899,-3.21672 -2.11846,-7.28737 -5.56538,-14.0978 -9.22406,-20.71605 -2.06804,-3.65564 -4.45861,-7.12081 -7.0483,-10.42448 -1.96912,-2.78076 -4.22854,-5.33506 -6.50874,-7.86027 -0.42568,-0.67093 -1.50434,-1.32766 -1.10774,-2.21698 0.21523,-0.41202 0.69881,-0.70339 1.16851,-0.60638 z m 22.11133,77.68359 c 0.75704,0.23108 0.84042,1.16753 0.52673,1.78094 -0.37134,0.83296 -1.00821,1.50644 -1.4851,2.27873 -2.06495,2.9114 -4.5599,5.47948 -7.12567,7.94774 -1.13505,1.08078 -2.21503,2.24249 -3.48489,3.16492 -1.66632,1.16074 -3.08514,2.66036 -4.88378,3.6334 -2.40156,1.54992 -4.86431,3.0716 -7.58917,3.98667 -0.80684,0.11733 -1.33108,-0.78511 -1.01278,-1.47747 0.21017,-0.85613 1.13898,-0.98649 1.75667,-1.4271 3.52939,-2.08109 7.09908,-4.14627 10.22659,-6.8165 1.66345,-1.41425 3.14573,-3.02308 4.70878,-4.54431 1.50855,-1.53034 2.97284,-3.10636 4.34324,-4.76229 1.44811,-0.87573 1.43146,-3.10028 3.1111,-3.70487 0.28888,-0.1067 0.60737,-0.0965 0.90828,-0.0599 z" />
          <path
             id="path8050-0"
             style="fill:#062627;fill-opacity:1;stroke-width:0"
             d="m 107.75586,88.636719 c -3.49971,0.123469 -7.01459,2.769816 -7.42369,6.36856 -0.19937,1.282108 1.39233,2.184913 2.46408,1.565302 1.19906,-0.368752 1.9774,-1.429173 2.5768,-2.459253 1.76631,-1.774263 5.05506,-1.053211 6.26172,1.03125 0.9674,1.059047 2.53108,1.979258 3.97641,1.452613 0.95047,-0.648133 0.58085,-1.904396 0.18891,-2.765443 -1.19947,-3.224684 -4.62989,-5.374684 -8.04423,-5.193029 z m -1.09375,14.470701 c -7.122268,0.31788 -13.738915,4.12024 -18.423184,9.36495 -2.394663,2.59276 -4.217944,5.63515 -5.890187,8.71343 -6.709459,11.73045 -14.101554,23.0515 -20.902746,34.72749 -3.496962,5.97102 -6.975589,11.97493 -9.961511,18.2235 -3.714768,8.44348 -5.195184,17.78248 -4.834091,26.97259 0.659045,14.41093 6.842375,28.53846 17.174301,38.63914 10.379577,10.23337 24.418191,16.44605 38.846098,18.04368 8.60665,0.98814 17.37973,-0.28306 25.52671,-3.14344 12.10782,-4.26539 23.1711,-11.94348 30.6503,-22.45859 7.89366,-10.96558 12.08209,-24.70376 10.9505,-38.22399 -0.83467,-10.79271 -4.6373,-21.24514 -10.41755,-30.36307 -7.42134,-12.31778 -14.70718,-24.72135 -22.32264,-36.92533 -3.10776,-5.289 -5.92015,-10.8978 -10.39018,-15.20711 -5.25033,-5.20546 -12.49735,-8.73109 -20.00582,-8.36325 z m 1.46094,4.31446 c 5.83676,-0.0342 11.44591,2.65791 15.5684,6.70026 1.74891,1.6293 3.29515,3.52346 4.50826,5.64459 1.31692,1.9134 2.30457,4.02299 3.31108,6.10397 0.9725,1.5193 2.09189,2.94832 2.91109,4.56082 1.55086,2.37706 3.0357,4.8003 4.54684,7.20036 1.05586,1.9655 2.13123,3.93059 3.47177,5.72027 1.61177,2.62633 2.88692,5.45902 4.72681,7.94264 1.52361,2.57341 2.8284,5.28119 4.60293,7.69893 4.48323,7.24249 9.32234,14.39676 11.69648,22.66532 3.93493,13.10325 2.84844,27.58326 -3.08076,39.91833 -3.22009,6.68879 -7.7958,12.66082 -13.37423,17.59646 -5.61735,4.99029 -12.43008,8.96779 -19.54048,11.46706 -5.68033,1.9834 -11.74695,3.08541 -17.81259,3.28396 -8.5676,0.22286 -17.18372,-1.60141 -24.969067,-5.04269 -10.504382,-4.64566 -19.838853,-12.32423 -25.876974,-22.19617 -2.120656,-3.46257 -3.778041,-7.00382 -5.113506,-10.86883 -0.797428,-2.32955 -1.354102,-4.72814 -2.048712,-7.08864 -0.972836,-6.40255 -0.833674,-12.93281 -0.235592,-19.34945 0.651163,-5.3477 2.525877,-10.40279 4.941941,-15.20107 6.197268,-12.83337 13.888705,-24.84253 21.28112,-37.01304 3.195971,-5.09989 6.495307,-10.14476 9.265633,-15.49519 2.622565,-4.74511 6.229446,-9.14956 11.118629,-11.67487 3.101528,-1.6366 6.590218,-2.54874 10.100928,-2.57302 z M 91.9375,133.68945 c -0.761491,0.13399 -1.371558,0.7596 -2.017266,1.1736 -3.008946,2.29504 -5.250389,5.39377 -7.667397,8.26554 -6.328479,7.93857 -11.587236,16.71061 -15.741839,25.96963 -0.794608,1.55191 -1.718452,3.35991 -1.120373,5.13811 0.589887,1.14342 2.435821,0.82947 2.864699,-0.30252 0.924458,-1.64953 1.396504,-3.50613 2.287627,-5.17523 4.31215,-9.34883 10.023639,-18.19304 16.728533,-26.00272 1.700903,-2.00517 3.519825,-3.87367 5.316022,-5.81951 0.654477,-0.71426 1.309408,-1.961 0.545306,-2.81135 -0.322549,-0.29114 -0.760406,-0.45423 -1.195312,-0.43555 z m 33.48633,3.10938 c -0.84895,0.11244 -1.78088,1.20693 -1.04492,1.98047 2.03921,3.23451 4.96918,5.78751 7.04669,8.99453 3.66026,4.3862 6.66147,9.35919 9.32768,14.42908 2.97995,5.20942 5.203,10.8193 7.10873,16.49895 0.47264,1.41239 0.89145,2.84144 1.31572,4.26884 0.66012,0.76939 2.21981,1.1287 2.74415,0.0332 0.48617,-2.17724 -0.34288,-4.38012 -0.93137,-6.46011 -1.53076,-5.90459 -4.44852,-11.30485 -7.07917,-16.76784 -1.84255,-3.55041 -4.23662,-6.76983 -6.22179,-10.23698 -1.15625,-1.83074 -2.68868,-3.38938 -3.9989,-5.10921 -1.48186,-1.80539 -3.01518,-3.57408 -4.41917,-5.43954 -1.13661,-0.93 -2.21413,-2.31171 -3.84765,-2.1914 z m -17.78711,19.34179 c -4.85576,0.18155 -9.214581,2.67641 -13.121962,5.35866 -7.264849,4.93287 -13.375798,11.60169 -17.52257,19.34838 -1.466169,3.18554 -2.844727,6.47074 -3.266641,9.98175 -0.498822,3.42334 -0.661729,6.92043 -0.282188,10.36395 0.444428,3.11147 1.575017,6.08297 2.831598,8.9478 1.814165,3.9952 4.548608,7.58901 7.98495,10.3248 2.262588,1.5716 4.587179,3.09332 7.138315,4.1639 5.44567,2.32979 11.394248,3.35184 17.303088,3.30951 2.35032,0.0777 4.74367,0.0885 7.01545,-0.59804 3.21177,-0.50478 6.34784,-1.49779 9.1978,-3.07612 5.36742,-2.91714 9.9146,-7.27319 13.27294,-12.35896 2.36672,-3.71595 4.14709,-7.90975 4.60083,-12.32057 0.15983,-2.96614 -0.38533,-5.91202 -0.786,-8.83686 -0.58136,-2.52707 -1.61015,-4.93094 -2.27649,-7.42959 -2.06881,-4.14779 -4.48626,-8.13041 -7.40444,-11.73848 -2.21166,-2.91676 -4.84466,-5.49662 -7.7795,-7.6819 -4.10035,-3.24249 -8.59018,-6.27956 -13.74633,-7.49624 -1.03746,-0.2135 -2.10078,-0.29173 -3.15885,-0.26199 z m 0.58594,4.73243 c 4.43329,0.11598 8.37306,2.58117 11.64393,5.38332 5.96205,4.74177 11.63523,10.27065 14.79644,17.32179 1.88942,4.10603 2.9586,8.738 2.89211,13.28197 -0.0314,6.01206 -2.26567,12.10924 -6.36143,16.59214 -5.27934,5.88435 -13.0328,9.52982 -20.96357,9.58261 -3.3933,0.10906 -6.7672,-0.10242 -10.03162,-0.76886 -7.352502,-1.48942 -14.411127,-5.57333 -18.520185,-11.97018 -2.89518,-4.51555 -4.121207,-9.99348 -3.738882,-15.3642 0.596868,-8.49583 4.868799,-16.39525 10.71471,-22.44998 3.881216,-4.01242 8.470366,-7.32858 13.422367,-9.89201 1.93123,-0.91787 3.96117,-1.79819 6.14613,-1.7166 z m 22.4082,28.60547 c -1.242,0.45972 -1.268,2.00762 -1.34652,3.11855 -0.006,1.7157 0.22538,3.43893 -0.0675,5.14512 -0.28165,2.40221 -1.11616,4.98654 -2.37424,7.17386 -1.90347,3.40966 -4.86426,6.19334 -8.39826,7.9275 -5.92438,2.98426 -12.95579,3.17853 -19.282895,1.48103 -1.51748,-0.52888 -3.244515,-1.36493 -4.817655,-0.57263 -0.728666,0.53228 -0.07777,1.4905 0.325568,2.02843 1.242721,1.38381 3.215812,1.58006 4.874915,2.18514 9.693647,3.04001 21.063967,-0.0958 27.673727,-7.84957 4.55852,-5.30299 6.71704,-12.84042 4.89532,-19.6765 -0.15252,-0.64031 -0.83267,-1.12754 -1.48242,-0.96093 z m 17.38086,24.94726 c -1.49965,0.006 -2.4942,1.29468 -3.22828,2.44106 -4.93763,6.45865 -11.04112,11.93936 -18.03149,16.09605 -1.43422,1.16269 -3.65467,1.38465 -4.52279,3.20074 -0.68587,0.95698 0.33178,2.29119 1.42912,2.09207 1.62547,-0.16192 2.95424,-1.23434 4.40373,-1.89044 4.35991,-2.35648 8.24275,-5.4701 12.03399,-8.63373 3.31199,-2.56796 5.61845,-6.13846 8.03264,-9.50382 0.57801,-0.92997 1.61469,-2.05404 1.01198,-3.20623 -0.24226,-0.37665 -0.6804,-0.61304 -1.1289,-0.5957 z" />
          <path
             id="path22990-2"
             style="fill:#ffffff;fill-opacity:1;stroke:none;stroke-width:0"
             d="m 101.02019,167.16499 c -0.77981,0.0359 -1.394083,0.58023 -1.991028,1.02186 -1.590085,1.2074 -2.875304,2.75842 -4.083873,4.33402 -2.223262,2.95469 -4.12147,6.14333 -5.808991,9.43033 -1.516568,2.99649 -2.889964,6.0782 -3.888631,9.28889 -0.434224,1.46526 -0.838211,2.96531 -0.862637,4.503 0.0048,0.70115 0.107725,1.50243 0.685228,1.97559 0.42073,0.29775 0.960795,0.39765 1.468644,0.37568 0.421095,-0.0361 0.680657,-0.43028 0.76843,-0.80925 0.26122,-1.03788 0.386733,-2.10415 0.568235,-3.15779 0.443005,-2.92484 1.2691,-5.78609 2.408626,-8.5146 1.273522,-3.02693 2.778442,-5.97164 4.670735,-8.66176 1.178612,-1.675 2.540256,-3.28127 3.983325,-4.76177 0.993773,-1.03118 2.077837,-1.99608 2.883577,-3.18986 0.25358,-0.39356 0.50309,-0.91238 0.26393,-1.36925 -0.19759,-0.3855 -0.66642,-0.4919 -1.06557,-0.46509 z" />
        </g>
      </g>
      <g
         id="g5"
         transform="matrix(1.3250765,0,0,1.3250765,-84.26412,-30.966354)">
        <g
           id="g1"
           transform="translate(0,-54.682599)">
          <path
             id="path1"
             style="fill:#fdf6e3;fill-opacity:1;stroke-width:0;stroke-linecap:round"
             d="m 254.99004,78.639127 c -1.25375,0.0523 -2.52641,0.04828 -3.75067,0.357601 -1.14823,0.316802 -2.20647,0.881152 -3.26442,1.415533 -2.68364,1.416127 -4.96784,3.512885 -6.78205,5.932029 -1.7169,2.28515 -3.08036,4.82049 -4.19994,7.44544 -1.88817,4.51086 -2.92341,9.34801 -3.33491,14.21103 -0.46097,5.64359 -0.0877,11.37062 1.2557,16.87689 0.56893,2.31881 1.33244,4.58951 2.29172,6.7759 0.19283,0.46461 0.37637,0.91787 0.54748,1.37367 0.0997,0.28185 0.24436,0.62314 0.31048,0.9429 -0.13066,0.63193 -0.47777,1.19332 -0.79466,1.74706 -0.88329,1.44868 -1.95568,2.79828 -3.27718,3.87197 -0.92004,0.78311 -1.89641,1.50051 -2.93257,2.1227 -0.53377,0.3625 -1.10029,0.70459 -1.52892,1.19416 -0.25889,0.30644 -0.1346,0.80617 0.21658,0.98235 0.48567,0.25582 1.06026,0.21489 1.59269,0.21853 1.93348,-0.0726 3.84251,-0.47941 5.67659,-1.08431 1.65651,-0.52011 3.27716,-1.14473 4.88171,-1.80612 0.33095,-0.13342 0.6619,-0.26683 0.99285,-0.40025 1.32409,1.08076 2.6025,2.22947 4.06069,3.13166 1.70642,1.07379 3.57405,1.95532 5.57211,2.30509 3.03571,0.51092 6.18027,-0.16292 8.90944,-1.52849 2.23692,-1.12082 4.25248,-2.6823 5.90847,-4.5568 2.06296,-2.37248 3.63955,-5.12855 4.93203,-7.98365 1.53108,-3.41359 2.65527,-7.00957 3.3556,-10.68425 0.38295,-2.27491 0.48455,-4.58602 0.54076,-6.88878 0.0532,-3.16262 -0.0249,-6.33262 -0.36348,-9.47907 -0.21098,-2.04338 -0.68776,-4.04773 -1.22371,-6.027 -1.21634,-4.37856 -3.01868,-8.64403 -5.70877,-12.32906 -2.06029,-2.81634 -4.69476,-5.282441 -7.8659,-6.792485 -1.16885,-0.544147 -2.39163,-1.002825 -3.66578,-1.223769 -0.77656,-0.128557 -1.56684,-0.13756 -2.35194,-0.120479 z" />
          <path
             style="color:#000000;fill:#657b83;fill-opacity:1;stroke:none;-inkscape-stroke:none"
             d="m 254.68062,78.053556 c -5.40494,0.07828 -10.75973,3.271352 -14.9043,9.455084 -8.25128,12.31098 -9.11286,32.38098 -2.05859,46.34765 -1.70643,4.47674 -5.95542,7.62318 -11.82617,9.96094 l 0.14648,0.36914 0.043,0.40039 c 4.63074,-0.48865 6.35808,1.3136 16.81641,-3.32812 4.7198,4.83629 10.28516,6.52147 15.53515,5.17382 5.32695,-1.36739 10.2838,-5.77921 13.78125,-12.86718 6.99492,-14.17595 5.9162,-34.35528 -2.51757,-46.48438 -4.21689,-6.064552 -9.61069,-9.105621 -15.01563,-9.027344 z m 0.0117,0.798828 c 5.09806,-0.07383 10.2412,2.777864 14.34766,8.683596 8.21291,11.81146 9.30317,31.79938 2.45703,45.67383 -3.42308,6.93722 -8.22303,11.15335 -13.26367,12.44726 -5.04065,1.29391 -10.36086,-0.2901 -14.97071,-5.13086 l -0.19531,-0.20507 -0.25781,0.11523 c -9.02111,4.04456 -11.43917,3.33994 -14.92578,3.33008 5.14399,-2.32868 9.04285,-5.39154 10.64843,-9.75195 l 0.0605,-0.16602 -0.0801,-0.1543 c -7.00425,-13.67069 -6.14946,-33.689 1.92774,-45.74023 4.0386,-6.025622 9.15389,-9.027733 14.25195,-9.101566 z"
             id="path4926" />
        </g>
        <g
           id="g18627"
           transform="matrix(0.23589371,-0.14690668,0.14690786,0.23589183,208.5659,49.91142)">
          <path
             style="fill:#fc8211;fill-opacity:1;stroke-width:0"
             d="m 124.88333,174.07882 c -2.03729,-0.46732 -4.65667,-1.19049 -5.82083,-1.60703 -4.68535,-1.67643 -9.60618,-5.79467 -14.8223,-11.23065 -1.77197,-1.84665 -2.80523,-3.31518 -3.08971,-3.61295 -0.21307,-0.22304 0.36067,0.056 1.6786,1.3688 2.17861,2.17019 6.4153,5.95742 9.53063,7.77888 4.48539,2.62252 10.61337,4.3062 15.69861,4.31326 2.97391,0.004 5.64445,-0.47344 5.64445,-1.00936 0,-0.15331 -0.99219,-1.54092 -2.20487,-3.08359 -4.23133,-5.38279 -9.4291,-13.58301 -12.49423,-19.71146 -3.54413,-7.08616 -5.56064,-13.07688 -6.88731,-20.46111 -0.99721,-5.55046 -1.06879,-17.32161 -0.14158,-23.28333 1.52928,-9.832944 5.15546,-21.834395 9.43761,-31.857365 1.34005,-3.13655 2.62536,-2.883156 3.12091,-2.387606 0.6509,0.6509 0.53135,4.671896 0.0397,9.942873 -0.73997,7.933315 -1.80725,13.07769 -1.52078,22.225538 0.41113,13.12855 2.58626,21.12404 7.71926,37.5383 2.88357,9.22107 3.33632,11.20867 4.8069,16.90363 0.68694,2.66026 1.51609,6.16858 1.45337,7.40448 l -0.17829,3.51302 c 0,0 -0.38514,0.28655 -0.73715,0.56556 -0.54582,0.43263 -1.28255,1.46688 -1.59438,2.07453 -0.31182,0.60765 -1.27263,2.097 -2.13512,3.30967 -0.75289,1.05858 -0.54505,1.79695 -1.19173,2.08195 -0.94206,0.41516 -2.96238,-0.008 -6.31172,-0.77604 z"
             id="path486"
             sodipodi:nodetypes="sssssscsssssssssssscssssss" />
          <path
             id="path488"
             style="fill:#f5a50a;fill-opacity:1;stroke-width:0"
             d="m 108.85739,70.415107 c -7.22252,10.160653 -11.328316,22.314121 -12.728753,34.646923 -0.959325,7.60598 -0.654628,15.32901 0.518293,22.89268 1.15701,8.01966 3.229343,15.96303 6.80724,23.26177 2.38602,5.08429 5.37378,9.91237 9.17156,14.06857 1.66211,1.79432 3.27003,3.88198 5.71703,4.61392 2.76016,0.9944 5.6567,1.66251 8.60299,1.65626 2.14231,0.002 6.91259,-0.66467 7.08706,-1.20556 0.23981,-0.83039 -3.84836,-5.78803 -5.66931,-8.53142 -4.67598,-6.83231 -8.90506,-14.02415 -12.02412,-21.7088 -4.11138,-10.47455 -5.3549,-22.00511 -4.19592,-33.12804 1.01224,-10.073712 3.75796,-19.81868 7.37169,-29.23018 1.07475,-2.707478 2.08678,-5.461151 3.48271,-8.021855 0.87755,-0.922086 0.15665,-2.215465 -0.15192,-3.227835 -0.98739,-2.651934 -1.76763,-5.300857 -3.6889,-7.415472 -3.53233,3.765427 -7.75275,7.685687 -10.29965,11.329039 z"
             sodipodi:nodetypes="cccccccccccccccc" />
          <path
             id="path480"
             style="fill:#fff28f;fill-opacity:1;stroke-width:0"
             d="m 114.16992,57.248047 c -1.75856,0.181846 -3.26568,1.234962 -4.82617,1.979045 -8.20439,4.330066 -15.167298,11.001982 -19.70413,19.105624 -2.962259,5.220396 -5.009313,10.941004 -6.297823,16.794237 -1.402171,7.339527 -1.598113,14.899787 -0.605562,22.304917 1.193688,8.94907 3.740923,17.78398 8.068435,25.73814 2.21803,4.18654 4.665066,8.29835 7.8775,11.80913 4.03595,4.49881 8.51172,8.67032 13.6771,11.84909 1.02964,0.69954 2.37756,1.25188 3.46629,1.85423 -2.90243,-3.45886 -6.39449,-8.15003 -8.66261,-11.97081 -5.3428,-8.91698 -8.424113,-19.00481 -9.953591,-29.21315 -0.83012,-5.51371 -0.84415,-11.08647 -0.771859,-16.6567 0.09113,-7.92196 1.729641,-15.844466 4.4096,-23.316286 2.01134,-5.582049 4.71673,-10.973802 7.98132,-15.846534 1.88177,-2.806556 4.02434,-5.541131 6.30874,-8.002272 1.40664,-1.497725 2.8458,-2.964468 4.26714,-4.448192 -1.60904,-0.678243 -3.11133,-1.745956 -4.87305,-1.976563 -0.12036,7.98e-4 -0.24108,-0.01018 -0.36133,-0.0039 z"
             sodipodi:nodetypes="sccccccccccccccccss" />
          <path
             style="fill:#4b4440;fill-opacity:1;stroke-width:0"
             d="m 117.21167,58.240091 c -1.01796,-0.50254 -2.17578,-0.741131 -2.17646,-0.849311 -7.1e-4,-0.10816 0.99781,-0.942139 1.82243,-1.534179 6.6439,-4.77009 8.5319,-6.06677 10.84791,-7.4504 1.45521,-0.86937 3.98102,-2.17997 5.6129,-2.91244 2.42226,-1.08723 3.66774,-1.694814 4.1975,-1.363984 0.3569,0.22289 0.64805,0.48613 0.64699,0.58498 -0.001,0.0988 -2.15021,1.544574 -4.06515,2.678044 -3.80022,2.2494 -8.29831,5.73164 -12.23926,9.47516 -1.38887,1.31929 -2.44365,2.529937 -2.51813,2.498887 -0.0745,-0.031 -1.11078,-0.624227 -2.12873,-1.126757 z"
             id="path482"
             sodipodi:nodetypes="sccssscsscs" />
          <path
             id="path484"
             style="fill:#262529;fill-opacity:1;stroke-width:0"
             d="m 137.61133,44.703125 c -5.65219,3.120684 -10.89793,6.968798 -15.67383,11.306641 -0.93877,0.96464 -1.93177,1.939357 -2.58708,3.131991 -0.3227,0.991669 0.54483,1.629136 0.88516,2.472929 1.46662,2.476642 2.14142,5.300025 3.33083,7.898986 0.20131,0.482832 0.55945,0.912318 1.13476,0.80664 1.21727,-2.755192 2.293,-5.594042 3.98361,-8.108921 2.45611,-3.819945 5.61311,-7.219868 9.42076,-9.719111 1.12636,-0.727366 2.01908,-1.854736 2.1586,-3.221836 0.34326,-1.551166 -0.9661,-2.751404 -1.67055,-3.980267 -0.33042,-0.343596 -0.42828,-1.162368 -0.98226,-0.587052 z m -0.68188,122.118265 c -1.17554,0.0875 -1.60642,1.41774 -2.18277,2.25708 -1.07107,1.92364 -2.53324,3.58497 -3.64225,5.47633 -0.30357,0.54255 0.1937,0.83664 0.65363,1.01003 1.19297,0.62515 2.40959,1.53082 3.64233,2.07579 1.17215,-0.51402 2.16886,-1.38036 3.1679,-2.17169 1.28778,-1.0497 2.39752,-2.76311 1.817,-4.47425 -0.48793,-1.47008 -1.60017,-2.9233 -2.75467,-3.92329 -0.20727,-0.13592 -0.4507,-0.24785 -0.70117,-0.25 z"
             sodipodi:nodetypes="cccccccccccccccccccc" />
        </g>
      </g>
    </g>
    <text
       xml:space="preserve"
       style="font-size:46.1994px;font-family:'Fredericka the Great';-inkscape-font-specification:'Fredericka the Great';fill:#fdf6e3;fill-opacity:1;stroke-width:1.23749;stroke-linecap:round"
       x="8.0972137"
       y="175.62389"
       id="text6"><tspan
         sodipodi:role="line"
         id="tspan6"
         style="font-style:normal;font-variant:normal;font-weight:normal;font-stretch:normal;font-family:'CMU Serif';-inkscape-font-specification:'CMU Serif';fill:#657b83;fill-opacity:1;stroke-width:1.23749"
         x="8.0972137"
         y="175.62389">Strategic voting</tspan></text>
  </g>
</svg>
