<?xml version="1.0" encoding="UTF-8" standalone="no"?>
<!-- Created with Inkscape (http://www.inkscape.org/) -->

<svg
   width="634.02478"
   height="567.37415"
   viewBox="0 0 167.75238 150.11774"
   version="1.1"
   id="svg2416"
   inkscape:version="1.2.2 (b0a8486541, 2022-12-01)"
   sodipodi:docname="avocado_voting.svg"
   xmlns:inkscape="http://www.inkscape.org/namespaces/inkscape"
   xmlns:sodipodi="http://sodipodi.sourceforge.net/DTD/sodipodi-0.dtd"
   xmlns="http://www.w3.org/2000/svg"
   xmlns:svg="http://www.w3.org/2000/svg">
  <sodipodi:namedview
     id="namedview2418"
     pagecolor="#ffffff"
     bordercolor="#000000"
     borderopacity="0.25"
     inkscape:showpageshadow="2"
     inkscape:pageopacity="0.0"
     inkscape:pagecheckerboard="0"
     inkscape:deskcolor="#d1d1d1"
     inkscape:document-units="mm"
     showgrid="false"
     inkscape:zoom="0.58705428"
     inkscape:cx="212.9275"
     inkscape:cy="343.23913"
     inkscape:window-width="1148"
     inkscape:window-height="1048"
     inkscape:window-x="768"
     inkscape:window-y="126"
     inkscape:window-maximized="1"
     inkscape:current-layer="layer1" />
  <defs
     id="defs2413" />
  <g
     inkscape:label="Ebene 1"
     inkscape:groupmode="layer"
     id="layer1"
     transform="translate(-180.40341,119.10548)">
    <g
       id="g634">
      <g
         id="g57287"
         transform="matrix(0.26458333,0,0,0.26458333,221.18984,-163.60911)">
        <path
           style="fill:#f2f2f2;fill-opacity:1"
           d="m 269.43001,338.51775 c 7.97451,0.0357 13.61541,1.75553 19.85551,6.04883 5.9069,4.0641 10.4395,9.43616 13.5429,16.05273 2.3489,5.0079 2.6016,6.70856 2.6016,17.54493 0,10.06187 -0.339,12.72914 -2.0899,16.51171 -4.2179,9.1123 -12.5833,14.74138 -23.3613,15.71875 l -5.6758,0.51368 5.3594,5.35937 c 7.7109,7.71087 10.7656,14.77312 10.7656,24.89649 0,9.90417 -3.0513,17.1969 -10.0351,23.98437 -5.2635,5.1155 -16.32182,10.77582 -24.26369,12.41992 -7.5482,1.5625 -29.53345,1.27023 -36.19922,-0.48047 -9.74827,-2.56007 -19.37415,-7.9586 -24.82422,-13.92187 -6.092,-6.66557 -8.55475,-13.26574 -8.59375,-23.03711 -0.0342,-8.63897 3.0957,-15.76303 10.4668,-23.82813 l 4.90234,-5.36328 -4.97461,-0.58984 c -10.57367,-1.2523 -19.26217,-7.26679 -22.98047,-15.91016 -3.0569,-7.10577 -3.42048,-24.62191 -0.67578,-32.49218 5.22197,-14.97407 23.62103,-24.9508 40.88867,-22.16993 7.06987,1.1385 18.12937,6.54618 22.30664,10.90625 l 2.79102,2.91407 5.8125,-5.38086 c 7.39507,-6.8466 14.67005,-9.74027 24.38086,-9.69727 z"
           id="path51374" />
        <g
           id="g55762">
          <path
             style="fill:#ececec;fill-opacity:1"
             d="m 135.07844,360.84392 c 0.54888,0.009 1.19227,0.56648 2.06836,1.57032 1.1166,1.27927 1.67065,5.0449 2.06055,14 0.2937,6.73747 0.43475,12.25 0.31445,12.25 -0.78767,0 -5.64401,-6.05355 -6.97851,-8.69922 -2.018,-4.002 -2.03797,-7.51297 -0.0762,-14.11914 1.04181,-3.50813 1.69655,-5.01703 2.61132,-5.00196 z"
             id="path51382" />
          <path
             style="fill:#ececec;fill-opacity:1"
             d="m 340.88312,359.66424 c 0.4964,0 1.8758,2.5875 3.0645,5.75 2.7633,7.35197 2.1996,11.94243 -2.1778,17.7539 -1.8373,2.4392 -3.6773,4.44785 -4.0898,4.46485 -0.4125,0.017 -0.75,-4.94031 -0.75,-11.01758 0,-10.75817 1.4437,-16.95117 3.9531,-16.95117 z"
             id="path51380" />
          <path
             style="fill:#ececec;fill-opacity:1"
             d="m 139.00618,337.66424 c 5.12677,0 5.1385,0.007 4.375,2.75 -0.4211,1.51247 -1.26304,5.06779 -1.86914,7.90039 l -1.10156,5.15039 -3.49024,-1.85743 c -1.9199,-1.02197 -4.22394,-1.87739 -5.11914,-1.90039 -2.1401,-0.0551 -4.35252,2.54234 -2.91992,3.42774 1.7069,1.0549 1.21643,3.73311 -1.65234,9.03711 -3.3495,6.19257 -3.6542,14.02059 -0.7793,19.99219 1.0591,2.19997 4.97565,6.98626 8.70312,10.63476 3.7274,3.6485 6.77735,6.911 6.77735,7.25 0,3.0843 -10.95686,-4.1224 -16.03516,-10.54687 -6.02667,-7.6242 -8.2264,-14.56875 -8.3418,-26.33789 -0.0827,-8.4254 0.23812,-10.62983 2.04102,-14 4.1289,-7.7183 10.51334,-11.5 19.41211,-11.5 z"
             id="path51372" />
          <path
             style="fill:#ececec;fill-opacity:1"
             d="m 335.59212,337.64274 c 0.8907,0.0177 2.0861,0.0904 3.6719,0.19141 7.9277,0.5048 13.5814,3.88013 16.8945,10.08203 1.9817,3.7099 2.2715,5.70718 2.2715,15.74805 0,10.33547 -0.2683,12.07019 -2.6367,17.12109 -3.0293,6.46077 -8.4611,12.83695 -14.3067,16.79492 -9.5145,6.44197 -10.0928,4.27766 -1.0957,-4.10351 11.6862,-10.88627 14.1593,-20.07236 8.666,-32.1875 -2.1205,-4.6765 -2.6145,-6.78968 -1.8945,-8.07618 1.5782,-2.82017 -0.4772,-3.88871 -5.9082,-3.07421 -2.6539,0.39787 -5.0492,0.72289 -5.3242,0.71289 -0.275,-0.006 -0.8252,-1.96384 -1.2227,-4.34961 -0.3975,-2.3858 -0.984,-5.40374 -1.3007,-6.70704 -0.4263,-1.7525 -0.4868,-2.20555 2.1855,-2.15234 z"
             id="path51370" />
        </g>
      </g>
      <path
         id="path1754"
         style="fill:#000000;fill-opacity:1;stroke-width:0.264583"
         d="m 281.51868,-100.99056 c -0.0843,0 -0.1529,1.041804 -0.15554,2.315111 -0.004,3.602657 -1.29702,6.535905 -3.64061,8.259445 -1.4442,1.062011 -1.63419,1.012685 -0.98702,-0.255799 0.64006,-1.254575 0.48124,-1.29817 -1.60145,-0.441317 -4.34526,1.78765 -9.79649,6.577478 -13.03228,11.450981 l -1.77612,2.67529 -2.1854,-0.02946 c -1.96556,-0.02641 -2.36239,0.05788 -3.94342,0.836123 -3.14528,1.548307 -4.69559,4.064487 -4.90823,7.96644 -0.225,4.128947 1.08846,7.747489 3.79512,10.454142 1.59291,1.592871 3.93045,2.933248 5.82393,3.33933 1.22038,0.261726 1.34113,0.363268 1.91771,1.620057 0.33842,0.737685 0.51444,1.422784 0.39119,1.52187 -0.12324,0.09909 -0.93731,0.652249 -1.80919,1.229384 -2.39466,1.585145 -5.89167,5.229101 -7.87084,8.202083 -3.74211,5.62102 -6.56936,13.163365 -7.42952,19.450492 0.0134,-0.0042 0.0242,-0.0075 0.0367,-0.01138 -0.17655,1.242242 -0.30683,2.454532 -0.31471,3.570324 0,0.0011 1e-5,0.0021 0,0.0031 0,2.65e-4 1e-5,7.94e-4 0,0.0011 0,7.94e-4 1e-5,0.0013 0,0.0021 -0.006,0.893112 0.021,1.648137 0.0915,2.298049 1.7e-4,0.0016 2e-4,0.0037 5.3e-4,0.0052 0.21362,1.956954 0.8265,2.950031 2.14716,3.823023 0.28324,0.187238 0.51007,0.324215 0.7338,0.428916 0.1704,0.07988 0.342,0.139655 0.5333,0.182933 0.483,0.108866 1.1065,0.119343 2.26188,0.104905 1.68571,-0.02106 3.15259,-0.522338 4.16874,-0.917774 3.20946,-1.12968 7.29431,-14.277498 7.75043,-15.328264 0.46979,-1.196661 0.84831,-2.339639 1.29449,-3.548621 0.006,-0.01508 0.012,-0.03031 0.0181,-0.04547 l 0.063,-0.110072 0.4811,1.589569 c 0.25823,0.852871 0.47066,1.516322 0.68058,3.633885 0.20993,2.117567 0.18643,5.664944 0.66714,8.676474 0.48074,3.011529 0.35373,6.698154 0.36484,7.355107 0.008,0.452278 -0.0366,0.449402 -0.74104,-0.05219 -1.41369,-1.006607 -3.54314,-1.694304 -5.33611,-1.723408 -1.43362,-0.02328 -1.92767,0.09368 -2.96829,0.705384 -2.5574,1.50331 -3.89381,4.7181011 -3.406,8.1932971 0.46062,3.28149402 1.81663,6.66293 4.30207,10.727512 2.37714,3.8873909 6.02572,7.9522079 10.80347,12.0375079 1.52791,1.30641 2.88135,2.46965 3.00809,2.58485 0.12671,0.11507 -0.23048,0.10876 -0.79375,-0.0145 -2.32902,-0.50905 -7.46082,-0.84104 -11.64477,-0.75344 -4.26136,0.0892 -4.51628,0.12475 -5.71593,0.8015 l -1.25574,0.70849 c -0.4972,0.48157 -0.67252,1.8869 -0.9679,3.75481 l 1.01855,0.60048 1.3627,-0.67645 c 1.82401,-0.9054 3.01645,-1.1879 1.43764,-0.34054 -1.23208,0.66124 -1.79472,1.31644 -1.79472,2.08876 0,0.21794 0.84851,0.99423 1.88567,1.72496 l 1.88568,1.3286 0.88056,-0.67127 c 2.10274,-1.60389 5.36592,-1.91548 13.37645,-1.27693 3.25394,0.25939 6.34927,0.38991 6.87865,0.2899 1.4575,-0.27533 2.34507,-1.30844 2.34507,-2.72955 0,-1.26455 -0.55785,-2.5417 -2.11666,-4.84828 -0.77412,-1.14543 -4.59095,-7.17571 -5.65702,-8.93744 -0.11272,-0.18627 0.63785,0.20692 1.66811,0.87333 2.22242,1.43772 3.89453,2.22971 4.72323,2.23759 0.58179,0.006 0.58848,-0.0204 0.19844,-0.77463 -0.59823,-1.15681 -0.50245,-1.21313 0.52606,-0.31006 1.34257,1.17875 2.3749,1.644 4.0256,1.81436 1.41311,0.14587 1.4473,0.13407 1.16065,-0.40152 -0.16248,-0.30359 -0.29507,-0.76096 -0.29507,-1.01596 0,-0.39079 0.11451,-0.35732 0.7276,0.21135 2.02376,1.87738 5.20263,1.62332 8.65529,-0.69194 0.95125,-0.63789 1.72961,-1.09988 1.72961,-1.0263 0,0.22612 -3.18537,4.58777 -5.08341,6.96082 -2.14874,2.68645 -2.56811,3.69342 -1.93839,4.65449 1.02585,1.5657 2.70054,1.49707 10.46138,-0.42787 7.28784,-1.80766 10.40082,-2.37429 14.04514,-2.55696 3.87109,-0.19402 5.27244,0.1159 7.00887,1.55081 1.26243,1.0432 1.3341,1.06641 2.9869,0.96118 1.50696,-0.096 1.7767,-0.20126 2.45205,-0.95704 0.95279,-1.06643 0.95515,-1.75111 0.01,-3.24167 -1.32807,-2.09409 -2.99135,-3.21526 -5.69836,-3.8411 l -1.62212,-0.37517 1.56631,0.14107 c 2.76347,0.24897 5.04248,1.67145 6.40633,3.99872 0.40285,0.68744 0.79987,1.08465 0.98185,0.98186 1.23243,-0.69612 1.54991,-1.73553 0.89142,-2.91972 -0.42204,-0.75901 -3.50668,-3.43359 -4.68654,-4.06332 -0.50932,-0.27186 -0.77259,-0.49956 -0.58498,-0.50591 0.67641,-0.0233 2.32783,1.02689 3.48403,2.21537 1.20499,1.23851 1.77697,1.45748 2.33939,0.89503 1.01344,-1.01348 -0.19678,-3.15622 -2.42724,-4.29689 -2.11193,-1.080111 -5.01718,-1.205822 -10.23762,-0.44287 -3.79182,0.55417 -12.06495,2.16779 -13.07879,2.55075 -0.29768,0.11245 0.11827,-0.48177 0.95137,-1.35857 6.03178,-6.3482839 9.69821,-12.1939909 10.71924,-17.0909519 0.21391,-1.025922 0.32719,-1.926445 0.25218,-2.001428 -0.0143,-0.01429 -0.072,0.01138 -0.13022,0.03772 -1.17626,1.093523 -2.39618,2.140569 -3.65198,3.140377 -3.56116,2.82294502 -7.40528,5.291764 -11.45459,7.354588 -1.87116,0.936043 -3.80628,1.818423 -5.87768,2.195217 -1.52469,0.270695 -3.16983,0.235682 -4.58215,-0.459404 -0.59685,-0.283528 -1.1909,-0.757235 -1.30793,-1.44539 -0.53317,-0.144304 -1.08143,-0.339892 -1.49087,-0.723987 -0.52528,-0.499719 -0.63802,-1.339506 -0.3085,-1.976623 -0.68264,-0.004 -1.37903,-0.08765 -2.00712,-0.369485 -0.71066,-0.311785 -1.41086,-0.867453 -1.55494,-1.67173298 -0.14741,-0.784066 0.29849,-1.539425 0.86093,-2.05052102 0.51643,-0.515885 1.15353,-0.940845 1.88412,-1.06557 1.74229,-0.247279 3.52074,0.04029 5.25704,-0.277503 -0.79196,0.03919 -1.59694,0.01455 -2.36678,-0.191719 -1.12895,-0.240163 -1.98381,-1.335183 -1.97921,-2.483051 -5.2e-4,-1.086591 0.73015,-2.061673 1.66347,-2.562635 0.89852,-0.525225 1.97232,-0.545767 2.98276,-0.502296 2.17823,0.08993 4.34753,0.375576 6.48333,0.809255 1.11866,0.198384 2.19309,0.573685 3.27473,0.911055 0.10102,-0.182933 0.20078,-0.366323 0.30076,-0.549838 0.97864,-1.84 2.05377,-3.6275431 3.20497,-5.3650461 l 0.66508,-1.104842 0.0398,-5.313889 c 0.0313,-4.209452 0.14379,-5.745464 0.54157,-7.391278 l 0.50178,-2.077395 1.47484,2.927988 c 1.92477,3.822022 3.06729,5.437499 3.66903,5.189347 1.4243,-0.587375 1.36923,-0.317685 -0.26407,1.29346 -1.99797,1.970987 -3.65007,3.92149 -5.19968,6.157765 0.003,0.01207 0.005,0.02408 0.007,0.03617 -1.089,1.569707 -2.13683,3.2498961 -3.20342,5.2229361 -0.62934,1.164167 -1.17248,2.150933 -1.20716,2.192631 -0.003,0.0027 -0.0812,-0.02532 -0.0858,-0.02479 -0.1248,-0.0085 -0.70181,-0.181313 -1.36994,-0.393774 -0.25937,-0.08101 -0.26383,-0.06173 -0.56482,-0.162779 -2.56019,-0.85942 -8.6266,-1.588839 -10.04228,-1.20768 -1.71003,0.46048 -2.37457,2.061797 -1.27072,3.061313 0.60163,0.54483 2.40189,0.638413 4.76353,0.248047 0.92987,-0.153696 1.44953,-0.09199 2.18901,0.258898 l 0.96945,0.45992 -2.56367,0.892968 c -2.2669,0.789543 -2.87849,0.892969 -5.27771,0.892969 -2.53326,0 -2.76745,0.04579 -3.52743,0.68523102 -1.0508,0.884185 -1.04136,1.565291 0.03,2.11924898 0.67638,0.349779 1.34741,0.409768 3.37344,0.301792 2.08666,-0.111178 3.05035,-0.324194 5.50612,-1.21594598 2.91878,-1.059921 3.75559,-1.141545 2.1854,-0.213942 -1.07956,0.637725 -3.47232,1.44715198 -5.64255,1.90892898 -2.21579,0.471435 -2.8267,0.782905 -2.8267,1.440738 0,0.366581 0.30242,0.599541 1.08003,0.832507 1.41138,0.422883 3.56886,1.6e-5 6.46059,-1.262973 1.16417,-0.508847 2.29526,-0.986597 2.51354,-1.06195 0.77065,-0.266092 -0.67845,0.732832 -2.56728,1.769919 -1.6673,0.915432 -2.12073,1.046446 -3.62252,1.046446 -0.94414,0 -1.78216,0.105574 -1.8619,0.234611 -0.19151,0.30988 0.42859,0.806413 1.35392,1.084173 2.02092,0.60661 4.53529,0.08495 8.06824,-1.619023 v -0.0052 c 0.15809,-0.07625 0.28879,-0.119874 0.45114,-0.201022 3.56846,-1.783662 7.03491,-3.94063798 10.21901,-6.333979 0.003,-0.0026 0.004,-0.0026 0.006,-0.0041 0.0716,-0.05384 0.13848,-0.111284 0.20981,-0.165365 0.71051,-0.538665 1.4106,-1.08625 2.09031,-1.646928 0.31819,-0.262573 0.61836,-0.535054 0.92914,-0.802018 0.42119,-0.3615 0.84905,-0.719476 1.25574,-1.088306 0.42973,-0.389969 0.83561,-0.789842 1.24799,-1.187008 0.26746,-0.257413 0.54695,-0.510355 0.80666,-0.770493 0.43101,-0.431932 0.8343,-0.872022 1.24282,-1.310515 0.24625,-0.264264 0.50807,-0.524338 0.74569,-0.79065 3.48922,-3.9104541 5.35316,-7.0009911 5.35316,-8.8774951 0,-0.362022 -0.264,-1.12785 -0.58652,-1.701705 -0.4789,-0.852004 -0.52008,-1.084279 -0.22428,-1.267106 0.72977,-0.451008 -0.28007,-6.695096 -2.0128,-12.446267 -1.71838,-5.703554 -4.68774,-10.985478 -7.82536,-13.920599 -1.5082,-1.410803 -3.78571,-3.10569 -4.48809,-3.339846 -0.15002,-0.05003 0.0676,-0.702538 0.4873,-1.460376 0.71231,-1.286404 0.86425,-1.402458 2.47892,-1.897044 5.36345,-1.64279 8.99583,-6.791991 8.99583,-12.752191 0,-4.276294 -1.76551,-7.310596 -5.15937,-8.867159 -1.33162,-0.61079 -1.93593,-0.726038 -3.74809,-0.715719 l -2.16059,0.01188 -0.48421,-1.085204 c -0.75854,-1.69979 -4.1512,-6.046005 -6.11332,-7.831564 -0.97991,-0.891725 -2.76445,-2.279552 -3.96565,-3.084565 -2.29257,-1.536568 -5.69562,-3.136223 -5.83479,-2.74247 -0.0449,0.127 0.17172,0.727837 0.48162,1.33532 l 0.56379,1.104842 -1.32808,-1.018542 c -0.74814,-0.573935 -2.41507,-2.467248 -3.81837,-4.336688 -2.10169,-2.799725 -5.43924,-6.336324 -5.98207,-6.339144 z m 28.46493,26.717238 c 0.23567,0.0047 0.55199,0.02392 0.97152,0.05064 2.09753,0.133561 3.59342,1.02667 4.47001,2.667537 0.52427,0.981577 0.601,1.510077 0.601,4.166671 0,2.73454 -0.071,3.193624 -0.69764,4.529955 -0.8015,1.709412 -2.2387,3.396496 -3.78529,4.443656 -2.51733,1.704438 -2.67034,1.131745 -0.28991,-1.08572 3.09192,-2.880273 3.74632,-5.310865 2.29288,-8.516276 -0.56099,-1.237324 -0.69176,-1.796434 -0.50126,-2.13682 0.41757,-0.74617 -0.12631,-1.028891 -1.56321,-0.813387 -0.70218,0.105269 -1.33594,0.191264 -1.4087,0.188618 -0.0728,-0.0016 -0.21832,-0.519599 -0.32349,-1.150834 -0.10518,-0.631243 -0.26037,-1.429737 -0.34417,-1.774568 -0.11279,-0.463683 -0.12878,-0.583502 0.57826,-0.569476 z m -52.01336,0.0057 c 1.35646,0 1.35956,0.0019 1.15755,0.727604 -0.11141,0.400175 -0.33418,1.340853 -0.49454,2.090312 l -0.29146,1.362707 -0.92346,-0.491442 c -0.50792,-0.270396 -1.11758,-0.496726 -1.35444,-0.502812 -0.56618,-0.01458 -1.1516,0.672659 -0.77256,0.906921 0.45162,0.279109 0.32185,0.987771 -0.43718,2.391068 -0.88622,1.638451 -0.96684,3.709668 -0.20619,5.289601 0.28022,0.582075 1.31648,1.8485 2.3027,2.81378 0.98616,0.965332 1.79318,1.828588 1.79318,1.918229 0,0.816054 -2.89901,-1.090771 -4.24264,-2.790526 -1.5945,-2.017183 -2.17657,-3.854701 -2.2071,-6.968567 -0.0219,-2.229167 0.063,-2.812476 0.54002,-3.704166 1.09244,-2.042081 2.78171,-3.042709 5.13612,-3.042709 z m 34.50797,0.225825 c 2.10987,0.0094 3.6024,0.464537 5.25343,1.600419 1.56281,1.075294 2.76213,2.496654 3.58324,4.247288 0.62143,1.324954 0.68833,1.775023 0.68833,4.642093 0,2.66215 -0.0897,3.367921 -0.55294,4.368726 -1.11598,2.41091 -3.32939,3.900323 -6.18102,4.158919 l -1.50171,0.135909 1.418,1.418 c 2.04012,2.040167 2.8484,3.908774 2.8484,6.587196 0,2.620425 -0.80739,4.550066 -2.65513,6.345864 -1.39258,1.353476 -4.31853,2.851105 -6.41976,3.286107 -1.99708,0.413358 -7.81412,0.336082 -9.57771,-0.127124 -2.57918,-0.677352 -5.12608,-2.105716 -6.56808,-3.683498 -1.61179,-1.763546 -2.26344,-3.509946 -2.27376,-6.095235 -0.009,-2.285675 0.81912,-4.170685 2.76934,-6.304523 l 1.29708,-1.419035 -1.3162,-0.156064 c -2.79757,-0.331338 -5.09645,-1.922722 -6.08025,-4.209561 -0.80875,-1.880068 -0.90495,-6.514602 -0.1788,-8.596892 1.38164,-3.961836 6.24983,-6.601563 10.81846,-5.865791 1.87057,0.301228 4.79678,1.73201 5.90196,2.885612 l 0.73846,0.771012 1.53789,-1.423686 c 1.95656,-1.811443 3.8815,-2.57706 6.45077,-2.565736 z m 0.49351,5.150075 c -2.84279,0.03676 -5.65042,2.050449 -5.65288,4.409032 v 0.92139 l 0.68729,-1.011824 c 1.24172,-1.827337 4.49902,-2.811257 6.63732,-2.005045 2.00311,0.755193 3.50784,3.153331 3.5171,5.60586 0.003,0.836737 0.0717,1.521354 0.15193,1.521354 0.37431,0 0.91267,-1.988934 0.91002,-3.364653 -0.005,-2.755681 -1.93406,-5.160764 -4.72994,-5.895248 -0.40791,-0.107156 -0.82576,-0.164645 -1.24489,-0.178284 h -10e-4 c -0.0917,-0.003 -0.18321,-0.0037 -0.27492,-0.0026 z m -17.16278,0.02273 c -2.3342,-0.02296 -4.84033,1.44348 -5.97689,3.653007 -0.57275,1.113499 -0.68065,3.594688 -0.21446,4.931997 h -10e-4 c 0.44604,1.279544 0.76725,0.993593 0.7736,-0.688329 0.0139,-3.640659 2.61693,-6.067692 6.25853,-5.835819 1.34943,0.08591 1.83266,0.249938 2.62775,0.893484 0.53575,0.433653 1.1951,1.200402 1.46502,1.703772 l 0.49093,0.915191 v -1.054201 c -0.002,-1.956136 -1.67871,-3.700158 -4.19044,-4.358388 -0.32777,-0.0859 -0.66534,-0.136324 -1.00769,-0.153996 -0.0749,-0.0039 -0.15001,-0.006 -0.22531,-0.0067 z m 35.57457,0.422196 c 0.13134,0 0.4963,0.684609 0.81081,1.521354 0.73112,1.945156 0.58199,3.159771 -0.57619,4.697389 -0.48607,0.645319 -0.97297,1.176824 -1.08211,1.181322 -0.10914,0.0045 -0.19843,-1.307124 -0.19843,-2.915068 0,-2.84638 0.38203,-4.484997 1.04592,-4.484997 z m -54.45248,0.312126 c 0.14522,0.0024 0.31545,0.149879 0.54725,0.415478 0.29543,0.338474 0.44202,1.33485 0.54519,3.704167 0.0777,1.782569 0.11503,3.241146 0.0832,3.241146 -0.20841,0 -1.49332,-1.601669 -1.8464,-2.301669 -0.53393,-1.058863 -0.53918,-1.98786 -0.0202,-3.735689 0.27565,-0.928193 0.44889,-1.32742 0.69092,-1.323433 z m 71.23389,0.652156 c -2.77624,0.05959 -5.4598,1.234879 -7.7494,3.682463 -5.38231,5.75379 -5.74519,14.419347 -0.74414,17.761706 3.50303,2.341113 7.21993,0.462751 7.17011,-3.623035 -0.0175,-1.432877 -0.77419,-3.435133 -1.45779,-3.857646 -0.52909,-0.326998 1.40184,-1.146161 2.72954,-1.158068 1.60198,-0.01431 2.32939,0.277077 3.63802,1.459341 1.91739,1.732246 3.53102,5.314744 4.42558,9.824207 0.70604,3.559352 0.62877,11.299925 -0.15762,15.824874 -2.16845,12.477711 -7.32073,18.6158141 -18.46554,21.9981411 l -2.44068,0.74104 -0.30075,1.462442 c -0.77081,3.74591802 -2.97607,8.167463 -6.32985,12.6907 l -1.63762,2.2081329 1.68,-0.186553 c 6.21741,-0.690165 14.57816,-3.5300969 19.95847,-6.7799469 11.70482,-7.070011 17.6488,-16.4827911 19.28874,-30.5449051 0.94811,-8.12945 0.10037,-18.032873 -2.10943,-24.647591 -3.45808,-10.351315 -10.40032,-16.644667 -16.94108,-16.852201 -0.18582,-0.0059 -0.37147,-0.0071 -0.55656,-0.0031 z m -52.24694,1.98696 c -0.0796,0.0024 -0.1799,0.02331 -0.30696,0.05736 -0.32742,0.08776 -0.73518,0.160136 -0.90589,0.162782 -0.1707,0.0019 -0.67672,0.370335 -1.12447,0.818036 -1.50198,1.502058 -0.92279,3.977428 1.14773,4.905129 1.56852,0.702707 3.33646,-0.07381 4.22093,-1.854152 0.38158,-0.768006 0.43113,-1.126607 0.21653,-1.570445 -0.15296,-0.316336 -0.28632,-0.426331 -0.29611,-0.24443 -0.0307,0.56792 -1.33392,0.362101 -2.01435,-0.318328 -0.3642,-0.364199 -0.64905,-0.958872 -0.64905,-1.353921 0,-0.450969 -0.0495,-0.608883 -0.28836,-0.602031 z m 16.12563,0.223758 c -0.93386,0 -2.25952,1.130911 -2.47478,2.110981 -0.11277,0.51345 0.009,1.178179 0.36277,1.977141 0.29286,0.662006 0.56881,1.205032 0.6134,1.207677 0.0446,0.0021 0.55737,0.172599 1.13946,0.378788 1.61097,0.570813 2.89711,0.118833 3.87263,-1.360638 0.53004,-0.803875 0.65391,-2.066586 0.22841,-2.329574 -0.14552,-0.08993 -0.26458,-0.03733 -0.26458,0.11679 0,0.154119 -0.39852,0.280085 -0.88522,0.280085 -1.03058,0 -1.73245,-0.646152 -1.81746,-1.673283 -0.0479,-0.578406 -0.18966,-0.707967 -0.77463,-0.707967 z m -7.20576,7.430553 c -0.0641,0.0042 -0.0992,0.02222 -0.0987,0.05685 0.002,0.166158 0.95959,0.689909 2.12648,1.163751 2.45388,0.996685 3.05972,1.129556 2.47272,0.542605 -0.5289,-0.528855 -3.88083,-1.803546 -4.5005,-1.763202 z m -2.06654,0.163298 c -1.36845,0.0284 -3.82457,1.102167 -3.82457,1.699122 0,0.238813 0.25358,0.20256 0.60099,-0.08578 0.33052,-0.274346 1.48298,-0.741304 2.56057,-1.037664 1.56776,-0.431138 1.7261,-0.545658 0.7922,-0.575159 -0.0418,-0.0013 -0.085,-0.0013 -0.12919,-5.29e-4 z m -1.34876,2.058789 c -0.0419,-0.0013 -0.0829,-5.29e-4 -0.12247,0.0026 -0.0791,0.0061 -0.15307,0.02117 -0.21911,0.04651 -0.33461,0.128403 -0.16965,0.404789 0.79065,1.324983 0.66741,0.639517 1.21388,1.277536 1.21388,1.418003 0,0.140441 0.12822,0.255281 0.28525,0.255281 0.32711,0 0.0806,-1.431722 -0.37103,-2.154907 -0.28077,-0.449572 -0.92235,-0.813443 -1.44849,-0.8816 -0.0439,-0.0057 -0.0867,-0.0094 -0.12868,-0.01085 z m 5.3728,0.136943 c -0.89349,0 -1.48183,0.699106 -1.7601,2.090312 l -0.17415,0.871265 1.36116,-1.361157 c 0.74858,-0.748604 1.36116,-1.414703 1.36116,-1.480532 0,-0.06583 -0.35487,-0.119888 -0.78807,-0.119888 z m -65.61976,1.513086 c -0.48996,0.03601 -0.81692,0.361791 -0.91829,0.89607 -0.0405,0.213714 -0.045,0.461182 -0.009,0.736388 0.0201,0.154308 0.0833,0.336838 0.12919,0.507979 0.0359,0.13367 0.0487,0.253497 0.10129,0.396359 0.10059,0.274103 0.25089,0.571989 0.41599,0.875398 0.0306,0.05826 0.0447,0.108233 0.0785,0.166915 0.12205,0.211402 0.29785,0.451644 0.5116,0.70435 0.21346,0.252357 0.46557,0.517615 0.73949,0.781349 0.54831,0.527949 1.18658,1.049168 1.79059,1.443323 0.89476,0.583867 1.65042,1.145574 1.9575,1.442289 0.10242,0.09878 0.1547,0.167412 0.14676,0.198953 -0.0172,0.06366 -0.0966,0.08043 -0.22583,0.05839 -0.9037,-0.15398 -4.24117,-2.217928 -5.68699,-3.601329 -0.003,-0.0037 -0.008,-0.0061 -0.0103,-0.0098 -0.71882,-0.686337 -1.54428,-1.312145 -2.11512,-1.625224 -0.14097,-0.06328 -0.28394,-0.130704 -0.40721,-0.148828 -0.68659,-0.100997 -1.54125,0.214778 -1.6955,1.360641 -0.006,0.173924 0.0332,0.375705 0.11162,0.59841 0.0783,0.222584 0.19486,0.466559 0.34623,0.723472 0.15163,0.257302 0.33329,0.530029 0.54364,0.809252 0.20994,0.278683 0.44714,0.563917 0.70435,0.850077 0.2572,0.286184 0.53521,0.572738 0.82734,0.852662 0.29217,0.279934 0.59894,0.553461 0.91364,0.813387 0.26424,0.218194 0.5356,0.419241 0.8077,0.614432 0.0526,0.03774 0.10385,0.08218 0.15658,0.118856 0.32485,0.226052 0.65139,0.432228 0.9741,0.610817 l 1.99936,1.105874 -0.004,-0.0011 -1.98334,-0.670242 c -1.0927,-0.369414 -2.74725,-1.30727 -3.67678,-2.084113 -2.29909,-1.921295 -3.25458,-2.203037 -3.67006,-1.080553 -0.0599,0.162203 -0.0859,0.344236 -0.0796,0.542603 0.006,0.19827 0.0451,0.412519 0.11214,0.63872 0.0505,0.170156 0.13186,0.352446 0.21394,0.534334 0.0275,0.06015 0.0408,0.115908 0.0713,0.177249 0.12281,0.246629 0.27175,0.50133 0.44442,0.759645 0.17235,0.257765 0.36836,0.519632 0.58498,0.780831 0.43365,0.522708 0.95093,1.043604 1.5291,1.530657 0.28924,0.243649 0.59336,0.478861 0.91054,0.701249 0.86365,0.605586 1.5827,1.173763 1.92857,1.506884 0.74373,0.566269 1.66626,1.164743 3.00188,1.747181 0.53311,0.232463 1.12076,0.46291 1.80867,0.687295 0.013,0.0042 0.0225,0.0086 0.0357,0.01291 1.78469,0.578109 2.93093,1.009467 3.85971,1.709457 0.30983,0.233497 0.59582,0.49617 0.87282,0.805119 0.86545,0.907788 1.55309,2.192454 2.60036,4.314981 0.43748,0.886566 0.84681,1.669761 1.24178,2.35386 0.39547,0.683763 0.77727,1.267799 1.1591,1.756484 0.36655,0.469239 0.73364,0.847551 1.11311,1.144114 0.007,0.01593 0.0138,0.03221 0.0212,0.04806 0.006,0.01294 0.0164,0.02336 0.0238,0.03565 -0.0471,-0.0131 0.01,0.130421 0.20929,0.596347 0.012,0.02806 0.025,0.06254 0.0372,0.09198 0.15914,0.380749 0.33858,0.890416 0.53433,1.505337 0.0492,0.155077 0.10253,0.33628 0.154,0.505912 0.1637,0.538139 0.33989,1.158441 0.52606,1.843297 0.041,0.151108 0.0789,0.281635 0.12093,0.439766 0.80576,3.028797 1.33214,4.384799 2.20968,5.693709 0.73258,1.092697 2.25449,2.363854 3.21583,2.685624 2.6e-4,1.09e-4 0.002,-1.06e-4 0.003,0 8e-4,2.65e-4 0.002,0.0013 0.003,0.0016 7.9e-4,2.43e-4 0.0121,-2.39e-4 0.0129,0 0.11811,0.02811 0.82202,0.03205 1.57355,0.02119 0.0874,-0.0013 0.10422,-0.0021 0.19223,-0.0036 0.742,-0.01331 1.47448,-0.03956 1.69344,-0.07235 0.004,-7.94e-4 0.0322,-7.94e-4 0.0362,-0.0016 0.008,-0.0013 0.001,-0.0033 0.008,-0.0047 0.0962,-0.01773 0.14409,-0.03159 0.10852,-0.06149 -0.002,-0.0019 -0.009,-0.0054 -0.0119,-0.0072 -0.0491,-0.0336 -0.1871,-0.08812 -0.44441,-0.185001 -0.009,-0.0033 -0.006,-0.0028 -0.015,-0.0062 -0.32477,-0.122184 -0.68441,-0.288456 -0.79892,-0.370001 -0.33834,-0.24093 -0.70568,-0.957016 -1.09089,-2.127004 -0.45439,-1.380112 -0.60491,-2.061199 -0.7059,-3.188951 -0.1823,-2.035697 0.29689,-5.103876 1.33067,-8.517311 0.39807,-0.7957 0.23517,-0.722156 0.52297,-1.13533 -0.003,-0.007 -0.0122,-0.03115 -0.0181,-0.04599 0.0311,-0.02656 0.0397,-0.04806 -0.0227,-0.115755 -0.007,-5.29e-4 -0.0148,-7.94e-4 -0.0222,-0.0016 -0.0178,-0.0445 -0.0236,-0.05736 -0.13746,-0.362767 -0.13938,-0.373618 -0.40011,-1.084395 -0.65526,-1.797307 -0.32732,-0.917866 -0.64359,-1.839785 -0.93896,-2.768306 -0.18283,-0.588558 -0.3549,-1.180248 -0.53227,-1.770436 -0.065,-0.221297 -0.13493,-0.440986 -0.20981,-0.658873 -0.0458,0.217937 -0.13139,0.433755 -0.25993,0.693497 -0.2858,0.577675 -0.43559,0.867039 -0.53227,0.896585 -0.014,0.0043 -0.022,-0.03563 -0.0341,-0.04237 -0.0708,-0.03824 -0.11627,-0.223523 -0.17725,-0.618567 -0.0823,-0.531635 -0.93698,-2.754942 -1.89859,-4.941816 -0.84416,-1.919653 -1.276,-2.938746 -1.42472,-3.818372 -0.14902,-0.880028 -0.0148,-1.620244 0.27388,-2.983796 0.003,-0.008 0.003,-0.01728 0.004,-0.02532 0.18161,-0.868847 0.23907,-1.857444 0.15916,-2.813781 -0.01,-0.120613 0.003,-0.244141 -0.0119,-0.363286 -0.0603,-0.466471 -0.0957,-0.756391 -0.14779,-1.143082 l -4.67103,-0.04083 c -0.68746,1.022694 -1.83858,1.340879 -3.41478,0.941544 -1.83683,-0.465442 -4.24753,-1.899574 -7.16132,-4.312915 -0.7541,-0.624573 -1.40709,-0.878337 -1.89704,-0.842325 z m 51.18705,8.541081 c -0.0854,0 0.0564,0.358656 0.31523,0.796851 1.02092,1.728205 4.34904,3.717856 7.28483,4.35529 2.22394,0.482891 6.26201,0.485958 8.54676,0.0062 2.5678,-0.539062 5.43938,-2.00497 6.61252,-3.375504 0.52395,-0.61214 0.82969,-1.154027 0.67954,-1.20406 -0.15015,-0.05006 -1.22038,0.274349 -2.37815,0.720886 -5.96988,2.302211 -12.89371,2.072452 -19.34249,-0.641821 -0.85951,-0.361757 -1.63286,-0.657841 -1.71824,-0.657841 z" />
      <g
         id="g23972"
         transform="matrix(0.25151733,-0.1452136,0.1452136,0.25151733,229.70433,-43.820691)">
        <path
           style="fill:#1c484b;fill-opacity:1;stroke-width:0.352778"
           d="m 102.41047,265.96419 c -4.096519,-0.64062 -8.287569,-0.87236 -12.248289,-2.19067 -1.51636,-0.282 -2.96072,-0.74052 -4.36592,-1.37815 -11.23133,-3.4903 -21.15766,-10.41108 -29.24354,-18.85527 -1.16194,-1.15354 -2.32246,-2.31063 -3.40789,-3.53735 0.16802,-1.17841 -1.43247,-1.67627 -1.92385,-2.62223 -0.72755,-1.13726 -1.48063,-2.23824 -2.17174,-3.38541 -0.92996,-0.96464 -1.15267,-2.3361 -2.07923,-3.30651 -0.61877,-0.93811 -0.83856,-2.06919 -1.40513,-3.0445 -0.46553,-1.0475 -1.12764,-2.001 -1.64294,-3.01218 -0.22092,-1.51898 -1.11759,-2.76108 -1.57547,-4.15814 -0.44043,-1.33049 -0.97067,-2.62703 -1.23057,-4.00901 -0.38018,-1.40548 -0.86582,-2.81204 -0.87175,-4.28442 -0.58225,-1.61299 -0.73561,-3.32899 -0.97108,-5.01046 -0.50031,-1.89575 -0.30752,-3.86927 -0.44284,-5.80703 -0.17049,-5.08399 -0.21724,-10.20905 0.68516,-15.23477 0.50158,-2.94286 1.16694,-5.86881 2.11653,-8.69947 0.60908,-1.55452 0.86102,-3.22701 1.53453,-4.76393 1.16293,-2.90952 2.58102,-5.71369 4.23372,-8.37555 0.95612,-1.81003 1.83061,-3.66677 2.972,-5.37388 1.86414,-2.91485 3.45546,-5.99301 5.35525,-8.88643 1.67083,-3.15605 3.47673,-6.24156 5.41886,-9.23855 0.69396,-1.34363 1.5046,-2.63136 2.46888,-3.79457 1.36592,-2.5099 2.70928,-5.03628 4.31434,-7.40593 1.77215,-2.59618 3.12659,-5.46696 5.07802,-7.94058 0.55571,-1.13397 1.02846,-2.3055 1.7163,-3.3722 1.72492,-3.1551 3.44878,-6.35403 5.86769,-9.04549 2.25829,-2.74069 4.67133,-5.39994 7.55069,-7.50389 1.68495,-0.63384 2.96452,-2.013242 4.67766,-2.607271 1.72865,-0.852645 3.61216,-1.282669 5.36645,-2.071488 1.28729,-0.116179 2.165439,-1.12475 3.329539,-1.51729 1.09758,1.19598 2.5623,-0.366469 3.00313,-1.430102 1.77528,-2.433002 6.10647,-2.226854 7.50545,0.486864 0.76424,1.392486 2.40058,1.409515 3.73702,1.758923 1.57493,0.537811 3.14483,1.135648 4.78931,1.403771 1.74608,0.773285 3.54256,1.436227 5.18775,2.417473 2.32628,1.26826 4.4857,2.85049 6.29519,4.79199 2.64073,2.55496 5.12152,5.32777 7.03038,8.47898 1.19641,2.13873 2.1258,4.42751 3.49447,6.46729 0.81009,1.34135 1.67097,2.64881 2.51652,3.96732 0.42062,1.39633 1.59973,2.29643 2.17487,3.64336 0.95975,1.97752 2.4741,3.63787 3.32302,5.67526 0.94575,0.95076 1.23097,2.33394 2.06567,3.37018 0.76968,1.25852 1.55755,2.49479 2.35125,3.72779 0.61562,1.26564 1.54406,2.33703 2.16982,3.60279 0.85296,1.18192 1.22907,2.58534 2.26044,3.67172 0.89803,2.03543 2.21739,3.83777 3.27316,5.7885 1.02872,1.641 2.10042,3.25301 3.05239,4.94196 1.12294,1.84901 2.13403,3.76827 3.20294,5.64357 1.60404,2.03282 2.4251,4.51542 3.49317,6.8416 1.84751,4.32195 3.36614,8.8069 4.12851,13.4555 2.15014,11.71911 1.77381,24.06789 -2.25092,35.35536 -2.50153,7.18797 -6.27299,13.90255 -10.90031,19.93206 -1.10618,1.69752 -2.72856,2.96273 -4.09325,4.43911 -3.3658,3.38054 -6.80539,6.74818 -10.84658,9.3249 -9.87116,6.57674 -21.23284,10.93057 -32.98308,12.5696 -4.33432,0.56933 -8.74579,0.68769 -13.0857,0.10685 z m 13.93472,-9.19699 c 5.40464,-0.80492 10.73066,-2.20006 15.82802,-4.1643 1.36439,-0.92113 2.89286,-1.45536 4.38457,-2.09972 2.14602,-1.13369 4.17901,-2.47067 6.27885,-3.68259 2.82434,-1.94542 5.40723,-4.21856 7.9541,-6.50786 9.65917,-9.04249 16.14007,-21.42727 17.93936,-34.54561 1.7191,-12.29605 -0.72857,-25.05546 -6.53119,-36.00271 -0.98001,-1.91904 -2.11484,-3.75495 -3.37809,-5.49751 -2.5368,-4.49627 -5.21392,-8.91347 -7.83777,-13.36032 -5.08386,-8.54932 -10.24441,-17.05329 -15.48437,-25.50751 -2.02043,-3.25776 -3.60278,-6.78689 -5.95522,-9.83362 -3.83446,-5.17658 -9.17748,-9.53998 -15.55408,-11.02475 -5.42516,-1.28164 -11.23575,-0.48933 -16.246689,1.89793 -1.84491,0.74351 -3.661,1.6325 -5.14627,2.97708 -4.36459,3.11767 -7.27828,7.78079 -9.82572,12.40332 -3.64389,6.87995 -8.05429,13.31197 -11.98372,20.02632 -4.05072,6.71078 -8.1372,13.40085 -12.04222,20.19803 -2.70722,4.38707 -5.59799,8.71235 -7.45896,13.54962 -5.49331,13.50036 -5.39049,29.03323 -0.26724,42.62815 4.26904,11.48011 12.07871,21.68565 22.3134,28.46908 10.05545,6.82018 22.15642,10.62357 34.320439,10.58009 2.90437,0.013 5.80875,-0.16239 8.6928,-0.50312 z"
           id="path8042" />
        <path
           id="path8038"
           style="fill:#d35821;fill-opacity:1;stroke-width:0.352778"
           d="m 108.27151,160.42773 c -4.58646,0.2015 -8.774959,2.49729 -12.418289,5.13104 -5.91286,4.3903 -10.81211,10.12324 -14.37252,16.56076 -2.57669,4.77877 -4.53222,10.16214 -4.135,15.66945 0.18551,3.41773 2.54755,6.23259 5.07819,8.31863 6.15384,5.04849 14.91475,6.81044 22.488239,4.26348 5.98896,-1.97398 10.80495,-6.74308 13.3881,-12.43315 2.70429,-5.78427 3.27811,-12.3551 2.52956,-18.64057 -0.40934,-3.87417 -0.21239,-7.96127 -1.29912,-11.721 -0.5989,-2.15998 -2.43932,-3.92543 -4.40479,-5.02737 -1.96701,-1.22082 -4.18097,-2.21021 -6.54539,-2.12242 -0.10279,0.003 -0.20642,-0.005 -0.30898,0.001 z m -6.91992,7.10157 c 0.66546,0.12982 0.27687,1.05112 0.0581,1.4273 -0.8467,1.36543 -2.290159,2.20595 -3.315639,3.42638 -4.9623,5.29169 -8.43695,11.93697 -10.16126,18.9725 -0.56142,2.049 -0.62871,4.1915 -1.11831,6.24804 -0.6884,0.15475 -1.80064,-0.005 -1.90625,-0.89258 -0.33119,-2.10192 0.41882,-4.18841 1.00108,-6.18053 1.20911,-3.60903 2.92552,-7.28348 4.8177,-10.69683 2.20466,-3.87517 4.6034,-7.74319 7.89997,-10.79256 0.79408,-0.641 1.653229,-1.45712 2.724609,-1.51172 z"
           sodipodi:nodetypes="ccccccccccccccccccccccc" />
        <path
           id="path8044"
           style="fill:#863519;fill-opacity:1;stroke-width:0.352778"
           d="m 117.95315,164.43555 c -0.73799,0.12379 -0.46674,1.04618 -0.24081,1.52397 1.79063,4.8994 2.28899,10.19198 2.44487,15.34217 0.0774,4.59057 -0.16633,9.32093 -1.32125,13.72175 -0.79097,2.98403 -2.50439,5.53307 -4.54492,7.79297 -6.04812,6.52731 -15.846889,9.15916 -24.311019,6.62191 -4.67945,-1.3557 -8.79644,-4.52226 -11.25199,-8.73781 -0.38479,-0.64458 -0.90301,-1.19415 -1.35301,-1.79231 0.18681,5.73378 2.72298,11.27075 6.70447,15.3663 5.17547,5.43247 12.45052,8.55615 19.849949,9.35605 7.27136,0.90445 15.00197,0.0269 21.37991,-3.78406 5.90658,-3.43267 10.20642,-9.41114 11.70048,-16.0656 1.85524,-7.84257 0.10286,-16.21299 -3.77234,-23.17672 -3.54821,-6.41806 -8.76051,-11.83502 -14.72575,-16.05144 -0.17036,-0.0712 -0.37236,-0.18946 -0.55859,-0.11718 z m 13.0332,25.54492 c 0.78007,0.20736 0.76536,1.23467 0.92383,1.88476 0.72593,4.96955 -0.0823,10.20674 -2.64533,14.56098 -3.49218,6.13333 -9.9763,10.20129 -16.84421,11.4508 -3.16912,0.64152 -6.42458,0.57734 -9.55428,0.14613 -2.47834,-0.35646 -5.039309,-0.88661 -7.202269,-1.95478 -0.53506,-0.33676 -1.40053,-0.68558 -1.39258,-1.41211 0.26556,-1.01821 1.53855,-0.70266 2.28423,-0.52346 2.77579,0.90591 5.650529,1.70852 8.598749,1.90353 6.59903,0.56627 13.55994,-1.42156 18.3837,-6.07536 4.18516,-3.93981 6.40431,-9.71905 6.30132,-15.43205 0.0664,-1.43715 -0.19165,-2.96062 0.3211,-4.33273 0.16581,-0.26445 0.55899,-0.22122 0.82574,-0.21571 z" />
        <path
           id="path8046"
           style="fill:#c0dd6f;fill-opacity:1;stroke-width:0.352778"
           d="m 106.52542,107.25 c -4.49183,-0.088 -8.588285,2.17261 -12.188331,4.63749 -2.344814,1.65793 -4.307431,3.83548 -5.888787,6.22311 -1.346761,2.20325 -2.841309,4.34134 -3.771343,6.76734 -1.220452,2.61548 -3.117832,4.82157 -4.511657,7.33654 -2.687638,4.52453 -5.295459,9.09997 -8.186365,13.49969 -1.736119,2.9028 -3.345357,5.88781 -5.256908,8.68015 -1.201647,2.32079 -2.577042,4.54392 -3.975545,6.74877 -2.380274,3.99006 -4.911845,7.89933 -7.045981,12.02925 -0.9681,2.34039 -1.930659,4.68867 -2.764028,7.07988 -1.909555,6.15906 -2.58393,12.64262 -2.601877,19.07066 0.0166,3.22436 0.413235,6.43802 1.078906,9.58896 0.434179,3.1485 1.477866,6.17221 2.526581,9.15843 1.12085,2.8986 2.445582,5.72996 4.160948,8.32767 4.875566,8.26318 12.005891,15.12699 20.297655,19.92277 3.561108,2.18069 7.435745,3.80301 11.398708,5.09355 2.913678,0.90494 5.869839,1.71523 8.905069,2.08368 3.968855,0.56119 7.990035,1.02608 12.000875,0.70434 4.45284,-0.22757 8.94092,-0.70676 13.18263,-2.15285 3.2398,-0.93933 6.57366,-1.75455 9.49599,-3.50485 1.62835,-0.88703 3.3533,-1.58422 5.01901,-2.38731 2.11036,-1.38434 4.19118,-2.82427 6.17927,-4.37876 3.25162,-2.59486 6.31591,-5.44719 8.91109,-8.70776 4.4726,-5.25548 7.43837,-11.58903 9.86193,-17.9982 0.76424,-2.26752 1.25916,-4.61556 1.84069,-6.93211 1.53027,-10.04111 1.12222,-20.57361 -2.50472,-30.14235 -0.86903,-2.29465 -1.77652,-4.58587 -2.98679,-6.72406 -0.67554,-1.43413 -1.41035,-2.84637 -2.37215,-4.11075 -1.09833,-1.73931 -3.09446,-4.28974 -4.13946,-6.06161 -1.12627,-0.55377 -0.57911,1.8123 -0.15611,2.59019 0.45641,0.75633 0.87363,1.51196 1.12557,2.38289 3.92346,10.57825 6.38337,21.88156 5.70799,33.2115 -0.63651,11.09436 -5.14921,22.04914 -13.00958,29.97669 -6.56616,6.88709 -15.16085,12.05416 -24.59996,13.70556 -10.32064,1.82791 -21.42323,-0.18314 -30.118541,-6.14324 -7.189455,-4.84809 -12.372359,-12.76944 -13.394584,-21.43362 -0.188517,-1.95785 -1.203398,-3.68256 -2.194461,-5.33037 -1.589813,-3.18599 -2.454407,-6.68337 -3.047983,-10.17722 -0.589608,-4.20186 0.213998,-8.44207 1.292581,-12.4962 0.882648,-3.10306 2.283953,-6.04152 4.013193,-8.75819 0.986649,-2.01533 2.20174,-3.91411 3.677387,-5.60685 2.25477,-2.82181 4.785297,-5.42983 7.641107,-7.64781 1.356146,-1.21145 2.777436,-2.35574 4.370069,-3.2431 2.154425,-1.32502 4.227535,-2.79031 6.450172,-3.99923 3.54841,-1.75215 7.76579,-2.28114 11.5882,-1.17555 2.49884,0.80085 4.63546,2.37157 6.83338,3.75317 0.64529,0.81605 1.98252,0.8054 2.58456,-0.0521 0.70863,-0.80052 0.43248,-1.90997 0.63168,-2.87121 1.49762,-13.48647 1.53078,-27.27051 -1.36123,-40.58032 -0.64658,-2.69719 -1.53231,-5.42369 -3.26949,-7.63164 -1.78928,-1.63418 -4.34156,-1.66244 -6.57462,-2.2038 -1.6081,-0.22415 -3.23708,-0.16919 -4.85474,-0.12125 z m -13.972659,26.48438 c 0.827716,0.88641 0.211766,2.19318 -0.489261,2.94905 -3.789411,4.25712 -7.825941,8.35339 -10.909304,13.17678 -1.71149,2.23003 -3.496988,4.4327 -4.773134,6.95215 -1.617074,2.55447 -3.126797,5.17615 -4.465579,7.88741 -1.073708,2.05611 -1.999087,4.18767 -2.905505,6.31878 -0.626395,1.09011 -0.48743,2.72251 -1.754204,3.36263 -0.911821,0.44069 -1.892406,-0.46547 -1.868065,-1.39498 -0.147065,-1.01398 0.535557,-1.8166 1.012211,-2.62652 0.829962,-1.64711 1.319323,-3.45094 2.300414,-5.0259 0.876555,-1.5967 1.881494,-3.16969 2.288606,-4.96856 1.579363,-2.05622 2.57126,-4.48658 4.09322,-6.58145 2.565291,-4.1242 5.583913,-7.93857 8.491482,-11.82145 2.517616,-3.20211 5.444317,-6.15521 8.979119,-8.22794 z"
           sodipodi:nodetypes="ccccccccccccccccccccccccccccccccccccccccccccccccccccccccccccccccccc" />
        <path
           id="path8048"
           style="fill:#68a043;fill-opacity:1;stroke-width:0.352778"
           d="m 117.35745,109.02539 c -0.70739,0.45424 -0.42906,1.41319 0.0276,1.9439 0.51374,0.6298 1.0674,1.22986 1.38711,1.99155 1.10238,2.30728 2.08502,4.69176 2.60756,7.20447 0.69439,3.03711 0.83462,6.15872 0.94986,9.26061 0.37446,8.36139 0.35144,16.75011 -0.2997,25.09731 -0.21173,2.21156 -0.5637,4.41091 -0.65422,6.6331 0.29651,1.70126 1.97728,2.52266 3.20919,3.49029 6.43138,5.29038 11.64691,12.13127 14.69357,19.90517 1.25831,3.27321 2.23631,6.68914 2.55859,10.19068 0.55605,6.84761 -1.47306,13.84563 -5.46674,19.41858 -0.99098,1.26396 -1.83848,2.64999 -3.04095,3.73378 -2.10188,2.01714 -4.57039,3.59658 -7.06271,5.08188 -2.23582,1.22245 -4.64615,2.10444 -7.07537,2.85724 -3.89549,1.20501 -7.99491,1.4797 -12.049,1.53109 -3.26315,0.0245 -6.53567,-0.31258 -9.692596,-1.15803 -1.932871,-0.48476 -3.838002,-1.10595 -5.621854,-2.00113 -1.775153,-0.76196 -3.530067,-1.58853 -5.123493,-2.6912 -3.140371,-2.05239 -5.801087,-4.79315 -7.87818,-7.90932 -0.22017,-0.47255 -1.168711,-1.22686 -0.95898,-0.18544 0.08358,3.99794 1.230769,7.93947 3.165079,11.43092 4.737897,9.31434 13.699978,16.30852 23.836094,18.79058 9.90119,2.57428 20.73509,1.0999 29.67395,-3.84127 15.04655,-8.02781 25.28008,-24.25331 26.18611,-41.26705 0.8406,-12.58206 -2.01292,-25.2267 -7.19285,-36.66074 -4.01844,-8.80055 -9.571,-16.76325 -14.45317,-25.08432 -1.42581,-2.10854 -2.62305,-4.35994 -3.99513,-6.50259 -2.25149,-3.72449 -4.44727,-7.48331 -6.69883,-11.20707 -1.7769,-2.70199 -3.66105,-5.42761 -6.22147,-7.44779 -1.50638,-0.90659 -3.0301,-1.79946 -4.61673,-2.55492 l -0.0954,-0.0281 z m 8.49609,28.25 c 2.34808,0.98527 3.58691,3.34905 5.34325,5.04675 6.42033,7.51557 11.33065,16.17796 15.63299,25.03862 2.2213,4.69562 4.31858,9.54534 5.08205,14.72178 -0.17203,1.14473 -1.79303,0.9824 -2.34806,0.23373 -0.69391,-0.93583 -0.53763,-2.17932 -0.9899,-3.21672 -2.11846,-7.28737 -5.56538,-14.0978 -9.22406,-20.71605 -2.06804,-3.65564 -4.45861,-7.12081 -7.0483,-10.42448 -1.96912,-2.78076 -4.22854,-5.33506 -6.50874,-7.86027 -0.42568,-0.67093 -1.50434,-1.32766 -1.10774,-2.21698 0.21523,-0.41202 0.69881,-0.70339 1.16851,-0.60638 z m 22.11133,77.68359 c 0.75704,0.23108 0.84042,1.16753 0.52673,1.78094 -0.37134,0.83296 -1.00821,1.50644 -1.4851,2.27873 -2.06495,2.9114 -4.5599,5.47948 -7.12567,7.94774 -1.13505,1.08078 -2.21503,2.24249 -3.48489,3.16492 -1.66632,1.16074 -3.08514,2.66036 -4.88378,3.6334 -2.40156,1.54992 -4.86431,3.0716 -7.58917,3.98667 -0.80684,0.11733 -1.33108,-0.78511 -1.01278,-1.47747 0.21017,-0.85613 1.13898,-0.98649 1.75667,-1.4271 3.52939,-2.08109 7.09908,-4.14627 10.22659,-6.8165 1.66345,-1.41425 3.14573,-3.02308 4.70878,-4.54431 1.50855,-1.53034 2.97284,-3.10636 4.34324,-4.76229 1.44811,-0.87573 1.43146,-3.10028 3.1111,-3.70487 0.28888,-0.1067 0.60737,-0.0965 0.90828,-0.0599 z" />
        <path
           id="path8050"
           style="fill:#062627;fill-opacity:1;stroke-width:0.352778"
           d="m 107.75586,88.636719 c -3.49971,0.123469 -7.01459,2.769816 -7.42369,6.36856 -0.19937,1.282108 1.39233,2.184913 2.46408,1.565302 1.19906,-0.368752 1.9774,-1.429173 2.5768,-2.459253 1.76631,-1.774263 5.05506,-1.053211 6.26172,1.03125 0.9674,1.059047 2.53108,1.979258 3.97641,1.452613 0.95047,-0.648133 0.58085,-1.904396 0.18891,-2.765443 -1.19947,-3.224684 -4.62989,-5.374684 -8.04423,-5.193029 z m -1.09375,14.470701 c -7.122268,0.31788 -13.738915,4.12024 -18.423184,9.36495 -2.394663,2.59276 -4.217944,5.63515 -5.890187,8.71343 -6.709459,11.73045 -14.101554,23.0515 -20.902746,34.72749 -3.496962,5.97102 -6.975589,11.97493 -9.961511,18.2235 -3.714768,8.44348 -5.195184,17.78248 -4.834091,26.97259 0.659045,14.41093 6.842375,28.53846 17.174301,38.63914 10.379577,10.23337 24.418191,16.44605 38.846098,18.04368 8.60665,0.98814 17.37973,-0.28306 25.52671,-3.14344 12.10782,-4.26539 23.1711,-11.94348 30.6503,-22.45859 7.89366,-10.96558 12.08209,-24.70376 10.9505,-38.22399 -0.83467,-10.79271 -4.6373,-21.24514 -10.41755,-30.36307 -7.42134,-12.31778 -14.70718,-24.72135 -22.32264,-36.92533 -3.10776,-5.289 -5.92015,-10.8978 -10.39018,-15.20711 -5.25033,-5.20546 -12.49735,-8.73109 -20.00582,-8.36325 z m 1.46094,4.31446 c 5.83676,-0.0342 11.44591,2.65791 15.5684,6.70026 1.74891,1.6293 3.29515,3.52346 4.50826,5.64459 1.31692,1.9134 2.30457,4.02299 3.31108,6.10397 0.9725,1.5193 2.09189,2.94832 2.91109,4.56082 1.55086,2.37706 3.0357,4.8003 4.54684,7.20036 1.05586,1.9655 2.13123,3.93059 3.47177,5.72027 1.61177,2.62633 2.88692,5.45902 4.72681,7.94264 1.52361,2.57341 2.8284,5.28119 4.60293,7.69893 4.48323,7.24249 9.32234,14.39676 11.69648,22.66532 3.93493,13.10325 2.84844,27.58326 -3.08076,39.91833 -3.22009,6.68879 -7.7958,12.66082 -13.37423,17.59646 -5.61735,4.99029 -12.43008,8.96779 -19.54048,11.46706 -5.68033,1.9834 -11.74695,3.08541 -17.81259,3.28396 -8.5676,0.22286 -17.18372,-1.60141 -24.969067,-5.04269 -10.504382,-4.64566 -19.838853,-12.32423 -25.876974,-22.19617 -2.120656,-3.46257 -3.778041,-7.00382 -5.113506,-10.86883 -0.797428,-2.32955 -1.354102,-4.72814 -2.048712,-7.08864 -0.972836,-6.40255 -0.833674,-12.93281 -0.235592,-19.34945 0.651163,-5.3477 2.525877,-10.40279 4.941941,-15.20107 6.197268,-12.83337 13.888705,-24.84253 21.28112,-37.01304 3.195971,-5.09989 6.495307,-10.14476 9.265633,-15.49519 2.622565,-4.74511 6.229446,-9.14956 11.118629,-11.67487 3.101528,-1.6366 6.590218,-2.54874 10.100928,-2.57302 z M 91.9375,133.68945 c -0.761491,0.13399 -1.371558,0.7596 -2.017266,1.1736 -3.008946,2.29504 -5.250389,5.39377 -7.667397,8.26554 -6.328479,7.93857 -11.587236,16.71061 -15.741839,25.96963 -0.794608,1.55191 -1.718452,3.35991 -1.120373,5.13811 0.589887,1.14342 2.435821,0.82947 2.864699,-0.30252 0.924458,-1.64953 1.396504,-3.50613 2.287627,-5.17523 4.31215,-9.34883 10.023639,-18.19304 16.728533,-26.00272 1.700903,-2.00517 3.519825,-3.87367 5.316022,-5.81951 0.654477,-0.71426 1.309408,-1.961 0.545306,-2.81135 -0.322549,-0.29114 -0.760406,-0.45423 -1.195312,-0.43555 z m 33.48633,3.10938 c -0.84895,0.11244 -1.78088,1.20693 -1.04492,1.98047 2.03921,3.23451 4.96918,5.78751 7.04669,8.99453 3.66026,4.3862 6.66147,9.35919 9.32768,14.42908 2.97995,5.20942 5.203,10.8193 7.10873,16.49895 0.47264,1.41239 0.89145,2.84144 1.31572,4.26884 0.66012,0.76939 2.21981,1.1287 2.74415,0.0332 0.48617,-2.17724 -0.34288,-4.38012 -0.93137,-6.46011 -1.53076,-5.90459 -4.44852,-11.30485 -7.07917,-16.76784 -1.84255,-3.55041 -4.23662,-6.76983 -6.22179,-10.23698 -1.15625,-1.83074 -2.68868,-3.38938 -3.9989,-5.10921 -1.48186,-1.80539 -3.01518,-3.57408 -4.41917,-5.43954 -1.13661,-0.93 -2.21413,-2.31171 -3.84765,-2.1914 z m -17.78711,19.34179 c -4.85576,0.18155 -9.214581,2.67641 -13.121962,5.35866 -7.264849,4.93287 -13.375798,11.60169 -17.52257,19.34838 -1.466169,3.18554 -2.844727,6.47074 -3.266641,9.98175 -0.498822,3.42334 -0.661729,6.92043 -0.282188,10.36395 0.444428,3.11147 1.575017,6.08297 2.831598,8.9478 1.814165,3.9952 4.548608,7.58901 7.98495,10.3248 2.262588,1.5716 4.587179,3.09332 7.138315,4.1639 5.44567,2.32979 11.394248,3.35184 17.303088,3.30951 2.35032,0.0777 4.74367,0.0885 7.01545,-0.59804 3.21177,-0.50478 6.34784,-1.49779 9.1978,-3.07612 5.36742,-2.91714 9.9146,-7.27319 13.27294,-12.35896 2.36672,-3.71595 4.14709,-7.90975 4.60083,-12.32057 0.15983,-2.96614 -0.38533,-5.91202 -0.786,-8.83686 -0.58136,-2.52707 -1.61015,-4.93094 -2.27649,-7.42959 -2.06881,-4.14779 -4.48626,-8.13041 -7.40444,-11.73848 -2.21166,-2.91676 -4.84466,-5.49662 -7.7795,-7.6819 -4.10035,-3.24249 -8.59018,-6.27956 -13.74633,-7.49624 -1.03746,-0.2135 -2.10078,-0.29173 -3.15885,-0.26199 z m 0.58594,4.73243 c 4.43329,0.11598 8.37306,2.58117 11.64393,5.38332 5.96205,4.74177 11.63523,10.27065 14.79644,17.32179 1.88942,4.10603 2.9586,8.738 2.89211,13.28197 -0.0314,6.01206 -2.26567,12.10924 -6.36143,16.59214 -5.27934,5.88435 -13.0328,9.52982 -20.96357,9.58261 -3.3933,0.10906 -6.7672,-0.10242 -10.03162,-0.76886 -7.352502,-1.48942 -14.411127,-5.57333 -18.520185,-11.97018 -2.89518,-4.51555 -4.121207,-9.99348 -3.738882,-15.3642 0.596868,-8.49583 4.868799,-16.39525 10.71471,-22.44998 3.881216,-4.01242 8.470366,-7.32858 13.422367,-9.89201 1.93123,-0.91787 3.96117,-1.79819 6.14613,-1.7166 z m 22.4082,28.60547 c -1.242,0.45972 -1.268,2.00762 -1.34652,3.11855 -0.006,1.7157 0.22538,3.43893 -0.0675,5.14512 -0.28165,2.40221 -1.11616,4.98654 -2.37424,7.17386 -1.90347,3.40966 -4.86426,6.19334 -8.39826,7.9275 -5.92438,2.98426 -12.95579,3.17853 -19.282895,1.48103 -1.51748,-0.52888 -3.244515,-1.36493 -4.817655,-0.57263 -0.728666,0.53228 -0.07777,1.4905 0.325568,2.02843 1.242721,1.38381 3.215812,1.58006 4.874915,2.18514 9.693647,3.04001 21.063967,-0.0958 27.673727,-7.84957 4.55852,-5.30299 6.71704,-12.84042 4.89532,-19.6765 -0.15252,-0.64031 -0.83267,-1.12754 -1.48242,-0.96093 z m 17.38086,24.94726 c -1.49965,0.006 -2.4942,1.29468 -3.22828,2.44106 -4.93763,6.45865 -11.04112,11.93936 -18.03149,16.09605 -1.43422,1.16269 -3.65467,1.38465 -4.52279,3.20074 -0.68587,0.95698 0.33178,2.29119 1.42912,2.09207 1.62547,-0.16192 2.95424,-1.23434 4.40373,-1.89044 4.35991,-2.35648 8.24275,-5.4701 12.03399,-8.63373 3.31199,-2.56796 5.61845,-6.13846 8.03264,-9.50382 0.57801,-0.92997 1.61469,-2.05404 1.01198,-3.20623 -0.24226,-0.37665 -0.6804,-0.61304 -1.1289,-0.5957 z" />
        <path
           id="path22990"
           style="fill:#ffffff;fill-opacity:1;stroke:none;stroke-width:1.18911;stroke-linecap:round;stroke-opacity:1"
           d="m 101.02019,167.16499 c -0.77981,0.0359 -1.394083,0.58023 -1.991028,1.02186 -1.590085,1.2074 -2.875304,2.75842 -4.083873,4.33402 -2.223262,2.95469 -4.12147,6.14333 -5.808991,9.43033 -1.516568,2.99649 -2.889964,6.0782 -3.888631,9.28889 -0.434224,1.46526 -0.838211,2.96531 -0.862637,4.503 0.0048,0.70115 0.107725,1.50243 0.685228,1.97559 0.42073,0.29775 0.960795,0.39765 1.468644,0.37568 0.421095,-0.0361 0.680657,-0.43028 0.76843,-0.80925 0.26122,-1.03788 0.386733,-2.10415 0.568235,-3.15779 0.443005,-2.92484 1.2691,-5.78609 2.408626,-8.5146 1.273522,-3.02693 2.778442,-5.97164 4.670735,-8.66176 1.178612,-1.675 2.540256,-3.28127 3.983325,-4.76177 0.993773,-1.03118 2.077837,-1.99608 2.883577,-3.18986 0.25358,-0.39356 0.50309,-0.91238 0.26393,-1.36925 -0.19759,-0.3855 -0.66642,-0.4919 -1.06557,-0.46509 z" />
      </g>
      <path
         id="path25450"
         style="fill:#000000;fill-opacity:1;stroke-width:0.264583"
         d="m 304.89452,-13.049152 c -1.11387,1.598228 -2.18294,3.3093421 -3.27215,5.3242231 -0.62934,1.164167 -1.17248,2.150933 -1.20717,2.192631 -0.0347,0.0417 -0.94398,-0.219966 -2.02054,-0.581361 -2.56025,-0.859446 -8.62653,-1.588889 -10.04229,-1.207677 -1.71008,0.460481 -2.37458,2.061795 -1.27072,3.061311 0.60169,0.54483 2.40183,0.638413 4.76353,0.248047 0.92988,-0.153696 1.44953,-0.09199 2.18902,0.2589 l 0.96945,0.45992 -2.56367,0.892969 c -2.26696,0.789543 -2.87842,0.892969 -5.27772,0.892969 -2.53332,0 -2.76744,0.04576 -3.52743,0.68522802 -1.05084,0.884238 -1.0414,1.565241 0.03,2.11925198 0.67638,0.349779 1.34734,0.409765 3.37344,0.301789 2.08669,-0.111205 3.05028,-0.324141 5.50613,-1.21594598 2.91883,-1.059947 3.75583,-1.141595 2.18539,-0.213939 -1.07955,0.637725 -3.4723,1.44714898 -5.64255,1.90892598 -2.21585,0.471488 -2.8267,0.782905 -2.8267,1.440738 0,0.366581 0.30243,0.599544 1.08004,0.832509 1.41139,0.422884 3.5688,1.6e-5 6.46059,-1.262973 1.16416,-0.508899 2.29526,-0.986596 2.51354,-1.06195 0.77065,-0.266065 -0.67845,0.732804 -2.56729,1.769917 -1.66729,0.915485 -2.12065,1.046449 -3.62251,1.046449 -0.94414,0 -1.78216,0.105574 -1.86191,0.234611 -0.1915,0.30988 0.42858,0.80641 1.35393,1.08417 2.11162,0.633836 4.72943,0.07431 8.52041,-1.820558 7.1416,-3.56965598 13.87456,-8.631608 18.75337,-14.0994 0.81997,-0.9189671 1.53259,-1.7832711 2.1699,-2.6065591 z" />
      <g
         id="rect1311"
         transform="matrix(0.26458333,0,0,0.26458333,187.43037,-234.84567)">
        <path
           style="color:#000000;fill:#f4eed7;stroke-width:3.32945;-inkscape-stroke:none"
           d="M -24.893448,439.10812 H 229.68996 V 699.23361 H -24.893448 Z"
           id="path815" />
        <path
           style="color:#000000;fill:#000000;-inkscape-stroke:none"
           d="m -26.558594,437.44336 v 1.66406 261.79102 H 231.35547 V 437.44336 Z m 3.330078,3.33008 H 228.02539 V 697.56836 H -23.228516 Z"
           id="path817" />
      </g>
      <path
         id="path1313"
         style="fill:#000000;stroke-width:0.455401"
         d="m 235.97927,-58.959112 c -0.78539,0.03801 -1.67463,0.710745 -1.72083,1.825728 -0.0768,1.853488 0.0183,2.262976 0.0517,2.602942 0.0449,0.457091 0.0706,0.887367 0.0775,1.291394 0.007,0.404299 -0.005,0.782278 -0.0356,1.133263 -0.087,1.001438 -0.32739,1.781768 -0.7085,2.348696 l 4.67104,0.04082 c -0.0677,-0.502793 -0.14873,-1.078119 -0.19275,-1.486213 -0.0925,-2.330003 0.091,-4.79285 -0.99529,-6.939629 -0.0484,-0.184182 -0.12848,-0.335634 -0.23151,-0.455787 l 0.003,-0.0016 c -0.2254,-0.262835 -0.56078,-0.376944 -0.91776,-0.359667 z" />
    </g>
  </g>
</svg>
