<?xml version="1.0" encoding="UTF-8" standalone="no"?>
<!-- Created with Inkscape (http://www.inkscape.org/) -->

<svg
   version="1.1"
   id="svg2"
   width="394.30927"
   height="498.90927"
   viewBox="0 0 394.30927 498.90928"
   sodipodi:docname="avocado.svg"
   inkscape:version="1.2.2 (b0a8486541, 2022-12-01)"
   xml:space="preserve"
   inkscape:export-filename="monkeys.png"
   inkscape:export-xdpi="150"
   inkscape:export-ydpi="150"
   xmlns:inkscape="http://www.inkscape.org/namespaces/inkscape"
   xmlns:sodipodi="http://sodipodi.sourceforge.net/DTD/sodipodi-0.dtd"
   xmlns="http://www.w3.org/2000/svg"
   xmlns:svg="http://www.w3.org/2000/svg"><defs
     id="defs6" /><sodipodi:namedview
     id="namedview4"
     pagecolor="#ffffff"
     bordercolor="#000000"
     borderopacity="0.25"
     inkscape:showpageshadow="2"
     inkscape:pageopacity="0.0"
     inkscape:pagecheckerboard="0"
     inkscape:deskcolor="#d1d1d1"
     showgrid="false"
     inkscape:zoom="0.58284536"
     inkscape:cx="0"
     inkscape:cy="129.53693"
     inkscape:window-width="1148"
     inkscape:window-height="1048"
     inkscape:window-x="768"
     inkscape:window-y="126"
     inkscape:window-maximized="1"
     inkscape:current-layer="g8"
     inkscape:pageshadow="2" /><g
     inkscape:groupmode="layer"
     inkscape:label="Image"
     id="g8"
     transform="translate(1.641838e-7,-525.09074)"><g
       id="g698"><path
         style="fill:#f2f2f2;fill-opacity:1"
         d="m 183.86771,626.94135 c 7.97451,0.0357 13.61541,1.75553 19.85551,6.04883 5.9069,4.0641 10.4395,9.43616 13.5429,16.05273 2.3489,5.0079 2.6016,6.70856 2.6016,17.54493 0,10.06187 -0.339,12.72914 -2.0899,16.51171 -4.2179,9.1123 -12.5833,14.74138 -23.3613,15.71875 l -5.6758,0.51368 5.3594,5.35937 c 7.7109,7.71087 10.7656,14.77312 10.7656,24.89649 0,9.90417 -3.0513,17.1969 -10.0351,23.98437 -5.2635,5.1155 -16.32182,10.77582 -24.26369,12.41992 -7.5482,1.5625 -29.53345,1.27023 -36.19922,-0.48047 -9.74827,-2.56007 -19.37415,-7.9586 -24.82422,-13.92187 -6.092,-6.66557 -8.55475,-13.26574 -8.59375,-23.03711 -0.0342,-8.63897 3.0957,-15.76303 10.4668,-23.82813 l 4.90234,-5.36328 -4.97461,-0.58984 c -10.57367,-1.2523 -19.262173,-7.26679 -22.980473,-15.91016 -3.0569,-7.10577 -3.42048,-24.62191 -0.67578,-32.49218 5.22197,-14.97407 23.621033,-24.9508 40.888673,-22.16993 7.06987,1.1385 18.12937,6.54618 22.30664,10.90625 l 2.79102,2.91407 5.8125,-5.38086 c 7.39507,-6.8466 14.67005,-9.74027 24.38086,-9.69727 z"
         id="path51374" /><g
         id="g55762"
         transform="translate(-85.562303,288.4236)"><path
           style="fill:#ececec;fill-opacity:1"
           d="m 135.07844,360.84392 c 0.54888,0.009 1.19227,0.56648 2.06836,1.57032 1.1166,1.27927 1.67065,5.0449 2.06055,14 0.2937,6.73747 0.43475,12.25 0.31445,12.25 -0.78767,0 -5.64401,-6.05355 -6.97851,-8.69922 -2.018,-4.002 -2.03797,-7.51297 -0.0762,-14.11914 1.04181,-3.50813 1.69655,-5.01703 2.61132,-5.00196 z"
           id="path51382" /><path
           style="fill:#ececec;fill-opacity:1"
           d="m 340.88312,359.66424 c 0.4964,0 1.8758,2.5875 3.0645,5.75 2.7633,7.35197 2.1996,11.94243 -2.1778,17.7539 -1.8373,2.4392 -3.6773,4.44785 -4.0898,4.46485 -0.4125,0.017 -0.75,-4.94031 -0.75,-11.01758 0,-10.75817 1.4437,-16.95117 3.9531,-16.95117 z"
           id="path51380" /><path
           style="fill:#ececec;fill-opacity:1"
           d="m 139.00618,337.66424 c 5.12677,0 5.1385,0.007 4.375,2.75 -0.4211,1.51247 -1.26304,5.06779 -1.86914,7.90039 l -1.10156,5.15039 -3.49024,-1.85743 c -1.9199,-1.02197 -4.22394,-1.87739 -5.11914,-1.90039 -2.1401,-0.0551 -4.35252,2.54234 -2.91992,3.42774 1.7069,1.0549 1.21643,3.73311 -1.65234,9.03711 -3.3495,6.19257 -3.6542,14.02059 -0.7793,19.99219 1.0591,2.19997 4.97565,6.98626 8.70312,10.63476 3.7274,3.6485 6.77735,6.911 6.77735,7.25 0,3.0843 -10.95686,-4.1224 -16.03516,-10.54687 -6.02667,-7.6242 -8.2264,-14.56875 -8.3418,-26.33789 -0.0827,-8.4254 0.23812,-10.62983 2.04102,-14 4.1289,-7.7183 10.51334,-11.5 19.41211,-11.5 z"
           id="path51372" /><path
           style="fill:#ececec;fill-opacity:1"
           d="m 335.59212,337.64274 c 0.8907,0.0177 2.0861,0.0904 3.6719,0.19141 7.9277,0.5048 13.5814,3.88013 16.8945,10.08203 1.9817,3.7099 2.2715,5.70718 2.2715,15.74805 0,10.33547 -0.2683,12.07019 -2.6367,17.12109 -3.0293,6.46077 -8.4611,12.83695 -14.3067,16.79492 -9.5145,6.44197 -10.0928,4.27766 -1.0957,-4.10351 11.6862,-10.88627 14.1593,-20.07236 8.666,-32.1875 -2.1205,-4.6765 -2.6145,-6.78968 -1.8945,-8.07618 1.5782,-2.82017 -0.4772,-3.88871 -5.9082,-3.07421 -2.6539,0.39787 -5.0492,0.72289 -5.3242,0.71289 -0.275,-0.006 -0.8252,-1.96384 -1.2227,-4.34961 -0.3975,-2.3858 -0.984,-5.40374 -1.3007,-6.70704 -0.4263,-1.7525 -0.4868,-2.20555 2.1855,-2.15234 z"
           id="path51370" /></g><path
         id="path1754"
         style="fill:#000000;fill-opacity:1"
         d="m 142.4524,525.0917 c -0.3188,0 -0.57789,3.9375 -0.58789,8.75 -0.0151,13.6165 -4.90189,24.7026 -13.75976,31.21677 -5.4584,4.0141 -6.17647,3.82768 -3.73047,-0.96679 2.4191,-4.7417 1.81906,-4.90647 -6.05274,-1.66797 -16.42324,6.75667 -37.025693,24.85935 -49.255863,43.27929 l -6.71289,10.11133 -8.25976,-0.11133 c -7.4291,-0.0998 -8.92873,0.21856 -14.9043,3.16016 -11.88787,5.85187 -17.74708,15.36163 -18.55078,30.10937 -0.8504,15.60587 4.11368,29.28165 14.34375,39.51172 6.02047,6.0205 14.85505,11.0863 22.01172,12.6211 4.61247,0.9892 5.06885,1.37297 7.24805,6.12304 1.27907,2.7881 1.94431,5.37746 1.47851,5.75196 -0.4658,0.3745 -3.54259,2.46518 -6.83789,4.64648 -9.05087,5.9913 -22.26755,19.76333 -29.74805,31 -14.14363,21.2454 -24.8288802,49.7509 -28.0800702,73.51367 0.0505,-0.0158 0.0916,-0.0284 0.13867,-0.043 -0.66729998,4.69529 -1.15968998,9.27698 -1.18945998,13.49415 -2e-5,0.004 3e-5,0.008 0,0.0117 0,10e-4 1e-5,0.003 0,0.004 -2e-5,0.003 2e-5,0.005 0,0.008 -0.0227,3.37574 0.0792,6.22899 0.34571,8.68555 6.5e-4,0.006 0.001,0.0135 0.002,0.0195 0.80738998,7.39636 3.12377998,11.14952 8.11522998,14.44922 1.07051,0.70767 1.9276402,1.22537 2.7734402,1.62109 0.64404,0.30191 1.2926,0.52784 2.01563,0.69141 1.8255,0.41146 4.18205,0.45105 8.54883,0.39648 14.82904,-0.1852 30.5146,-6.33002 57.13671,-22.38476 6.7074,-4.045 12.73399,-7.00024 14.27149,-6.99024 0.70396,0.003 1.86133,0.17837 3.16406,0.43946 0.65529,0.12657 1.31038,0.31241 2.00781,0.48047 0.56474,0.13837 1.11463,0.2435 1.664073,0.39843 -0.002,0.005 -0.004,0.009 -0.006,0.0137 0.24419,0.0688 0.50501,0.11224 0.74023,0.18359 6.04382,1.8335 11.58447,1.94677 11.60547,0.23828 0.0116,-0.94796 0.21816,-0.93068 0.85156,0.0684 0.6148,0.9696 1.73238,1.08365 4.23438,0.43555 2.67732,-0.6937 3.51798,-1.50352 3.95508,-3.81641 0.52732,-2.79059 0.5919,-2.82559 1.3164,-0.6875 0.8716,2.57249 1.52532,2.70971 5.11914,1.07227 1.4221,-0.648 2.37815,-1.72192 2.12305,-2.38672 -0.2882,-0.7482 0.20297,-1.03415 1.29687,-0.74805 0.9811,0.2565 3.13328,-0.69404 4.85938,-2.14648 l 2.90625,-2.44727 0.1543,-0.70312 c 0,0 3.49176,-2.52885 2.52148,-6.9375 -0.21865,-0.14221 -0.56165,-1.07103 -1.22266,-2.92188 -1.85472,-5.19353 -8.68059,-12.41847 -13.94921,-14.76367 -2.12215,-0.94461 -4.80958,-1.47934 -8.14258,-1.69141 -0.88265,-0.057 -1.77824,-0.10667 -2.77344,-0.10937 -0.23305,-3.9e-4 -0.47519,0.003 -0.71484,0.006 -1.01369,0.0101 -2.1268,0.0638 -3.26563,0.1289 -1.97048,0.11669 -4.03501,0.27186 -6.45312,0.56641 -0.0454,0.006 -0.0795,0.008 -0.125,0.0137 -8.778153,1.0775 -20.680843,3.33955 -36.611333,6.79883 -3.09631,0.67127 -5.65625,1.18188 -9.09375,1.95312 -28.36321,6.3636 -25.8338,5.8884 -23.5,4.41993 1.1,-0.6921 7.85,-3.1376 15,-5.4336 l 13,-4.17383 4.08789,-7.13867 4.08984,-7.13867 1.81836,6.00781 c 0.97598,3.22365 1.77819,5.73007 1.86524,5.85743 2.46202,-0.51691 4.92032,-1.05133 7.38867,-1.53907 10.2149,-1.95178 20.481333,-3.95738 30.900393,-4.34765 3.05954,-0.0671 6.13921,0.039 9.15039,0.62304 4.34997,0.72934 8.28545,3.00351 11.55273,5.90235 3.73175,3.34178 7.16669,7.20775 9.18946,11.84179 0.54785,0.99995 0.61537,2.22927 1.35351,3.11914 1.40314,3.70029 0.37802,8.17719 -2.40429,10.97852 0.0507,0.68285 -0.60114,1.07598 -1.00782,1.54297 -2.65925,2.19681 -5.24091,4.8524 -8.74609,5.58789 -0.68184,1.00964 -1.62147,1.8339 -2.67383,2.44141 -2.21244,1.11521 -4.68002,2.34323 -7.22656,1.74218 -0.91664,0.82406 -2.02999,1.53177 -3.22656,1.94141 -2.23919,0.71296 -4.68153,1.38771 -7.01172,0.69336 -1.79132,0.68264 -3.75163,0.67876 -5.63477,0.50586 -4.3983,-0.22742 -8.506683,-1.98906 -12.824223,-2.65625 -0.7483,0.0228 -1.48294,0.10563 -2.21093,0.25 -0.65661,0.26375 -1.30193,0.56543 -1.94727,0.83789 -2.18978,1.02095 -4.13543,2.14285 -6.24609,3.31836 -1.88085,1.11088 -3.78544,2.18685 -5.66993,3.29492 -0.86624,0.92242 -0.88094,1.68207 -0.61914,2.9043 0.7043,3.28807 2.47949,17.00335 2.52149,19.48632 0.0291,1.7094 -0.13841,1.69854 -2.80078,-0.19726 -5.3431,-3.8047 -13.3912,-6.40367 -20.16797,-6.51367 -5.4186,-0.088 -7.28568,0.35404 -11.21875,2.66601 -9.66597,5.682 -14.71675,17.83185 -12.87305,30.96685 1.7409,12.4027 6.8658,25.1825 16.25977,40.5449 8.98467,14.6929 22.77399,30.0554 40.83203,45.4961 5.77497,4.9378 10.890143,9.3341 11.369143,9.7695 0.4789,0.4349 -0.8711,0.4107 -3.000003,-0.055 -8.80277,-1.9242 -28.19818,-3.1788 -44.01172,-2.8477 -16.10634,0.3372 -17.06922,0.4713 -21.60352,3.0293 l -4.74609,2.6778 c -1.8792,1.8201 -2.5418,7.1314 -3.6582,14.1914 l 3.84961,2.2695 5.15039,-2.5566 c 6.89407,-3.4222 11.40076,-4.4897 5.43359,-1.2871 -4.65687,2.4994 -6.7832,4.9755 -6.7832,7.8945 0,0.8237 3.20675,3.7577 7.12695,6.5195 l 7.12695,5.0215 3.32813,-2.5371 c 7.94757,-6.062 20.28003,-7.2396 50.556643,-4.8262 12.29857,0.9804 23.99725,1.4737 25.99805,1.0957 5.50887,-1.0408 8.86328,-4.9451 8.86328,-10.3164 0,-4.7794 -2.10823,-9.6062 -8,-18.3242 -2.9258,-4.3292 -17.35159,-27.1208 -21.38086,-33.7793 -0.426,-0.704 2.41079,0.7819 6.30469,3.3008 8.39987,5.4339 14.71946,8.427 17.85156,8.457 2.1989,0.021 2.2242,-0.077 0.75,-2.9277 -2.261,-4.3722 -1.89922,-4.5851 1.98828,-1.1719 5.07427,4.4553 8.97597,6.2135 15.21484,6.8574 5.3411,0.5513 5.47012,0.5068 4.38672,-1.5175 -0.6141,-1.1474 -1.11523,-2.8759 -1.11523,-3.8399 0,-1.477 0.4328,-1.3507 2.75,0.7988 7.64907,7.0956 19.66329,6.1356 32.7129,-2.6152 3.5953,-2.4109 6.5371,-4.157 6.5371,-3.8789 0,0.8546 -12.03898,17.3394 -19.21289,26.3086 -8.1214,10.1537 -9.70625,13.9592 -7.32618,17.5918 3.8774,5.9176 10.20615,5.6584 39.53907,-1.6172 27.5452,-6.8321 39.3098,-8.9737 53.084,-9.6641 14.6311,-0.7333 19.9271,0.4379 26.4902,5.8614 4.7716,3.9428 5.0421,4.0305 11.2891,3.6328 5.6956,-0.3627 6.715,-0.7605 9.2675,-3.6172 3.6011,-4.0306 3.6099,-6.6184 0.037,-12.252 -5.0195,-7.9149 -11.3058,-12.1519 -21.5372,-14.5175 l -6.1308,-1.418 5.9199,0.5332 c 10.4448,0.941 19.058,6.3171 24.2129,15.1133 1.5226,2.5982 3.0231,4.0994 3.7109,3.7109 4.658,-2.631 5.858,-6.5594 3.3692,-11.0351 -1.5951,-2.8689 -13.2536,-12.9774 -17.7129,-15.3575 -1.925,-1.0275 -2.9201,-1.8881 -2.211,-1.9121 2.5565,-0.088 8.7979,3.8812 13.168,8.3731 4.5543,4.6812 6.7161,5.5086 8.8418,3.3828 3.8305,-3.8305 -0.7435,-11.9288 -9.1738,-16.2402 -7.9823,-4.0823 -18.9622,-4.5575 -38.6934,-1.6739 -14.3315,2.0945 -45.5998,8.1933 -49.4316,9.6407 -1.1251,0.425 0.4468,-1.8207 3.5957,-5.1348 22.7977,-23.9939 36.6545,-46.0873 40.5137,-64.5957 0.8085,-3.8777 1.2366,-7.2811 0.9531,-7.5645 -0.054,-0.054 -0.272,0.043 -0.4922,0.1426 -4.4459,4.133 -9.0562,8.0904 -13.8027,11.8692 -13.4597,10.6696 -27.9881,20.0001 -43.293,27.7968 -7.0723,3.5378 -14.3857,6.8728 -22.2148,8.2969 -5.7626,1.0231 -11.9803,0.8908 -17.3184,-1.7363 -2.25582,-1.0716 -4.50102,-2.862 -4.94336,-5.4629 -2.01512,-0.5454 -4.08729,-1.2846 -5.63476,-2.7363 -1.98533,-1.8889 -2.41145,-5.0627 -1.16602,-7.4707 -2.58004,-0.015 -5.21205,-0.3311 -7.58593,-1.3965 -2.68598,-1.1784 -5.33241,-3.2784 -5.87696,-6.3184 -0.55734,-2.9634 1.12818,-5.8181 3.25391,-7.75 1.95187,-1.9498 4.3596,-3.5559 7.12109,-4.0273 6.58502,-0.9346 13.30671,0.1522 19.86914,-1.0489 -2.99326,0.1481 -6.03569,0.055 -8.94531,-0.7246 -4.2671,-0.9079 -7.49787,-5.0463 -7.48047,-9.3847 -0.002,-4.1068 2.7594,-7.7922 6.28711,-9.6856 3.396,-1.9851 7.45446,-2.0629 11.27344,-1.8984 8.23285,0.3399 16.43142,1.4195 24.50392,3.0586 4.2282,0.7498 8.2888,2.1682 12.3769,3.4433 0.3818,-0.6914 0.7588,-1.3845 1.1367,-2.0781 3.6988,-6.95453 7.7623,-13.7102 12.1133,-20.27734 l 2.5137,-4.17579 0.1504,-20.08398 c 0.1184,-15.91014 0.5435,-21.71495 2.0469,-27.93555 l 1.8965,-7.85156 5.5742,11.06641 c 7.2749,14.44564 11.5929,20.55118 13.8672,19.61328 5.3834,-2.22 5.175,-1.2009 -0.9981,4.88867 -7.5516,7.4494 -13.7953,14.82118 -19.6523,23.27344 0.01,0.0456 0.018,0.091 0.025,0.13672 -4.1159,5.93295 -8.0761,12.28284 -12.1075,19.7402 -2.3786,4.4 -4.4314,8.1295 -4.5625,8.2871 -0.01,0.01 -0.3069,-0.096 -0.3242,-0.094 -0.4717,-0.032 -2.6525,-0.6852 -5.1777,-1.4882 -0.9803,-0.3062 -0.9972,-0.2334 -2.1348,-0.6153 -9.6765,-3.2482 -32.60423,-6.0052 -37.95505,-4.5644 -6.4633,1.7404 -8.97476,7.7926 -4.80274,11.5703 2.2741,2.0592 9.07785,2.4129 18.00391,0.9375 3.51448,-0.5809 5.47848,-0.3477 8.27338,0.9785 l 3.6641,1.7383 -9.68943,3.375 c -8.56804,2.9841 -10.87915,3.375 -19.94727,3.375 -9.57472,0 -10.45963,0.173 -13.33203,2.5898 -3.9717,3.342 -3.93602,5.9159 0.11328,8.0098 2.5564,1.322 5.09238,1.5487 12.75,1.1406 7.88662,-0.4202 11.52869,-1.2251 20.81055,-4.5957 11.0318,-4.006 14.1946,-4.3147 8.2598,-0.8086 -4.0802,2.4103 -13.12375,5.4696 -21.32621,7.2149 -8.37482,1.782 -10.68359,2.959 -10.68359,5.4453 0,1.3855 1.14303,2.266 4.08203,3.1465 5.33432,1.5983 13.48839,0 24.41797,-4.7735 4.4,-1.9234 8.675,-3.7288 9.5,-4.0136 2.9127,-1.0057 -2.5642,2.7697 -9.7031,6.6894 -6.30178,3.4601 -8.01517,3.9551 -13.69143,3.9551 -3.5684,0 -6.73571,0.399 -7.03711,0.8867 -0.7238,1.1712 1.61986,3.0479 5.11718,4.0977 7.63831,2.2927 17.14106,0.3212 30.49416,-6.1192 0,-0.01 0,-0.012 0,-0.018 0.5975,-0.2882 1.0915,-0.4531 1.7051,-0.7598 13.4875,-6.7416 26.5884,-14.8935 38.623,-23.9394 0.01,-0.01 0.016,-0.01 0.023,-0.016 0.2707,-0.2035 0.5234,-0.4206 0.793,-0.625 2.6854,-2.0361 5.3314,-4.1055 7.9004,-6.2246 1.2026,-0.9926 2.3371,-2.0223 3.5117,-3.0313 1.5919,-1.3665 3.209,-2.7192 4.7461,-4.1132 1.6242,-1.4739 3.1582,-2.9853 4.7168,-4.4864 1.0109,-0.9731 2.0672,-1.9287 3.0488,-2.9121 1.629,-1.6325 3.1533,-3.2958 4.6973,-4.9531 0.9307,-0.99879 1.9203,-1.98176 2.8184,-2.98829 13.1878,-14.77987 20.2324,-26.46044 20.2324,-33.55274 0,-1.36847 -0.9978,-4.26274 -2.2168,-6.43164 -1.81,-3.22037 -1.9657,-4.09806 -0.8477,-4.78906 2.7582,-1.7046 -1.0583,-25.3037 -7.6074,-47.04101 -6.4949,-21.55714 -17.7171,-41.51972 -29.5762,-52.61329 -5.7003,-5.33237 -14.308,-11.73804 -16.9629,-12.62304 -0.567,-0.1891 0.2556,-2.65506 1.8418,-5.51953 2.6922,-4.862 3.2663,-5.30063 9.3692,-7.16993 20.2717,-6.20917 34,-25.67012 34,-48.19726 0,-16.16277 -6.6726,-27.6304 -19.5,-33.51367 -5.0331,-2.3085 -7.3167,-2.74408 -14.166,-2.70508 l -8.166,0.0449 -1.8301,-4.10156 c -2.8671,-6.4246 -15.6894,-22.85084 -23.1055,-29.59961 -3.7036,-3.3703 -10.4483,-8.61543 -14.9883,-11.6582 -8.665,-5.8075 -21.5267,-11.85344 -22.0527,-10.36524 -0.1697,0.48 0.64902,2.75088 1.82032,5.04688 l 2.13088,4.17578 -5.01956,-3.84961 c -2.82761,-2.1692 -9.12764,-9.32503 -14.43164,-16.3906 -7.94677,-10.5861 -20.56928,-23.961 -22.61328,-23.961 z m 107.58399,100.97849 c 0.8907,0.0177 2.0861,0.0904 3.6719,0.19141 7.9277,0.5048 13.5814,3.88013 16.8945,10.08203 1.9817,3.7099 2.2715,5.70718 2.2715,15.74805 0,10.33547 -0.2683,12.07019 -2.6367,17.12109 -3.0293,6.46077 -8.4611,12.83695 -14.3067,16.79492 -9.5145,6.44197 -10.0928,4.27766 -1.0957,-4.10351 11.6862,-10.88627 14.1593,-20.07236 8.666,-32.1875 -2.1205,-4.6765 -2.6145,-6.78968 -1.8945,-8.07618 1.5782,-2.82017 -0.4772,-3.88871 -5.9082,-3.07421 -2.6539,0.39787 -5.0492,0.72289 -5.3242,0.71289 -0.275,-0.006 -0.8252,-1.96384 -1.2227,-4.34961 -0.3975,-2.3858 -0.984,-5.40374 -1.3007,-6.70704 -0.4263,-1.7525 -0.4868,-2.20555 2.1855,-2.15234 z m -196.585943,0.0215 c 5.12677,0 5.1385,0.007 4.375,2.75 -0.4211,1.51247 -1.26304,5.06779 -1.86914,7.90039 l -1.10156,5.15039 -3.49024,-1.85743 c -1.9199,-1.02197 -4.22394,-1.87739 -5.11914,-1.90039 -2.1401,-0.0551 -4.35252,2.54234 -2.91992,3.42774 1.7069,1.0549 1.21643,3.73311 -1.65234,9.03711 -3.3495,6.19257 -3.6542,14.02059 -0.7793,19.99219 1.0591,2.19997 4.97565,6.98626 8.70312,10.63476 3.7274,3.6485 6.77735,6.911 6.77735,7.25 0,3.0843 -10.95686,-4.1224 -16.03516,-10.54687 -6.02667,-7.6242 -8.2264,-14.56875 -8.3418,-26.33789 -0.0827,-8.4254 0.23812,-10.62983 2.04102,-14 4.1289,-7.7183 10.51334,-11.5 19.41211,-11.5 z m 130.423833,0.85351 c 7.97451,0.0357 13.61541,1.75553 19.85551,6.04883 5.9069,4.0641 10.4395,9.43616 13.5429,16.05273 2.3489,5.0079 2.6016,6.70856 2.6016,17.54493 0,10.06187 -0.339,12.72914 -2.0899,16.51171 -4.2179,9.1123 -12.5833,14.74138 -23.3613,15.71875 l -5.6758,0.51368 5.3594,5.35937 c 7.7109,7.71087 10.7656,14.77312 10.7656,24.89649 0,9.90417 -3.0513,17.1969 -10.0351,23.98437 -5.2635,5.1155 -16.32182,10.77582 -24.26369,12.41992 -7.5482,1.5625 -29.53345,1.27023 -36.19922,-0.48047 -9.74827,-2.56007 -19.37415,-7.9586 -24.82422,-13.92187 -6.092,-6.66557 -8.55475,-13.26574 -8.59375,-23.03711 -0.0342,-8.63897 3.0957,-15.76303 10.4668,-23.82813 l 4.90234,-5.36328 -4.97461,-0.58984 c -10.57367,-1.2523 -19.262173,-7.26679 -22.980473,-15.91016 -3.0569,-7.10577 -3.42048,-24.62191 -0.67578,-32.49218 5.22197,-14.97407 23.621033,-24.9508 40.888673,-22.16993 7.06987,1.1385 18.12937,6.54618 22.30664,10.90625 l 2.79102,2.91407 5.8125,-5.38086 c 7.39507,-6.8466 14.67005,-9.74027 24.38086,-9.69727 z m 2.90431,19.47461 c -11.08888,-0.36084 -22.39469,7.45221 -22.40431,16.6543 v 3.48242 l 2.59765,-3.82422 c 4.6933,-6.90667 17.00398,-10.62522 25.08596,-7.57812 7.5708,2.85427 13.258,11.9179 13.293,21.1875 v 0 c 0.012,3.16247 0.2712,5.75 0.5743,5.75 1.4147,0 3.4494,-7.51723 3.4394,-12.7168 -0.017,-10.41537 -7.3096,-19.50525 -17.8769,-22.28125 -1.5417,-0.405 -3.121,-0.62228 -4.7051,-0.67383 z m -65.0547,0.10156 c -9.05747,-0.46752 -19.00718,5.16069 -23.441413,13.78125 -2.1649,4.2087 -2.57252,13.58603 -0.81055,18.64063 h -0.004 c 1.6858,4.83607 2.899833,3.75551 2.923833,-2.60156 0.0526,-13.76017 9.89035,-22.93302 23.65429,-22.05665 5.1002,0.3247 6.92657,0.94466 9.93164,3.37696 2.0251,1.639 4.51671,4.53675 5.53711,6.43945 l 1.85547,3.45899 v -3.98438 c -0.007,-7.39347 -6.34452,-13.98486 -15.83789,-16.47266 -1.23882,-0.32465 -2.51467,-0.51524 -3.80859,-0.58203 z m 133.6035,1.57032 c 0.4964,0 1.8758,2.5875 3.0645,5.75 2.7633,7.35197 2.1996,11.94243 -2.1778,17.7539 -1.8373,2.4392 -3.6773,4.44785 -4.0898,4.46485 -0.4125,0.017 -0.75,-4.94031 -0.75,-11.01758 0,-10.75817 1.4437,-16.95117 3.9531,-16.95117 z m -205.804683,1.17968 c 0.54888,0.009 1.19227,0.56648 2.06836,1.57032 1.1166,1.27927 1.67065,5.0449 2.06055,14 0.2937,6.73747 0.43475,12.25 0.31445,12.25 -0.78767,0 -5.64401,-6.05355 -6.97851,-8.69922 -2.018,-4.002 -2.03797,-7.51297 -0.0762,-14.11914 1.04181,-3.50813 1.69655,-5.01703 2.61132,-5.00196 z m 271.333983,2.47657 c -11.237,-0.35655 -22.1619,4.03862 -31.3926,13.90625 -20.343,21.74701 -21.7145,54.49811 -2.8125,67.13085 13.24,8.8485 27.2879,1.74939 27.0996,-13.69335 -0.066,-5.4156 -2.9258,-12.98318 -5.5097,-14.58008 -1.9997,-1.2359 5.2981,-4.33196 10.3164,-4.37696 6.0547,-0.0541 8.8038,1.04703 13.75,5.51563 7.2468,6.54707 13.3455,20.08682 16.7265,37.13086 2.6687,13.45287 2.3765,42.70798 -0.5957,59.81055 -8.1959,47.16085 -27.6681,70.35881 -69.791,83.14261 l -9.2246,2.8007 -1.1367,5.5274 c -2.9133,14.158 -11.2479,30.8689 -23.9238,47.9648 l -6.1895,8.3457 6.3496,-0.705 c 23.4995,-2.6085 55.0982,-13.3419 75.4336,-25.625 44.2395,-26.7219 66.704,-62.29621 72.9024,-115.44536 3.5834,-30.72608 0.3795,-68.15513 -7.9727,-93.15624 -13.0701,-39.12388 -39.3079,-62.90898 -64.0293,-63.69336 z m -199.57226,7.49804 c -0.30098,0.009 -0.67993,0.0881 -1.16015,0.2168 -1.2375,0.3317 -2.77863,0.60523 -3.42383,0.61523 -0.6452,0.007 -2.5577,1.3995 -4.25,3.0918 -5.67697,5.67707 -3.48788,15.03279 4.33789,18.53906 5.92827,2.6561 12.61023,-0.27894 15.95313,-7.00781 1.44217,-2.9029 1.62945,-4.25805 0.81835,-5.93555 -0.5781,-1.1956 -1.08214,-1.61132 -1.11914,-0.92382 -0.1162,2.14647 -5.04158,1.36857 -7.61328,-1.20313 -1.3767,-1.3767 -2.45312,-3.62409 -2.45312,-5.11719 0,-1.70445 -0.18691,-2.30129 -1.08985,-2.27539 z m 60.94727,0.84571 c -3.52974,0 -8.53992,4.27411 -9.35352,7.97851 -0.4262,1.9406 0.0354,4.45296 1.3711,7.47266 1.1069,2.50207 2.14986,4.55445 2.31836,4.56445 0.1684,0.008 2.1066,0.65214 4.30664,1.43164 6.08891,2.1574 10.94971,0.44932 14.63671,-5.14258 2.0033,-3.03827 2.4715,-7.81071 0.8633,-8.80468 -0.55,-0.3399 -1,-0.1411 -1,0.4414 0,0.5825 -1.506,1.0586 -3.3457,1.0586 -3.8951,0 -6.5479,-2.44215 -6.8692,-6.32422 -0.181,-2.1861 -0.7168,-2.67578 -2.92769,-2.67578 z m -27.23438,28.08398 c -0.2423,0.0158 -0.37501,0.084 -0.37304,0.21484 0.009,0.628 3.62681,2.60734 8.03711,4.39844 9.27468,3.767 11.5643,4.26938 9.3457,2.05078 -1.999,-1.99882 -14.66751,-6.81654 -17.00977,-6.66406 z m -7.81054,0.61719 c -5.17231,0.10732 -14.45508,4.16566 -14.45508,6.42187 0,0.9026 0.9584,0.76558 2.27148,-0.32422 1.2494,-1.0369 5.60494,-2.80177 9.67774,-3.92187 5.92558,-1.6295 6.52384,-2.06233 2.99414,-2.17383 -0.15784,-0.005 -0.32143,-0.005 -0.48828,-0.002 z m -5.56055,7.79101 c -0.29908,0.0229 -0.57854,0.08 -0.82812,0.17578 -1.2647,0.4853 -0.64122,1.52992 2.98828,5.00782 2.52247,2.41707 4.58789,4.82847 4.58789,5.35937 0,0.5308 0.48442,0.96485 1.07812,0.96485 1.2363,0 0.30466,-5.41124 -1.40234,-8.14454 -1.06118,-1.69917 -3.48604,-3.07443 -5.47461,-3.33203 -0.33143,-0.0429 -0.65014,-0.0542 -0.94922,-0.0312 z m 20.76953,0.50782 c -3.37717,0 -5.60064,2.64209 -6.65234,7.90039 l -0.65821,3.29296 5.14454,-5.14453 c 2.82927,-2.82937 5.14453,-5.3469 5.14453,-5.5957 0,-0.2488 -1.34122,-0.45312 -2.97852,-0.45312 z m -54.54883,38 c -0.3227,0 0.21311,1.35554 1.19141,3.01171 3.8586,6.532 16.43713,14.05174 27.5332,16.46094 8.40567,1.8253 23.66727,1.83654 32.30274,0.0234 9.70527,-2.0376 20.55831,-7.57784 24.99221,-12.75781 1.9803,-2.3136 3.1358,-4.36168 2.5683,-4.55078 -0.5675,-0.1892 -4.6122,1.03691 -8.9882,2.72461 -22.56375,8.70147 -48.73158,7.83308 -73.10552,-2.42579 -3.24857,-1.36727 -6.17144,-2.48632 -6.49414,-2.48632 z m 8.33594,74.36914 c 0.0539,-0.0612 0.27891,0.0428 0.69141,0.33398 2.85442,2.01479 5.49592,4.70061 8.41992,8.5625 2.4794,3.27469 0.5922,1.7118 -5.41992,-4.49023 -2.475,-2.55315 -3.85313,-4.22267 -3.69141,-4.40625 z" /><g
         id="g23972"
         transform="matrix(0.95061669,-0.5488388,0.5488388,0.95061669,-53.380803,741.16638)"><path
           style="fill:#1c484b;fill-opacity:1;stroke-width:0.352778"
           d="m 102.41047,265.96419 c -4.096519,-0.64062 -8.287569,-0.87236 -12.248289,-2.19067 -1.51636,-0.282 -2.96072,-0.74052 -4.36592,-1.37815 -11.23133,-3.4903 -21.15766,-10.41108 -29.24354,-18.85527 -1.16194,-1.15354 -2.32246,-2.31063 -3.40789,-3.53735 0.16802,-1.17841 -1.43247,-1.67627 -1.92385,-2.62223 -0.72755,-1.13726 -1.48063,-2.23824 -2.17174,-3.38541 -0.92996,-0.96464 -1.15267,-2.3361 -2.07923,-3.30651 -0.61877,-0.93811 -0.83856,-2.06919 -1.40513,-3.0445 -0.46553,-1.0475 -1.12764,-2.001 -1.64294,-3.01218 -0.22092,-1.51898 -1.11759,-2.76108 -1.57547,-4.15814 -0.44043,-1.33049 -0.97067,-2.62703 -1.23057,-4.00901 -0.38018,-1.40548 -0.86582,-2.81204 -0.87175,-4.28442 -0.58225,-1.61299 -0.73561,-3.32899 -0.97108,-5.01046 -0.50031,-1.89575 -0.30752,-3.86927 -0.44284,-5.80703 -0.17049,-5.08399 -0.21724,-10.20905 0.68516,-15.23477 0.50158,-2.94286 1.16694,-5.86881 2.11653,-8.69947 0.60908,-1.55452 0.86102,-3.22701 1.53453,-4.76393 1.16293,-2.90952 2.58102,-5.71369 4.23372,-8.37555 0.95612,-1.81003 1.83061,-3.66677 2.972,-5.37388 1.86414,-2.91485 3.45546,-5.99301 5.35525,-8.88643 1.67083,-3.15605 3.47673,-6.24156 5.41886,-9.23855 0.69396,-1.34363 1.5046,-2.63136 2.46888,-3.79457 1.36592,-2.5099 2.70928,-5.03628 4.31434,-7.40593 1.77215,-2.59618 3.12659,-5.46696 5.07802,-7.94058 0.55571,-1.13397 1.02846,-2.3055 1.7163,-3.3722 1.72492,-3.1551 3.44878,-6.35403 5.86769,-9.04549 2.25829,-2.74069 4.67133,-5.39994 7.55069,-7.50389 1.68495,-0.63384 2.96452,-2.013242 4.67766,-2.607271 1.72865,-0.852645 3.61216,-1.282669 5.36645,-2.071488 1.28729,-0.116179 2.165439,-1.12475 3.329539,-1.51729 1.09758,1.19598 2.5623,-0.366469 3.00313,-1.430102 1.77528,-2.433002 6.10647,-2.226854 7.50545,0.486864 0.76424,1.392486 2.40058,1.409515 3.73702,1.758923 1.57493,0.537811 3.14483,1.135648 4.78931,1.403771 1.74608,0.773285 3.54256,1.436227 5.18775,2.417473 2.32628,1.26826 4.4857,2.85049 6.29519,4.79199 2.64073,2.55496 5.12152,5.32777 7.03038,8.47898 1.19641,2.13873 2.1258,4.42751 3.49447,6.46729 0.81009,1.34135 1.67097,2.64881 2.51652,3.96732 0.42062,1.39633 1.59973,2.29643 2.17487,3.64336 0.95975,1.97752 2.4741,3.63787 3.32302,5.67526 0.94575,0.95076 1.23097,2.33394 2.06567,3.37018 0.76968,1.25852 1.55755,2.49479 2.35125,3.72779 0.61562,1.26564 1.54406,2.33703 2.16982,3.60279 0.85296,1.18192 1.22907,2.58534 2.26044,3.67172 0.89803,2.03543 2.21739,3.83777 3.27316,5.7885 1.02872,1.641 2.10042,3.25301 3.05239,4.94196 1.12294,1.84901 2.13403,3.76827 3.20294,5.64357 1.60404,2.03282 2.4251,4.51542 3.49317,6.8416 1.84751,4.32195 3.36614,8.8069 4.12851,13.4555 2.15014,11.71911 1.77381,24.06789 -2.25092,35.35536 -2.50153,7.18797 -6.27299,13.90255 -10.90031,19.93206 -1.10618,1.69752 -2.72856,2.96273 -4.09325,4.43911 -3.3658,3.38054 -6.80539,6.74818 -10.84658,9.3249 -9.87116,6.57674 -21.23284,10.93057 -32.98308,12.5696 -4.33432,0.56933 -8.74579,0.68769 -13.0857,0.10685 z m 13.93472,-9.19699 c 5.40464,-0.80492 10.73066,-2.20006 15.82802,-4.1643 1.36439,-0.92113 2.89286,-1.45536 4.38457,-2.09972 2.14602,-1.13369 4.17901,-2.47067 6.27885,-3.68259 2.82434,-1.94542 5.40723,-4.21856 7.9541,-6.50786 9.65917,-9.04249 16.14007,-21.42727 17.93936,-34.54561 1.7191,-12.29605 -0.72857,-25.05546 -6.53119,-36.00271 -0.98001,-1.91904 -2.11484,-3.75495 -3.37809,-5.49751 -2.5368,-4.49627 -5.21392,-8.91347 -7.83777,-13.36032 -5.08386,-8.54932 -10.24441,-17.05329 -15.48437,-25.50751 -2.02043,-3.25776 -3.60278,-6.78689 -5.95522,-9.83362 -3.83446,-5.17658 -9.17748,-9.53998 -15.55408,-11.02475 -5.42516,-1.28164 -11.23575,-0.48933 -16.246689,1.89793 -1.84491,0.74351 -3.661,1.6325 -5.14627,2.97708 -4.36459,3.11767 -7.27828,7.78079 -9.82572,12.40332 -3.64389,6.87995 -8.05429,13.31197 -11.98372,20.02632 -4.05072,6.71078 -8.1372,13.40085 -12.04222,20.19803 -2.70722,4.38707 -5.59799,8.71235 -7.45896,13.54962 -5.49331,13.50036 -5.39049,29.03323 -0.26724,42.62815 4.26904,11.48011 12.07871,21.68565 22.3134,28.46908 10.05545,6.82018 22.15642,10.62357 34.320439,10.58009 2.90437,0.013 5.80875,-0.16239 8.6928,-0.50312 z"
           id="path8042" /><path
           id="path8038"
           style="fill:#d35821;fill-opacity:1;stroke-width:0.352778"
           d="m 108.27151,160.42773 c -4.58646,0.2015 -8.774959,2.49729 -12.418289,5.13104 -5.91286,4.3903 -10.81211,10.12324 -14.37252,16.56076 -2.57669,4.77877 -4.53222,10.16214 -4.135,15.66945 0.18551,3.41773 2.54755,6.23259 5.07819,8.31863 6.15384,5.04849 14.91475,6.81044 22.488239,4.26348 5.98896,-1.97398 10.80495,-6.74308 13.3881,-12.43315 2.70429,-5.78427 3.27811,-12.3551 2.52956,-18.64057 -0.40934,-3.87417 -0.21239,-7.96127 -1.29912,-11.721 -0.5989,-2.15998 -2.43932,-3.92543 -4.40479,-5.02737 -1.96701,-1.22082 -4.18097,-2.21021 -6.54539,-2.12242 -0.10279,0.003 -0.20642,-0.005 -0.30898,0.001 z m -6.91992,7.10157 c 0.66546,0.12982 0.27687,1.05112 0.0581,1.4273 -0.8467,1.36543 -2.290159,2.20595 -3.315639,3.42638 -4.9623,5.29169 -8.43695,11.93697 -10.16126,18.9725 -0.56142,2.049 -0.62871,4.1915 -1.11831,6.24804 -0.6884,0.15475 -1.80064,-0.005 -1.90625,-0.89258 -0.33119,-2.10192 0.41882,-4.18841 1.00108,-6.18053 1.20911,-3.60903 2.92552,-7.28348 4.8177,-10.69683 2.20466,-3.87517 4.6034,-7.74319 7.89997,-10.79256 0.79408,-0.641 1.653229,-1.45712 2.724609,-1.51172 z"
           sodipodi:nodetypes="ccccccccccccccccccccccc" /><path
           id="path8044"
           style="fill:#863519;fill-opacity:1;stroke-width:0.352778"
           d="m 117.95315,164.43555 c -0.73799,0.12379 -0.46674,1.04618 -0.24081,1.52397 1.79063,4.8994 2.28899,10.19198 2.44487,15.34217 0.0774,4.59057 -0.16633,9.32093 -1.32125,13.72175 -0.79097,2.98403 -2.50439,5.53307 -4.54492,7.79297 -6.04812,6.52731 -15.846889,9.15916 -24.311019,6.62191 -4.67945,-1.3557 -8.79644,-4.52226 -11.25199,-8.73781 -0.38479,-0.64458 -0.90301,-1.19415 -1.35301,-1.79231 0.18681,5.73378 2.72298,11.27075 6.70447,15.3663 5.17547,5.43247 12.45052,8.55615 19.849949,9.35605 7.27136,0.90445 15.00197,0.0269 21.37991,-3.78406 5.90658,-3.43267 10.20642,-9.41114 11.70048,-16.0656 1.85524,-7.84257 0.10286,-16.21299 -3.77234,-23.17672 -3.54821,-6.41806 -8.76051,-11.83502 -14.72575,-16.05144 -0.17036,-0.0712 -0.37236,-0.18946 -0.55859,-0.11718 z m 13.0332,25.54492 c 0.78007,0.20736 0.76536,1.23467 0.92383,1.88476 0.72593,4.96955 -0.0823,10.20674 -2.64533,14.56098 -3.49218,6.13333 -9.9763,10.20129 -16.84421,11.4508 -3.16912,0.64152 -6.42458,0.57734 -9.55428,0.14613 -2.47834,-0.35646 -5.039309,-0.88661 -7.202269,-1.95478 -0.53506,-0.33676 -1.40053,-0.68558 -1.39258,-1.41211 0.26556,-1.01821 1.53855,-0.70266 2.28423,-0.52346 2.77579,0.90591 5.650529,1.70852 8.598749,1.90353 6.59903,0.56627 13.55994,-1.42156 18.3837,-6.07536 4.18516,-3.93981 6.40431,-9.71905 6.30132,-15.43205 0.0664,-1.43715 -0.19165,-2.96062 0.3211,-4.33273 0.16581,-0.26445 0.55899,-0.22122 0.82574,-0.21571 z" /><path
           id="path8046"
           style="fill:#c0dd6f;fill-opacity:1;stroke-width:0.352778"
           d="m 106.52542,107.25 c -4.49183,-0.088 -8.588285,2.17261 -12.188331,4.63749 -2.344814,1.65793 -4.307431,3.83548 -5.888787,6.22311 -1.346761,2.20325 -2.841309,4.34134 -3.771343,6.76734 -1.220452,2.61548 -3.117832,4.82157 -4.511657,7.33654 -2.687638,4.52453 -5.295459,9.09997 -8.186365,13.49969 -1.736119,2.9028 -3.345357,5.88781 -5.256908,8.68015 -1.201647,2.32079 -2.577042,4.54392 -3.975545,6.74877 -2.380274,3.99006 -4.911845,7.89933 -7.045981,12.02925 -0.9681,2.34039 -1.930659,4.68867 -2.764028,7.07988 -1.909555,6.15906 -2.58393,12.64262 -2.601877,19.07066 0.0166,3.22436 0.413235,6.43802 1.078906,9.58896 0.434179,3.1485 1.477866,6.17221 2.526581,9.15843 1.12085,2.8986 2.445582,5.72996 4.160948,8.32767 4.875566,8.26318 12.005891,15.12699 20.297655,19.92277 3.561108,2.18069 7.435745,3.80301 11.398708,5.09355 2.913678,0.90494 5.869839,1.71523 8.905069,2.08368 3.968855,0.56119 7.990035,1.02608 12.000875,0.70434 4.45284,-0.22757 8.94092,-0.70676 13.18263,-2.15285 3.2398,-0.93933 6.57366,-1.75455 9.49599,-3.50485 1.62835,-0.88703 3.3533,-1.58422 5.01901,-2.38731 2.11036,-1.38434 4.19118,-2.82427 6.17927,-4.37876 3.25162,-2.59486 6.31591,-5.44719 8.91109,-8.70776 4.4726,-5.25548 7.43837,-11.58903 9.86193,-17.9982 0.76424,-2.26752 1.25916,-4.61556 1.84069,-6.93211 1.53027,-10.04111 1.12222,-20.57361 -2.50472,-30.14235 -0.86903,-2.29465 -1.77652,-4.58587 -2.98679,-6.72406 -0.67554,-1.43413 -1.41035,-2.84637 -2.37215,-4.11075 -1.09833,-1.73931 -3.09446,-4.28974 -4.13946,-6.06161 -1.12627,-0.55377 -0.57911,1.8123 -0.15611,2.59019 0.45641,0.75633 0.87363,1.51196 1.12557,2.38289 3.92346,10.57825 6.38337,21.88156 5.70799,33.2115 -0.63651,11.09436 -5.14921,22.04914 -13.00958,29.97669 -6.56616,6.88709 -15.16085,12.05416 -24.59996,13.70556 -10.32064,1.82791 -21.42323,-0.18314 -30.118541,-6.14324 -7.189455,-4.84809 -12.372359,-12.76944 -13.394584,-21.43362 -0.188517,-1.95785 -1.203398,-3.68256 -2.194461,-5.33037 -1.589813,-3.18599 -2.454407,-6.68337 -3.047983,-10.17722 -0.589608,-4.20186 0.213998,-8.44207 1.292581,-12.4962 0.882648,-3.10306 2.283953,-6.04152 4.013193,-8.75819 0.986649,-2.01533 2.20174,-3.91411 3.677387,-5.60685 2.25477,-2.82181 4.785297,-5.42983 7.641107,-7.64781 1.356146,-1.21145 2.777436,-2.35574 4.370069,-3.2431 2.154425,-1.32502 4.227535,-2.79031 6.450172,-3.99923 3.54841,-1.75215 7.76579,-2.28114 11.5882,-1.17555 2.49884,0.80085 4.63546,2.37157 6.83338,3.75317 0.64529,0.81605 1.98252,0.8054 2.58456,-0.0521 0.70863,-0.80052 0.43248,-1.90997 0.63168,-2.87121 1.49762,-13.48647 1.53078,-27.27051 -1.36123,-40.58032 -0.64658,-2.69719 -1.53231,-5.42369 -3.26949,-7.63164 -1.78928,-1.63418 -4.34156,-1.66244 -6.57462,-2.2038 -1.6081,-0.22415 -3.23708,-0.16919 -4.85474,-0.12125 z m -13.972659,26.48438 c 0.827716,0.88641 0.211766,2.19318 -0.489261,2.94905 -3.789411,4.25712 -7.825941,8.35339 -10.909304,13.17678 -1.71149,2.23003 -3.496988,4.4327 -4.773134,6.95215 -1.617074,2.55447 -3.126797,5.17615 -4.465579,7.88741 -1.073708,2.05611 -1.999087,4.18767 -2.905505,6.31878 -0.626395,1.09011 -0.48743,2.72251 -1.754204,3.36263 -0.911821,0.44069 -1.892406,-0.46547 -1.868065,-1.39498 -0.147065,-1.01398 0.535557,-1.8166 1.012211,-2.62652 0.829962,-1.64711 1.319323,-3.45094 2.300414,-5.0259 0.876555,-1.5967 1.881494,-3.16969 2.288606,-4.96856 1.579363,-2.05622 2.57126,-4.48658 4.09322,-6.58145 2.565291,-4.1242 5.583913,-7.93857 8.491482,-11.82145 2.517616,-3.20211 5.444317,-6.15521 8.979119,-8.22794 z"
           sodipodi:nodetypes="ccccccccccccccccccccccccccccccccccccccccccccccccccccccccccccccccccc" /><path
           id="path8048"
           style="fill:#68a043;fill-opacity:1;stroke-width:0.352778"
           d="m 117.35745,109.02539 c -0.70739,0.45424 -0.42906,1.41319 0.0276,1.9439 0.51374,0.6298 1.0674,1.22986 1.38711,1.99155 1.10238,2.30728 2.08502,4.69176 2.60756,7.20447 0.69439,3.03711 0.83462,6.15872 0.94986,9.26061 0.37446,8.36139 0.35144,16.75011 -0.2997,25.09731 -0.21173,2.21156 -0.5637,4.41091 -0.65422,6.6331 0.29651,1.70126 1.97728,2.52266 3.20919,3.49029 6.43138,5.29038 11.64691,12.13127 14.69357,19.90517 1.25831,3.27321 2.23631,6.68914 2.55859,10.19068 0.55605,6.84761 -1.47306,13.84563 -5.46674,19.41858 -0.99098,1.26396 -1.83848,2.64999 -3.04095,3.73378 -2.10188,2.01714 -4.57039,3.59658 -7.06271,5.08188 -2.23582,1.22245 -4.64615,2.10444 -7.07537,2.85724 -3.89549,1.20501 -7.99491,1.4797 -12.049,1.53109 -3.26315,0.0245 -6.53567,-0.31258 -9.692596,-1.15803 -1.932871,-0.48476 -3.838002,-1.10595 -5.621854,-2.00113 -1.775153,-0.76196 -3.530067,-1.58853 -5.123493,-2.6912 -3.140371,-2.05239 -5.801087,-4.79315 -7.87818,-7.90932 -0.22017,-0.47255 -1.168711,-1.22686 -0.95898,-0.18544 0.08358,3.99794 1.230769,7.93947 3.165079,11.43092 4.737897,9.31434 13.699978,16.30852 23.836094,18.79058 9.90119,2.57428 20.73509,1.0999 29.67395,-3.84127 15.04655,-8.02781 25.28008,-24.25331 26.18611,-41.26705 0.8406,-12.58206 -2.01292,-25.2267 -7.19285,-36.66074 -4.01844,-8.80055 -9.571,-16.76325 -14.45317,-25.08432 -1.42581,-2.10854 -2.62305,-4.35994 -3.99513,-6.50259 -2.25149,-3.72449 -4.44727,-7.48331 -6.69883,-11.20707 -1.7769,-2.70199 -3.66105,-5.42761 -6.22147,-7.44779 -1.50638,-0.90659 -3.0301,-1.79946 -4.61673,-2.55492 l -0.0954,-0.0281 z m 8.49609,28.25 c 2.34808,0.98527 3.58691,3.34905 5.34325,5.04675 6.42033,7.51557 11.33065,16.17796 15.63299,25.03862 2.2213,4.69562 4.31858,9.54534 5.08205,14.72178 -0.17203,1.14473 -1.79303,0.9824 -2.34806,0.23373 -0.69391,-0.93583 -0.53763,-2.17932 -0.9899,-3.21672 -2.11846,-7.28737 -5.56538,-14.0978 -9.22406,-20.71605 -2.06804,-3.65564 -4.45861,-7.12081 -7.0483,-10.42448 -1.96912,-2.78076 -4.22854,-5.33506 -6.50874,-7.86027 -0.42568,-0.67093 -1.50434,-1.32766 -1.10774,-2.21698 0.21523,-0.41202 0.69881,-0.70339 1.16851,-0.60638 z m 22.11133,77.68359 c 0.75704,0.23108 0.84042,1.16753 0.52673,1.78094 -0.37134,0.83296 -1.00821,1.50644 -1.4851,2.27873 -2.06495,2.9114 -4.5599,5.47948 -7.12567,7.94774 -1.13505,1.08078 -2.21503,2.24249 -3.48489,3.16492 -1.66632,1.16074 -3.08514,2.66036 -4.88378,3.6334 -2.40156,1.54992 -4.86431,3.0716 -7.58917,3.98667 -0.80684,0.11733 -1.33108,-0.78511 -1.01278,-1.47747 0.21017,-0.85613 1.13898,-0.98649 1.75667,-1.4271 3.52939,-2.08109 7.09908,-4.14627 10.22659,-6.8165 1.66345,-1.41425 3.14573,-3.02308 4.70878,-4.54431 1.50855,-1.53034 2.97284,-3.10636 4.34324,-4.76229 1.44811,-0.87573 1.43146,-3.10028 3.1111,-3.70487 0.28888,-0.1067 0.60737,-0.0965 0.90828,-0.0599 z" /><path
           id="path8050"
           style="fill:#062627;fill-opacity:1;stroke-width:0.352778"
           d="m 107.75586,88.636719 c -3.49971,0.123469 -7.01459,2.769816 -7.42369,6.36856 -0.19937,1.282108 1.39233,2.184913 2.46408,1.565302 1.19906,-0.368752 1.9774,-1.429173 2.5768,-2.459253 1.76631,-1.774263 5.05506,-1.053211 6.26172,1.03125 0.9674,1.059047 2.53108,1.979258 3.97641,1.452613 0.95047,-0.648133 0.58085,-1.904396 0.18891,-2.765443 -1.19947,-3.224684 -4.62989,-5.374684 -8.04423,-5.193029 z m -1.09375,14.470701 c -7.122268,0.31788 -13.738915,4.12024 -18.423184,9.36495 -2.394663,2.59276 -4.217944,5.63515 -5.890187,8.71343 -6.709459,11.73045 -14.101554,23.0515 -20.902746,34.72749 -3.496962,5.97102 -6.975589,11.97493 -9.961511,18.2235 -3.714768,8.44348 -5.195184,17.78248 -4.834091,26.97259 0.659045,14.41093 6.842375,28.53846 17.174301,38.63914 10.379577,10.23337 24.418191,16.44605 38.846098,18.04368 8.60665,0.98814 17.37973,-0.28306 25.52671,-3.14344 12.10782,-4.26539 23.1711,-11.94348 30.6503,-22.45859 7.89366,-10.96558 12.08209,-24.70376 10.9505,-38.22399 -0.83467,-10.79271 -4.6373,-21.24514 -10.41755,-30.36307 -7.42134,-12.31778 -14.70718,-24.72135 -22.32264,-36.92533 -3.10776,-5.289 -5.92015,-10.8978 -10.39018,-15.20711 -5.25033,-5.20546 -12.49735,-8.73109 -20.00582,-8.36325 z m 1.46094,4.31446 c 5.83676,-0.0342 11.44591,2.65791 15.5684,6.70026 1.74891,1.6293 3.29515,3.52346 4.50826,5.64459 1.31692,1.9134 2.30457,4.02299 3.31108,6.10397 0.9725,1.5193 2.09189,2.94832 2.91109,4.56082 1.55086,2.37706 3.0357,4.8003 4.54684,7.20036 1.05586,1.9655 2.13123,3.93059 3.47177,5.72027 1.61177,2.62633 2.88692,5.45902 4.72681,7.94264 1.52361,2.57341 2.8284,5.28119 4.60293,7.69893 4.48323,7.24249 9.32234,14.39676 11.69648,22.66532 3.93493,13.10325 2.84844,27.58326 -3.08076,39.91833 -3.22009,6.68879 -7.7958,12.66082 -13.37423,17.59646 -5.61735,4.99029 -12.43008,8.96779 -19.54048,11.46706 -5.68033,1.9834 -11.74695,3.08541 -17.81259,3.28396 -8.5676,0.22286 -17.18372,-1.60141 -24.969067,-5.04269 -10.504382,-4.64566 -19.838853,-12.32423 -25.876974,-22.19617 -2.120656,-3.46257 -3.778041,-7.00382 -5.113506,-10.86883 -0.797428,-2.32955 -1.354102,-4.72814 -2.048712,-7.08864 -0.972836,-6.40255 -0.833674,-12.93281 -0.235592,-19.34945 0.651163,-5.3477 2.525877,-10.40279 4.941941,-15.20107 6.197268,-12.83337 13.888705,-24.84253 21.28112,-37.01304 3.195971,-5.09989 6.495307,-10.14476 9.265633,-15.49519 2.622565,-4.74511 6.229446,-9.14956 11.118629,-11.67487 3.101528,-1.6366 6.590218,-2.54874 10.100928,-2.57302 z M 91.9375,133.68945 c -0.761491,0.13399 -1.371558,0.7596 -2.017266,1.1736 -3.008946,2.29504 -5.250389,5.39377 -7.667397,8.26554 -6.328479,7.93857 -11.587236,16.71061 -15.741839,25.96963 -0.794608,1.55191 -1.718452,3.35991 -1.120373,5.13811 0.589887,1.14342 2.435821,0.82947 2.864699,-0.30252 0.924458,-1.64953 1.396504,-3.50613 2.287627,-5.17523 4.31215,-9.34883 10.023639,-18.19304 16.728533,-26.00272 1.700903,-2.00517 3.519825,-3.87367 5.316022,-5.81951 0.654477,-0.71426 1.309408,-1.961 0.545306,-2.81135 -0.322549,-0.29114 -0.760406,-0.45423 -1.195312,-0.43555 z m 33.48633,3.10938 c -0.84895,0.11244 -1.78088,1.20693 -1.04492,1.98047 2.03921,3.23451 4.96918,5.78751 7.04669,8.99453 3.66026,4.3862 6.66147,9.35919 9.32768,14.42908 2.97995,5.20942 5.203,10.8193 7.10873,16.49895 0.47264,1.41239 0.89145,2.84144 1.31572,4.26884 0.66012,0.76939 2.21981,1.1287 2.74415,0.0332 0.48617,-2.17724 -0.34288,-4.38012 -0.93137,-6.46011 -1.53076,-5.90459 -4.44852,-11.30485 -7.07917,-16.76784 -1.84255,-3.55041 -4.23662,-6.76983 -6.22179,-10.23698 -1.15625,-1.83074 -2.68868,-3.38938 -3.9989,-5.10921 -1.48186,-1.80539 -3.01518,-3.57408 -4.41917,-5.43954 -1.13661,-0.93 -2.21413,-2.31171 -3.84765,-2.1914 z m -17.78711,19.34179 c -4.85576,0.18155 -9.214581,2.67641 -13.121962,5.35866 -7.264849,4.93287 -13.375798,11.60169 -17.52257,19.34838 -1.466169,3.18554 -2.844727,6.47074 -3.266641,9.98175 -0.498822,3.42334 -0.661729,6.92043 -0.282188,10.36395 0.444428,3.11147 1.575017,6.08297 2.831598,8.9478 1.814165,3.9952 4.548608,7.58901 7.98495,10.3248 2.262588,1.5716 4.587179,3.09332 7.138315,4.1639 5.44567,2.32979 11.394248,3.35184 17.303088,3.30951 2.35032,0.0777 4.74367,0.0885 7.01545,-0.59804 3.21177,-0.50478 6.34784,-1.49779 9.1978,-3.07612 5.36742,-2.91714 9.9146,-7.27319 13.27294,-12.35896 2.36672,-3.71595 4.14709,-7.90975 4.60083,-12.32057 0.15983,-2.96614 -0.38533,-5.91202 -0.786,-8.83686 -0.58136,-2.52707 -1.61015,-4.93094 -2.27649,-7.42959 -2.06881,-4.14779 -4.48626,-8.13041 -7.40444,-11.73848 -2.21166,-2.91676 -4.84466,-5.49662 -7.7795,-7.6819 -4.10035,-3.24249 -8.59018,-6.27956 -13.74633,-7.49624 -1.03746,-0.2135 -2.10078,-0.29173 -3.15885,-0.26199 z m 0.58594,4.73243 c 4.43329,0.11598 8.37306,2.58117 11.64393,5.38332 5.96205,4.74177 11.63523,10.27065 14.79644,17.32179 1.88942,4.10603 2.9586,8.738 2.89211,13.28197 -0.0314,6.01206 -2.26567,12.10924 -6.36143,16.59214 -5.27934,5.88435 -13.0328,9.52982 -20.96357,9.58261 -3.3933,0.10906 -6.7672,-0.10242 -10.03162,-0.76886 -7.352502,-1.48942 -14.411127,-5.57333 -18.520185,-11.97018 -2.89518,-4.51555 -4.121207,-9.99348 -3.738882,-15.3642 0.596868,-8.49583 4.868799,-16.39525 10.71471,-22.44998 3.881216,-4.01242 8.470366,-7.32858 13.422367,-9.89201 1.93123,-0.91787 3.96117,-1.79819 6.14613,-1.7166 z m 22.4082,28.60547 c -1.242,0.45972 -1.268,2.00762 -1.34652,3.11855 -0.006,1.7157 0.22538,3.43893 -0.0675,5.14512 -0.28165,2.40221 -1.11616,4.98654 -2.37424,7.17386 -1.90347,3.40966 -4.86426,6.19334 -8.39826,7.9275 -5.92438,2.98426 -12.95579,3.17853 -19.282895,1.48103 -1.51748,-0.52888 -3.244515,-1.36493 -4.817655,-0.57263 -0.728666,0.53228 -0.07777,1.4905 0.325568,2.02843 1.242721,1.38381 3.215812,1.58006 4.874915,2.18514 9.693647,3.04001 21.063967,-0.0958 27.673727,-7.84957 4.55852,-5.30299 6.71704,-12.84042 4.89532,-19.6765 -0.15252,-0.64031 -0.83267,-1.12754 -1.48242,-0.96093 z m 17.38086,24.94726 c -1.49965,0.006 -2.4942,1.29468 -3.22828,2.44106 -4.93763,6.45865 -11.04112,11.93936 -18.03149,16.09605 -1.43422,1.16269 -3.65467,1.38465 -4.52279,3.20074 -0.68587,0.95698 0.33178,2.29119 1.42912,2.09207 1.62547,-0.16192 2.95424,-1.23434 4.40373,-1.89044 4.35991,-2.35648 8.24275,-5.4701 12.03399,-8.63373 3.31199,-2.56796 5.61845,-6.13846 8.03264,-9.50382 0.57801,-0.92997 1.61469,-2.05404 1.01198,-3.20623 -0.24226,-0.37665 -0.6804,-0.61304 -1.1289,-0.5957 z" /><path
           id="path22990"
           style="fill:#ffffff;fill-opacity:1;stroke:none;stroke-width:1.18911;stroke-linecap:round;stroke-opacity:1"
           d="m 101.02019,167.16499 c -0.77981,0.0359 -1.394083,0.58023 -1.991028,1.02186 -1.590085,1.2074 -2.875304,2.75842 -4.083873,4.33402 -2.223262,2.95469 -4.12147,6.14333 -5.808991,9.43033 -1.516568,2.99649 -2.889964,6.0782 -3.888631,9.28889 -0.434224,1.46526 -0.838211,2.96531 -0.862637,4.503 0.0048,0.70115 0.107725,1.50243 0.685228,1.97559 0.42073,0.29775 0.960795,0.39765 1.468644,0.37568 0.421095,-0.0361 0.680657,-0.43028 0.76843,-0.80925 0.26122,-1.03788 0.386733,-2.10415 0.568235,-3.15779 0.443005,-2.92484 1.2691,-5.78609 2.408626,-8.5146 1.273522,-3.02693 2.778442,-5.97164 4.670735,-8.66176 1.178612,-1.675 2.540256,-3.28127 3.983325,-4.76177 0.993773,-1.03118 2.077837,-1.99608 2.883577,-3.18986 0.25358,-0.39356 0.50309,-0.91238 0.26393,-1.36925 -0.19759,-0.3855 -0.66642,-0.4919 -1.06557,-0.46509 z" /></g><path
         id="path25450"
         style="fill:#000000;fill-opacity:1"
         d="m 112.93873,796.07996 c -10.42569,0.4508 -26.617793,3.41513 -53.564453,9.46093 -22.33498,5.01109 -25.40483,5.73524 -24.60742,5.11914 l -0.13672,0.0391 -32.9062502,7.50195 c -1.01819998,6.09999 -1.68414998,12.00291 -1.72070998,17.39063 -0.0922,13.57358 1.80759998,18.77813 8.46288998,23.17773 3.9417002,2.6057 4.9664002,2.81358 13.3379002,2.70898 14.82908,-0.1852 30.51454,-6.32998 57.13671,-22.38476 6.7074,-4.045 12.73399,-7.00024 14.27149,-6.99024 1.4637,0.006 4.87041,0.68101 7.570313,1.5 6.04389,1.8335 11.58447,1.94678 11.60547,0.23829 0.0116,-0.9482 0.21816,-0.93064 0.85156,0.0684 0.6148,0.9696 1.73238,1.08365 4.23438,0.43555 2.67739,-0.6937 3.51798,-1.50351 3.95508,-3.8164 0.52739,-2.7906 0.5919,-2.8256 1.3164,-0.6875 0.8716,2.57249 1.52525,2.70976 5.11914,1.07226 1.4221,-0.648 2.37815,-1.72192 2.12305,-2.38672 -0.2882,-0.7482 0.20297,-1.03414 1.29687,-0.74804 0.9811,0.2565 3.13328,-0.69399 4.85938,-2.14649 l 2.90625,-2.44726 0.1543,-0.70313 c 0,0 3.49176,-2.52878 2.52148,-6.9375 -0.21865,-0.14221 -0.56165,-1.07102 -1.22266,-2.92187 -1.85479,-5.1936 -8.68052,-12.41848 -13.94921,-14.76368 -3.17974,-1.41536 -7.35982,-2.04977 -13.61524,-1.77929 z m 3.24414,13.36523 c 0.0539,-0.0612 0.27891,0.0428 0.69141,0.33399 2.85449,2.01479 5.49592,4.7006 8.41992,8.5625 2.4794,3.27469 0.59227,1.71186 -5.41992,-4.49024 -2.475,-2.55315 -3.85313,-4.22267 -3.69141,-4.40625 z m 114.61912,48.02344 c -4.2099,6.04055 -8.2505,12.50777 -12.3672,20.12307 -2.3786,4.4 -4.4314,8.1295 -4.5625,8.2871 -0.131,0.1576 -3.5678,-0.8314 -7.6367,-2.1973 -9.6765,-3.2483 -32.60417,-6.0052 -37.95506,-4.5644 -6.4633,1.7404 -8.97483,7.7926 -4.80274,11.5703 2.2741,2.0592 9.07778,2.4129 18.00391,0.9375 3.51449,-0.5809 5.47849,-0.3477 8.27339,0.9785 l 3.6641,1.7383 -9.68944,3.375 c -8.56804,2.9841 -10.87908,3.375 -19.94727,3.375 -9.57479,0 -10.45963,0.1729 -13.33203,2.5898 -3.9717,3.342 -3.93602,5.9159 0.11328,8.0098 2.5564,1.322 5.09231,1.5487 12.75,1.1406 7.88669,-0.4203 11.52862,-1.2251 20.81055,-4.5957 11.03181,-4.0061 14.19531,-4.3147 8.25981,-0.8086 -4.0802,2.4103 -13.12369,5.4696 -21.32622,7.2149 -8.37489,1.782 -10.68359,2.959 -10.68359,5.4453 0,1.3855 1.14303,2.266 4.08203,3.1465 5.33439,1.5983 13.48839,0 24.41798,-4.7735 4.4,-1.9234 8.675,-3.7289 9.5,-4.0137 2.9127,-1.0056 -2.5642,2.7697 -9.7031,6.6895 -6.30158,3.4601 -8.01511,3.9551 -13.69144,3.9551 -3.5684,0 -6.73571,0.399 -7.03711,0.8867 -0.7238,1.1712 1.61979,3.0479 5.11718,4.0977 7.98094,2.3956 17.87507,0.2808 32.20317,-6.8809 26.9919,-13.4916 52.4393,-32.6234 70.8789,-53.28907 3.0991,-3.47326 5.7924,-6.73992 8.2011,-9.85156 z" /></g></g></svg>
