<?xml version="1.0" encoding="UTF-8" standalone="no"?>
<!-- Created with Inkscape (http://www.inkscape.org/) -->

<svg
   version="1.1"
   id="svg2"
   width="394.30927"
   height="498.90927"
   viewBox="0 0 394.30927 498.90928"
   sodipodi:docname="avocado.svg"
   inkscape:version="1.3 (0e150ed6c4, 2023-07-21)"
   xml:space="preserve"
   inkscape:export-filename="monkeys.png"
   inkscape:export-xdpi="150"
   inkscape:export-ydpi="150"
   xmlns:inkscape="http://www.inkscape.org/namespaces/inkscape"
   xmlns:sodipodi="http://sodipodi.sourceforge.net/DTD/sodipodi-0.dtd"
   xmlns="http://www.w3.org/2000/svg"
   xmlns:svg="http://www.w3.org/2000/svg"><defs
     id="defs6" /><sodipodi:namedview
     id="namedview4"
     pagecolor="#ffffff"
     bordercolor="#000000"
     borderopacity="0.25"
     inkscape:showpageshadow="2"
     inkscape:pageopacity="0.0"
     inkscape:pagecheckerboard="0"
     inkscape:deskcolor="#d1d1d1"
     showgrid="false"
     inkscape:zoom="1.5589123"
     inkscape:cx="167.74516"
     inkscape:cy="452.23838"
     inkscape:window-width="1920"
     inkscape:window-height="1200"
     inkscape:window-x="0"
     inkscape:window-y="0"
     inkscape:window-maximized="1"
     inkscape:current-layer="g8"
     inkscape:pageshadow="2" /><g
     inkscape:groupmode="layer"
     inkscape:label="Image"
     id="g8"
     transform="translate(1.641838e-7,-525.09074)"><path
       style="fill:#f2f2f2;fill-opacity:1"
       d="m 183.86771,626.94135 c 7.97451,0.0357 13.61541,1.75553 19.85551,6.04883 5.9069,4.0641 10.4395,9.43616 13.5429,16.05273 2.3489,5.0079 2.6016,6.70856 2.6016,17.54493 0,10.06187 -0.339,12.72914 -2.0899,16.51171 -4.2179,9.1123 -12.5833,14.74138 -23.3613,15.71875 l -5.6758,0.51368 5.3594,5.35937 c 7.7109,7.71087 10.7656,14.77312 10.7656,24.89649 0,9.90417 -3.0513,17.1969 -10.0351,23.98437 -5.2635,5.1155 -16.32182,10.77582 -24.26369,12.41992 -7.5482,1.5625 -29.53345,1.27023 -36.19922,-0.48047 -9.74827,-2.56007 -19.37415,-7.9586 -24.82422,-13.92187 -6.092,-6.66557 -8.55475,-13.26574 -8.59375,-23.03711 -0.0342,-8.63897 3.0957,-15.76303 10.4668,-23.82813 l 4.90234,-5.36328 -4.97461,-0.58984 c -10.57367,-1.2523 -19.262173,-7.26679 -22.980473,-15.91016 -3.0569,-7.10577 -3.42048,-24.62191 -0.67578,-32.49218 5.22197,-14.97407 23.621033,-24.9508 40.888673,-22.16993 7.06987,1.1385 18.12937,6.54618 22.30664,10.90625 l 2.79102,2.91407 5.8125,-5.38086 c 7.39507,-6.8466 14.67005,-9.74027 24.38086,-9.69727 z"
       id="path51374" /><g
       id="g55762"
       transform="translate(-85.562303,288.4236)"><path
         style="fill:#ececec;fill-opacity:1"
         d="m 135.07844,360.84392 c 0.54888,0.009 1.19227,0.56648 2.06836,1.57032 1.1166,1.27927 1.67065,5.0449 2.06055,14 0.2937,6.73747 0.43475,12.25 0.31445,12.25 -0.78767,0 -5.64401,-6.05355 -6.97851,-8.69922 -2.018,-4.002 -2.03797,-7.51297 -0.0762,-14.11914 1.04181,-3.50813 1.69655,-5.01703 2.61132,-5.00196 z"
         id="path51382" /><path
         style="fill:#ececec;fill-opacity:1"
         d="m 340.88312,359.66424 c 0.4964,0 1.8758,2.5875 3.0645,5.75 2.7633,7.35197 2.1996,11.94243 -2.1778,17.7539 -1.8373,2.4392 -3.6773,4.44785 -4.0898,4.46485 -0.4125,0.017 -0.75,-4.94031 -0.75,-11.01758 0,-10.75817 1.4437,-16.95117 3.9531,-16.95117 z"
         id="path51380" /><path
         style="fill:#ececec;fill-opacity:1"
         d="m 139.00618,337.66424 c 5.12677,0 5.1385,0.007 4.375,2.75 -0.4211,1.51247 -1.26304,5.06779 -1.86914,7.90039 l -1.10156,5.15039 -3.49024,-1.85743 c -1.9199,-1.02197 -4.22394,-1.87739 -5.11914,-1.90039 -2.1401,-0.0551 -4.35252,2.54234 -2.91992,3.42774 1.7069,1.0549 1.21643,3.73311 -1.65234,9.03711 -3.3495,6.19257 -3.6542,14.02059 -0.7793,19.99219 1.0591,2.19997 4.97565,6.98626 8.70312,10.63476 3.7274,3.6485 6.77735,6.911 6.77735,7.25 0,3.0843 -10.95686,-4.1224 -16.03516,-10.54687 -6.02667,-7.6242 -8.2264,-14.56875 -8.3418,-26.33789 -0.0827,-8.4254 0.23812,-10.62983 2.04102,-14 4.1289,-7.7183 10.51334,-11.5 19.41211,-11.5 z"
         id="path51372" /><path
         style="fill:#ececec;fill-opacity:1"
         d="m 335.59212,337.64274 c 0.8907,0.0177 2.0861,0.0904 3.6719,0.19141 7.9277,0.5048 13.5814,3.88013 16.8945,10.08203 1.9817,3.7099 2.2715,5.70718 2.2715,15.74805 0,10.33547 -0.2683,12.07019 -2.6367,17.12109 -3.0293,6.46077 -8.4611,12.83695 -14.3067,16.79492 -9.5145,6.44197 -10.0928,4.27766 -1.0957,-4.10351 11.6862,-10.88627 14.1593,-20.07236 8.666,-32.1875 -2.1205,-4.6765 -2.6145,-6.78968 -1.8945,-8.07618 1.5782,-2.82017 -0.4772,-3.88871 -5.9082,-3.07421 -2.6539,0.39787 -5.0492,0.72289 -5.3242,0.71289 -0.275,-0.006 -0.8252,-1.96384 -1.2227,-4.34961 -0.3975,-2.3858 -0.984,-5.40374 -1.3007,-6.70704 -0.4263,-1.7525 -0.4868,-2.20555 2.1855,-2.15234 z"
         id="path51370" /></g><path
       id="path1754"
       style="fill:#000000;fill-opacity:1"
       d="M 142.44727 525.09074 C 142.44841 525.09074 142.45197 525.09268 142.45312 525.09269 L 142.45312 525.09074 L 142.44727 525.09074 z M 142.45312 525.09269 C 142.1345 525.09561 141.87523 529.03003 141.86523 533.84074 C 141.85013 547.45722 136.96332 558.54337 128.10547 565.05754 C 122.64707 569.07162 121.929 568.88521 124.375 564.09074 C 126.7941 559.34904 126.19405 559.18427 118.32227 562.42277 C 101.89905 569.17942 81.296552 587.28217 69.066406 605.70207 L 62.353515 615.8134 L 54.09375 615.70207 C 46.664664 615.60227 45.165011 615.92064 39.189453 618.86222 C 27.301607 624.71409 21.44237 634.22388 20.638672 648.9716 C 19.788274 664.57743 24.752372 678.25327 34.982422 688.48332 C 41.00288 694.5038 49.837486 699.56961 56.99414 701.10441 C 61.606602 702.09361 62.062993 702.47739 64.242187 707.22746 C 65.521255 710.01556 66.186501 712.60491 65.720703 712.97941 C 65.254903 713.35391 62.178106 715.4446 58.882812 717.6259 C 49.83196 723.61718 36.615251 737.38925 29.134765 748.6259 C 15.610948 768.94027 5.3259578 795.84938 1.6015623 818.94621 L 34.490234 810.76652 L 34.683594 810.67863 L 34.785156 810.64933 C 35.006018 810.48258 35.386976 810.26891 35.875 809.96183 C 36.974998 809.26973 43.725014 806.82424 50.875 804.52824 L 63.875 800.35441 L 67.96289 793.21574 L 72.052734 786.07707 L 73.871094 792.08488 C 74.847072 795.30853 75.649278 797.81494 75.736328 797.9423 C 78.198342 797.42539 80.656654 796.89098 83.125 796.40324 C 83.445229 796.34205 83.767539 796.28659 84.08789 796.22551 C 84.620308 793.9252 85.284058 791.65844 86.240234 789.49504 C 87.494098 787.96774 87.95335 785.95309 89.255859 784.44816 C 90.431176 782.68887 91.985982 781.24679 93.220703 779.5341 C 94.046519 778.95247 94.430112 778.05577 94.902344 777.2216 C 94.570539 777.058 94.287847 776.79838 94.138672 776.41301 C 92.552441 772.76745 94.44206 768.3242 97.701172 766.28605 C 99.274185 765.26275 101.16985 764.79056 103.03711 764.8759 C 104.90437 764.96123 106.74223 765.60398 108.19727 766.80754 C 108.95737 767.35023 109.86592 768.20748 109.64453 769.20207 C 111.4041 768.85765 113.18896 768.56216 114.86719 767.92668 C 116.95145 767.70346 119.02251 767.34801 121.125 767.37785 C 124.03247 767.30675 126.95257 767.62495 129.73828 768.47746 C 133.65086 769.45691 137.53208 770.73266 141.07617 772.68058 C 143.38731 774.05706 145.52668 775.72318 147.94727 776.91105 C 149.45352 777.74155 150.99014 778.51041 152.51758 779.29972 C 153.68379 780.39624 155.29801 780.6045 156.58398 781.56926 C 158.58167 782.92235 160.93222 783.67066 162.85742 785.14152 C 164.27828 785.52626 165.30968 786.68488 166.67187 787.21183 C 168.09427 787.98577 169.51994 788.7273 170.95117 789.46379 C 172.23102 790.32905 173.70264 790.83835 174.99219 791.69816 C 176.45172 792.35358 177.57956 793.48149 179.15625 793.94816 C 181.12705 795.3902 183.37104 796.38024 185.44531 797.65519 C 187.32388 798.65055 189.22669 799.59362 191.05859 800.67668 C 193.14088 801.81807 195.15581 803.08806 197.20117 804.2841 C 199.84169 805.33617 201.98534 807.24493 204.27734 808.87004 C 208.40567 811.96455 212.30988 815.39482 215.58594 819.39543 C 220.46094 825.12423 224.61907 831.52597 227.75391 838.3798 L 227.78125 834.67668 C 227.89965 818.76656 228.32474 812.96171 229.82812 806.74113 L 231.72656 798.88957 L 237.29883 809.95597 C 244.57371 824.40159 248.89172 830.50714 251.16602 829.56926 C 256.5494 827.34926 256.34105 828.36836 250.16797 834.45793 C 243.61633 840.9209 238.07298 847.3692 232.88867 854.4716 C 233.10005 855.5988 233.27863 856.7309 233.43555 857.86613 L 283.93164 860.54191 C 292.00765 850.19616 296.36914 841.86065 296.36914 836.35246 C 296.36914 834.98399 295.37134 832.08972 294.15234 829.92082 C 292.34236 826.70045 292.18669 825.82274 293.30469 825.13176 C 296.06287 823.42716 292.24635 799.82801 285.69727 778.09074 C 279.20237 756.53364 267.98017 736.57101 256.12109 725.47746 C 250.42081 720.14509 241.8131 713.73941 239.1582 712.85441 C 238.5912 712.66531 239.4138 710.19935 241 707.33488 C 243.6922 702.4729 244.26626 702.03426 250.36914 700.16496 C 270.6408 693.95579 284.36914 674.49479 284.36914 651.96769 C 284.36914 635.80496 277.69652 624.33729 264.86914 618.45402 C 259.83606 616.14552 257.55242 615.70994 250.70312 615.74894 L 242.53711 615.79386 L 240.70703 611.6923 C 237.83993 605.26772 225.01764 588.84146 217.60156 582.09269 C 213.89798 578.72241 207.15328 573.47726 202.61328 570.43449 C 193.9483 564.62701 181.08655 558.58106 180.56055 560.06926 C 180.39085 560.54926 181.20956 562.82013 182.38086 565.11613 L 184.51172 569.29191 L 179.49219 565.4423 C 176.66458 563.2731 170.36453 556.11723 165.06055 549.05168 C 157.11823 538.47152 144.5078 525.10764 142.45312 525.09269 z M 250.03711 626.06926 C 250.92781 626.08696 252.1232 626.15965 253.70898 626.26066 C 261.63668 626.76546 267.29042 630.14081 270.60352 636.34269 C 272.5852 640.05259 272.875 642.04989 272.875 652.09074 C 272.875 662.42619 272.60668 664.16095 270.23828 669.21183 C 267.20898 675.6726 261.77722 682.04879 255.93164 686.00676 C 246.41716 692.44871 245.83886 690.28439 254.83594 681.90324 C 266.52212 671.01699 268.99525 661.83086 263.50195 649.71574 C 261.38147 645.03924 260.88742 642.92607 261.60742 641.63957 C 263.18562 638.8194 261.1302 637.75085 255.69922 638.56535 C 253.04532 638.96322 250.65 639.28824 250.375 639.27824 C 250.1 639.27224 249.54984 637.3144 249.15234 634.92863 C 248.75484 632.54283 248.16826 629.5249 247.85156 628.2216 C 247.42526 626.4691 247.36481 626.01605 250.03711 626.06926 z M 53.451172 626.09074 C 58.577932 626.09074 58.58967 626.09774 57.826172 628.84074 C 57.405072 630.35321 56.563129 633.90853 55.957031 636.74113 L 54.855469 641.89152 L 51.365234 640.0341 C 49.445338 639.01213 47.141292 638.15671 46.246094 638.13371 C 44.105998 638.07861 41.893574 640.67604 43.326172 641.56144 C 45.033068 642.61634 44.542592 645.29457 41.673828 650.59855 C 38.324334 656.79112 38.019637 664.61916 40.894531 670.59074 C 41.953629 672.79071 45.870194 677.57701 49.597656 681.22551 C 53.325048 684.87399 56.375 688.13651 56.375 688.47551 C 56.375 691.55979 45.418134 684.35308 40.339844 677.92863 C 34.313186 670.30445 32.113447 663.35986 31.998047 651.59074 C 31.915347 643.16536 32.236166 640.96091 34.039062 637.59074 C 38.167954 629.87246 44.55242 626.09074 53.451172 626.09074 z M 183.875 626.94426 C 191.84949 626.97996 197.49037 628.6998 203.73047 632.99308 C 209.63735 637.05718 214.17004 642.42925 217.27344 649.04582 C 219.62232 654.0537 219.875 655.75439 219.875 666.59074 C 219.875 676.65259 219.53604 679.31989 217.78516 683.10246 C 213.56726 692.21474 205.20181 697.84384 194.42383 698.82121 L 188.74805 699.33488 L 194.10742 704.69426 C 201.8183 712.40511 204.87305 719.46739 204.87305 729.59074 C 204.87305 739.49489 201.82167 746.78766 194.83789 753.57511 C 189.57441 758.69061 178.51607 764.35094 170.57422 765.99504 C 163.02604 767.55754 141.04075 767.26527 134.375 765.51457 C 124.62675 762.9545 115.00085 757.55596 109.55078 751.59269 C 103.4588 744.92714 100.99603 738.32693 100.95703 728.55558 C 100.92283 719.91663 104.05275 712.79254 111.42383 704.72746 L 116.32617 699.36418 L 111.35156 698.77433 C 100.77791 697.52205 92.089386 691.50753 88.371094 682.86418 C 85.3142 675.75841 84.950618 658.24224 87.695312 650.37199 C 92.917272 635.39794 111.31638 625.4212 128.58398 628.20207 C 135.65385 629.34057 146.71337 634.74825 150.89062 639.10832 L 153.68164 642.02238 L 159.49414 636.64152 C 166.88919 629.79494 174.16421 626.90126 183.875 626.94426 z M 186.7793 646.41886 C 175.69044 646.05804 164.38462 653.87109 164.375 663.07316 L 164.375 666.55558 L 166.97266 662.73136 C 171.66594 655.82471 183.97663 652.10614 192.05859 655.15324 C 199.62939 658.00751 205.31656 667.07116 205.35156 676.34074 C 205.36356 679.50321 205.62268 682.09074 205.92578 682.09074 C 207.34048 682.09074 209.37523 674.57351 209.36523 669.37394 C 209.34823 658.95859 202.05556 649.86869 191.48828 647.09269 C 189.94658 646.68769 188.3673 646.47041 186.7832 646.41886 L 186.7793 646.41886 z M 121.72461 646.52043 C 112.66716 646.05291 102.71743 651.68114 98.283203 660.30168 C 96.118307 664.51036 95.71069 673.88772 97.472656 678.9423 L 97.46875 678.9423 C 99.154546 683.77837 100.36858 682.69779 100.39258 676.34074 C 100.44518 662.58059 110.28297 653.40773 124.04687 654.2841 C 129.14707 654.6088 130.97345 655.22875 133.97852 657.66105 C 136.0036 659.30005 138.49524 662.19781 139.51562 664.10051 L 141.37109 667.55949 L 141.37109 663.57511 C 141.36409 656.18166 135.02655 649.59026 125.5332 647.10246 C 124.29438 646.77781 123.01853 646.58722 121.72461 646.52043 z M 255.32812 648.09074 C 255.82452 648.09074 257.20388 650.67824 258.39258 653.84074 C 261.15588 661.19269 260.59224 665.78318 256.21484 671.59465 C 254.37756 674.03383 252.5375 676.04249 252.125 676.05949 C 251.7125 676.07649 251.375 671.11918 251.375 665.04191 C 251.375 654.28376 252.81874 648.09074 255.32812 648.09074 z M 49.523437 649.27043 C 50.072317 649.27943 50.715709 649.8369 51.591797 650.84074 C 52.708395 652.12001 53.262444 655.88566 53.652344 664.84074 C 53.946042 671.57819 54.087097 677.09074 53.966797 677.09074 C 53.179127 677.09074 48.322779 671.03719 46.988281 668.39152 C 44.970285 664.38954 44.950343 660.87853 46.912109 654.27238 C 47.953917 650.76425 48.608669 649.25536 49.523437 649.27043 z M 320.85742 651.74699 C 309.62044 651.39044 298.69552 655.78563 289.46484 665.65324 C 269.12188 687.40021 267.75038 720.15138 286.65234 732.7841 C 299.89232 741.63258 313.94025 734.53344 313.75195 719.09074 C 313.68595 713.67516 310.82607 706.10756 308.24219 704.51066 C 306.24249 703.27476 313.54031 700.17871 318.55859 700.13371 C 324.61329 700.07961 327.36241 701.18075 332.30859 705.64933 C 339.55539 712.1964 345.65416 725.73619 349.03516 742.78019 C 351.70384 756.23304 351.41165 785.48821 348.43945 802.59074 C 340.24357 849.75149 320.77126 872.95149 278.64844 885.73527 L 269.42383 888.5341 L 268.28711 894.06144 C 265.37381 908.21942 257.03916 924.93041 244.36328 942.02629 L 238.17383 950.37199 L 244.52344 949.66886 C 268.02288 947.06038 299.62167 936.32694 319.95703 924.04386 C 364.19645 897.32202 386.66099 861.74565 392.85937 808.5966 C 396.44277 777.87058 393.2389 740.4414 384.88672 715.44035 C 371.81664 676.31655 345.57878 652.53137 320.85742 651.74699 z M 121.28516 659.24504 C 120.98418 659.25404 120.60522 659.33313 120.125 659.46183 C 118.8875 659.79353 117.34637 660.06707 116.70117 660.07707 C 116.05597 660.08407 114.14347 661.47658 112.45117 663.16886 C 106.77422 668.84593 108.96331 678.20166 116.78906 681.70793 C 122.71733 684.36401 129.39929 681.42898 132.74219 674.70011 C 134.18436 671.79723 134.37165 670.44207 133.56055 668.76457 C 132.98245 667.56897 132.47841 667.15324 132.44141 667.84074 C 132.32521 669.98721 127.39982 669.20931 124.82812 666.63761 C 123.45144 665.26093 122.375 663.01353 122.375 661.52043 C 122.375 659.81598 122.1881 659.21914 121.28516 659.24504 z M 182.23242 660.09074 C 178.7027 660.09074 173.69251 664.36486 172.87891 668.06926 C 172.45271 670.00984 172.9143 672.52221 174.25 675.54191 C 175.3569 678.04398 176.39986 680.09638 176.56836 680.10636 C 176.73676 680.11436 178.67496 680.75851 180.875 681.53801 C 186.96389 683.69539 191.82472 681.98731 195.51172 676.39543 C 197.51502 673.35716 197.9832 668.58471 196.375 667.59074 C 195.825 667.25084 195.375 667.44965 195.375 668.03215 C 195.375 668.61465 193.86898 669.09074 192.0293 669.09074 C 188.1342 669.09074 185.48146 666.64859 185.16016 662.76652 C 184.97916 660.58042 184.44331 660.09074 182.23242 660.09074 z M 154.99805 688.17472 C 154.75575 688.19052 154.62303 688.25873 154.625 688.38957 C 154.634 689.01757 158.25181 690.99691 162.66211 692.78801 C 171.93677 696.55499 174.22641 697.05737 172.00781 694.83879 C 170.00881 692.83997 157.34029 688.02224 154.99805 688.17472 z M 147.1875 688.79191 C 142.01521 688.89923 132.73242 692.95758 132.73242 695.21379 C 132.73242 696.11639 133.69083 695.97937 135.00391 694.88957 C 136.25329 693.85267 140.60884 692.08779 144.68164 690.96769 C 150.6072 689.33819 151.20548 688.90536 147.67578 688.79386 C 147.51794 688.78888 147.35435 688.78891 147.1875 688.79191 z M 141.62695 696.58293 C 141.32787 696.60583 141.04841 696.66293 140.79883 696.75871 C 139.53413 697.24401 140.15761 698.28862 143.78711 701.76652 C 146.30958 704.18359 148.375 706.595 148.375 707.1259 C 148.375 707.6567 148.85944 708.09074 149.45312 708.09074 C 150.68942 708.09074 149.75778 702.67951 148.05078 699.94621 C 146.9896 698.24704 144.56474 696.87178 142.57617 696.61418 C 142.24474 696.57128 141.92603 696.56188 141.62695 696.58488 L 141.62695 696.58293 z M 162.39648 697.09074 C 159.01933 697.09074 156.79584 699.73285 155.74414 704.99113 L 155.08594 708.2841 L 160.23047 703.13957 C 163.05974 700.3102 165.375 697.79266 165.375 697.54386 C 165.375 697.29508 164.03378 697.09074 162.39648 697.09074 z M 107.84766 735.09074 C 107.52496 735.09074 108.06076 736.44629 109.03906 738.10246 C 112.89766 744.63444 125.47622 752.1542 136.57227 754.5634 C 144.97792 756.38868 160.23955 756.39997 168.875 754.58683 C 178.58025 752.54925 189.43329 747.00899 193.86719 741.82902 C 195.84749 739.51542 197.00305 737.46734 196.43555 737.27824 C 195.86805 737.08904 191.82325 738.31515 187.44727 740.00285 C 164.88356 748.7043 138.71568 747.83592 114.3418 737.57707 C 111.09323 736.2098 108.17036 735.09074 107.84766 735.09074 z M 150.44336 827.73722 C 150.35244 827.87147 150.21696 827.96456 150.09375 828.06926 C 150.33942 828.08905 150.58475 828.09326 150.83008 828.11613 C 150.69799 828.00352 150.56679 827.88962 150.44922 827.74894 C 150.44719 827.74507 150.44539 827.7411 150.44336 827.73722 z M 82.003906 841.95011 C 80.81485 842.63761 79.625467 843.32421 78.441406 844.02043 C 77.575168 844.94285 77.560467 845.70251 77.822265 846.92472 C 78.526565 850.21279 80.30175 863.92808 80.34375 866.41105 C 80.37285 868.12045 80.205333 868.10957 77.542969 866.21379 C 72.199879 862.40909 64.151756 859.81011 57.375 859.70011 C 51.95641 859.61213 50.089312 860.05416 46.15625 862.36613 C 36.4903 868.04811 31.439507 880.19795 33.283203 893.33293 C 35.024099 905.73561 40.149017 918.51547 49.542969 933.87785 C 58.527621 948.57071 72.316996 963.93328 90.375 979.37394 C 96.149958 984.31174 101.26514 988.70807 101.74414 989.14347 C 102.22304 989.57837 100.87304 989.55449 98.74414 989.08879 C 89.941388 987.16459 70.54593 985.91003 54.732422 986.24113 C 38.626114 986.57833 37.663198 986.71243 33.128906 989.27043 L 28.382812 991.94816 C 26.503616 993.76826 25.841007 999.07956 24.724609 1006.1396 L 28.574219 1008.4091 L 33.724609 1005.8525 C 40.618665 1002.4303 45.125361 1001.3629 39.158203 1004.5653 C 34.501343 1007.0647 32.375 1009.5409 32.375 1012.4599 C 32.375 1013.2836 35.581761 1016.2176 39.501953 1018.9794 L 46.628906 1024.0009 L 49.957031 1021.4638 C 57.904585 1015.4018 70.237121 1014.2242 100.51367 1016.6376 C 112.81222 1017.618 124.51092 1018.1113 126.51172 1017.7333 C 132.02057 1016.6925 135.375 1012.7882 135.375 1007.4169 C 135.375 1002.6375 133.26675 997.81067 127.375 989.09269 C 124.4492 984.76351 110.02341 961.97188 105.99414 955.3134 C 105.56814 954.6094 108.40493 956.09528 112.29883 958.61418 C 120.69868 964.04806 127.01829 967.04121 130.15039 967.07121 C 132.34929 967.09221 132.37459 966.99417 130.90039 964.14347 C 128.63939 959.77129 129.00119 959.5584 132.88867 962.9716 C 137.96294 967.42688 141.86465 969.18512 148.10352 969.82902 C 153.4446 970.38032 153.57363 970.33574 152.49023 968.31144 C 151.87613 967.16404 151.375 965.4356 151.375 964.4716 C 151.375 962.9946 151.8078 963.12093 154.125 965.27043 C 161.77405 972.36601 173.7883 971.40597 186.83789 962.65519 C 190.43319 960.24431 193.375 958.49819 193.375 958.77629 C 193.375 959.63089 181.336 976.1157 174.16211 985.08488 C 166.04073 995.23856 164.45587 999.04406 166.83594 1002.6767 C 170.71332 1008.5943 177.04214 1008.3351 206.375 1001.0595 C 233.92014 994.2274 245.68482 992.08583 259.45898 991.39543 C 274.09006 990.66213 279.38614 991.83326 285.94922 997.25676 C 290.7208 1001.1996 290.9913 1001.2873 297.23828 1000.8896 C 302.93388 1000.5269 303.95336 1000.1291 306.50586 997.27238 C 310.10696 993.24178 310.1139 990.65401 306.54102 985.02043 C 301.52152 977.10555 295.23529 972.86845 285.00391 970.50285 L 278.87305 969.08488 L 284.79297 969.61808 C 295.23775 970.55908 303.85096 975.93518 309.00586 984.73136 C 310.52846 987.32956 312.029 988.8308 312.7168 988.4423 C 317.37478 985.81132 318.57472 981.88283 316.08594 977.40715 C 314.49084 974.53825 302.83233 964.42982 298.37305 962.04972 C 296.44805 961.02224 295.45301 960.16161 296.16211 960.13761 C 298.71861 960.04963 304.95998 964.01878 309.33008 968.51066 C 313.88436 973.19186 316.04619 974.01927 318.17187 971.89347 C 322.00237 968.06299 317.42833 959.96464 308.99805 955.65324 C 301.01575 951.57094 290.03585 951.09581 270.30469 953.97941 C 255.97321 956.07391 224.70483 962.17264 220.87305 963.62004 C 219.74795 964.04504 221.31985 961.79937 224.46875 958.48527 C 247.26641 934.49143 261.12324 912.39793 264.98242 893.88957 C 265.79092 890.01187 266.21905 886.60851 265.93555 886.32511 C 265.88155 886.27113 265.66356 886.36809 265.44336 886.46769 C 260.99746 890.60069 256.38712 894.55805 251.64062 898.33683 C 238.18096 909.00641 223.65252 918.33703 208.34766 926.13371 C 207.76833 926.42351 207.15691 926.65617 206.57422 926.9423 C 205.19289 928.17192 203.78279 929.36962 202.32422 930.50676 C 198.51641 933.42679 194.38771 935.9602 189.94336 937.78996 C 185.69754 939.4293 181.58631 941.50804 177.09766 942.42863 C 175.50141 942.99279 173.87716 943.34948 172.19141 943.51457 C 159.59913 946.36082 146.36403 945.23086 134.04297 941.64152 C 132.30531 941.18266 130.56838 940.71975 128.86328 940.14933 C 128.37625 938.9369 126.58004 939.34139 125.59375 938.71183 C 124.27795 938.03004 122.95846 937.39765 121.67187 936.68644 C 120.25842 936.27984 119.29426 935.09844 117.88086 934.68449 C 116.77777 934.13231 115.94693 933.17763 114.87305 932.56144 C 113.8556 931.82117 112.70303 931.27697 111.6582 930.59855 C 110.61452 929.27583 109.08092 928.58742 107.87891 927.51066 C 106.73001 926.4876 105.5153 925.54699 104.50977 924.3759 C 103.37699 923.24849 102.14185 922.1766 101.32812 920.78019 C 99.889361 919.56642 98.802945 918.02088 97.65625 916.55168 C 96.140187 915.02414 95.239028 913.04213 94.046875 911.27433 C 91.09452 906.53499 88.238361 901.68774 86.33789 896.41496 C 85.199548 893.34214 84.225097 890.19535 83.574219 886.98332 C 83.30004 885.17128 82.623194 883.44289 82.419922 881.61222 C 81.928565 878.20814 81.737504 874.76452 81.847656 871.32707 C 81.763146 869.08167 81.57456 866.83607 81.722656 864.58683 C 81.894956 860.79283 81.717574 856.99332 81.935547 853.20011 C 81.797893 849.4515 81.825768 845.69723 82.003906 841.95011 z M 193.18555 874.21379 C 193.09706 874.5851 192.98523 874.9505 192.88672 875.31926 C 192.90647 875.25326 192.93392 875.19014 192.95312 875.12394 C 193.05033 874.82425 193.11604 874.51857 193.18555 874.21379 z " /><path
       style="fill:#1c484b;fill-opacity:1;stroke-width:0.387237"
       d="m 189.94377,937.78954 c -4.24582,1.63934 -8.35709,3.71926 -12.84576,4.63985 -1.59625,0.56416 -3.22093,0.921 -4.9067,1.08609 -12.5923,2.84625 -25.82682,1.7152 -38.1479,-1.87414 -1.73766,-0.45886 -3.47593,-0.92187 -5.18103,-1.49229 -0.48703,-1.21243 -2.28173,-0.80729 -3.26802,-1.43685 -1.3158,-0.68179 -2.63595,-1.31508 -3.92254,-2.02629 -1.41347,-0.4066 -2.37789,-1.58811 -3.79129,-2.00206 -1.10309,-0.55218 -1.9328,-1.50677 -3.00668,-2.12296 -1.01745,-0.74027 -2.17018,-1.2833 -3.21501,-1.96172 -1.04368,-1.32272 -2.57779,-2.01136 -3.77982,-3.08812 -1.1489,-1.02306 -2.36455,-1.96456 -3.3701,-3.13565 -1.13278,-1.12741 -2.36642,-2.19798 -3.18015,-3.59439 -1.438771,-1.21377 -2.526365,-2.76086 -3.673062,-4.23006 -1.516065,-1.52754 -2.41594,-3.50941 -3.608095,-5.27721 -2.952361,-4.73936 -5.809635,-9.58567 -7.710108,-14.85847 -1.138346,-3.07282 -2.111718,-6.21945 -2.762598,-9.4315 -0.274179,-1.81204 -0.952608,-3.54021 -1.15588,-5.37088 -0.491357,-3.4041 -0.682334,-6.84809 -0.572182,-10.28556 -0.08451,-2.2454 -0.272257,-4.49041 -0.124161,-6.73965 0.1723,-3.79402 -0.0044,-7.59355 0.213573,-11.38676 -0.143844,-3.91721 -0.120573,-7.8415 0.08078,-11.7564 -0.07775,-1.65815 -0.0139,-3.3272 0.264351,-4.9622 -0.07906,-3.13562 -0.188619,-6.27453 0.03662,-9.40808 0.259751,-3.44059 -0.02829,-6.91298 0.469152,-10.33546 -0.0941,-1.38297 -0.287677,-2.75611 -0.219251,-4.14764 -0.0919,-3.946 -0.20887,-7.93307 0.613408,-11.81921 0.642571,-3.84478 1.476948,-7.69708 3.059386,-11.27744 1.253866,-1.5273 1.713177,-3.54086 3.01569,-5.04579 1.175319,-1.75929 2.729801,-3.20182 3.964524,-4.91451 1.159956,-0.81696 1.441196,-2.25768 2.332368,-3.26974 1.699778,0.53452 2.234633,-1.75466 2.06993,-3.00771 0.352285,-3.2872 4.582725,-5.46836 7.402015,-3.65647 1.49075,0.90428 3.05562,0.0224 4.51784,-0.37896 1.79232,-0.35313 3.61281,-0.64643 5.32324,-1.29411 2.08426,-0.22322 4.15587,-0.57899 6.25836,-0.54915 2.90747,-0.0711 5.82864,0.2478 8.61435,1.10031 3.91258,0.97945 7.79268,2.25377 11.33679,4.20171 2.31114,1.37648 4.45081,3.04214 6.8714,4.23001 1.50627,0.8305 3.04222,1.60091 4.56966,2.39024 1.16621,1.09652 2.7811,1.30503 4.06709,2.26979 1.99769,1.35311 4.34852,2.10033 6.27372,3.57119 1.42086,0.38474 2.45113,1.54308 3.81334,2.07003 1.4224,0.77394 2.84987,1.51675 4.2811,2.25324 1.27985,0.86526 2.75046,1.37418 4.04001,2.23399 1.45953,0.65542 2.58731,1.78311 4.164,2.24978 1.9708,1.44204 4.2142,2.43126 6.28847,3.70621 1.87857,0.99536 3.78208,1.93958 5.614,3.02264 2.08229,1.14139 4.09681,2.41094 6.14217,3.60698 2.64052,1.05207 4.78358,2.96144 7.0756,4.58655 4.12833,3.09453 8.03348,6.52452 11.30954,10.52513 8.47586,9.96031 14.8956,21.90581 17.26463,34.84479 1.56704,8.20594 1.66705,16.65886 0.57747,24.93026 -0.11989,2.22081 -0.96776,4.31396 -1.45476,6.46643 -1.34421,5.06088 -2.76565,10.14999 -5.19307,14.81743 -5.77412,11.66963 -14.18517,22.04419 -24.45558,30.05127 -3.80781,2.92005 -7.93647,5.45375 -12.38084,7.28351 z m 8.19891,-16.39073 c 4.69597,-3.73145 8.99326,-7.98082 12.76085,-12.64568 0.79146,-1.62448 1.95124,-2.97121 3.01564,-4.40245 1.41783,-2.25553 2.61663,-4.64227 3.94763,-6.94681 1.61714,-3.39946 2.82489,-6.97793 3.98953,-10.552 4.2193,-13.89727 3.5829,-29.22742 -1.90651,-42.68545 -5.11435,-12.63234 -14.444,-23.41827 -25.96835,-30.64021 -1.98485,-1.2864 -4.07126,-2.40881 -6.22851,-3.372 -4.87925,-2.88193 -9.8485,-5.61169 -14.78338,-8.39887 -9.525,-5.3369 -19.09801,-10.58861 -28.71921,-15.74944 -3.70864,-1.98799 -7.14977,-4.47438 -11.0582,-6.07955 -6.48621,-2.81644 -13.96018,-4.0319 -20.83678,-1.94362 -5.86066,1.75919 -10.94946,5.70145 -14.402719,10.72101 -1.345735,1.71935 -2.584229,3.56118 -3.258193,5.65454 -2.437954,5.35916 -2.648455,11.39115 -2.53307,17.18354 0.31204,8.5401 -0.350417,17.07508 -0.400703,25.61448 -0.167546,8.60257 -0.380452,17.20508 -0.362073,25.80982 -0.165734,5.65625 -0.539867,11.3545 0.345945,16.97426 2.18749,15.84861 10.810273,30.55799 23.141943,40.66971 10.35895,8.57017 23.38415,13.98547 36.83642,14.81672 13.30206,0.96456 26.89289,-2.06136 38.43235,-8.77878 2.76808,-1.58167 5.43277,-3.34244 7.98739,-5.24922 z"
       id="path8042" /><path
       id="path8038"
       style="fill:#d35821;fill-opacity:1;stroke-width:0.387237"
       d="m 137.59286,834.24805 c -4.24937,2.70878 -6.97101,7.19001 -8.98891,11.69329 -3.2113,7.4187 -4.72215,15.55743 -4.57357,23.63113 0.17333,5.95697 1.26897,12.14776 4.6692,17.16509 2.05213,3.14714 5.84243,4.52661 9.393,5.12072 8.62075,1.42172 17.91604,-1.71167 23.71766,-8.28948 4.6098,-5.16347 6.5705,-12.34026 5.90315,-19.16707 -0.60389,-6.98284 -3.66473,-13.54412 -7.82602,-19.10835 -2.51542,-3.45819 -4.57136,-7.45155 -7.66791,-10.42918 -1.7548,-1.72461 -4.47329,-2.39278 -6.94648,-2.36158 -2.53991,-0.081 -5.18755,0.19362 -7.38703,1.57476 -0.0961,0.0593 -0.19897,0.10854 -0.29317,0.17053 z m -2.68057,10.54879 c 0.70385,-0.24182 0.84009,0.84726 0.83859,1.32493 -0.0555,1.7627 -0.96635,3.35394 -1.27137,5.07693 -1.81296,7.75387 -1.46884,15.97801 0.75338,23.61247 0.59087,2.25594 1.70279,4.32957 2.36608,6.55326 -0.56947,0.52493 -1.71446,0.98351 -2.302,0.19772 -1.46845,-1.81635 -1.90062,-4.21144 -2.44047,-6.42475 -0.83137,-4.09441 -1.2164,-8.52943 -1.29105,-12.81272 -0.031,-4.89381 0.12631,-9.88733 1.58647,-14.5954 0.40306,-1.04517 0.77186,-2.29252 1.76037,-2.93244 z"
       sodipodi:nodetypes="ccccccccccccccccccccccc" /><path
       id="path8044"
       style="fill:#863519;fill-opacity:1;stroke-width:0.387237"
       d="m 148.99604,832.74429 c -0.6336,0.52272 0.13049,1.25068 0.6075,1.58088 4.39118,3.67468 7.7697,8.43238 10.74451,13.24268 2.59306,4.3214 4.95757,8.95192 6.27502,13.76928 0.88585,3.27079 0.65605,6.63434 -0.0434,9.90256 -2.167,9.52441 -10.03741,17.40424 -19.4761,19.63773 -5.19242,1.27951 -10.84403,0.52889 -15.49198,-2.13078 -0.71955,-0.40156 -1.51381,-0.63958 -2.26988,-0.96122 3.32451,5.3481 8.77434,9.21969 14.807,10.92779 7.90144,2.3237 16.53162,1.30029 24.00466,-2.00041 7.40867,-3.13102 14.27589,-8.20809 18.24726,-15.33131 3.73091,-6.50491 4.53719,-14.54807 2.30525,-21.69391 -2.54069,-8.4735 -8.80054,-15.46879 -16.30634,-19.96177 -6.89546,-4.15372 -14.8234,-6.44246 -22.80819,-7.1767 -0.20103,0.0258 -0.45796,0.0243 -0.59532,0.19518 z m 26.40962,17.1303 c 0.85536,-0.23101 1.4052,0.75364 1.91264,1.28465 3.41756,4.32572 5.52362,9.74787 5.47693,15.29378 0.0465,7.74709 -3.88477,15.17289 -9.72774,20.13007 -2.66053,2.34918 -5.79045,4.07489 -9.00226,5.38268 -2.55159,1.02135 -5.27705,1.92294 -7.91945,2.09463 -0.69347,-0.0265 -1.70764,0.11695 -2.09883,-0.57807 -0.30639,-1.11368 1.07692,-1.51238 1.88413,-1.75128 3.13591,-0.66229 6.30919,-1.47708 9.21884,-2.9098 6.58394,-3.0835 12.1101,-8.79358 14.14146,-15.86503 1.81617,-6.04223 0.75386,-12.75402 -2.47956,-18.12837 -0.72565,-1.40262 -1.80709,-2.70923 -2.07273,-4.295 0.0125,-0.34239 0.40997,-0.51709 0.66657,-0.65826 z" /><path
       id="path8046"
       style="fill:#c0dd6f;fill-opacity:1;stroke-width:0.387237"
       d="M 117.91992 780.46379 C 115.67914 780.35366 113.54514 781.48428 111.42773 782.10636 C 109.77603 782.77587 108.25756 783.72178 106.74609 784.65519 C 102.42779 787.03682 99.774518 791.43385 97.705078 795.75285 C 97.365656 796.48954 97.07286 797.24525 96.816406 798.01457 C 103.23641 796.9752 108.729 796.26108 112.93945 796.07902 L 112.93945 796.08097 C 119.19487 795.81049 123.37495 796.44491 126.55469 797.86027 C 131.82337 800.20547 138.64912 807.43035 140.50391 812.62394 C 141.16492 814.47479 141.50791 815.40361 141.72656 815.54582 C 142.69684 819.95453 139.20508 822.48332 139.20508 822.48332 L 139.05078 823.18644 L 136.14453 825.63371 C 134.41843 827.08621 132.26626 828.03669 131.28516 827.78019 C 130.19126 827.49409 129.70008 827.78004 129.98828 828.52824 C 130.24338 829.19304 129.28733 830.26696 127.86523 830.91496 C 124.27135 832.55246 123.61769 832.41518 122.74609 829.84269 C 122.02159 827.7046 121.95708 827.7396 121.42969 830.53019 C 120.99259 832.84308 120.152 833.6529 117.47461 834.3466 C 114.97261 834.9947 113.85503 834.88065 113.24023 833.91105 C 112.60683 832.91201 112.40027 832.89254 112.38867 833.84074 C 112.37471 834.97673 109.82218 835.23494 106.40234 834.78996 C 106.21954 836.21448 106.08073 837.6449 106.01562 839.08488 C 105.61258 842.14411 105.12332 845.21797 105.29297 848.3134 C 105.15774 851.62922 105.16153 854.95048 105.37695 858.26261 C 105.48474 860.80648 105.77405 863.34084 106.08203 865.86418 C 106.08503 867.24425 107.11461 868.72058 106.26172 870.02433 C 105.63679 870.9437 104.20577 870.62051 103.71875 869.72355 C 103.02244 868.84036 103.23163 867.70235 103.24023 866.67082 C 103.12521 864.64954 102.59973 862.66545 102.66797 860.6298 C 102.62487 858.63086 102.71744 856.58475 102.11719 854.65129 C 102.49003 851.8298 102.09945 848.9741 102.39648 846.14738 C 102.52735 842.16484 103.00057 838.20904 103.49219 834.25676 C 102.59634 834.05533 101.72215 833.8873 100.7832 833.60246 C 98.925019 833.0388 96.947132 832.6359 95.283203 832.3798 C 95.238461 834.98135 95.167736 837.58229 95.017578 840.18058 C 94.960368 843.89288 95.067814 847.61373 94.783203 851.3173 C 94.914637 854.18299 94.828314 857.05144 94.708984 859.91496 C 94.636154 865.01435 94.375368 870.11848 94.613281 875.21574 C 94.977486 877.97188 95.350919 880.73328 95.871094 883.46379 C 97.436168 890.36672 100.35238 896.89997 103.86328 903.02043 C 105.64871 906.07644 107.79019 908.91388 110.15234 911.54386 C 112.29309 914.29858 114.9442 916.601 117.58008 918.86418 C 120.23644 921.00447 123.05104 922.96707 126.10742 924.49504 C 135.27736 929.67425 145.82155 932.28576 156.33594 932.29386 C 160.91803 932.41238 165.49319 931.82802 169.96875 930.8798 C 171.0179 930.64248 172.05605 930.35718 173.09766 930.08488 C 173.08568 930.08131 173.07251 930.08066 173.06055 930.07707 C 169.56316 929.02727 167.21956 927.14866 167.94336 925.97746 C 168.24476 925.48976 171.41207 925.09074 174.98047 925.09074 C 180.65679 925.09074 182.3703 924.59576 188.67187 921.13566 C 195.81077 917.21587 201.2877 913.44061 198.375 914.44621 C 197.55 914.73101 193.275 916.53648 188.875 918.45988 C 177.94542 923.23338 169.79142 924.83357 164.45703 923.23527 C 161.51803 922.35477 160.375 921.47233 160.375 920.08683 C 160.375 918.1869 161.77738 917.05015 166.15039 915.82511 C 165.49611 915.80675 164.84154 915.77616 164.1875 915.72551 C 154.69227 915.06269 145.41838 910.37734 139.69141 902.70207 C 138.43766 900.94437 136.52619 899.86324 134.67969 898.84074 C 131.41979 896.68463 128.67908 893.83432 126.19727 890.83879 C 123.33064 887.16803 121.76614 882.69483 120.56641 878.24894 C 119.70239 874.81469 119.42139 871.25319 119.57422 867.7216 C 119.40606 865.26428 119.52041 862.79298 119.99414 860.37394 C 120.58885 856.45399 121.56308 852.58493 123.06055 848.9091 C 123.68484 847.01317 124.40663 845.14627 125.43359 843.42863 C 126.7544 840.98661 127.92173 838.45592 129.37109 836.08683 C 131.78262 832.47371 135.50175 829.65522 139.74219 828.60832 C 142.55716 827.99816 145.44923 828.31961 148.29687 828.42668 C 149.35817 828.84827 150.62488 828.10351 150.72656 826.95793 C 150.96084 825.80802 150.0882 824.90485 149.75 823.88176 C 143.77177 810.23935 136.23772 797.11695 126.18359 786.05168 C 124.08863 783.84256 121.75187 781.73818 118.88867 780.59269 C 118.56394 780.52126 118.24003 780.47952 117.91992 780.46379 z M 116.18359 809.44426 C 116.02187 809.62784 117.4 811.29736 119.875 813.85051 C 125.88718 820.0526 127.77432 821.61543 125.29492 818.34074 C 122.37092 814.47884 119.72949 811.79303 116.875 809.77824 C 116.4625 809.48705 116.23749 809.38306 116.18359 809.44426 z M 180.66406 810.23527 C 179.28948 810.32697 181.10845 812.27679 181.9375 812.7841 C 182.78647 813.25259 183.59695 813.74093 184.31445 814.43058 C 193.8499 822.33309 202.39248 831.72895 207.96875 842.87004 C 213.45268 853.76586 215.17593 866.65664 212.05469 878.50676 C 211.53035 880.66857 210.848 882.79589 210.06445 884.88761 C 212.14764 885.52156 213.7894 885.97848 213.87305 885.87785 C 214.00415 885.72025 216.05695 881.99074 218.43555 877.59074 C 219.24523 876.09295 220.17796 874.48859 221.11523 872.88566 C 221.453 867.23691 220.85666 861.53733 219.94531 855.96379 C 219.42731 853.3888 218.60922 850.88548 217.89062 848.36418 C 213.83438 837.97907 207.66632 828.19047 198.9668 821.08488 C 196.8813 819.38051 194.76153 817.69932 192.4375 816.33097 C 191.00822 815.33843 189.53402 814.39956 187.92578 813.72551 C 185.92709 812.6749 182.62993 811.34611 180.66406 810.23527 z " /><path
       id="path8048"
       style="fill:#68a043;fill-opacity:1;stroke-width:0.387237"
       d="m 121.12305,780.21574 c -0.96619,0.0116 -1.93309,0.0467 -2.89453,0.12305 l -0.10547,0.0254 -0.10547,0.0332 c -0.42315,0.82005 0.36836,1.57816 1.09375,1.83203 0.83403,0.31674 1.69014,0.5842 2.41211,1.13281 2.31426,1.58831 4.55778,3.31615 6.43359,5.41797 2.32698,2.50602 4.1724,5.3958 5.98438,8.28125 4.94502,7.74296 9.52795,15.73109 13.49023,24.02344 1.01252,2.21855 1.88401,4.50193 3.01758,6.66406 1.21559,1.45451 3.26465,1.31291 4.9668,1.55664 9.01733,1.49933 17.72976,5.13956 24.89257,10.85743 2.99264,2.42095 5.79725,5.13146 8.02539,8.2832 4.28682,6.20426 6.19874,13.96937 5.46094,21.45898 -0.24834,1.74543 -0.29354,3.52852 -0.8418,5.21875 -0.5257,1.81203 -1.26769,3.54352 -2.09765,5.23438 3.43357,0.51897 6.7259,1.13601 9.67773,1.80664 0.51558,-1.71337 0.9647,-3.44614 1.45117,-5.16797 0.59415,-2.28272 1.12174,-4.58388 1.51563,-6.91016 0.89596,-1.62725 -0.34104,-3.73389 0.92383,-5.23047 0.21605,-0.25997 0.52394,-0.42432 0.83008,-0.55468 h 0.002 c 0.84648,-0.19582 1.43809,0.64902 1.47656,1.40429 0.10416,0.99564 -0.13067,1.98459 -0.16015,2.98047 -0.36508,3.90095 -1.32772,7.71224 -2.41211,11.4668 -0.2655,0.9019 -0.50687,1.81474 -0.78125,2.7168 0.99858,0.26751 2.03239,0.53359 2.85742,0.81054 1.81828,0.61039 3.40519,1.10102 4.73242,1.49219 4.99601,-14.04881 4.18104,-30.16431 -2.5957,-43.49219 -6.10644,-12.42205 -15.75943,-22.87591 -26.95899,-30.90234 -8.65007,-6.16047 -18.29787,-10.68148 -27.50586,-15.91211 -2.51263,-1.22187 -4.8869,-2.70646 -7.36718,-3.99023 -4.18445,-2.30486 -8.33543,-4.67245 -12.51954,-6.97657 -3.1721,-1.59332 -6.45922,-3.1489 -10.00195,-3.66406 -0.96478,-0.0176 -1.9303,-0.0311 -2.89648,-0.0195 z m 21.5039,22.32617 c 2.36691,0.073 4.54607,1.34344 6.82227,1.91211 10.2281,3.6207 19.65056,9.16086 28.60351,15.22266 4.68874,3.24459 9.34336,6.7033 12.91016,11.20508 0.46474,1.18261 -1.165,1.91879 -2.10352,1.51171 -1.17326,-0.50877 -1.70773,-1.77768 -2.70703,-2.51562 -6.01343,-5.7648 -13.02832,-10.34747 -20.13867,-14.63086 -3.97226,-2.3401 -8.14493,-4.32182 -12.41992,-6.04102 -3.39807,-1.5627 -6.94843,-2.74939 -10.50195,-3.89843 -0.77289,-0.40417 -2.15845,-0.43693 -2.26953,-1.5 -0.0215,-0.5098 0.2776,-1.05318 0.77734,-1.21875 0.34661,-0.044 0.68921,-0.0573 1.02734,-0.0469 z m 41.23633,88.80469 c -0.30445,0.0165 -0.67543,0.0814 -1.00391,0.11719 -2.84269,2.78608 -6.18864,5.0066 -9.60156,7.03515 -1.59623,0.93764 -3.2514,1.77979 -4.95312,2.50782 5.54874,-0.19237 8.54611,-0.89495 15.42578,-3.29102 l 9.68945,-3.375 -3.66406,-1.73828 c -2.09617,-0.99465 -3.72652,-1.37317 -5.89258,-1.25586 z m -46.04687,9.33789 c -0.29114,0.0192 -0.42845,0.18756 -0.043,0.625 2.27368,3.75464 5.52817,6.87345 9.2832,9.13086 5.08453,3.30686 10.93782,5.33415 16.94922,6.05078 1.63217,-0.59818 3.91646,-1.18032 7.05273,-1.84766 8.20253,-1.74529 17.24598,-4.80649 21.32618,-7.21679 5.93549,-3.5061 2.77203,-3.1975 -8.25977,0.80859 -9.28192,3.3706 -12.92386,4.1754 -20.81055,4.5957 -7.65768,0.4081 -10.1936,0.18138 -12.75,-1.14062 -3.87992,-2.00632 -4.03318,-4.46044 -0.54883,-7.60156 -3.90201,-0.30142 -7.72456,-1.39605 -11.22851,-3.12891 -0.23433,-0.16419 -0.67957,-0.29459 -0.9707,-0.27539 z" /><path
       id="path8050"
       style="fill:#062627;fill-opacity:1;stroke-width:0.387237"
       d="m 103.03711,764.8759 c -1.86726,-0.0853 -3.762929,0.38685 -5.335938,1.41015 -3.259106,2.03815 -5.148729,6.4814 -3.5625,10.12696 0.514142,1.32817 2.522415,1.31394 3.201172,0.13671 0.937457,-1.0086 1.097111,-2.44376 1.101562,-3.75195 0.705296,-2.65606 4.226514,-3.77629 6.517574,-2.45703 1.50087,0.4758 3.49322,0.49311 4.57813,-0.80078 0.54782,-1.13778 -0.49472,-2.129 -1.33984,-2.73242 -1.45504,-1.20356 -3.2929,-1.84631 -5.16016,-1.93164 z m 16.08398,11.60742 c -5.11077,0.0717 -10.18274,1.36407 -14.51757,4.1582 -6.313971,4.03105 -10.407001,10.84758 -12.128911,18.05078 1.857636,-0.33014 3.283374,-0.50833 4.958985,-0.77539 0.646948,-2.09826 1.536605,-4.11634 2.736326,-5.98633 2.05014,-3.25797 4.86547,-6.04034 8.18945,-7.99023 5.52975,-3.23595 12.34106,-3.75397 18.47852,-2.17383 2.55677,0.58897 5.06549,1.54005 7.38281,2.89063 2.30203,1.09613 4.39913,2.56056 6.49805,3.98632 1.75833,0.91053 3.60578,1.65503 5.26953,2.73829 2.77889,1.40846 5.52163,2.89548 8.27539,4.34765 2.08246,1.28894 4.1829,2.56768 6.43945,3.5332 2.9736,1.61203 5.73943,3.60391 8.85157,4.95508 2.86072,1.61011 5.58772,3.46856 8.60156,4.79297 8.23676,4.42426 16.76363,8.56978 23.55859,15.12695 10.93214,10.29649 17.8469,24.65863 18.98047,39.63868 0.25125,3.34688 0.20088,6.70178 -0.10742,10.03515 4.5e-4,-7.8e-4 0.002,-10e-4 0.002,-0.002 7.4e-4,-10e-4 0.001,-0.003 0.002,-0.004 1.48395,-2.57076 3.05236,-5.19182 4.69336,-7.80078 0.0123,-0.0196 0.0228,-0.039 0.0352,-0.0586 0.007,-0.0105 0.0129,-0.0207 0.0195,-0.0312 -0.4048,-11.91336 -4.03499,-23.73923 -10.85156,-33.55274 -6.71687,-9.80159 -16.06737,-17.65129 -26.56641,-23.14648 -13.81524,-7.63633 -27.54899,-15.428 -41.48632,-22.84961 -5.85709,-3.32215 -11.61024,-7.11073 -18.22461,-8.75391 -2.943,-0.77502 -6.02337,-1.17193 -9.08985,-1.1289 z m 24.19922,25.39844 c -0.83037,-0.0867 -1.64721,-0.0152 -2.39062,0.49023 -0.74532,0.57282 -1.03038,2.12561 0.0937,2.45703 3.71369,1.95558 7.89974,2.77321 11.63476,4.68164 5.88682,2.1607 11.47006,5.24146 16.78711,8.59766 5.69193,3.31661 10.8837,7.43001 15.8125,11.7832 1.22447,1.08324 2.40702,2.21189 3.59375,3.33594 1.04979,0.3691 2.72977,-0.14543 2.62696,-1.47461 -0.73279,-2.33655 -2.73064,-3.97657 -4.43165,-5.63086 -4.6958,-4.77286 -10.4326,-8.30529 -15.93164,-12.05469 -3.70012,-2.36382 -7.74316,-4.11004 -11.5332,-6.3164 -2.10393,-1.10573 -4.41605,-1.74631 -6.60547,-2.66211 -2.39955,-0.90293 -4.82901,-1.74333 -7.1875,-2.7461 -0.79545,-0.13013 -1.63837,-0.37425 -2.46875,-0.46093 z m 3.01367,26.00585 c -2.88955,-5.2e-4 -5.76614,0.31179 -8.55078,1.14844 -1.10341,0.36645 -2.15698,0.8754 -3.14648,1.48438 -4.51632,2.83758 -7.29094,7.6026 -9.5332,12.29687 -4.19873,8.67646 -6.3468,18.36977 -6.03711,28.00977 0.35458,3.83288 0.84714,7.71206 2.37304,11.28125 1.40467,3.52802 3.16923,6.94265 5.41992,10.00781 2.13018,2.7139 4.83471,4.91747 7.60157,6.95117 3.91725,2.80222 8.48966,4.71696 13.25781,5.43164 0.58139,0.0487 1.16672,0.0604 1.75,0.0996 0.30304,-0.30146 0.60824,-0.60311 0.98242,-0.91797 0.71087,-0.59813 1.30044,-1.05745 1.92969,-1.41211 10e-4,-7e-4 0.003,-10e-4 0.004,-0.002 0.24152,-0.13582 0.503,-0.24321 0.76562,-0.34961 0.042,-0.0167 0.0786,-0.0404 0.12109,-0.0566 0.0437,-0.0167 0.0804,-0.0406 0.125,-0.0566 5.8e-4,-2.1e-4 0.001,2.1e-4 0.002,0 0.36275,-0.12952 0.75729,-0.2372 1.20508,-0.32422 1.77708,-0.34535 4.39232,-0.38867 9.17968,-0.38867 2.28616,0 4.13577,-0.0263 5.77149,-0.11133 0.004,-1.8e-4 0.006,1.9e-4 0.01,0 l 0.002,-0.002 c 1.88147,-0.82359 3.71912,-1.74872 5.48828,-2.78711 2.2769,-1.21608 4.55705,-2.52044 6.33984,-4.41992 0.93204,-0.75292 1.80656,-1.57262 2.65234,-2.41992 -0.003,1.4e-4 -0.006,-1.5e-4 -0.01,0 -0.001,4e-5 -0.003,-5e-5 -0.004,0 -0.77259,0.032 -1.59732,0.11585 -2.55078,0.27343 -1.90281,0.31453 -3.65283,0.50861 -5.33008,0.65235 -0.004,3.2e-4 -0.008,-3.3e-4 -0.0117,0 -0.004,3.2e-4 -0.008,0.002 -0.0117,0.002 -0.65496,0.0579 -1.31814,0.12693 -1.93555,0.16016 -0.12911,0.0784 -0.24655,0.17354 -0.37695,0.25 -3.16587,1.96601 -6.49001,3.61728 -9.95899,4.77539 -7.80682,2.61943 -16.75884,2.61089 -24.17578,-1.21485 -5.23047,-2.70353 -9.40212,-7.23743 -11.98633,-12.55273 -4.09541,-8.40382 -4.36891,-18.25851 -2.13476,-27.22266 1.48738,-5.9444 4.02956,-11.61484 7.33007,-16.76953 1.3321,-1.93247 2.77856,-3.88423 4.9004,-5.00586 4.27797,-2.32291 9.3762,-2.14199 14.02343,-1.27344 8.27006,1.23541 16.69727,3.37777 23.57227,8.34571 4.04962,2.86623 7.60836,6.68299 10.03906,11.03906 3.2698,5.73236 4.49169,12.75428 3.05859,19.26367 -0.55527,2.63557 -1.49122,5.1789 -2.69335,7.58985 1.78205,0.21593 3.58984,0.46446 5.3789,0.73828 1.78933,-4.32804 2.83479,-8.96915 3.11524,-13.63672 0.21039,-4.8314 -0.39918,-9.7943 -2.38868,-14.23633 -1.47595,-2.90738 -3.61151,-5.40825 -5.59765,-7.96875 -1.93961,-2.0832 -4.23545,-3.80495 -6.24024,-5.81445 -4.24307,-2.80752 -8.7281,-5.26547 -13.48242,-7.09375 -3.70323,-1.55888 -7.62205,-2.56661 -11.61133,-3.03321 -2.83869,-0.41597 -5.74127,-0.72991 -8.63086,-0.73047 z m -53.12109,4.21485 c -0.332397,-0.002 -0.960275,0.19314 -1.673828,0.44922 -0.0064,0.002 -0.01115,0.004 -0.01758,0.006 -0.157754,0.0577 -0.28151,0.0908 -0.453125,0.1582 -0.208266,7.646 -0.437354,15.2922 -0.466797,22.94141 -0.04714,7.59538 -0.05779,15.21031 0.533203,22.78906 1.102785,10.06528 4.819891,19.75687 10.207037,28.29492 8.53573,13.33752 22.16794,23.37337 37.5332,27.30469 14.76339,3.84378 30.67903,2.37725 44.77734,-3.31446 -0.002,3.2e-4 -0.005,-3.1e-4 -0.008,0 -0.73817,0.0947 -1.44945,0.14126 -2.15625,0.1836 -0.37347,0.0233 -0.7479,0.0475 -1.11328,0.0566 -0.5879,0.0127 -1.16893,0.009 -1.73633,-0.0156 -0.003,-1.1e-4 -0.005,1.2e-4 -0.008,0 -0.32635,-0.0129 -0.64227,-0.0458 -0.96094,-0.0742 -0.14214,-0.0118 -0.28532,-0.0215 -0.42773,-0.0332 -0.0528,-0.005 -0.10754,-0.008 -0.16016,-0.0137 -0.42708,-0.0461 -0.86124,-0.0801 -1.27734,-0.14844 -0.9392,-0.15043 -1.85782,-0.34333 -2.74414,-0.60937 -0.29888,-0.0897 -0.53168,-0.21362 -0.8125,-0.31446 -2.81323,0.68522 -5.66224,1.20498 -8.52539,1.51368 -12.53532,1.34897 -25.62329,-0.82601 -36.78125,-6.89649 -3.91632,-2.12767 -7.4354,-4.5842 -10.82618,-7.52539 -2.03655,-1.77685 -3.88205,-3.75253 -5.83789,-5.61523 -4.43872,-5.55244 -7.89059,-11.8357 -10.843748,-18.26367 -2.316011,-5.441 -3.3078,-11.27672 -3.644532,-17.16407 -1.066745,-14.44351 -0.533554,-28.91804 -0.171875,-43.38672 -0.913571,-0.15264 -1.874357,-0.32009 -2.404297,-0.32226 z m 9.875,2.05664 c -1.38247,10.35229 -1.49494,20.86424 -0.43359,31.25195 0.0964,1.91139 0.20942,4.13591 1.7539,5.49805 1.18831,0.7632 2.77022,-0.5479 2.55664,-1.85938 -0.0265,-2.07541 -0.59706,-4.10002 -0.66601,-6.17578 -0.85097,-9.28149 -0.59071,-18.75534 0.6914,-28.02148 -1.20338,-0.12848 -2.48819,-0.3595 -3.90039,-0.69336 -6.1e-4,-1.5e-4 -10e-4,1.5e-4 -0.002,0 z m 72.68359,15.09375 c -0.35632,-0.0237 -0.7154,0.0824 -0.97851,0.33984 -0.92836,1.11867 -0.10344,2.60396 0.43164,3.70313 0.93594,1.63426 2.10179,3.14505 2.75976,4.92773 1.05068,2.43816 1.67515,5.35326 1.67969,8.12305 0.0619,4.28597 -1.2251,8.5584 -3.63281,12.14648 -0.0721,0.10995 -0.15863,0.2078 -0.23242,0.31641 1.33029,0.0571 2.72311,0.13299 4.22656,0.25781 1.34875,-2.49118 2.33233,-5.17671 2.84961,-7.98242 1.42292,-7.54296 -0.66285,-15.89392 -6.14648,-21.39258 -0.24821,-0.26249 -0.60071,-0.41573 -0.95704,-0.43945 z m 29.92774,14.30664 c -0.24329,0.009 -0.48495,0.0777 -0.69336,0.20898 -1.4223,0.82877 -1.65987,2.59914 -1.72852,4.0918 -0.62823,4.83855 -1.76579,9.58537 -3.36523,14.17188 1.45973,0.32184 2.7838,0.65179 4.01953,0.99609 0.28534,-0.75539 0.57573,-1.50884 0.85352,-2.26563 1.739,-4.25885 1.97199,-8.91922 2.41992,-13.44335 0.0391,-1.20128 0.40648,-2.83902 -0.79883,-3.60352 -0.21851,-0.11254 -0.46374,-0.16488 -0.70703,-0.15625 z m -43.43945,25.66406 c -1.23059,0.48442 -2.47742,0.92026 -3.7461,1.25977 -1.73281,0.33009 -3.83392,0.48303 -4.89453,2.09961 -0.40054,0.90591 0.74518,1.46001 1.42383,1.75 1.94084,0.63342 3.92277,-0.26423 5.83203,-0.59961 1.8258,-0.40772 3.59505,-1.02082 5.29492,-1.78711 -0.57894,-0.14942 -1.09538,-0.32607 -1.53906,-0.5332 -0.008,-0.004 -0.0177,-0.006 -0.0254,-0.01 -0.44652,-0.21057 -0.82977,-0.4477 -1.12695,-0.7168 -0.50532,-0.45755 -0.90468,-0.95031 -1.21875,-1.46289 z" /><path
       id="path22990"
       style="fill:#ffffff;fill-opacity:1;stroke:none;stroke-width:1.30526;stroke-linecap:round;stroke-opacity:1"
       d="m 134.39731,844.63241 c -0.7216,0.46212 -1.00679,1.3167 -1.33187,2.06415 -0.84889,2.02048 -1.21938,4.20028 -1.50352,6.36138 -0.49182,4.02899 -0.54624,8.10197 -0.34639,12.15283 0.20291,3.68086 0.5887,7.36416 1.4015,10.9644 0.39141,1.63122 0.83066,3.27892 1.65139,4.75408 0.38938,0.66389 0.92699,1.36911 1.73567,1.50195 0.56337,0.0521 1.13159,-0.14931 1.6023,-0.44892 0.38049,-0.26543 0.41089,-0.7826 0.28634,-1.19103 -0.32131,-1.13 -0.78721,-2.2125 -1.19295,-3.31372 -1.18413,-3.02354 -1.9692,-6.19689 -2.38346,-9.41607 -0.45067,-3.57641 -0.63623,-7.20166 -0.31383,-10.79749 0.2011,-2.23915 0.61392,-4.51342 1.17317,-6.71282 0.37875,-1.52568 0.8797,-3.03791 0.99046,-4.61496 0.025,-0.5133 -0.0225,-1.14344 -0.5006,-1.44648 -0.39941,-0.25802 -0.90349,-0.10186 -1.26821,0.1427 z" /><path
       id="path25450"
       style="fill:#000000;fill-opacity:1"
       d="m 112.93873,796.07996 c -10.42569,0.4508 -26.617793,3.41513 -53.564453,9.46093 -22.33498,5.01109 -25.40483,5.73524 -24.60742,5.11914 l -0.13672,0.0391 -32.9062502,7.50195 c -1.01819998,6.09999 -1.68414998,12.00291 -1.72070998,17.39063 -0.0922,13.57358 1.80759998,18.77813 8.46288998,23.17773 3.9417002,2.6057 4.9664002,2.81358 13.3379002,2.70898 14.82908,-0.1852 30.51454,-6.32998 57.13671,-22.38476 6.7074,-4.045 12.73399,-7.00024 14.27149,-6.99024 1.4637,0.006 4.87041,0.68101 7.570313,1.5 6.04389,1.8335 11.58447,1.94678 11.60547,0.23829 0.0116,-0.9482 0.21816,-0.93064 0.85156,0.0684 0.6148,0.9696 1.73238,1.08365 4.23438,0.43555 2.67739,-0.6937 3.51798,-1.50351 3.95508,-3.8164 0.52739,-2.7906 0.5919,-2.8256 1.3164,-0.6875 0.8716,2.57249 1.52525,2.70976 5.11914,1.07226 1.4221,-0.648 2.37815,-1.72192 2.12305,-2.38672 -0.2882,-0.7482 0.20297,-1.03414 1.29687,-0.74804 0.9811,0.2565 3.13328,-0.69399 4.85938,-2.14649 l 2.90625,-2.44726 0.1543,-0.70313 c 0,0 3.49176,-2.52878 2.52148,-6.9375 -0.21865,-0.14221 -0.56165,-1.07102 -1.22266,-2.92187 -1.85479,-5.1936 -8.68052,-12.41848 -13.94921,-14.76368 -3.17974,-1.41536 -7.35982,-2.04977 -13.61524,-1.77929 z m 3.24414,13.36523 c 0.0539,-0.0612 0.27891,0.0428 0.69141,0.33399 2.85449,2.01479 5.49592,4.7006 8.41992,8.5625 2.4794,3.27469 0.59227,1.71186 -5.41992,-4.49024 -2.475,-2.55315 -3.85313,-4.22267 -3.69141,-4.40625 z m 116.7367,44.99102 c -4.2099,6.04055 -10.36808,15.54019 -14.48478,23.15549 -2.3786,4.4 -4.4314,8.1295 -4.5625,8.2871 -0.131,0.1576 -3.5678,-0.8314 -7.6367,-2.1973 -9.6765,-3.2483 -32.60417,-6.0052 -37.95506,-4.5644 -6.4633,1.7404 -8.97483,7.7926 -4.80274,11.5703 2.2741,2.0592 9.07778,2.4129 18.00391,0.9375 3.51449,-0.5809 5.47849,-0.3477 8.27339,0.9785 l 3.6641,1.7383 -9.68944,3.375 c -8.56804,2.9841 -10.87908,3.375 -19.94727,3.375 -9.57479,0 -10.45963,0.1729 -13.33203,2.5898 -3.9717,3.342 -3.93602,5.9159 0.11328,8.0098 2.5564,1.322 5.09231,1.5487 12.75,1.1406 7.88669,-0.4203 11.52862,-1.2251 20.81055,-4.5957 11.03181,-4.0061 14.19531,-4.3147 8.25981,-0.8086 -4.0802,2.4103 -13.12369,5.4696 -21.32622,7.2149 -8.37489,1.782 -10.68359,2.959 -10.68359,5.4453 0,1.3855 1.14303,2.266 4.08203,3.1465 5.33439,1.5983 13.48839,0 24.41798,-4.7735 4.4,-1.9234 8.675,-3.7289 9.5,-4.0137 2.9127,-1.0056 -2.5642,2.7697 -9.7031,6.6895 -6.30158,3.4601 -8.01511,3.9551 -13.69144,3.9551 -3.5684,0 -6.73571,0.399 -7.03711,0.8867 -0.7238,1.1712 1.61979,3.0479 5.11718,4.0977 7.98094,2.3956 17.87507,0.2808 32.20317,-6.8809 26.9919,-13.4916 52.4393,-32.6234 70.8789,-53.28907 3.0991,-3.47326 5.7924,-6.73992 8.2011,-9.85156 z"
       sodipodi:nodetypes="csccccscsccsscscsccccccssccscssscsssssscccscssscsscccsssssscc" /></g></svg>
