<?xml version="1.0" encoding="UTF-8" standalone="no"?>
<!-- Created with Inkscape (http://www.inkscape.org/) -->

<svg
   width="634.02435"
   height="588.03497"
   viewBox="0 0 167.75227 155.58425"
   version="1.1"
   id="svg2416"
   inkscape:version="1.2.2 (b0a8486541, 2022-12-01)"
   sodipodi:docname="avocado_voting.svg"
   xmlns:inkscape="http://www.inkscape.org/namespaces/inkscape"
   xmlns:sodipodi="http://sodipodi.sourceforge.net/DTD/sodipodi-0.dtd"
   xmlns="http://www.w3.org/2000/svg"
   xmlns:svg="http://www.w3.org/2000/svg">
  <sodipodi:namedview
     id="namedview2418"
     pagecolor="#ffffff"
     bordercolor="#000000"
     borderopacity="0.25"
     inkscape:showpageshadow="2"
     inkscape:pageopacity="0.0"
     inkscape:pagecheckerboard="0"
     inkscape:deskcolor="#d1d1d1"
     inkscape:document-units="mm"
     showgrid="false"
     inkscape:zoom="2.8874236"
     inkscape:cx="84.504399"
     inkscape:cy="216.45594"
     inkscape:window-width="956"
     inkscape:window-height="1027"
     inkscape:window-x="960"
     inkscape:window-y="147"
     inkscape:window-maximized="1"
     inkscape:current-layer="layer1" />
  <defs
     id="defs2413" />
  <g
     inkscape:label="Ebene 1"
     inkscape:groupmode="layer"
     id="layer1"
     transform="translate(-180.40352,119.10547)">
    <g
       id="g2036"
       transform="matrix(0.26458333,0,0,0.26458333,187.43037,-234.8457)">
      <g
         id="g3577">
        <g
           id="g57287"
           transform="translate(127.59486,269.24054)">
          <path
             style="fill:#f2f2f2;fill-opacity:1"
             d="m 269.43001,338.51775 c 7.97451,0.0357 13.61541,1.75553 19.85551,6.04883 5.9069,4.0641 10.4395,9.43616 13.5429,16.05273 2.3489,5.0079 2.6016,6.70856 2.6016,17.54493 0,10.06187 -0.339,12.72914 -2.0899,16.51171 -4.2179,9.1123 -12.5833,14.74138 -23.3613,15.71875 l -5.6758,0.51368 5.3594,5.35937 c 7.7109,7.71087 10.7656,14.77312 10.7656,24.89649 0,9.90417 -3.0513,17.1969 -10.0351,23.98437 -5.2635,5.1155 -16.32182,10.77582 -24.26369,12.41992 -7.5482,1.5625 -29.53345,1.27023 -36.19922,-0.48047 -9.74827,-2.56007 -19.37415,-7.9586 -24.82422,-13.92187 -6.092,-6.66557 -8.55475,-13.26574 -8.59375,-23.03711 -0.0342,-8.63897 3.0957,-15.76303 10.4668,-23.82813 l 4.90234,-5.36328 -4.97461,-0.58984 c -10.57367,-1.2523 -19.26217,-7.26679 -22.98047,-15.91016 -3.0569,-7.10577 -3.42048,-24.62191 -0.67578,-32.49218 5.22197,-14.97407 23.62103,-24.9508 40.88867,-22.16993 7.06987,1.1385 18.12937,6.54618 22.30664,10.90625 l 2.79102,2.91407 5.8125,-5.38086 c 7.39507,-6.8466 14.67005,-9.74027 24.38086,-9.69727 z"
             id="path51374" />
          <g
             id="g55762">
            <path
               style="fill:#ececec;fill-opacity:1"
               d="m 135.07844,360.84392 c 0.54888,0.009 1.19227,0.56648 2.06836,1.57032 1.1166,1.27927 1.67065,5.0449 2.06055,14 0.2937,6.73747 0.43475,12.25 0.31445,12.25 -0.78767,0 -5.64401,-6.05355 -6.97851,-8.69922 -2.018,-4.002 -2.03797,-7.51297 -0.0762,-14.11914 1.04181,-3.50813 1.69655,-5.01703 2.61132,-5.00196 z"
               id="path51382" />
            <path
               style="fill:#ececec;fill-opacity:1"
               d="m 340.88312,359.66424 c 0.4964,0 1.8758,2.5875 3.0645,5.75 2.7633,7.35197 2.1996,11.94243 -2.1778,17.7539 -1.8373,2.4392 -3.6773,4.44785 -4.0898,4.46485 -0.4125,0.017 -0.75,-4.94031 -0.75,-11.01758 0,-10.75817 1.4437,-16.95117 3.9531,-16.95117 z"
               id="path51380" />
            <path
               style="fill:#ececec;fill-opacity:1"
               d="m 139.00618,337.66424 c 5.12677,0 5.1385,0.007 4.375,2.75 -0.4211,1.51247 -1.26304,5.06779 -1.86914,7.90039 l -1.10156,5.15039 -3.49024,-1.85743 c -1.9199,-1.02197 -4.22394,-1.87739 -5.11914,-1.90039 -2.1401,-0.0551 -4.35252,2.54234 -2.91992,3.42774 1.7069,1.0549 1.21643,3.73311 -1.65234,9.03711 -3.3495,6.19257 -3.6542,14.02059 -0.7793,19.99219 1.0591,2.19997 4.97565,6.98626 8.70312,10.63476 3.7274,3.6485 6.77735,6.911 6.77735,7.25 0,3.0843 -10.95686,-4.1224 -16.03516,-10.54687 -6.02667,-7.6242 -8.2264,-14.56875 -8.3418,-26.33789 -0.0827,-8.4254 0.23812,-10.62983 2.04102,-14 4.1289,-7.7183 10.51334,-11.5 19.41211,-11.5 z"
               id="path51372" />
            <path
               style="fill:#ececec;fill-opacity:1"
               d="m 335.59212,337.64274 c 0.8907,0.0177 2.0861,0.0904 3.6719,0.19141 7.9277,0.5048 13.5814,3.88013 16.8945,10.08203 1.9817,3.7099 2.2715,5.70718 2.2715,15.74805 0,10.33547 -0.2683,12.07019 -2.6367,17.12109 -3.0293,6.46077 -8.4611,12.83695 -14.3067,16.79492 -9.5145,6.44197 -10.0928,4.27766 -1.0957,-4.10351 11.6862,-10.88627 14.1593,-20.07236 8.666,-32.1875 -2.1205,-4.6765 -2.6145,-6.78968 -1.8945,-8.07618 1.5782,-2.82017 -0.4772,-3.88871 -5.9082,-3.07421 -2.6539,0.39787 -5.0492,0.72289 -5.3242,0.71289 -0.275,-0.006 -0.8252,-1.96384 -1.2227,-4.34961 -0.3975,-2.3858 -0.984,-5.40374 -1.3007,-6.70704 -0.4263,-1.7525 -0.4868,-2.20555 2.1855,-2.15234 z"
               id="path51370" />
          </g>
        </g>
        <path
           id="path1754"
           style="fill:#000000;fill-opacity:1"
           d="m 355.60937,505.9091 c -0.3186,0 -0.57789,3.9375 -0.58789,8.75 -0.0151,13.61634 -4.90209,24.70263 -13.75976,31.2168 -5.4584,4.0139 -6.17647,3.82747 -3.73047,-0.9668 2.4191,-4.7417 1.81887,-4.90647 -6.05273,-1.66797 -16.42304,6.75647 -37.02609,24.85976 -49.25586,43.2793 l -6.71289,10.11133 -8.25977,-0.11133 c -7.4289,-0.0998 -8.92873,0.21875 -14.9043,3.16015 -11.88767,5.85187 -17.74708,15.36184 -18.55078,30.10938 -0.8504,15.60547 4.11388,29.28185 14.34375,39.51172 6.02047,6.0203 14.85525,11.08629 22.01172,12.62109 4.61247,0.9892 5.06885,1.37298 7.24805,6.12305 1.27907,2.7881 1.94431,5.37745 1.47851,5.75195 -0.4658,0.3745 -3.54259,2.46519 -6.83789,4.64649 -9.05067,5.9911 -22.26774,19.76353 -29.74804,31 -14.14343,21.2448 -24.82909,49.7513 -28.08008,73.51367 0.0505,-0.0158 0.0916,-0.0284 0.13867,-0.043 -0.6673,4.69509 -1.15968,9.27697 -1.18945,13.49414 -2e-5,0.004 3e-5,0.008 0,0.0117 0,0.001 1e-5,0.003 0,0.004 -2e-5,0.003 2e-5,0.005 0,0.008 -0.0227,3.37554 0.0792,6.22918 0.3457,8.68554 6.5e-4,0.006 7.5e-4,0.0139 0.002,0.0195 0.80739,7.39636 3.12379,11.14972 8.11524,14.44922 1.07051,0.70767 1.92783,1.22538 2.77343,1.6211 0.64404,0.30191 1.2926,0.52783 2.01563,0.6914 1.8255,0.41146 4.18205,0.45106 8.54883,0.39649 6.37118,-0.0796 11.91529,-1.97419 15.75586,-3.46875 12.13023,-4.26966 27.56905,-53.9622 29.29297,-57.9336 1.77558,-4.52281 3.2062,-8.84273 4.89257,-13.41211 0.0228,-0.057 0.0454,-0.11457 0.0684,-0.17187 l 0.23828,-0.41602 1.81836,6.00782 c 0.97598,3.22345 1.77885,5.73098 2.57227,13.73437 0.79343,8.0034 0.70459,21.41081 2.52148,32.79297 1.81695,11.38216 1.33691,25.31586 1.37891,27.79883 0.0291,1.7094 -0.13841,1.69853 -2.80078,-0.19727 -5.3431,-3.8045 -13.3914,-6.40367 -20.16797,-6.51367 -5.4184,-0.088 -7.28568,0.35405 -11.21875,2.66602 -9.66577,5.6818 -14.71675,17.83219 -12.87305,30.96679 1.7409,12.4025 6.866,25.18273 16.25977,40.54493 8.98447,14.6925 22.77439,30.05559 40.83203,45.49609 5.77477,4.9376 10.89014,9.33413 11.36914,9.76953 0.4789,0.4349 -0.8711,0.41105 -3,-0.0547 -8.80257,-1.924 -28.19838,-3.17875 -44.01172,-2.84765 -16.10594,0.3372 -17.06941,0.47149 -21.60351,3.02929 l -4.7461,2.67774 c -1.8792,1.8201 -2.5418,7.1316 -3.6582,14.1914 l 3.84961,2.26954 5.15039,-2.55665 c 6.89387,-3.422 11.40076,-4.4897 5.43359,-1.2871 -4.65667,2.4992 -6.7832,4.97553 -6.7832,7.89453 0,0.8237 3.20695,3.75773 7.12695,6.51953 l 7.12696,5.02149 3.32812,-2.5371 c 7.94737,-6.06194 20.28063,-7.23959 50.55664,-4.82619 12.29837,0.9804 23.99725,1.4737 25.99805,1.0957 5.50867,-1.0406 8.86328,-4.9453 8.86328,-10.3164 0,-4.7794 -2.10843,-9.60642 -8,-18.32422 -2.9258,-4.3292 -17.35159,-27.1208 -21.38086,-33.7793 -0.426,-0.704 2.41079,0.78208 6.30469,3.30078 8.39967,5.4339 14.71946,8.42723 17.85156,8.45703 2.1989,0.021 2.2242,-0.077 0.75,-2.92773 -2.261,-4.3722 -1.89902,-4.58507 1.98828,-1.17187 5.07427,4.4551 8.97598,6.21352 15.21485,6.85742 5.3409,0.5513 5.47011,0.50672 4.38671,-1.51758 -0.6141,-1.1474 -1.11523,-2.87604 -1.11523,-3.83984 0,-1.477 0.4328,-1.35048 2.75,0.79882 7.64887,7.0956 19.66348,6.13537 32.71289,-2.61523 3.5953,-2.4109 6.53711,-4.15701 6.53711,-3.87891 0,0.8546 -12.03918,17.3396 -19.21289,26.3086 -8.1212,10.1535 -9.70624,13.95939 -7.32617,17.59179 3.8772,5.9176 10.20674,5.65822 39.53906,-1.61718 27.5446,-6.8321 39.31018,-8.97367 53.08398,-9.66407 14.6309,-0.7333 19.92734,0.43803 26.49024,5.86133 4.7714,3.9428 5.04226,4.03051 11.28906,3.63281 5.6956,-0.3627 6.71508,-0.76068 9.26758,-3.61718 3.6011,-4.0306 3.61005,-6.61836 0.0371,-12.25196 -5.0195,-7.9147 -11.30591,-12.15217 -21.53711,-14.51757 l -6.13086,-1.41797 5.91992,0.5332 c 10.4446,0.941 19.05819,6.31728 24.21289,15.11328 1.5226,2.5982 3.02314,4.09944 3.71094,3.71094 4.658,-2.631 5.85794,-6.55946 3.36914,-11.03516 -1.5951,-2.8687 -13.25359,-12.97732 -17.71289,-15.35742 -1.925,-1.0275 -2.92004,-1.88811 -2.21094,-1.91211 2.5565,-0.088 8.79807,3.88115 13.16797,8.37305 4.5543,4.681 6.7161,5.50861 8.8418,3.38281 3.8303,-3.8305 -0.74373,-11.92903 -9.17383,-16.24023 -7.9821,-4.0823 -18.96256,-4.55743 -38.69336,-1.67383 -14.3313,2.0945 -45.59984,8.19322 -49.43164,9.64062 -1.1251,0.425 0.447,-1.82086 3.5957,-5.13476 22.7973,-23.9935 36.65467,-46.08751 40.51367,-64.59571 0.8085,-3.8775 1.23663,-7.28105 0.95313,-7.56445 -0.054,-0.054 -0.27199,0.043 -0.49219,0.14258 -4.4457,4.133 -9.05643,8.09034 -13.80273,11.86914 -13.4595,10.6694 -27.98847,20.00037 -43.29297,27.79687 -7.0721,3.5378 -14.38594,6.87278 -22.21484,8.29688 -5.7626,1.0231 -11.98046,0.89077 -17.31836,-1.73633 -2.25582,-1.0716 -4.50102,-2.86199 -4.94336,-5.46289 -2.01512,-0.5454 -4.0873,-1.28463 -5.63477,-2.73633 -1.98533,-1.8887 -2.41144,-5.0627 -1.16601,-7.4707 -2.58004,-0.015 -5.21206,-0.33128 -7.58594,-1.39648 -2.68598,-1.1784 -5.33241,-3.27856 -5.87696,-6.31836 -0.55714,-2.9634 1.12818,-5.8183 3.25391,-7.75 1.95187,-1.9498 4.3598,-3.55595 7.12109,-4.02735 6.58502,-0.9346 13.30672,0.15227 19.86915,-1.04883 -2.99326,0.1481 -6.0357,0.055 -8.94532,-0.72461 -4.2669,-0.9077 -7.49787,-5.04636 -7.48047,-9.38476 -0.002,-4.1068 2.7596,-7.79215 6.28711,-9.68555 3.396,-1.9851 7.45446,-2.06274 11.27344,-1.89844 8.23265,0.3399 16.43161,1.4195 24.50391,3.0586 4.228,0.7498 8.28885,2.16826 12.37695,3.44336 0.3818,-0.6914 0.75882,-1.38453 1.13672,-2.07813 3.6988,-6.95433 7.76228,-13.7104 12.11328,-20.27734 l 2.51367,-4.17578 0.15039,-20.08399 c 0.1184,-15.90974 0.54348,-21.71514 2.04688,-27.93554 l 1.89648,-7.85157 5.57422,11.06641 c 7.2747,14.44544 11.59289,20.55118 13.86719,19.61328 5.3832,-2.22 5.17505,-1.2007 -0.99805,4.88867 -7.5514,7.4494 -13.79554,14.82138 -19.65234,23.27344 0.01,0.0456 0.0184,0.091 0.0254,0.13672 -4.1159,5.93275 -8.07622,12.28307 -12.10742,19.74023 -2.3786,4.4 -4.4314,8.12951 -4.5625,8.28711 -0.01,0.01 -0.30692,-0.0957 -0.32422,-0.0937 -0.4717,-0.032 -2.65254,-0.68528 -5.17774,-1.48828 -0.9803,-0.3062 -0.99716,-0.23333 -2.13476,-0.61523 -9.6763,-3.2482 -32.60446,-6.00506 -37.95508,-4.56446 -6.4631,1.7404 -8.97475,7.79262 -4.80273,11.57032 2.2739,2.0592 9.07804,2.4129 18.0039,0.9375 3.51448,-0.5809 5.47854,-0.34769 8.27344,0.97851 l 3.66406,1.73828 -9.68945,3.375 c -8.56784,2.9841 -10.87935,3.375 -19.94727,3.375 -9.57452,0 -10.45963,0.17305 -13.33203,2.58985 -3.9715,3.3418 -3.93582,5.91606 0.11328,8.00976 2.5564,1.322 5.09258,1.54873 12.75,1.14063 7.88662,-0.4202 11.52889,-1.2253 20.81055,-4.5957 11.0316,-4.006 14.19437,-4.3145 8.25977,-0.8086 -4.0802,2.4103 -13.12372,5.46955 -21.32618,7.21485 -8.37462,1.7818 -10.68359,2.95901 -10.68359,5.44531 0,1.3855 1.14303,2.26598 4.08203,3.14648 5.33432,1.5983 13.48859,6e-5 24.41797,-4.77344 4.4,-1.9232 8.675,-3.72887 9.5,-4.01367 2.9127,-1.0057 -2.56423,2.76976 -9.70313,6.68946 -6.30158,3.4599 -8.01534,3.95507 -13.6914,3.95507 -3.5684,0 -6.73571,0.39902 -7.03711,0.88672 -0.7238,1.1712 1.61987,3.04786 5.11719,4.09766 7.63811,2.2927 17.14124,0.32106 30.49414,-6.11914 v -0.0195 c 0.5975,-0.2882 1.09148,-0.45307 1.70508,-0.75977 13.4871,-6.7414 26.58864,-14.89375 38.62304,-23.93945 0.01,-0.01 0.0164,-0.01 0.0234,-0.0156 0.2707,-0.2035 0.52337,-0.4206 0.79297,-0.625 2.6854,-2.0359 5.33139,-4.10551 7.90039,-6.22461 1.2026,-0.9924 2.33712,-2.02225 3.51172,-3.03125 1.5919,-1.3663 3.20899,-2.71928 4.74609,-4.11328 1.6242,-1.4739 3.1582,-2.98523 4.7168,-4.48633 1.0109,-0.9729 2.06723,-1.9289 3.04883,-2.9121 1.629,-1.6325 3.15326,-3.29583 4.69726,-4.95313 0.9307,-0.99879 1.92026,-1.98175 2.81836,-2.98828 13.1876,-14.77967 20.23242,-26.46044 20.23242,-33.55274 0,-1.36827 -0.99779,-4.26274 -2.21679,-6.43164 -1.81,-3.22017 -1.96566,-4.09806 -0.84766,-4.78906 2.7582,-1.7046 -1.05852,-25.3043 -7.60742,-47.04101 -6.4947,-21.55674 -17.71747,-41.51992 -29.57617,-52.61329 -5.7003,-5.33217 -14.30819,-11.73804 -16.96289,-12.62304 -0.567,-0.1891 0.25559,-2.65526 1.84179,-5.51953 2.6922,-4.862 3.26644,-5.30063 9.36914,-7.16993 20.2713,-6.20897 34,-25.67052 34,-48.19726 0,-16.16237 -6.6728,-27.6306 -19.5,-33.51367 -5.0329,-2.3085 -7.31691,-2.74408 -14.16601,-2.70508 l -8.16602,0.0449 -1.83008,-4.10156 c -2.8669,-6.4244 -15.68956,-22.85104 -23.10546,-29.59961 -3.7036,-3.3703 -10.44829,-8.61563 -14.98829,-11.6582 -8.6648,-5.8075 -21.52673,-11.85344 -22.05273,-10.36524 -0.1697,0.48 0.64901,2.75088 1.82031,5.04688 l 2.13086,4.17578 -5.01953,-3.84961 c -2.82761,-2.1692 -9.12784,-9.32503 -14.43164,-16.39063 -7.9434,-10.58164 -20.55776,-23.94832 -22.60938,-23.95898 z m 107.58399,100.97851 c 0.8907,0.0177 2.08627,0.0904 3.67187,0.19141 7.9277,0.5048 13.58144,3.88033 16.89454,10.08203 1.9815,3.7099 2.27148,5.70738 2.27148,15.74805 0,10.33527 -0.26832,12.07039 -2.63672,17.12109 -3.0293,6.46077 -8.46124,12.83715 -14.30664,16.79492 -9.5143,6.44197 -10.0926,4.27746 -1.0957,-4.10351 11.686,-10.88607 14.15931,-20.07256 8.66601,-32.1875 -2.1203,-4.6765 -2.61453,-6.78967 -1.89453,-8.07617 1.5782,-2.82017 -0.4774,-3.88872 -5.9082,-3.07422 -2.6539,0.39787 -5.04922,0.72289 -5.32422,0.71289 -0.275,-0.006 -0.82516,-1.96384 -1.22266,-4.34961 -0.3975,-2.3858 -0.98408,-5.40373 -1.30078,-6.70703 -0.4263,-1.7525 -0.48675,-2.20536 2.18555,-2.15235 z m -196.58594,0.0215 c 5.12677,0 5.1385,0.007 4.375,2.75 -0.4211,1.51247 -1.26304,5.06779 -1.86914,7.90039 l -1.10156,5.15039 -3.49024,-1.85742 c -1.9197,-1.02197 -4.22394,-1.87739 -5.11914,-1.90039 -2.1399,-0.0551 -4.35252,2.54233 -2.91992,3.42773 1.7069,1.0549 1.21643,3.73331 -1.65234,9.03711 -3.3495,6.19257 -3.6542,14.02079 -0.7793,19.99219 1.0591,2.19997 4.97566,6.98646 8.70313,10.63476 3.7272,3.6485 6.77734,6.9112 6.77734,7.25 0,3.0843 -10.95686,-4.1226 -16.03516,-10.54687 -6.02647,-7.624 -8.22639,-14.56895 -8.34179,-26.33789 -0.0827,-8.4252 0.23811,-10.62983 2.04101,-14 4.1289,-7.7181 10.51354,-11.5 19.41211,-11.5 z m 130.42383,0.85351 c 7.97431,0.0357 13.61537,1.75573 19.85547,6.04883 5.9067,4.0641 10.43957,9.43617 13.54297,16.05274 2.3487,5.0077 2.60156,6.70875 2.60156,17.54492 0,10.06167 -0.33914,12.72915 -2.08984,16.51172 -4.2179,9.1121 -12.58353,14.74138 -23.36133,15.71875 l -5.67578,0.51367 5.35937,5.35937 c 7.7107,7.71087 10.76563,14.77332 10.76563,24.89649 0,9.90397 -3.05156,17.1971 -10.03516,23.98437 -5.2633,5.1155 -16.322,10.77583 -24.26367,12.41993 -7.548,1.5623 -29.53365,1.27023 -36.19922,-0.48047 -9.74807,-2.56007 -19.37415,-7.95861 -24.82422,-13.92188 -6.0918,-6.66537 -8.55475,-13.26594 -8.59375,-23.03711 -0.0342,-8.63877 3.0959,-15.76322 10.4668,-23.82812 l 4.90234,-5.36328 -4.97461,-0.58985 c -10.57347,-1.2523 -19.26217,-7.26698 -22.98047,-15.91015 -3.0567,-7.10577 -3.42028,-24.62212 -0.67578,-32.49219 5.22197,-14.97387 23.62143,-24.95079 40.88867,-22.16992 7.06987,1.1385 18.12957,6.54618 22.30664,10.90625 l 2.79102,2.91406 5.8125,-5.38086 c 7.39487,-6.8464 14.67025,-9.74007 24.38086,-9.69727 z m 1.86523,19.46485 c -10.7444,0.13892 -21.35591,7.74973 -21.36523,16.66406 v 3.48242 l 2.59766,-3.82422 c 4.6931,-6.90647 17.00415,-10.62522 25.08593,-7.57812 7.5708,2.85427 13.25797,11.9181 13.29297,21.1875 0.012,3.16247 0.27112,5.75 0.57422,5.75 1.4147,0 3.44945,-7.51723 3.43945,-12.7168 -0.017,-10.41517 -7.30985,-19.50525 -17.87695,-22.28125 -1.5417,-0.405 -3.12098,-0.62228 -4.70508,-0.67383 h -0.004 c -0.34653,-0.0113 -0.69247,-0.0138 -1.03907,-0.01 z m -64.86718,0.0859 c -8.8222,-0.0868 -18.29419,5.45567 -22.58985,13.80664 -2.1647,4.2085 -2.57251,13.58622 -0.81054,18.64062 h -0.004 c 1.6858,4.83607 2.89983,3.75531 2.92383,-2.60156 0.0526,-13.75997 9.89075,-22.93301 23.65429,-22.05664 5.1002,0.3247 6.92658,0.94465 9.93165,3.37695 2.0249,1.639 4.5169,4.53695 5.5371,6.43945 l 1.85547,3.45899 v -3.98438 c -0.007,-7.39327 -6.34472,-13.98485 -15.83789,-16.47265 -1.23882,-0.32465 -2.51467,-0.51524 -3.80859,-0.58203 -0.28304,-0.0146 -0.56697,-0.0226 -0.85156,-0.0254 z m 134.45507,1.5957 c 0.4964,0 1.87576,2.5875 3.06446,5.75 2.7633,7.35177 2.19966,11.94244 -2.17774,17.75391 -1.8371,2.439 -3.67734,4.44784 -4.08984,4.46484 -0.4125,0.017 -0.75,-4.94031 -0.75,-11.01758 0,-10.75797 1.44392,-16.95117 3.95312,-16.95117 z m -205.80468,1.17969 c 0.54888,0.009 1.19227,0.56647 2.06836,1.57031 1.1166,1.27927 1.67064,5.0451 2.06054,14 0.2937,6.73727 0.43476,12.25 0.31446,12.25 -0.78767,0 -5.64402,-6.05355 -6.97852,-8.69922 -2.018,-4.002 -2.03782,-7.51317 -0.0762,-14.11914 1.04181,-3.50813 1.69656,-5.01702 2.61133,-5.00195 z m 269.23047,2.46484 c -10.49288,0.22522 -20.63548,4.66726 -29.28907,13.91797 -20.3426,21.74661 -21.7141,54.49832 -2.8125,67.13086 13.2398,8.8483 27.28791,1.74898 27.09961,-13.69336 -0.066,-5.4156 -2.92606,-12.98318 -5.50976,-14.58008 -1.9997,-1.2359 5.2983,-4.33195 10.3164,-4.37695 6.0547,-0.0541 8.804,1.04722 13.75,5.51562 7.2468,6.54707 13.34557,20.08722 16.72657,37.13086 2.6685,13.45267 2.37649,42.70838 -0.59571,59.81055 -8.1957,47.15985 -27.66891,70.35898 -69.79101,83.14258 l -9.22461,2.80078 -1.13672,5.52734 c -2.9133,14.1578 -11.24813,30.86915 -23.92383,47.96485 l -6.18945,8.3457 6.34961,-0.70508 c 23.4989,-2.6085 55.09859,-13.3421 75.43359,-25.625 44.2387,-26.7213 66.70414,-62.29716 72.90234,-115.44531 3.5834,-30.72548 0.37935,-68.15574 -7.97265,-93.15625 -13.0699,-39.12308 -39.3083,-62.90898 -64.0293,-63.69336 -0.70231,-0.0223 -1.40398,-0.0267 -2.10351,-0.0117 z m -197.46875,7.50977 c -0.30098,0.009 -0.67994,0.0881 -1.16016,0.21679 -1.2375,0.3317 -2.77863,0.60524 -3.42383,0.61524 -0.6452,0.007 -2.5577,1.39969 -4.25,3.09179 -5.67677,5.67707 -3.48768,15.0328 4.33789,18.53907 5.92827,2.6559 12.61023,-0.27895 15.95313,-7.00782 1.44217,-2.9027 1.62946,-4.25804 0.81836,-5.93554 -0.5781,-1.1956 -1.08214,-1.61133 -1.11914,-0.92383 -0.1162,2.14647 -5.04159,1.36857 -7.61329,-1.20313 -1.3765,-1.3765 -2.45312,-3.62408 -2.45312,-5.11718 0,-1.70445 -0.1869,-2.30129 -1.08984,-2.27539 z m 60.94726,0.8457 c -3.52954,0 -8.53991,4.27431 -9.35351,7.97851 -0.4262,1.9406 0.0354,4.45296 1.37109,7.47266 1.1069,2.50207 2.14986,4.55445 2.31836,4.56445 0.1684,0.008 2.1066,0.65234 4.30664,1.43164 6.08871,2.1574 10.94972,0.44913 14.63672,-5.14257 2.0033,-3.03827 2.47148,-7.81072 0.86328,-8.80469 -0.55,-0.3399 -1,-0.14109 -1,0.44141 0,0.5825 -1.5062,1.05859 -3.3457,1.05859 -3.8951,0 -6.54784,-2.44215 -6.86914,-6.32422 -0.181,-2.1861 -0.71685,-2.67578 -2.92774,-2.67578 z m -27.23437,28.08398 c -0.2423,0.0158 -0.37502,0.084 -0.37305,0.21485 0.009,0.628 3.62681,2.60753 8.03711,4.39843 9.27448,3.767 11.5643,4.26919 9.3457,2.05079 -1.999,-1.99882 -14.6677,-6.81655 -17.00976,-6.66407 z m -7.81055,0.61719 c -5.17211,0.10732 -14.45508,4.16567 -14.45508,6.42188 0,0.9026 0.95841,0.76558 2.27149,-0.32422 1.2492,-1.0369 5.60493,-2.80178 9.67773,-3.92188 5.92538,-1.6295 6.52384,-2.06233 2.99414,-2.17383 -0.15784,-0.005 -0.32143,-0.005 -0.48828,-0.002 z m -5.09766,7.78125 c -0.15849,-0.005 -0.31335,-0.002 -0.46289,0.01 -0.29908,0.0229 -0.57854,0.08 -0.82812,0.17578 -1.2647,0.4853 -0.64122,1.52991 2.98828,5.00781 2.52247,2.41707 4.58789,4.82848 4.58789,5.35938 0,0.5308 0.48462,0.96484 1.07812,0.96484 1.2363,0 0.30466,-5.41123 -1.40234,-8.14453 -1.06118,-1.69917 -3.48604,-3.07443 -5.47461,-3.33203 -0.16571,-0.0215 -0.32784,-0.0357 -0.48633,-0.041 z m 20.30664,0.51758 c -3.37697,0 -5.60064,2.64229 -6.65234,7.90039 l -0.6582,3.29297 5.14453,-5.14453 c 2.82927,-2.82937 5.14453,-5.34691 5.14453,-5.59571 0,-0.2488 -1.34122,-0.45312 -2.97852,-0.45312 z m -248.01171,5.71875 c -1.85182,0.13611 -3.08756,1.3674 -3.47071,3.38672 -0.1532,0.80774 -0.16991,1.74305 -0.0352,2.7832 0.076,0.58321 0.31488,1.27309 0.48828,1.91992 0.1356,0.50521 0.18421,0.9581 0.38281,1.49805 0.3802,1.03598 0.94827,2.16185 1.57227,3.30859 0.1156,0.22021 0.16887,0.40907 0.29687,0.63086 0.4613,0.799 1.12572,1.707 1.93359,2.66211 0.8068,0.95379 1.75964,1.95634 2.79493,2.95313 2.07237,1.9954 4.48471,3.96536 6.76757,5.45508 3.3818,2.20674 6.23784,4.32973 7.39844,5.45117 0.3871,0.37335 0.58469,0.63274 0.55469,0.75195 -0.065,0.2406 -0.36522,0.304 -0.85352,0.2207 -3.41556,-0.58197 -16.02964,-8.38272 -21.49414,-13.61132 -0.01,-0.0139 -0.0291,-0.0232 -0.0391,-0.0371 -2.7168,-2.59403 -5.83664,-4.95929 -7.99414,-6.14258 -0.5328,-0.23916 -1.07316,-0.494 -1.53906,-0.5625 -2.595,-0.38172 -5.82521,0.81176 -6.40821,5.14258 -0.023,0.65735 0.12558,1.41999 0.42188,2.26171 0.2959,0.84126 0.73649,1.76337 1.30859,2.73438 0.5731,0.97248 1.25969,2.00326 2.05469,3.05859 0.7935,1.05329 1.69001,2.13134 2.66211,3.21289 0.9721,1.08164 2.02285,2.16468 3.12695,3.22266 1.1043,1.05802 2.26373,2.09182 3.45313,3.07422 0.9987,0.82467 2.02433,1.58453 3.05273,2.32226 0.1987,0.14264 0.3925,0.3106 0.5918,0.44922 1.2278,0.85437 2.46194,1.63362 3.68164,2.3086 l 7.55664,4.17968 -0.0156,-0.004 -7.4961,-2.5332 c -4.12987,-1.39621 -10.38332,-4.94086 -13.89648,-7.87696 -8.68947,-7.26159 -12.3008,-8.32644 -13.8711,-4.08398 -0.2265,0.61305 -0.32478,1.30105 -0.30078,2.05078 0.024,0.74937 0.17033,1.55913 0.42383,2.41406 0.1907,0.64311 0.49839,1.33208 0.80859,2.01953 0.1041,0.22735 0.15414,0.43808 0.26954,0.66992 0.46417,0.93214 1.02708,1.89479 1.67968,2.8711 0.6514,0.97423 1.39224,1.96396 2.21094,2.95117 1.639,1.97559 3.5941,3.94433 5.7793,5.78516 1.09319,0.92088 2.2426,1.80987 3.4414,2.65039 3.2642,2.28883 5.98188,4.43627 7.28907,5.69531 2.81097,2.14023 6.2977,4.40218 11.3457,6.60352 2.0149,0.8786 4.23594,1.74958 6.83594,2.59765 0.049,0.0157 0.0851,0.0325 0.13476,0.0488 6.74529,2.18498 11.07753,3.81531 14.58789,6.46094 1.171,0.88251 2.25193,1.87529 3.29883,3.04297 3.271,3.43101 5.86994,8.28644 9.82813,16.30859 1.65347,3.3508 3.20057,6.31091 4.69336,8.89648 1.49467,2.5843 2.93769,4.79168 4.38085,6.63868 1.38538,1.7735 2.77281,3.20334 4.20704,4.32421 0.0276,0.0602 0.0523,0.12174 0.0801,0.18165 0.0234,0.0489 0.062,0.0883 0.0899,0.13476 -0.17786,-0.0495 0.0373,0.49293 0.79101,2.25391 0.0454,0.10605 0.0944,0.23637 0.14063,0.34765 0.60146,1.43905 1.27968,3.36535 2.01953,5.68946 0.18601,0.58612 0.38752,1.27098 0.58203,1.91211 0.61871,2.03391 1.28464,4.37836 1.98828,6.96679 0.15497,0.57112 0.29803,1.06445 0.45703,1.66211 3.0454,11.44742 5.03487,16.57247 8.35157,21.51953 2.76879,4.12988 8.5209,8.93425 12.15429,10.15039 0.001,4.1e-4 0.009,-4e-4 0.01,0 0.003,10e-4 0.007,0.005 0.01,0.006 0.003,9.2e-4 0.0458,-9e-4 0.0488,0 0.44641,0.10625 3.10685,0.12112 5.94727,0.0801 0.33037,-0.005 0.39391,-0.008 0.72656,-0.0137 2.8044,-0.0503 5.57281,-0.14951 6.40039,-0.27344 0.0168,-0.003 0.1218,-0.003 0.13672,-0.006 0.0295,-0.005 0.004,-0.0125 0.0312,-0.0176 0.36352,-0.067 0.54458,-0.11938 0.41016,-0.23242 -0.008,-0.007 -0.0346,-0.0203 -0.0449,-0.0273 -0.18578,-0.127 -0.70715,-0.33305 -1.67968,-0.69922 -0.0327,-0.0123 -0.0229,-0.0107 -0.0566,-0.0234 -1.22749,-0.4618 -2.58674,-1.09023 -3.01954,-1.39843 -1.27877,-0.9106 -2.66714,-3.61707 -4.12304,-8.03907 -1.7174,-5.21617 -2.28627,-7.79036 -2.66797,-12.05273 -0.689,-7.69397 1.12211,-19.29024 5.0293,-32.19141 1.50453,-3.00737 0.88884,-2.72941 1.97656,-4.29101 -0.0101,-0.0263 -0.0463,-0.11774 -0.0684,-0.17383 0.11744,-0.10037 0.14996,-0.18164 -0.0859,-0.4375 -0.028,-0.002 -0.056,-0.003 -0.084,-0.006 -0.0672,-0.16818 -0.089,-0.2168 -0.51953,-1.37109 -0.52676,-1.4121 -1.5122,-4.0985 -2.47657,-6.79297 -1.2371,-3.4691 -2.43245,-6.95352 -3.54882,-10.46289 -0.691,-2.22447 -1.34133,-4.46078 -2.01172,-6.69141 -0.2458,-0.8364 -0.50997,-1.66672 -0.79297,-2.49023 -0.1732,0.8237 -0.49662,1.63939 -0.98242,2.62109 -1.08019,2.18334 -1.64632,3.277 -2.01172,3.38867 -0.053,0.0161 -0.083,-0.13466 -0.12891,-0.16016 -0.2674,-0.14454 -0.43942,-0.84481 -0.66992,-2.33789 -0.3111,-2.00933 -3.54132,-10.41238 -7.17578,-18.67773 -3.1905,-7.25538 -4.82267,-11.10707 -5.38477,-14.43164 -0.5632,-3.32609 -0.0559,-6.12376 1.03516,-11.27734 0.01,-0.0304 0.01,-0.0653 0.0156,-0.0957 0.6864,-3.28383 0.90357,-7.02026 0.60157,-10.63476 -0.036,-0.45586 0.0131,-0.92274 -0.0449,-1.37305 -0.2281,-1.76304 -0.36169,-2.8588 -0.55859,-4.32031 l -17.6543,-0.1543 c -2.59827,3.8653 -6.94895,5.06789 -12.90625,3.55859 -6.94236,-1.75915 -16.05364,-7.17949 -27.0664,-16.30078 -2.85015,-2.36059 -5.31812,-3.3197 -7.16992,-3.18359 z m 193.46289,32.28125 c -0.3227,0 0.2131,1.35555 1.1914,3.01172 3.8586,6.5318 16.43734,14.05174 27.53321,16.46094 8.40547,1.8251 23.66746,1.83669 32.30273,0.0234 9.70507,-2.0374 20.55829,-7.57784 24.99219,-12.75781 1.9803,-2.3136 3.13586,-4.36168 2.56836,-4.55078 -0.5675,-0.1892 -4.61248,1.03691 -8.98828,2.72461 -22.56335,8.70127 -48.73213,7.83289 -73.10547,-2.42578 -3.24857,-1.36727 -6.17144,-2.48633 -6.49414,-2.48633 z" />
        <g
           id="g23972"
           transform="matrix(0.95061669,-0.5488388,0.5488388,0.95061669,160.30122,726.4047)">
          <path
             style="fill:#1c484b;fill-opacity:1;stroke-width:0.352778"
             d="m 102.41047,265.96419 c -4.096519,-0.64062 -8.287569,-0.87236 -12.248289,-2.19067 -1.51636,-0.282 -2.96072,-0.74052 -4.36592,-1.37815 -11.23133,-3.4903 -21.15766,-10.41108 -29.24354,-18.85527 -1.16194,-1.15354 -2.32246,-2.31063 -3.40789,-3.53735 0.16802,-1.17841 -1.43247,-1.67627 -1.92385,-2.62223 -0.72755,-1.13726 -1.48063,-2.23824 -2.17174,-3.38541 -0.92996,-0.96464 -1.15267,-2.3361 -2.07923,-3.30651 -0.61877,-0.93811 -0.83856,-2.06919 -1.40513,-3.0445 -0.46553,-1.0475 -1.12764,-2.001 -1.64294,-3.01218 -0.22092,-1.51898 -1.11759,-2.76108 -1.57547,-4.15814 -0.44043,-1.33049 -0.97067,-2.62703 -1.23057,-4.00901 -0.38018,-1.40548 -0.86582,-2.81204 -0.87175,-4.28442 -0.58225,-1.61299 -0.73561,-3.32899 -0.97108,-5.01046 -0.50031,-1.89575 -0.30752,-3.86927 -0.44284,-5.80703 -0.17049,-5.08399 -0.21724,-10.20905 0.68516,-15.23477 0.50158,-2.94286 1.16694,-5.86881 2.11653,-8.69947 0.60908,-1.55452 0.86102,-3.22701 1.53453,-4.76393 1.16293,-2.90952 2.58102,-5.71369 4.23372,-8.37555 0.95612,-1.81003 1.83061,-3.66677 2.972,-5.37388 1.86414,-2.91485 3.45546,-5.99301 5.35525,-8.88643 1.67083,-3.15605 3.47673,-6.24156 5.41886,-9.23855 0.69396,-1.34363 1.5046,-2.63136 2.46888,-3.79457 1.36592,-2.5099 2.70928,-5.03628 4.31434,-7.40593 1.77215,-2.59618 3.12659,-5.46696 5.07802,-7.94058 0.55571,-1.13397 1.02846,-2.3055 1.7163,-3.3722 1.72492,-3.1551 3.44878,-6.35403 5.86769,-9.04549 2.25829,-2.74069 4.67133,-5.39994 7.55069,-7.50389 1.68495,-0.63384 2.96452,-2.013242 4.67766,-2.607271 1.72865,-0.852645 3.61216,-1.282669 5.36645,-2.071488 1.28729,-0.116179 2.165439,-1.12475 3.329539,-1.51729 1.09758,1.19598 2.5623,-0.366469 3.00313,-1.430102 1.77528,-2.433002 6.10647,-2.226854 7.50545,0.486864 0.76424,1.392486 2.40058,1.409515 3.73702,1.758923 1.57493,0.537811 3.14483,1.135648 4.78931,1.403771 1.74608,0.773285 3.54256,1.436227 5.18775,2.417473 2.32628,1.26826 4.4857,2.85049 6.29519,4.79199 2.64073,2.55496 5.12152,5.32777 7.03038,8.47898 1.19641,2.13873 2.1258,4.42751 3.49447,6.46729 0.81009,1.34135 1.67097,2.64881 2.51652,3.96732 0.42062,1.39633 1.59973,2.29643 2.17487,3.64336 0.95975,1.97752 2.4741,3.63787 3.32302,5.67526 0.94575,0.95076 1.23097,2.33394 2.06567,3.37018 0.76968,1.25852 1.55755,2.49479 2.35125,3.72779 0.61562,1.26564 1.54406,2.33703 2.16982,3.60279 0.85296,1.18192 1.22907,2.58534 2.26044,3.67172 0.89803,2.03543 2.21739,3.83777 3.27316,5.7885 1.02872,1.641 2.10042,3.25301 3.05239,4.94196 1.12294,1.84901 2.13403,3.76827 3.20294,5.64357 1.60404,2.03282 2.4251,4.51542 3.49317,6.8416 1.84751,4.32195 3.36614,8.8069 4.12851,13.4555 2.15014,11.71911 1.77381,24.06789 -2.25092,35.35536 -2.50153,7.18797 -6.27299,13.90255 -10.90031,19.93206 -1.10618,1.69752 -2.72856,2.96273 -4.09325,4.43911 -3.3658,3.38054 -6.80539,6.74818 -10.84658,9.3249 -9.87116,6.57674 -21.23284,10.93057 -32.98308,12.5696 -4.33432,0.56933 -8.74579,0.68769 -13.0857,0.10685 z m 13.93472,-9.19699 c 5.40464,-0.80492 10.73066,-2.20006 15.82802,-4.1643 1.36439,-0.92113 2.89286,-1.45536 4.38457,-2.09972 2.14602,-1.13369 4.17901,-2.47067 6.27885,-3.68259 2.82434,-1.94542 5.40723,-4.21856 7.9541,-6.50786 9.65917,-9.04249 16.14007,-21.42727 17.93936,-34.54561 1.7191,-12.29605 -0.72857,-25.05546 -6.53119,-36.00271 -0.98001,-1.91904 -2.11484,-3.75495 -3.37809,-5.49751 -2.5368,-4.49627 -5.21392,-8.91347 -7.83777,-13.36032 -5.08386,-8.54932 -10.24441,-17.05329 -15.48437,-25.50751 -2.02043,-3.25776 -3.60278,-6.78689 -5.95522,-9.83362 -3.83446,-5.17658 -9.17748,-9.53998 -15.55408,-11.02475 -5.42516,-1.28164 -11.23575,-0.48933 -16.246689,1.89793 -1.84491,0.74351 -3.661,1.6325 -5.14627,2.97708 -4.36459,3.11767 -7.27828,7.78079 -9.82572,12.40332 -3.64389,6.87995 -8.05429,13.31197 -11.98372,20.02632 -4.05072,6.71078 -8.1372,13.40085 -12.04222,20.19803 -2.70722,4.38707 -5.59799,8.71235 -7.45896,13.54962 -5.49331,13.50036 -5.39049,29.03323 -0.26724,42.62815 4.26904,11.48011 12.07871,21.68565 22.3134,28.46908 10.05545,6.82018 22.15642,10.62357 34.320439,10.58009 2.90437,0.013 5.80875,-0.16239 8.6928,-0.50312 z"
             id="path8042" />
          <path
             id="path8038"
             style="fill:#d35821;fill-opacity:1;stroke-width:0.352778"
             d="m 108.27151,160.42773 c -4.58646,0.2015 -8.774959,2.49729 -12.418289,5.13104 -5.91286,4.3903 -10.81211,10.12324 -14.37252,16.56076 -2.57669,4.77877 -4.53222,10.16214 -4.135,15.66945 0.18551,3.41773 2.54755,6.23259 5.07819,8.31863 6.15384,5.04849 14.91475,6.81044 22.488239,4.26348 5.98896,-1.97398 10.80495,-6.74308 13.3881,-12.43315 2.70429,-5.78427 3.27811,-12.3551 2.52956,-18.64057 -0.40934,-3.87417 -0.21239,-7.96127 -1.29912,-11.721 -0.5989,-2.15998 -2.43932,-3.92543 -4.40479,-5.02737 -1.96701,-1.22082 -4.18097,-2.21021 -6.54539,-2.12242 -0.10279,0.003 -0.20642,-0.005 -0.30898,0.001 z m -6.91992,7.10157 c 0.66546,0.12982 0.27687,1.05112 0.0581,1.4273 -0.8467,1.36543 -2.290159,2.20595 -3.315639,3.42638 -4.9623,5.29169 -8.43695,11.93697 -10.16126,18.9725 -0.56142,2.049 -0.62871,4.1915 -1.11831,6.24804 -0.6884,0.15475 -1.80064,-0.005 -1.90625,-0.89258 -0.33119,-2.10192 0.41882,-4.18841 1.00108,-6.18053 1.20911,-3.60903 2.92552,-7.28348 4.8177,-10.69683 2.20466,-3.87517 4.6034,-7.74319 7.89997,-10.79256 0.79408,-0.641 1.653229,-1.45712 2.724609,-1.51172 z"
             sodipodi:nodetypes="ccccccccccccccccccccccc" />
          <path
             id="path8044"
             style="fill:#863519;fill-opacity:1;stroke-width:0.352778"
             d="m 117.95315,164.43555 c -0.73799,0.12379 -0.46674,1.04618 -0.24081,1.52397 1.79063,4.8994 2.28899,10.19198 2.44487,15.34217 0.0774,4.59057 -0.16633,9.32093 -1.32125,13.72175 -0.79097,2.98403 -2.50439,5.53307 -4.54492,7.79297 -6.04812,6.52731 -15.846889,9.15916 -24.311019,6.62191 -4.67945,-1.3557 -8.79644,-4.52226 -11.25199,-8.73781 -0.38479,-0.64458 -0.90301,-1.19415 -1.35301,-1.79231 0.18681,5.73378 2.72298,11.27075 6.70447,15.3663 5.17547,5.43247 12.45052,8.55615 19.849949,9.35605 7.27136,0.90445 15.00197,0.0269 21.37991,-3.78406 5.90658,-3.43267 10.20642,-9.41114 11.70048,-16.0656 1.85524,-7.84257 0.10286,-16.21299 -3.77234,-23.17672 -3.54821,-6.41806 -8.76051,-11.83502 -14.72575,-16.05144 -0.17036,-0.0712 -0.37236,-0.18946 -0.55859,-0.11718 z m 13.0332,25.54492 c 0.78007,0.20736 0.76536,1.23467 0.92383,1.88476 0.72593,4.96955 -0.0823,10.20674 -2.64533,14.56098 -3.49218,6.13333 -9.9763,10.20129 -16.84421,11.4508 -3.16912,0.64152 -6.42458,0.57734 -9.55428,0.14613 -2.47834,-0.35646 -5.039309,-0.88661 -7.202269,-1.95478 -0.53506,-0.33676 -1.40053,-0.68558 -1.39258,-1.41211 0.26556,-1.01821 1.53855,-0.70266 2.28423,-0.52346 2.77579,0.90591 5.650529,1.70852 8.598749,1.90353 6.59903,0.56627 13.55994,-1.42156 18.3837,-6.07536 4.18516,-3.93981 6.40431,-9.71905 6.30132,-15.43205 0.0664,-1.43715 -0.19165,-2.96062 0.3211,-4.33273 0.16581,-0.26445 0.55899,-0.22122 0.82574,-0.21571 z" />
          <path
             id="path8046"
             style="fill:#c0dd6f;fill-opacity:1;stroke-width:0.352778"
             d="m 106.52542,107.25 c -4.49183,-0.088 -8.588285,2.17261 -12.188331,4.63749 -2.344814,1.65793 -4.307431,3.83548 -5.888787,6.22311 -1.346761,2.20325 -2.841309,4.34134 -3.771343,6.76734 -1.220452,2.61548 -3.117832,4.82157 -4.511657,7.33654 -2.687638,4.52453 -5.295459,9.09997 -8.186365,13.49969 -1.736119,2.9028 -3.345357,5.88781 -5.256908,8.68015 -1.201647,2.32079 -2.577042,4.54392 -3.975545,6.74877 -2.380274,3.99006 -4.911845,7.89933 -7.045981,12.02925 -0.9681,2.34039 -1.930659,4.68867 -2.764028,7.07988 -1.909555,6.15906 -2.58393,12.64262 -2.601877,19.07066 0.0166,3.22436 0.413235,6.43802 1.078906,9.58896 0.434179,3.1485 1.477866,6.17221 2.526581,9.15843 1.12085,2.8986 2.445582,5.72996 4.160948,8.32767 4.875566,8.26318 12.005891,15.12699 20.297655,19.92277 3.561108,2.18069 7.435745,3.80301 11.398708,5.09355 2.913678,0.90494 5.869839,1.71523 8.905069,2.08368 3.968855,0.56119 7.990035,1.02608 12.000875,0.70434 4.45284,-0.22757 8.94092,-0.70676 13.18263,-2.15285 3.2398,-0.93933 6.57366,-1.75455 9.49599,-3.50485 1.62835,-0.88703 3.3533,-1.58422 5.01901,-2.38731 2.11036,-1.38434 4.19118,-2.82427 6.17927,-4.37876 3.25162,-2.59486 6.31591,-5.44719 8.91109,-8.70776 4.4726,-5.25548 7.43837,-11.58903 9.86193,-17.9982 0.76424,-2.26752 1.25916,-4.61556 1.84069,-6.93211 1.53027,-10.04111 1.12222,-20.57361 -2.50472,-30.14235 -0.86903,-2.29465 -1.77652,-4.58587 -2.98679,-6.72406 -0.67554,-1.43413 -1.41035,-2.84637 -2.37215,-4.11075 -1.09833,-1.73931 -3.09446,-4.28974 -4.13946,-6.06161 -1.12627,-0.55377 -0.57911,1.8123 -0.15611,2.59019 0.45641,0.75633 0.87363,1.51196 1.12557,2.38289 3.92346,10.57825 6.38337,21.88156 5.70799,33.2115 -0.63651,11.09436 -5.14921,22.04914 -13.00958,29.97669 -6.56616,6.88709 -15.16085,12.05416 -24.59996,13.70556 -10.32064,1.82791 -21.42323,-0.18314 -30.118541,-6.14324 -7.189455,-4.84809 -12.372359,-12.76944 -13.394584,-21.43362 -0.188517,-1.95785 -1.203398,-3.68256 -2.194461,-5.33037 -1.589813,-3.18599 -2.454407,-6.68337 -3.047983,-10.17722 -0.589608,-4.20186 0.213998,-8.44207 1.292581,-12.4962 0.882648,-3.10306 2.283953,-6.04152 4.013193,-8.75819 0.986649,-2.01533 2.20174,-3.91411 3.677387,-5.60685 2.25477,-2.82181 4.785297,-5.42983 7.641107,-7.64781 1.356146,-1.21145 2.777436,-2.35574 4.370069,-3.2431 2.154425,-1.32502 4.227535,-2.79031 6.450172,-3.99923 3.54841,-1.75215 7.76579,-2.28114 11.5882,-1.17555 2.49884,0.80085 4.63546,2.37157 6.83338,3.75317 0.64529,0.81605 1.98252,0.8054 2.58456,-0.0521 0.70863,-0.80052 0.43248,-1.90997 0.63168,-2.87121 1.49762,-13.48647 1.53078,-27.27051 -1.36123,-40.58032 -0.64658,-2.69719 -1.53231,-5.42369 -3.26949,-7.63164 -1.78928,-1.63418 -4.34156,-1.66244 -6.57462,-2.2038 -1.6081,-0.22415 -3.23708,-0.16919 -4.85474,-0.12125 z m -13.972659,26.48438 c 0.827716,0.88641 0.211766,2.19318 -0.489261,2.94905 -3.789411,4.25712 -7.825941,8.35339 -10.909304,13.17678 -1.71149,2.23003 -3.496988,4.4327 -4.773134,6.95215 -1.617074,2.55447 -3.126797,5.17615 -4.465579,7.88741 -1.073708,2.05611 -1.999087,4.18767 -2.905505,6.31878 -0.626395,1.09011 -0.48743,2.72251 -1.754204,3.36263 -0.911821,0.44069 -1.892406,-0.46547 -1.868065,-1.39498 -0.147065,-1.01398 0.535557,-1.8166 1.012211,-2.62652 0.829962,-1.64711 1.319323,-3.45094 2.300414,-5.0259 0.876555,-1.5967 1.881494,-3.16969 2.288606,-4.96856 1.579363,-2.05622 2.57126,-4.48658 4.09322,-6.58145 2.565291,-4.1242 5.583913,-7.93857 8.491482,-11.82145 2.517616,-3.20211 5.444317,-6.15521 8.979119,-8.22794 z"
             sodipodi:nodetypes="ccccccccccccccccccccccccccccccccccccccccccccccccccccccccccccccccccc" />
          <path
             id="path8048"
             style="fill:#68a043;fill-opacity:1;stroke-width:0.352778"
             d="m 117.35745,109.02539 c -0.70739,0.45424 -0.42906,1.41319 0.0276,1.9439 0.51374,0.6298 1.0674,1.22986 1.38711,1.99155 1.10238,2.30728 2.08502,4.69176 2.60756,7.20447 0.69439,3.03711 0.83462,6.15872 0.94986,9.26061 0.37446,8.36139 0.35144,16.75011 -0.2997,25.09731 -0.21173,2.21156 -0.5637,4.41091 -0.65422,6.6331 0.29651,1.70126 1.97728,2.52266 3.20919,3.49029 6.43138,5.29038 11.64691,12.13127 14.69357,19.90517 1.25831,3.27321 2.23631,6.68914 2.55859,10.19068 0.55605,6.84761 -1.47306,13.84563 -5.46674,19.41858 -0.99098,1.26396 -1.83848,2.64999 -3.04095,3.73378 -2.10188,2.01714 -4.57039,3.59658 -7.06271,5.08188 -2.23582,1.22245 -4.64615,2.10444 -7.07537,2.85724 -3.89549,1.20501 -7.99491,1.4797 -12.049,1.53109 -3.26315,0.0245 -6.53567,-0.31258 -9.692596,-1.15803 -1.932871,-0.48476 -3.838002,-1.10595 -5.621854,-2.00113 -1.775153,-0.76196 -3.530067,-1.58853 -5.123493,-2.6912 -3.140371,-2.05239 -5.801087,-4.79315 -7.87818,-7.90932 -0.22017,-0.47255 -1.168711,-1.22686 -0.95898,-0.18544 0.08358,3.99794 1.230769,7.93947 3.165079,11.43092 4.737897,9.31434 13.699978,16.30852 23.836094,18.79058 9.90119,2.57428 20.73509,1.0999 29.67395,-3.84127 15.04655,-8.02781 25.28008,-24.25331 26.18611,-41.26705 0.8406,-12.58206 -2.01292,-25.2267 -7.19285,-36.66074 -4.01844,-8.80055 -9.571,-16.76325 -14.45317,-25.08432 -1.42581,-2.10854 -2.62305,-4.35994 -3.99513,-6.50259 -2.25149,-3.72449 -4.44727,-7.48331 -6.69883,-11.20707 -1.7769,-2.70199 -3.66105,-5.42761 -6.22147,-7.44779 -1.50638,-0.90659 -3.0301,-1.79946 -4.61673,-2.55492 l -0.0954,-0.0281 z m 8.49609,28.25 c 2.34808,0.98527 3.58691,3.34905 5.34325,5.04675 6.42033,7.51557 11.33065,16.17796 15.63299,25.03862 2.2213,4.69562 4.31858,9.54534 5.08205,14.72178 -0.17203,1.14473 -1.79303,0.9824 -2.34806,0.23373 -0.69391,-0.93583 -0.53763,-2.17932 -0.9899,-3.21672 -2.11846,-7.28737 -5.56538,-14.0978 -9.22406,-20.71605 -2.06804,-3.65564 -4.45861,-7.12081 -7.0483,-10.42448 -1.96912,-2.78076 -4.22854,-5.33506 -6.50874,-7.86027 -0.42568,-0.67093 -1.50434,-1.32766 -1.10774,-2.21698 0.21523,-0.41202 0.69881,-0.70339 1.16851,-0.60638 z m 22.11133,77.68359 c 0.75704,0.23108 0.84042,1.16753 0.52673,1.78094 -0.37134,0.83296 -1.00821,1.50644 -1.4851,2.27873 -2.06495,2.9114 -4.5599,5.47948 -7.12567,7.94774 -1.13505,1.08078 -2.21503,2.24249 -3.48489,3.16492 -1.66632,1.16074 -3.08514,2.66036 -4.88378,3.6334 -2.40156,1.54992 -4.86431,3.0716 -7.58917,3.98667 -0.80684,0.11733 -1.33108,-0.78511 -1.01278,-1.47747 0.21017,-0.85613 1.13898,-0.98649 1.75667,-1.4271 3.52939,-2.08109 7.09908,-4.14627 10.22659,-6.8165 1.66345,-1.41425 3.14573,-3.02308 4.70878,-4.54431 1.50855,-1.53034 2.97284,-3.10636 4.34324,-4.76229 1.44811,-0.87573 1.43146,-3.10028 3.1111,-3.70487 0.28888,-0.1067 0.60737,-0.0965 0.90828,-0.0599 z" />
          <path
             id="path8050"
             style="fill:#062627;fill-opacity:1;stroke-width:0.352778"
             d="m 107.75586,88.636719 c -3.49971,0.123469 -7.01459,2.769816 -7.42369,6.36856 -0.19937,1.282108 1.39233,2.184913 2.46408,1.565302 1.19906,-0.368752 1.9774,-1.429173 2.5768,-2.459253 1.76631,-1.774263 5.05506,-1.053211 6.26172,1.03125 0.9674,1.059047 2.53108,1.979258 3.97641,1.452613 0.95047,-0.648133 0.58085,-1.904396 0.18891,-2.765443 -1.19947,-3.224684 -4.62989,-5.374684 -8.04423,-5.193029 z m -1.09375,14.470701 c -7.122268,0.31788 -13.738915,4.12024 -18.423184,9.36495 -2.394663,2.59276 -4.217944,5.63515 -5.890187,8.71343 -6.709459,11.73045 -14.101554,23.0515 -20.902746,34.72749 -3.496962,5.97102 -6.975589,11.97493 -9.961511,18.2235 -3.714768,8.44348 -5.195184,17.78248 -4.834091,26.97259 0.659045,14.41093 6.842375,28.53846 17.174301,38.63914 10.379577,10.23337 24.418191,16.44605 38.846098,18.04368 8.60665,0.98814 17.37973,-0.28306 25.52671,-3.14344 12.10782,-4.26539 23.1711,-11.94348 30.6503,-22.45859 7.89366,-10.96558 12.08209,-24.70376 10.9505,-38.22399 -0.83467,-10.79271 -4.6373,-21.24514 -10.41755,-30.36307 -7.42134,-12.31778 -14.70718,-24.72135 -22.32264,-36.92533 -3.10776,-5.289 -5.92015,-10.8978 -10.39018,-15.20711 -5.25033,-5.20546 -12.49735,-8.73109 -20.00582,-8.36325 z m 1.46094,4.31446 c 5.83676,-0.0342 11.44591,2.65791 15.5684,6.70026 1.74891,1.6293 3.29515,3.52346 4.50826,5.64459 1.31692,1.9134 2.30457,4.02299 3.31108,6.10397 0.9725,1.5193 2.09189,2.94832 2.91109,4.56082 1.55086,2.37706 3.0357,4.8003 4.54684,7.20036 1.05586,1.9655 2.13123,3.93059 3.47177,5.72027 1.61177,2.62633 2.88692,5.45902 4.72681,7.94264 1.52361,2.57341 2.8284,5.28119 4.60293,7.69893 4.48323,7.24249 9.32234,14.39676 11.69648,22.66532 3.93493,13.10325 2.84844,27.58326 -3.08076,39.91833 -3.22009,6.68879 -7.7958,12.66082 -13.37423,17.59646 -5.61735,4.99029 -12.43008,8.96779 -19.54048,11.46706 -5.68033,1.9834 -11.74695,3.08541 -17.81259,3.28396 -8.5676,0.22286 -17.18372,-1.60141 -24.969067,-5.04269 -10.504382,-4.64566 -19.838853,-12.32423 -25.876974,-22.19617 -2.120656,-3.46257 -3.778041,-7.00382 -5.113506,-10.86883 -0.797428,-2.32955 -1.354102,-4.72814 -2.048712,-7.08864 -0.972836,-6.40255 -0.833674,-12.93281 -0.235592,-19.34945 0.651163,-5.3477 2.525877,-10.40279 4.941941,-15.20107 6.197268,-12.83337 13.888705,-24.84253 21.28112,-37.01304 3.195971,-5.09989 6.495307,-10.14476 9.265633,-15.49519 2.622565,-4.74511 6.229446,-9.14956 11.118629,-11.67487 3.101528,-1.6366 6.590218,-2.54874 10.100928,-2.57302 z M 91.9375,133.68945 c -0.761491,0.13399 -1.371558,0.7596 -2.017266,1.1736 -3.008946,2.29504 -5.250389,5.39377 -7.667397,8.26554 -6.328479,7.93857 -11.587236,16.71061 -15.741839,25.96963 -0.794608,1.55191 -1.718452,3.35991 -1.120373,5.13811 0.589887,1.14342 2.435821,0.82947 2.864699,-0.30252 0.924458,-1.64953 1.396504,-3.50613 2.287627,-5.17523 4.31215,-9.34883 10.023639,-18.19304 16.728533,-26.00272 1.700903,-2.00517 3.519825,-3.87367 5.316022,-5.81951 0.654477,-0.71426 1.309408,-1.961 0.545306,-2.81135 -0.322549,-0.29114 -0.760406,-0.45423 -1.195312,-0.43555 z m 33.48633,3.10938 c -0.84895,0.11244 -1.78088,1.20693 -1.04492,1.98047 2.03921,3.23451 4.96918,5.78751 7.04669,8.99453 3.66026,4.3862 6.66147,9.35919 9.32768,14.42908 2.97995,5.20942 5.203,10.8193 7.10873,16.49895 0.47264,1.41239 0.89145,2.84144 1.31572,4.26884 0.66012,0.76939 2.21981,1.1287 2.74415,0.0332 0.48617,-2.17724 -0.34288,-4.38012 -0.93137,-6.46011 -1.53076,-5.90459 -4.44852,-11.30485 -7.07917,-16.76784 -1.84255,-3.55041 -4.23662,-6.76983 -6.22179,-10.23698 -1.15625,-1.83074 -2.68868,-3.38938 -3.9989,-5.10921 -1.48186,-1.80539 -3.01518,-3.57408 -4.41917,-5.43954 -1.13661,-0.93 -2.21413,-2.31171 -3.84765,-2.1914 z m -17.78711,19.34179 c -4.85576,0.18155 -9.214581,2.67641 -13.121962,5.35866 -7.264849,4.93287 -13.375798,11.60169 -17.52257,19.34838 -1.466169,3.18554 -2.844727,6.47074 -3.266641,9.98175 -0.498822,3.42334 -0.661729,6.92043 -0.282188,10.36395 0.444428,3.11147 1.575017,6.08297 2.831598,8.9478 1.814165,3.9952 4.548608,7.58901 7.98495,10.3248 2.262588,1.5716 4.587179,3.09332 7.138315,4.1639 5.44567,2.32979 11.394248,3.35184 17.303088,3.30951 2.35032,0.0777 4.74367,0.0885 7.01545,-0.59804 3.21177,-0.50478 6.34784,-1.49779 9.1978,-3.07612 5.36742,-2.91714 9.9146,-7.27319 13.27294,-12.35896 2.36672,-3.71595 4.14709,-7.90975 4.60083,-12.32057 0.15983,-2.96614 -0.38533,-5.91202 -0.786,-8.83686 -0.58136,-2.52707 -1.61015,-4.93094 -2.27649,-7.42959 -2.06881,-4.14779 -4.48626,-8.13041 -7.40444,-11.73848 -2.21166,-2.91676 -4.84466,-5.49662 -7.7795,-7.6819 -4.10035,-3.24249 -8.59018,-6.27956 -13.74633,-7.49624 -1.03746,-0.2135 -2.10078,-0.29173 -3.15885,-0.26199 z m 0.58594,4.73243 c 4.43329,0.11598 8.37306,2.58117 11.64393,5.38332 5.96205,4.74177 11.63523,10.27065 14.79644,17.32179 1.88942,4.10603 2.9586,8.738 2.89211,13.28197 -0.0314,6.01206 -2.26567,12.10924 -6.36143,16.59214 -5.27934,5.88435 -13.0328,9.52982 -20.96357,9.58261 -3.3933,0.10906 -6.7672,-0.10242 -10.03162,-0.76886 -7.352502,-1.48942 -14.411127,-5.57333 -18.520185,-11.97018 -2.89518,-4.51555 -4.121207,-9.99348 -3.738882,-15.3642 0.596868,-8.49583 4.868799,-16.39525 10.71471,-22.44998 3.881216,-4.01242 8.470366,-7.32858 13.422367,-9.89201 1.93123,-0.91787 3.96117,-1.79819 6.14613,-1.7166 z m 22.4082,28.60547 c -1.242,0.45972 -1.268,2.00762 -1.34652,3.11855 -0.006,1.7157 0.22538,3.43893 -0.0675,5.14512 -0.28165,2.40221 -1.11616,4.98654 -2.37424,7.17386 -1.90347,3.40966 -4.86426,6.19334 -8.39826,7.9275 -5.92438,2.98426 -12.95579,3.17853 -19.282895,1.48103 -1.51748,-0.52888 -3.244515,-1.36493 -4.817655,-0.57263 -0.728666,0.53228 -0.07777,1.4905 0.325568,2.02843 1.242721,1.38381 3.215812,1.58006 4.874915,2.18514 9.693647,3.04001 21.063967,-0.0958 27.673727,-7.84957 4.55852,-5.30299 6.71704,-12.84042 4.89532,-19.6765 -0.15252,-0.64031 -0.83267,-1.12754 -1.48242,-0.96093 z m 17.38086,24.94726 c -1.49965,0.006 -2.4942,1.29468 -3.22828,2.44106 -4.93763,6.45865 -11.04112,11.93936 -18.03149,16.09605 -1.43422,1.16269 -3.65467,1.38465 -4.52279,3.20074 -0.68587,0.95698 0.33178,2.29119 1.42912,2.09207 1.62547,-0.16192 2.95424,-1.23434 4.40373,-1.89044 4.35991,-2.35648 8.24275,-5.4701 12.03399,-8.63373 3.31199,-2.56796 5.61845,-6.13846 8.03264,-9.50382 0.57801,-0.92997 1.61469,-2.05404 1.01198,-3.20623 -0.24226,-0.37665 -0.6804,-0.61304 -1.1289,-0.5957 z" />
          <path
             id="path22990"
             style="fill:#ffffff;fill-opacity:1;stroke:none;stroke-width:1.18911;stroke-linecap:round;stroke-opacity:1"
             d="m 101.02019,167.16499 c -0.77981,0.0359 -1.394083,0.58023 -1.991028,1.02186 -1.590085,1.2074 -2.875304,2.75842 -4.083873,4.33402 -2.223262,2.95469 -4.12147,6.14333 -5.808991,9.43033 -1.516568,2.99649 -2.889964,6.0782 -3.888631,9.28889 -0.434224,1.46526 -0.838211,2.96531 -0.862637,4.503 0.0048,0.70115 0.107725,1.50243 0.685228,1.97559 0.42073,0.29775 0.960795,0.39765 1.468644,0.37568 0.421095,-0.0361 0.680657,-0.43028 0.76843,-0.80925 0.26122,-1.03788 0.386733,-2.10415 0.568235,-3.15779 0.443005,-2.92484 1.2691,-5.78609 2.408626,-8.5146 1.273522,-3.02693 2.778442,-5.97164 4.670735,-8.66176 1.178612,-1.675 2.540256,-3.28127 3.983325,-4.76177 0.993773,-1.03118 2.077837,-1.99608 2.883577,-3.18986 0.25358,-0.39356 0.50309,-0.91238 0.26393,-1.36925 -0.19759,-0.3855 -0.66642,-0.4919 -1.06557,-0.46509 z" />
        </g>
        <path
           id="path25450"
           style="fill:#000000;fill-opacity:1"
           d="m 443.95898,838.28605 c -4.2099,6.04055 -8.25048,12.50775 -12.36718,20.12305 -2.3786,4.4 -4.4314,8.12951 -4.5625,8.28711 -0.131,0.1576 -3.56782,-0.83137 -7.63672,-2.19727 -9.6765,-3.2483 -32.60419,-6.00525 -37.95508,-4.56445 -6.4633,1.7404 -8.97482,7.79261 -4.80273,11.57031 2.2741,2.0592 9.07777,2.4129 18.0039,0.9375 3.51449,-0.5809 5.47854,-0.34768 8.27344,0.97852 l 3.66406,1.73828 -9.68945,3.375 c -8.56804,2.9841 -10.87908,3.375 -19.94727,3.375 -9.57479,0 -10.45963,0.17294 -13.33203,2.58984 -3.9717,3.342 -3.93602,5.91587 0.11328,8.00977 2.5564,1.322 5.09231,1.54872 12.75,1.14062 7.88669,-0.4203 11.52862,-1.2251 20.81055,-4.5957 11.03181,-4.0061 14.19527,-4.31469 8.25977,-0.80859 -4.0802,2.4103 -13.12365,5.46954 -21.32618,7.21484 -8.37489,1.782 -10.68359,2.95901 -10.68359,5.44531 0,1.3855 1.14303,2.26599 4.08203,3.14649 5.33439,1.5983 13.48838,6e-5 24.41797,-4.77344 4.4,-1.9234 8.675,-3.72887 9.5,-4.01367 2.9127,-1.0056 -2.56423,2.76965 -9.70313,6.68945 -6.30158,3.4601 -8.01507,3.95508 -13.6914,3.95508 -3.5684,0 -6.73571,0.39902 -7.03711,0.88672 -0.7238,1.1712 1.6198,3.04785 5.11719,4.09765 7.98094,2.3956 17.87502,0.28085 32.20312,-6.88085 26.9919,-13.49161 52.43931,-32.6234 70.87891,-53.28907 3.0991,-3.47326 5.79247,-6.73992 8.20117,-9.85156 z" />
        <g
           id="rect1311">
          <path
             style="color:#000000;fill:#f4eed7;stroke-width:3.32945;-inkscape-stroke:none"
             d="M -24.893448,439.10812 H 229.68996 V 699.23361 H -24.893448 Z"
             id="path815" />
          <path
             style="color:#000000;fill:#000000;-inkscape-stroke:none"
             d="m -26.558594,437.44336 v 1.66406 261.79102 H 231.35547 V 437.44336 Z m 3.330078,3.33008 H 228.02539 V 697.56836 H -23.228516 Z"
             id="path817" />
        </g>
        <path
           id="path1313"
           style="fill:#000000;stroke-width:1.7212"
           d="m 183.4919,664.76809 c -2.9684,0.14366 -6.3293,2.68628 -6.5039,6.90039 -0.2904,7.00531 0.069,8.55298 0.1953,9.83789 0.1697,1.72759 0.2669,3.35383 0.2929,4.88086 0.026,1.52806 -0.019,2.95664 -0.1347,4.2832 -0.3287,3.78496 -1.2374,6.73424 -2.6778,8.87696 l 17.6543,0.15429 c -0.256,-1.90032 -0.5621,-4.07478 -0.7285,-5.61718 -0.3498,-8.80631 0.344,-18.11471 -3.7617,-26.22852 -0.1831,-0.69612 -0.4856,-1.26854 -0.875,-1.72266 l 0.01,-0.006 c -0.8519,-0.99339 -2.1195,-1.42467 -3.4687,-1.35937 z" />
      </g>
    </g>
  </g>
</svg>
