<?xml version="1.0" encoding="UTF-8" standalone="no"?>
<!-- Created with Inkscape (http://www.inkscape.org/) -->

<svg
   version="1.1"
   id="svg2"
   width="396.86292"
   height="492.43073"
   viewBox="0 0 396.86292 492.43073"
   sodipodi:docname="banana.svg"
   inkscape:version="1.3 (0e150ed6c4, 2023-07-21)"
   xml:space="preserve"
   inkscape:export-filename="monkeys.png"
   inkscape:export-xdpi="150"
   inkscape:export-ydpi="150"
   xmlns:inkscape="http://www.inkscape.org/namespaces/inkscape"
   xmlns:sodipodi="http://sodipodi.sourceforge.net/DTD/sodipodi-0.dtd"
   xmlns="http://www.w3.org/2000/svg"
   xmlns:svg="http://www.w3.org/2000/svg"><defs
     id="defs6" /><sodipodi:namedview
     id="namedview4"
     pagecolor="#ffffff"
     bordercolor="#000000"
     borderopacity="0.25"
     inkscape:showpageshadow="2"
     inkscape:pageopacity="0.0"
     inkscape:pagecheckerboard="0"
     inkscape:deskcolor="#d1d1d1"
     showgrid="false"
     inkscape:zoom="1.7480109"
     inkscape:cx="95.251123"
     inkscape:cy="241.98934"
     inkscape:window-width="1920"
     inkscape:window-height="1200"
     inkscape:window-x="0"
     inkscape:window-y="0"
     inkscape:window-maximized="1"
     inkscape:current-layer="g8"
     inkscape:pageshadow="2" /><g
     inkscape:groupmode="layer"
     inkscape:label="Image"
     id="g8"
     transform="translate(-894.08608,-561.09365)"><g
       id="g31124"
       transform="translate(346.53466,318.8788)"><path
         style="fill:#e6e6e6"
         d="m 796.72962,384.7767 c 6.9812,-3.6814 14.0493,-11.2147 17.564,-18.7198 2.2214,-4.7436 2.579,-6.8754 2.5996,-15.5 0.021,-8.9531 -0.2799,-10.6578 -2.8771,-16.2821 -3.7229,-8.0619 -12.2799,-16.2065 -20.102,-19.1332 -8.2482,-3.086 -8.2449,-3.0879 -7.2036,4.1653 0.4935,3.4375 1.0717,7.1975 1.2848,8.3557 0.2131,1.1582 2.1406,3.266 4.2834,4.684 7.4513,4.9311 10.9094,16.8621 7.6935,26.5442 -2.034,6.1239 -4.6045,9.5408 -9.504,12.6338 -3.5434,2.2368 -3.7406,2.658 -4.6674,9.9676 l -0.9676,7.6322 3.0419,-0.6413 c 1.6731,-0.3527 5.6576,-2.0206 8.8545,-3.7064 z"
         id="path479" /><path
         style="fill:#e6e6e6"
         d="m 605.40842,386.3069 c -0.021,-6.625 -1.3189,-13.25 -2.5958,-13.25 -2.1744,0 -8.3675,-6.0246 -10.5097,-10.2238 -2.6707,-5.2351 -3.4501,-12.6891 -1.9041,-18.211 1.4714,-5.2554 6.7176,-11.7839 10.8424,-13.4924 2.6228,-1.0864 2.965,-1.7812 3.5275,-7.1634 0.3427,-3.2781 0.9025,-7.0738 1.2441,-8.4348 0.5466,-2.1778 0.2953,-2.4746 -2.0944,-2.4746 -5.1294,0 -14.9692,5.6578 -20.8083,11.9648 -8.5971,9.2859 -12.0786,21.0116 -9.6836,32.6149 2.865,13.8801 11.3045,23.9319 24.6344,29.3407 6.5183,2.6449 7.3577,2.5683 7.3475,-0.6704 z"
         id="path477" /><path
         style="fill:#ffffff"
         d="m 664.95162,388.1802 c 4.4501,-2.0214 14.436,-12.4341 16.8959,-17.618 4.8201,-10.1577 -1.6448,-21.9862 -12.6976,-23.232 -5.6323,-0.6348 -10.9109,1.0661 -15.3186,4.9361 l -3.4143,2.9977 v -3.4687 c 0,-4.4123 3.1263,-8.4372 8.4214,-10.8421 7.565,-3.4359 14.2069,-2.1201 24.3378,4.8214 5.0388,3.4526 7.9411,4.7347 11.4945,5.0781 4.3959,0.4247 5.3166,0.079 12.2313,-4.5924 12.4955,-8.4416 22.1203,-9.2652 29.5747,-2.5306 3.1094,2.8092 3.9403,4.2734 3.9403,6.9435 0,1.861 -0.2513,3.3837 -0.5586,3.3837 -0.3072,0 -2.3438,-1.4347 -4.5257,-3.1881 -3.2122,-2.5814 -5.0564,-3.2553 -9.6914,-3.5414 -7.5403,-0.4654 -12.7689,2.3818 -16.0386,8.7336 -4.086,7.9375 -1.1718,17.1451 8.1443,25.7323 9.4945,8.7518 17.7694,10.4989 25.7243,5.4315 10.6617,-6.7917 17.0163,-17.6741 17.7532,-30.4025 0.7732,-13.3571 -3.0335,-21.5852 -13.0553,-28.2185 -13.2767,-8.7877 -36.7508,-9.1257 -48.3865,-0.6969 l -4.0068,2.9025 -3.91,-2.9154 c -6.1188,-4.5623 -13.0497,-6.1276 -24.8284,-5.6075 -16.8803,0.7453 -27.5019,6.2768 -33.1101,17.2426 -2.7087,5.2964 -3.006,6.7954 -2.967,14.957 0.055,11.4717 2.5851,18.3618 9.5361,25.9673 8.3214,9.1049 16.0474,11.546 24.4551,7.7268 z"
         id="path471" /><path
         style="fill:#ffffff"
         d="m 706.80662,475.6543 c 4.0219,-2.6859 6.1984,-3.3578 5.0954,-1.573 -0.3482,0.5634 -0.3309,2.4004 0.038,4.0822 l 0.6716,3.0578 8.1525,-7.8702 c 4.4838,-4.3286 11.2617,-10.3114 15.0619,-13.2952 8.9093,-6.9952 13.9344,-14.6631 16.1573,-24.6546 3.9716,-17.8516 -3.372,-31.8123 -20.9468,-39.8214 -3.9733,-1.8107 -11.4758,-6.1898 -16.6721,-9.7314 -9.7601,-6.652 -14.3673,-8.7987 -18.8471,-8.7819 -3.595,0.014 -10.9127,3.6054 -21.999,10.7983 -5.1691,3.3538 -11.6941,6.9004 -14.5,7.8814 -3.6496,1.276 -6.9687,3.6377 -11.6607,8.2972 -8.1474,8.0908 -10.4732,14.1777 -9.6917,25.3648 0.9642,13.8022 5.9956,22.1736 20.0815,33.4125 3.8564,3.077 10.0268,8.4389 13.712,11.9153 3.6852,3.4764 6.9831,6.3208 7.3288,6.3208 0.3456,0 0.6284,-1.8116 0.6284,-4.0257 v -4.0257 l 3.25,1.6573 c 1.7875,0.9115 5.4258,3.6769 8.0851,6.1454 l 4.8352,4.4882 3.6648,-3.5223 c 2.0157,-1.9373 5.4152,-4.6912 7.5544,-6.1198 z"
         id="path463" /></g><path
       id="path303"
       style="fill:#000000"
       d="M 1047.6876 561.09365 C 1046.3427 561.10265 1043.8126 561.57731 1039.7892 562.35146 C 1033.6588 563.53093 1027.8973 565.39479 1022.5509 567.81826 C 1021.7117 568.19873 1020.8562 568.557 1020.0392 568.9667 L 1020.0392 568.96865 C 1019.3589 569.3098 1018.7153 569.69732 1018.0509 570.05849 C 1016.2898 571.01562 1014.5837 572.0378 1012.9396 573.13271 C 1012.4589 573.45286 1011.9547 573.74632 1011.4845 574.07803 L 1011.4845 574.07998 C 1011.1695 574.30219 1010.8807 574.55185 1010.5705 574.7792 C 1008.2354 576.49044 1006.0129 578.32115 1003.963 580.31631 C 1002.5854 581.65717 1001.332 582.80201 1000.424 583.56631 C 999.51734 584.3292 998.95522 584.71423 998.95522 584.5331 L 998.95522 584.53115 C 998.95586 584.04549 1000.1816 581.4265 1001.7482 578.38857 L 1001.7482 578.38662 C 1003.3158 575.34699 1005.223 571.88677 1006.588 569.72451 C 1007.8878 567.66522 1008.9513 565.72205 1008.9513 565.40615 C 1008.9513 565.32725 1008.2545 565.63769 1007.8869 565.76162 C 1007.5188 565.88593 1007.4802 565.82351 1006.8244 566.11513 L 1006.8244 566.11709 C 1006.7794 566.13719 1006.6948 566.18233 1006.6486 566.20303 C 1005.3469 566.7871 1003.6305 567.62147 1001.7052 568.63076 C 997.38316 570.89644 993.29923 573.9302 989.63296 577.44912 C 989.49777 577.57889 989.34899 577.69104 989.21499 577.82217 C 986.70366 580.27956 984.40175 582.97364 982.37905 585.82412 L 982.3771 585.82607 C 979.34299 590.10229 976.9368 594.73116 975.38881 599.43935 C 975.24614 599.87319 975.12153 600.18323 974.99819 600.35928 C 974.876 600.53492 974.75441 600.57525 974.61538 600.4706 C 974.33535 600.25981 973.98539 599.45421 973.41811 597.93935 C 972.69731 596.01439 972.07339 593.42681 972.03139 592.18935 C 971.98959 590.95185 971.56212 589.93935 971.08022 589.93935 C 970.90377 589.93935 970.65187 590.14102 970.33999 590.50771 C 970.02733 590.87555 969.65473 591.41015 969.23842 592.07998 C 966.74126 596.09765 962.66755 604.96023 960.50014 611.55459 L 957.83413 619.66787 L 957.83217 619.66787 L 952.00405 620.27724 C 940.74779 621.45371 929.57533 627.38371 921.40053 635.76553 C 916.49601 640.79459 912.6714 646.70615 910.55483 653.00381 C 908.76488 658.32938 907.89731 666.37639 908.20522 673.10146 C 908.30804 675.34315 908.54091 677.43807 908.91421 679.23623 C 909.89916 683.98074 911.66625 688.5507 914.06264 692.79482 C 918.8555 701.28259 926.16363 708.46881 934.756 713.14053 L 934.75796 713.14053 C 936.90561 714.30808 939.13306 715.31954 941.42202 716.1542 L 941.42397 716.1542 C 943.71293 716.98876 946.06342 717.64737 948.45522 718.11123 L 948.45717 718.11123 C 954.32812 719.24985 956.69598 720.48656 955.7228 722.57998 C 955.52844 722.99808 955.20213 723.45086 954.74233 723.94326 C 953.82205 724.92905 952.3716 726.07535 950.40249 727.43154 C 949.20888 728.25358 947.97992 729.25787 946.75014 730.27334 C 946.39945 730.56294 946.06213 730.77941 945.70913 731.08388 L 945.70717 731.08584 C 945.61567 731.16474 945.52145 731.26767 945.42983 731.34756 C 943.92783 732.65727 942.40962 734.07592 940.881 735.63467 C 940.03311 736.49919 939.18108 737.49144 938.33022 738.42568 C 937.5531 739.27895 936.77675 740.06703 936.00014 740.97451 L 936.00014 740.97646 C 934.37357 742.87721 932.7516 744.89264 931.14663 747.00576 C 930.69349 747.60243 930.25491 748.26111 929.80483 748.87295 C 928.66039 750.42853 927.51259 751.97817 926.39467 753.62295 L 926.39467 753.6249 C 924.83749 755.91603 923.30957 758.28601 921.82631 760.7206 L 921.82631 760.72256 C 918.8597 765.59241 916.06684 770.71416 913.55288 775.95107 L 913.55288 775.95303 C 909.84765 783.67174 906.33403 792.7176 903.33803 801.93545 C 902.33979 805.00676 901.39656 808.09686 900.52553 811.16396 C 900.52519 811.16496 900.52586 811.16687 900.52553 811.16787 C 899.65456 814.23492 898.85248 817.27823 898.13296 820.25576 C 898.13267 820.25676 898.13323 820.25867 898.13296 820.25967 C 897.4156 823.22832 896.77925 826.13067 896.23647 828.92568 C 897.81101 829.49627 899.38041 830.17237 901.03139 830.47256 C 902.73937 830.7831 904.33091 830.85124 906.04897 831.04092 C 910.68029 831.55223 915.33314 832.12945 919.9396 832.82803 C 923.51702 833.37053 924.50835 833.62737 927.08217 834.20303 C 926.53558 834.42099 926.26052 834.5676 926.35952 834.6581 C 926.36 834.65858 926.36488 834.65763 926.36538 834.6581 C 926.21052 834.51653 926.88919 834.26154 928.26577 833.75967 L 928.26772 833.75771 C 929.1436 833.43841 930.23641 833.298 931.4728 833.32021 C 932.59314 833.34031 933.8518 833.53537 935.15639 833.81045 C 935.51878 833.88675 935.87875 833.98907 936.25014 834.08388 C 937.25987 834.34131 938.27718 834.65971 939.32241 835.04678 C 939.71418 835.19171 940.08826 835.32212 940.48061 835.48428 C 941.86849 836.05756 943.25109 836.69941 944.57827 837.47256 L 946.72475 838.72256 C 946.72546 838.72356 946.72571 838.72546 946.72671 838.72646 L 948.69936 839.8749 L 951.73061 834.99795 C 953.39791 832.31585 954.98334 828.31916 955.76967 826.32607 C 956.74342 824.03607 957.731 820.12171 958.1603 818.64053 C 958.58954 817.15933 960.80882 808.18137 961.02163 807.75967 C 961.23444 807.33797 961.91416 803.86573 962.88491 799.74795 C 963.85571 795.63015 965.42826 792.52773 965.63686 792.73623 C 965.84536 792.94483 965.23013 796.86336 964.42202 801.47256 L 962.61733 811.76943 C 962.29805 813.86953 961.18158 817.86208 960.37514 821.55068 C 959.56871 825.23927 957.30468 830.90098 955.42592 834.60146 L 951.89467 841.46279 L 957.83022 847.56631 C 960.7928 850.61289 964.17249 854.32628 965.87905 855.67568 C 966.90657 856.66289 968.26345 857.26536 969.69155 857.73428 C 969.6553 857.56501 969.60972 857.39789 969.57436 857.22842 C 965.89532 840.08833 967.44037 821.95164 973.66421 805.58388 C 974.94714 802.58336 975.76854 799.21061 978.03335 796.75967 C 978.1959 796.6008 978.38138 796.4656 978.55092 796.31435 C 978.83369 796.12435 979.12831 795.95988 979.42397 795.79873 C 979.35836 795.38666 979.70413 793.17906 980.10561 791.43545 C 983.56966 776.39052 984.628 772.19847 986.18374 767.34951 C 986.56987 766.14599 987.17116 764.53805 987.76577 762.96279 C 986.97154 761.28303 986.29003 759.56552 985.77358 757.75381 C 984.94676 754.85332 984.45008 751.74394 984.20913 748.29482 C 983.91594 744.09782 984.0605 740.61853 984.7853 737.48232 C 985.02629 736.43859 985.33234 735.43269 985.70717 734.45107 C 985.70768 734.45007 985.70813 734.44817 985.70913 734.44717 C 986.08394 733.46617 986.52797 732.509 987.04702 731.5624 C 988.60819 728.7153 990.84526 725.96167 993.90249 722.92568 C 995.07405 721.76223 996.1608 720.74333 997.18764 719.84756 C 997.18964 719.84656 997.18955 719.84465 997.19155 719.84365 C 1000.2754 717.15398 1002.8254 715.58581 1005.5626 714.62881 C 1008.3685 713.64781 1014.8935 710.10173 1020.0626 706.74795 C 1031.1459 699.55706 1038.4627 695.96509 1042.0587 695.94912 C 1046.5368 695.93413 1051.1427 698.08311 1060.8986 704.73232 C 1066.0949 708.2739 1073.5972 712.65211 1077.5705 714.46279 C 1086.3577 718.46734 1092.5868 723.96053 1096.1232 730.68349 L 1096.1232 730.68545 C 1097.891 734.04648 1098.9863 737.71433 1099.3908 741.6581 C 1099.391 741.6591 1099.3907 741.66101 1099.3908 741.66201 C 1099.7949 745.60535 1099.5103 749.82359 1098.5177 754.28506 C 1098.5174 754.28606 1098.5177 754.28696 1098.5177 754.28896 C 1098.24 755.53639 1097.92 756.74747 1097.5529 757.92568 C 1097.5525 757.92668 1097.5529 757.92859 1097.5529 757.92959 C 1097.1857 759.10765 1096.7735 760.25377 1096.3126 761.36904 L 1096.3126 761.37099 C 1095.8515 762.48673 1095.3424 763.57337 1094.7833 764.63271 L 1094.7833 764.63467 C 1094.2241 765.69392 1093.6166 766.72692 1092.9552 767.73623 C 1092.7022 768.12232 1092.4032 768.48962 1092.1349 768.86904 C 1091.7012 769.4821 1091.2853 770.10223 1090.8107 770.69912 C 1090.8098 770.70012 1090.8107 770.70203 1090.8107 770.70303 C 1090.0429 771.66835 1089.2202 772.61264 1088.3419 773.54092 C 1086.5826 775.40067 1084.5978 777.19348 1082.3693 778.94326 C 1078.5691 781.92706 1071.7906 787.9096 1067.3068 792.23818 L 1059.1544 800.10928 L 1058.4826 797.05068 C 1058.2982 796.20978 1058.2022 795.32959 1058.1955 794.58974 L 1058.1955 794.58779 C 1058.1855 793.84888 1058.2725 793.25141 1058.4455 792.96865 C 1058.4465 792.96665 1058.4445 792.96674 1058.4455 792.96474 C 1058.7207 792.51946 1058.7905 792.22834 1058.6798 792.08193 C 1058.3444 791.64367 1056.3661 792.52665 1053.3498 794.54092 C 1051.2107 795.9695 1047.8108 798.72472 1045.7951 800.66201 L 1042.129 804.18349 L 1037.2951 799.69521 C 1034.6359 797.22671 1030.9966 794.46217 1029.2091 793.55068 L 1025.9611 791.89443 L 1025.9611 795.91396 C 1025.9611 796.94419 1025.8891 797.84654 1025.7892 798.56045 C 1025.7792 798.61365 1025.7795 798.70708 1025.7755 798.75771 L 1025.7755 798.75967 C 1025.6619 799.48924 1025.505 799.94326 1025.3322 799.94326 C 1024.9865 799.94326 1021.6853 797.09873 1018.0001 793.62295 C 1014.3217 790.15292 1008.1742 784.81007 1004.3165 781.73037 C 1004.4407 783.05457 1004.5902 784.37584 1004.7892 785.68935 C 1005.5282 791.34349 1007.5361 796.69093 1009.2443 802.0956 C 1010.9934 804.35416 1013.4856 809.62724 1017.1564 816.18935 C 1024.8169 829.88386 1030.613 839.36246 1041.84 852.12685 C 1059.2955 871.97343 1072.8527 882.11273 1101.2013 896.52138 C 1103.1343 897.50385 1104.4549 898.19904 1106.088 899.03896 L 1110.5138 898.81045 L 1115.2736 888.57607 C 1117.7387 883.27685 1121.6608 876.75805 1125.5236 871.19717 C 1125.5245 871.19617 1125.5246 871.19426 1125.5236 871.19326 C 1128.4201 867.02366 1131.2839 863.39501 1133.4767 861.22256 C 1134.2088 860.49725 1134.8652 859.93242 1135.424 859.56631 L 1137.9767 857.89248 L 1135.004 854.18154 C 1131.9291 850.3423 1128.6831 843.19504 1126.008 835.0292 C 1124.7033 831.04694 1123.5386 826.82227 1122.5939 822.61709 C 1121.62 818.28082 1120.8763 813.96908 1120.4728 809.9667 C 1120.3157 808.40861 1120.2865 807.6164 1120.4103 807.64248 C 1120.6159 807.70988 1121.2458 810.0508 1122.3849 814.80654 C 1122.4039 814.88694 1122.3991 814.84584 1122.4181 814.92763 C 1126.6665 832.69749 1130.3027 842.27651 1136.6955 852.54287 L 1139.2365 856.62295 L 1142.838 855.33584 C 1144.819 854.62784 1147.5646 854.03451 1148.9396 854.01553 C 1149.4222 854.00853 1149.7329 854.04262 1149.8771 854.12295 C 1150.0169 854.20085 1150.0011 854.32234 1149.8009 854.50185 C 1149.746 854.55196 1149.4032 854.70059 1149.3205 854.75967 L 1186.4728 857.4374 C 1186.5603 856.27729 1186.6862 855.41414 1186.7501 853.91787 C 1187.2119 843.1081 1185.8799 836.71094 1175.0783 797.91006 C 1173.0174 790.50716 1171.2297 784.36522 1169.5646 779.12295 L 1169.5646 779.12099 C 1166.2347 768.63757 1163.3976 761.75148 1159.8634 755.57021 L 1159.8634 755.56826 C 1158.9798 754.02284 1158.0521 752.52193 1157.0626 751.01943 C 1156.0731 749.51693 1155.0214 748.01473 1153.8888 746.46474 L 1153.8888 746.46279 C 1152.6658 744.78899 1150.9941 742.8305 1149.0958 740.79287 C 1147.1976 738.75556 1145.073 736.63902 1142.9435 734.65224 C 1140.8141 732.66557 1138.6805 730.80694 1136.7638 729.28506 C 1134.847 727.763 1133.1486 726.5781 1131.8888 725.93545 C 1131.1066 725.53635 1130.4669 725.17395 1129.9494 724.83193 C 1129.4322 724.49001 1129.0388 724.16548 1128.7501 723.83974 C 1128.1718 723.18732 1128.0146 722.52866 1128.1349 721.69521 L 1128.1349 721.69326 C 1128.1999 721.24442 1128.3248 720.8679 1128.5685 720.53506 L 1128.5685 720.5331 C 1128.8127 720.20038 1129.1768 719.91102 1129.713 719.63662 L 1129.713 719.63467 C 1130.2502 719.36009 1130.9635 719.10199 1131.9064 718.82803 C 1132.8513 718.55347 1134.0264 718.26355 1135.4923 717.93154 C 1143.366 716.14851 1148.517 713.92151 1154.0021 709.53896 L 1154.0021 709.53701 C 1155.8301 708.07629 1157.6956 706.37574 1159.7111 704.37295 L 1159.7111 704.37099 C 1161.8074 702.28781 1163.6364 700.23551 1165.2306 698.15615 L 1165.2306 698.1542 C 1166.0274 697.1149 1166.7645 696.06802 1167.4474 695.00771 L 1167.4474 695.00576 C 1168.1303 693.94544 1168.7574 692.87127 1169.3341 691.77529 L 1169.3341 691.77334 C 1169.9107 690.67731 1170.4361 689.55834 1170.9142 688.41201 L 1170.9142 688.41006 C 1171.3923 687.26365 1171.8218 686.08821 1172.2091 684.87685 C 1172.9842 682.45244 1173.5853 679.88383 1174.0431 677.11123 C 1177.2853 657.47926 1167.771 638.10697 1151.7501 627.75381 C 1149.0803 626.02863 1146.2309 624.55292 1143.2287 623.36904 C 1141.7278 622.77727 1140.1885 622.25761 1138.6154 621.81631 C 1137.0417 621.37489 1135.4338 621.01303 1133.7951 620.73232 C 1130.5412 620.17495 1128.9085 619.88936 1127.7501 619.09951 C 1127.171 618.70513 1126.7108 618.1852 1126.2267 617.44131 L 1126.2267 617.43935 C 1125.7426 616.69507 1125.2332 615.72774 1124.5587 614.43935 L 1124.5587 614.4374 C 1123.6943 612.7865 1122.5555 610.99866 1121.2423 609.18349 C 1119.9288 607.36797 1118.4421 605.5254 1116.8771 603.76748 C 1115.3128 602.01024 1113.6711 600.33919 1112.0529 598.86123 C 1110.4344 597.38305 1108.8383 596.09985 1107.3634 595.12295 L 1102.7697 592.07998 L 1102.7697 592.07803 L 1107.6017 591.76943 L 1112.4318 591.46279 L 1107.1212 587.23428 C 1105.4388 585.89524 1103.6152 584.70893 1101.6642 583.68349 C 1099.7132 582.65806 1097.6354 581.79205 1095.4455 581.08974 C 1091.0657 579.68515 1086.2373 578.93771 1081.0802 578.88271 L 1073.4337 578.80263 L 1073.4435 578.79873 L 1073.4337 578.79873 L 1079.9123 575.68545 L 1086.383 572.57412 L 1081.9103 570.59365 C 1074.0627 567.11724 1059.584 567.20371 1048.6662 570.46084 C 1047.1065 570.92614 1045.6192 571.45715 1044.2345 572.05068 C 1041.2282 573.33942 1040.3295 573.665 1040.4279 573.07607 C 1040.4409 572.99957 1040.5363 572.83585 1040.5802 572.72842 C 1040.6492 572.56105 1040.685 572.42737 1040.8146 572.18545 C 1041.3222 571.23804 1043.6209 568.32619 1045.9201 565.71474 C 1045.9211 565.71274 1045.9207 565.71088 1045.9201 565.70888 C 1047.3874 564.04257 1048.3831 562.89212 1048.7345 562.1581 L 1048.7345 562.15615 C 1049.0831 561.42415 1048.7875 561.1092 1047.6681 561.11709 L 1047.6681 561.11513 L 1047.6876 561.09365 z M 1164.129 631.28115 C 1164.1298 631.28103 1164.1322 631.28322 1164.133 631.2831 L 1164.1349 631.28115 L 1164.129 631.28115 z M 1164.133 631.2831 C 1164.0175 631.30118 1163.9533 631.36351 1163.9513 631.47451 L 1163.9513 631.47646 C 1163.9521 631.81026 1165.3435 634.10186 1167.0431 636.57217 C 1171.446 642.97163 1175.5826 652.53073 1177.0744 659.75381 C 1178.3295 665.83027 1178.5114 666.08051 1185.4044 671.18349 C 1194.8728 678.19307 1209.1699 692.7775 1216.1505 702.54678 C 1238.552 733.89752 1246.6898 771.93484 1240.6798 805.15029 C 1240.0791 808.47031 1239.3385 811.74282 1238.4552 814.95498 C 1238.4548 814.95598 1238.4552 814.95788 1238.4552 814.95888 C 1237.5718 818.17094 1236.5468 821.32298 1235.381 824.4042 C 1235.3802 824.4062 1235.38 824.40806 1235.381 824.41006 C 1234.2152 827.49058 1232.9089 830.50089 1231.4611 833.42763 C 1231.4605 833.42863 1231.4601 833.43054 1231.4611 833.43154 C 1230.013 836.35875 1228.4235 839.20266 1226.6935 841.95303 C 1223.2311 847.45821 1219.2057 852.58743 1214.6154 857.24599 C 1207.4614 864.50648 1199.635 870.07203 1189.2052 875.32021 C 1185.2198 877.32574 1181.9625 879.10106 1181.9591 879.26748 C 1181.96 879.43412 1182.8038 881.33727 1183.838 883.50185 C 1184.4494 884.78157 1185.013 886.24593 1185.5138 887.82607 L 1185.5138 887.82803 C 1186.0144 889.40765 1186.4527 891.10321 1186.8146 892.84756 C 1186.8148 892.84856 1186.8143 892.85046 1186.8146 892.85146 C 1187.5382 896.34032 1187.9572 900.02244 1187.9572 903.35732 C 1187.9572 905.0978 1187.805 907.25496 1187.5392 909.62685 C 1187.2736 911.99626 1186.893 914.58042 1186.4337 917.17568 C 1185.9746 919.77018 1185.439 922.37641 1184.8576 924.79287 C 1184.8573 924.79387 1184.8576 924.79578 1184.8576 924.79678 C 1184.2763 927.21275 1183.6518 929.43921 1183.0197 931.27334 C 1183.0193 931.27434 1183.0197 931.27624 1183.0197 931.27724 L 1181.0119 937.10732 L 1185.2365 936.44131 C 1197.4985 934.50786 1211.3751 928.83054 1224.424 920.71084 L 1224.424 920.70888 C 1232.2538 915.83661 1239.7856 910.08472 1246.4923 903.73623 C 1248.837 901.51674 1250.9365 899.46617 1252.4298 897.95107 C 1253.9207 896.43838 1254.803 895.46296 1254.7267 895.38076 C 1254.5662 895.22235 1251.9683 895.90762 1248.9494 896.9042 C 1243.6224 898.6628 1232.9476 900.61954 1233.9572 899.65224 L 1233.9572 899.65029 L 1233.9572 899.64834 C 1234.2322 899.38484 1238.3598 896.52997 1243.129 893.30459 C 1245.9084 891.42492 1248.5516 889.51911 1251.049 887.5956 L 1251.049 887.59365 C 1256.0451 883.74554 1260.4559 879.82838 1264.1896 875.92373 C 1266.0554 873.97246 1267.7526 872.02544 1269.2697 870.08974 C 1269.2697 870.08774 1269.2702 870.08784 1269.2697 870.08584 C 1271.9168 866.70809 1273.8797 863.94725 1273.6388 863.94326 C 1273.3932 863.94384 1271.4532 864.6734 1269.3244 865.56435 C 1267.1948 866.45565 1263.4893 867.7764 1261.09 868.4999 L 1256.7267 869.81631 L 1256.7365 869.81045 L 1266.3107 860.82412 C 1268.3014 858.95577 1270.5719 856.54466 1272.838 853.9999 C 1272.9464 853.87825 1273.0422 853.79615 1273.1505 853.67373 C 1275.525 850.99103 1277.8957 848.1365 1279.9669 845.48623 L 1279.9669 845.48428 C 1283.074 841.5084 1285.5069 837.99381 1286.2658 836.22256 C 1286.5179 835.63412 1286.5838 835.24096 1286.4298 835.08388 C 1286.3233 834.97728 1285.7992 835.13169 1285.0412 835.46865 C 1284.2831 835.8056 1283.2912 836.32506 1282.2482 836.94326 C 1280.3084 838.09303 1277.4863 839.40233 1275.1486 840.33193 L 1275.1486 840.33388 C 1272.8104 841.26354 1270.9572 841.81209 1270.9572 841.43349 L 1270.9572 841.42959 C 1270.9572 841.19486 1273.3894 837.27841 1276.3615 832.71865 C 1276.3623 832.71765 1276.3625 832.71574 1276.3615 832.71474 C 1277.8475 830.43508 1279.4953 827.69153 1280.9533 825.10732 C 1280.9542 825.10532 1280.9533 825.10542 1280.9533 825.10342 C 1282.411 822.5196 1283.6782 820.09648 1284.4044 818.45498 C 1284.4049 818.45398 1284.4054 818.45207 1284.4044 818.45107 C 1285.0394 817.01521 1285.7656 815.08614 1286.4982 812.95498 C 1287.9639 808.69048 1289.4528 803.61701 1290.2833 800.0624 C 1290.6986 798.2851 1290.9494 796.88859 1290.9494 796.16201 C 1290.9494 795.38901 1287.8387 798.06052 1284.0353 802.09951 L 1277.1212 809.43935 L 1280.4318 799.44326 C 1280.4323 799.44226 1280.4318 799.44035 1280.4318 799.43935 C 1281.9024 794.99996 1283.4367 789.26688 1284.4806 784.75381 C 1284.7299 783.67568 1285.1095 782.29167 1285.2716 781.44326 C 1285.2718 781.44226 1285.2714 781.44035 1285.2716 781.43935 C 1285.9921 777.66671 1286.7136 772.407 1287.1662 768.17959 C 1287.1664 768.17759 1287.1661 768.17768 1287.1662 768.17568 C 1287.3923 766.06321 1287.5513 764.21009 1287.6095 762.92763 C 1287.6096 762.92463 1287.6094 762.92673 1287.6095 762.92373 C 1287.6675 761.64391 1287.6235 760.94037 1287.4474 761.11513 C 1287.2679 761.29594 1284.78 764.59169 1281.922 768.43935 C 1281.921 768.44135 1281.9214 768.44126 1281.922 768.44326 C 1280.2793 770.65461 1279.0357 772.17466 1278.254 772.94326 L 1278.254 772.94521 C 1277.4718 773.71437 1277.1506 773.73395 1277.3478 772.94326 C 1278.0384 770.17406 1278.4462 761.69459 1278.5373 752.78701 C 1278.5373 752.65531 1278.548 752.5517 1278.549 752.41982 L 1278.549 752.41787 C 1278.59 747.8926 1278.5482 743.26977 1278.4162 739.23037 L 1278.4162 739.22842 C 1278.2842 735.1902 1278.0618 731.73629 1277.7443 729.54678 L 1277.7443 729.54287 L 1276.4513 720.65029 L 1273.004 729.04287 L 1273.004 729.04678 L 1272.3908 730.54092 L 1269.5548 737.44326 L 1269.5548 737.43935 L 1268.2775 729.91201 C 1268.2772 729.91001 1268.2778 729.90815 1268.2775 729.90615 C 1267.7681 726.90193 1267.1471 723.77774 1266.4474 720.64638 C 1266.4471 720.64538 1266.4476 720.64348 1266.4474 720.64248 C 1265.7476 717.51109 1264.9664 714.37342 1264.1388 711.34365 C 1264.1384 711.34265 1264.1391 711.34074 1264.1388 711.33974 C 1263.3111 708.31013 1262.4342 705.3886 1261.5412 702.68935 C 1260.6477 699.989 1259.7363 697.51152 1258.84 695.37099 L 1255.5216 687.44521 L 1254.797 691.43935 C 1254.4799 693.18603 1254.2784 695.68055 1254.1408 697.79092 C 1254.1048 698.33861 1253.9821 698.98604 1253.9708 699.43935 L 1253.9708 699.44326 C 1253.9468 700.4064 1253.9178 701.11695 1253.8126 701.48037 L 1253.8126 701.48232 C 1253.7596 701.66286 1253.6873 701.75835 1253.588 701.75576 C 1253.0893 701.74676 1251.8901 699.28759 1248.8673 692.94326 C 1243.493 681.66369 1233.7758 666.04452 1233.1896 667.74209 C 1232.9973 668.32198 1233.2726 671.1811 1233.8029 674.09756 C 1234.2122 676.34928 1234.4331 677.7236 1234.2482 678.0292 C 1233.9444 678.54825 1232.5164 676.10667 1228.9533 669.80263 C 1225.6359 663.93311 1211.7022 647.94326 1209.9044 647.94326 C 1209.7912 647.94626 1209.7505 648.10218 1209.7775 648.38857 C 1209.8595 649.25568 1210.5441 651.28327 1211.5822 653.63076 L 1214.0998 659.32217 L 1214.09 659.31435 L 1214.09 659.32412 L 1205.2677 650.28115 C 1198.663 643.51154 1191.8863 638.07141 1190.2951 638.09756 C 1190.2951 638.09765 1190.2953 638.10732 1190.2853 638.10732 C 1190.07 638.11732 1189.9455 638.22274 1189.9455 638.45498 L 1189.9455 638.45693 C 1189.9462 638.76908 1190.9115 640.91041 1192.09 643.2206 C 1192.996 644.99646 1193.4899 646.07849 1193.381 646.40029 C 1193.208 646.94633 1191.3615 645.38234 1186.9435 641.38271 C 1182.349 637.22333 1175.8351 632.94326 1174.0978 632.94326 C 1173.5506 632.94326 1173.2927 633.07608 1173.338 633.46474 L 1173.338 633.4667 C 1173.386 633.85733 1173.7387 634.50225 1174.4103 635.52724 C 1175.603 637.34756 1175.9759 638.30447 1175.549 638.39443 C 1175.1248 638.48773 1173.9004 637.71654 1171.8888 636.07021 C 1168.5278 633.31955 1164.9746 631.16462 1164.133 631.2831 z M 950.45327 631.93935 C 952.65872 631.93935 953.00487 632.26073 952.62124 634.01162 C 952.58914 634.15789 952.58912 634.24605 952.54702 634.41396 C 952.54662 634.41596 952.54741 634.41587 952.54702 634.41787 C 952.20538 635.78045 951.64542 639.57291 951.30288 642.84951 C 951.30272 642.85051 951.30303 642.85142 951.30288 642.85342 C 951.16245 644.19666 951.03491 645.24779 950.88296 646.08584 C 950.88278 646.08684 950.88312 646.08874 950.88296 646.08974 C 950.81426 646.46794 950.70775 646.67397 950.62514 646.97256 C 950.52466 647.33578 950.44355 647.77549 950.31069 648.04482 C 950.06906 648.53464 949.76259 648.89175 949.35366 649.19326 L 949.35171 649.19521 C 948.94184 649.49728 948.42926 649.7459 947.77358 650.01748 C 946.74238 650.44461 945.64183 651.17291 944.54702 652.10732 C 943.45321 653.04124 942.36407 654.17945 941.35952 655.42959 C 941.35861 655.43059 941.35856 655.43249 941.35756 655.43349 C 940.35259 656.68456 939.42887 658.04444 938.66616 659.42178 L 938.66616 659.42373 C 937.90408 660.80017 937.30123 662.19321 936.93374 663.50576 C 935.38774 669.02764 936.16737 676.48162 938.83803 681.7167 C 940.98023 685.91588 947.1734 691.93935 949.3478 691.93935 C 950.6247 691.93935 951.9225 698.56437 951.9435 705.18935 C 951.9465 706.00081 951.8951 706.61354 951.71499 707.03506 C 951.62549 707.24442 951.50449 707.40764 951.34194 707.52334 L 951.33999 707.52529 C 951.17701 707.64073 950.97183 707.70897 950.71694 707.73232 C 949.6941 707.82752 947.85606 707.18882 944.59389 705.86513 C 931.26413 700.45641 922.82411 690.40331 919.95913 676.52334 C 919.06072 672.17073 918.98996 667.80064 919.70522 663.54873 C 920.18168 660.71643 921.0073 657.93552 922.17006 655.24795 L 922.17202 655.24599 C 922.75335 653.90235 923.41773 652.58145 924.16616 651.28896 L 924.16811 651.28701 C 924.91663 649.99456 925.74765 648.72924 926.6603 647.49795 L 926.66225 647.49599 C 927.57471 646.26513 928.56921 645.06784 929.64272 643.9081 C 929.6437 643.9071 929.64365 643.9052 929.64467 643.9042 C 931.10384 642.3281 932.81393 640.79371 934.63686 639.37685 L 934.63881 639.3749 C 940.11013 635.12288 946.60622 631.93935 950.45327 631.93935 z M 1134.2697 632.07412 L 1134.2716 632.07412 L 1134.2736 632.07412 C 1135.4267 632.14499 1137.3588 632.86897 1140.4494 634.02529 C 1148.2715 636.95199 1156.828 645.09622 1160.5509 653.1581 C 1163.1481 658.78238 1163.4489 660.48629 1163.4279 669.43935 C 1163.4179 673.75453 1163.3215 676.44354 1162.9513 678.64834 C 1162.7665 679.74853 1162.5138 680.72808 1162.1681 681.72842 C 1162.1676 681.72942 1162.1671 681.73132 1162.1681 681.73232 C 1161.822 682.7328 1161.3848 683.75493 1160.8302 684.93935 C 1160.8295 684.94035 1160.8292 684.94126 1160.8302 684.94326 C 1159.9518 686.81827 1158.8513 688.69554 1157.5861 690.51357 C 1157.3469 690.85743 1157.0359 691.16066 1156.7853 691.4999 C 1155.7095 692.95559 1154.5984 694.40343 1153.3498 695.73428 C 1150.2709 699.0166 1146.7586 701.82305 1143.2677 703.66396 C 1140.0708 705.34975 1136.0854 707.01829 1134.4123 707.37099 L 1131.3712 708.01162 L 1131.3712 708.00771 L 1131.6173 706.07412 L 1132.338 700.37881 C 1132.7352 697.24574 1133.0324 695.50981 1133.4826 694.22256 C 1133.5576 694.00809 1133.6048 693.67753 1133.6915 693.49209 L 1133.6915 693.49013 C 1134.2992 692.19175 1135.2343 691.52649 1137.006 690.4081 C 1140.6801 688.0887 1143.045 685.58723 1144.8556 681.89834 L 1144.8556 681.89638 C 1145.4591 680.66647 1146.0014 679.30431 1146.5099 677.77334 C 1146.9115 676.56428 1147.2096 675.31964 1147.4083 674.05849 C 1147.4085 674.05749 1147.4081 674.05559 1147.4083 674.05459 C 1147.6068 672.79343 1147.707 671.51538 1147.713 670.23818 L 1147.713 670.23428 C 1147.723 668.95708 1147.6291 667.68093 1147.4533 666.42373 C 1147.4531 666.42273 1147.4535 666.42082 1147.4533 666.41982 C 1147.2768 665.162 1147.0124 663.92426 1146.6642 662.72256 L 1146.6642 662.7206 C 1145.2701 657.91226 1142.5417 653.69949 1138.8165 651.23428 C 1136.6739 649.81628 1134.7463 647.70885 1134.5333 646.55068 C 1134.5332 646.54988 1134.5335 646.54582 1134.5333 646.54482 C 1134.3203 645.38715 1133.7416 641.62947 1133.2482 638.19326 C 1133.248 638.19126 1133.2485 638.19135 1133.2482 638.18935 C 1132.7604 634.79126 1132.5014 632.98756 1133.2111 632.3456 C 1133.4474 632.13189 1133.7913 632.04585 1134.2697 632.07412 z M 1069.8947 640.68154 L 1069.8966 640.68154 L 1069.9005 640.68154 C 1078.8813 640.81181 1088.0664 643.09335 1094.7033 647.48623 C 1097.2093 649.14489 1099.3257 650.9049 1101.0802 652.81826 C 1101.9569 653.77437 1102.7429 654.76809 1103.4415 655.80849 L 1103.4415 655.81045 C 1106.9352 661.01424 1108.2431 667.35759 1107.7599 675.70498 C 1107.6679 677.2975 1107.4863 678.86021 1107.2208 680.39053 C 1106.9556 681.91885 1106.6049 683.4154 1106.172 684.87295 C 1105.7391 686.33023 1105.2245 687.74909 1104.629 689.12685 C 1104.6284 689.12785 1104.628 689.12976 1104.629 689.13076 C 1104.0337 690.50786 1103.3603 691.84382 1102.6076 693.13271 L 1102.6076 693.13467 C 1101.8546 694.42396 1101.0247 695.667 1100.1193 696.85928 C 1099.8638 697.19588 1099.5566 697.49568 1099.2892 697.82412 C 1098.6086 698.65981 1097.9341 699.5007 1097.1779 700.28115 C 1095.0706 702.45656 1092.6747 704.41253 1090.008 706.11123 C 1082.0532 711.17861 1073.7777 709.43128 1064.2833 700.67959 C 1058.4588 695.31069 1055.1379 689.69991 1054.465 684.30849 C 1054.1952 682.15374 1054.3503 680.03558 1054.9357 677.98037 C 1055.229 676.9509 1055.6295 675.93665 1056.1408 674.94326 C 1059.4105 668.5915 1064.6395 665.74544 1072.1798 666.21084 C 1076.8148 666.49694 1078.659 667.17047 1081.8712 669.75185 C 1084.0531 671.50525 1086.0894 672.93935 1086.3966 672.93935 C 1086.5495 672.93635 1086.6883 672.55971 1086.7892 671.94912 C 1086.8904 671.33604 1086.9533 670.49095 1086.9533 669.56045 C 1086.9533 666.89041 1086.1232 665.42627 1083.0138 662.61709 C 1075.5594 655.88258 1065.9349 656.70685 1053.4396 665.14834 C 1046.5249 669.81972 1045.6031 670.16483 1041.2072 669.74013 C 1037.6539 669.39673 1034.7518 668.11455 1029.713 664.66201 C 1019.5822 657.72056 1012.94 656.40386 1005.3751 659.83974 C 1004.0513 660.44096 1002.8622 661.14321 1001.8244 661.92763 C 1000.7867 662.71206 999.89968 663.57856 999.17788 664.50771 C 999.12348 664.57771 999.10538 664.65962 999.05288 664.73037 C 997.71361 666.53572 996.95522 668.55607 996.95522 670.67763 L 996.95522 674.14638 L 1000.3693 671.15029 C 1004.777 667.28031 1010.0553 665.57801 1015.6876 666.21279 C 1022.597 666.99158 1027.7124 671.90621 1029.4005 677.96279 C 1030.0754 680.38444 1030.202 682.98843 1029.6759 685.58388 C 1029.413 686.88109 1028.9891 688.17627 1028.3869 689.44521 C 1028.3863 689.44621 1028.3859 689.44812 1028.3869 689.44912 C 1027.7717 690.74459 1026.6868 692.36613 1025.3361 694.10146 C 1025.1349 694.36007 1024.8571 694.6334 1024.6447 694.89638 C 1023.4306 696.39943 1022.1177 697.94828 1020.6876 699.43935 C 1017.3264 702.94475 1013.7161 706.05727 1011.4904 707.06826 C 1003.0828 710.8874 995.35662 708.44453 987.0353 699.33974 C 984.42868 696.48773 982.44435 693.73468 980.97866 690.80459 L 980.97866 690.80263 C 980.49025 689.82648 980.05877 688.83076 979.68178 687.80459 L 979.68178 687.80263 C 979.30508 686.77704 978.98211 685.7211 978.70913 684.6249 C 978.70883 684.6239 978.70943 684.62199 978.70913 684.62099 C 978.4361 683.52407 978.21207 682.38738 978.0353 681.19912 L 978.0353 681.19717 C 977.68184 678.82041 977.51404 676.23914 977.50014 673.37295 C 977.50014 673.37095 977.50015 673.37104 977.50014 673.36904 C 977.49014 671.32944 977.50215 669.70652 977.56655 668.33584 L 977.56655 668.33388 C 977.63125 666.96364 977.74948 665.8463 977.95327 664.81826 L 977.95327 664.81631 C 978.15702 663.78904 978.44823 662.85121 978.85561 661.83974 C 979.26397 660.82583 979.78895 659.7377 980.46694 658.41201 C 981.86875 655.67104 983.58512 653.27113 985.63296 651.19912 C 988.70501 648.09079 992.52517 645.7242 997.1603 644.06435 C 1001.7965 642.40408 1007.2471 641.44935 1013.5783 641.16982 C 1025.357 640.64972 1032.2877 642.21496 1038.4064 646.77724 L 1042.3165 649.69326 L 1046.3224 646.79092 C 1052.1389 642.57745 1060.9141 640.55315 1069.8947 640.68154 z M 1069.1466 671.23232 C 1068.0421 671.3363 1066.9369 671.7635 1065.297 672.56435 C 1064.0429 673.17681 1062.9219 673.95809 1061.9611 674.86513 L 1061.9611 674.86709 C 1061.6893 675.12388 1061.5349 675.45478 1061.2892 675.73037 C 1060.6666 676.4289 1060.0273 677.12067 1059.5861 677.91592 L 1059.5861 677.91787 C 1058.9717 679.0261 1058.5423 680.21167 1058.3244 681.42763 C 1058.1062 682.64502 1058.0989 683.89291 1058.3341 685.1249 C 1059.0892 689.1501 1062.9958 693.61625 1066.2873 694.21865 C 1070.9069 695.06417 1076.0179 693.30889 1078.6017 690.19131 C 1078.9699 689.74707 1079.2863 689.27517 1079.5431 688.7792 C 1079.5438 688.7782 1079.5441 688.77629 1079.5431 688.77529 C 1079.9816 687.92741 1080.3154 687.05889 1080.5529 686.18545 C 1082.2157 680.06171 1079.0743 673.65842 1073.004 671.83974 C 1071.3625 671.34784 1070.257 671.12833 1069.1525 671.23232 L 1069.1466 671.23232 z M 1014.4474 671.54482 C 1010.552 671.54541 1007.4673 673.23796 1005.5294 675.7499 C 1004.8845 676.58646 1004.3649 677.51412 1003.9865 678.4999 L 1003.9865 678.50185 C 1003.2292 680.4757 1003.0303 682.68307 1003.4904 684.86709 C 1003.9507 687.05177 1005.0702 689.21256 1006.9474 691.08974 C 1009.3429 693.48524 1010.6187 693.93935 1014.9513 693.93935 C 1019.3144 693.93935 1020.5548 693.49198 1023.0294 691.01748 C 1023.5998 690.44703 1024.0687 689.92314 1024.4494 689.4081 C 1024.4504 689.4071 1024.4504 689.4052 1024.4494 689.4042 C 1024.5484 689.27036 1024.5945 689.13323 1024.6818 688.9999 C 1024.9303 688.62028 1025.1797 688.24391 1025.3439 687.84756 C 1025.7885 686.7741 1025.9474 685.58439 1025.9474 683.9706 C 1025.9474 676.28864 1021.5577 671.54573 1014.4494 671.54482 L 1014.4474 671.54482 z M 1032.6388 709.94326 C 1031.144 709.94326 1030.0349 710.29024 1029.3087 710.87685 L 1029.3087 710.87881 C 1029.2607 710.91731 1029.2478 710.97501 1029.2033 711.01553 C 1028.9096 711.28413 1028.6576 711.57902 1028.508 711.92568 C 1028.448 712.06511 1028.4629 712.23665 1028.4259 712.38662 C 1028.2526 713.09408 1028.273 713.88542 1028.6134 714.75185 C 1029.2332 716.32925 1030.7013 718.06715 1033.0021 719.58974 C 1035.1408 721.00504 1037.1588 723.01415 1037.4884 724.05263 C 1037.677 724.6468 1037.9853 725.09912 1038.3439 725.40615 C 1038.7025 725.71318 1039.1115 725.87574 1039.504 725.89053 C 1039.8956 725.90531 1040.2707 725.77334 1040.5607 725.49209 L 1040.5607 725.49013 C 1040.8501 725.20846 1041.0528 724.77549 1041.1056 724.19326 C 1041.8729 715.55919 1038.5365 709.94326 1032.6388 709.94326 z M 1052.3048 709.97256 C 1050.9574 709.85512 1049.4667 710.41748 1048.0294 711.56045 C 1047.3121 712.13153 1046.6058 712.84564 1045.9396 713.69326 C 1045.9386 713.69426 1045.9386 713.69617 1045.9396 713.69717 C 1045.2733 714.54522 1044.6446 715.52534 1044.0783 716.6249 L 1044.0783 716.62685 L 1044.0783 716.62881 C 1043.7702 717.22812 1043.5226 718.00029 1043.34 718.83974 C 1042.7909 721.36276 1042.8337 724.48382 1043.6232 725.27334 C 1044.7838 726.43394 1045.8512 726.00296 1046.963 723.92568 C 1047.556 722.81758 1049.8219 720.78591 1051.9982 719.41201 C 1054.0496 718.11699 1055.3451 716.65922 1055.8263 715.2206 C 1056.3065 713.78027 1055.9701 712.36042 1054.754 711.14443 C 1054.0409 710.43129 1053.2069 710.05086 1052.3087 709.97256 L 1052.3048 709.97256 z M 1089.2736 746.91787 C 1088.7159 746.97177 1087.827 747.97923 1086.7619 750.21279 C 1084.744 754.44429 1077.5191 758.39715 1067.8478 760.56045 C 1062.4201 761.77445 1055.5282 762.21084 1041.9513 762.21084 C 1025.1759 762.2071 1013.8185 760.99694 1006.3673 758.22646 C 1006.31 758.88165 1006.1949 759.53441 1006.0158 760.16787 C 1005.7026 761.3077 1005.4366 762.45767 1005.1994 763.61318 C 1005.8803 763.89709 1006.4826 764.21295 1007.2326 764.4706 C 1011.9554 766.09315 1018.0678 767.20533 1025.838 767.94521 C 1036.6018 768.97011 1057.1386 768.19118 1066.6955 766.39638 C 1075.9749 764.65385 1082.0467 761.97586 1085.6935 757.89443 C 1086.9091 756.53396 1087.8547 755.01781 1088.5607 753.32803 C 1089.7958 750.37197 1090.1009 748.19346 1089.7853 747.32607 C 1089.6795 747.03964 1089.505 746.89549 1089.2736 746.91787 z M 993.87514 748.12295 C 993.65096 748.13295 993.54894 748.40962 993.56069 748.95107 C 993.56522 749.15824 993.6715 749.6005 993.70913 749.88467 C 994.06162 749.43215 994.40245 749.11198 994.75014 749.05459 C 994.85867 749.03668 994.9275 749.04902 995.03139 749.03701 C 995.01055 749.01302 994.97366 748.9565 994.95327 748.93349 C 994.46266 748.37985 994.1059 748.11241 993.87514 748.12295 z M 1005.7677 801.98818 C 1005.7913 802.03194 1005.805 802.08178 1005.8263 802.12685 C 1005.8414 802.09471 1005.8612 802.07349 1005.8771 802.04287 C 1005.8402 802.02554 1005.8046 802.0056 1005.7677 801.98818 z M 933.10561 835.4667 C 933.49761 835.56789 933.91547 835.71754 934.32241 835.8456 C 935.32818 836.16403 936.36894 836.54909 937.45522 837.02529 C 937.85316 837.19894 938.25101 837.3724 938.65835 837.56631 C 940.04396 838.22893 941.47057 838.98284 942.94546 839.86709 C 943.05517 839.93272 943.15952 839.98388 943.26967 840.05068 C 944.98768 841.09518 946.7533 842.27894 948.54506 843.5917 C 948.59047 843.62497 948.63634 843.66374 948.68178 843.69717 C 948.63845 843.66529 948.59423 843.62343 948.55092 843.5917 C 946.75915 842.27894 944.99356 841.0952 943.27553 840.05068 C 943.16538 839.98388 943.06105 839.93272 942.95131 839.86709 C 941.47644 838.98284 940.04983 838.22893 938.66421 837.56631 C 938.25687 837.3724 937.85902 837.19894 937.46108 837.02529 C 936.3748 836.54909 935.33404 836.16403 934.32827 835.8456 C 933.92133 835.71754 933.50347 835.56789 933.11147 835.4667 C 933.10944 835.46617 933.10764 835.46722 933.10561 835.4667 z M 954.64077 848.4667 C 954.70524 848.52257 954.76965 848.57851 954.83413 848.63467 C 954.76939 848.57828 954.70551 848.5228 954.64077 848.4667 z M 960.76967 854.22646 C 960.81804 854.27559 960.86783 854.31977 960.91616 854.36904 C 962.46023 855.94344 963.89607 857.37082 964.95131 858.38662 C 966.55452 859.92741 968.38257 861.35049 970.75405 862.17373 C 968.38509 861.3502 966.55924 859.92629 964.95717 858.38662 C 963.9019 857.37082 962.46609 855.94344 960.92202 854.36904 C 960.87197 854.31801 960.81976 854.27733 960.76967 854.22646 z M 1186.4494 857.72256 C 1186.3265 859.28047 1186.1776 860.67529 1185.963 861.95888 C 1186.1714 860.81613 1186.3319 859.20023 1186.4494 857.72256 z M 1180.4123 875.17959 C 1179.3423 877.0082 1178.1397 878.92263 1176.8068 880.91592 C 1178.1344 878.92959 1179.336 877.02179 1180.4025 875.19912 C 1180.4064 875.19238 1180.4083 875.18633 1180.4123 875.17959 z M 1176.8068 880.91787 C 1175.4735 882.91156 1174.0111 884.98274 1172.4279 887.1249 L 1172.4279 887.12685 C 1170.8445 889.26909 1169.1389 891.48126 1167.3185 893.75576 C 1166.7914 894.41436 1166.0914 895.16117 1165.5451 895.82998 C 1165.4664 895.9263 1165.3798 896.02652 1165.3009 896.12295 C 1165.3726 896.03529 1165.4618 895.93903 1165.5333 895.85146 C 1166.0795 895.18265 1166.7797 894.43584 1167.3068 893.77724 C 1169.1272 891.50274 1170.8328 889.2906 1172.4162 887.14834 L 1172.4162 887.14638 C 1173.9994 885.00422 1175.4619 882.93304 1176.7951 880.93935 L 1176.7951 880.9374 C 1176.7995 880.9307 1176.8023 880.92457 1176.8068 880.91787 z M 919.93569 883.94326 C 919.75886 883.94326 919.54917 884.09597 919.3146 884.37881 C 918.61107 885.22711 917.68903 887.23106 916.80288 889.68935 L 916.80288 889.69131 C 916.21242 891.33035 915.63698 893.17044 915.15249 895.00576 C 915.15211 895.00676 915.15053 895.00767 915.15053 895.00967 C 914.6664 896.84415 914.27385 898.67332 914.04506 900.28896 C 911.86038 915.7155 916.52858 930.21613 930.02944 949.93935 C 940.2431 964.86019 951.10517 976.02283 970.20131 991.21865 C 977.91133 997.35388 980.42874 999.92284 979.90444 1002.6815 C 979.81734 1003.1397 979.64767 1003.6038 979.40249 1004.0897 L 979.40053 1004.0897 C 979.15488 1004.5759 978.83546 1005.0842 978.45131 1005.6327 L 978.44936 1005.6327 C 978.44736 1005.6327 978.43964 1005.6425 978.43764 1005.6425 C 978.02137 1006.229 977.06586 1006.9502 975.85171 1007.6425 C 975.85071 1007.6432 975.8488 1007.6435 975.8478 1007.6425 L 975.84585 1007.6425 C 974.62241 1008.3396 973.14098 1009.0083 971.69741 1009.4765 C 967.27365 1010.9112 963.29484 1012.6954 959.88881 1014.6972 L 959.88686 1014.6972 C 958.18447 1015.698 956.62553 1016.7522 955.22475 1017.8437 L 955.2228 1017.8437 C 952.42061 1020.0273 950.25338 1022.3578 948.8478 1024.7011 C 948.14542 1025.8725 947.63239 1027.0466 947.32631 1028.2069 C 947.02035 1029.367 946.91939 1030.5136 947.04116 1031.6288 C 947.10226 1032.186 947.2189 1032.7337 947.39272 1033.2733 C 947.56673 1033.8135 947.79904 1034.3449 948.08999 1034.8632 C 949.72954 1037.7844 951.18824 1038.0685 953.04116 1035.4706 C 953.65789 1034.6059 954.3199 1033.4201 955.04506 1031.9081 C 955.04593 1031.9081 955.04602 1031.9083 955.04702 1031.8983 C 958.2109 1025.2987 963.74471 1020.0574 971.89077 1015.9452 C 976.01194 1013.8649 978.26973 1012.9218 978.50405 1013.0331 C 978.73926 1013.1432 976.96388 1014.3045 972.99819 1016.4413 C 968.33964 1018.9512 964.69254 1021.558 961.97866 1024.3729 C 960.16984 1026.249 958.77517 1028.2169 957.77358 1030.3085 C 957.27325 1031.354 956.8698 1032.4296 956.56264 1033.5409 C 956.50564 1033.7471 956.49394 1033.971 956.4435 1034.1796 C 955.95009 1036.2206 955.72684 1038.3622 955.83999 1040.662 C 955.96809 1043.2674 959.25115 1046.912 961.47085 1046.912 C 961.88802 1046.912 962.27534 1046.7668 962.64663 1046.4511 C 962.87747 1046.2548 963.09671 1045.8624 963.3185 1045.5272 C 963.4531 1045.3235 963.59347 1045.2234 963.72671 1044.9647 C 964.07927 1044.2803 964.42911 1043.3957 964.79116 1042.289 L 964.79311 1042.289 C 965.15537 1041.1811 965.52847 1039.8481 965.92788 1038.2636 L 965.92983 1038.2636 C 966.09197 1037.6202 966.34087 1036.9336 966.66421 1036.2206 L 966.66616 1036.2206 C 966.70856 1036.1276 966.77557 1036.0257 966.82046 1035.9315 C 967.11907 1035.3047 967.44949 1034.6658 967.84975 1034.0097 C 968.77038 1032.5002 969.93909 1030.9381 971.2521 1029.4394 C 972.56647 1027.9391 974.02544 1026.5031 975.52944 1025.246 L 975.53139 1025.246 C 977.03499 1023.9895 978.58294 1022.9119 980.07241 1022.1308 C 981.41056 1021.429 982.25061 1021.0391 982.57827 1020.9569 C 982.91597 1020.8679 982.73675 1021.0895 981.99038 1021.6347 C 977.33667 1025.0336 973.8256 1028.3963 971.47866 1031.6991 L 971.47671 1031.6991 C 970.89062 1032.5247 970.37616 1033.3466 969.93569 1034.164 C 969.49581 1034.9805 969.12814 1035.7919 968.83413 1036.5995 L 968.83217 1036.5995 C 968.2442 1038.2159 967.94936 1039.8149 967.94936 1041.3905 C 967.94936 1046.0346 970.19753 1049.9159 972.88491 1049.9159 C 973.48546 1049.9159 974.01403 1049.8143 974.48842 1049.5839 C 974.96204 1049.3538 975.38119 1048.9952 975.76772 1048.4843 L 975.76967 1048.4843 C 976.15642 1047.9724 976.50952 1047.3074 976.8478 1046.4628 C 977.0066 1046.0662 977.15825 1045.486 977.31264 1045.0077 C 977.48706 1044.4672 977.66377 1044.0171 977.83803 1043.3651 L 977.83999 1043.3651 C 978.12203 1042.3098 978.51191 1041.2374 978.99233 1040.1659 C 978.99291 1040.1649 978.99524 1040.1659 978.99624 1040.1659 C 979.05324 1040.0389 979.1379 1039.914 979.19741 1039.787 C 979.64053 1038.842 980.12663 1037.8966 980.69741 1036.9667 C 981.34459 1035.9122 982.06693 1034.8742 982.8478 1033.871 L 982.84975 1033.871 C 983.6304 1032.8683 984.46989 1031.9001 985.35171 1030.9823 C 988.00036 1028.2258 991.03157 1025.9295 994.00796 1024.5487 L 994.00991 1024.5487 C 995.00192 1024.0886 995.98794 1023.7296 996.95131 1023.4901 C 997.80961 1023.2766 998.13468 1023.2869 997.92006 1023.5272 C 997.70674 1023.7668 996.95353 1024.2396 995.65053 1024.953 C 993.11045 1026.3443 990.22317 1028.6869 987.75405 1031.203 C 985.28493 1033.7191 983.23392 1036.4087 982.36342 1038.4921 C 981.83684 1039.7532 981.4588 1041.0736 981.22866 1042.3827 C 981.21236 1042.4757 981.22568 1042.5614 981.21108 1042.6542 C 980.59783 1046.4862 981.21173 1050.1899 983.02553 1052.0038 C 984.86683 1053.8451 985.33402 1053.92 987.20522 1052.6776 C 987.49202 1052.4871 987.81664 1052.1527 988.15835 1051.7167 C 988.16135 1051.7167 988.16411 1051.7069 988.16811 1051.7069 C 988.51317 1051.265 988.87494 1050.7167 989.23256 1050.0995 L 989.23452 1050.0995 C 989.95005 1048.8642 990.64766 1047.3515 991.15444 1045.8612 L 991.15639 1045.8612 C 991.66334 1044.3695 992.40541 1042.7315 993.19155 1041.2948 C 993.97769 1039.8582 994.80789 1038.6229 995.49428 1037.9354 C 997.76068 1035.6654 998.97795 1035.3868 1008.7208 1034.9003 C 1021.4028 1034.267 1025.8795 1032.512 1029.756 1026.6542 C 1030.7017 1025.2251 1031.3887 1023.7961 1031.8087 1022.2226 C 1032.0184 1021.4368 1032.1632 1020.6132 1032.2384 1019.7382 C 1032.3134 1018.8622 1032.318 1017.9343 1032.256 1016.9335 C 1032.194 1015.9331 1032.0623 1014.8597 1031.8615 1013.6991 C 1031.6606 1012.5381 1031.3891 1011.2884 1031.047 1009.9315 C 1030.362 1007.2158 1029.3906 1004.0723 1028.1271 1000.3593 C 1026.9778 996.98204 1025.7463 993.60036 1024.4376 990.22451 L 1024.4376 990.22256 C 1023.1292 986.84729 1021.7433 983.47649 1020.2833 980.11709 L 1020.2833 980.11513 C 1011.5216 959.95576 1000.0978 940.21422 986.84585 922.45498 C 982.98192 917.27658 980.3831 913.9001 977.78139 911.3749 C 973.44522 907.16622 969.10227 905.32027 958.89077 901.42373 C 950.94782 898.39284 939.09739 893.22383 932.55874 889.93545 C 926.02001 886.64696 920.33974 883.95498 919.93374 883.95498 L 919.93569 883.94326 z M 1180.0373 883.96474 C 1179.8487 883.96674 1178.7302 885.17249 1177.0783 887.11904 C 1176.6938 887.57211 1176.0839 888.35554 1175.6466 888.88271 C 1174.2034 890.62262 1172.6988 892.44138 1170.9162 894.71084 C 1170.9152 894.71184 1170.9152 894.71374 1170.9162 894.71474 C 1169.4766 896.54729 1167.7478 898.61878 1165.8068 900.85342 C 1165.8068 900.85442 1165.8059 900.85632 1165.8068 900.85732 C 1163.8654 903.09231 1161.7118 905.48828 1159.424 907.9706 C 1159.423 907.9716 1159.424 907.97251 1159.424 907.97451 C 1155.0421 912.72866 1150.1504 917.78708 1145.3263 922.62099 L 1146.838 923.7206 C 1146.838 923.7206 1146.8268 923.779 1146.8263 923.78115 C 1146.87 923.72987 1146.8949 923.67264 1146.9435 923.62295 C 1147.3011 923.3136 1147.785 923.16932 1148.2482 923.10342 C 1151.1311 923.08033 1154.5202 923.75214 1157.0451 925.22646 C 1160.002 926.92686 1160.5663 930.73851 1160.0509 933.83193 C 1159.6224 936.19915 1159.2912 938.66905 1158.2716 940.85928 C 1155.8453 941.62462 1152.9915 941.85869 1150.5216 942.46084 C 1149.8652 942.70885 1149.0949 942.87964 1148.6505 942.45498 C 1147.6106 944.14 1144.3159 946.01122 1138.9279 948.92959 C 1135.4585 950.80843 1130.8449 953.05022 1128.6759 953.91201 C 1119.9466 957.38045 1107.8384 957.68448 1093.6681 956.48818 C 1088.8543 956.0818 1085.5578 955.28964 1084.7833 955.22256 C 1084.7193 955.217 1084.685 955.20627 1084.6642 955.19521 C 1082.4315 955.01974 1080.2023 954.80939 1077.9826 954.54678 C 1069.0524 953.57915 1060.456 950.80583 1052.0919 947.64053 C 1036.04 941.76804 1021.4115 932.42692 1008.5587 921.23623 C 1005.0572 918.19137 1001.7337 914.94582 998.57241 911.55068 C 995.91449 911.21688 993.92499 910.97379 991.05874 910.58388 C 988.03844 910.22866 985.15886 909.81703 982.9435 909.34951 C 982.8461 909.32891 982.6509 909.31162 982.55678 909.29092 C 981.51848 909.06296 980.8863 908.95548 980.78921 909.25185 C 980.63459 909.75196 981.97614 911.37895 985.42397 915.44326 C 997.52983 929.71361 1011.072 952.30712 1021.1603 974.3749 L 1021.1603 974.37685 C 1024.5228 981.73223 1027.5022 989.02822 1029.9162 995.93935 L 1033.5841 1006.4394 L 1042.0216 1008.2226 C 1048.6031 1009.6132 1053.6458 1009.9175 1064.9572 1009.5995 C 1082.7626 1009.099 1092.1162 1006.6178 1108.4533 998.0624 L 1119.4474 992.30263 L 1120.1896 986.46279 L 1120.6447 982.87685 C 1120.6449 982.87485 1120.6445 982.87299 1120.6447 982.87099 C 1120.9733 980.27843 1121.5017 977.24699 1122.088 974.45107 C 1122.0883 974.45007 1122.0877 974.44917 1122.088 974.44717 C 1122.6742 971.65166 1123.32 969.09335 1123.881 967.44326 C 1123.8813 967.4424 1123.8808 967.44035 1123.881 967.43935 C 1124.4421 965.79018 1124.9019 964.62994 1125.1915 964.08584 L 1125.1915 964.08388 C 1125.3371 963.81047 1125.4401 963.69569 1125.4904 963.75185 C 1125.5404 963.80735 1125.5397 964.02918 1125.4787 964.43935 C 1125.4784 964.44135 1125.4791 964.44126 1125.4787 964.44326 C 1124.6264 970.20681 1124.0195 975.00994 1123.674 979.06826 C 1123.6739 979.06926 1123.6741 979.07117 1123.674 979.07217 C 1123.3288 983.1296 1123.2445 986.44261 1123.4357 989.22842 C 1123.4357 989.22942 1123.4356 989.23132 1123.4357 989.23232 C 1123.5317 990.62404 1123.6946 991.88555 1123.9298 993.04092 C 1123.93 993.04192 1123.9295 993.04382 1123.9298 993.04482 C 1124.6363 996.51241 1125.9814 999.0369 1128.0119 1001.3495 C 1132.449 1006.4031 1137.9157 1008.2589 1147.4572 1007.9511 C 1163.1234 1007.4455 1162.7581 1007.405 1165.5255 1009.9882 C 1166.9704 1011.3369 1169.0614 1014.2394 1170.172 1016.4394 C 1171.2825 1018.6394 1172.8973 1021.2436 1173.7619 1022.2265 C 1175.2955 1023.9699 1176.93 1024.1279 1178.4044 1022.7577 C 1178.8951 1022.301 1179.369 1021.674 1179.8146 1020.8808 C 1180.2358 1020.1305 1180.5022 1019.2988 1180.629 1018.4101 C 1181.5148 1012.178 1175.4788 1003.0883 1166.9142 998.69912 C 1163.8626 997.13515 1162.6738 996.18453 1163.0314 996.00576 C 1163.3781 995.82102 1165.2729 996.40793 1168.4162 997.92959 C 1173.8827 1000.5759 1179.3414 1006.3227 1182.7013 1012.9726 C 1185.5133 1018.5384 1187.9104 1020.0553 1190.5001 1017.9062 C 1190.958 1017.5261 1191.3041 1016.8953 1191.5373 1016.0995 C 1192.2368 1013.7051 1191.9173 1009.8095 1190.5665 1006.6679 C 1188.8415 1002.6555 1182.8592 996.88428 1176.9494 993.5292 C 1174.0886 991.90509 1172.9807 991.06728 1173.3673 991.03506 C 1173.735 990.99226 1175.6012 991.75643 1178.7345 993.36123 C 1185.1687 996.65671 1191.4553 1003.4267 1193.6681 1009.4452 C 1195.5943 1014.6838 1198.1008 1016.2216 1200.4923 1013.789 C 1200.8332 1013.4415 1201.1717 1013.0135 1201.506 1012.5038 C 1201.9282 1011.8594 1202.2218 1011.1363 1202.3986 1010.3534 C 1203.636 1004.8666 1199.0622 996.43712 1191.6642 991.45498 C 1189.5121 990.0057 1187.9389 988.75719 1187.547 988.22842 C 1187.4149 988.05325 1187.4153 987.95968 1187.5587 987.95693 L 1187.5587 987.95303 C 1189.1922 987.95303 1196.1743 993.24858 1199.0548 996.67178 C 1200.4506 998.33056 1202.1771 1001.0971 1202.8908 1002.8202 C 1204.1809 1005.9348 1206.2265 1006.5046 1207.5763 1005.0858 C 1207.7062 1004.9493 1207.8044 1004.7373 1207.9201 1004.5644 C 1208.0442 1004.3787 1208.1845 1004.2302 1208.2892 1004.0038 C 1208.3958 1003.7734 1208.458 1003.4683 1208.5412 1003.1972 C 1208.6162 1002.9525 1208.7163 1002.7455 1208.7697 1002.4687 C 1208.8818 1001.8855 1208.9425 1001.2313 1208.9415 1000.5116 C 1208.9405 999.56449 1208.8234 998.6371 1208.5939 997.73232 C 1208.3638 996.82639 1208.0195 995.94184 1207.5646 995.08193 L 1207.5646 995.07998 C 1204.8349 989.92112 1198.0981 985.62492 1187.8107 982.57412 C 1174.4494 978.61152 1173.1892 978.04604 1170.424 974.75967 C 1168.0694 971.96142 1167.3796 969.21278 1168.6076 964.30459 C 1168.608 964.30259 1168.6076 964.30073 1168.6076 964.29873 C 1168.8528 963.31823 1169.1741 962.25237 1169.5744 961.08193 C 1169.5748 961.08093 1169.5744 961.07901 1169.5744 961.07803 C 1170.3758 958.73521 1171.4932 955.97529 1172.9396 952.66006 C 1172.9405 952.65806 1172.9406 952.6562 1172.9396 952.6542 C 1173.7868 950.71255 1174.4143 949.15828 1175.1154 947.46865 C 1175.5525 946.41492 1176.1228 945.11266 1176.4708 944.23818 C 1177.3761 941.96388 1177.9365 940.40284 1177.9376 940.09756 L 1177.9376 940.09365 C 1177.9376 939.48782 1179.0077 935.27384 1180.3146 930.73037 C 1180.315 930.72937 1180.3146 930.72746 1180.3146 930.72646 C 1181.1317 927.88598 1181.8513 924.92061 1182.4611 921.94912 C 1183.0711 918.9764 1183.5699 915.99778 1183.9415 913.13271 C 1184.6845 907.4026 1184.9199 902.12616 1184.5236 898.25771 C 1183.8766 891.94304 1181.3725 883.96474 1180.0373 883.96474 z M 1117.838 890.43935 C 1117.8344 890.44651 1117.83 890.45368 1117.8263 890.46084 C 1117.8254 890.46284 1117.8253 890.4647 1117.8263 890.4667 C 1117.8311 890.45745 1117.8333 890.45448 1117.838 890.44521 C 1117.837 890.44321 1117.8371 890.44135 1117.838 890.43935 z M 1155.3263 907.78115 C 1155.233 907.88456 1155.1546 907.98217 1155.0607 908.08584 L 1155.0607 908.08779 C 1154.9508 908.20916 1154.8274 908.33729 1154.7169 908.45888 C 1154.8194 908.34603 1154.9469 908.22193 1155.049 908.10928 L 1155.049 908.10732 C 1155.1514 907.99422 1155.2245 907.89395 1155.3263 907.78115 z M 1118.8732 952.37099 C 1118.6464 952.37901 1118.4191 952.38167 1118.1915 952.38271 C 1118.3251 952.4039 1118.4731 952.43231 1118.6056 952.45303 C 1118.6949 952.42361 1118.7839 952.40088 1118.8732 952.37099 z " /><g
       id="g2"><path
         id="path486"
         style="fill:#fc8211;fill-opacity:1;stroke-width:0.665904"
         d="M 1007.7423 800.9042 C 1006.4221 800.82014 1004.2857 802.06422 1006.299 808.17959 C 1011.0242 822.53209 1017.5867 837.93819 1024.7365 851.39248 C 1030.067 848.63658 1031.9494 849.14922 1031.9494 852.96084 C 1031.9494 854.76209 1030.8928 856.56426 1028.6603 858.48037 C 1029.5847 860.07625 1030.5177 861.58998 1031.4513 863.09951 C 1032.5565 862.6154 1033.6738 862.15969 1034.7462 861.62881 C 1039.6467 859.20281 1041.4204 858.7491 1042.7462 859.58388 C 1046.8702 862.18087 1043.7173 866.8203 1036.7248 870.81435 C 1037.6402 872.02661 1038.5916 873.25485 1039.6212 874.53506 C 1045.4457 872.71892 1048.3218 872.87072 1048.7736 875.24013 C 1049.1398 877.16121 1047.7409 879.19941 1045.1486 881.10928 C 1051.0328 887.83124 1057.3975 894.32375 1061.9005 897.90029 C 1065.6791 900.90138 1069.3749 903.55302 1073.1466 905.99404 C 1073.8522 903.43896 1076.6405 904.37494 1081.547 908.85928 C 1084.5125 911.56956 1088.4515 914.28598 1090.3009 914.89638 C 1096.9313 917.08468 1101.0371 913.11641 1099.5958 905.91006 C 1099.0266 903.06416 1099.1493 902.94171 1102.7267 902.82803 C 1106.6239 902.70428 1108.8159 902.52597 1110.6193 901.37295 C 1107.9148 899.95611 1104.9266 898.41482 1101.2013 896.52138 C 1072.8527 882.11271 1059.2955 871.97345 1041.84 852.12685 C 1030.613 839.36244 1024.8169 829.88387 1017.1564 816.18935 C 1012.278 807.46837 1009.4763 801.01461 1007.7423 800.9042 z M 1142.9259 920.87685 C 1142.0568 921.76026 1141.2394 922.62502 1140.3498 923.51553 C 1138.1039 925.76339 1136.1253 927.62485 1134.1037 929.54873 C 1135.9583 929.95661 1137.7607 930.32939 1139.465 930.64443 C 1143.1073 931.31768 1146.2445 932.04636 1146.4357 932.26357 C 1147.1041 933.02289 1143.916 937.03081 1139.6974 940.73428 C 1132.4835 947.0667 1121.7004 952.32447 1112.0744 954.20303 C 1105.3886 955.5078 1094.6628 955.42588 1088.8693 955.06826 C 1085.3646 954.85198 1084.2033 955.17226 1084.7833 955.22256 C 1085.5578 955.28964 1088.8543 956.0818 1093.6681 956.48818 C 1107.8384 957.68448 1119.9466 957.38045 1128.6759 953.91201 C 1130.8449 953.05022 1135.4585 950.80843 1138.9279 948.92959 C 1144.6313 945.84041 1148.021 943.92128 1148.838 942.1581 C 1149.3988 940.94774 1148.1834 940.15948 1147.9298 937.7206 C 1147.6394 934.92672 1147.1423 931.6189 1146.8263 930.36904 C 1146.5098 929.11916 1146.2645 926.73504 1146.4982 925.44131 C 1146.649 924.60696 1146.838 923.7206 1146.838 923.7206 L 1142.9455 920.88857 C 1142.941 920.8853 1142.9305 920.88015 1142.9259 920.87685 z " /><path
         id="path488"
         style="fill:#f5a50a;fill-opacity:1;stroke-width:0.665904"
         d="M 987.39272 793.14443 C 987.08427 802.88508 985.99433 813.70227 986.92983 822.04092 C 988.34136 835.5836 992.07482 848.76522 997.55678 861.19717 C 1002.2532 860.43386 1006.7889 859.46628 1010.4494 858.31045 C 1013.1994 857.44215 1018.4534 854.97879 1022.1232 852.83779 C 1023.4121 852.08571 1024.502 851.51541 1025.504 851.0292 C 1019.9251 840.79577 1015.239 830.08555 1011.1798 819.14248 C 1009.3257 813.96593 1007.3255 808.80267 1006.1095 803.43349 C 1006.2025 801.03254 1003.5671 800.10021 1001.8673 799.05068 C 997.16074 796.52478 992.75228 793.74427 987.39272 793.14443 z M 1029.3634 857.80068 C 1027.2048 859.8917 1023.6727 862.10233 1018.4787 864.5956 C 1012.5077 867.46187 1011.9432 867.94131 1014.547 867.94131 C 1018.4032 867.94131 1025.6399 865.74432 1032.4103 862.67178 C 1031.3739 861.06019 1030.3467 859.44222 1029.3634 857.80068 z M 1037.6076 870.30459 C 1033.5956 872.74366 1028.1586 874.99114 1021.9494 876.44326 C 1014.4417 878.19916 1009.7638 880.41501 1015.4806 879.50771 C 1017.1134 879.24851 1021.0149 878.79065 1024.1486 878.48818 C 1027.2821 878.18558 1033.0409 876.78525 1036.9455 875.37685 C 1038.3421 874.87302 1039.4409 874.56497 1040.5685 874.23818 C 1039.566 872.93742 1038.5636 871.63609 1037.6076 870.30459 z M 1045.7912 880.63076 C 1041.0728 884.44845 1031.4105 887.83826 1020.758 888.86709 C 1014.8623 889.43649 1013.6105 889.75937 1016.4494 889.98037 C 1022.7606 890.47147 1027.7991 890.05238 1037.0568 888.27138 C 1041.7906 887.3609 1046.4032 886.89929 1047.3068 887.24599 C 1049.7129 888.16919 1049.342 892.55002 1046.6994 894.41982 C 1043.3911 896.76079 1031.9478 900.02927 1023.6779 900.99404 C 1023.3989 901.02658 1023.3307 901.04037 1023.0802 901.07021 C 1023.2106 901.21773 1023.3438 901.36266 1023.4748 901.50967 C 1024.8479 901.47762 1025.317 901.49686 1028.0939 901.39053 C 1037.7993 901.01893 1039.8333 901.19426 1040.3126 902.44326 C 1041.6157 905.83896 1038.1458 908.82489 1031.7716 910.14053 C 1034.8761 913.13905 1038.0803 916.03423 1041.3927 918.79678 C 1048.1842 924.58372 1055.3985 929.92238 1063.0333 934.55263 C 1063.064 932.40495 1065.2204 932.45734 1068.7736 935.44717 C 1073.0298 939.02855 1079.8808 941.91188 1083.9513 941.83388 C 1087.4349 941.76688 1087.4317 941.76188 1082.8888 940.50771 C 1076.7382 938.81031 1069.7028 934.56518 1065.9396 930.2792 C 1062.6299 926.5095 1062.411 924.31671 1065.172 922.57803 C 1066.5599 921.70393 1067.5241 922.09648 1070.172 924.61318 C 1074.2341 928.47405 1080.1907 931.476 1085.4513 932.3124 L 1089.4513 932.94717 L 1084.7345 931.05654 C 1074.0329 926.76557 1065.6629 918.2243 1067.9572 913.9374 C 1069.4757 911.10003 1070.6577 911.4192 1075.6505 916.02138 C 1079.8964 919.93515 1085.47 922.99829 1088.1701 922.90029 C 1088.8753 922.87429 1087.3966 921.78114 1084.8849 920.47256 C 1079.1987 917.50976 1072.9513 910.74595 1072.9513 907.55068 C 1072.9513 906.38471 1073.1714 905.58816 1073.5802 905.10732 C 1063.2169 898.32766 1053.8947 889.98099 1045.7912 880.63076 z M 1085.1759 911.80068 C 1087.198 913.29384 1089.1548 914.51812 1090.3009 914.89638 C 1091.2907 915.22305 1092.2013 915.3715 1093.0685 915.43349 C 1090.4094 914.28592 1087.7751 913.08345 1085.1759 911.80068 z M 1134.9748 928.70693 C 1124.7654 938.50288 1117.0095 944.62766 1109.8498 947.92763 L 1109.8498 947.92959 C 1108.1712 948.70317 1106.5151 949.33425 1104.8556 949.8417 C 1104.063 950.08406 1103.2686 950.29489 1102.4708 950.48232 C 1105.1551 951.02728 1107.8625 951.46007 1110.5919 951.75771 C 1115.1848 952.22697 1120.0674 953.18082 1124.4474 951.16592 C 1129.5983 949.13229 1134.5346 946.46469 1138.7013 942.78115 C 1141.7391 940.11204 1147.6678 933.21824 1147.2404 932.23428 C 1146.7492 931.19279 1140.6375 929.92953 1134.9748 928.70693 z " /><path
         id="path480"
         style="fill:#fff28f;fill-opacity:1;stroke-width:0.665904"
         d="M 987.92006 793.03701 C 984.79437 794.08287 981.33463 794.44382 978.55092 796.31435 C 978.38138 796.4656 978.1959 796.6008 978.03335 796.75967 C 975.76854 799.21062 974.94715 802.58335 973.66421 805.58388 C 967.44037 821.95165 965.89532 840.08832 969.57436 857.22842 C 969.9206 858.888 970.32409 860.53461 970.75405 862.17373 C 971.48469 862.42736 972.25811 862.63507 973.10366 862.75771 C 978.84538 863.37535 989.35752 862.61648 998.87905 860.9706 C 998.20223 859.4141 997.54454 857.85053 996.92006 856.27529 C 992.80777 845.85777 989.91693 834.84465 988.46499 823.86904 C 987.63077 817.54559 987.25496 810.99823 987.42202 804.66201 C 987.54702 800.78556 987.75676 796.91195 987.92006 793.03701 z M 1015.5021 889.5331 C 1014.9064 889.67508 1015.0653 889.78767 1015.7638 889.88467 C 1015.6747 889.76898 1015.5908 889.64912 1015.5021 889.5331 z M 1024.9455 900.7831 C 1024.5364 900.83947 1024.0736 900.94787 1023.6779 900.99404 C 1018.5051 901.5974 1019.5764 901.65532 1025.5587 901.45498 C 1025.3569 901.22847 1025.1466 901.01023 1024.9455 900.7831 z M 995.08999 907.65615 C 999.25025 912.49461 1003.7421 917.04781 1008.5587 921.23623 C 1021.4115 932.42693 1036.0399 941.76804 1052.0919 947.64053 C 1060.456 950.80584 1069.0524 953.57915 1077.9826 954.54678 C 1089.312 955.88718 1100.8556 956.21579 1112.1388 954.27724 C 1114.4702 953.98419 1117.0696 953.08638 1119.3634 952.58193 C 1114.9428 951.91004 1109.8813 950.94874 1104.9044 949.82412 C 1104.8881 949.82914 1104.872 949.8367 1104.8556 949.8417 C 1101.535 950.85709 1098.1962 951.37373 1094.6134 951.53115 C 1094.467 951.53715 1094.3353 951.5242 1094.1896 951.5292 C 1092.4837 951.59174 1090.824 951.53053 1089.1935 951.45693 C 1087.8415 951.37229 1086.5265 951.2583 1085.3322 951.09951 C 1085.3222 951.10051 1085.3224 951.10058 1085.3224 951.10146 C 1084.1244 950.94225 1082.7731 950.82177 1081.9513 950.58193 C 1073.0845 947.99426 1067.0614 943.94246 1064.3576 938.74599 C 1062.7822 935.71813 1062.6426 933.80871 1063.5607 933.23037 C 1055.8371 928.56426 1048.5012 923.24518 1041.6212 917.44717 C 1038.7327 915.01636 1036.0176 912.41031 1033.3634 909.74209 C 1031.9179 910.13817 1030.3242 910.45923 1028.5294 910.64443 C 1025.6716 910.93953 1018.1855 910.47909 1011.8927 909.62099 C 1006.2554 908.85228 999.42272 908.07244 995.08999 907.65615 z " /><path
         style="fill:#4b4440;fill-opacity:1;stroke-width:0.665904"
         d="m 983.58075,794.37174 c -2.06908,0.5576 -4.00712,1.66361 -4.14301,1.51119 -0.1359,-0.15237 0.23869,-2.57937 0.66865,-4.44669 3.46405,-15.04495 4.52181,-19.23691 6.07755,-24.08589 0.97752,-3.04675 2.92161,-8.05393 4.32018,-11.12705 2.07597,-4.56154 3.08283,-6.97579 4.24604,-7.16779 0.78367,-0.12933 1.52451,-0.11949 1.64629,0.0219 0.12181,0.14123 -1.12009,4.87023 -2.41959,8.86455 -2.57884,7.92679 -4.60883,18.47074 -5.52356,28.69 -0.32237,3.60148 -0.30689,6.63233 -0.45114,6.68123 -0.14422,0.049 -2.35236,0.50096 -4.42141,1.05856 z"
         id="path482"
         sodipodi:nodetypes="sccssscsscs" /><path
         id="path484"
         style="fill:#262529;fill-opacity:1;stroke-width:0.665904"
         d="m 995.6004,749.7489 c -4.11612,11.4711 -6.74909,23.46592 -8.10557,35.56863 -0.12698,2.53761 -0.31822,5.15713 0.24079,7.66423 0.77961,1.80753 2.80384,1.62872 4.33844,2.39978 5.16691,1.67983 9.64444,4.83852 14.57114,7.0374 0.8874,0.43302 1.9305,0.59486 2.6138,-0.27241 -1.7116,-5.42191 -3.7282,-10.78582 -4.4695,-16.4576 -1.2843,-8.47561 -1.0518,-17.23029 1.2259,-25.52034 0.6887,-2.4354 0.5475,-5.14613 -0.9599,-7.25713 -1.4483,-2.62589 -4.8004,-2.69338 -7.3312,-3.55589 -0.8967,-0.0747 -2.05654,-1.11274 -2.1239,0.39333 z m 151.3428,173.87393 c -1.5564,1.59014 -0.5078,4.01229 -0.2776,5.92035 0.8817,4.06138 0.8821,8.23889 1.6697,12.30186 0.2466,1.14733 1.3179,0.9438 2.1859,0.61583 2.4699,-0.60215 5.3233,-0.83635 7.7496,-1.60171 1.0196,-2.19023 1.3513,-4.66083 1.7798,-7.02805 0.5154,-3.09342 -0.049,-6.90516 -3.0059,-8.60556 -2.5249,-1.47432 -5.9133,-2.14611 -8.7962,-2.12302 -0.4632,0.0659 -0.9477,0.21095 -1.3053,0.5203 z"
         sodipodi:nodetypes="cccccccccccccccccccc" /></g><g
       id="g31128"
       transform="translate(346.53466,318.8788)"><path
         style="fill:#000000;fill-opacity:1"
         d="m 802.76172,535.87893 c -0.52538,0.3699 -1.3007,0.81625 -2.97461,1.5957 -5.47404,2.5488 -14.54895,11.0936 -19.69727,18.54687 -0.86365,1.2503 -2.28391,3.62401 -3.87695,6.44141 -1.59229,2.81676 -3.35777,6.07444 -4.91016,9.09766 -9.1e-4,0.002 -10e-4,0.004 -0.002,0.006 -6.08587,11.85194 -6.39414,12.10601 -15.11133,12.38281 -3.57737,0.1137 -3.70006,0.23613 -3.13086,3.08203 1.4413,7.20637 -2.6645,11.17463 -9.29492,8.98633 -1.8494,-0.6104 -5.78843,-3.32681 -8.7539,-6.03711 -5.73062,-5.2375 -8.59571,-5.67369 -8.59571,-1.30859 0,3.19527 6.24738,9.95907 11.9336,12.92187 2.51177,1.3086 3.99035,2.40173 3.28515,2.42773 -2.70017,0.098 -8.27361,-2.96513 -12.51953,-6.8789 -4.99277,-4.6022 -6.17492,-4.92136 -7.69336,-2.08399 -2.2943,4.2869 6.07576,12.82817 16.77735,17.11914 l 4.71679,1.89063 -4,-0.63477 c -5.26057,-0.8364 -11.21712,-3.83834 -15.27929,-7.69921 -2.6479,-2.5167 -3.61203,-2.90926 -5,-2.03516 -2.761,1.7387 -2.5422,3.93147 0.76757,7.70117 3.76314,4.286 10.79865,8.53112 16.94922,10.22852 4.54292,1.25417 4.54614,1.25917 1.0625,1.32617 -4.07047,0.078 -10.92156,-2.80532 -15.17773,-6.38672 -5.16272,-4.3442 -7.48809,-2.60577 -4.41602,3.29883 2.70374,5.19647 8.72696,9.24826 17.59375,11.83593 0.82186,0.23984 2.17312,0.36033 3.3711,0.51954 0.002,-8.8e-4 0.004,-10e-4 0.006,-0.002 1.19429,0.15879 2.50937,0.27278 3.86132,0.35742 1.63047,0.0736 3.2902,0.13484 4.9961,0.0723 0.14567,-0.005 0.27741,0.008 0.42383,0.002 3.58282,-0.15742 6.92155,-0.67406 10.24218,-1.68945 1.65955,-0.50745 3.31548,-1.13853 4.99414,-1.91211 l 0.002,-0.002 c 8.39746,-3.8704 17.38729,-11.28741 30.5,-24.41211 5.27814,-5.28297 10.19922,-10.44644 14.71093,-15.42774 v -0.002 c 3.85902,-4.26066 7.25667,-8.3041 10.48438,-12.25586 0.54623,-0.66881 1.24638,-1.41562 1.77344,-2.07422 1.82038,-2.2745 3.52604,-4.48666 5.10937,-6.6289 v -0.002 c 1.58325,-2.14216 3.04569,-4.21334 4.37891,-6.20703 v -0.002 c 1.33344,-1.99408 2.53711,-3.90901 3.60742,-5.73828 1.07031,-1.82934 2.00661,-3.57054 2.80078,-5.21875 v -0.002 c 0.29584,-0.61395 0.47681,-1.08929 0.72266,-1.63671 0.31139,-0.69353 0.67323,-1.44334 0.91406,-2.07422 0.97525,-2.55482 1.36037,-5.235 1.63086,-8.8086 z"
         id="path11975" /><path
         style="fill:#000000;fill-opacity:1"
         d="m 549.69531,510.04494 c -0.002,0.009 -0.004,0.0183 -0.006,0.0274 -2.3e-4,10e-4 2.4e-4,0.003 0,0.004 -0.5437,2.80236 -0.99403,5.4968 -1.33789,8.03906 -1.6e-4,10e-4 1.7e-4,0.003 0,0.004 -0.34372,2.54194 -0.58148,4.93229 -0.70117,7.12891 -0.14687,2.69522 -0.13857,5.00188 0.082,7.0625 1.8e-4,0.002 -1.8e-4,0.004 0,0.006 0.11029,1.02806 0.27455,1.99533 0.49805,2.91797 2.9e-4,10e-4 -2.9e-4,0.003 0,0.004 0.2238,0.92309 0.50775,1.80168 0.85937,2.6543 1.40835,3.41498 3.90021,6.40603 7.93946,10.09765 11.74914,10.73809 34.58528,23.1106 55.82617,31.37305 12.74456,4.95715 24.91522,8.43481 33.77148,9.19336 0.33817,0.029 1.18295,0.14598 1.58008,0.18359 4.31073,0.40841 11.38835,1.21624 17.15039,2.00196 6.29282,0.8581 13.77892,1.31853 16.63672,1.02343 8.41239,-0.86807 13.2937,-4.26497 11.7832,-8.20117 -0.4793,-1.249 -2.51336,-1.42433 -12.21875,-1.05273 -9.85809,0.3775 -10.53463,0.31721 -4.41601,-0.39649 8.26991,-0.96477 19.71311,-4.23324 23.02148,-6.57421 2.64254,-1.8698 3.01352,-6.25063 0.60742,-7.17383 -0.90357,-0.3467 -5.51616,0.11489 -10.25,1.02539 -9.25769,1.781 -14.2963,2.20008 -20.60742,1.70898 -2.83897,-0.221 -1.58712,-0.54388 4.3086,-1.11328 15.58906,-1.5056 29.07586,-8.06548 28.01562,-13.62695 -0.5203,-2.7289 -3.99683,-2.68828 -11.82812,0.13672 -3.90458,1.4084 -9.66336,2.80873 -12.79688,3.11133 -3.1337,0.30247 -7.03517,0.76033 -8.66797,1.01953 -5.71677,0.9073 -1.039,-1.30856 6.46875,-3.06446 16.06701,-3.75747 27.23105,-12.8076 20.79688,-16.85937 -1.32578,-0.8348 -3.09953,-0.38108 -8,2.04492 -7.36632,3.6466 -15.89925,6.3125 -20.19922,6.3125 -2.60382,0 -2.03937,-0.47943 3.93164,-3.3457 9.32789,-4.4776 13.4707,-8.05647 13.4707,-11.63477 0,-4.38007 -2.47572,-4.41192 -9.82617,-0.12305 -3.66974,2.141 -8.9239,4.60436 -11.67383,5.47266 -10.79874,3.4098 -29.06174,5.33837 -37.3457,4.44727 -3.58998,-0.5207 -6.05519,-2.3556 -8.15234,-4.3711 -1.05527,-1.0158 -2.49109,-2.44318 -4.03516,-4.01758 -4.07482,-4.15498 -8.28684,-7.78486 -12.37109,-10.77734 -1.79179,-1.31276 -3.55738,-2.49651 -5.27539,-3.54101 -0.11015,-0.0668 -0.21448,-0.11797 -0.32422,-0.1836 -1.47489,-0.88425 -2.90147,-1.63816 -4.28711,-2.30078 -0.40734,-0.19391 -0.80519,-0.36737 -1.20313,-0.54102 -1.08628,-0.4762 -2.12704,-0.86125 -3.13281,-1.17968 -0.40694,-0.12806 -0.8248,-0.27772 -1.2168,-0.37891 -1.27329,-0.33055 -2.48564,-0.55323 -3.57812,-0.58398 -0.0243,-6.9e-4 -0.054,-0.009 -0.0781,-0.01 -1.96851,-0.0437 -2.94454,-0.0714 -3.08984,-0.21484 -0.099,-0.0905 0.17607,-0.23709 0.72266,-0.45508 -2.57385,-0.57566 -3.56513,-0.83247 -7.14258,-1.375 -4.60646,-0.69858 -9.25931,-1.2758 -13.89063,-1.78711 -1.71806,-0.18968 -3.3096,-0.25782 -5.01758,-0.56836 -1.653,-0.30055 -3.2243,-0.9778 -4.80078,-1.54883 z"
         id="path11973" /></g></g></svg>
