<?xml version="1.0" encoding="UTF-8" standalone="no"?>
<!-- Created with Inkscape (http://www.inkscape.org/) -->

<svg
   width="170.70862mm"
   height="155.58423mm"
   viewBox="0 0 170.70862 155.58423"
   version="1.1"
   id="svg2674"
   inkscape:version="1.2.2 (b0a8486541, 2022-12-01)"
   sodipodi:docname="banana_voting.svg"
   xmlns:inkscape="http://www.inkscape.org/namespaces/inkscape"
   xmlns:sodipodi="http://sodipodi.sourceforge.net/DTD/sodipodi-0.dtd"
   xmlns="http://www.w3.org/2000/svg"
   xmlns:svg="http://www.w3.org/2000/svg">
  <sodipodi:namedview
     id="namedview2676"
     pagecolor="#ffffff"
     bordercolor="#000000"
     borderopacity="0.25"
     inkscape:showpageshadow="2"
     inkscape:pageopacity="0.0"
     inkscape:pagecheckerboard="0"
     inkscape:deskcolor="#d1d1d1"
     inkscape:document-units="mm"
     showgrid="false"
     inkscape:zoom="0.2102413"
     inkscape:cx="-76.103029"
     inkscape:cy="337.70719"
     inkscape:window-width="956"
     inkscape:window-height="1027"
     inkscape:window-x="960"
     inkscape:window-y="147"
     inkscape:window-maximized="1"
     inkscape:current-layer="layer1" />
  <defs
     id="defs2671" />
  <g
     inkscape:label="Ebene 1"
     inkscape:groupmode="layer"
     id="layer1"
     transform="translate(-31.683834,-59.381618)">
    <g
       id="g2054"
       transform="matrix(0.26458333,0,0,0.26458333,-139.17024,-54.51257)">
      <g
         id="g31124"
         transform="translate(346.53472,283.84762)">
        <path
           style="fill:#e6e6e6"
           d="m 796.72962,384.7767 c 6.9812,-3.6814 14.0493,-11.2147 17.564,-18.7198 2.2214,-4.7436 2.579,-6.8754 2.5996,-15.5 0.021,-8.9531 -0.2799,-10.6578 -2.8771,-16.2821 -3.7229,-8.0619 -12.2799,-16.2065 -20.102,-19.1332 -8.2482,-3.086 -8.2449,-3.0879 -7.2036,4.1653 0.4935,3.4375 1.0717,7.1975 1.2848,8.3557 0.2131,1.1582 2.1406,3.266 4.2834,4.684 7.4513,4.9311 10.9094,16.8621 7.6935,26.5442 -2.034,6.1239 -4.6045,9.5408 -9.504,12.6338 -3.5434,2.2368 -3.7406,2.658 -4.6674,9.9676 l -0.9676,7.6322 3.0419,-0.6413 c 1.6731,-0.3527 5.6576,-2.0206 8.8545,-3.7064 z"
           id="path479" />
        <path
           style="fill:#e6e6e6"
           d="m 605.40842,386.3069 c -0.021,-6.625 -1.3189,-13.25 -2.5958,-13.25 -2.1744,0 -8.3675,-6.0246 -10.5097,-10.2238 -2.6707,-5.2351 -3.4501,-12.6891 -1.9041,-18.211 1.4714,-5.2554 6.7176,-11.7839 10.8424,-13.4924 2.6228,-1.0864 2.965,-1.7812 3.5275,-7.1634 0.3427,-3.2781 0.9025,-7.0738 1.2441,-8.4348 0.5466,-2.1778 0.2953,-2.4746 -2.0944,-2.4746 -5.1294,0 -14.9692,5.6578 -20.8083,11.9648 -8.5971,9.2859 -12.0786,21.0116 -9.6836,32.6149 2.865,13.8801 11.3045,23.9319 24.6344,29.3407 6.5183,2.6449 7.3577,2.5683 7.3475,-0.6704 z"
           id="path477" />
        <path
           style="fill:#ffffff"
           d="m 664.95162,388.1802 c 4.4501,-2.0214 14.436,-12.4341 16.8959,-17.618 4.8201,-10.1577 -1.6448,-21.9862 -12.6976,-23.232 -5.6323,-0.6348 -10.9109,1.0661 -15.3186,4.9361 l -3.4143,2.9977 v -3.4687 c 0,-4.4123 3.1263,-8.4372 8.4214,-10.8421 7.565,-3.4359 14.2069,-2.1201 24.3378,4.8214 5.0388,3.4526 7.9411,4.7347 11.4945,5.0781 4.3959,0.4247 5.3166,0.079 12.2313,-4.5924 12.4955,-8.4416 22.1203,-9.2652 29.5747,-2.5306 3.1094,2.8092 3.9403,4.2734 3.9403,6.9435 0,1.861 -0.2513,3.3837 -0.5586,3.3837 -0.3072,0 -2.3438,-1.4347 -4.5257,-3.1881 -3.2122,-2.5814 -5.0564,-3.2553 -9.6914,-3.5414 -7.5403,-0.4654 -12.7689,2.3818 -16.0386,8.7336 -4.086,7.9375 -1.1718,17.1451 8.1443,25.7323 9.4945,8.7518 17.7694,10.4989 25.7243,5.4315 10.6617,-6.7917 17.0163,-17.6741 17.7532,-30.4025 0.7732,-13.3571 -3.0335,-21.5852 -13.0553,-28.2185 -13.2767,-8.7877 -36.7508,-9.1257 -48.3865,-0.6969 l -4.0068,2.9025 -3.91,-2.9154 c -6.1188,-4.5623 -13.0497,-6.1276 -24.8284,-5.6075 -16.8803,0.7453 -27.5019,6.2768 -33.1101,17.2426 -2.7087,5.2964 -3.006,6.7954 -2.967,14.957 0.055,11.4717 2.5851,18.3618 9.5361,25.9673 8.3214,9.1049 16.0474,11.546 24.4551,7.7268 z"
           id="path471" />
        <path
           style="fill:#ffffff"
           d="m 706.80662,475.6543 c 4.0219,-2.6859 6.1984,-3.3578 5.0954,-1.573 -0.3482,0.5634 -0.3309,2.4004 0.038,4.0822 l 0.6716,3.0578 8.1525,-7.8702 c 4.4838,-4.3286 11.2617,-10.3114 15.0619,-13.2952 8.9093,-6.9952 13.9344,-14.6631 16.1573,-24.6546 3.9716,-17.8516 -3.372,-31.8123 -20.9468,-39.8214 -3.9733,-1.8107 -11.4758,-6.1898 -16.6721,-9.7314 -9.7601,-6.652 -14.3673,-8.7987 -18.8471,-8.7819 -3.595,0.014 -10.9127,3.6054 -21.999,10.7983 -5.1691,3.3538 -11.6941,6.9004 -14.5,7.8814 -3.6496,1.276 -6.9687,3.6377 -11.6607,8.2972 -8.1474,8.0908 -10.4732,14.1777 -9.6917,25.3648 0.9642,13.8022 5.9956,22.1736 20.0815,33.4125 3.8564,3.077 10.0268,8.4389 13.712,11.9153 3.6852,3.4764 6.9831,6.3208 7.3288,6.3208 0.3456,0 0.6284,-1.8116 0.6284,-4.0257 v -4.0257 l 3.25,1.6573 c 1.7875,0.9115 5.4258,3.6769 8.0851,6.1454 l 4.8352,4.4882 3.6648,-3.5223 c 2.0157,-1.9373 5.4152,-4.6912 7.5544,-6.1198 z"
           id="path463" />
      </g>
      <path
         id="path303"
         style="fill:#000000"
         d="m 1047.668,526.06377 v 0.002 c -1.3475,0.0113 -3.8655,0.48168 -7.8789,1.25391 -6.1304,1.17947 -11.8918,3.04359 -17.2383,5.46679 -0.8392,0.38047 -1.6946,0.73874 -2.5117,1.14844 v 0.002 c -0.6802,0.34115 -1.3239,0.72868 -1.9883,1.08985 -1.7612,0.95713 -3.4672,1.97931 -5.1113,3.07422 -0.4806,0.32015 -0.9849,0.6136 -1.4551,0.94531 v 0.002 c -0.315,0.22221 -0.6039,0.47187 -0.9141,0.69922 -2.3352,1.71124 -4.5575,3.54195 -6.6074,5.53711 -1.3776,1.34088 -2.6311,2.4857 -3.5391,3.25 -0.90573,0.76289 -1.46872,1.14793 -1.46872,0.9668 v -0.002 c 6.4e-4,-0.48566 1.22642,-3.10491 2.79292,-6.14257 v -0.002 c 1.5676,-3.03936 3.4749,-6.49985 4.8399,-8.66211 1.2998,-2.05902 2.3633,-4.00246 2.3633,-4.31836 0,-0.0789 -0.6969,0.23154 -1.0645,0.35547 -0.3681,0.12431 -0.4067,0.0619 -1.0625,0.35352 v 0.002 c -0.045,0.0201 -0.1295,0.0652 -0.1758,0.0859 -1.3016,0.58409 -3.018,1.41844 -4.9433,2.42773 -4.32266,2.26568 -8.406,5.29971 -12.07229,8.81836 -0.13519,0.12977 -0.28397,0.24192 -0.41797,0.37305 -2.51106,2.45741 -4.8135,5.15174 -6.83593,8.00195 l -0.002,0.002 c -3.03384,4.27595 -5.44029,8.90507 -6.98828,13.61328 -0.14267,0.43384 -0.26728,0.74387 -0.39062,0.91992 -0.12219,0.17566 -0.24379,0.21598 -0.38282,0.11133 -0.28003,-0.21079 -0.62998,-1.01639 -1.19726,-2.53125 -0.7208,-1.92498 -1.34472,-4.51254 -1.38672,-5.75 -0.0418,-1.2375 -0.46927,-2.25 -0.95117,-2.25 -0.17645,0 -0.42836,0.20167 -0.74024,0.56836 -0.31266,0.36784 -0.68525,0.90243 -1.10156,1.57226 -2.49718,4.01769 -6.57087,12.88052 -8.73828,19.47461 l -2.66602,8.11328 h -0.002 l -5.82812,0.60938 c -11.25601,1.17647 -22.42897,7.10673 -30.60352,15.48828 -4.90427,5.02881 -8.72913,10.94089 -10.8457,17.23828 -1.78995,5.32559 -2.65752,13.37257 -2.34961,20.09766 0.10282,2.24142 0.33568,4.3366 0.70898,6.13476 0.98497,4.74453 2.75205,9.31446 5.14844,13.5586 4.79286,8.48752 12.10124,15.67398 20.69336,20.3457 h 0.002 c 2.14767,1.16757 4.37537,2.17901 6.66406,3.01367 h 0.002 c 2.28896,0.83456 4.63945,1.49317 7.03125,1.95703 h 0.002 c 5.87095,1.13862 8.23881,2.37533 7.26563,4.46875 -0.19436,0.4181 -0.52067,0.87088 -0.98047,1.36328 -0.92028,0.98579 -2.37072,2.13236 -4.33985,3.48828 -1.19361,0.82204 -2.42256,1.82633 -3.65234,2.8418 -0.35069,0.2896 -0.68802,0.50608 -1.04102,0.81055 l -0.002,0.002 c -0.0915,0.0789 -0.18572,0.18183 -0.27734,0.26172 -1.502,1.30973 -3.02021,2.72836 -4.54883,4.28711 -0.84789,0.86454 -1.69992,1.85678 -2.55078,2.79102 -0.77712,0.853 -1.55347,1.64134 -2.33008,2.54882 v 0.002 c -1.62657,1.90048 -3.24855,3.91644 -4.85352,6.02929 -0.45314,0.59667 -0.89171,1.25535 -1.34179,1.86719 -1.14444,1.55558 -2.29224,3.10522 -3.41016,4.75 v 0.002 c -1.5572,2.29113 -3.0851,4.6611 -4.56836,7.09571 v 0.002 c -2.96663,4.86987 -5.75946,9.99159 -8.27344,15.22852 v 0.002 c -3.70496,7.71846 -7.21884,16.76482 -10.21484,25.98242 -0.99824,3.07133 -1.94147,6.1614 -2.8125,9.22852 -3.4e-4,0.001 3.3e-4,0.005 0,0.006 -0.87097,3.06678 -1.67304,6.11036 -2.39258,9.08789 -2.9e-4,0.001 2.9e-4,0.003 0,0.004 -0.71946,2.97739 -1.35852,5.88882 -1.90234,8.69141 -2.3e-4,10e-4 2.4e-4,0.003 0,0.004 -0.5437,2.80209 -0.99403,5.49678 -1.33789,8.03906 -1.6e-4,0.001 1.7e-4,0.003 0,0.004 -0.34372,2.54194 -0.58148,4.93229 -0.70117,7.12891 -0.6268,9.82748 2.71649,28.07776 17.97656,29.45508 15.26006,1.37733 29.31288,-18.35157 38,-36.00391 0.0207,-0.0507 0.0371,-0.10215 0.0527,-0.15429 l 1.50586,-2.42383 c 1.6673,-2.68184 3.25299,-6.67879 4.03906,-8.67188 0.97375,-2.29 1.96133,-6.20435 2.39063,-7.68554 0.42924,-1.4812 2.64852,-10.45916 2.86133,-10.88086 0.21281,-0.4217 0.89253,-3.89393 1.86328,-8.01172 0.97079,-4.11754 2.54335,-7.22022 2.75195,-7.01172 0.2085,0.2086 -0.40673,4.12739 -1.21484,8.73633 l -1.80469,10.29687 c -0.31928,2.1001 -1.43575,6.09266 -2.24219,9.78125 -3.63195,22.07385 -6.35813,43.61702 -4.85156,63.88281 -1.99141,0.63258 -4.05129,2.43572 -4.02539,2.47461 -1.89711,-3.29404 -4.55273,-6.17258 -7.4375,-8.35742 -3.39128,-2.56847 -7.09744,-4.17618 -10.25195,-4.37109 -8.78967,-0.34324 -14.58028,7.83865 -17.00586,14.50976 v 0.004 c -1.20316,3.51647 -2.23177,6.96257 -2.75781,10.59766 -2.1847,15.42614 2.48376,29.92767 15.98437,49.65039 10.21341,14.92053 21.07598,26.08388 40.17188,41.27929 7.70975,6.13504 10.22742,8.70424 9.70312,11.46289 -0.0871,0.45824 -0.25677,0.92232 -0.50195,1.40821 -7.1e-4,10e-4 -7.5e-4,0.002 -0.002,0.004 -0.24565,0.48624 -0.56506,0.99452 -0.94921,1.54297 -9.3e-4,10e-4 -7.5e-4,0.005 -0.002,0.006 -0.002,0.002 -0.008,0.006 -0.01,0.008 -0.41627,0.58655 -1.37178,1.30783 -2.58594,2 -10e-4,7.9e-4 -0.003,7.4e-4 -0.004,0.002 l -0.002,0.002 c -1.22344,0.69708 -2.70487,1.36579 -4.14844,1.83398 -4.4235,1.4346 -8.40256,3.21897 -11.80859,5.22071 -7.2e-4,4.3e-4 -0.003,0.002 -0.004,0.002 -1.70239,1.00076 -3.26133,2.05458 -4.66211,3.14643 h -0.002 c -2.80219,2.1838 -4.96943,4.514 -6.375,6.8574 -0.70238,1.1713 -1.2154,2.3456 -1.52148,3.5059 -0.30596,1.1602 -0.40693,2.3068 -0.28516,3.422 0.0611,0.5573 0.17774,1.1047 0.35156,1.6445 0.17401,0.5402 0.40632,1.0715 0.69727,1.5897 1.63957,2.92116 3.09825,3.20456 4.95117,0.60746 0.61672,-0.86466 1.27873,-2.05036 2.00391,-3.56246 8.7e-4,0 7e-4,2e-4 0.002,-0.01 3.1639,-6.5995 8.69794,-11.8409 16.84375,-15.95308 4.12093,-2.08025 6.37896,-3.02339 6.61328,-2.91211 0.23521,0.11006 -1.54018,1.27133 -5.50586,3.4082 -4.65829,2.50979 -8.30566,5.11789 -11.01953,7.93159 -1.80882,1.8761 -3.20349,3.844 -4.20508,5.9355 -0.50033,1.0455 -0.90182,2.1213 -1.20898,3.2325 -0.057,0.2062 -0.0687,0.43 -0.11914,0.6386 -0.49341,2.04086 -0.71862,4.18266 -0.60547,6.48246 0.1281,2.6054 3.41311,6.2501 5.63281,6.2501 0.41717,0 0.80254,-0.1453 1.17383,-0.461 0.23084,-0.1964 0.45204,-0.5887 0.67383,-0.9239 0.1346,-0.2038 0.27496,-0.3037 0.4082,-0.5625 0.35258,-0.6844 0.70045,-1.5691 1.0625,-2.6757 3.7e-4,0 0.004,0 0.004,0 0.36226,-1.1079 0.73535,-2.441 1.13476,-4.0255 h 0.002 c 0.16214,-0.6434 0.41104,-1.3299 0.73438,-2.0429 h 0.002 c 0.0424,-0.093 0.10941,-0.1948 0.1543,-0.2891 0.29863,-0.6267 0.62904,-1.26576 1.0293,-1.92186 0.92063,-1.5095 2.08933,-3.0717 3.40234,-4.5703 1.31438,-1.4998 2.7736,-2.9363 4.27734,-4.1934 h 0.002 c 1.5036,-1.2565 3.05154,-2.3341 4.54101,-3.1152 1.33815,-0.7018 2.1782,-1.0916 2.50586,-1.1738 0.3377,-0.089 0.15848,0.1325 -0.58789,0.6777 -4.65345,3.3989 -8.16478,6.7616 -10.51172,10.0645 h -0.002 c -0.58609,0.8255 -1.10055,1.6474 -1.54102,2.4648 -0.43988,0.8165 -0.80755,1.62796 -1.10156,2.43556 h -0.002 c -0.58797,1.6164 -0.88281,3.2153 -0.88281,4.791 0,4.6441 2.24842,8.5254 4.93554,8.5254 0.60055,0 1.12913,-0.1016 1.60352,-0.3321 0.47362,-0.2301 0.89302,-0.5887 1.27929,-1.0996 h 0.002 c 0.38675,-0.5119 0.73984,-1.1769 1.07812,-2.0215 0.1588,-0.3966 0.31046,-0.9767 0.46485,-1.455 0.17442,-0.5405 0.35113,-0.9906 0.52539,-1.6426 h 0.002 c 0.28204,-1.0552 0.67192,-2.1277 1.15234,-3.1992 h 0.002 c 0.057,-0.127 0.14166,-0.2519 0.20117,-0.3789 0.44312,-0.9451 0.92922,-1.8905 1.5,-2.8203 0.64717,-1.0545 1.36952,-2.09256 2.15039,-3.09576 h 0.002 c 0.78065,-1.0026 1.62014,-1.9708 2.50196,-2.8886 2.64841,-2.7565 5.67987,-5.0527 8.65625,-6.4336 h 0.002 c 0.992,-0.46 1.97802,-0.819 2.94141,-1.0586 0.85804,-0.2134 1.18337,-0.2042 0.96875,0.035 -0.21332,0.2397 -0.96654,0.7124 -2.26954,1.4258 -2.53984,1.3913 -5.42737,3.7339 -7.89648,6.25 -2.46912,2.5161 -4.52013,5.20566 -5.39063,7.28906 -0.52632,1.2611 -0.90462,2.5815 -1.13476,3.8906 -0.0163,0.093 -0.003,0.1787 -0.0176,0.2716 -0.61325,3.832 9.1e-4,7.5362 1.81445,9.3496 1.8413,1.8413 2.30849,1.9161 4.17969,0.6738 0.2868,-0.1904 0.61142,-0.5249 0.95313,-0.9609 0.003,0 0.006,-0.01 0.01,-0.01 0.34506,-0.442 0.70684,-0.9902 1.06446,-1.6075 h 0.002 c 0.71553,-1.2353 1.41314,-2.748 1.91992,-4.2383 h 0.002 c 0.50695,-1.4917 1.24902,-3.1297 2.03516,-4.5663 0.78614,-1.4368 1.61634,-2.672 2.30273,-3.3595 2.2664,-2.2699 3.48379,-2.5506 13.22657,-3.03706 12.6819,-0.6333 17.1587,-2.3884 21.0352,-8.2461 0.9458,-1.4292 1.6327,-2.8561 2.0527,-4.4296 0.2096,-0.7858 0.3545,-1.6114 0.4297,-2.4864 0.075,-0.876 0.082,-1.8039 0.019,-2.80461 v -0.002 c -0.062,-1.0004 -0.1937,-2.07378 -0.3945,-3.23438 -2e-4,-9.9e-4 2e-4,-0.003 0,-0.004 -0.201,-1.16105 -0.4724,-2.41076 -0.8145,-3.76758 -3e-4,-10e-4 2e-4,-0.003 0,-0.004 -0.685,-2.71573 -1.6563,-5.85932 -2.9199,-9.57226 -1.1493,-3.37704 -2.3808,-6.75906 -3.6895,-10.13477 v -0.002 c -1.3084,-3.37513 -2.6943,-6.74617 -4.1543,-10.10547 v -0.006 c -12.7094,-24.32129 -19.0859,-37.24804 -19.0859,-37.24805 l 1.6543,-2.73632 c 0,0 9.6936,15.62148 18.3106,34.24609 v 0.008 c 3.3625,7.35514 6.3418,14.65151 8.7558,21.5625 l 3.668,10.5 8.4375,1.78321 c 6.5815,1.39059 11.6241,1.69495 22.9355,1.37695 17.8053,-0.5005 27.1589,-2.98187 43.4961,-11.53711 l 10.9942,-5.75977 0.7422,-5.83984 0.455,-3.58594 c 2e-4,-0.002 -2e-4,-0.01 0,-0.0117 0.3286,-2.59257 0.8572,-5.624 1.4434,-8.41992 3e-4,-10e-4 -3e-4,-0.002 0,-0.004 0.5863,-2.79525 1.2319,-5.35382 1.793,-7.00391 3e-4,-8.6e-4 -3e-4,-0.005 0,-0.006 0.5611,-1.64917 1.0209,-2.80942 1.3105,-3.35352 4e-4,-6.1e-4 -5e-4,-0.003 0,-0.004 0.1456,-0.27341 0.2485,-0.38819 0.2988,-0.33203 0.05,0.0555 0.049,0.27733 -0.012,0.6875 -4e-4,0.002 3e-4,0.004 0,0.006 -0.8523,5.7633 -1.4592,10.56668 -1.8047,14.625 -10e-5,10e-4 10e-5,0.005 0,0.006 -0.3453,4.05744 -0.4295,7.3707 -0.2383,10.15625 10e-5,0.001 -10e-5,0.003 0,0.004 0.096,1.39172 0.259,2.65323 0.4942,3.8086 2e-4,10e-4 -3e-4,0.009 0,0.01 0.7064,3.46748 2.0515,5.9922 4.082,8.30469 4.4371,5.05344 9.9037,6.90936 19.4453,6.60156 15.6662,-0.5056 15.301,-0.54598 18.0684,2.03711 1.4448,1.34878 3.5359,4.2512 4.6465,6.45117 1.1105,2.20005 2.7252,4.80225 3.5898,5.78515 1.5336,1.7434 3.1682,1.9034 4.6426,0.5332 0.4907,-0.4567 0.9646,-1.0857 1.4102,-1.8789 0.4212,-0.7503 0.6876,-1.582 0.8144,-2.4707 0.8858,-6.23148 -5.1502,-15.31997 -13.7148,-19.70898 -3.0517,-1.56397 -4.2379,-2.51459 -3.8829,-2.69336 0.3466,-0.18474 2.2414,0.4023 5.3848,1.92383 5.4664,2.64629 10.9253,8.39323 14.2852,15.04297 2.8121,5.56574 5.2092,7.08094 7.7988,4.93164 0.458,-0.3801 0.804,-1.00893 1.0371,-1.80469 0.6995,-2.39424 0.38,-6.2901 -0.9707,-9.43164 -1.7252,-4.01228 -7.7074,-9.7836 -13.6172,-13.13867 -2.8609,-1.62398 -3.9685,-2.46192 -3.582,-2.49414 0.3677,-0.0428 2.2339,0.72149 5.3672,2.32617 6.4343,3.29548 12.7208,10.06564 14.9336,16.08398 1.9261,5.23838 4.4327,6.77624 6.8242,4.34375 10e-4,-0.001 0,-0.009 0,-0.01 0.341,-0.3475 0.6794,-0.77543 1.0137,-1.28516 8e-4,-0.001 0,-0.003 0,-0.004 0.4222,-0.64437 0.7156,-1.36751 0.8925,-2.15039 1.2373,-5.48653 -3.3363,-13.91628 -10.7343,-18.89843 -2.1521,-1.44928 -3.7252,-2.6978 -4.1172,-3.22657 -0.132,-0.17517 -0.1331,-0.26873 0.012,-0.27148 v -0.004 c 1.6335,0 8.6156,5.29556 11.4961,8.71875 1.3958,1.6588 3.1222,4.42536 3.8359,6.14844 1.2902,3.1143 3.3357,3.68443 4.6856,2.26563 0.1299,-0.1365 0.228,-0.34867 0.3437,-0.52149 0.1242,-0.1857 0.2645,-0.33419 0.3692,-0.56055 0.1066,-0.23036 0.1688,-0.53545 0.2519,-0.80664 0.075,-0.2447 0.1752,-0.45348 0.2285,-0.73047 3e-4,-7.3e-4 -2e-4,-0.005 0,-0.006 0.1122,-0.58322 0.1729,-1.23735 0.1719,-1.95704 v -0.004 c -10e-4,-0.94714 -0.1183,-1.87452 -0.3477,-2.7793 -0.2274,-0.90593 -0.5744,-1.79048 -1.0292,-2.65039 v -0.002 c -2.7297,-5.15886 -9.4666,-9.45506 -19.754,-12.50586 -13.3587,-3.9626 -14.6214,-4.52807 -17.3867,-7.81446 -2.3545,-2.79798 -3.0443,-5.54713 -1.8164,-10.45507 5e-4,-0.002 0,-0.004 0,-0.006 0.2453,-0.9805 0.5665,-2.04636 0.9668,-3.2168 4e-4,-10e-4 0,-0.003 0,-0.004 0.8015,-2.34255 1.9188,-5.10298 3.3653,-8.41796 9e-4,-0.002 10e-4,-0.004 0,-0.006 0.8472,-1.94165 1.4746,-3.49592 2.1757,-5.18555 0.4372,-1.05373 1.0075,-2.35599 1.3555,-3.23047 0.9054,-2.2743 1.4657,-3.83534 1.4668,-4.14062 v -0.004 c 0,-0.60583 1.07,-4.82006 2.377,-9.36328 3e-4,-10e-4 0,-0.003 0,-0.004 0.8171,-2.8405 1.5366,-5.80585 2.1464,-8.77734 0.61,-2.97272 1.109,-5.95134 1.4805,-8.81641 0.7431,-5.72986 0.9784,-11.00655 0.582,-14.875 -0.647,-6.31442 -3.1511,-14.29297 -4.4863,-14.29297 -0.1886,0.002 -1.3071,1.20775 -2.959,3.1543 -0.3845,0.45307 -0.9943,1.2365 -1.4316,1.76367 -1.4432,1.73991 -2.9479,3.55867 -4.7305,5.82813 -10e-4,10e-4 -9e-4,0.003 0,0.004 -1.4395,1.83255 -3.1684,3.9043 -5.1094,6.13867 0,10e-4 -9e-4,0.003 0,0.004 -1.9413,2.23499 -4.0949,4.63094 -6.3828,7.11328 -10e-4,10e-4 0,0.002 0,0.004 -4.5768,4.96549 -9.6917,10.27255 -14.7246,15.29883 v 0.002 c -10.0684,10.05488 -19.8092,18.99327 -24.2558,21.85352 -3.0836,1.98319 -5.6577,3.54804 -7.9825,4.79101 -2.2636,1.21022 -4.2893,2.1082 -6.3027,2.76953 -4.1174,1.35257 -8.1972,1.72311 -14.2148,1.74219 -3.0565,0.01 -5.1615,-0.0538 -6.9844,-0.17578 -0.2365,-0.0171 -0.5135,-0.046 -0.7363,-0.0664 -3.2364,-0.28501 -5.2849,-0.89915 -8.3653,-2.34375 -7.5531,-3.54172 -12.7249,-8.84653 -13.5293,-13.87695 -0.2016,-1.2611 -0.4355,-2.08401 -0.5918,-3.44141 -0.1562,-1.3573 -0.5391,-2.94621 -1.2871,-4.57031 -0.748,-1.6242 -1.1985,-3.16564 -1.1836,-4.71484 0,-2.9621 2.2483,-5.47275 4.8594,-6.59375 -0.5972,-1.66 -0.7724,-3.50471 -0.2422,-5.20703 0.7301,-2.378 2.496,-4.74616 5.082,-5.19336 -0.1144,-1.6516 0.1076,-3.49215 1.0118,-4.96485 1.2149,-2.2755 4.1193,-3.14428 6.5136,-2.45898 3.9149,1.2097 6.724,4.36793 9.8243,6.86523 1.9362,1.3905 3.7983,3.0949 6.166,3.6875 1.0602,0.2362 2.6728,0.33044 3.0957,-0.94336 0.782,-2.03182 -0.2034,-4.13587 -0.2461,-6.20117 0,-2.5619 1.5249,-4.6949 4.1738,-4.8457 l 4.7148,-0.24414 1.0391,-0.0547 c -10e-5,-0.002 10e-5,-0.004 0,-0.006 l 5.2559,-0.27148 4.7597,-10.23438 c 2.4651,-5.29897 6.3872,-11.81801 10.25,-17.37891 9e-4,-7.3e-4 10e-4,-0.003 0,-0.004 2.8965,-4.1696 5.7604,-7.7985 7.9532,-9.9707 0.7321,-0.72531 1.3884,-1.29014 1.9472,-1.65625 l 2.5528,-1.67383 -2.9727,-3.71094 c -3.0751,-3.83924 -6.3209,-10.98675 -8.9961,-19.15234 -1.3046,-3.98226 -2.4695,-8.20718 -3.4141,-12.41211 -0.9713,-4.33627 -1.7175,-8.64826 -2.121,-12.65039 -0.1571,-1.55809 -0.189,-2.3503 -0.062,-2.32422 0.2056,0.0674 0.8355,2.4083 1.9746,7.16406 0.019,0.0804 0.014,0.0393 0.033,0.12109 4.2484,17.76961 7.8845,27.34913 14.2773,37.61524 l 2.541,4.08008 3.6016,-1.28711 c 1.981,-0.708 4.7266,-1.30132 6.1016,-1.32032 0.4825,-0.007 0.7932,0.0271 0.9375,0.10743 0.1398,0.0779 0.1229,0.19939 -0.076,0.3789 -0.3988,0.36397 -1.5261,0.95841 -3.4903,1.87305 -5.4714,2.5488 -14.5489,11.09385 -19.6972,18.54687 -0.8637,1.2503 -2.2839,3.62401 -3.877,6.44141 -1.5923,2.81676 -3.3577,6.07444 -4.9101,9.09766 -9e-4,0.002 -10e-4,0.004 0,0.006 -6.0859,11.85144 -6.3941,12.10601 -15.1114,12.38281 -3.5773,0.1137 -3.7,0.23613 -3.1308,3.08203 1.4413,7.20612 -2.6645,11.17463 -9.2949,8.98633 -1.8494,-0.6104 -5.7884,-3.32681 -8.7539,-6.03711 -5.7307,-5.2375 -8.5957,-5.67343 -8.5957,-1.3086 0,3.19529 6.2499,9.95908 11.9335,12.92188 2.5117,1.3086 3.9904,2.40173 3.2852,2.42773 -2.7002,0.098 -8.2736,-2.96538 -12.5195,-6.8789 -4.9928,-4.6022 -6.175,-4.92111 -7.6934,-2.08399 -2.2943,4.2869 6.0758,12.82842 16.7774,17.11914 l 4.7168,1.89063 -4,-0.63477 c -5.2605,-0.8364 -11.2172,-3.83833 -15.2793,-7.69922 -2.6479,-2.51643 -3.612,-2.90925 -5,-2.03515 -2.761,1.7387 -2.5423,3.93147 0.7675,7.70117 3.7632,4.286 10.7988,8.53112 16.9493,10.22852 4.5403,1.25392 4.5435,1.25917 1.0625,1.32617 -4.0704,0.078 -10.9216,-2.80532 -15.1778,-6.38672 -5.1627,-4.3442 -7.4881,-2.60577 -4.416,3.29883 2.7037,5.19622 8.727,9.24851 17.5938,11.83593 0.8219,0.23984 2.1731,0.36033 3.371,0.51954 0,-8.8e-4 0,-7.6e-4 0.01,-0.002 1.1944,0.15879 2.5093,0.27303 3.8613,0.35742 1.6304,0.0736 3.2902,0.13466 4.9961,0.0723 0.1456,-0.005 0.2775,0.008 0.4239,0.002 3.5828,-0.15742 6.9241,-0.67406 10.2421,-1.68945 1.6595,-0.50745 3.3155,-1.13853 4.9942,-1.91211 v -0.002 c 8.3975,-3.8704 17.3873,-11.28766 30.5,-24.41211 5.2782,-5.28297 10.1992,-10.44644 14.7109,-15.42774 v -0.002 c 3.8591,-4.26041 7.2567,-8.3041 10.4844,-12.25586 0.5463,-0.66881 1.2463,-1.41562 1.7734,-2.07422 1.8203,-2.27425 3.5261,-4.48691 5.1094,-6.6289 v -0.002 c 1.5833,-2.14191 3.0457,-4.21334 4.3789,-6.20703 v -0.002 c 1.3335,-1.99408 2.5371,-3.90901 3.6074,-5.73828 1.0703,-1.82934 2.0067,-3.57054 2.8008,-5.21875 v -0.002 c 0.2959,-0.6137 0.4769,-1.08929 0.7227,-1.63671 0.3114,-0.69353 0.6731,-1.44334 0.914,-2.07422 1.2933,-3.38804 1.6488,-6.22854 1.9102,-12.34961 0.4618,-10.80952 -0.8702,-17.20793 -11.6719,-56.00781 -2.0608,-7.4029 -3.8485,-13.54509 -5.5136,-18.78711 v -0.002 c -3.3299,-10.48317 -6.1671,-17.36951 -9.7012,-23.55078 v -0.002 c -0.8837,-1.54542 -1.8113,-3.04633 -2.8008,-4.54883 -0.9894,-1.5025 -2.0413,-3.0047 -3.1738,-4.55469 v -0.002 c -1.223,-1.6738 -2.8946,-3.63229 -4.793,-5.66992 -1.8982,-2.03731 -4.0228,-4.15385 -6.1523,-6.14063 -2.1294,-1.98642 -4.2631,-3.84555 -6.1797,-5.36718 -1.9169,-1.52206 -3.6153,-2.70696 -4.875,-3.34961 -0.7823,-0.3991 -1.4221,-0.7615 -1.9395,-1.10352 -0.5172,-0.34192 -0.9104,-0.66645 -1.1992,-0.99219 -0.5782,-0.65242 -0.7356,-1.31108 -0.6152,-2.14453 v -0.002 c 0.065,-0.44884 0.1899,-0.82536 0.4336,-1.1582 v -0.002 c 0.2442,-0.33272 0.6084,-0.62208 1.1445,-0.89648 v -0.002 c 0.5373,-0.27431 1.2531,-0.53266 2.1933,-0.80664 0.9449,-0.27456 2.12,-0.56447 3.586,-0.89648 7.8736,-1.78303 13.0247,-4.01003 18.5098,-8.39258 v -0.002 c 1.828,-1.46072 3.6934,-3.16152 5.7089,-5.16406 v -0.002 c 2.0962,-2.08293 3.9253,-4.13548 5.5196,-6.21484 v -0.002 c 0.7968,-1.0393 1.5339,-2.08618 2.2168,-3.14649 v -0.002 c 0.6828,-1.06032 1.31,-2.13449 1.8867,-3.23047 v -0.002 c 0.5766,-1.09603 1.1019,-2.215 1.5801,-3.36133 v -0.004 c 0.4781,-1.14641 0.9076,-2.32184 1.2949,-3.5332 0.7751,-2.42443 1.3761,-4.99308 1.834,-7.76563 3.2422,-19.63147 -6.272,-39.00451 -22.293,-49.35742 -2.6698,-1.72518 -5.5192,-3.20088 -8.5215,-4.38476 -1.5008,-0.59177 -3.0403,-1.11144 -4.6133,-1.55274 -1.5737,-0.44142 -3.1816,-0.80327 -4.8203,-1.08398 -3.2539,-0.55737 -4.8865,-0.84318 -6.0449,-1.63281 -0.579,-0.39438 -1.0393,-0.91437 -1.5234,-1.65821 v -0.002 c -0.4842,-0.74428 -0.9934,-1.71161 -1.668,-3 v -0.002 c -0.8643,-1.6509 -2.0032,-3.43874 -3.3164,-5.25391 -1.3135,-1.81554 -2.8003,-3.6581 -4.3652,-5.41602 -1.5643,-1.75702 -3.2062,-3.42829 -4.8243,-4.90625 -1.6185,-1.47796 -3.2145,-2.76138 -4.6894,-3.73828 l -4.5938,-3.04297 v -0.002 l 4.8321,-0.30859 4.83,-0.30664 -5.3105,-4.22852 c -1.6823,-1.33899 -3.506,-2.52534 -5.457,-3.55078 -1.951,-1.02543 -4.0289,-1.89144 -6.2188,-2.59375 -4.3797,-1.40461 -9.2081,-2.15203 -14.3652,-2.20703 l -7.6465,-0.0801 0.01,-0.006 h -0.01 l 6.4785,-3.11328 6.4707,-3.11133 -4.4726,-1.98047 c -7.8476,-3.47628 -22.3262,-3.38985 -33.2442,-0.13281 -1.5597,0.4653 -3.0469,0.99631 -4.4316,1.58984 -3.0063,1.28874 -3.9051,1.61432 -3.8067,1.02539 0.013,-0.0764 0.1085,-0.24022 0.1524,-0.34765 0.069,-0.16732 0.1048,-0.30105 0.2344,-0.54297 0.5076,-0.94741 2.8062,-3.85938 5.1054,-6.4707 10e-4,-0.002 6e-4,-0.006 0,-0.008 1.4673,-1.66618 2.4631,-2.81677 2.8145,-3.55078 v -0.002 c 0.3485,-0.732 0.053,-1.04695 -1.0664,-1.03906 z m 116.4609,70.1875 c -0.1155,0.0181 -0.1796,0.0804 -0.1816,0.1914 v 0.002 c 8e-4,0.3338 1.3922,2.62539 3.0918,5.0957 4.4029,6.39921 8.5394,15.95883 10.0312,23.18164 1.2551,6.07621 1.4371,6.32669 8.3301,11.42969 9.4683,7.00931 23.7655,21.59427 30.7461,31.36328 22.4015,31.35001 30.5393,69.38908 24.5293,102.60351 -0.6008,3.32002 -1.3412,6.5928 -2.2246,9.80469 -3e-4,10e-4 0,0.003 0,0.004 -0.8834,3.21206 -1.9084,6.36409 -3.0742,9.44531 -7e-4,0.002 0,0.004 0,0.006 -1.1657,3.08054 -2.4722,6.09082 -3.92,9.01758 -6e-4,10e-4 0,0.005 0,0.006 -1.4481,2.92721 -3.0374,5.77138 -4.7675,8.52148 -3.4623,5.5052 -7.4879,10.63466 -12.0782,15.29297 -7.154,7.26022 -14.9802,12.82629 -25.4101,18.07422 -3.9853,2.00553 -7.2427,3.78085 -7.2461,3.94727 9e-4,0.16664 0.8446,2.06977 1.8789,4.23437 0.6114,1.27972 1.175,2.74408 1.6758,4.32422 v 0.002 c 0.5006,1.57964 0.9388,3.27545 1.3007,5.01953 3e-4,10e-4 -2e-4,0.003 0,0.004 0.7236,3.48886 1.1426,7.17096 1.1426,10.50586 0,1.74048 -0.152,3.89762 -0.4179,6.26953 -0.2655,2.36941 -0.6463,4.95357 -1.1055,7.54883 -0.4592,2.5945 -0.9949,5.20073 -1.5762,7.61719 -3e-4,10e-4 0,0.003 0,0.004 -0.5813,2.41599 -1.2058,4.6427 -1.8379,6.47656 -4e-4,10e-4 0,0.003 0,0.004 l -2.0078,5.83008 4.2246,-0.66602 c 12.2619,-1.93318 26.1385,-7.61075 39.1875,-15.73047 v -0.002 c 7.8298,-4.87202 15.3616,-10.62441 22.0684,-16.97265 2.3447,-2.21949 4.4442,-4.27006 5.9375,-5.78516 1.4908,-1.51269 2.3732,-2.48811 2.2969,-2.57031 -0.1605,-0.15841 -2.7586,0.52712 -5.7774,1.52343 -5.327,1.7586 -16.0018,3.71535 -14.9922,2.74805 v -0.002 -0.002 c 0.275,-0.26323 4.4025,-3.11835 9.1719,-6.34375 2.7793,-1.8794 5.4225,-3.78547 7.9199,-5.70898 v -0.002 c 4.996,-3.84811 9.4095,-7.76552 13.1406,-11.66992 1.8658,-1.95127 3.5629,-3.89829 5.0801,-5.83399 0,-0.002 4e-4,-0.002 0,-0.004 2.6471,-3.37748 4.6102,-6.13858 4.3692,-6.14257 -0.2455,5.8e-4 -2.1858,0.73014 -4.3145,1.62109 -2.1297,0.8913 -5.8351,2.21205 -8.2344,2.93555 l -4.3632,1.3164 0.01,-0.008 9.5742,-8.98633 c 1.9908,-1.86835 4.2613,-4.27946 6.5274,-6.82422 0.1083,-0.12165 0.2041,-0.20375 0.3125,-0.32617 2.3744,-2.68243 4.7452,-5.53723 6.8164,-8.1875 v -0.002 c 3.1071,-3.97588 5.5399,-7.49045 6.2988,-9.26172 0.2521,-0.58844 0.3181,-0.98159 0.1641,-1.13867 -0.1066,-0.1066 -0.6307,0.0478 -1.3887,0.38476 -0.758,0.33695 -1.75,0.85641 -2.793,1.47461 -1.9398,1.14977 -4.7619,2.45908 -7.0996,3.38868 v 0.002 c -2.3381,0.92966 -4.1914,1.47821 -4.1914,1.09961 v -0.004 c 0,-0.23473 2.4322,-4.15118 5.4043,-8.71094 7e-4,-0.001 10e-4,-0.003 0,-0.004 1.486,-2.27968 3.1338,-5.02348 4.5918,-7.60742 8e-4,-0.002 10e-4,-0.002 0,-0.004 1.4577,-2.58382 2.725,-5.00694 3.4512,-6.64844 4e-4,-10e-4 10e-4,-0.003 0,-0.004 0.635,-1.43586 1.3612,-3.36494 2.0937,-5.4961 1.4658,-4.26423 2.9547,-9.33797 3.7852,-12.89258 0.4152,-1.77703 0.666,-3.17381 0.666,-3.90039 0,-0.773 -3.1106,1.89878 -6.9141,5.9375 l -6.914,7.33985 3.3105,-9.9961 c 4e-4,-10e-4 0,-0.003 0,-0.004 1.4706,-4.43941 3.005,-10.17246 4.0489,-14.68555 0.2493,-1.07813 0.629,-2.46214 0.791,-3.31055 3e-4,-10e-4 -2e-4,-0.003 0,-0.004 0.7205,-3.77266 1.4419,-9.03234 1.8945,-13.25977 2e-4,-0.002 -2e-4,-0.002 0,-0.004 0.2261,-2.11247 0.3853,-3.96559 0.4434,-5.24805 2e-4,-0.003 -10e-5,-4.6e-4 0,-0.004 0.058,-1.27982 0.014,-1.98335 -0.1621,-1.80859 -0.1795,0.18081 -2.6673,3.47654 -5.5254,7.32422 -10e-4,0.002 -6e-4,0.002 0,0.004 -1.6426,2.21135 -2.8864,3.7314 -3.668,4.5 v 0.002 c -0.7823,0.76916 -1.1009,0.78893 -0.9063,-0.002 0.6907,-2.76893 1.0983,-11.24892 1.1895,-20.15625 10e-4,-0.1317 0.01,-0.2353 0.012,-0.36718 v -0.002 c 0.041,-4.525 -8e-4,-9.14808 -0.1328,-13.1875 v -0.002 c -0.1321,-4.03822 -0.3544,-7.49211 -0.6719,-9.68164 v -0.004 l -1.2929,-8.89258 -3.4473,8.39258 v 0.004 l -0.6133,1.49414 -2.8359,6.90234 v -0.004 l -1.2774,-7.52735 c -3e-4,-0.002 3e-4,-0.004 0,-0.006 -0.5095,-3.00395 -1.1303,-6.1284 -1.83,-9.25976 -3e-4,-10e-4 3e-4,-0.003 0,-0.004 -0.6998,-3.13112 -1.481,-6.26906 -2.3086,-9.29883 -3e-4,-10e-4 4e-4,-0.003 0,-0.004 -0.8276,-3.02963 -1.7048,-5.95141 -2.5977,-8.65039 -0.8936,-2.70037 -1.805,-5.17783 -2.7012,-7.31836 l -3.3183,-7.92578 -0.7246,3.99414 c -0.317,1.74668 -0.5187,4.24119 -0.6563,6.35156 -0.036,0.54769 -0.1585,1.19513 -0.1699,1.64844 0,10e-4 10e-5,0.003 0,0.004 -0.024,0.96314 -0.053,1.67369 -0.1582,2.03711 v 0.002 c -0.053,0.18054 -0.1252,0.27602 -0.2246,0.27343 -0.4987,-0.009 -1.6979,-2.46815 -4.7207,-8.8125 -5.3743,-11.27905 -15.0916,-26.89874 -15.6778,-25.20117 -0.1923,0.57989 0.083,3.43901 0.6133,6.35547 0.4093,2.25174 0.6302,3.62604 0.4453,3.93164 -0.3038,0.51905 -1.7319,-1.92279 -5.2949,-8.22656 -3.3174,-5.86954 -17.251,-21.85938 -19.0488,-21.85938 -0.1132,0.003 -0.154,0.15893 -0.127,0.44532 0.082,0.86711 0.7665,2.89496 1.8047,5.24218 l 2.5176,5.69141 -0.01,-0.008 v 0.01 l -8.8222,-9.04297 c -6.6048,-6.76939 -13.3815,-12.20974 -14.9727,-12.18359 0,9e-5 2e-4,0.01 -0.01,0.01 -0.2127,0.01 -0.3398,0.11541 -0.3398,0.34765 v 0.002 c 7e-4,0.31215 0.966,2.45346 2.1445,4.76367 0.906,1.77586 1.4,2.85815 1.2911,3.17968 -0.1729,0.54604 -2.022,-1.01821 -6.4375,-5.01757 -4.5944,-4.1594 -11.1085,-8.43946 -12.8458,-8.43946 -0.5446,0 -0.8051,0.13283 -0.7597,0.52149 v 0.002 c 0.048,0.39063 0.4032,1.03556 1.0722,2.06055 1.1927,1.82032 1.5657,2.77723 1.1387,2.86719 -0.4241,0.0933 -1.6485,-0.67789 -3.6601,-2.32422 -3.361,-2.75068 -6.9143,-4.9056 -7.7559,-4.78711 z m -213.67968,0.65625 c 2.20545,0 2.5516,0.32137 2.16797,2.07226 -0.0321,0.14627 -0.0321,0.23444 -0.0742,0.40235 -4e-4,0.002 3.9e-4,0.002 0,0.004 -0.34163,1.36258 -0.9016,5.15531 -1.24414,8.43164 -1.6e-4,10e-4 1.5e-4,0.002 0,0.004 -0.14043,1.34326 -0.26795,2.39437 -0.41992,3.23242 -1.8e-4,0.001 1.8e-4,0.003 0,0.004 -0.0687,0.3782 -0.17521,0.58422 -0.25782,0.88281 -0.10048,0.36322 -0.18159,0.80294 -0.31445,1.07227 -0.24163,0.48982 -0.5481,0.84692 -0.95703,1.14843 l -0.002,0.002 c -0.40987,0.30207 -0.92245,0.55068 -1.57813,0.82226 -1.0312,0.42713 -2.13175,1.15544 -3.22656,2.08985 -1.0938,0.93392 -2.18295,2.07212 -3.1875,3.32226 -9.1e-4,0.001 -7e-4,0.005 -0.002,0.006 -1.00499,1.25107 -1.92871,2.61094 -2.69141,3.98828 v 0.002 c -0.76208,1.37617 -1.36493,2.76948 -1.73242,4.08203 -1.54599,5.52163 -0.76613,12.97612 1.90429,18.21093 2.1422,4.1992 8.33537,10.22266 10.50977,10.22266 1.27689,0 2.5747,6.62527 2.5957,13.25 0.003,0.81146 -0.0484,1.42418 -0.22851,1.8457 -0.0895,0.20936 -0.2105,0.37285 -0.37305,0.48828 l -0.002,0.002 c -0.16298,0.11544 -0.36816,0.18368 -0.62305,0.20703 -1.02284,0.0952 -2.86088,-0.5435 -6.12305,-1.86719 -13.32927,-5.40847 -21.76976,-15.46206 -24.63476,-29.3418 -0.8984,-4.35234 -0.96917,-8.72294 -0.25391,-12.9746 0.47646,-2.8323 1.30207,-5.6132 2.46485,-8.30079 l 0.002,-0.002 c 0.58133,-1.34366 1.24571,-2.66454 1.99414,-3.95703 l 0.002,-0.002 c 0.74852,-1.29245 1.57954,-2.55778 2.49219,-3.78907 l 0.002,-0.002 c 0.91246,-1.23086 1.90696,-2.42815 2.98047,-3.58789 9.8e-4,-10e-4 6.8e-4,-0.005 0.002,-0.006 1.45917,-1.5761 3.16926,-3.11048 4.99219,-4.52734 l 0.002,-0.002 c 5.47106,-4.25175 11.96741,-7.43554 15.81445,-7.43554 z m 183.79688,0.13476 v 0 c 1.1531,0.0709 3.0851,0.79511 6.1758,1.95117 7.8221,2.9267 16.3799,11.07119 20.1015,19.13282 2.5972,5.62401 2.898,7.32844 2.877,16.28125 -0.01,4.31491 -0.1063,7.00418 -0.4766,9.20898 -0.1847,1.10019 -0.4374,2.07974 -0.7832,3.08008 -4e-4,10e-4 0,0.003 0,0.004 -0.3458,1.00048 -0.7832,2.02261 -1.3379,3.20703 -7e-4,10e-4 0,0.002 0,0.004 -0.8783,1.87501 -1.9789,3.75229 -3.2441,5.57032 -0.2392,0.34386 -0.5501,0.64708 -0.8008,0.98632 -1.0758,1.45569 -2.1869,2.90353 -3.4355,4.23438 -3.0789,3.28234 -6.592,6.08878 -10.0821,7.92969 -3.1968,1.68579 -7.1823,3.35433 -8.8554,3.70703 l -3.041,0.64062 v -0.004 l 0.246,-1.9336 0.7208,-5.69531 c 0.3972,-3.13307 0.6942,-4.86898 1.1445,-6.15625 0.075,-0.21447 0.1222,-0.54503 0.209,-0.73047 v -0.002 c 0.6077,-1.2984 1.5427,-1.96364 3.3144,-3.08203 3.6741,-2.31942 6.0392,-4.82086 7.8496,-8.50977 v -0.002 c 0.6036,-1.22993 1.1458,-2.59208 1.6543,-4.12305 0.4016,-1.20906 0.6998,-2.45369 0.8985,-3.71484 2e-4,-10e-4 -2e-4,-0.003 0,-0.004 0.1984,-1.26116 0.2987,-2.53947 0.3047,-3.8164 0,-10e-4 -10e-5,-0.003 0,-0.004 0.01,-1.2772 -0.084,-2.55335 -0.2598,-3.81055 -2e-4,-10e-4 2e-4,-0.003 0,-0.004 -0.1765,-1.25782 -0.4409,-2.49557 -0.7891,-3.69727 v -0.002 c -1.3938,-4.80836 -4.1225,-9.0211 -7.8476,-11.48633 -2.1428,-1.418 -4.0702,-3.52569 -4.2832,-4.68359 -2e-4,-8e-4 10e-5,-0.005 0,-0.006 -0.213,-1.15767 -0.7918,-4.91536 -1.2852,-8.35157 -3e-4,-0.002 3e-4,-0.002 0,-0.004 -0.4878,-3.39811 -0.7474,-5.20179 -0.037,-5.84375 0.2363,-0.21371 0.5801,-0.29975 1.0586,-0.27149 z m -64.3613,8.60742 h 0.01 c 8.9807,0.13028 18.166,2.41208 24.8028,6.80469 2.5059,1.65866 4.6225,3.41894 6.3769,5.33203 0.8767,0.95611 1.6627,1.94984 2.3613,2.99024 v 0.002 c 3.4937,5.20381 4.8016,11.54739 4.3184,19.89453 -0.092,1.59252 -0.2736,3.15523 -0.5391,4.68555 -0.2652,1.52834 -0.6158,3.02487 -1.0488,4.48242 -0.4328,1.45728 -0.9476,2.87615 -1.543,4.25391 -6e-4,0.001 -10e-4,0.003 0,0.004 -0.5954,1.3771 -1.2687,2.71307 -2.0214,4.00196 v 0.002 c -0.7531,1.28931 -1.5829,2.53233 -2.4883,3.72461 -0.2555,0.33662 -0.5627,0.6364 -0.8301,0.96484 -0.6806,0.83569 -1.3551,1.67685 -2.1113,2.45703 -2.1073,2.17541 -4.5033,4.13138 -7.1699,5.83008 -7.9547,5.0674 -16.2303,3.3198 -25.7247,-5.43164 -5.8247,-5.36863 -9.1455,-10.97994 -9.8183,-16.37109 -0.2699,-2.15477 -0.1147,-4.27292 0.4707,-6.32813 0.2933,-1.02947 0.6937,-2.04372 1.2051,-3.03711 3.2697,-6.35151 8.4988,-9.19782 16.039,-8.73242 4.635,0.2861 6.4792,0.95962 9.6914,3.54102 2.1819,1.7534 4.2182,3.1875 4.5254,3.1875 0.1529,-0.003 0.2918,-0.37965 0.3926,-0.99024 0.1013,-0.61308 0.1641,-1.45817 0.1641,-2.38867 0,-2.67004 -0.8301,-4.13416 -3.9395,-6.94336 -7.4543,-6.73424 -17.0789,-5.90999 -29.5742,2.53125 -6.9146,4.6714 -7.8365,5.0165 -12.2324,4.5918 -3.5533,-0.3434 -6.4555,-1.62559 -11.4942,-5.07813 -10.1309,-6.9412 -16.773,-8.25816 -24.3379,-4.82226 -1.3238,0.60122 -2.513,1.30345 -3.5507,2.08789 -1.0378,0.78443 -1.92473,1.65093 -2.64653,2.58008 -0.0544,0.07 -0.0725,0.1519 -0.125,0.22265 -1.33902,1.80535 -2.09765,3.82569 -2.09765,5.94727 v 3.46875 l 3.41408,-2.9961 c 4.4077,-3.86971 9.686,-5.57201 15.3183,-4.9375 6.9093,0.77879 12.0249,5.69367 13.7129,11.75 0.675,2.42165 0.8015,5.02563 0.2754,7.6211 -0.2629,1.29721 -0.6869,2.59239 -1.289,3.86133 -7e-4,10e-4 0,0.003 0,0.004 -0.6152,1.29547 -1.7002,2.91702 -3.0508,4.65235 -0.2012,0.25861 -0.479,0.53194 -0.6914,0.79492 -1.2141,1.50305 -2.527,3.0519 -3.9571,4.54297 -3.3613,3.50513 -6.9715,6.61791 -9.1972,7.6289 -8.4076,3.81914 -16.13403,1.37603 -24.4551,-7.72851 -2.60662,-2.85203 -4.5912,-5.60505 -6.05664,-8.53516 v -0.002 c -0.48841,-0.97617 -0.91989,-1.97188 -1.29688,-2.99805 v -0.002 c -0.37668,-1.02561 -0.69968,-2.08154 -0.97266,-3.17774 -3e-4,-10e-4 3e-4,-0.003 0,-0.004 -0.27279,-1.09692 -0.49705,-2.23362 -0.67382,-3.42188 v -0.002 c -0.35346,-2.37676 -0.52126,-4.95801 -0.53516,-7.82422 0,-0.002 10e-6,-0.002 0,-0.004 -0.01,-2.03933 0.002,-3.66252 0.0664,-5.0332 v -0.002 c 0.0647,-1.37026 0.18294,-2.48759 0.38672,-3.51563 v -0.002 c 0.20375,-1.02727 0.49496,-1.96509 0.90234,-2.97656 0.40836,-1.01391 0.93334,-2.10205 1.61133,-3.42774 1.40181,-2.7407 3.11841,-5.14088 5.16601,-7.21289 3.07205,-3.10806 6.89224,-5.47491 11.52735,-7.13476 4.63621,-1.66027 10.08671,-2.615 16.41801,-2.89453 11.7785,-0.5201 18.7094,1.04512 24.8281,5.60742 l 3.9101,2.91601 4.0059,-2.90234 c 5.8156,-4.21285 14.5893,-6.23686 23.5684,-6.10938 z m -0.7422,30.55079 c -1.1044,0.10398 -2.2096,0.53118 -3.8496,1.33203 -1.254,0.61246 -2.3752,1.39372 -3.336,2.30078 v 0.002 c -0.2719,0.25679 -0.4261,0.58769 -0.6718,0.86328 -0.6225,0.69853 -1.262,1.3903 -1.7032,2.18555 v 0.002 c -0.6145,1.10823 -1.0438,2.29379 -1.2617,3.50977 -0.2182,1.21739 -0.2265,2.46554 0.01,3.69726 0.7551,4.0252 4.6616,8.49135 7.9531,9.09375 4.6197,0.84552 9.7306,-0.90974 12.3145,-4.02734 0.3681,-0.44424 0.6845,-0.91614 0.9414,-1.41211 6e-4,-0.001 0,-0.003 0,-0.004 0.4384,-0.84761 0.7723,-1.7164 1.0097,-2.58984 1.6629,-6.12347 -1.4785,-12.52702 -7.5488,-14.3457 -1.6417,-0.4919 -2.747,-0.71141 -3.8516,-0.60742 z m -54.6992,0.3125 c -3.8956,5.9e-4 -6.9801,1.6934 -8.918,4.20507 -0.645,0.83656 -1.1646,1.76449 -1.543,2.75 v 0.002 c -0.7573,1.97385 -0.9562,4.18121 -0.4961,6.36523 0.4602,2.18468 1.5799,4.34546 3.4571,6.22266 2.3955,2.3955 3.6713,2.84961 8.0039,2.84961 4.3631,0 5.6035,-0.44738 8.0781,-2.92188 0.5704,-0.57045 1.0392,-1.09433 1.4199,-1.60937 9e-4,-10e-4 0,-0.003 0,-0.004 0.099,-0.13384 0.145,-0.27097 0.2324,-0.4043 0.2485,-0.37962 0.498,-0.75599 0.6621,-1.15234 0.4447,-1.07346 0.6036,-2.26316 0.6036,-3.87695 0,-7.68172 -4.3898,-12.42488 -11.4981,-12.42578 z m 27.6113,24.40429 c 4.478,-0.015 9.0838,2.13399 18.8398,8.78321 5.1963,3.54131 12.6986,7.92005 16.6719,9.73046 8.7874,4.00455 15.0164,9.49773 18.5527,16.22071 v 0.002 c 1.7677,3.36105 2.863,7.02887 3.2676,10.97266 10e-5,0.001 -10e-5,0.003 0,0.004 0.404,3.94334 0.1196,8.16185 -0.873,12.62305 -3e-4,10e-4 0,0.002 0,0.004 -0.2776,1.24743 -0.5978,2.45851 -0.9649,3.63672 -4e-4,10e-4 0,0.005 0,0.006 -0.3672,1.17806 -0.7794,2.32419 -1.2402,3.43946 v 0.002 c -0.4612,1.11574 -0.9702,2.20238 -1.5293,3.26172 v 0.002 c -0.5592,1.05927 -1.1668,2.09226 -1.8281,3.10157 -0.253,0.38609 -0.5519,0.75339 -0.8203,1.13281 -0.4336,0.61306 -0.8497,1.23319 -1.3243,1.83008 -9e-4,0.001 0,0.003 0,0.004 -0.7677,0.96534 -1.5904,1.90961 -2.4687,2.83789 -1.7594,1.85977 -3.7441,3.65257 -5.9727,5.40235 -3.8001,2.98353 -10.5787,8.96632 -15.0625,13.29492 l -8.1523,7.87109 -0.6719,-3.05859 c -0.1844,-0.8409 -0.2804,-1.72109 -0.2871,-2.46094 v -0.002 c -0.01,-0.73891 0.077,-1.33638 0.25,-1.61914 10e-4,-0.002 -10e-4,-0.002 0,-0.004 0.2752,-0.44528 0.345,-0.7364 0.2344,-0.88281 -0.3355,-0.43826 -2.3137,0.44498 -5.3301,2.45898 -2.1392,1.4286 -5.539,4.18381 -7.5547,6.1211 l -3.666,3.52148 -4.834,-4.48828 c -2.6592,-2.4685 -6.2984,-5.23304 -8.0859,-6.14453 l -3.2481,-1.65625 v 4.01953 c 0,1.03023 -0.072,1.93284 -0.1718,2.64648 -0.01,0.0532 -0.01,0.14664 -0.014,0.19727 v 0.002 c -0.1135,0.72959 -0.2706,1.1836 -0.4434,1.1836 -0.3457,0 -3.6451,-2.84452 -7.3301,-6.32032 -3.6826,-3.47613 -9.8546,-8.83706 -13.7109,-11.91406 -10.56531,-8.43005 -16.03578,-15.24884 -18.51757,-23.95508 -0.82682,-2.90022 -1.3235,-6.00986 -1.56445,-9.45898 -0.29319,-4.19702 -0.14863,-7.67629 0.57617,-10.8125 0.24099,-1.04373 0.5473,-2.04963 0.92187,-3.03125 5.1e-4,-10e-4 7.5e-4,-0.003 0.002,-0.004 0.37481,-0.981 0.81885,-1.93816 1.33789,-2.88476 1.56117,-2.8471 3.79825,-5.60073 6.85547,-8.63672 1.17156,-1.16345 2.25831,-2.18236 3.28515,-3.07813 0.002,-10e-4 0.002,-0.005 0.004,-0.006 3.08387,-2.6894 5.63387,-4.25784 8.37107,-5.21484 2.8059,-0.981 9.3309,-4.52706 14.5,-7.88086 11.0832,-7.19062 18.4,-10.78285 21.9961,-10.79883 z m -9.4199,13.99414 c -1.4947,0 -2.604,0.34699 -3.3301,0.9336 v 0.002 c -0.048,0.0385 -0.061,0.0962 -0.1055,0.13672 -0.2937,0.26862 -0.5457,0.5635 -0.6953,0.91016 -0.06,0.13943 -0.045,0.31096 -0.082,0.46093 -0.1733,0.70746 -0.1529,1.49881 0.1875,2.36524 0.6197,1.5774 2.0878,3.31528 4.3886,4.83789 2.1387,1.4153 4.1568,3.42439 4.4864,4.46289 0.1886,0.59417 0.4969,1.04648 0.8554,1.35351 0.3585,0.30703 0.7677,0.46959 1.1602,0.48438 0.3916,0.0148 0.7665,-0.11719 1.0566,-0.39844 v -0.002 c 0.2893,-0.28167 0.4922,-0.71465 0.545,-1.29688 0.7673,-8.63382 -2.5692,-14.25 -8.4668,-14.25 z m 19.666,0.0293 c -1.3474,-0.11744 -2.8382,0.44492 -4.2754,1.58789 -0.7174,0.57108 -1.4236,1.28519 -2.0899,2.13281 -9e-4,10e-4 -10e-4,0.003 0,0.004 -0.6663,0.84807 -1.295,1.82844 -1.8613,2.92773 v 0.002 0.002 c -0.3081,0.59931 -0.5556,1.37149 -0.7383,2.21094 -0.549,2.52302 -0.5063,5.64407 0.2832,6.43359 1.1606,1.1606 2.2281,0.72936 3.3399,-1.34765 0.593,-1.1081 2.8588,-3.13978 5.0351,-4.51368 2.0515,-1.29475 3.347,-2.75278 3.8282,-4.1914 0.4801,-1.44033 0.1437,-2.86045 -1.0723,-4.07617 -0.7131,-0.71314 -1.5472,-1.09358 -2.4453,-1.17188 z m -243.94143,1.70313 c -1.85179,0.1361 -3.0856,1.36742 -3.46875,3.38671 -0.1532,0.80774 -0.16985,1.74306 -0.0352,2.78321 0.076,0.58321 0.31488,1.27309 0.48828,1.91992 0.1356,0.50521 0.18421,0.9581 0.38281,1.49805 0.3802,1.03598 0.94827,2.16184 1.57227,3.30859 0.1156,0.22021 0.16887,0.40907 0.29687,0.63086 0.4613,0.799 1.1257,1.707 1.9336,2.66211 0.8068,0.95379 1.75962,1.95633 2.79492,2.95312 2.0724,1.9954 4.48468,3.96536 6.76758,5.45508 3.38176,2.20678 6.23787,4.32973 7.39843,5.45117 0.3871,0.37335 0.58469,0.63275 0.55469,0.75196 -0.065,0.2406 -0.36521,0.304 -0.85351,0.2207 -3.4156,-0.58197 -16.02968,-8.38269 -21.49414,-13.61133 -0.01,-0.0139 -0.0291,-0.0232 -0.0391,-0.0371 -2.71676,-2.59399 -5.83664,-4.95929 -7.99414,-6.14258 -0.5328,-0.23916 -1.07316,-0.494 -1.53906,-0.5625 -2.595,-0.38172 -5.8252,0.8118 -6.4082,5.14258 -0.023,0.65735 0.12557,1.41997 0.42187,2.26172 0.2959,0.84127 0.7365,1.76337 1.3086,2.73438 0.57306,0.97248 1.25968,2.00325 2.05468,3.05859 0.7935,1.05329 1.69001,2.1313 2.66211,3.21289 0.9721,1.08164 2.02286,2.16468 3.12696,3.22266 1.10426,1.05802 2.26372,2.09182 3.45312,3.07422 0.9987,0.82463 2.02437,1.5845 3.05273,2.32226 0.1987,0.14264 0.3925,0.3106 0.5918,0.44922 1.2278,0.85437 2.46194,1.63361 3.68164,2.30859 l 7.55664,4.17969 -0.0156,-0.004 -7.4961,-2.5332 c -4.12986,-1.39621 -10.38328,-4.94085 -13.89648,-7.87695 -8.68946,-7.26159 -12.30083,-8.32641 -13.87109,-4.08399 -0.2265,0.61305 -0.32479,1.30106 -0.30079,2.05079 0.024,0.74933 0.17033,1.55913 0.42383,2.41406 0.1907,0.64311 0.4984,1.33208 0.8086,2.01953 0.1041,0.22735 0.15413,0.43805 0.26953,0.66992 0.4642,0.93215 1.02709,1.89482 1.67969,2.87109 0.65136,0.97423 1.39223,1.96397 2.21093,2.95118 1.639,1.97555 3.5941,3.94432 5.7793,5.78515 1.0932,0.92088 2.24261,1.80987 3.44141,2.65039 3.26416,2.28883 5.98186,4.43628 7.28906,5.69532 2.811,2.14019 6.29774,4.40217 11.3457,6.60351 2.0149,0.87863 4.23594,1.74959 6.83594,2.59766 0.049,0.0157 0.0851,0.0325 0.13476,0.0488 6.7453,2.18494 11.0775,3.81534 14.5879,6.46093 1.17096,0.88251 2.25192,1.87529 3.29882,3.04297 3.271,3.43105 5.86993,8.28642 9.82813,16.3086 1.6535,3.35077 3.20056,6.31087 4.69336,8.89648 1.4947,2.58437 2.93766,4.7916 4.38086,6.63867 1.4429,1.84713 2.88583,3.33347 4.71875,6.71289 1.83292,3.37944 3.57275,8.934 5.65625,16.76563 3.04536,11.44739 5.03486,16.57246 8.35156,21.51953 2.7688,4.12988 8.5209,8.93424 12.1543,10.15039 0.706,0.23629 11.74656,0.0608 13.25976,-0.21094 0.8529,-0.15318 0.79756,-0.19601 -1.33984,-1 -1.2275,-0.46176 -2.58673,-1.0922 -3.01953,-1.40039 -1.2788,-0.91057 -2.66715,-3.61709 -4.12305,-8.03906 -1.7174,-5.21617 -2.28627,-7.78839 -2.66797,-12.05078 -0.689,-7.69397 1.1221,-19.29023 5.0293,-32.19141 0.3854,-1.27245 0.50519,-1.73414 0.66406,-2.31445 0.60356,-2.46638 -1.1497,-8.52741 -1.92187,-10.75977 -1.2371,-3.469 -2.43243,-6.95342 -3.54883,-10.46289 -0.691,-2.22443 -1.34132,-4.46081 -2.01172,-6.6914 -0.2458,-0.8364 -0.50997,-1.6667 -0.79297,-2.49024 -0.1732,0.82373 -0.49662,1.6394 -0.98242,2.6211 -1.0802,2.1833 -1.64632,3.277 -2.01172,3.38867 -0.053,0.0161 -0.083,-0.13466 -0.12891,-0.16016 -0.2674,-0.14457 -0.43942,-0.84481 -0.66992,-2.33789 -0.3111,-2.00937 -3.54128,-10.41238 -7.17578,-18.67773 -3.1905,-7.25542 -4.82267,-11.10711 -5.38477,-14.43164 -0.56316,-3.32609 -0.0559,-6.12373 1.03516,-11.27735 0.01,-0.0304 0.01,-0.0653 0.0156,-0.0957 0.6864,-3.28387 0.90356,-7.02023 0.60156,-10.63477 -0.036,-0.45586 0.0131,-0.92273 -0.0449,-1.37304 -0.2281,-1.76304 -0.3617,-2.85881 -0.5586,-4.32032 l -17.65429,-0.15429 c -2.5983,3.86526 -6.94899,5.06789 -12.90625,3.55859 -6.9424,-1.75919 -16.05365,-7.17949 -27.06641,-16.30078 -2.85015,-2.36063 -5.32005,-3.3197 -7.17188,-3.18359 z m 280.91013,35.24218 c -0.5577,0.0539 -1.4466,1.06163 -2.5117,3.29492 -2.0179,4.2315 -9.2428,8.18436 -18.9141,10.34766 -5.4251,1.214 -12.3194,1.65039 -25.8964,1.65039 -26.9235,-0.006 -39.9122,-3.11509 -45.14847,-10.80469 -0.74925,-1.09995 -1.36411,-1.92478 -1.84961,-2.47265 -0.4906,-0.55364 -0.84737,-0.82109 -1.07813,-0.81055 -0.22418,0.01 -0.3262,0.28668 -0.31445,0.82813 0.0122,0.55725 0.14404,1.39153 0.39648,2.51171 0.27908,1.23661 0.66173,2.38991 1.16016,3.4668 v 0.002 c 0.49789,1.07541 1.11116,2.07392 1.84766,3 0.7374,0.9275 1.59923,1.78392 2.5957,2.57227 l 0.002,0.002 c 1.99266,1.57599 4.52246,2.88351 7.66986,3.96485 4.7228,1.62255 10.8353,2.73473 18.6055,3.47461 10.7637,1.0249 31.3005,0.24597 40.8574,-1.54883 9.2796,-1.74255 15.3512,-4.42079 18.9981,-8.50195 1.2156,-1.36047 2.161,-2.87661 2.8671,-4.56641 1.2351,-2.95606 1.5402,-5.13456 1.2246,-6.00195 -0.1058,-0.28643 -0.2803,-0.43059 -0.5117,-0.40821 z" />
      <g
         id="g18627"
         transform="matrix(1.4168517,-1.2472249,1.2472249,1.4168517,728.1802,823.0123)">
        <path
           style="fill:#fc8211;fill-opacity:1;stroke-width:0.352778"
           d="m 124.88333,174.07882 c -2.03729,-0.46732 -4.65667,-1.19049 -5.82083,-1.60703 -4.68535,-1.67643 -9.60618,-5.79467 -14.8223,-11.23065 -1.77197,-1.84665 -2.80523,-3.31518 -3.08971,-3.61295 -0.21307,-0.22304 0.36067,0.056 1.6786,1.3688 2.17861,2.17019 6.4153,5.95742 9.53063,7.77888 4.48539,2.62252 10.61337,4.3062 15.69861,4.31326 2.97391,0.004 5.64445,-0.47344 5.64445,-1.00936 0,-0.15331 -0.99219,-1.54092 -2.20487,-3.08359 -4.23133,-5.38279 -9.4291,-13.58301 -12.49423,-19.71146 -3.54413,-7.08616 -5.56064,-13.07688 -6.88731,-20.46111 -0.99721,-5.55046 -1.06879,-17.32161 -0.14158,-23.28333 1.52928,-9.832944 5.15546,-21.834395 9.43761,-31.857365 1.34005,-3.13655 2.62536,-2.883156 3.12091,-2.387606 0.6509,0.6509 -0.49434,4.198547 -1.60718,9.374127 -1.74748,8.12719 -2.7612,13.92482 -2.76491,22.930564 -0.006,14.00227 1.83622,22.77952 8.06542,38.43247 3.57234,8.97671 4.5035,11.68579 5.97408,17.38075 0.68694,2.66026 1.82582,5.71367 2.09598,6.92131 l 0.55673,2.48862 c 0,0 -0.38514,0.28655 -0.73715,0.56556 -0.54582,0.43263 -1.28255,1.46688 -1.59438,2.07453 -0.31182,0.60765 -1.27263,2.097 -2.13512,3.30967 -0.75289,1.05858 -0.54505,1.79695 -1.19173,2.08195 -0.94206,0.41516 -2.96238,-0.008 -6.31172,-0.77604 z"
           id="path486"
           sodipodi:nodetypes="sssssscsssssssscssscsssss" />
        <path
           id="path488"
           style="fill:#f5a50a;fill-opacity:1;stroke-width:0.352778"
           d="m 108.85739,70.415107 c -7.22252,10.160653 -11.328316,22.314121 -12.728753,34.646923 -0.959325,7.60598 -0.654628,15.32901 0.518293,22.89268 1.15701,8.01966 3.229343,15.96303 6.80724,23.26177 2.38602,5.08429 5.37378,9.91237 9.17156,14.06857 1.66211,1.79432 3.27003,3.88198 5.71703,4.61392 2.76016,0.9944 5.6567,1.66251 8.60299,1.65626 2.14231,0.002 6.91259,-0.66467 7.08706,-1.20556 0.23981,-0.83039 -3.84836,-5.78803 -5.66931,-8.53142 -4.67598,-6.83231 -8.90506,-14.02415 -12.02412,-21.7088 -4.11138,-10.47455 -5.3549,-22.00511 -4.19592,-33.12804 1.01224,-10.073712 3.75796,-19.81868 7.37169,-29.23018 1.07475,-2.707478 2.08678,-5.461151 3.48271,-8.021855 0.87755,-0.922086 0.15665,-2.215465 -0.15192,-3.227835 -0.98739,-2.651934 -1.76763,-5.300857 -3.6889,-7.415472 -3.53233,3.765427 -7.75275,7.685687 -10.29965,11.329039 z"
           sodipodi:nodetypes="cccccccccccccccc" />
        <path
           id="path480"
           style="fill:#fff28f;fill-opacity:1;stroke-width:0.352778"
           d="m 114.16992,57.248047 c -1.75856,0.181846 -3.26568,1.234962 -4.82617,1.979045 -8.20439,4.330066 -15.167298,11.001982 -19.70413,19.105624 -2.962259,5.220396 -5.009313,10.941004 -6.297823,16.794237 -1.402171,7.339527 -1.598113,14.899787 -0.605562,22.304917 1.193688,8.94907 3.740923,17.78398 8.068435,25.73814 2.21803,4.18654 4.665066,8.29835 7.8775,11.80913 4.03595,4.49881 8.51172,8.67032 13.6771,11.84909 1.02964,0.69954 2.37756,1.25188 3.46629,1.85423 -2.90243,-3.45886 -6.39449,-8.15003 -8.66261,-11.97081 -5.3428,-8.91698 -8.424113,-19.00481 -9.953591,-29.21315 -0.83012,-5.51371 -0.84415,-11.08647 -0.771859,-16.6567 0.09113,-7.92196 1.729641,-15.844466 4.4096,-23.316286 2.01134,-5.582049 4.71673,-10.973802 7.98132,-15.846534 1.88177,-2.806556 4.02434,-5.541131 6.30874,-8.002272 1.40664,-1.497725 2.8458,-2.964468 4.26714,-4.448192 -1.60904,-0.678243 -3.11133,-1.745956 -4.87305,-1.976563 -0.12036,7.98e-4 -0.24108,-0.01018 -0.36133,-0.0039 z"
           sodipodi:nodetypes="sccccccccccccccccss" />
        <path
           style="fill:#4b4440;fill-opacity:1;stroke-width:0.352778"
           d="m 117.21167,58.240091 c -1.01796,-0.50254 -2.17578,-0.741131 -2.17646,-0.849311 -7.1e-4,-0.10816 0.99781,-0.942139 1.82243,-1.534179 6.6439,-4.77009 8.5319,-6.06677 10.84791,-7.4504 1.45521,-0.86937 3.98102,-2.17997 5.6129,-2.91244 2.42226,-1.08723 3.66774,-1.694814 4.1975,-1.363984 0.3569,0.22289 0.64805,0.48613 0.64699,0.58498 -0.001,0.0988 -2.15021,1.544574 -4.06515,2.678044 -3.80022,2.2494 -8.29831,5.73164 -12.23926,9.47516 -1.38887,1.31929 -2.44365,2.529937 -2.51813,2.498887 -0.0745,-0.031 -1.11078,-0.624227 -2.12873,-1.126757 z"
           id="path482"
           sodipodi:nodetypes="sccssscsscs" />
        <path
           id="path484"
           style="fill:#262529;fill-opacity:1;stroke-width:0.352778"
           d="m 137.61133,44.703125 c -5.65219,3.120684 -10.89793,6.968798 -15.67383,11.306641 -0.93877,0.96464 -1.93177,1.939357 -2.58708,3.131991 -0.3227,0.991669 0.54483,1.629136 0.88516,2.472929 1.46662,2.476642 2.14142,5.300025 3.33083,7.898986 0.20131,0.482832 0.55945,0.912318 1.13476,0.80664 1.21727,-2.755192 2.293,-5.594042 3.98361,-8.108921 2.45611,-3.819945 5.61311,-7.219868 9.42076,-9.719111 1.12636,-0.727366 2.01908,-1.854736 2.1586,-3.221836 0.34326,-1.551166 -0.9661,-2.751404 -1.67055,-3.980267 -0.33042,-0.343596 -0.42828,-1.162368 -0.98226,-0.587052 z m -0.68188,122.118265 c -1.17554,0.0875 -1.60642,1.41774 -2.18277,2.25708 -1.07107,1.92364 -2.53324,3.58497 -3.64225,5.47633 -0.30357,0.54255 0.1937,0.83664 0.65363,1.01003 1.19297,0.62515 2.40959,1.53082 3.64233,2.07579 1.17215,-0.51402 2.16886,-1.38036 3.1679,-2.17169 1.28778,-1.0497 2.39752,-2.76311 1.817,-4.47425 -0.48793,-1.47008 -1.60017,-2.9233 -2.75467,-3.92329 -0.20727,-0.13592 -0.4507,-0.24785 -0.70117,-0.25 z"
           sodipodi:nodetypes="cccccccccccccccccccc" />
      </g>
      <g
         id="g31128"
         transform="translate(346.53472,283.84762)">
        <path
           style="fill:#000000;fill-opacity:1"
           d="m 802.76172,535.87893 c -0.52538,0.3699 -1.3007,0.81625 -2.97461,1.5957 -5.47404,2.5488 -14.54895,11.0936 -19.69727,18.54687 -0.86365,1.2503 -2.28391,3.62401 -3.87695,6.44141 -1.59229,2.81676 -3.35777,6.07444 -4.91016,9.09766 -9.1e-4,0.002 -10e-4,0.004 -0.002,0.006 -6.08587,11.85194 -6.39414,12.10601 -15.11133,12.38281 -3.57737,0.1137 -3.70006,0.23613 -3.13086,3.08203 1.4413,7.20637 -2.6645,11.17463 -9.29492,8.98633 -1.8494,-0.6104 -5.78843,-3.32681 -8.7539,-6.03711 -5.73062,-5.2375 -8.59571,-5.67369 -8.59571,-1.30859 0,3.19527 6.24738,9.95907 11.9336,12.92187 2.51177,1.3086 3.99035,2.40173 3.28515,2.42773 -2.70017,0.098 -8.27361,-2.96513 -12.51953,-6.8789 -4.99277,-4.6022 -6.17492,-4.92136 -7.69336,-2.08399 -2.2943,4.2869 6.07576,12.82817 16.77735,17.11914 l 4.71679,1.89063 -4,-0.63477 c -5.26057,-0.8364 -11.21712,-3.83834 -15.27929,-7.69921 -2.6479,-2.5167 -3.61203,-2.90926 -5,-2.03516 -2.761,1.7387 -2.5422,3.93147 0.76757,7.70117 3.76314,4.286 10.79865,8.53112 16.94922,10.22852 4.54292,1.25417 4.54614,1.25917 1.0625,1.32617 -4.07047,0.078 -10.92156,-2.80532 -15.17773,-6.38672 -5.16272,-4.3442 -7.48809,-2.60577 -4.41602,3.29883 2.70374,5.19647 8.72696,9.24826 17.59375,11.83593 0.82186,0.23984 2.17312,0.36033 3.3711,0.51954 0.002,-8.8e-4 0.004,-10e-4 0.006,-0.002 1.19429,0.15879 2.50937,0.27278 3.86132,0.35742 1.63047,0.0736 3.2902,0.13484 4.9961,0.0723 0.14567,-0.005 0.27741,0.008 0.42383,0.002 3.58282,-0.15742 6.92155,-0.67406 10.24218,-1.68945 1.65955,-0.50745 3.31548,-1.13853 4.99414,-1.91211 l 0.002,-0.002 c 8.39746,-3.8704 17.38729,-11.28741 30.5,-24.41211 5.27814,-5.28297 10.19922,-10.44644 14.71093,-15.42774 v -0.002 c 3.85902,-4.26066 7.25667,-8.3041 10.48438,-12.25586 0.54623,-0.66881 1.24638,-1.41562 1.77344,-2.07422 1.82038,-2.2745 3.52604,-4.48666 5.10937,-6.6289 v -0.002 c 1.58325,-2.14216 3.04569,-4.21334 4.37891,-6.20703 v -0.002 c 1.33344,-1.99408 2.53711,-3.90901 3.60742,-5.73828 1.07031,-1.82934 2.00661,-3.57054 2.80078,-5.21875 v -0.002 c 0.29584,-0.61395 0.47681,-1.08929 0.72266,-1.63671 0.31139,-0.69353 0.67323,-1.44334 0.91406,-2.07422 0.97525,-2.55482 1.36037,-5.235 1.63086,-8.8086 z"
           id="path11975" />
      </g>
      <rect
         style="fill:#f4eed7;stroke:#000000;stroke-width:3.32945;stroke-miterlimit:4;stroke-dasharray:none;stroke-opacity:1"
         id="rect1319"
         width="254.5834"
         height="260.12549"
         x="647.41241"
         y="432.13095" />
      <path
         id="path1321"
         style="fill:#000000;stroke-width:1.7212"
         d="m 864.3315,657.79091 c -2.9684,0.14366 -6.3293,2.68628 -6.5039,6.90039 -0.2904,7.00531 0.069,8.55298 0.1953,9.83789 0.1697,1.72759 0.2669,3.35383 0.2929,4.88086 0.026,1.52806 -0.019,2.95664 -0.1347,4.2832 -0.3287,3.78496 -1.2374,6.73424 -2.6778,8.87696 l 17.6543,0.15429 c -0.256,-1.90032 -0.5621,-4.07478 -0.7285,-5.61718 -0.3498,-8.80631 0.344,-18.11471 -3.7617,-26.22852 -0.1831,-0.69612 -0.4856,-1.26854 -0.875,-1.72266 l 0.01,-0.006 c -0.8519,-0.99339 -2.1195,-1.42467 -3.4687,-1.35937 z" />
    </g>
  </g>
</svg>
