<?xml version="1.0" encoding="UTF-8" standalone="no"?>
<!-- Created with Inkscape (http://www.inkscape.org/) -->

<svg
   version="1.1"
   id="svg2"
   width="1290.949"
   height="511.2966"
   viewBox="0 0 1290.949 511.29661"
   sodipodi:docname="banana.svg"
   inkscape:version="1.1.2 (0a00cf5339, 2022-02-04)"
   xml:space="preserve"
   inkscape:export-filename="monkeys.png"
   inkscape:export-xdpi="150"
   inkscape:export-ydpi="150"
   xmlns:inkscape="http://www.inkscape.org/namespaces/inkscape"
   xmlns:sodipodi="http://sodipodi.sourceforge.net/DTD/sodipodi-0.dtd"
   xmlns="http://www.w3.org/2000/svg"
   xmlns:svg="http://www.w3.org/2000/svg"><defs
     id="defs6" /><sodipodi:namedview
     id="namedview4"
     pagecolor="#ffffff"
     bordercolor="#000000"
     borderopacity="0.25"
     inkscape:showpageshadow="2"
     inkscape:pageopacity="0.0"
     inkscape:pagecheckerboard="0"
     inkscape:deskcolor="#d1d1d1"
     showgrid="false"
     inkscape:zoom="0.58284536"
     inkscape:cx="767.78513"
     inkscape:cy="105.51684"
     inkscape:window-width="1846"
     inkscape:window-height="1016"
     inkscape:window-x="74"
     inkscape:window-y="27"
     inkscape:window-maximized="1"
     inkscape:current-layer="g8"
     inkscape:pageshadow="2" /><g
     inkscape:groupmode="layer"
     inkscape:label="Image"
     id="g8"
     transform="translate(1.641838e-7,-525.09074)"><rect
       style="fill:#ffffff;fill-opacity:1;stroke:none;stroke-width:0.711;stroke-linecap:round;stroke-dasharray:none;stroke-opacity:1"
       id="rect58508"
       width="1553.4995"
       height="633.05054"
       x="-65.44783"
       y="481.83151" /><g
       id="g31154"
       transform="translate(346.53472,301.74178)"><g
         id="g31136"><g
           id="g31124"><path
             style="fill:#e6e6e6"
             d="m 796.72962,384.7767 c 6.9812,-3.6814 14.0493,-11.2147 17.564,-18.7198 2.2214,-4.7436 2.579,-6.8754 2.5996,-15.5 0.021,-8.9531 -0.2799,-10.6578 -2.8771,-16.2821 -3.7229,-8.0619 -12.2799,-16.2065 -20.102,-19.1332 -8.2482,-3.086 -8.2449,-3.0879 -7.2036,4.1653 0.4935,3.4375 1.0717,7.1975 1.2848,8.3557 0.2131,1.1582 2.1406,3.266 4.2834,4.684 7.4513,4.9311 10.9094,16.8621 7.6935,26.5442 -2.034,6.1239 -4.6045,9.5408 -9.504,12.6338 -3.5434,2.2368 -3.7406,2.658 -4.6674,9.9676 l -0.9676,7.6322 3.0419,-0.6413 c 1.6731,-0.3527 5.6576,-2.0206 8.8545,-3.7064 z"
             id="path479" /><path
             style="fill:#e6e6e6"
             d="m 605.40842,386.3069 c -0.021,-6.625 -1.3189,-13.25 -2.5958,-13.25 -2.1744,0 -8.3675,-6.0246 -10.5097,-10.2238 -2.6707,-5.2351 -3.4501,-12.6891 -1.9041,-18.211 1.4714,-5.2554 6.7176,-11.7839 10.8424,-13.4924 2.6228,-1.0864 2.965,-1.7812 3.5275,-7.1634 0.3427,-3.2781 0.9025,-7.0738 1.2441,-8.4348 0.5466,-2.1778 0.2953,-2.4746 -2.0944,-2.4746 -5.1294,0 -14.9692,5.6578 -20.8083,11.9648 -8.5971,9.2859 -12.0786,21.0116 -9.6836,32.6149 2.865,13.8801 11.3045,23.9319 24.6344,29.3407 6.5183,2.6449 7.3577,2.5683 7.3475,-0.6704 z"
             id="path477" /><path
             style="fill:#ffffff"
             d="m 664.95162,388.1802 c 4.4501,-2.0214 14.436,-12.4341 16.8959,-17.618 4.8201,-10.1577 -1.6448,-21.9862 -12.6976,-23.232 -5.6323,-0.6348 -10.9109,1.0661 -15.3186,4.9361 l -3.4143,2.9977 v -3.4687 c 0,-4.4123 3.1263,-8.4372 8.4214,-10.8421 7.565,-3.4359 14.2069,-2.1201 24.3378,4.8214 5.0388,3.4526 7.9411,4.7347 11.4945,5.0781 4.3959,0.4247 5.3166,0.079 12.2313,-4.5924 12.4955,-8.4416 22.1203,-9.2652 29.5747,-2.5306 3.1094,2.8092 3.9403,4.2734 3.9403,6.9435 0,1.861 -0.2513,3.3837 -0.5586,3.3837 -0.3072,0 -2.3438,-1.4347 -4.5257,-3.1881 -3.2122,-2.5814 -5.0564,-3.2553 -9.6914,-3.5414 -7.5403,-0.4654 -12.7689,2.3818 -16.0386,8.7336 -4.086,7.9375 -1.1718,17.1451 8.1443,25.7323 9.4945,8.7518 17.7694,10.4989 25.7243,5.4315 10.6617,-6.7917 17.0163,-17.6741 17.7532,-30.4025 0.7732,-13.3571 -3.0335,-21.5852 -13.0553,-28.2185 -13.2767,-8.7877 -36.7508,-9.1257 -48.3865,-0.6969 l -4.0068,2.9025 -3.91,-2.9154 c -6.1188,-4.5623 -13.0497,-6.1276 -24.8284,-5.6075 -16.8803,0.7453 -27.5019,6.2768 -33.1101,17.2426 -2.7087,5.2964 -3.006,6.7954 -2.967,14.957 0.055,11.4717 2.5851,18.3618 9.5361,25.9673 8.3214,9.1049 16.0474,11.546 24.4551,7.7268 z"
             id="path471" /><path
             style="fill:#ffffff"
             d="m 706.80662,475.6543 c 4.0219,-2.6859 6.1984,-3.3578 5.0954,-1.573 -0.3482,0.5634 -0.3309,2.4004 0.038,4.0822 l 0.6716,3.0578 8.1525,-7.8702 c 4.4838,-4.3286 11.2617,-10.3114 15.0619,-13.2952 8.9093,-6.9952 13.9344,-14.6631 16.1573,-24.6546 3.9716,-17.8516 -3.372,-31.8123 -20.9468,-39.8214 -3.9733,-1.8107 -11.4758,-6.1898 -16.6721,-9.7314 -9.7601,-6.652 -14.3673,-8.7987 -18.8471,-8.7819 -3.595,0.014 -10.9127,3.6054 -21.999,10.7983 -5.1691,3.3538 -11.6941,6.9004 -14.5,7.8814 -3.6496,1.276 -6.9687,3.6377 -11.6607,8.2972 -8.1474,8.0908 -10.4732,14.1777 -9.6917,25.3648 0.9642,13.8022 5.9956,22.1736 20.0815,33.4125 3.8564,3.077 10.0268,8.4389 13.712,11.9153 3.6852,3.4764 6.9831,6.3208 7.3288,6.3208 0.3456,0 0.6284,-1.8116 0.6284,-4.0257 v -4.0257 l 3.25,1.6573 c 1.7875,0.9115 5.4258,3.6769 8.0851,6.1454 l 4.8352,4.4882 3.6648,-3.5223 c 2.0157,-1.9373 5.4152,-4.6912 7.5544,-6.1198 z"
             id="path463" /></g><path
           id="path303"
           style="fill:#000000"
           d="m 701.15234,242.21484 c -1.34491,0.009 -3.87499,0.48367 -7.89843,1.25782 -6.13039,1.17947 -11.89183,3.04332 -17.23829,5.46679 -0.83921,0.38047 -1.69466,0.73874 -2.51171,1.14844 -7.7e-4,3.8e-4 -10e-4,0.002 -0.002,0.002 -0.68028,0.34115 -1.32385,0.72868 -1.98828,1.08985 -1.7611,0.95713 -3.46722,1.97931 -5.11133,3.07422 -0.48067,0.32015 -0.98486,0.6136 -1.45507,0.94531 -7.4e-4,5.2e-4 -10e-4,10e-4 -0.002,0.002 -0.31496,0.22221 -0.60387,0.47187 -0.91406,0.69922 -2.33515,1.71124 -4.55753,3.54195 -6.60742,5.53711 -1.37761,1.34088 -2.63103,2.4857 -3.53906,3.25 -0.90655,0.76289 -1.46875,1.14793 -1.46875,0.9668 v -0.002 c 6.4e-4,-0.48566 1.2264,-3.10464 2.79296,-6.14257 4.2e-4,-8.2e-4 0.002,-0.001 0.002,-0.002 1.5676,-3.03963 3.47486,-6.49985 4.83984,-8.66211 1.29984,-2.05929 2.36328,-4.00246 2.36328,-4.31836 0,-0.0789 -0.69686,0.23154 -1.06445,0.35547 -0.36809,0.12431 -0.40674,0.0619 -1.0625,0.35352 -0.003,0.001 -10e-4,8.3e-4 -0.004,0.002 -0.0451,0.0201 -0.12953,0.0652 -0.17578,0.0859 -1.30165,0.58409 -3.01805,1.41844 -4.94336,2.42773 -4.32207,2.26568 -8.40597,5.29944 -12.07226,8.81836 -0.13519,0.12977 -0.28397,0.24192 -0.41797,0.37305 -2.51133,2.45741 -4.81324,5.15147 -6.83594,8.00195 -5.3e-4,7.5e-4 -10e-4,0.001 -0.002,0.002 -3.03411,4.27622 -5.44029,8.90507 -6.98828,13.61328 -0.14267,0.43384 -0.26729,0.74387 -0.39063,0.91992 -0.12219,0.17566 -0.24378,0.21598 -0.38281,0.11133 -0.28003,-0.21079 -0.62999,-1.01639 -1.19727,-2.53125 -0.7208,-1.92498 -1.34472,-4.51254 -1.38672,-5.75 -0.0418,-1.2375 -0.46927,-2.25 -0.95117,-2.25 -0.17645,0 -0.42835,0.20167 -0.74023,0.56836 -0.31266,0.36784 -0.68525,0.90243 -1.10156,1.57226 -2.49718,4.01769 -6.57088,12.88025 -8.73829,19.47461 l -2.66601,8.11328 h -0.002 l -5.82813,0.60938 c -11.25628,1.17647 -22.42869,7.10646 -30.60351,15.48828 -4.90454,5.02908 -8.72914,10.94062 -10.84571,17.23828 -1.78995,5.32559 -2.65752,13.37257 -2.34961,20.09766 0.10282,2.24169 0.33569,4.3366 0.70899,6.13476 0.98497,4.74453 2.75204,9.31446 5.14843,13.5586 4.79286,8.48779 12.10097,15.67398 20.69336,20.3457 4.9e-4,2.6e-4 10e-4,-2.6e-4 0.002,0 2.14767,1.16757 4.3751,2.17901 6.66406,3.01367 5.6e-4,2e-4 10e-4,-2e-4 0.002,0 2.28896,0.83456 4.63945,1.49317 7.03125,1.95703 6.2e-4,1.2e-4 0.001,-1.2e-4 0.002,0 5.87095,1.13862 8.2388,2.37533 7.26562,4.46875 -0.19436,0.4181 -0.52067,0.87088 -0.98047,1.36328 -0.92028,0.98579 -2.37071,2.13209 -4.33984,3.48828 -1.19361,0.82204 -2.42257,1.82633 -3.65235,2.8418 -0.35069,0.2896 -0.68801,0.50608 -1.04101,0.81055 -7.3e-4,6.3e-4 -10e-4,10e-4 -0.002,0.002 -0.0915,0.0789 -0.18573,0.18183 -0.27735,0.26172 -1.502,1.30973 -3.02021,2.72836 -4.54883,4.28711 -0.84789,0.86454 -1.69992,1.85678 -2.55078,2.79102 -0.77712,0.85327 -1.55347,1.64134 -2.33008,2.54882 -3.2e-4,3.8e-4 3.3e-4,0.002 0,0.002 -1.62657,1.90075 -3.24854,3.91617 -4.85351,6.02929 -0.45314,0.59667 -0.89172,1.25535 -1.3418,1.86719 -1.14444,1.55558 -2.29223,3.10522 -3.41015,4.75 -3.1e-4,4.5e-4 3e-4,0.002 0,0.002 -1.5572,2.29113 -3.0851,4.6611 -4.56836,7.09571 -2.9e-4,4.7e-4 2.8e-4,10e-4 0,0.002 -2.96663,4.86987 -5.75946,9.99159 -8.27344,15.22852 -2.5e-4,5.2e-4 2.5e-4,0.001 0,0.002 -3.70523,7.71873 -7.21884,16.76455 -10.21484,25.98242 -0.99824,3.07133 -1.94147,6.1614 -2.8125,9.22852 -3.4e-4,0.001 3.3e-4,0.003 0,0.004 -0.87097,3.06705 -1.67304,6.11036 -2.39258,9.08789 -2.9e-4,10e-4 2.9e-4,0.003 0,0.004 -0.71946,2.97739 -1.35853,5.88882 -1.90235,8.69141 -2.3e-4,0.001 2.4e-4,0.003 0,0.004 -0.5437,2.80236 -0.99403,5.49678 -1.33789,8.03906 -1.6e-4,0.001 1.7e-4,0.003 0,0.004 -0.34372,2.54194 -0.58148,4.93229 -0.70117,7.12891 -0.14687,2.69524 -0.13857,5.00188 0.082,7.0625 1.8e-4,0.002 -1.8e-4,0.004 0,0.006 0.11029,1.02806 0.27455,1.99533 0.49805,2.91797 2.9e-4,10e-4 -2.9e-4,0.003 0,0.004 0.2238,0.92309 0.50775,1.80168 0.85937,2.6543 1.40835,3.415 3.90021,6.40601 7.93946,10.09765 11.74916,10.73811 34.58524,23.11058 55.82617,31.37305 12.74458,4.95715 24.9152,8.43481 33.77148,9.19336 0.33817,0.029 1.18295,0.14598 1.58008,0.18359 4.31073,0.40841 11.38833,1.21624 17.15039,2.00196 6.29282,0.8581 13.77892,1.31853 16.63672,1.02343 8.41241,-0.86809 13.2937,-4.26497 11.7832,-8.20117 -0.4793,-1.249 -2.51334,-1.42433 -12.21875,-1.05273 -9.85811,0.3775 -10.53463,0.31721 -4.41601,-0.39649 8.26993,-0.96479 19.71309,-4.23322 23.02148,-6.57421 2.64254,-1.8698 3.01352,-6.25063 0.60742,-7.17383 -0.90359,-0.3467 -5.51616,0.11489 -10.25,1.02539 -9.25771,1.781 -14.2963,2.20008 -20.60742,1.70898 -2.83899,-0.221 -1.58712,-0.54388 4.3086,-1.11328 15.5891,-1.5056 29.07586,-8.06546 28.01562,-13.62695 -0.5203,-2.7289 -3.99681,-2.68828 -11.82812,0.13672 -3.90458,1.4084 -9.66336,2.80873 -12.79688,3.11133 -3.1337,0.30249 -7.03517,0.76033 -8.66797,1.01953 -5.71679,0.9073 -1.03902,-1.30856 6.46875,-3.06446 16.06703,-3.75749 27.23107,-12.80758 20.79688,-16.85937 -1.32578,-0.8348 -3.09951,-0.38108 -8,2.04492 -7.36632,3.6466 -15.89923,6.3125 -20.19922,6.3125 -2.60382,0 -2.03939,-0.47941 3.93164,-3.3457 9.32791,-4.4776 13.4707,-8.05647 13.4707,-11.63477 0,-4.38009 -2.4757,-4.41194 -9.82617,-0.12305 -3.66974,2.141 -8.9239,4.60436 -11.67383,5.47266 -10.79876,3.4098 -29.06172,5.33837 -37.3457,4.44727 -3.58998,-0.5207 -6.05517,-2.3556 -8.15234,-4.3711 -1.05527,-1.0158 -2.49109,-2.44318 -4.03516,-4.01758 -4.07482,-4.155 -8.28682,-7.78486 -12.37109,-10.77734 -1.79179,-1.31276 -3.55736,-2.49649 -5.27539,-3.54101 -0.11015,-0.0668 -0.21448,-0.11797 -0.32422,-0.1836 -1.47489,-0.88425 -2.90147,-1.63816 -4.28711,-2.30078 -0.40734,-0.19391 -0.80519,-0.36737 -1.20313,-0.54102 -1.08628,-0.4762 -2.12704,-0.86125 -3.13281,-1.17968 -0.40694,-0.12806 -0.8248,-0.27772 -1.2168,-0.37891 -1.27329,-0.33055 -2.48564,-0.55323 -3.57812,-0.58398 -0.0243,-6.9e-4 -0.054,-0.009 -0.0781,-0.01 -1.96851,-0.0437 -2.94454,-0.0714 -3.08984,-0.21484 -0.15486,-0.14157 0.52381,-0.39657 1.90039,-0.89844 0.002,-6.2e-4 2.6e-4,-0.001 0.002,-0.002 0.87588,-0.3193 1.96869,-0.45971 3.20508,-0.4375 1.12034,0.0201 2.379,0.21515 3.68359,0.49023 0.36239,0.0763 0.72236,0.17863 1.09375,0.27344 1.00973,0.25743 2.02704,0.57582 3.07227,0.96289 0.39177,0.14495 0.76585,0.27534 1.1582,0.4375 1.38788,0.5733 2.77048,1.21513 4.09766,1.98828 l 2.14648,1.25 c 7.1e-4,0.001 10e-4,0.003 0.002,0.004 l 1.97265,1.14843 3.03125,-4.87695 c 1.6673,-2.6821 3.25274,-6.67878 4.03907,-8.67187 0.97375,-2.29 1.96132,-6.20435 2.39062,-7.68555 0.42924,-1.4812 2.64852,-10.45916 2.86133,-10.88086 0.21281,-0.4217 0.89253,-3.89392 1.86328,-8.01172 0.9708,-4.1178 2.54335,-7.22022 2.75195,-7.01172 0.2085,0.2086 -0.40673,4.12713 -1.21484,8.73633 l -1.80469,10.29687 c -0.31928,2.1001 -1.43575,6.09266 -2.24219,9.78126 -0.80643,3.68859 -3.07045,9.35028 -4.94921,13.05078 l -3.53125,6.86132 5.93554,6.10352 c 2.96258,3.0466 6.34227,6.75998 8.04883,8.10938 1.86153,1.78849 4.79723,2.39643 7.29688,3.01953 3.52461,0.4975 7.10115,0.24174 10.64062,0.0605 3.2145,-0.2115 6.46302,-0.5278 9.72656,-0.9707 3.60952,-0.5017 7.41459,-1.1831 11.04688,-2.0293 3.78846,-0.7745 7.41419,-2.17594 10.86523,-3.90234 3.96215,-1.8025 7.49011,-4.53635 11.70117,-5.78125 2.45447,-0.8786 5.50575,-0.42841 7.22852,1.64648 1.99689,2.6601 2.01737,6.47327 0.55078,9.38477 1.50408,-0.7039 3.05345,-1.34086 4.68164,-1.69336 3.99538,-1.1104 8.38579,2.06136 8.91211,6.09766 0.40397,2.90899 -1.08773,5.70371 -3.07617,7.72461 1.10449,-0.0245 2.22475,0.10835 3.26172,0.50195 2.56409,0.8672 4.22654,3.54384 4.11328,6.21094 0.0155,3.05399 -1.98029,5.64807 -4.19922,7.54687 1.12192,0.3915 2.1283,1.11274 2.85156,2.05664 2.31293,3.1465 1.6567,7.73867 -0.80664,10.60547 -1.79811,2.1027 -4.47199,3.14628 -6.99023,4.11328 0.41615,0.7272 0.69114,1.53273 0.81445,2.36133 0.52966,3.0218 -1.04491,6.05475 -3.41406,7.87305 -3.38212,2.55519 -7.6561,4.25012 -16.73633,3.95312 -9.08024,-0.297 -12.6535,-1.18129 -17.73633,-1.87109 -3.33764,-0.45289 -9.61984,-1.19293 -15.55273,-2 -3.0203,-0.35522 -5.89988,-0.76686 -8.11524,-1.23438 -0.0974,-0.0206 -0.2926,-0.0379 -0.38672,-0.0586 -1.0383,-0.22796 -1.67046,-0.33547 -1.76757,-0.0391 -0.15462,0.50011 1.18693,2.12709 4.63476,6.1914 12.10588,14.27037 25.64802,36.86382 35.73633,58.93164 2.4e-4,5.3e-4 -2.4e-4,10e-4 0,0.002 3.36246,7.35538 6.34185,14.65135 8.75586,21.5625 l 3.66797,10.5 8.4375,1.7832 c 6.58148,1.3906 11.62417,1.69495 22.93555,1.37695 17.80536,-0.5005 27.15893,-2.98171 43.49609,-11.53711 l 10.99414,-5.75976 0.74219,-5.83985 0.45508,-3.58593 c 2.2e-4,-0.002 -2.3e-4,-0.004 0,-0.006 0.32859,-2.59258 0.8571,-5.624 1.44336,-8.41992 3e-4,-10e-4 -3.1e-4,-0.002 0,-0.004 0.58626,-2.79551 1.23187,-5.35382 1.79296,-7.00391 3e-4,-8.6e-4 -2.9e-4,-0.003 0,-0.004 0.56107,-1.64917 1.02095,-2.80942 1.31055,-3.35352 4.7e-4,-8.8e-4 -4.7e-4,-10e-4 0,-0.002 0.14561,-0.27341 0.2485,-0.38819 0.29883,-0.33203 0.0498,0.0555 0.0489,0.27733 -0.0117,0.6875 -3.4e-4,0.002 3.4e-4,0.002 0,0.004 -0.8523,5.76357 -1.45921,10.56668 -1.80469,14.625 -9e-5,0.001 9e-5,0.003 0,0.004 -0.34526,4.05745 -0.42947,7.37044 -0.23828,10.15625 8e-5,10e-4 -8e-5,0.003 0,0.004 0.0957,1.39172 0.25896,2.65322 0.49414,3.80859 2.4e-4,10e-4 -2.4e-4,0.003 0,0.004 0.70647,3.46759 2.05151,5.99208 4.08203,8.30468 4.4371,5.0536 9.90374,6.90937 19.44532,6.60157 15.66616,-0.5056 15.30096,-0.54609 18.06836,2.03711 1.44488,1.34878 3.53588,4.25117 4.64648,6.45117 1.1105,2.19998 2.72524,4.80421 3.58984,5.78711 h 0.002 c 1.53363,1.74337 3.16818,1.9015 4.64257,0.53125 5.8e-4,-5.4e-4 10e-4,-10e-4 0.002,-0.002 0.49076,-0.45666 0.96454,-1.08382 1.41015,-1.87695 7e-4,-10e-4 10e-4,-0.003 0.002,-0.004 0.42117,-0.75036 0.6877,-1.58206 0.81445,-2.4707 0.8858,-6.23215 -5.15025,-15.32177 -13.71484,-19.71094 -3.05168,-1.56397 -4.24048,-2.51459 -3.88282,-2.69336 0.34665,-0.18474 2.24143,0.40217 5.38477,1.92383 5.46648,2.6463 10.92526,8.39299 14.28516,15.04297 2.81208,5.5658 5.20914,7.08289 7.79882,4.93359 0.45792,-0.3801 0.80396,-1.01088 1.03711,-1.80664 0.6995,-2.39435 0.38009,-6.28997 -0.9707,-9.43164 -1.72514,-4.01239 -7.70737,-9.78357 -13.61719,-13.13867 -2.86083,-1.62411 -3.96859,-2.46192 -3.58203,-2.49414 0.36771,-0.0428 2.23389,0.72137 5.36719,2.32617 6.43428,3.2955 12.72079,10.06549 14.93359,16.08399 1.92612,5.23862 4.43271,6.77635 6.82422,4.34375 0.001,-10e-4 0.003,-0.003 0.004,-0.004 0.34094,-0.3475 0.67938,-0.77543 1.01367,-1.28516 7.9e-4,-10e-4 10e-4,-0.003 0.002,-0.004 0.42221,-0.64438 0.71575,-1.36751 0.89258,-2.15039 1.23735,-5.4868 -3.33641,-13.91628 -10.73437,-18.89844 -2.15211,-1.44928 -3.7252,-2.69779 -4.11719,-3.22656 -0.13203,-0.17517 -0.13133,-0.26874 0.0117,-0.27149 0.002,-4e-5 -0.002,-0.004 0,-0.004 1.6335,0 8.61559,5.29555 11.49609,8.71875 1.3958,1.6588 3.12224,4.42535 3.83594,6.14843 1.29012,3.11456 3.33569,3.68444 4.68555,2.26563 0.12986,-0.1365 0.22804,-0.34866 0.34374,-0.52148 0.12414,-0.1857 0.26442,-0.33419 0.36915,-0.56055 0.10657,-0.23036 0.16882,-0.53545 0.25195,-0.80664 0.0751,-0.2447 0.17512,-0.45153 0.22851,-0.72852 2.3e-4,-10e-4 -2.2e-4,-0.003 0,-0.004 0.11214,-0.58322 0.17288,-1.23735 0.17188,-1.95704 0,-0.001 0,-0.003 0,-0.004 -0.001,-0.94714 -0.11821,-1.87452 -0.34766,-2.7793 -0.23011,-0.90593 -0.57443,-1.79048 -1.02929,-2.65039 -2.5e-4,-4.6e-4 2.4e-4,-10e-4 0,-0.002 -2.72968,-5.15886 -9.46649,-9.45506 -19.75391,-12.50586 -13.36135,-3.9626 -14.6215,-4.52806 -17.38672,-7.81445 -2.35456,-2.79825 -3.04435,-5.54687 -1.81641,-10.45508 4.6e-4,-0.002 0.002,-0.004 0.002,-0.006 0.24527,-0.9805 0.56651,-2.04636 0.9668,-3.2168 3.8e-4,-10e-4 0.002,-0.003 0.002,-0.004 0.80146,-2.34282 1.91879,-5.10271 3.36523,-8.41796 9.3e-4,-0.002 10e-4,-0.004 0.002,-0.006 0.8472,-1.94165 1.47465,-3.49592 2.17578,-5.18555 0.43716,-1.05373 1.00747,-2.35599 1.35547,-3.23047 0.90535,-2.2743 1.46568,-3.83534 1.46679,-4.14062 0,-2.7e-4 0.002,-0.004 0.002,-0.004 0,-0.60583 1.07004,-4.81979 2.37695,-9.36328 3.8e-4,-10e-4 0.002,-0.003 0.002,-0.004 0.81714,-2.8405 1.53668,-5.80585 2.14649,-8.77734 0.60999,-2.97272 1.10893,-5.95134 1.48047,-8.81641 0.74306,-5.73013 0.97838,-11.00655 0.58203,-14.875 -0.647,-6.31469 -3.15113,-14.29297 -4.48633,-14.29297 -0.18857,0.002 -1.30709,1.20775 -2.95899,3.1543 -0.38451,0.45307 -0.99434,1.2365 -1.43164,1.76367 -1.44322,1.73991 -2.94784,3.55867 -4.73047,5.82813 -10e-4,10e-4 -9.4e-4,0.003 -0.002,0.004 -1.43956,1.83255 -3.16838,3.90403 -5.10937,6.13867 -10e-4,10e-4 -9.2e-4,0.003 -0.002,0.004 -1.94136,2.23499 -4.09494,4.63094 -6.38281,7.11328 -10e-4,10e-4 -0.003,0.002 -0.004,0.004 -4.57684,4.96576 -9.6917,10.27255 -14.7246,15.29883 l -0.002,0.002 c -10.06844,10.05515 -19.80925,18.99327 -24.25586,21.85352 -3.08354,1.98346 -5.65759,3.54804 -7.98242,4.79101 -2.26358,1.21022 -4.2894,2.1082 -6.30273,2.76953 -4.11745,1.35257 -8.19724,1.72311 -14.21485,1.74219 -3.05646,0.01 -5.16144,-0.0538 -6.98437,-0.17578 -0.23649,-0.0171 -0.51355,-0.046 -0.73633,-0.0664 -3.23633,-0.28501 -5.28486,-0.89915 -8.36524,-2.34375 -7.55311,-3.54199 -12.72489,-8.84626 -13.52929,-13.87695 -0.20164,-1.2611 -0.43556,-2.08401 -0.5918,-3.44141 -0.15624,-1.3573 -0.53911,-2.94621 -1.28711,-4.57031 -0.748,-1.6242 -1.19849,-3.16564 -1.18359,-4.71484 -0.002,-2.9621 2.24821,-5.47275 4.85937,-6.59375 -0.59718,-1.66 -0.77244,-3.50444 -0.24218,-5.20703 0.7301,-2.378 2.49605,-4.74616 5.08203,-5.19336 -0.11434,-1.6516 0.10756,-3.49215 1.01172,-4.96485 1.21491,-2.2755 4.11941,-3.14428 6.51367,-2.45898 3.9149,1.2097 6.72396,4.36793 9.82422,6.86523 1.93621,1.3905 3.7983,3.0949 6.16601,3.6875 1.06023,0.2362 2.67285,0.33044 3.09571,-0.94336 0.78197,-2.03209 -0.2034,-4.13587 -0.2461,-6.20117 -0.002,-2.5619 1.52489,-4.6949 4.17383,-4.8457 l 4.71484,-0.24414 1.03907,-0.0547 c -1.2e-4,-0.002 1.1e-4,-0.004 0,-0.006 l 5.25586,-0.27148 4.75976,-10.23438 c 2.46509,-5.29924 6.3872,-11.818 10.25,-17.3789 9e-4,-10e-4 0.001,-0.003 0.002,-0.004 2.89655,-4.1696 5.76033,-7.79823 7.95313,-9.9707 0.73208,-0.72531 1.38851,-1.29014 1.94726,-1.65625 l 2.55274,-1.67383 -2.97266,-3.71094 c -3.0751,-3.83924 -6.32092,-10.98648 -8.99609,-19.15234 -1.30468,-3.98226 -2.4694,-8.20691 -3.41406,-12.41211 -0.97396,-4.33627 -1.71758,-8.64799 -2.1211,-12.65039 -0.15748,-1.56201 -0.18697,-2.36039 -0.0625,-2.33008 4.1e-4,6e-5 -4.1e-4,-0.008 0,-0.008 3.9e-4,7e-5 0.004,0.0136 0.004,0.0137 0.20561,0.0674 0.83552,2.4083 1.97461,7.16406 0.0193,0.0804 0.0136,0.0393 0.0332,0.12109 4.2484,17.76988 7.88455,27.34886 14.27735,37.61524 l 2.54101,4.08008 3.60156,-1.28711 c 1.981,-0.708 4.72657,-1.30132 6.10157,-1.32032 0.48254,-0.007 0.79323,0.0271 0.9375,0.10743 0.13982,0.0779 0.12416,0.19939 -0.0762,0.3789 -0.39881,0.36397 -1.52598,0.95841 -3.49023,1.87305 -5.47404,2.5488 -14.54895,11.09358 -19.69727,18.54687 -0.86365,1.2503 -2.28391,3.62401 -3.87695,6.44141 -1.59229,2.81676 -3.35777,6.07444 -4.91016,9.09766 -9.1e-4,0.002 -10e-4,0.004 -0.002,0.006 -6.08589,11.85198 -6.39412,12.10601 -15.11133,12.38281 -3.57739,0.1137 -3.70006,0.23613 -3.13086,3.08203 1.4413,7.20639 -2.6645,11.17463 -9.29492,8.98633 -1.8494,-0.6104 -5.78841,-3.32681 -8.7539,-6.03711 -5.73062,-5.2375 -8.59571,-5.67369 -8.59571,-1.30859 0,3.19529 6.24738,9.95907 11.9336,12.92187 2.51179,1.3086 3.99035,2.40173 3.28515,2.42773 -2.70019,0.098 -8.27361,-2.96511 -12.51953,-6.8789 -4.99279,-4.6022 -6.17492,-4.92138 -7.69336,-2.08399 -2.2943,4.2869 6.07574,12.82815 16.77735,17.11914 l 4.71679,1.89063 -4,-0.63477 c -5.26059,-0.8364 -11.2171,-3.83832 -15.27929,-7.69921 -2.6479,-2.5167 -3.61201,-2.90926 -5,-2.03516 -2.761,1.7387 -2.54222,3.93147 0.76757,7.70117 3.76314,4.286 10.79863,8.53112 16.94922,10.22852 4.54292,1.25419 4.54614,1.25917 1.0625,1.32617 -4.07049,0.078 -10.92154,-2.80532 -15.17773,-6.38672 -5.16272,-4.3442 -7.48811,-2.60577 -4.41602,3.29883 2.70374,5.19649 8.72694,9.24824 17.59375,11.83593 0.82186,0.23984 2.17312,0.36033 3.3711,0.51954 0.002,-8.8e-4 0.004,-0.001 0.006,-0.002 1.19431,0.15879 2.50935,0.27276 3.86132,0.35742 1.63047,0.0736 3.2902,0.13484 4.9961,0.0723 0.14567,-0.005 0.27741,0.008 0.42383,0.002 3.58284,-0.15742 6.92153,-0.67406 10.24218,-1.68945 1.65955,-0.50745 3.31546,-1.13853 4.99414,-1.91211 7.7e-4,-3.5e-4 10e-4,-0.002 0.002,-0.002 8.39748,-3.8704 17.38727,-11.28739 30.5,-24.41211 5.27816,-5.28297 10.1992,-10.44644 14.71093,-15.42774 3.6e-4,-3.9e-4 -3.5e-4,-0.002 0,-0.002 3.85902,-4.26068 7.25667,-8.3041 10.48438,-12.25586 0.54623,-0.66881 1.24638,-1.41562 1.77344,-2.07422 1.82038,-2.27452 3.52604,-4.48664 5.10937,-6.6289 3.3e-4,-4.5e-4 -3.3e-4,-0.002 0,-0.002 1.58325,-2.14218 3.04569,-4.21334 4.37891,-6.20703 3.2e-4,-4.8e-4 -3.3e-4,-10e-4 0,-0.002 1.33344,-1.99408 2.53711,-3.90901 3.60742,-5.73828 1.07031,-1.82934 2.00661,-3.57054 2.80078,-5.21875 3e-4,-6.2e-4 -2.9e-4,-10e-4 0,-0.002 0.29584,-0.61397 0.47681,-1.08929 0.72266,-1.63671 0.31139,-0.69353 0.67323,-1.44334 0.91406,-2.07422 1.29332,-3.38804 1.64871,-6.22827 1.91016,-12.34961 0.4618,-10.80979 -0.87023,-17.20685 -11.67188,-56.00781 -2.06089,-7.4029 -3.84857,-13.54482 -5.51367,-18.78711 -2.2e-4,-6.8e-4 2.1e-4,-0.001 0,-0.002 -3.32991,-10.48344 -6.16704,-17.36951 -9.70117,-23.55078 -2.8e-4,-4.8e-4 2.7e-4,-0.001 0,-0.002 -0.88368,-1.54542 -1.81129,-3.04633 -2.80078,-4.54883 -0.98944,-1.5025 -2.0413,-3.0047 -3.17383,-4.55469 -2.5e-4,-3.3e-4 2.4e-4,-0.002 0,-0.002 -1.223,-1.6738 -2.89464,-3.63229 -4.79297,-5.66992 -1.89821,-2.03731 -4.02287,-4.15385 -6.15234,-6.14063 -3.9e-4,-3.5e-4 -0.002,3.6e-4 -0.002,0 -2.12943,-1.98669 -4.26307,-3.84528 -6.17968,-5.36718 -5.3e-4,-4.2e-4 -10e-4,4.1e-4 -0.002,0 -1.91688,-1.52206 -3.61529,-2.70696 -4.875,-3.34961 -0.78228,-0.3991 -1.42196,-0.7615 -1.93945,-1.10352 -5e-4,-3.3e-4 -10e-4,3.3e-4 -0.002,0 -0.5172,-0.34192 -0.9105,-0.66645 -1.19922,-0.99219 -0.57829,-0.65242 -0.7356,-1.31108 -0.61524,-2.14453 1.3e-4,-9.1e-4 0.002,-10e-4 0.002,-0.002 0.0648,-0.44884 0.18988,-0.82536 0.43359,-1.1582 4.6e-4,-6.3e-4 10e-4,-0.001 0.002,-0.002 0.24422,-0.33272 0.60838,-0.62208 1.14453,-0.89648 5.8e-4,-3e-4 10e-4,-0.002 0.002,-0.002 0.53724,-0.27458 1.25047,-0.53267 2.19336,-0.80665 0.9449,-0.27456 2.11997,-0.56447 3.58593,-0.89648 7.87362,-1.78303 13.02466,-4.01003 18.50977,-8.39258 6.5e-4,-5.2e-4 10e-4,-0.001 0.002,-0.002 1.828,-1.46072 3.69352,-3.16125 5.70899,-5.16406 6.9e-4,-6.9e-4 10e-4,-10e-4 0.002,-0.002 2.09625,-2.0832 3.92527,-4.13548 5.51953,-6.21484 5.6e-4,-7.4e-4 10e-4,-10e-4 0.002,-0.002 0.79676,-1.0393 1.5339,-2.08618 2.2168,-3.14649 4.9e-4,-7.6e-4 10e-4,-0.001 0.002,-0.002 0.68282,-1.06032 1.31005,-2.13449 1.88672,-3.23047 4.1e-4,-7.7e-4 0.002,-10e-4 0.002,-0.002 0.5766,-1.09603 1.10192,-2.215 1.58007,-3.36133 3.2e-4,-7.6e-4 0.002,-0.001 0.002,-0.002 0.4781,-1.14641 0.90757,-2.32185 1.29492,-3.53321 0.7751,-2.42443 1.37611,-4.99302 1.83398,-7.76562 3.24219,-19.63201 -6.27198,-39.00424 -22.29296,-49.35742 -4.8e-4,-3.1e-4 -10e-4,3e-4 -0.002,0 -2.6698,-1.72518 -5.51926,-3.20089 -8.52148,-4.38477 -5.7e-4,-2.3e-4 -10e-4,2.3e-4 -0.002,0 -1.50084,-0.59177 -3.0402,-1.11143 -4.61328,-1.55273 -6e-4,-1.7e-4 -10e-4,1.7e-4 -0.002,0 -1.5737,-0.44142 -3.18157,-0.80328 -4.82031,-1.08399 -3.25385,-0.55737 -4.88651,-0.84296 -6.04492,-1.63281 -0.57904,-0.39438 -1.03937,-0.91431 -1.52344,-1.6582 -2.4e-4,-3.7e-4 2.4e-4,-0.002 0,-0.002 -0.48417,-0.74428 -0.9934,-1.71161 -1.66797,-3 -2.3e-4,-4.4e-4 2.3e-4,-0.002 0,-0.002 -0.86435,-1.6509 -2.0032,-3.43874 -3.31641,-5.25391 -1.31347,-1.81554 -2.80029,-3.65809 -4.36523,-5.41601 -1.56428,-1.75724 -3.20604,-3.42829 -4.82422,-4.90625 -1.6185,-1.47818 -3.21453,-2.76138 -4.68945,-3.73828 l -4.59375,-3.04297 h 0.004 l -0.002,-0.002 4.83203,-0.30859 4.83008,-0.30664 -5.31055,-4.22852 c -1.68237,-1.33904 -3.50604,-2.52534 -5.45703,-3.55078 -1.95099,-1.02543 -4.02885,-1.89144 -6.21875,-2.59375 -4.37979,-1.40461 -9.20813,-2.15203 -14.36523,-2.20703 l -7.64649,-0.0801 0.008,-0.004 h -0.006 l 6.47851,-3.11328 6.4707,-3.11133 -4.47265,-1.98047 c -7.84762,-3.47641 -22.32615,-3.38994 -33.24414,-0.13281 -1.55972,0.4653 -3.04698,0.99631 -4.43164,1.58984 -3.00635,1.28874 -3.90501,1.61432 -3.80664,1.02539 0.0125,-0.0765 0.10839,-0.24023 0.15234,-0.34766 0.0685,-0.16737 0.10475,-0.30104 0.23438,-0.54296 0.50762,-0.94741 2.80626,-3.85926 5.10546,-6.47071 0.001,-0.002 5.7e-4,-0.002 0.002,-0.004 1.46727,-1.66633 2.46304,-2.81676 2.81445,-3.55078 4.3e-4,-9e-4 -4.3e-4,-10e-4 0,-0.002 0.34852,-0.732 0.053,-1.04695 -1.06641,-1.03906 v -0.002 z m 116.44727,70.1875 c -0.11779,0.0173 -0.18159,0.0812 -0.18359,0.19336 v 0.002 c 7.7e-4,0.3338 1.39217,2.62539 3.09179,5.0957 4.4029,6.39948 8.53945,15.95856 10.03125,23.18164 1.2551,6.07648 1.4371,6.32669 8.33008,11.42969 9.46838,7.00958 23.76551,21.594 30.74609,31.36328 22.40153,31.35082 30.53931,69.388 24.5293,102.60351 -0.60072,3.32002 -1.34129,6.59253 -2.22461,9.80469 -3.7e-4,10e-4 -0.002,0.003 -0.002,0.004 -0.88343,3.21206 -1.90843,6.36409 -3.07422,9.44531 -7.2e-4,0.002 -10e-4,0.004 -0.002,0.006 -1.16575,3.08054 -2.47216,6.09082 -3.91992,9.01758 -6.5e-4,0.001 -10e-4,0.003 -0.002,0.004 -1.44815,2.92721 -3.03753,5.77112 -4.76758,8.52149 -3.46234,5.5052 -7.48786,10.63439 -12.07812,15.29297 -7.15401,7.26049 -14.98035,12.82602 -25.41016,18.07422 -3.98539,2.00553 -7.24264,3.78084 -7.24609,3.94726 9.4e-4,0.16664 0.84468,2.06978 1.87891,4.23438 0.61142,1.27972 1.17497,2.74408 1.67578,4.32422 1.9e-4,6.2e-4 -2e-4,10e-4 0,0.002 0.50058,1.57964 0.93887,3.27518 1.30078,5.01953 2.6e-4,0.001 -2.7e-4,0.003 0,0.004 0.72359,3.48886 1.14258,7.17096 1.14258,10.50586 0,1.74048 -0.15215,3.89762 -0.41797,6.26953 -0.26554,2.36941 -0.64619,4.95357 -1.10547,7.54883 -0.45915,2.5945 -0.99483,5.20072 -1.57617,7.61718 -3.2e-4,10e-4 -0.002,0.003 -0.002,0.004 -0.58134,2.41599 -1.20582,4.64243 -1.83789,6.47656 -4e-4,10e-4 -0.002,0.003 -0.002,0.004 l -2.00781,5.83008 4.22461,-0.66602 c 12.26194,-1.93345 26.13852,-7.61075 39.1875,-15.73047 7.6e-4,-4.7e-4 10e-4,-10e-4 0.002,-0.002 7.82979,-4.87229 15.36161,-10.62415 22.06836,-16.97266 2.34474,-2.21949 4.44424,-4.27005 5.9375,-5.78515 1.49087,-1.51269 2.37316,-2.48812 2.29687,-2.57032 -0.16049,-0.15841 -2.75852,0.52686 -5.77734,1.52344 -5.32703,1.7586 -16.00179,3.71535 -14.99219,2.74805 1.1e-4,-10e-5 0.004,-0.002 0.004,-0.002 10e-4,-10e-4 -0.003,-7.5e-4 -0.002,-0.002 0.275,-0.2635 4.40249,-3.11835 9.17187,-6.34375 2.77937,-1.87967 5.42252,-3.78547 7.91992,-5.70898 7.5e-4,-5.8e-4 0.001,-10e-4 0.002,-0.002 4.99602,-3.84811 9.40694,-7.76525 13.14062,-11.66992 1.86582,-1.95127 3.56292,-3.89828 5.08008,-5.83398 0.002,-0.002 4.4e-4,-0.002 0.002,-0.004 2.64709,-3.37775 4.61007,-6.13859 4.36914,-6.14258 -0.24555,5.8e-4 -2.18572,0.73015 -4.31445,1.6211 -2.12964,0.8913 -5.83508,2.21204 -8.23438,2.93554 l -4.36328,1.31641 0.006,-0.006 9.57422,-8.98633 c 1.99072,-1.86835 4.26124,-4.27946 6.52735,-6.82422 0.10834,-0.12165 0.20414,-0.20375 0.3125,-0.32617 2.37444,-2.6827 4.74521,-5.53723 6.8164,-8.1875 3.8e-4,-4.9e-4 -3.8e-4,-10e-4 0,-0.002 3.10711,-3.97588 5.53993,-7.49045 6.29883,-9.26172 0.25212,-0.58844 0.31805,-0.98159 0.16406,-1.13867 -0.10655,-0.1066 -0.63064,0.0478 -1.38867,0.38476 -0.75803,0.33695 -1.75,0.85641 -2.79297,1.47461 -1.9398,1.14977 -4.76193,2.45907 -7.09961,3.38867 -7.7e-4,3.1e-4 -0.001,0.002 -0.002,0.002 -2.33813,0.92966 -4.19141,1.47821 -4.19141,1.09961 0,-1e-4 0.002,-0.004 0.002,-0.004 0.002,-0.23473 2.43216,-4.15118 5.40429,-8.71094 7.3e-4,-10e-4 10e-4,-0.003 0.002,-0.004 1.48596,-2.27968 3.13378,-5.02321 4.59179,-7.60742 8.5e-4,-0.002 10e-4,-0.002 0.002,-0.004 1.45769,-2.58382 2.72496,-5.00694 3.45117,-6.64844 4.7e-4,-0.001 10e-4,-0.003 0.002,-0.004 0.635,-1.43586 1.36119,-3.36494 2.09375,-5.4961 1.46577,-4.2645 2.95466,-9.33797 3.78516,-12.89258 0.41524,-1.7773 0.66601,-3.17381 0.66601,-3.90039 0,-0.773 -3.11058,1.89851 -6.91406,5.9375 l -6.91406,7.33985 3.31054,-9.9961 c 4e-4,-0.001 0.002,-0.003 0.002,-0.004 1.47055,-4.43941 3.00492,-10.17246 4.04883,-14.68555 0.24929,-1.07813 0.62893,-2.46214 0.79101,-3.31055 2.1e-4,-10e-4 -2.1e-4,-0.003 0,-0.004 0.72049,-3.77266 1.44196,-9.03234 1.89453,-13.25977 1.7e-4,-0.002 -1.6e-4,-0.002 0,-0.004 0.22611,-2.11247 0.38518,-3.96559 0.44336,-5.24805 1.3e-4,-0.003 -1.2e-4,-0.001 0,-0.004 0.058,-1.27982 0.0145,-1.98335 -0.16211,-1.80859 -0.17951,0.18081 -2.66738,3.47654 -5.52539,7.32422 -10e-4,0.002 -6.1e-4,0.002 -0.002,0.004 -1.64265,2.21135 -2.88631,3.7314 -3.66797,4.5 -3.7e-4,3.7e-4 -0.002,0.002 -0.002,0.002 -0.78224,0.76916 -1.10345,0.78869 -0.90625,-0.002 0.69063,-2.7692 1.09832,-11.24865 1.18945,-20.15625 0.001,-0.1317 0.0105,-0.2353 0.0117,-0.36718 0,-6.7e-4 -10e-6,-10e-4 0,-0.002 0.0411,-4.52527 -7.7e-4,-9.14808 -0.13281,-13.1875 -3e-5,-8.1e-4 2e-5,-10e-4 0,-0.002 -0.13204,-4.03822 -0.35438,-7.49211 -0.67188,-9.68164 v -0.004 l -1.29297,-8.89258 -3.44726,8.39258 -0.002,0.004 -0.61328,1.49414 -2.83594,6.90234 v -0.004 l -1.27734,-7.52735 c -3.1e-4,-0.002 3.1e-4,-0.004 0,-0.006 -0.50944,-3.00422 -1.13036,-6.1284 -1.83008,-9.25976 -2.7e-4,-10e-4 2.8e-4,-0.003 0,-0.004 -0.69978,-3.13139 -1.48099,-6.26906 -2.30859,-9.29883 -3.4e-4,-0.001 3.4e-4,-0.003 0,-0.004 -0.82763,-3.02963 -1.70468,-5.95114 -2.59766,-8.65039 -0.89354,-2.70037 -1.80494,-5.17783 -2.70117,-7.31836 l -3.31836,-7.92578 -0.72461,3.99414 c -0.31702,1.74668 -0.51866,4.24119 -0.65625,6.35156 -0.0357,0.54769 -0.15859,1.19513 -0.16992,1.64844 -3e-5,10e-4 3e-5,0.003 0,0.004 -0.024,0.96314 -0.0532,1.67369 -0.1582,2.03711 -1e-4,3.5e-4 10e-5,0.002 0,0.002 -0.0526,0.18054 -0.12526,0.27602 -0.22461,0.27343 -0.49871,-0.009 -1.69792,-2.46815 -4.72071,-8.8125 -5.3743,-11.27959 -15.09155,-26.89874 -15.67773,-25.20117 -0.19232,0.57989 0.0832,3.43901 0.61328,6.35547 0.40928,2.25174 0.63022,3.62604 0.44531,3.93164 -0.30381,0.51905 -1.73187,-1.92252 -5.29492,-8.22656 -3.31739,-5.86954 -17.25103,-21.85938 -19.04883,-21.85938 -0.1132,0.003 -0.15398,0.15893 -0.12695,0.44532 0.0818,0.86711 0.76654,2.89469 1.80469,5.24218 l 2.51758,5.69141 -0.006,-0.008 0.004,0.0117 -8.82226,-9.04297 c -6.60478,-6.76963 -13.38148,-12.20975 -14.97266,-12.1836 -0.005,9e-5 -0.003,0.008 -0.008,0.008 -0.21533,0.01 -0.33984,0.11541 -0.33984,0.34765 v 0.002 c 6.5e-4,0.31215 0.96603,2.45347 2.14453,4.76368 0.90598,1.77586 1.3999,2.85788 1.29101,3.17968 -0.17295,0.54604 -2.01944,-1.01794 -6.4375,-5.01757 -4.59449,-4.1594 -11.10842,-8.43946 -12.8457,-8.43946 -0.54721,0 -0.8051,0.13283 -0.75977,0.52149 10e-5,8.1e-4 -9e-5,0.001 0,0.002 0.0476,0.39063 0.40067,1.03556 1.07227,2.06055 1.1927,1.82032 1.56562,2.77722 1.13867,2.86718 -0.42412,0.0933 -1.64856,-0.67788 -3.66015,-2.32421 -3.3642,-2.75328 -6.92253,-4.91198 -7.75977,-4.78907 z m -213.68164,0.65821 c 2.20545,0 2.5516,0.32137 2.16797,2.07226 -0.0321,0.14627 -0.0321,0.23444 -0.0742,0.40235 -4e-4,0.002 3.9e-4,0.002 0,0.004 -0.34164,1.36258 -0.9016,5.15504 -1.24414,8.43164 -1.6e-4,10e-4 1.5e-4,0.002 0,0.004 -0.14043,1.34326 -0.26795,2.39437 -0.41992,3.23242 -1.8e-4,10e-4 1.8e-4,0.003 0,0.004 -0.0687,0.3782 -0.17521,0.58422 -0.25782,0.88281 -0.10048,0.36322 -0.18159,0.80294 -0.31445,1.07227 -0.24163,0.48982 -0.5481,0.84692 -0.95703,1.14843 -7.5e-4,5.6e-4 -0.001,10e-4 -0.002,0.002 -0.40987,0.30207 -0.92245,0.55068 -1.57813,0.82226 -1.0312,0.42713 -2.13175,1.15544 -3.22656,2.08985 -1.09381,0.93392 -2.18295,2.07212 -3.1875,3.32226 -9.1e-4,10e-4 -0.001,0.003 -0.002,0.004 -1.00499,1.25107 -1.9287,2.61094 -2.69141,3.98828 -2.6e-4,4.6e-4 2.6e-4,10e-4 0,0.002 -0.76208,1.37644 -1.36493,2.76948 -1.73242,4.08203 -1.546,5.5219 -0.76639,12.97586 1.90429,18.21094 2.1422,4.1992 8.33537,10.22266 10.50977,10.22266 1.2769,0 2.5747,6.625 2.5957,13.25 0.003,0.81146 -0.0484,1.42418 -0.22851,1.8457 -0.0895,0.20936 -0.2105,0.37258 -0.37305,0.48828 -7.2e-4,5.2e-4 -10e-4,10e-4 -0.002,0.002 -0.16298,0.11544 -0.36816,0.18369 -0.62305,0.20704 -1.02284,0.0952 -2.86088,-0.5435 -6.12305,-1.86719 -13.3298,-5.40874 -21.76976,-15.46179 -24.63476,-29.3418 -0.89841,-4.35261 -0.96917,-8.72268 -0.25391,-12.97461 0.47646,-2.8323 1.30207,-5.61319 2.46485,-8.30078 3.4e-4,-7.9e-4 0.002,-10e-4 0.002,-0.002 0.58133,-1.34366 1.24571,-2.66454 1.99414,-3.95703 4.5e-4,-7.7e-4 0.002,-10e-4 0.002,-0.002 0.74852,-1.29245 1.57954,-2.55777 2.49219,-3.78906 5.4e-4,-7.3e-4 0.001,-10e-4 0.002,-0.002 0.91246,-1.23086 1.90696,-2.42815 2.98047,-3.58789 9.8e-4,-0.001 9.8e-4,-0.003 0.002,-0.004 1.45917,-1.5761 3.16925,-3.11048 4.99218,-4.52734 7.3e-4,-5.6e-4 10e-4,-0.001 0.002,-0.002 5.47132,-4.25202 11.9674,-7.43554 15.81445,-7.43554 z m 183.81641,0.13476 c 1.15272,0.0699 3.08662,0.79394 6.17968,1.95117 7.82208,2.9267 16.37868,11.07092 20.10156,19.13282 2.5972,5.62428 2.89796,7.32817 2.87696,16.28125 -0.0103,4.31518 -0.1063,7.00418 -0.47656,9.20898 -0.18477,1.10019 -0.43744,2.07974 -0.78321,3.08008 -4.6e-4,0.001 -10e-4,0.003 -0.002,0.004 -0.34603,1.00048 -0.78324,2.02261 -1.33789,3.20703 -7e-4,0.001 -10e-4,0.002 -0.002,0.004 -0.87838,1.87501 -1.97899,3.75229 -3.24414,5.57032 -0.23923,0.34386 -0.55014,0.64708 -0.80079,0.98632 -1.07577,1.45569 -2.18691,2.90353 -3.43554,4.23438 -3.0789,3.28234 -6.59108,6.08878 -10.08203,7.92969 -3.19688,1.68579 -7.18237,3.35433 -8.85547,3.70703 l -3.04102,0.64062 v -0.004 l 0.24609,-1.9336 0.72071,-5.69531 c 0.39725,-3.13307 0.69428,-4.86898 1.14453,-6.15625 0.0749,-0.21447 0.12225,-0.54503 0.20898,-0.73047 2.4e-4,-5e-4 -2.3e-4,-10e-4 0,-0.002 0.60773,-1.2984 1.54276,-1.96364 3.31446,-3.08203 3.67409,-2.31942 6.03902,-4.82086 7.84961,-8.50977 2.4e-4,-5e-4 -2.5e-4,-10e-4 0,-0.002 0.60356,-1.22993 1.1458,-2.59208 1.65429,-4.12305 0.40159,-1.20906 0.69978,-2.45369 0.89844,-3.71484 2e-4,-0.001 -2e-4,-0.003 0,-0.004 0.19846,-1.26116 0.29869,-2.5392 0.30469,-3.8164 0,-0.001 -10e-6,-0.003 0,-0.004 0.006,-1.2772 -0.0836,-2.55335 -0.25977,-3.81055 -1.8e-4,-0.001 1.8e-4,-0.003 0,-0.004 -0.17648,-1.25782 -0.44084,-2.49557 -0.78906,-3.69727 -1.7e-4,-5.9e-4 1.7e-4,-10e-4 0,-0.002 -1.39407,-4.80836 -4.12251,-9.0211 -7.84766,-11.48633 -2.14279,-1.418 -4.07016,-3.52542 -4.2832,-4.68359 -1.5e-4,-8e-4 1.5e-4,-0.005 0,-0.006 -0.213,-1.15767 -0.7918,-4.91536 -1.28516,-8.35157 -2.6e-4,-0.002 2.7e-4,-0.002 0,-0.004 -0.48784,-3.39811 -0.74678,-5.20179 -0.0371,-5.84375 0.23706,-0.21445 0.58141,-0.30065 1.0625,-0.27149 z m -64.375,8.60742 c 8.98255,0.12937 18.17026,2.41086 24.80859,6.80469 2.50595,1.65866 4.62251,3.41867 6.37695,5.33203 0.87669,0.95611 1.66273,1.94984 2.36133,2.99024 2.8e-4,4.2e-4 -2.8e-4,0.002 0,0.002 3.49369,5.20381 4.80156,11.54712 4.31836,19.89453 -0.0922,1.59252 -0.27354,3.15523 -0.53906,4.68555 -0.26519,1.52834 -0.61589,3.02487 -1.04883,4.48242 -0.43287,1.45728 -0.94752,2.87615 -1.54297,4.25391 -5.7e-4,10e-4 -10e-4,0.003 -0.002,0.004 -0.59535,1.3771 -1.26881,2.71307 -2.02149,4.00196 -4.4e-4,7.5e-4 -0.002,0.001 -0.002,0.002 -0.75305,1.28931 -1.5829,2.53233 -2.48828,3.72461 -0.25554,0.33662 -0.56266,0.6364 -0.83008,0.96484 -0.68061,0.83569 -1.35512,1.67658 -2.11133,2.45703 -2.10734,2.17541 -4.50327,4.13138 -7.16992,5.83008 -7.95483,5.0674 -16.2302,3.32007 -25.72461,-5.43164 -5.82467,-5.3689 -9.14554,-10.97967 -9.81836,-16.37109 -0.26987,-2.15477 -0.11473,-4.27292 0.4707,-6.32813 0.29325,-1.02947 0.69372,-2.04372 1.20508,-3.03711 3.2697,-6.35178 8.49878,-9.19782 16.03906,-8.73242 4.635,0.2861 6.47921,0.95962 9.69141,3.54102 2.1819,1.7534 4.21819,3.1875 4.52539,3.1875 0.1529,-0.003 0.29175,-0.37965 0.39258,-0.99024 0.10124,-0.61308 0.16406,-1.45817 0.16406,-2.38867 0,-2.67004 -0.83007,-4.13416 -3.93945,-6.94336 -7.45433,-6.73451 -17.07883,-5.91026 -29.57422,2.53125 -6.91463,4.6714 -7.83655,5.0165 -12.23242,4.5918 -3.55334,-0.3434 -6.45535,-1.62559 -11.49414,-5.07813 -10.13081,-6.94147 -16.77296,-8.25816 -24.33789,-4.82226 -1.32376,0.60122 -2.51303,1.30345 -3.55078,2.08789 -1.03776,0.78443 -1.92469,1.65093 -2.64649,2.58008 -0.0544,0.07 -0.0725,0.1519 -0.125,0.22265 -1.33927,1.80535 -2.09765,3.82569 -2.09765,5.94727 v 3.46875 l 3.41406,-2.9961 c 4.40768,-3.86998 9.68606,-5.57228 15.31836,-4.9375 6.90939,0.77879 12.0248,5.6934 13.71289,11.75 0.67496,2.42165 0.80146,5.02563 0.27539,7.6211 -0.26293,1.29721 -0.68692,2.59239 -1.28906,3.86133 -6.4e-4,10e-4 -0.001,0.003 -0.002,0.004 -0.61522,1.29547 -1.70014,2.91702 -3.05078,4.65235 -0.20124,0.25861 -0.47903,0.53194 -0.6914,0.79492 -1.21413,1.50305 -2.52693,3.0519 -3.95704,4.54297 -3.36122,3.5054 -6.97155,6.61791 -9.19726,7.6289 -8.40761,3.81914 -16.13374,1.3763 -24.45508,-7.72851 -2.60662,-2.85203 -4.59095,-5.60505 -6.05664,-8.53516 -2.7e-4,-5.3e-4 2.7e-4,-0.001 0,-0.002 -0.48841,-0.97617 -0.91989,-1.97188 -1.29688,-2.99805 -2.1e-4,-5.8e-4 2.2e-4,-0.001 0,-0.002 -0.3767,-1.02561 -0.69967,-2.08154 -0.97265,-3.17774 -3e-4,-10e-4 3e-4,-0.003 0,-0.004 -0.27303,-1.09692 -0.49706,-2.23362 -0.67383,-3.42188 -9e-5,-5.9e-4 9e-5,-10e-4 0,-0.002 -0.35346,-2.37676 -0.52126,-4.95801 -0.53516,-7.82422 0,-0.002 10e-6,-0.002 0,-0.004 -0.01,-2.0396 0.002,-3.66252 0.0664,-5.0332 4e-5,-7.5e-4 -3e-5,-0.001 0,-0.002 0.0647,-1.37026 0.18293,-2.48759 0.38672,-3.51563 1.2e-4,-6.1e-4 -1.2e-4,-0.001 0,-0.002 0.20375,-1.02727 0.49496,-1.96509 0.90234,-2.97656 0.40836,-1.01391 0.93334,-2.10205 1.61133,-3.42774 1.40181,-2.74097 3.11818,-5.14088 5.16602,-7.21289 3.07207,-3.10833 6.89221,-5.47491 11.52734,-7.13476 4.63628,-1.66027 10.08673,-2.615 16.41797,-2.89453 11.77868,-0.5201 18.70934,1.04512 24.82812,5.60742 l 3.91016,2.91601 4.00586,-2.90234 c 5.81783,-4.2144 14.59556,-6.23874 23.57813,-6.10938 z m -0.74805,30.55079 c -1.1045,0.10398 -2.20966,0.53118 -3.84961,1.33203 -1.25409,0.61246 -2.37516,1.39372 -3.33594,2.30078 -6.8e-4,6.4e-4 -10e-4,10e-4 -0.002,0.002 -0.27188,0.25679 -0.42616,0.58769 -0.67188,0.86328 -0.62251,0.69853 -1.26196,1.3903 -1.70312,2.18555 -4.4e-4,7.9e-4 -0.002,0.001 -0.002,0.002 -0.61448,1.10823 -1.0438,2.29379 -1.26172,3.50977 -0.21818,1.21739 -0.22527,2.46527 0.006,3.69726 0.75508,4.0252 4.66162,8.49135 7.95312,9.09375 4.61973,0.84552 9.73062,-0.90974 12.31445,-4.02734 0.36818,-0.44424 0.68456,-0.91614 0.94141,-1.41211 6.9e-4,-10e-4 10e-4,-0.003 0.002,-0.004 0.43845,-0.84788 0.77234,-1.7164 1.00977,-2.58984 1.66285,-6.12374 -1.47854,-12.52702 -7.54883,-14.3457 -1.64174,-0.4919 -2.74704,-0.71141 -3.85156,-0.60742 z m -54.69727,0.3125 c -3.89644,0 -6.9817,1.69269 -8.91992,4.20507 -0.64494,0.83656 -1.16455,1.76422 -1.54297,2.75 -2e-4,5.4e-4 2.1e-4,0.001 0,0.002 -0.75731,1.97385 -0.9562,4.18121 -0.49609,6.36523 0.46025,2.18468 1.57983,4.34546 3.45703,6.22266 2.3955,2.3955 3.67131,2.84961 8.00391,2.84961 4.36308,0 5.60352,-0.44738 8.07812,-2.92188 0.57045,-0.57045 1.03923,-1.09433 1.41992,-1.60937 9.3e-4,-10e-4 0.001,-0.003 0.002,-0.004 0.0988,-0.13384 0.14504,-0.27097 0.23242,-0.4043 0.2485,-0.37962 0.49792,-0.75599 0.66211,-1.15234 0.44468,-1.07346 0.60351,-2.26316 0.60351,-3.87695 0,-7.68272 -4.39048,-12.42578 -11.5,-12.42578 z m 27.60352,24.40429 c 4.47978,-0.0168 9.08562,2.13121 18.8457,8.78321 5.1963,3.54158 12.69858,7.91978 16.67188,9.73046 8.78738,4.00455 15.01632,9.49773 18.55273,16.22071 2.5e-4,4.7e-4 -2.5e-4,0.001 0,0.002 1.76771,3.36105 2.86304,7.02887 3.26758,10.97266 1.3e-4,10e-4 -1.3e-4,0.003 0,0.004 0.40404,3.94334 0.11953,8.16158 -0.87305,12.62305 -3.1e-4,10e-4 -0.002,0.002 -0.002,0.004 -0.27765,1.24743 -0.59775,2.45851 -0.96485,3.63672 -4.1e-4,10e-4 -0.002,0.003 -0.002,0.004 -0.36719,1.17806 -0.77938,2.32418 -1.24023,3.43945 -3.2e-4,7.7e-4 -0.002,0.001 -0.002,0.002 -0.46114,1.11574 -0.97017,2.20238 -1.52929,3.26172 -4.1e-4,7.6e-4 -0.002,10e-4 -0.002,0.002 -0.55918,1.05927 -1.16673,2.09225 -1.82812,3.10156 -0.25296,0.38609 -0.55197,0.75339 -0.82031,1.13281 -0.43365,0.61306 -0.84961,1.23319 -1.32422,1.83008 -9.1e-4,10e-4 -10e-4,0.003 -0.002,0.004 -0.76773,0.96534 -1.59043,1.90961 -2.46874,2.83789 -1.75935,1.85977 -3.7441,3.65256 -5.97266,5.40234 -3.80012,2.9838 -10.57871,8.96633 -15.0625,13.29493 l -8.15234,7.87109 -0.67188,-3.05859 c -0.18443,-0.8409 -0.28042,-1.72109 -0.28711,-2.46094 -10e-6,-8.7e-4 10e-6,-10e-4 0,-0.002 -0.007,-0.73891 0.0766,-1.33638 0.25,-1.61914 10e-4,-0.002 -10e-4,-0.002 0,-0.004 0.27518,-0.44528 0.34502,-0.73641 0.23438,-0.88282 -0.33543,-0.43826 -2.31366,0.44472 -5.33008,2.45899 -2.13918,1.4286 -5.53901,4.1838 -7.55469,6.12109 l -3.66602,3.52149 -4.83398,-4.48828 c -2.65924,-2.4685 -6.29844,-5.23304 -8.08594,-6.14453 L 679.4158,473.016 v 4.01954 c 0,1.03023 -0.0715,1.93257 -0.17188,2.64648 -0.007,0.0532 -0.006,0.14664 -0.0137,0.19727 -8e-5,5e-4 8e-5,10e-4 0,0.002 -0.11354,0.72959 -0.27056,1.18359 -0.44336,1.18359 -0.3457,0 -3.64496,-2.84451 -7.33008,-6.32031 -3.6852,-3.4764 -9.8546,-8.83706 -13.71094,-11.91406 -10.56582,-8.43032 -16.03577,-15.24884 -18.51757,-23.95508 -0.82682,-2.90049 -1.32351,-6.00986 -1.56446,-9.45898 -0.29319,-4.19702 -0.14863,-7.67629 0.57617,-10.8125 0.24099,-1.04373 0.54705,-2.04963 0.92188,-3.03125 5.1e-4,-10e-4 10e-4,-0.003 0.002,-0.004 0.37481,-0.981 0.81884,-1.93817 1.33789,-2.88477 1.56117,-2.8471 3.79824,-5.60072 6.85547,-8.63671 1.17156,-1.16345 2.25832,-2.18236 3.28516,-3.07813 0.002,-10e-4 0.002,-0.003 0.004,-0.004 3.08386,-2.68967 5.6339,-4.25784 8.3711,-5.21484 2.8059,-0.981 9.3309,-4.52706 14.5,-7.88086 11.08628,-7.19288 18.405,-10.78483 22,-10.79883 z m -9.41406,13.99414 c -1.49476,0 -2.6039,0.34699 -3.33008,0.9336 -7.6e-4,6.1e-4 -0.001,0.001 -0.002,0.002 -0.0476,0.0385 -0.0612,0.0962 -0.10546,0.13672 -0.29373,0.26862 -0.54572,0.5635 -0.69532,0.91016 -0.0599,0.13943 -0.0453,0.31096 -0.082,0.46093 -0.17328,0.70746 -0.15291,1.49881 0.1875,2.36524 0.61976,1.5774 2.08787,3.31528 4.38867,4.83789 2.1387,1.4153 4.15673,3.42439 4.48633,4.46289 0.1886,0.59417 0.49688,1.04648 0.85547,1.35351 0.35859,0.30703 0.76767,0.46959 1.16016,0.48438 0.39161,0.0148 0.76662,-0.11719 1.05664,-0.39844 5.2e-4,-5.1e-4 0.001,-0.001 0.002,-0.002 0.28939,-0.28167 0.49214,-0.71465 0.54492,-1.29688 0.7673,-8.63409 -2.56916,-14.25 -8.46679,-14.25 z m 19.66601,0.0293 c -1.34735,-0.11744 -2.83811,0.44492 -4.27539,1.58789 -0.71735,0.57108 -1.42356,1.28519 -2.08984,2.13281 -9.3e-4,10e-4 -0.001,0.003 -0.002,0.004 -0.66628,0.84807 -1.29502,1.82817 -1.86132,2.92773 -2.5e-4,4.8e-4 2.4e-4,0.001 0,0.002 -4.4e-4,8.5e-4 -0.002,0.001 -0.002,0.002 -0.3081,0.59931 -0.55561,1.37149 -0.73828,2.21094 -0.54902,2.52302 -0.50631,5.64407 0.2832,6.43359 1.1606,1.1606 2.22805,0.72963 3.33985,-1.34765 0.593,-1.1081 2.85887,-3.13978 5.03515,-4.51368 2.05148,-1.29502 3.34698,-2.75278 3.82813,-4.1914 0.48016,-1.44033 0.14378,-2.86019 -1.07227,-4.07618 -0.71312,-0.71314 -1.54714,-1.09357 -2.44531,-1.17187 z m 36.96875,36.94531 c -0.55771,0.0539 -1.44664,1.06136 -2.51172,3.29492 -2.0179,4.2315 -9.24268,8.18436 -18.91406,10.34766 -5.42768,1.214 -12.31952,1.65039 -25.89648,1.65039 -26.92356,-0.006 -39.91216,-3.11509 -45.14844,-10.80469 -0.74925,-1.10022 -1.36411,-1.92478 -1.84961,-2.47265 -0.49061,-0.55364 -0.84737,-0.82109 -1.07813,-0.81055 -0.22418,0.01 -0.3262,0.28668 -0.31445,0.82813 0.0122,0.55725 0.14379,1.39126 0.39649,2.51171 0.27908,1.23661 0.66172,2.38991 1.16015,3.4668 2.5e-4,5.5e-4 -2.5e-4,0.001 0,0.002 0.49789,1.07541 1.11116,2.07365 1.84766,3 0.7374,0.9275 1.59923,1.78392 2.5957,2.57227 7.5e-4,6e-4 10e-4,0.001 0.002,0.002 1.99264,1.57599 4.52245,2.88351 7.66993,3.96485 4.72278,1.62255 10.83523,2.73473 18.60546,3.47461 10.76371,1.0249 31.30052,0.24597 40.85743,-1.54883 9.2796,-1.74255 15.35119,-4.42053 18.99804,-8.50196 1.21562,-1.36047 2.16116,-2.8766 2.86719,-4.5664 1.23514,-2.95606 1.5402,-5.13456 1.22461,-6.00195 -0.10578,-0.28643 -0.28031,-0.43059 -0.51172,-0.40821 z M 573.40039,565.06445 c -0.17683,0 -0.38652,0.15271 -0.62109,0.43555 -0.70353,0.8483 -1.62557,2.85224 -2.51172,5.31055 -2.4e-4,6.6e-4 2.4e-4,10e-4 0,0.002 -0.59046,1.63906 -1.1659,3.47913 -1.65039,5.31445 -3.8e-4,0.001 -0.002,0.002 -0.002,0.004 -0.48413,1.8345 -0.87667,3.66366 -1.10546,5.2793 -2.1847,15.42656 2.48349,29.92713 15.98437,49.65039 10.21368,14.92086 21.0757,26.08343 40.17188,41.27929 7.71002,6.13525 10.22742,8.70418 9.70312,11.46289 -0.0871,0.45824 -0.25677,0.92232 -0.50195,1.40821 -7.1e-4,10e-4 -0.001,0.002 -0.002,0.004 -0.24565,0.48624 -0.56506,0.99452 -0.94921,1.54297 -9.3e-4,10e-4 -10e-4,0.003 -0.002,0.004 -0.002,0.002 -0.008,0.006 -0.01,0.008 -0.41627,0.58655 -1.37177,1.30777 -2.58594,2 -10e-4,7.9e-4 -0.003,10e-4 -0.004,0.002 -10e-4,5.9e-4 -9.3e-4,10e-4 -0.002,0.002 -1.22344,0.69708 -2.70487,1.36578 -4.14844,1.83398 -4.42376,1.43465 -8.40256,3.21884 -11.80859,5.2207 -7.2e-4,4.3e-4 -10e-4,0.002 -0.002,0.002 -1.70239,1.00076 -3.26133,2.05493 -4.66211,3.14648 -6.8e-4,5.3e-4 -0.001,10e-4 -0.002,0.002 -2.80219,2.18376 -4.96942,4.51406 -6.375,6.85742 -2.5e-4,4.1e-4 2.5e-4,0.002 0,0.002 -0.70238,1.17134 -1.2154,2.34559 -1.52148,3.50586 -1.4e-4,5.4e-4 1.4e-4,0.001 0,0.002 -0.30596,1.16016 -0.40693,2.30671 -0.28516,3.42188 7e-5,6.3e-4 -7e-5,10e-4 0,0.002 0.0611,0.55723 0.17775,1.1049 0.35157,1.64453 0.17401,0.54025 0.40631,1.07148 0.69726,1.58985 1.63957,2.92116 3.09825,3.2054 4.95117,0.60742 0.61673,-0.86471 1.27873,-2.05042 2.00391,-3.5625 8.7e-4,-0.002 10e-4,-0.004 0.002,-0.006 3.1639,-6.59958 8.69767,-11.84093 16.84375,-15.95313 4.12119,-2.08037 6.37896,-3.02339 6.61328,-2.91211 0.23521,0.11006 -1.54017,1.27134 -5.50586,3.40821 -4.65855,2.50987 -8.30565,5.1168 -11.01953,7.93164 -1.80882,1.87611 -3.20349,3.84395 -4.20508,5.93554 -2.3e-4,5e-4 2.4e-4,0.001 0,0.002 -0.50033,1.04552 -0.90377,2.12106 -1.21093,3.23242 -1.7e-4,5.9e-4 1.6e-4,0.001 0,0.002 -0.057,0.20618 -0.0687,0.43007 -0.11914,0.63867 -0.49341,2.04096 -0.71667,4.18259 -0.60352,6.48243 0.1281,2.60538 3.41116,6.25 5.63086,6.25 0.41717,0 0.80449,-0.14524 1.17578,-0.46094 0.23084,-0.19628 0.45009,-0.5886 0.67188,-0.92383 0.1346,-0.20371 0.27496,-0.30375 0.4082,-0.5625 0.35258,-0.68433 0.7024,-1.56911 1.06445,-2.67578 3.7e-4,-0.001 0.002,-0.003 0.002,-0.004 0.36226,-1.10788 0.73535,-2.44088 1.13476,-4.02539 3.3e-4,-10e-4 0.002,-0.003 0.002,-0.004 0.16214,-0.64337 0.41104,-1.33001 0.73438,-2.04297 5.6e-4,-10e-4 10e-4,-0.003 0.002,-0.004 0.0424,-0.0934 0.10941,-0.19479 0.1543,-0.28906 0.29863,-0.62679 0.62904,-1.26574 1.0293,-1.92188 0.92063,-1.5095 2.08933,-3.07162 3.40234,-4.57031 1.31439,-1.50026 2.77334,-2.93627 4.27734,-4.19336 7.5e-4,-6.2e-4 10e-4,-10e-4 0.002,-0.002 1.5036,-1.25656 3.05154,-2.33411 4.54101,-3.11524 1.33815,-0.70176 2.1782,-1.09162 2.50586,-1.17382 0.3377,-0.0887 0.15848,0.13258 -0.58789,0.67773 -4.65371,3.39892 -8.16478,6.76158 -10.51172,10.06445 -7.4e-4,10e-4 -10e-4,0.003 -0.002,0.004 -0.58609,0.82552 -1.10055,1.64743 -1.54102,2.46484 -2.5e-4,4.7e-4 2.5e-4,10e-4 0,0.002 -0.43988,0.81651 -0.80755,1.62795 -1.10156,2.43554 -4.8e-4,10e-4 -0.001,0.003 -0.002,0.004 -0.58797,1.61641 -0.88281,3.21534 -0.88281,4.79102 0,4.64408 2.24816,8.52539 4.93554,8.52539 0.60055,0 1.12913,-0.10161 1.60352,-0.33203 0.47362,-0.23005 0.89277,-0.58868 1.2793,-1.09961 4.4e-4,-5.9e-4 10e-4,-10e-4 0.002,-0.002 0.38675,-0.51188 0.73984,-1.17685 1.07812,-2.02148 2e-4,-4.8e-4 -1.9e-4,-10e-4 0,-0.002 0.1588,-0.39663 0.31046,-0.97681 0.46485,-1.45508 0.17442,-0.54056 0.35113,-0.99057 0.52539,-1.64258 3.6e-4,-10e-4 0.002,-0.003 0.002,-0.004 0.28204,-1.05521 0.67192,-2.12777 1.15234,-3.19922 5.8e-4,-10e-4 10e-4,-0.003 0.002,-0.004 0.057,-0.12702 0.14166,-0.25193 0.20117,-0.37891 0.44312,-0.94506 0.92922,-1.89047 1.5,-2.82031 0.64718,-1.05449 1.36952,-2.09252 2.15039,-3.0957 5.6e-4,-7.3e-4 10e-4,-10e-4 0.002,-0.002 0.78065,-1.00274 1.62014,-1.97093 2.50196,-2.88867 2.64867,-2.75657 5.67986,-5.05277 8.65625,-6.43359 7.9e-4,-3.7e-4 10e-4,-0.002 0.002,-0.002 0.99201,-0.46006 1.97802,-0.81903 2.94141,-1.05859 0.8583,-0.21346 1.18337,-0.20323 0.96875,0.0371 -0.21332,0.23967 -0.96654,0.71233 -2.26954,1.42578 -2.5401,1.3913 -5.42736,3.7339 -7.89648,6.25 -2.46912,2.5161 -4.52013,5.20567 -5.39063,7.28906 -0.52658,1.26109 -0.90462,2.58147 -1.13476,3.89063 -1.1e-4,6e-4 1.1e-4,10e-4 0,0.002 -0.0163,0.0929 -0.003,0.1787 -0.0176,0.27149 -0.61325,3.832 6.5e-4,7.53572 1.81445,9.34961 1.8413,1.84128 2.30849,1.91622 4.17969,0.67382 0.2868,-0.19043 0.61142,-0.52495 0.95313,-0.96093 0.003,-0.004 0.006,-0.006 0.01,-0.01 0.34506,-0.44197 0.70684,-0.99025 1.06446,-1.60742 3.9e-4,-6.9e-4 0.002,-10e-4 0.002,-0.002 0.71553,-1.23531 1.41314,-2.74799 1.91992,-4.23829 4.4e-4,-10e-4 0.002,-0.003 0.002,-0.004 0.50695,-1.4917 1.24902,-3.12976 2.03516,-4.56641 0.78614,-1.43664 1.61634,-2.67187 2.30273,-3.35937 2.2664,-2.27 3.48359,-2.54866 13.22657,-3.03516 12.68196,-0.6333 17.15867,-2.38831 21.03515,-8.24609 0.94574,-1.42911 1.63275,-2.85821 2.05274,-4.43164 1.6e-4,-6e-4 -1.6e-4,-10e-4 0,-0.002 0.20965,-0.78587 0.35446,-1.60933 0.42968,-2.48437 1.1e-4,-10e-4 -10e-5,-0.003 0,-0.004 0.0751,-0.87593 0.0813,-1.80389 0.0195,-2.80469 -4e-5,-5.9e-4 3e-5,-0.001 0,-0.002 -0.0619,-1.0004 -0.19378,-2.07377 -0.39454,-3.23437 -1.9e-4,-10e-4 2e-4,-0.003 0,-0.004 -0.20096,-1.16105 -0.47231,-2.41076 -0.81445,-3.76758 -2.5e-4,-10e-4 2.6e-4,-0.003 0,-0.004 -0.68497,-2.71574 -1.65636,-5.85921 -2.91992,-9.57227 -1.14931,-3.37718 -2.38078,-6.75892 -3.68945,-10.13477 -2.2e-4,-5.5e-4 2.1e-4,-10e-4 0,-0.002 -1.30841,-3.37527 -2.69433,-6.74605 -4.1543,-10.10547 -2.3e-4,-5.4e-4 2.3e-4,-0.001 0,-0.002 -8.76189,-20.15941 -20.18557,-39.90088 -33.4375,-57.66016 -3.86393,-5.1784 -6.46274,-8.55487 -9.06445,-11.08007 -4.33619,-4.20868 -8.67911,-6.05462 -18.89063,-9.95118 -7.94297,-3.03089 -19.79336,-8.19988 -26.33203,-11.48828 -6.53873,-3.28849 -12.219,-5.98047 -12.625,-5.98047 z" /></g><g
         id="g18627"
         transform="matrix(1.4168517,-1.2472249,1.2472249,1.4168517,398.33604,539.16468)"><path
           style="fill:#fc8211;fill-opacity:1;stroke-width:0.352778"
           d="m 124.88333,174.07882 c -2.03729,-0.46732 -4.65667,-1.19049 -5.82083,-1.60703 -4.68535,-1.67643 -9.60618,-5.79467 -14.8223,-11.23065 -1.77197,-1.84665 -2.80523,-3.31518 -3.08971,-3.61295 -0.21307,-0.22304 0.36067,0.056 1.6786,1.3688 2.17861,2.17019 6.4153,5.95742 9.53063,7.77888 4.48539,2.62252 10.61337,4.3062 15.69861,4.31326 2.97391,0.004 5.64445,-0.47344 5.64445,-1.00936 0,-0.15331 -0.99219,-1.54092 -2.20487,-3.08359 -4.23133,-5.38279 -9.4291,-13.58301 -12.49423,-19.71146 -3.54413,-7.08616 -5.56064,-13.07688 -6.88731,-20.46111 -0.99721,-5.55046 -1.06879,-17.32161 -0.14158,-23.28333 1.52928,-9.832944 5.15546,-21.834395 9.43761,-31.857365 1.34005,-3.13655 2.62536,-2.883156 3.12091,-2.387606 0.6509,0.6509 -0.49434,4.198547 -1.60718,9.374127 -1.74748,8.12719 -2.7612,13.92482 -2.76491,22.930564 -0.006,14.00227 1.83622,22.77952 8.06542,38.43247 3.57234,8.97671 4.5035,11.68579 5.97408,17.38075 0.68694,2.66026 1.82582,5.71367 2.09598,6.92131 l 0.55673,2.48862 c 0,0 -0.38514,0.28655 -0.73715,0.56556 -0.54582,0.43263 -1.28255,1.46688 -1.59438,2.07453 -0.31182,0.60765 -1.27263,2.097 -2.13512,3.30967 -0.75289,1.05858 -0.54505,1.79695 -1.19173,2.08195 -0.94206,0.41516 -2.96238,-0.008 -6.31172,-0.77604 z"
           id="path486"
           sodipodi:nodetypes="sssssscsssssssscssscsssss" /><path
           id="path488"
           style="fill:#f5a50a;fill-opacity:1;stroke-width:0.352778"
           d="m 108.85739,70.415107 c -7.22252,10.160653 -11.328316,22.314121 -12.728753,34.646923 -0.959325,7.60598 -0.654628,15.32901 0.518293,22.89268 1.15701,8.01966 3.229343,15.96303 6.80724,23.26177 2.38602,5.08429 5.37378,9.91237 9.17156,14.06857 1.66211,1.79432 3.27003,3.88198 5.71703,4.61392 2.76016,0.9944 5.6567,1.66251 8.60299,1.65626 2.14231,0.002 6.91259,-0.66467 7.08706,-1.20556 0.23981,-0.83039 -3.84836,-5.78803 -5.66931,-8.53142 -4.67598,-6.83231 -8.90506,-14.02415 -12.02412,-21.7088 -4.11138,-10.47455 -5.3549,-22.00511 -4.19592,-33.12804 1.01224,-10.073712 3.75796,-19.81868 7.37169,-29.23018 1.07475,-2.707478 2.08678,-5.461151 3.48271,-8.021855 0.87755,-0.922086 0.15665,-2.215465 -0.15192,-3.227835 -0.98739,-2.651934 -1.76763,-5.300857 -3.6889,-7.415472 -3.53233,3.765427 -7.75275,7.685687 -10.29965,11.329039 z"
           sodipodi:nodetypes="cccccccccccccccc" /><path
           id="path480"
           style="fill:#fff28f;fill-opacity:1;stroke-width:0.352778"
           d="m 114.16992,57.248047 c -1.75856,0.181846 -3.26568,1.234962 -4.82617,1.979045 -8.20439,4.330066 -15.167298,11.001982 -19.70413,19.105624 -2.962259,5.220396 -5.009313,10.941004 -6.297823,16.794237 -1.402171,7.339527 -1.598113,14.899787 -0.605562,22.304917 1.193688,8.94907 3.740923,17.78398 8.068435,25.73814 2.21803,4.18654 4.665066,8.29835 7.8775,11.80913 4.03595,4.49881 8.51172,8.67032 13.6771,11.84909 1.02964,0.69954 2.37756,1.25188 3.46629,1.85423 -2.90243,-3.45886 -6.39449,-8.15003 -8.66261,-11.97081 -5.3428,-8.91698 -8.424113,-19.00481 -9.953591,-29.21315 -0.83012,-5.51371 -0.84415,-11.08647 -0.771859,-16.6567 0.09113,-7.92196 1.729641,-15.844466 4.4096,-23.316286 2.01134,-5.582049 4.71673,-10.973802 7.98132,-15.846534 1.88177,-2.806556 4.02434,-5.541131 6.30874,-8.002272 1.40664,-1.497725 2.8458,-2.964468 4.26714,-4.448192 -1.60904,-0.678243 -3.11133,-1.745956 -4.87305,-1.976563 -0.12036,7.98e-4 -0.24108,-0.01018 -0.36133,-0.0039 z"
           sodipodi:nodetypes="sccccccccccccccccss" /><path
           style="fill:#4b4440;fill-opacity:1;stroke-width:0.352778"
           d="m 117.21167,58.240091 c -1.01796,-0.50254 -2.17578,-0.741131 -2.17646,-0.849311 -7.1e-4,-0.10816 0.99781,-0.942139 1.82243,-1.534179 6.6439,-4.77009 8.5319,-6.06677 10.84791,-7.4504 1.45521,-0.86937 3.98102,-2.17997 5.6129,-2.91244 2.42226,-1.08723 3.66774,-1.694814 4.1975,-1.363984 0.3569,0.22289 0.64805,0.48613 0.64699,0.58498 -0.001,0.0988 -2.15021,1.544574 -4.06515,2.678044 -3.80022,2.2494 -8.29831,5.73164 -12.23926,9.47516 -1.38887,1.31929 -2.44365,2.529937 -2.51813,2.498887 -0.0745,-0.031 -1.11078,-0.624227 -2.12873,-1.126757 z"
           id="path482"
           sodipodi:nodetypes="sccssscsscs" /><path
           id="path484"
           style="fill:#262529;fill-opacity:1;stroke-width:0.352778"
           d="m 137.61133,44.703125 c -5.65219,3.120684 -10.89793,6.968798 -15.67383,11.306641 -0.93877,0.96464 -1.93177,1.939357 -2.58708,3.131991 -0.3227,0.991669 0.54483,1.629136 0.88516,2.472929 1.46662,2.476642 2.14142,5.300025 3.33083,7.898986 0.20131,0.482832 0.55945,0.912318 1.13476,0.80664 1.21727,-2.755192 2.293,-5.594042 3.98361,-8.108921 2.45611,-3.819945 5.61311,-7.219868 9.42076,-9.719111 1.12636,-0.727366 2.01908,-1.854736 2.1586,-3.221836 0.34326,-1.551166 -0.9661,-2.751404 -1.67055,-3.980267 -0.33042,-0.343596 -0.42828,-1.162368 -0.98226,-0.587052 z m -0.68188,122.118265 c -1.17554,0.0875 -1.60642,1.41774 -2.18277,2.25708 -1.07107,1.92364 -2.53324,3.58497 -3.64225,5.47633 -0.30357,0.54255 0.1937,0.83664 0.65363,1.01003 1.19297,0.62515 2.40959,1.53082 3.64233,2.07579 1.17215,-0.51402 2.16886,-1.38036 3.1679,-2.17169 1.28778,-1.0497 2.39752,-2.76311 1.817,-4.47425 -0.48793,-1.47008 -1.60017,-2.9233 -2.75467,-3.92329 -0.20727,-0.13592 -0.4507,-0.24785 -0.70117,-0.25 z"
           sodipodi:nodetypes="cccccccccccccccccccc" /></g><g
         id="g31128"><path
           style="fill:#000000;fill-opacity:1"
           d="m 802.76172,535.87893 c -0.52538,0.3699 -1.3007,0.81625 -2.97461,1.5957 -5.47404,2.5488 -14.54895,11.0936 -19.69727,18.54687 -0.86365,1.2503 -2.28391,3.62401 -3.87695,6.44141 -1.59229,2.81676 -3.35777,6.07444 -4.91016,9.09766 -9.1e-4,0.002 -10e-4,0.004 -0.002,0.006 -6.08587,11.85194 -6.39414,12.10601 -15.11133,12.38281 -3.57737,0.1137 -3.70006,0.23613 -3.13086,3.08203 1.4413,7.20637 -2.6645,11.17463 -9.29492,8.98633 -1.8494,-0.6104 -5.78843,-3.32681 -8.7539,-6.03711 -5.73062,-5.2375 -8.59571,-5.67369 -8.59571,-1.30859 0,3.19527 6.24738,9.95907 11.9336,12.92187 2.51177,1.3086 3.99035,2.40173 3.28515,2.42773 -2.70017,0.098 -8.27361,-2.96513 -12.51953,-6.8789 -4.99277,-4.6022 -6.17492,-4.92136 -7.69336,-2.08399 -2.2943,4.2869 6.07576,12.82817 16.77735,17.11914 l 4.71679,1.89063 -4,-0.63477 c -5.26057,-0.8364 -11.21712,-3.83834 -15.27929,-7.69921 -2.6479,-2.5167 -3.61203,-2.90926 -5,-2.03516 -2.761,1.7387 -2.5422,3.93147 0.76757,7.70117 3.76314,4.286 10.79865,8.53112 16.94922,10.22852 4.54292,1.25417 4.54614,1.25917 1.0625,1.32617 -4.07047,0.078 -10.92156,-2.80532 -15.17773,-6.38672 -5.16272,-4.3442 -7.48809,-2.60577 -4.41602,3.29883 2.70374,5.19647 8.72696,9.24826 17.59375,11.83593 0.82186,0.23984 2.17312,0.36033 3.3711,0.51954 0.002,-8.8e-4 0.004,-10e-4 0.006,-0.002 1.19429,0.15879 2.50937,0.27278 3.86132,0.35742 1.63047,0.0736 3.2902,0.13484 4.9961,0.0723 0.14567,-0.005 0.27741,0.008 0.42383,0.002 3.58282,-0.15742 6.92155,-0.67406 10.24218,-1.68945 1.65955,-0.50745 3.31548,-1.13853 4.99414,-1.91211 l 0.002,-0.002 c 8.39746,-3.8704 17.38729,-11.28741 30.5,-24.41211 5.27814,-5.28297 10.19922,-10.44644 14.71093,-15.42774 v -0.002 c 3.85902,-4.26066 7.25667,-8.3041 10.48438,-12.25586 0.54623,-0.66881 1.24638,-1.41562 1.77344,-2.07422 1.82038,-2.2745 3.52604,-4.48666 5.10937,-6.6289 v -0.002 c 1.58325,-2.14216 3.04569,-4.21334 4.37891,-6.20703 v -0.002 c 1.33344,-1.99408 2.53711,-3.90901 3.60742,-5.73828 1.07031,-1.82934 2.00661,-3.57054 2.80078,-5.21875 v -0.002 c 0.29584,-0.61395 0.47681,-1.08929 0.72266,-1.63671 0.31139,-0.69353 0.67323,-1.44334 0.91406,-2.07422 0.97525,-2.55482 1.36037,-5.235 1.63086,-8.8086 z"
           id="path11975" /><path
           style="fill:#000000;fill-opacity:1"
           d="m 549.69531,510.04494 c -0.002,0.009 -0.004,0.0183 -0.006,0.0274 -2.3e-4,10e-4 2.4e-4,0.003 0,0.004 -0.5437,2.80236 -0.99403,5.4968 -1.33789,8.03906 -1.6e-4,10e-4 1.7e-4,0.003 0,0.004 -0.34372,2.54194 -0.58148,4.93229 -0.70117,7.12891 -0.14687,2.69522 -0.13857,5.00188 0.082,7.0625 1.8e-4,0.002 -1.8e-4,0.004 0,0.006 0.11029,1.02806 0.27455,1.99533 0.49805,2.91797 2.9e-4,10e-4 -2.9e-4,0.003 0,0.004 0.2238,0.92309 0.50775,1.80168 0.85937,2.6543 1.40835,3.41498 3.90021,6.40603 7.93946,10.09765 11.74914,10.73809 34.58528,23.1106 55.82617,31.37305 12.74456,4.95715 24.91522,8.43481 33.77148,9.19336 0.33817,0.029 1.18295,0.14598 1.58008,0.18359 4.31073,0.40841 11.38835,1.21624 17.15039,2.00196 6.29282,0.8581 13.77892,1.31853 16.63672,1.02343 8.41239,-0.86807 13.2937,-4.26497 11.7832,-8.20117 -0.4793,-1.249 -2.51336,-1.42433 -12.21875,-1.05273 -9.85809,0.3775 -10.53463,0.31721 -4.41601,-0.39649 8.26991,-0.96477 19.71311,-4.23324 23.02148,-6.57421 2.64254,-1.8698 3.01352,-6.25063 0.60742,-7.17383 -0.90357,-0.3467 -5.51616,0.11489 -10.25,1.02539 -9.25769,1.781 -14.2963,2.20008 -20.60742,1.70898 -2.83897,-0.221 -1.58712,-0.54388 4.3086,-1.11328 15.58906,-1.5056 29.07586,-8.06548 28.01562,-13.62695 -0.5203,-2.7289 -3.99683,-2.68828 -11.82812,0.13672 -3.90458,1.4084 -9.66336,2.80873 -12.79688,3.11133 -3.1337,0.30247 -7.03517,0.76033 -8.66797,1.01953 -5.71677,0.9073 -1.039,-1.30856 6.46875,-3.06446 16.06701,-3.75747 27.23105,-12.8076 20.79688,-16.85937 -1.32578,-0.8348 -3.09953,-0.38108 -8,2.04492 -7.36632,3.6466 -15.89925,6.3125 -20.19922,6.3125 -2.60382,0 -2.03937,-0.47943 3.93164,-3.3457 9.32789,-4.4776 13.4707,-8.05647 13.4707,-11.63477 0,-4.38007 -2.47572,-4.41192 -9.82617,-0.12305 -3.66974,2.141 -8.9239,4.60436 -11.67383,5.47266 -10.79874,3.4098 -29.06174,5.33837 -37.3457,4.44727 -3.58998,-0.5207 -6.05519,-2.3556 -8.15234,-4.3711 -1.05527,-1.0158 -2.49109,-2.44318 -4.03516,-4.01758 -4.07482,-4.15498 -8.28684,-7.78486 -12.37109,-10.77734 -1.79179,-1.31276 -3.55738,-2.49651 -5.27539,-3.54101 -0.11015,-0.0668 -0.21448,-0.11797 -0.32422,-0.1836 -1.47489,-0.88425 -2.90147,-1.63816 -4.28711,-2.30078 -0.40734,-0.19391 -0.80519,-0.36737 -1.20313,-0.54102 -1.08628,-0.4762 -2.12704,-0.86125 -3.13281,-1.17968 -0.40694,-0.12806 -0.8248,-0.27772 -1.2168,-0.37891 -1.27329,-0.33055 -2.48564,-0.55323 -3.57812,-0.58398 -0.0243,-6.9e-4 -0.054,-0.009 -0.0781,-0.01 -1.96851,-0.0437 -2.94454,-0.0714 -3.08984,-0.21484 -0.099,-0.0905 0.17607,-0.23709 0.72266,-0.45508 -2.57385,-0.57566 -3.56513,-0.83247 -7.14258,-1.375 -4.60646,-0.69858 -9.25931,-1.2758 -13.89063,-1.78711 -1.71806,-0.18968 -3.3096,-0.25782 -5.01758,-0.56836 -1.653,-0.30055 -3.2243,-0.9778 -4.80078,-1.54883 z"
           id="path11973" /></g></g></g></svg>
