<?xml version="1.0" encoding="UTF-8" standalone="no"?>
<!-- Created with Inkscape (http://www.inkscape.org/) -->

<svg
   width="645.19794"
   height="588.03485"
   viewBox="0 0 170.70862 155.58422"
   version="1.1"
   id="svg2674"
   inkscape:version="1.2.2 (b0a8486541, 2022-12-01)"
   sodipodi:docname="banana_voting.svg"
   xmlns:inkscape="http://www.inkscape.org/namespaces/inkscape"
   xmlns:sodipodi="http://sodipodi.sourceforge.net/DTD/sodipodi-0.dtd"
   xmlns="http://www.w3.org/2000/svg"
   xmlns:svg="http://www.w3.org/2000/svg">
  <sodipodi:namedview
     id="namedview2676"
     pagecolor="#ffffff"
     bordercolor="#000000"
     borderopacity="0.25"
     inkscape:showpageshadow="2"
     inkscape:pageopacity="0.0"
     inkscape:pagecheckerboard="0"
     inkscape:deskcolor="#d1d1d1"
     inkscape:document-units="mm"
     showgrid="false"
     inkscape:zoom="0.88119075"
     inkscape:cx="342.71808"
     inkscape:cy="331.93721"
     inkscape:window-width="1148"
     inkscape:window-height="1048"
     inkscape:window-x="768"
     inkscape:window-y="126"
     inkscape:window-maximized="1"
     inkscape:current-layer="layer1" />
  <defs
     id="defs2671" />
  <g
     inkscape:label="Ebene 1"
     inkscape:groupmode="layer"
     id="layer1"
     transform="translate(-31.683834,-59.381618)">
    <g
       id="g538"
       transform="rotate(180,117.03822,137.17365)">
      <g
         id="g31124"
         transform="matrix(-0.26458333,0,0,-0.26458333,281.55931,253.75883)">
        <path
           style="fill:#e6e6e6"
           d="m 796.72962,384.7767 c 6.9812,-3.6814 14.0493,-11.2147 17.564,-18.7198 2.2214,-4.7436 2.579,-6.8754 2.5996,-15.5 0.021,-8.9531 -0.2799,-10.6578 -2.8771,-16.2821 -3.7229,-8.0619 -12.2799,-16.2065 -20.102,-19.1332 -8.2482,-3.086 -8.2449,-3.0879 -7.2036,4.1653 0.4935,3.4375 1.0717,7.1975 1.2848,8.3557 0.2131,1.1582 2.1406,3.266 4.2834,4.684 7.4513,4.9311 10.9094,16.8621 7.6935,26.5442 -2.034,6.1239 -4.6045,9.5408 -9.504,12.6338 -3.5434,2.2368 -3.7406,2.658 -4.6674,9.9676 l -0.9676,7.6322 3.0419,-0.6413 c 1.6731,-0.3527 5.6576,-2.0206 8.8545,-3.7064 z"
           id="path479" />
        <path
           style="fill:#e6e6e6"
           d="m 605.40842,386.3069 c -0.021,-6.625 -1.3189,-13.25 -2.5958,-13.25 -2.1744,0 -8.3675,-6.0246 -10.5097,-10.2238 -2.6707,-5.2351 -3.4501,-12.6891 -1.9041,-18.211 1.4714,-5.2554 6.7176,-11.7839 10.8424,-13.4924 2.6228,-1.0864 2.965,-1.7812 3.5275,-7.1634 0.3427,-3.2781 0.9025,-7.0738 1.2441,-8.4348 0.5466,-2.1778 0.2953,-2.4746 -2.0944,-2.4746 -5.1294,0 -14.9692,5.6578 -20.8083,11.9648 -8.5971,9.2859 -12.0786,21.0116 -9.6836,32.6149 2.865,13.8801 11.3045,23.9319 24.6344,29.3407 6.5183,2.6449 7.3577,2.5683 7.3475,-0.6704 z"
           id="path477" />
        <path
           style="fill:#ffffff"
           d="m 664.95162,388.1802 c 4.4501,-2.0214 14.436,-12.4341 16.8959,-17.618 4.8201,-10.1577 -1.6448,-21.9862 -12.6976,-23.232 -5.6323,-0.6348 -10.9109,1.0661 -15.3186,4.9361 l -3.4143,2.9977 v -3.4687 c 0,-4.4123 3.1263,-8.4372 8.4214,-10.8421 7.565,-3.4359 14.2069,-2.1201 24.3378,4.8214 5.0388,3.4526 7.9411,4.7347 11.4945,5.0781 4.3959,0.4247 5.3166,0.079 12.2313,-4.5924 12.4955,-8.4416 22.1203,-9.2652 29.5747,-2.5306 3.1094,2.8092 3.9403,4.2734 3.9403,6.9435 0,1.861 -0.2513,3.3837 -0.5586,3.3837 -0.3072,0 -2.3438,-1.4347 -4.5257,-3.1881 -3.2122,-2.5814 -5.0564,-3.2553 -9.6914,-3.5414 -7.5403,-0.4654 -12.7689,2.3818 -16.0386,8.7336 -4.086,7.9375 -1.1718,17.1451 8.1443,25.7323 9.4945,8.7518 17.7694,10.4989 25.7243,5.4315 10.6617,-6.7917 17.0163,-17.6741 17.7532,-30.4025 0.7732,-13.3571 -3.0335,-21.5852 -13.0553,-28.2185 -13.2767,-8.7877 -36.7508,-9.1257 -48.3865,-0.6969 l -4.0068,2.9025 -3.91,-2.9154 c -6.1188,-4.5623 -13.0497,-6.1276 -24.8284,-5.6075 -16.8803,0.7453 -27.5019,6.2768 -33.1101,17.2426 -2.7087,5.2964 -3.006,6.7954 -2.967,14.957 0.055,11.4717 2.5851,18.3618 9.5361,25.9673 8.3214,9.1049 16.0474,11.546 24.4551,7.7268 z"
           id="path471" />
        <path
           style="fill:#ffffff"
           d="m 706.80662,475.6543 c 4.0219,-2.6859 6.1984,-3.3578 5.0954,-1.573 -0.3482,0.5634 -0.3309,2.4004 0.038,4.0822 l 0.6716,3.0578 8.1525,-7.8702 c 4.4838,-4.3286 11.2617,-10.3114 15.0619,-13.2952 8.9093,-6.9952 13.9344,-14.6631 16.1573,-24.6546 3.9716,-17.8516 -3.372,-31.8123 -20.9468,-39.8214 -3.9733,-1.8107 -11.4758,-6.1898 -16.6721,-9.7314 -9.7601,-6.652 -14.3673,-8.7987 -18.8471,-8.7819 -3.595,0.014 -10.9127,3.6054 -21.999,10.7983 -5.1691,3.3538 -11.6941,6.9004 -14.5,7.8814 -3.6496,1.276 -6.9687,3.6377 -11.6607,8.2972 -8.1474,8.0908 -10.4732,14.1777 -9.6917,25.3648 0.9642,13.8022 5.9956,22.1736 20.0815,33.4125 3.8564,3.077 10.0268,8.4389 13.712,11.9153 3.6852,3.4764 6.9831,6.3208 7.3288,6.3208 0.3456,0 0.6284,-1.8116 0.6284,-4.0257 v -4.0257 l 3.25,1.6573 c 1.7875,0.9115 5.4258,3.6769 8.0851,6.1454 l 4.8352,4.4882 3.6648,-3.5223 c 2.0157,-1.9373 5.4152,-4.6912 7.5544,-6.1198 z"
           id="path463" />
      </g>
      <path
         id="path303"
         style="fill:#000000;stroke-width:0.264583"
         d="m 96.051132,189.67248 v -5.3e-4 c 0.356526,-0.003 1.022747,-0.12745 2.084625,-0.33177 1.622002,-0.31207 3.146373,-0.80528 4.560963,-1.44642 0.22204,-0.10066 0.44837,-0.19546 0.66456,-0.30386 v -5.3e-4 c 0.17997,-0.0903 0.35028,-0.19279 0.52607,-0.28835 0.46598,-0.25324 0.91736,-0.52369 1.35236,-0.81339 0.12716,-0.0847 0.26059,-0.16235 0.385,-0.25011 v -5.3e-4 c 0.0833,-0.0588 0.15978,-0.12485 0.24185,-0.185 0.61786,-0.45277 1.20584,-0.93714 1.74821,-1.46503 0.36449,-0.35478 0.69615,-0.65768 0.93639,-0.8599 0.23964,-0.20184 0.3886,-0.30372 0.3886,-0.2558 v 5.3e-4 c -1.7e-4,0.1285 -0.32449,0.82151 -0.73896,1.62523 v 5.2e-4 c -0.41476,0.80417 -0.9194,1.71976 -1.28056,2.29185 -0.3439,0.54479 -0.62529,1.05899 -0.62529,1.14257 0,0.0209 0.18439,-0.0613 0.28165,-0.0941 0.0974,-0.0329 0.10761,-0.0164 0.28112,-0.0935 v -5.3e-4 c 0.0119,-0.005 0.0343,-0.0172 0.0465,-0.0227 0.34439,-0.15454 0.79852,-0.3753 1.30792,-0.64234 1.1437,-0.59946 2.22409,-1.40222 3.19413,-2.33319 0.0358,-0.0343 0.0751,-0.064 0.11058,-0.0987 0.66439,-0.65019 1.27358,-1.36307 1.80868,-2.11719 l 5.3e-4,-5.3e-4 c 0.8027,-1.13134 1.43941,-2.35613 1.84898,-3.60184 0.0378,-0.11479 0.0707,-0.19682 0.10335,-0.2434 0.0323,-0.0465 0.0645,-0.0571 0.10129,-0.0294 0.0741,0.0558 0.16668,0.26892 0.31677,0.66972 0.19071,0.50932 0.35579,1.19394 0.36691,1.52136 0.0111,0.32742 0.12416,0.59531 0.25166,0.59531 0.0467,0 0.11334,-0.0534 0.19585,-0.15038 0.0827,-0.0973 0.18131,-0.23877 0.29146,-0.41599 0.66071,-1.06302 1.73854,-3.40797 2.312,-5.15266 l 0.70539,-2.14664 h 5.3e-4 l 1.54202,-0.16123 c 2.97815,-0.31128 5.93433,-1.88032 8.09718,-4.09794 1.29759,-1.33054 2.30958,-2.89478 2.86959,-4.56096 0.47359,-1.40907 0.70314,-3.53816 0.62167,-5.31751 -0.0272,-0.59304 -0.0888,-1.14739 -0.18758,-1.62315 -0.26061,-1.25533 -0.72815,-2.46446 -1.3622,-3.58738 -1.26811,-2.24566 -3.20178,-4.14708 -5.47511,-5.38314 h -5.3e-4 c -0.56824,-0.30892 -1.15765,-0.57653 -1.7632,-0.79736 h -5.3e-4 c -0.60562,-0.22081 -1.22752,-0.39507 -1.86035,-0.5178 h -5.3e-4 c -1.55336,-0.30126 -2.17985,-0.62847 -1.92237,-1.18236 0.0514,-0.11062 0.13776,-0.23042 0.25942,-0.3607 0.24349,-0.26082 0.62725,-0.56419 1.14825,-0.92294 0.31581,-0.2175 0.64097,-0.48322 0.96635,-0.75189 0.0928,-0.0766 0.18204,-0.1339 0.27544,-0.21446 l 5.2e-4,-5.3e-4 c 0.0242,-0.0209 0.0491,-0.0481 0.0734,-0.0693 0.39741,-0.34653 0.7991,-0.72188 1.20355,-1.13429 0.22434,-0.22875 0.44977,-0.49128 0.67489,-0.73846 0.20562,-0.22569 0.41103,-0.43427 0.6165,-0.67438 v -5.3e-4 c 0.43037,-0.50283 0.85952,-1.03622 1.28416,-1.59525 0.1199,-0.15787 0.23594,-0.33214 0.35502,-0.49402 0.3028,-0.41158 0.60649,-0.82159 0.90227,-1.25677 v -5.3e-4 c 0.41201,-0.6062 0.81627,-1.23325 1.20871,-1.87741 v -5.3e-4 c 0.78492,-1.28849 1.52386,-2.64361 2.18902,-4.02921 v -5.3e-4 c 0.98027,-2.04218 1.90998,-4.43569 2.70267,-6.87452 0.26412,-0.81262 0.51368,-1.6302 0.74414,-2.44171 9e-5,-2.6e-4 -8e-5,-0.001 0,-0.002 0.23045,-0.81142 0.44266,-1.6167 0.63304,-2.4045 8e-5,-2.7e-4 -8e-5,-7.9e-4 0,-10e-4 0.19036,-0.78777 0.35944,-1.55808 0.50333,-2.2996 6e-5,-2.7e-4 -7e-5,-7.9e-4 0,-0.001 0.14385,-0.74139 0.263,-1.45436 0.35398,-2.127 4e-5,-2.7e-4 -4e-5,-7.9e-4 0,-0.001 0.0909,-0.67255 0.15385,-1.305 0.18552,-1.88619 0.16584,-2.60019 -0.71874,-7.42891 -4.7563,-7.79332 -4.03756,-0.36442 -7.7557,4.85552 -10.05417,9.52603 -0.005,0.0134 -0.01,0.027 -0.0139,0.0408 l -0.39842,0.64131 c -0.44114,0.70957 -0.86069,1.7671 -1.06867,2.29443 -0.25764,0.6059 -0.51894,1.64157 -0.63252,2.03347 -0.11357,0.3919 -0.70076,2.76732 -0.75706,2.87889 -0.0563,0.11158 -0.23615,1.03027 -0.493,2.11977 -0.25685,1.08943 -0.67292,1.91035 -0.72812,1.85519 -0.0552,-0.0552 0.10762,-1.09204 0.32143,-2.31149 l 0.47749,-2.72438 c 0.0845,-0.55565 0.37988,-1.61202 0.59325,-2.58796 0.96095,-5.84037 1.68225,-11.54033 1.28364,-16.90232 0.52689,-0.16737 1.0719,-0.64445 1.06505,-0.65474 0.50194,0.87154 1.20458,1.63316 1.96784,2.21123 0.89727,0.67957 1.87786,1.10495 2.71249,1.15652 2.3256,0.0908 3.8577,-2.07398 4.49947,-3.83904 v -0.001 c 0.31834,-0.9304 0.59049,-1.84218 0.72967,-2.803966 0.57804,-4.0815 -0.65716,-7.918363 -4.2292,-13.136666 -2.70229,-3.947723 -5.57635,-6.901359 -10.62881,-10.921812 -2.03987,-1.623229 -2.706,-2.302996 -2.56728,-3.032889 0.023,-0.121243 0.0679,-0.244031 0.13281,-0.372589 1.9e-4,-2.65e-4 2e-4,-5.29e-4 5.3e-4,-0.0011 0.065,-0.128651 0.1495,-0.263134 0.25114,-0.408245 2.5e-4,-2.64e-4 2e-4,-0.0013 5.3e-4,-0.0016 5.3e-4,-5.29e-4 0.002,-0.0016 0.003,-0.0021 0.11013,-0.155191 0.36295,-0.34603 0.68419,-0.529166 2.7e-4,-2.09e-4 8e-4,-1.96e-4 0.001,-5.3e-4 l 5.3e-4,-5.29e-4 c 0.3237,-0.184435 0.71566,-0.361365 1.09761,-0.48524 1.17038,-0.379571 2.22318,-0.851686 3.12435,-1.381313 2e-4,-1.14e-4 8e-4,-5.29e-4 10e-4,-5.29e-4 0.45043,-0.264785 0.8629,-0.543608 1.23352,-0.832493 h 5.3e-4 c 0.74141,-0.577797 1.31483,-1.194329 1.68672,-1.814354 0.18584,-0.309906 0.32157,-0.620607 0.40256,-0.927603 0.081,-0.306969 0.10766,-0.61034 0.0754,-0.905404 -0.0162,-0.147452 -0.047,-0.292285 -0.093,-0.435107 -0.046,-0.142928 -0.10751,-0.283501 -0.18449,-0.420608 -0.4338,-0.77289 -0.81974,-0.847873 -1.31,-0.160724 -0.16317,0.228775 -0.33833,0.542491 -0.5302,0.942568 -2.3e-4,0 -1.8e-4,-5.3e-5 -5.3e-4,0.0026 -0.83711,1.746118 -2.30133,3.132905 -4.45657,4.220919 -1.09033,0.5504 -1.68777,0.799939 -1.74976,0.770496 -0.0622,-0.02912 0.4075,-0.336373 1.45675,-0.901753 1.23251,-0.664048 2.19754,-1.354108 2.91559,-2.098566 0.47858,-0.496385 0.84759,-1.017059 1.11259,-1.570435 0.13238,-0.276621 0.23861,-0.56126 0.31988,-0.855265 0.0151,-0.05456 0.0182,-0.113771 0.0315,-0.168963 0.13055,-0.539978 0.19014,-1.106662 0.1602,-1.715151 -0.0339,-0.689345 -0.90305,-1.653672 -1.49035,-1.653672 -0.11038,0 -0.21234,0.03844 -0.31058,0.121973 -0.0611,0.05196 -0.1196,0.15576 -0.17828,0.244448 -0.0356,0.05392 -0.0727,0.08035 -0.108,0.148828 -0.0933,0.181081 -0.18533,0.415158 -0.28112,0.707946 -10e-5,0 -10e-4,0 -10e-4,0 -0.0958,0.293132 -0.19456,0.645848 -0.30024,1.06508 h -5.3e-4 c -0.0429,0.170233 -0.10875,0.35187 -0.1943,0.540517 h -5.3e-4 c -0.0112,0.02461 -0.0289,0.05154 -0.0408,0.07649 -0.079,0.165814 -0.16643,0.334898 -0.27233,0.508492 -0.24359,0.399388 -0.55281,0.81272 -0.90021,1.209225 -0.34776,0.396822 -0.73384,0.776896 -1.13171,1.109504 h -5.3e-4 c -0.39783,0.332449 -0.80738,0.617564 -1.20147,0.82423 -0.35406,0.185684 -0.57632,0.288819 -0.66301,0.310567 -0.0893,0.02355 -0.0419,-0.03506 0.15554,-0.179308 1.23123,-0.899292 2.16027,-1.789006 2.78123,-2.662899 h 5.3e-4 c 0.15507,-0.218413 0.29119,-0.435874 0.40773,-0.652145 0.11638,-0.216032 0.21366,-0.430731 0.29145,-0.644408 h 5.3e-4 c 0.15557,-0.427673 0.23358,-0.850715 0.23358,-1.267619 0,-1.228751 -0.5949,-2.255679 -1.30586,-2.255679 -0.1589,0 -0.29875,0.02688 -0.42427,0.08787 -0.12531,0.06088 -0.23628,0.15576 -0.33848,0.290935 h -5.3e-4 c -0.10232,0.135441 -0.19575,0.311388 -0.28525,0.534856 -0.042,0.104933 -0.0821,0.258418 -0.12299,0.384968 -0.0461,0.143008 -0.0929,0.262097 -0.13901,0.434605 h -5.3e-4 c -0.0746,0.279188 -0.17778,0.562954 -0.30489,0.846455 h -5.3e-4 c -0.0151,0.0336 -0.0375,0.06665 -0.0532,0.10025 -0.11724,0.250058 -0.24585,0.500195 -0.39687,0.746205 -0.17123,0.279003 -0.36235,0.553656 -0.56896,0.819086 h -5.3e-4 c -0.20654,0.265272 -0.42866,0.521441 -0.66197,0.764276 -0.70073,0.729324 -1.5028,1.33686 -2.2903,1.702223 h -5.3e-4 c -0.26247,0.121708 -0.52335,0.216694 -0.77825,0.280088 -0.22702,0.05646 -0.3131,0.05403 -0.25632,-0.0093 0.0564,-0.06342 0.25573,-0.18849 0.60049,-0.377243 0.672,-0.368115 1.43599,-0.987928 2.08927,-1.653646 0.65329,-0.665718 1.19596,-1.377331 1.42627,-1.928564 0.13926,-0.333666 0.23935,-0.683022 0.30024,-1.029388 0.004,-0.02461 8e-4,-0.04728 0.005,-0.07186 0.16226,-1.013883 -2.4e-4,-1.993953 -0.48007,-2.473748 -0.48718,-0.487177 -0.61079,-0.506968 -1.10588,-0.178276 -0.0759,0.05038 -0.16177,0.13888 -0.25218,0.254238 -8e-4,0 -0.002,0.0026 -0.003,0.0026 -0.0913,0.116946 -0.18702,0.26199 -0.28164,0.425317 h -5.3e-4 c -0.18931,0.32684 -0.37389,0.727075 -0.50797,1.121384 h -5.3e-4 c -0.13413,0.394679 -0.33047,0.828066 -0.53847,1.208167 -0.208,0.380153 -0.42766,0.706966 -0.60927,0.888868 -0.59965,0.600577 -0.92175,0.674846 -3.49953,0.803555 -3.35542,0.167561 -4.5399,0.631931 -5.56556,2.181781 -0.25024,0.378142 -0.43198,0.755676 -0.54311,1.171998 -0.0555,0.207909 -0.0938,0.426349 -0.11369,0.65786 -0.0199,0.231775 -0.0217,0.477282 -0.005,0.742053 v 5.29e-4 c 0.0164,0.264689 0.0513,0.548688 0.10438,0.855763 5e-5,2.62e-4 -5e-5,7.94e-4 0,0.0011 0.0532,0.307195 0.12499,0.637847 0.2155,0.996839 8e-5,2.65e-4 -5e-5,7.94e-4 0,0.0011 0.18124,0.718537 0.43823,1.550278 0.77256,2.53266 0.30409,0.893509 0.62992,1.788335 0.97618,2.681491 v 5.29e-4 c 0.34618,0.893004 0.71287,1.784925 1.09916,2.673739 v 0.0016 c 3.36269,6.435008 5.04981,9.85521 5.04981,9.855213 l -0.4377,0.723985 c 0,0 -2.56477,-4.133184 -4.84468,-9.060945 v -0.0021 c -0.88966,-1.946047 -1.67793,-3.876545 -2.31664,-5.705078 l -0.970491,-2.778125 -2.232422,-0.471807 c -1.741355,-0.367927 -3.075543,-0.448456 -6.068351,-0.364318 -4.710985,0.132424 -7.185792,0.788953 -11.508343,3.052527 l -2.908882,1.523939 -0.196373,1.545124 -0.120386,0.94878 c -5.3e-5,5.29e-4 5.3e-5,0.0026 0,0.0031 -0.08694,0.685951 -0.226801,1.488016 -0.381899,2.22777 -8e-5,2.65e-4 7.9e-5,5.29e-4 0,0.0011 -0.155126,0.739576 -0.325941,1.416531 -0.474398,1.853117 -8e-5,2.28e-4 7.9e-5,0.0013 0,0.0016 -0.148458,0.436343 -0.270113,0.743326 -0.346737,0.887285 -1.05e-4,1.62e-4 1.33e-4,7.94e-4 0,0.0011 -0.03852,0.07234 -0.06575,0.102708 -0.07906,0.08785 -0.01323,-0.01468 -0.01296,-0.07338 0.0032,-0.181901 1.06e-4,-5.29e-4 -8e-5,-0.0011 0,-0.0016 0.225504,-1.524873 0.38608,-2.795768 0.477493,-3.869531 2.7e-5,-2.65e-4 -2.6e-5,-0.0013 0,-0.0016 0.09136,-1.073531 0.113639,-1.950164 0.06305,-2.687174 -2.7e-5,-2.65e-4 2.6e-5,-7.94e-4 0,-0.0011 -0.0254,-0.368226 -0.06853,-0.702 -0.130758,-1.007692 -5.2e-5,-2.64e-4 8e-5,-0.0024 0,-0.0026 -0.186901,-0.917437 -0.542792,-1.585436 -1.080029,-2.197282 -1.173982,-1.337056 -2.620354,-1.828102 -5.144902,-1.746663 -4.145015,0.133773 -4.048389,0.144457 -4.780597,-0.538985 -0.38227,-0.356865 -0.935541,-1.124797 -1.229387,-1.706872 -0.29382,-0.582097 -0.721042,-1.270596 -0.949801,-1.530655 -0.405765,-0.461274 -0.838253,-0.503607 -1.228355,-0.141075 -0.129831,0.120835 -0.255217,0.287258 -0.373115,0.497125 -0.111442,0.198517 -0.181927,0.418571 -0.215477,0.653706 -0.234368,1.648746 1.362657,4.053409 3.628708,5.214668 0.807429,0.4138 1.121278,0.665318 1.02735,0.712618 -0.0917,0.04888 -0.593037,-0.106442 -1.424728,-0.509013 -1.446318,-0.700165 -2.890652,-2.220709 -3.779626,-3.980119 -0.744034,-1.472602 -1.378267,-1.873499 -2.063432,-1.30483 -0.121179,0.100568 -0.212725,0.266946 -0.2744,0.477491 -0.185076,0.633476 -0.100541,1.664255 0.256832,2.495454 0.456459,1.061583 2.039249,2.588578 3.602884,3.476273 0.756946,0.429679 1.049999,0.651383 0.947737,0.659908 -0.09729,0.01132 -0.591053,-0.190894 -1.420072,-0.615465 -1.702408,-0.87193 -3.365711,-2.663201 -3.951181,-4.255553 -0.509614,-1.385988 -1.172819,-1.792881 -1.80557,-1.149284 -2.64e-4,2.64e-4 0,0.0024 0,0.0026 -0.09022,0.09194 -0.179758,0.205165 -0.268208,0.340031 -2.11e-4,2.65e-4 0,7.94e-4 0,0.0011 -0.111707,0.170489 -0.189336,0.36182 -0.23614,0.568957 -0.327369,1.451645 0.882729,3.682016 2.840116,5.00021 0.56941,0.383455 0.985626,0.713793 1.089343,0.853696 0.03493,0.04635 0.03522,0.0711 -0.0032,0.07183 v 0.0011 c -0.432197,0 -2.279544,-1.401117 -3.041677,-2.306836 -0.369305,-0.438891 -0.826082,-1.170877 -1.014915,-1.626775 -0.341365,-0.823992 -0.88257,-0.974839 -1.239731,-0.599448 -0.03437,0.03612 -0.06032,0.09225 -0.09094,0.137978 -0.03286,0.04913 -0.06998,0.08842 -0.09768,0.148312 -0.0282,0.06095 -0.04466,0.141671 -0.06665,0.213423 -0.01984,0.06474 -0.04635,0.119984 -0.06046,0.193271 -7.9e-5,1.93e-4 5.3e-5,0.0013 0,0.0016 -0.02969,0.15431 -0.04575,0.327382 -0.04548,0.5178 v 0.0011 c 2.65e-4,0.250597 0.0313,0.495966 0.092,0.735356 0.06017,0.239694 0.151977,0.473731 0.272309,0.701249 v 5.29e-4 c 0.722233,1.364949 2.504705,2.501651 5.226579,3.308842 3.53449,1.048438 3.868579,1.198052 4.600231,2.067576 0.622962,0.740299 0.805471,1.467678 0.480589,2.766237 -1.32e-4,5.3e-4 0,0.0011 0,0.0016 -0.0649,0.259424 -0.149886,0.541433 -0.255799,0.851112 -1.06e-4,2.64e-4 0,7.93e-4 0,0.0011 -0.212063,0.6198 -0.507682,1.350163 -0.890402,2.227252 -2.38e-4,5.29e-4 -2.65e-4,0.0011 0,0.0016 -0.224155,0.513728 -0.390155,0.924962 -0.575654,1.37201 -0.115676,0.2788 -0.266568,0.623356 -0.358643,0.854729 -0.239553,0.601742 -0.387799,1.014767 -0.38809,1.095539 v 0.0011 c 0,0.160293 -0.283105,1.275308 -0.628915,2.477368 -7.9e-5,2.65e-4 0,7.94e-4 0,0.0011 -0.216191,0.751549 -0.406559,1.536131 -0.567902,2.322338 -0.161396,0.786532 -0.293423,1.574626 -0.391715,2.332675 -0.196612,1.516026 -0.258869,2.91215 -0.153988,3.935677 0.171186,1.67069 0.833729,3.78168 1.187,3.78168 0.0499,-5.3e-4 0.345837,-0.31955 0.782902,-0.83458 0.101733,-0.11987 0.263076,-0.32715 0.378778,-0.46663 0.381847,-0.46036 0.779965,-0.94157 1.251611,-1.54203 2.65e-4,-2.7e-4 2.39e-4,-7.9e-4 0,-0.001 0.380868,-0.48486 0.838306,-1.03301 1.351862,-1.624185 0,-2.65e-4 2.39e-4,-7.94e-4 0,-0.0011 0.513636,-0.591341 1.083443,-1.22527 1.688783,-1.882056 2.65e-4,-2.64e-4 0,-5.29e-4 0,-0.0011 1.210945,-1.313786 2.564262,-2.717946 3.895884,-4.047815 v -5.3e-4 c 2.66393,-2.660353 5.241184,-5.025302 6.41768,-5.782077 0.815869,-0.524719 1.496933,-0.938752 2.112036,-1.267621 0.598911,-0.320204 1.134878,-0.557795 1.66759,-0.732772 1.089395,-0.357867 2.168842,-0.455906 3.760999,-0.460954 0.808699,-0.0026 1.365647,0.01423 1.847956,0.04651 0.06257,0.0045 0.135863,0.01217 0.194812,0.01757 0.856298,0.07541 1.398297,0.2379 2.213319,0.620117 1.998425,0.93708 3.366797,2.340644 3.579628,3.67161 0.05334,0.333666 0.115226,0.551394 0.15658,0.910539 0.04133,0.359119 0.142637,0.779518 0.340545,1.209228 0.197909,0.429736 0.317103,0.837576 0.313161,1.247468 0,0.783723 -0.594863,1.447999 -1.285716,1.744597 0.158009,0.439208 0.204364,0.927287 0.06408,1.377693 -0.193172,0.629179 -0.6604,1.255755 -1.344613,1.374076 0.03027,0.436986 -0.02847,0.923965 -0.267705,1.313617 -0.321442,0.602059 -1.089898,0.831924 -1.72339,0.650605 -1.035817,-0.320066 -1.779058,-1.155681 -2.599346,-1.816425 -0.512286,-0.367903 -1.004967,-0.818859 -1.631421,-0.975651 -0.280511,-0.06249 -0.707178,-0.08743 -0.81907,0.249597 -0.206905,0.537586 0.05382,1.094282 0.06511,1.640726 0,0.677836 -0.403464,1.242193 -1.104318,1.282093 l -1.247458,0.0646 -0.274928,0.0145 c 2.6e-5,5.3e-4 -2.7e-5,0.001 0,0.002 l -1.390624,0.0718 -1.259337,2.70785 c -0.652225,1.40202 -1.689947,3.12685 -2.711979,4.59817 -2.38e-4,1.9e-4 -2.65e-4,7.9e-4 0,0.001 -0.766366,1.10321 -1.524106,2.06336 -2.104284,2.63809 -0.193702,0.1919 -0.367348,0.34135 -0.515197,0.43821 l -0.675428,0.44287 0.786526,0.98185 c 0.813621,1.0158 1.672405,2.90691 2.380219,5.06739 0.345175,1.05364 0.653388,2.17149 0.903313,3.28404 0.25699,1.1473 0.454422,2.28819 0.561182,3.34708 0.04157,0.41225 0.05001,0.62185 0.0164,0.61495 -0.0544,-0.0178 -0.22106,-0.63719 -0.522446,-1.89549 -0.005,-0.0213 -0.0037,-0.0104 -0.0087,-0.032 -1.124055,-4.70154 -2.086107,-7.23612 -3.777535,-9.95236 l -0.672306,-1.07952 -0.952924,0.34054 c -0.524139,0.18733 -1.250579,0.34431 -1.614381,0.34934 -0.127662,0.002 -0.209868,-0.007 -0.248047,-0.0284 -0.03699,-0.0206 -0.03252,-0.0528 0.02011,-0.10025 0.105516,-0.0963 0.403781,-0.25358 0.923475,-0.49557 1.447641,-0.67437 3.849397,-2.93525 5.211551,-4.9072 0.228521,-0.33081 0.604282,-0.95885 1.02579,-1.70429 0.421296,-0.74526 0.888391,-1.60719 1.29913,-2.40709 2.38e-4,-5.2e-4 2.65e-4,-0.001 0,-0.002 1.610228,-3.135694 1.691772,-3.203049 3.998225,-3.276285 0.946494,-0.03008 0.978958,-0.06248 0.828357,-0.815454 -0.381344,-1.906619 0.704982,-2.956621 2.459276,-2.377633 0.48932,0.161502 1.531514,0.880218 2.316136,1.597319 1.516248,1.385755 2.274279,1.501095 2.274279,0.346233 0,-0.84542 -1.65362,-2.635006 -3.157405,-3.418914 -0.664554,-0.346233 -1.055794,-0.635457 -0.86921,-0.642337 0.714428,-0.02593 2.189057,0.78459 3.312451,1.820043 1.321012,1.217665 1.633802,1.302043 2.035546,0.551389 0.607033,-1.134243 -1.607556,-3.394186 -4.439021,-4.529439 l -1.247986,-0.50023 1.058333,0.16795 c 1.391841,0.221297 2.967884,1.015558 4.042648,2.037085 0.70059,0.665806 0.955675,0.769739 1.322917,0.538467 0.730514,-0.460031 0.67265,-1.040201 -0.203068,-2.037601 -0.99568,-1.134004 -2.857182,-2.257192 -4.484502,-2.706296 -1.201288,-0.331766 -1.202134,-0.333155 -0.28112,-0.350883 1.07696,-0.02064 2.889673,0.742241 4.015793,1.68982 1.365964,1.149403 1.981226,0.689443 1.1684,-0.872815 -0.715354,-1.374834 -2.309019,-2.447002 -4.655026,-3.13159 -0.217461,-0.06346 -0.574966,-0.09534 -0.891911,-0.137462 0,2.33e-4 0,2.01e-4 -0.0026,5.29e-4 -0.316019,-0.04201 -0.663919,-0.07224 -1.021636,-0.09457 -0.431377,-0.01947 -0.870532,-0.03563 -1.321885,-0.01913 -0.03852,0.0013 -0.07342,-0.0021 -0.112157,-5.29e-4 -0.947949,0.04165 -1.832001,0.178345 -2.709889,0.447 -0.439076,0.134263 -0.877226,0.301236 -1.321382,0.505912 v 5.29e-4 c -2.221838,1.024044 -4.600389,2.986527 -8.069791,6.459038 -1.396524,1.397786 -2.698539,2.763954 -3.892259,4.081923 v 5.29e-4 c -1.021054,1.127233 -1.920002,2.197132 -2.773998,3.242702 -0.144542,0.17695 -0.32975,0.37454 -0.469212,0.5488 -0.481621,0.60173 -0.932947,1.18716 -1.351862,1.7539 v 5.2e-4 c -0.418915,0.56672 -0.805841,1.11478 -1.158584,1.64228 v 5.3e-4 c -0.352822,0.5276 -0.671274,1.03426 -0.954458,1.51825 -0.283183,0.48402 -0.530939,0.94471 -0.741045,1.3808 v 5.3e-4 c -0.07829,0.16237 -0.126179,0.28821 -0.191214,0.43304 -0.08239,0.1835 -0.178091,0.38189 -0.241829,0.54881 -0.342186,0.89642 -0.436245,1.64797 -0.505407,3.2675 -0.122185,2.86002 0.23024,4.55293 3.08819,14.81873 0.545253,1.95869 1.018249,3.58381 1.458807,4.97076 v 5.3e-4 c 0.881036,2.77367 1.631711,4.59568 2.566775,6.23114 v 5.3e-4 c 0.233813,0.40889 0.47924,0.80601 0.741045,1.20354 0.261779,0.39754 0.540094,0.795 0.839735,1.2051 v 5.3e-4 c 0.323585,0.44286 0.765863,0.96104 1.268148,1.50016 0.502232,0.53904 1.064366,1.09904 1.627796,1.62471 0.563404,0.52558 1.127945,1.01747 1.635045,1.42007 0.50718,0.40271 0.956549,0.71622 1.289844,0.88625 0.206984,0.1056 0.376264,0.20148 0.51316,0.29197 0.136842,0.0905 0.240876,0.17633 0.317288,0.26252 0.152982,0.17262 0.194627,0.34689 0.162772,0.56741 v 5.3e-4 c -0.0172,0.11875 -0.05025,0.21837 -0.114724,0.30644 v 5.3e-4 c -0.06461,0.088 -0.160972,0.16459 -0.302815,0.23719 v 5.3e-4 c -0.142161,0.0726 -0.33155,0.14093 -0.580311,0.21342 -0.250005,0.0727 -0.560917,0.14935 -0.948796,0.2372 -2.083223,0.47176 -3.446118,1.06098 -4.897384,2.22053 v 5.3e-4 c -0.483659,0.38648 -0.977212,0.83649 -1.51048,1.36633 v 5.3e-4 c -0.55462,0.5511 -1.038569,1.09417 -1.460394,1.64434 v 5.3e-4 c -0.21082,0.27498 -0.405845,0.55197 -0.586529,0.83251 v 5.3e-4 c -0.180657,0.28054 -0.346604,0.56475 -0.499189,0.85472 v 5.3e-4 c -0.152559,0.28999 -0.291544,0.58605 -0.418068,0.88935 v 10e-4 c -0.126497,0.30332 -0.240136,0.61432 -0.342609,0.93483 -0.205079,0.64146 -0.364093,1.32108 -0.485246,2.05466 -0.857832,5.19415 1.659467,10.31994 5.898356,13.05915 0.706385,0.45645 1.460289,0.8469 2.254647,1.16013 0.397087,0.15657 0.804413,0.29407 1.220602,0.41083 0.416375,0.11679 0.841799,0.21253 1.275371,0.2868 0.860928,0.14747 1.292887,0.22309 1.59938,0.43202 0.153194,0.10434 0.274982,0.24192 0.403066,0.43873 v 5.3e-4 c 0.128112,0.19692 0.262838,0.45286 0.441325,0.79375 v 5.3e-4 c 0.22868,0.4368 0.530014,0.90983 0.877465,1.3901 0.34753,0.48036 0.740912,0.96787 1.154959,1.43299 0.413887,0.46487 0.848307,0.90706 1.276429,1.29811 0.428228,0.39104 0.850503,0.73061 1.240737,0.98908 l 1.215443,0.80512 v 5.3e-4 l -1.278493,0.0816 -1.277938,0.0811 1.40507,1.1188 c 0.445109,0.35427 0.927629,0.66816 1.443832,0.93947 0.516202,0.27132 1.065979,0.50045 1.64539,0.68627 1.158796,0.37163 2.43631,0.56939 3.800793,0.58394 l 2.023136,0.0212 -0.0026,0.002 h 0.0026 l -1.714103,0.82372 -1.712039,0.82321 1.183375,0.524 c 2.076344,0.91976 5.90714,0.8969 8.795861,0.0351 0.412671,-0.12311 0.806159,-0.26361 1.172528,-0.42065 0.795417,-0.34098 1.033224,-0.42712 1.007189,-0.2713 -0.0034,0.0202 -0.02871,0.0636 -0.04032,0.092 -0.01826,0.0443 -0.02773,0.0797 -0.06202,0.14367 -0.134302,0.25066 -0.742473,1.02112 -1.350803,1.71203 -2.65e-4,5.3e-4 -1.59e-4,0.002 0,0.002 -0.388224,0.44084 -0.651696,0.74527 -0.74467,0.93948 v 5.3e-4 c -0.09221,0.19367 -0.01402,0.277 0.282151,0.27492 z M 65.237519,171.10203 c 0.03056,-0.005 0.04752,-0.0213 0.04805,-0.0506 v -5.3e-4 c -2.11e-4,-0.0883 -0.368352,-0.69463 -0.818038,-1.34823 -1.164934,-1.69313 -2.259383,-4.22244 -2.654089,-6.13348 -0.332078,-1.60766 -0.380232,-1.67394 -2.204005,-3.02411 -2.505155,-1.85454 -6.287955,-5.71348 -8.134906,-8.2982 -5.927063,-8.29469 -8.080189,-18.35919 -6.490044,-27.14717 0.158962,-0.87843 0.35486,-1.74435 0.588592,-2.59416 8e-5,-2.7e-4 0,-8e-4 0,-0.001 0.233733,-0.84986 0.504931,-1.68383 0.813383,-2.49907 1.85e-4,-5.3e-4 0,-0.001 0,-0.002 0.308424,-0.81506 0.654102,-1.61153 1.037166,-2.3859 1.59e-4,-2.7e-4 0,-0.001 0,-0.002 0.383143,-0.77449 0.803646,-1.52701 1.261401,-2.25464 0.916067,-1.45658 1.981174,-2.81375 3.195691,-4.04626 1.892829,-1.92094 3.963511,-3.39363 6.723088,-4.78214 1.054444,-0.53063 1.916298,-1.00035 1.917198,-1.04438 -2.38e-4,-0.0441 -0.223467,-0.54763 -0.497126,-1.12035 -0.161766,-0.33859 -0.310885,-0.72604 -0.443389,-1.14411 v -5.3e-4 c -0.13245,-0.41795 -0.24839,-0.86663 -0.344143,-1.32809 -8e-5,-2.6e-4 5.3e-5,-7.9e-4 0,-10e-4 -0.191453,-0.92309 -0.302313,-1.897312 -0.302313,-2.779671 0,-0.460502 0.04022,-1.031245 0.110569,-1.658813 0.07025,-0.626907 0.171,-1.310632 0.292497,-1.997295 0.121497,-0.686461 0.263234,-1.376026 0.417036,-2.015381 8e-5,-2.65e-4 0,-7.94e-4 0,-0.0011 0.153803,-0.63923 0.319035,-1.228381 0.486278,-1.713589 1.06e-4,-2.65e-4 0,-7.94e-4 0,-0.0011 l 0.531231,-1.542542 -1.117759,0.176218 c -3.244295,0.511487 -6.915812,2.013678 -10.368359,4.16202 v 5.29e-4 c -2.071635,1.289056 -4.064424,2.811042 -5.838931,4.490681 -0.620369,0.58724 -1.175861,1.129793 -1.570964,1.530663 -0.394441,0.40023 -0.627909,0.65831 -0.607721,0.68006 0.04246,0.0419 0.729879,-0.13947 1.528604,-0.40308 1.409435,-0.46529 4.233809,-0.983019 3.966686,-0.72709 v 5.3e-4 5.3e-4 c -0.07276,0.0696 -1.164828,0.82507 -2.426732,1.67845 -0.735357,0.49726 -1.434703,1.00158 -2.095474,1.5105 v 5.3e-4 c -1.321858,1.01815 -2.489596,2.05463 -3.476783,3.08767 -0.49366,0.51627 -0.942684,1.03142 -1.34411,1.54358 0,5.3e-4 -1.06e-4,5.3e-4 0,10e-4 -0.700379,0.89363 -1.219782,1.62417 -1.156018,1.62523 0.06496,-1.6e-4 0.578327,-0.19319 1.141545,-0.42892 0.563483,-0.23582 1.54387,-0.58527 2.178685,-0.7767 l 1.15443,-0.34829 -0.0026,0.002 -2.533173,2.37764 c -0.526733,0.49433 -1.127469,1.13227 -1.727042,1.80557 -0.02865,0.0322 -0.054,0.0539 -0.08268,0.0863 -0.628227,0.70973 -1.255501,1.46506 -1.803506,2.16628 v 5.3e-4 c -0.822087,1.05195 -1.465765,1.98184 -1.666557,2.45049 -0.0667,0.15569 -0.08416,0.25972 -0.04342,0.30128 0.0282,0.0282 0.166872,-0.0126 0.367427,-0.1018 0.200554,-0.0892 0.46302,-0.2266 0.738981,-0.39016 0.513239,-0.30421 1.259919,-0.65063 1.878436,-0.89659 v -5.3e-4 c 0.618622,-0.24597 1.108974,-0.39111 1.108974,-0.29094 v 0.001 c 0,0.0621 -0.643519,1.09833 -1.429888,2.30477 -1.85e-4,2.6e-4 -2.64e-4,7.9e-4 0,10e-4 -0.39317,0.60316 -0.829151,1.32913 -1.214913,2.01279 -2.12e-4,5.3e-4 -2.65e-4,5.3e-4 0,10e-4 -0.385683,0.68364 -0.72099,1.32476 -0.91313,1.75907 -1.06e-4,2.6e-4 -2.65e-4,7.9e-4 0,0.001 -0.168011,0.3799 -0.360151,0.8903 -0.553958,1.45417 -0.387827,1.12825 -0.781765,2.47068 -1.001501,3.41117 -0.109855,0.47017 -0.176213,0.83973 -0.176213,1.03197 0,0.20453 0.823013,-0.50238 1.829356,-1.57096 l 1.829329,-1.942 -0.875903,2.6448 c -1.06e-4,2.6e-4 0,7.9e-4 0,0.001 -0.389096,1.17459 -0.795073,2.69146 -1.071272,3.88555 -0.06596,0.28526 -0.166422,0.65144 -0.209285,0.87592 -7.9e-5,2.6e-4 5.3e-5,7.9e-4 0,0.001 -0.190632,0.99819 -0.381503,2.38981 -0.501253,3.50832 -5.3e-5,5.3e-4 5.3e-5,5.3e-4 0,0.001 -0.05982,0.55892 -0.101944,1.04923 -0.117316,1.38854 -5.3e-5,8e-4 2.6e-5,1.3e-4 0,0.001 -0.01535,0.33862 -0.0037,0.52476 0.04289,0.47852 0.04749,-0.0478 0.705723,-0.91983 1.461928,-1.93786 2.65e-4,-5.3e-4 1.59e-4,-5.3e-4 0,-0.001 0.434605,-0.58509 0.763694,-0.98727 0.970492,-1.19062 v -5.3e-4 c 0.206984,-0.20351 0.29128,-0.20874 0.239792,5.3e-4 -0.182748,0.73261 -0.290592,2.97627 -0.314722,5.333 -2.65e-4,0.0349 -0.0026,0.0623 -0.0032,0.0971 v 5.3e-4 c -0.01085,1.19724 2.12e-4,2.42043 0.03514,3.48919 v 5.3e-4 c 0.03495,1.06845 0.09377,1.98229 0.177773,2.5616 v 0.001 l 0.34208,2.35283 0.912098,-2.22054 v -0.001 l 0.162269,-0.39533 0.750332,-1.82624 v 0.001 l 0.337979,1.99161 c 7.9e-5,5.3e-4 -8e-5,0.001 0,0.002 0.134805,0.7948 0.299058,1.62148 0.484187,2.44998 8e-5,2.7e-4 -7.9e-5,8e-4 0,0.001 0.185156,0.82844 0.391848,1.65869 0.610817,2.46032 8e-5,2.6e-4 -1.06e-4,7.9e-4 0,0.001 0.218969,0.80159 0.451062,1.57465 0.687308,2.28875 0.236432,0.71448 0.477573,1.36997 0.714693,1.93632 l 0.877967,2.09703 0.191717,-1.05678 c 0.08387,-0.46215 0.137239,-1.12215 0.173646,-1.68052 0.0095,-0.14491 0.04194,-0.31621 0.04495,-0.43615 0,-2.7e-4 -2.7e-5,-7.9e-4 0,-0.001 0.0063,-0.25483 0.01402,-0.44283 0.04186,-0.53898 v -5.3e-4 c 0.01402,-0.0478 0.03313,-0.073 0.05942,-0.0724 0.131948,0.002 0.449236,0.65303 1.249019,2.33164 1.42195,2.98425 3.992985,7.11696 4.148084,6.66781 0.05088,-0.15343 -0.02196,-0.9099 -0.162269,-1.68155 -0.108294,-0.59577 -0.16674,-0.95939 -0.117819,-1.04025 0.08038,-0.13733 0.458232,0.50874 1.400943,2.17661 0.877728,1.55299 4.564327,5.78363 5.039994,5.78363 0.02995,-7.9e-4 0.04075,-0.0421 0.0336,-0.11782 -0.0217,-0.22943 -0.202804,-0.76596 -0.477494,-1.387 l -0.666115,-1.50585 0.0026,0.002 v -0.003 l 2.334207,2.39262 c 1.74752,1.79107 3.540522,3.2305 3.961527,3.22358 0,-3e-5 -5.3e-5,-0.003 0.0026,-0.003 0.05628,-0.003 0.0899,-0.0305 0.0899,-0.092 v -5.3e-4 c -1.85e-4,-0.0826 -0.255588,-0.64915 -0.567399,-1.26039 -0.239712,-0.46986 -0.370417,-0.75622 -0.341604,-0.84129 0.04575,-0.14447 0.534988,0.2694 1.703256,1.32757 1.215601,1.1005 2.939124,2.23294 3.398784,2.23294 0.144092,0 0.213016,-0.0352 0.201004,-0.13798 v -5.3e-4 c -0.0127,-0.10335 -0.10668,-0.27399 -0.283686,-0.54519 -0.315569,-0.48162 -0.414258,-0.73481 -0.301281,-0.75861 0.11221,-0.0247 0.436165,0.17936 0.968401,0.61495 0.889265,0.72779 1.829409,1.29794 2.052082,1.26659 z M 121.7736,170.9284 c -0.58352,0 -0.67511,-0.085 -0.57361,-0.54828 0.008,-0.0387 0.008,-0.062 0.0196,-0.10646 1.1e-4,-5.3e-4 -1e-4,-5.3e-4 0,-0.001 0.0904,-0.36051 0.23855,-1.36401 0.32918,-2.23087 4e-5,-2.6e-4 -4e-5,-5.3e-4 0,-0.001 0.0372,-0.3554 0.0709,-0.63351 0.11111,-0.85524 4e-5,-2.7e-4 -5e-5,-8e-4 0,-0.001 0.0182,-0.10007 0.0464,-0.15458 0.0682,-0.23358 0.0266,-0.0961 0.048,-0.21244 0.0832,-0.2837 0.0639,-0.1296 0.14502,-0.22408 0.25321,-0.30386 l 5.3e-4,-5.3e-4 c 0.10845,-0.0799 0.24407,-0.1457 0.41755,-0.21755 0.27284,-0.11301 0.56403,-0.30571 0.85369,-0.55294 0.2894,-0.2471 0.57758,-0.54825 0.84336,-0.87902 2.4e-4,-2.6e-4 1.9e-4,-0.001 5.3e-4,-0.002 0.26591,-0.33102 0.51031,-0.69082 0.7121,-1.05524 v -5.3e-4 c 0.20164,-0.36411 0.36114,-0.73275 0.45837,-1.08003 0.40905,-1.46093 0.20271,-3.43327 -0.50384,-4.81831 -0.56679,-1.11104 -2.2054,-2.70475 -2.78071,-2.70475 -0.33784,0 -0.68122,-1.75293 -0.68678,-3.50573 -7.9e-4,-0.2147 0.0128,-0.37681 0.0605,-0.48834 0.0237,-0.0554 0.0557,-0.0987 0.0987,-0.12919 l 5.3e-4,-5.3e-4 c 0.0431,-0.0305 0.0974,-0.0486 0.16485,-0.0548 0.27063,-0.0252 0.75694,0.1438 1.62006,0.49402 3.5267,1.43099 5.75991,4.09101 6.51795,7.76335 0.2377,1.15156 0.25642,2.30795 0.0672,3.43287 -0.12607,0.74938 -0.34451,1.48516 -0.65216,2.19625 l -5.3e-4,5.3e-4 c -0.15381,0.35551 -0.3296,0.70499 -0.52762,1.04696 l -5.3e-4,5.3e-4 c -0.19804,0.34196 -0.41792,0.67675 -0.65939,1.00252 l -5.3e-4,5.3e-4 c -0.24142,0.32567 -0.50455,0.64245 -0.78858,0.9493 -2.6e-4,2.6e-4 -1.8e-4,10e-4 -5.3e-4,0.002 -0.38607,0.41701 -0.83853,0.82298 -1.32085,1.19786 l -5.3e-4,5.3e-4 c -1.44755,1.12494 -3.16638,1.96732 -4.18424,1.96732 z m -48.62959,-0.0357 v 0 c -0.305091,-0.0188 -0.816266,-0.21038 -1.634014,-0.51625 -2.069597,-0.77436 -4.333848,-2.92925 -5.318522,-5.06223 -0.687176,-1.48802 -0.766762,-1.93898 -0.761206,-4.30774 0.0026,-1.14166 0.02813,-1.85319 0.1261,-2.43655 0.04887,-0.29109 0.115729,-0.55026 0.207222,-0.81493 1.06e-4,-2.7e-4 0,-8e-4 0,-0.001 0.09149,-0.26471 0.207222,-0.53515 0.353986,-0.84853 1.85e-4,-2.6e-4 0,-5.3e-4 0,-0.001 0.232384,-0.49609 0.523584,-0.99279 0.858335,-1.47381 0.06329,-0.091 0.145547,-0.17121 0.211878,-0.26097 0.284639,-0.38515 0.578618,-0.76822 0.908976,-1.12034 0.814626,-0.86845 1.744134,-1.61099 2.667556,-2.09807 0.84582,-0.44603 1.900317,-0.8875 2.342991,-0.98081 l 0.804598,-0.1695 v 0.001 l -0.06509,0.5116 -0.190712,1.50688 c -0.105093,0.82896 -0.183674,1.28825 -0.302816,1.62884 -0.01984,0.0568 -0.03233,0.14421 -0.0553,0.19327 v 5.3e-4 c -0.160787,0.34353 -0.408172,0.51955 -0.876935,0.81545 -0.972105,0.61368 -1.597871,1.27552 -2.076873,2.25155 v 5.3e-4 c -0.159702,0.32541 -0.30316,0.68582 -0.4377,1.09089 -0.106257,0.31989 -0.185156,0.6492 -0.237728,0.98288 -5.3e-5,2.7e-4 5.3e-5,7.9e-4 0,0.001 -0.05249,0.33368 -0.07903,0.6719 -0.08062,1.00976 0,2.6e-4 2.7e-5,7.9e-4 0,0.001 -0.0026,0.33793 0.02222,0.67558 0.06874,1.00821 5.3e-5,2.7e-4 -5.3e-5,8e-4 0,0.001 0.0467,0.3328 0.116655,0.66029 0.208783,0.97824 v 5.2e-4 c 0.368776,1.27222 1.090744,2.38684 2.076344,3.0391 0.566949,0.37518 1.076907,0.93284 1.133263,1.2392 5.3e-5,2.1e-4 -2.6e-5,0.001 0,0.002 0.05636,0.3063 0.209497,1.30053 0.340043,2.20969 7.9e-5,5.3e-4 -8e-5,5.3e-4 0,0.001 0.129063,0.89908 0.197749,1.37631 0.0098,1.54616 -0.06252,0.0565 -0.153485,0.0793 -0.280088,0.0718 z m 17.028927,-2.27738 h -0.0026 c -2.376143,-0.0345 -4.806421,-0.6382 -6.562407,-1.80041 -0.66302,-0.43886 -1.223037,-0.9046 -1.687222,-1.41077 -0.23196,-0.25297 -0.439922,-0.51589 -0.62476,-0.79117 v -5.3e-4 c -0.924375,-1.37684 -1.270424,-3.05524 -1.142577,-5.26376 0.02434,-0.42135 0.07239,-0.83482 0.142637,-1.23971 0.07017,-0.40438 0.16293,-0.80033 0.277495,-1.18598 0.114511,-0.38557 0.250719,-0.76098 0.408252,-1.12551 1.59e-4,-2.7e-4 2.64e-4,-8e-4 0,-0.001 0.157533,-0.36436 0.335677,-0.71783 0.534829,-1.05885 v -5.3e-4 c 0.199257,-0.34113 0.418809,-0.67001 0.658362,-0.98547 0.0676,-0.0891 0.148881,-0.16838 0.219631,-0.25528 0.180075,-0.22111 0.358537,-0.44367 0.558615,-0.65009 0.557556,-0.57558 1.191498,-1.09309 1.897036,-1.54254 2.104681,-1.34075 4.294267,-0.87837 6.806327,1.43712 1.541118,1.42045 2.419746,2.90511 2.597758,4.33152 0.07141,0.57011 0.03035,1.13054 -0.124539,1.67431 -0.0776,0.27238 -0.183542,0.54074 -0.31885,0.80357 -0.865108,1.68051 -2.24864,2.43359 -4.243652,2.31046 -1.226343,-0.0757 -1.714288,-0.2539 -2.564183,-0.9369 -0.577294,-0.46392 -1.116065,-0.84336 -1.197345,-0.84336 -0.04046,7.9e-4 -0.07721,0.10045 -0.103875,0.262 -0.0268,0.16221 -0.04342,0.38581 -0.04342,0.632 0,0.70645 0.219631,1.09383 1.042326,1.8371 1.972284,1.78177 4.518793,1.56369 7.824841,-0.66972 1.829488,-1.23598 2.073407,-1.32729 3.236489,-1.21492 0.940144,0.0909 1.708018,0.43011 3.041175,1.34359 2.68047,1.83653 4.43786,2.18497 6.43941,1.27589 0.35025,-0.15907 0.66489,-0.34487 0.93945,-0.55242 0.27459,-0.20755 0.50925,-0.43681 0.70023,-0.68265 0.0144,-0.0185 0.0192,-0.0402 0.0331,-0.0589 0.35429,-0.47766 0.55501,-1.01221 0.55501,-1.57355 v -0.91777 l -0.90331,0.79272 c -1.16621,1.02386 -2.56276,1.47426 -4.05297,1.30638 -1.82808,-0.20606 -3.18159,-1.50645 -3.6282,-3.10885 -0.1786,-0.64073 -0.21207,-1.3297 -0.0729,-2.01642 0.0696,-0.34322 0.18174,-0.6859 0.34105,-1.02164 1.8e-4,-2.7e-4 0,-8e-4 0,-0.001 0.16276,-0.34276 0.44983,-0.7718 0.80719,-1.23094 0.0532,-0.0684 0.12673,-0.14074 0.18293,-0.21032 0.32123,-0.39768 0.6686,-0.80748 1.04698,-1.20199 0.88935,-0.9274 1.84455,-1.75099 2.43343,-2.01848 2.22451,-1.01048 4.2688,-0.36408 6.47041,2.04483 0.68967,0.7546 1.21476,1.483 1.60249,2.25826 v 5.3e-4 c 0.12922,0.25828 0.24339,0.52173 0.34313,0.79324 v 5.3e-4 c 0.0997,0.27135 0.18512,0.55074 0.25735,0.84077 8e-5,2.7e-4 -8e-5,8e-4 0,0.001 0.0722,0.29023 0.13151,0.59098 0.17828,0.90537 v 5.3e-4 c 0.0935,0.62885 0.13792,1.31181 0.1416,2.07016 0,5.3e-4 -1e-5,5.3e-4 0,0.001 0.003,0.53957 -5.3e-4,0.96904 -0.0176,1.3317 v 5.3e-4 c -0.0171,0.36255 -0.0484,0.65817 -0.10232,0.93018 v 5.2e-4 c -0.0539,0.2718 -0.13096,0.51993 -0.23875,0.78755 -0.10804,0.26827 -0.24694,0.55617 -0.42633,0.90693 -0.37089,0.72514 -0.82508,1.36019 -1.36684,1.90841 -0.81281,0.82234 -1.82357,1.44857 -3.04994,1.88773 -1.22667,0.43928 -2.66878,0.69189 -4.34393,0.76585 -3.1164,0.13761 -4.9502,-0.27652 -6.56911,-1.48363 l -1.034547,-0.77153 -1.059895,0.76791 c -1.538711,1.11465 -3.860085,1.65017 -6.235805,1.61644 z m 0.196374,-8.08323 c 0.292205,-0.0275 0.584623,-0.14055 1.01854,-0.35244 0.331787,-0.16204 0.628438,-0.36875 0.88265,-0.60875 v -5.2e-4 c 0.07194,-0.0679 0.112739,-0.1555 0.177747,-0.22841 0.164703,-0.18482 0.333904,-0.36785 0.450638,-0.57826 v -5.3e-4 c 0.162586,-0.29322 0.276172,-0.6069 0.333825,-0.92863 0.05773,-0.3221 0.05993,-0.65234 -0.0026,-0.97823 -0.199787,-1.065 -1.233382,-2.24667 -2.104258,-2.40606 -1.222295,-0.22371 -2.574554,0.2407 -3.258211,1.06557 -0.09739,0.11754 -0.181107,0.24239 -0.249079,0.37362 -1.59e-4,2.6e-4 0,7.9e-4 0,10e-4 -0.115993,0.22426 -0.204338,0.45413 -0.26715,0.68523 -0.439975,1.62016 0.391187,3.31444 1.997287,3.79563 0.434366,0.13015 0.72681,0.18823 1.019069,0.16071 z m 14.472499,-0.0827 c 1.03071,-1.5e-4 1.84682,-0.44804 2.35955,-1.11259 0.17066,-0.22134 0.30814,-0.46685 0.40825,-0.7276 v -5.3e-4 c 0.20037,-0.52225 0.253,-1.10628 0.13126,-1.68413 -0.12176,-0.57803 -0.41801,-1.14974 -0.91469,-1.64642 -0.63381,-0.63381 -0.97136,-0.75396 -2.1177,-0.75396 -1.1544,0 -1.48259,0.11837 -2.13733,0.77308 -0.15092,0.15094 -0.27495,0.28955 -0.37568,0.42582 -2.4e-4,2.6e-4 0,7.9e-4 0,0.001 -0.0262,0.0354 -0.0384,0.0717 -0.0615,0.10697 -0.0657,0.10044 -0.13176,0.20002 -0.17518,0.30489 -0.11766,0.28402 -0.1597,0.59879 -0.1597,1.02577 0,2.03246 1.16147,3.28742 3.0422,3.28766 z m -7.305493,-6.45696 c -1.184804,0.004 -2.403422,-0.56462 -4.984697,-2.3239 -1.374854,-0.93697 -3.359837,-2.09551 -4.411106,-2.57451 -2.325,-1.05954 -3.97309,-2.51294 -4.908736,-4.29173 v -5.3e-4 c -0.467704,-0.88928 -0.757502,-1.85972 -0.864552,-2.90318 -2.7e-5,-2.7e-4 2.6e-5,-8e-4 0,-0.001 -0.106892,-1.04335 -0.03164,-2.15949 0.230981,-3.33985 8e-5,-2.7e-4 0,-5.3e-4 0,-0.001 0.07345,-0.33005 0.158168,-0.65048 0.255297,-0.96222 1.05e-4,-2.6e-4 0,-0.001 0,-0.002 0.09716,-0.3117 0.206216,-0.61494 0.328136,-0.91003 v -5.3e-4 c 0.122026,-0.2952 0.256699,-0.58271 0.404627,-0.86299 v -5.3e-4 c 0.147955,-0.28027 0.308716,-0.55358 0.483685,-0.82063 0.06694,-0.10215 0.146024,-0.19933 0.217038,-0.29972 0.114723,-0.1622 0.224816,-0.32628 0.350387,-0.48421 2.39e-4,-2.6e-4 0,-7.9e-4 0,-10e-4 0.203121,-0.25541 0.420794,-0.50525 0.653177,-0.75085 0.465508,-0.49207 0.990627,-0.96641 1.580277,-1.42938 1.005443,-0.78939 2.798948,-2.37233 3.985287,-3.51761 l 2.156962,-2.08256 0.177774,0.80925 c 0.04879,0.22249 0.07419,0.45537 0.07596,0.65113 v 5.3e-4 c 0.0026,0.1955 -0.02037,0.35358 -0.06615,0.42839 -2.65e-4,5.3e-4 2.64e-4,5.3e-4 0,0.001 -0.07281,0.11782 -0.09128,0.19484 -0.06202,0.23358 0.08877,0.11595 0.612167,-0.11774 1.410256,-0.65061 0.565997,-0.37798 1.465527,-1.10696 1.998848,-1.61954 l 0.969962,-0.93172 1.278996,1.18752 c 0.70358,0.65313 1.666444,1.38458 2.139394,1.62574 l 0.85939,0.43822 v -1.0635 c 0,-0.27258 0.019,-0.5114 0.0455,-0.70022 0.003,-0.0141 0.003,-0.0388 0.004,-0.0522 v -5.3e-4 c 0.03,-0.19304 0.0716,-0.31316 0.11732,-0.31316 0.0915,0 0.96443,0.75261 1.93942,1.67225 0.97435,0.91973 2.60736,2.33814 3.62767,3.15226 2.79541,2.23045 4.2428,4.03459 4.89944,6.33812 0.21877,0.76735 0.35018,1.59011 0.41393,2.50268 0.0776,1.11047 0.0393,2.03102 -0.15244,2.86081 -0.0638,0.27616 -0.14481,0.5423 -0.24391,0.80202 -1.4e-4,2.6e-4 -2e-4,7.9e-4 -5.3e-4,0.001 -0.0992,0.25955 -0.21666,0.5128 -0.35399,0.76326 -0.41306,0.75329 -1.00495,1.48186 -1.81384,2.28513 -0.30998,0.30783 -0.59751,0.57742 -0.8692,0.81442 -5.3e-4,2.7e-4 -5.3e-4,0.001 -0.001,0.002 -0.81594,0.71157 -1.49063,1.12655 -2.21485,1.37976 -0.74239,0.25956 -2.4688,1.19778 -3.83646,2.08514 -2.93243,1.90252 -4.868329,2.85297 -5.819797,2.85719 z m 2.492353,-3.70262 c 0.39547,0 0.68897,-0.0918 0.88108,-0.24702 v -5.3e-4 c 0.0127,-0.0102 0.0161,-0.0254 0.0279,-0.0362 0.0777,-0.0711 0.14438,-0.14909 0.18396,-0.24081 0.0159,-0.0369 0.0119,-0.0823 0.0217,-0.12196 0.0458,-0.18718 0.0404,-0.39656 -0.0496,-0.6258 -0.16396,-0.41735 -0.5524,-0.87717 -1.161151,-1.28002 -0.565864,-0.37447 -1.09982,-0.90604 -1.187026,-1.18081 -0.0499,-0.15721 -0.131472,-0.27688 -0.226325,-0.35812 -0.09485,-0.0812 -0.203121,-0.12424 -0.30697,-0.12816 -0.10361,-0.004 -0.202803,0.031 -0.279558,0.10542 v 5.3e-4 c -0.07654,0.0745 -0.130228,0.18909 -0.144198,0.34314 -0.203015,2.28436 0.679767,3.77031 2.240178,3.77031 z m -5.2033,-0.008 c 0.3565,0.0311 0.750941,-0.11772 1.1312,-0.42013 0.189812,-0.1511 0.376661,-0.34004 0.552952,-0.56431 2.39e-4,-2.6e-4 2.65e-4,-7.9e-4 0,-0.001 0.176292,-0.22438 0.342636,-0.48377 0.492469,-0.77463 v -5.2e-4 -5.3e-4 c 0.08152,-0.15857 0.147003,-0.36288 0.195342,-0.58498 0.145257,-0.66755 0.133959,-1.49333 -0.07493,-1.70222 -0.307075,-0.30708 -0.589518,-0.19298 -0.883682,0.35656 -0.156898,0.29319 -0.75639,0.83074 -1.332203,1.19425 -0.542793,0.34257 -0.885561,0.72834 -1.012878,1.10897 -0.127026,0.38109 -0.03802,0.75683 0.283713,1.07849 0.188674,0.18868 0.409363,0.28934 0.646985,0.31006 z m 64.54284,-0.45062 c 0.48995,-0.036 0.81639,-0.3618 0.91777,-0.89607 0.0405,-0.21371 0.0449,-0.46118 0.009,-0.73639 -0.0201,-0.15431 -0.0833,-0.33684 -0.12919,-0.50798 -0.0359,-0.13367 -0.0487,-0.2535 -0.10128,-0.39636 -0.1006,-0.2741 -0.2509,-0.57199 -0.416,-0.8754 -0.0306,-0.0583 -0.0447,-0.10823 -0.0786,-0.16691 -0.12205,-0.2114 -0.29784,-0.45165 -0.51159,-0.70435 -0.21347,-0.25236 -0.46557,-0.51761 -0.73949,-0.78135 -0.54833,-0.52795 -1.18658,-1.04917 -1.79059,-1.44332 -0.89476,-0.58388 -1.65044,-1.14558 -1.9575,-1.44229 -0.10242,-0.0988 -0.1547,-0.16742 -0.14677,-0.19896 0.0172,-0.0636 0.0966,-0.0804 0.22583,-0.0584 0.90371,0.15398 4.24118,2.21792 5.68699,3.60133 0.003,0.004 0.008,0.006 0.0103,0.01 0.7188,0.68632 1.54427,1.31214 2.11511,1.62522 0.14097,0.0633 0.28394,0.13071 0.40721,0.14883 0.68659,0.101 1.54125,-0.21479 1.6955,-1.36064 0.006,-0.17392 -0.0332,-0.3757 -0.11162,-0.59841 -0.0783,-0.22259 -0.19486,-0.46656 -0.34623,-0.72348 -0.15162,-0.2573 -0.33329,-0.53002 -0.54363,-0.80925 -0.20995,-0.27868 -0.44715,-0.5639 -0.70435,-0.85007 -0.25721,-0.28619 -0.53522,-0.57274 -0.82735,-0.85267 -0.29216,-0.27993 -0.59894,-0.55346 -0.91363,-0.81338 -0.26424,-0.21819 -0.53562,-0.41924 -0.8077,-0.61444 -0.0526,-0.0377 -0.10385,-0.0822 -0.15659,-0.11885 -0.32485,-0.22605 -0.65138,-0.43223 -0.9741,-0.61082 l -1.99936,-1.10587 0.004,0.001 1.98334,0.67024 c 1.0927,0.36941 2.74725,1.30726 3.67678,2.08411 2.29909,1.92129 3.2546,2.20303 3.67006,1.08055 0.0599,-0.1622 0.0859,-0.34424 0.0796,-0.5426 -0.006,-0.19826 -0.0451,-0.41252 -0.11213,-0.63872 -0.0505,-0.17016 -0.13187,-0.35245 -0.21395,-0.53434 -0.0275,-0.0601 -0.0408,-0.1159 -0.0713,-0.17724 -0.12282,-0.24664 -0.27175,-0.50134 -0.44442,-0.75965 -0.17234,-0.25776 -0.36836,-0.51963 -0.58497,-0.78083 -0.43365,-0.5227 -0.95094,-1.0436 -1.52911,-1.53065 -0.28924,-0.24365 -0.59336,-0.47887 -0.91054,-0.70125 -0.86364,-0.60559 -1.5827,-1.17377 -1.92856,-1.50689 -0.74375,-0.56626 -1.66628,-1.16474 -3.00189,-1.74718 -0.5331,-0.23247 -1.12075,-0.46291 -1.80867,-0.6873 -0.013,-0.004 -0.0225,-0.009 -0.0357,-0.0129 -1.78469,-0.5781 -2.93092,-1.00947 -3.85971,-1.70945 -0.30982,-0.2335 -0.59582,-0.49617 -0.87281,-0.80512 -0.86546,-0.9078 -1.55309,-2.19245 -2.60036,-4.31499 -0.43749,-0.88655 -0.84682,-1.66975 -1.24179,-2.35386 -0.39547,-0.68378 -0.77725,-1.26777 -1.1591,-1.75648 -0.38177,-0.48872 -0.76354,-0.88198 -1.2485,-1.77612 -0.48496,-0.89414 -0.94529,-2.36378 -1.49655,-4.4359 -0.80575,-3.02879 -1.33214,-4.3848 -2.20969,-5.69371 -0.73258,-1.0927 -2.25449,-2.36385 -3.21582,-2.68563 -0.1868,-0.0625 -3.10795,-0.0161 -3.50831,0.0558 -0.22567,0.0405 -0.21102,0.0519 0.3545,0.26458 0.32477,0.12217 0.6844,0.28898 0.79891,0.37052 0.33835,0.24092 0.70569,0.95702 1.09089,2.127 0.4544,1.38011 0.60491,2.06068 0.7059,3.18844 0.1823,2.03569 -0.29689,5.10387 -1.33067,8.51731 -0.10197,0.33667 -0.13366,0.45882 -0.17569,0.61236 -0.1597,0.65256 0.30419,2.25621 0.50849,2.84686 0.32732,0.91784 0.64358,1.83976 0.93896,2.7683 0.18283,0.58855 0.35489,1.18026 0.53227,1.77044 0.065,0.22129 0.13493,0.44098 0.20981,0.65887 0.0458,-0.21794 0.13139,-0.43376 0.25993,-0.6935 0.2858,-0.57766 0.43559,-0.86704 0.53227,-0.89658 0.014,-0.004 0.022,0.0356 0.0341,0.0424 0.0708,0.0383 0.11627,0.22353 0.17725,0.61857 0.0823,0.53165 0.93697,2.75494 1.89859,4.94182 0.84416,1.91966 1.276,2.93875 1.42472,3.81837 0.14901,0.88003 0.0148,1.62023 -0.27388,2.9838 -0.003,0.008 -0.003,0.0173 -0.004,0.0253 -0.18161,0.86885 -0.23907,1.85743 -0.15916,2.81378 0.01,0.12061 -0.003,0.24414 0.0119,0.36328 0.0603,0.46647 0.0957,0.7564 0.14779,1.14309 l 4.67104,0.0408 c 0.68746,-1.02268 1.83858,-1.34088 3.41477,-0.94154 1.83685,0.46545 4.24753,1.89957 7.16132,4.31291 0.75411,0.62458 1.4076,0.87834 1.89756,0.84233 z M 85.044068,140.507 c 0.147559,-0.0143 0.382747,-0.28089 0.664554,-0.87178 0.533903,-1.11958 2.445491,-2.16544 5.004356,-2.73782 1.435391,-0.3212 3.259508,-0.43666 6.851756,-0.43666 7.123506,0.002 10.560106,0.8242 11.945536,2.85874 0.19824,0.29103 0.36092,0.50926 0.48937,0.65422 0.12981,0.14649 0.2242,0.21725 0.28526,0.21446 0.0593,-0.003 0.0863,-0.0759 0.0832,-0.21911 -0.003,-0.14744 -0.0381,-0.36818 -0.10491,-0.66456 -0.0738,-0.32718 -0.17508,-0.63233 -0.30696,-0.91725 v -5.3e-4 c -0.13173,-0.28454 -0.29399,-0.54873 -0.48886,-0.79375 -0.1951,-0.2454 -0.42312,-0.472 -0.68677,-0.68058 l -5.3e-4,-5.3e-4 c -0.52723,-0.41698 -1.19657,-0.76293 -2.02932,-1.04904 -1.24957,-0.42929 -2.86684,-0.72356 -4.92271,-0.91932 -2.847891,-0.27117 -8.281586,-0.0651 -10.810183,0.4098 -2.455227,0.46105 -4.061671,1.16966 -5.02658,2.24947 -0.321628,0.35996 -0.571765,0.7611 -0.758587,1.2082 -0.326787,0.78212 -0.407511,1.35851 -0.324009,1.58801 0.02799,0.0758 0.07416,0.11393 0.135387,0.10801 z" />
      <g
         id="g18627"
         transform="matrix(-0.37487534,0.32999492,-0.32999492,-0.37487534,176.16713,111.10259)">
        <path
           style="fill:#fc8211;fill-opacity:1;stroke-width:0.352778"
           d="m 124.88333,174.07882 c -2.03729,-0.46732 -4.65667,-1.19049 -5.82083,-1.60703 -4.68535,-1.67643 -9.60618,-5.79467 -14.8223,-11.23065 -1.77197,-1.84665 -2.80523,-3.31518 -3.08971,-3.61295 -0.21307,-0.22304 0.36067,0.056 1.6786,1.3688 2.17861,2.17019 6.4153,5.95742 9.53063,7.77888 4.48539,2.62252 10.61337,4.3062 15.69861,4.31326 2.97391,0.004 5.64445,-0.47344 5.64445,-1.00936 0,-0.15331 -0.99219,-1.54092 -2.20487,-3.08359 -4.23133,-5.38279 -9.4291,-13.58301 -12.49423,-19.71146 -3.54413,-7.08616 -5.56064,-13.07688 -6.88731,-20.46111 -0.99721,-5.55046 -1.06879,-17.32161 -0.14158,-23.28333 1.52928,-9.832944 5.15546,-21.834395 9.43761,-31.857365 1.34005,-3.13655 2.62536,-2.883156 3.12091,-2.387606 0.6509,0.6509 -0.49434,4.198547 -1.60718,9.374127 -1.74748,8.12719 -2.7612,13.92482 -2.76491,22.930564 -0.006,14.00227 1.83622,22.77952 8.06542,38.43247 3.57234,8.97671 4.5035,11.68579 5.97408,17.38075 0.68694,2.66026 1.82582,5.71367 2.09598,6.92131 l 0.55673,2.48862 c 0,0 -0.38514,0.28655 -0.73715,0.56556 -0.54582,0.43263 -1.28255,1.46688 -1.59438,2.07453 -0.31182,0.60765 -1.27263,2.097 -2.13512,3.30967 -0.75289,1.05858 -0.54505,1.79695 -1.19173,2.08195 -0.94206,0.41516 -2.96238,-0.008 -6.31172,-0.77604 z"
           id="path486"
           sodipodi:nodetypes="sssssscsssssssscssscsssss" />
        <path
           id="path488"
           style="fill:#f5a50a;fill-opacity:1;stroke-width:0.352778"
           d="m 108.85739,70.415107 c -7.22252,10.160653 -11.328316,22.314121 -12.728753,34.646923 -0.959325,7.60598 -0.654628,15.32901 0.518293,22.89268 1.15701,8.01966 3.229343,15.96303 6.80724,23.26177 2.38602,5.08429 5.37378,9.91237 9.17156,14.06857 1.66211,1.79432 3.27003,3.88198 5.71703,4.61392 2.76016,0.9944 5.6567,1.66251 8.60299,1.65626 2.14231,0.002 6.91259,-0.66467 7.08706,-1.20556 0.23981,-0.83039 -3.84836,-5.78803 -5.66931,-8.53142 -4.67598,-6.83231 -8.90506,-14.02415 -12.02412,-21.7088 -4.11138,-10.47455 -5.3549,-22.00511 -4.19592,-33.12804 1.01224,-10.073712 3.75796,-19.81868 7.37169,-29.23018 1.07475,-2.707478 2.08678,-5.461151 3.48271,-8.021855 0.87755,-0.922086 0.15665,-2.215465 -0.15192,-3.227835 -0.98739,-2.651934 -1.76763,-5.300857 -3.6889,-7.415472 -3.53233,3.765427 -7.75275,7.685687 -10.29965,11.329039 z"
           sodipodi:nodetypes="cccccccccccccccc" />
        <path
           id="path480"
           style="fill:#fff28f;fill-opacity:1;stroke-width:0.352778"
           d="m 114.16992,57.248047 c -1.75856,0.181846 -3.26568,1.234962 -4.82617,1.979045 -8.20439,4.330066 -15.167298,11.001982 -19.70413,19.105624 -2.962259,5.220396 -5.009313,10.941004 -6.297823,16.794237 -1.402171,7.339527 -1.598113,14.899787 -0.605562,22.304917 1.193688,8.94907 3.740923,17.78398 8.068435,25.73814 2.21803,4.18654 4.665066,8.29835 7.8775,11.80913 4.03595,4.49881 8.51172,8.67032 13.6771,11.84909 1.02964,0.69954 2.37756,1.25188 3.46629,1.85423 -2.90243,-3.45886 -6.39449,-8.15003 -8.66261,-11.97081 -5.3428,-8.91698 -8.424113,-19.00481 -9.953591,-29.21315 -0.83012,-5.51371 -0.84415,-11.08647 -0.771859,-16.6567 0.09113,-7.92196 1.729641,-15.844466 4.4096,-23.316286 2.01134,-5.582049 4.71673,-10.973802 7.98132,-15.846534 1.88177,-2.806556 4.02434,-5.541131 6.30874,-8.002272 1.40664,-1.497725 2.8458,-2.964468 4.26714,-4.448192 -1.60904,-0.678243 -3.11133,-1.745956 -4.87305,-1.976563 -0.12036,7.98e-4 -0.24108,-0.01018 -0.36133,-0.0039 z"
           sodipodi:nodetypes="sccccccccccccccccss" />
        <path
           style="fill:#4b4440;fill-opacity:1;stroke-width:0.352778"
           d="m 117.21167,58.240091 c -1.01796,-0.50254 -2.17578,-0.741131 -2.17646,-0.849311 -7.1e-4,-0.10816 0.99781,-0.942139 1.82243,-1.534179 6.6439,-4.77009 8.5319,-6.06677 10.84791,-7.4504 1.45521,-0.86937 3.98102,-2.17997 5.6129,-2.91244 2.42226,-1.08723 3.66774,-1.694814 4.1975,-1.363984 0.3569,0.22289 0.64805,0.48613 0.64699,0.58498 -0.001,0.0988 -2.15021,1.544574 -4.06515,2.678044 -3.80022,2.2494 -8.29831,5.73164 -12.23926,9.47516 -1.38887,1.31929 -2.44365,2.529937 -2.51813,2.498887 -0.0745,-0.031 -1.11078,-0.624227 -2.12873,-1.126757 z"
           id="path482"
           sodipodi:nodetypes="sccssscsscs" />
        <path
           id="path484"
           style="fill:#262529;fill-opacity:1;stroke-width:0.352778"
           d="m 137.61133,44.703125 c -5.65219,3.120684 -10.89793,6.968798 -15.67383,11.306641 -0.93877,0.96464 -1.93177,1.939357 -2.58708,3.131991 -0.3227,0.991669 0.54483,1.629136 0.88516,2.472929 1.46662,2.476642 2.14142,5.300025 3.33083,7.898986 0.20131,0.482832 0.55945,0.912318 1.13476,0.80664 1.21727,-2.755192 2.293,-5.594042 3.98361,-8.108921 2.45611,-3.819945 5.61311,-7.219868 9.42076,-9.719111 1.12636,-0.727366 2.01908,-1.854736 2.1586,-3.221836 0.34326,-1.551166 -0.9661,-2.751404 -1.67055,-3.980267 -0.33042,-0.343596 -0.42828,-1.162368 -0.98226,-0.587052 z m -0.68188,122.118265 c -1.17554,0.0875 -1.60642,1.41774 -2.18277,2.25708 -1.07107,1.92364 -2.53324,3.58497 -3.64225,5.47633 -0.30357,0.54255 0.1937,0.83664 0.65363,1.01003 1.19297,0.62515 2.40959,1.53082 3.64233,2.07579 1.17215,-0.51402 2.16886,-1.38036 3.1679,-2.17169 1.28778,-1.0497 2.39752,-2.76311 1.817,-4.47425 -0.48793,-1.47008 -1.60017,-2.9233 -2.75467,-3.92329 -0.20727,-0.13592 -0.4507,-0.24785 -0.70117,-0.25 z"
           sodipodi:nodetypes="cccccccccccccccccccc" />
      </g>
      <g
         id="g31128"
         transform="matrix(-0.26458333,0,0,-0.26458333,281.55931,253.75883)">
        <path
           style="fill:#000000;fill-opacity:1"
           d="m 802.76172,535.87893 c -0.52538,0.3699 -1.3007,0.81625 -2.97461,1.5957 -5.47404,2.5488 -14.54895,11.0936 -19.69727,18.54687 -0.86365,1.2503 -2.28391,3.62401 -3.87695,6.44141 -1.59229,2.81676 -3.35777,6.07444 -4.91016,9.09766 -9.1e-4,0.002 -10e-4,0.004 -0.002,0.006 -6.08587,11.85194 -6.39414,12.10601 -15.11133,12.38281 -3.57737,0.1137 -3.70006,0.23613 -3.13086,3.08203 1.4413,7.20637 -2.6645,11.17463 -9.29492,8.98633 -1.8494,-0.6104 -5.78843,-3.32681 -8.7539,-6.03711 -5.73062,-5.2375 -8.59571,-5.67369 -8.59571,-1.30859 0,3.19527 6.24738,9.95907 11.9336,12.92187 2.51177,1.3086 3.99035,2.40173 3.28515,2.42773 -2.70017,0.098 -8.27361,-2.96513 -12.51953,-6.8789 -4.99277,-4.6022 -6.17492,-4.92136 -7.69336,-2.08399 -2.2943,4.2869 6.07576,12.82817 16.77735,17.11914 l 4.71679,1.89063 -4,-0.63477 c -5.26057,-0.8364 -11.21712,-3.83834 -15.27929,-7.69921 -2.6479,-2.5167 -3.61203,-2.90926 -5,-2.03516 -2.761,1.7387 -2.5422,3.93147 0.76757,7.70117 3.76314,4.286 10.79865,8.53112 16.94922,10.22852 4.54292,1.25417 4.54614,1.25917 1.0625,1.32617 -4.07047,0.078 -10.92156,-2.80532 -15.17773,-6.38672 -5.16272,-4.3442 -7.48809,-2.60577 -4.41602,3.29883 2.70374,5.19647 8.72696,9.24826 17.59375,11.83593 0.82186,0.23984 2.17312,0.36033 3.3711,0.51954 0.002,-8.8e-4 0.004,-10e-4 0.006,-0.002 1.19429,0.15879 2.50937,0.27278 3.86132,0.35742 1.63047,0.0736 3.2902,0.13484 4.9961,0.0723 0.14567,-0.005 0.27741,0.008 0.42383,0.002 3.58282,-0.15742 6.92155,-0.67406 10.24218,-1.68945 1.65955,-0.50745 3.31548,-1.13853 4.99414,-1.91211 l 0.002,-0.002 c 8.39746,-3.8704 17.38729,-11.28741 30.5,-24.41211 5.27814,-5.28297 10.19922,-10.44644 14.71093,-15.42774 v -0.002 c 3.85902,-4.26066 7.25667,-8.3041 10.48438,-12.25586 0.54623,-0.66881 1.24638,-1.41562 1.77344,-2.07422 1.82038,-2.2745 3.52604,-4.48666 5.10937,-6.6289 v -0.002 c 1.58325,-2.14216 3.04569,-4.21334 4.37891,-6.20703 v -0.002 c 1.33344,-1.99408 2.53711,-3.90901 3.60742,-5.73828 1.07031,-1.82934 2.00661,-3.57054 2.80078,-5.21875 v -0.002 c 0.29584,-0.61395 0.47681,-1.08929 0.72266,-1.63671 0.31139,-0.69353 0.67323,-1.44334 0.91406,-2.07422 0.97525,-2.55482 1.36037,-5.235 1.63086,-8.8086 z"
           id="path11975" />
      </g>
      <g
         id="rect1319"
         transform="matrix(-0.26458333,0,0,-0.26458333,373.24662,328.86018)">
        <path
           style="color:#000000;fill:#f4eed7;stroke-width:3.32945;-inkscape-stroke:none"
           d="M 647.41241,432.13095 H 901.99582 V 692.25644 H 647.41241 Z"
           id="path897" />
        <path
           style="color:#000000;fill:#000000;-inkscape-stroke:none"
           d="m 645.74805,430.4668 v 1.66406 261.79101 H 903.66016 V 430.4668 Z m 3.32812,3.32812 H 900.33203 V 690.5918 H 649.07617 Z"
           id="path899" />
      </g>
      <path
         id="path1321"
         style="fill:#000000;stroke-width:0.455401"
         d="m 144.55891,154.81967 c 0.78539,-0.038 1.67463,-0.71074 1.72083,-1.82573 0.0768,-1.85349 -0.0183,-2.26297 -0.0517,-2.60294 -0.0449,-0.45709 -0.0706,-0.88737 -0.0775,-1.29139 -0.007,-0.4043 0.005,-0.78228 0.0356,-1.13327 0.087,-1.00143 0.32739,-1.78176 0.7085,-2.34869 l -4.67104,-0.0408 c 0.0677,0.50279 0.14873,1.07811 0.19275,1.48621 0.0926,2.33 -0.091,4.79285 0.99529,6.93963 0.0484,0.18418 0.12848,0.33563 0.23151,0.45578 l -0.003,0.002 c 0.2254,0.26284 0.56079,0.37694 0.91776,0.35967 z" />
    </g>
  </g>
</svg>
