<?xml version="1.0" encoding="UTF-8" standalone="no"?>
<!-- Created with Inkscape (http://www.inkscape.org/) -->

<svg
   version="1.1"
   id="svg2"
   width="1290.949"
   height="511.2966"
   viewBox="0 0 1290.949 511.29661"
   sodipodi:docname="coconut.svg"
   inkscape:version="1.1.2 (0a00cf5339, 2022-02-04)"
   xml:space="preserve"
   inkscape:export-filename="monkeys.png"
   inkscape:export-xdpi="150"
   inkscape:export-ydpi="150"
   xmlns:inkscape="http://www.inkscape.org/namespaces/inkscape"
   xmlns:sodipodi="http://sodipodi.sourceforge.net/DTD/sodipodi-0.dtd"
   xmlns="http://www.w3.org/2000/svg"
   xmlns:svg="http://www.w3.org/2000/svg"><defs
     id="defs6" /><sodipodi:namedview
     id="namedview4"
     pagecolor="#ffffff"
     bordercolor="#000000"
     borderopacity="0.25"
     inkscape:showpageshadow="2"
     inkscape:pageopacity="0.0"
     inkscape:pagecheckerboard="0"
     inkscape:deskcolor="#d1d1d1"
     showgrid="false"
     inkscape:zoom="0.58284536"
     inkscape:cx="479.54401"
     inkscape:cy="105.51684"
     inkscape:window-width="1846"
     inkscape:window-height="1016"
     inkscape:window-x="74"
     inkscape:window-y="27"
     inkscape:window-maximized="1"
     inkscape:current-layer="g8"
     inkscape:pageshadow="2" /><g
     inkscape:groupmode="layer"
     inkscape:label="Image"
     id="g8"
     transform="translate(1.641838e-7,-525.09074)"><rect
       style="fill:#ffffff;fill-opacity:1;stroke:none;stroke-width:0.711;stroke-linecap:round;stroke-dasharray:none;stroke-opacity:1"
       id="rect58508"
       width="1553.4995"
       height="633.05054"
       x="-65.44783"
       y="481.83151" /><g
       id="g44724"
       transform="translate(-897.12182,268.79858)"><g
         id="g39604"><path
           id="path39595"
           style="fill:#cccccc;fill-opacity:1;stroke-width:7.55906;stroke-linecap:round"
           d="m 1455.0653,358.39132 c -20.8881,0.07 -38.7246,17.77007 -38.7246,38.42773 0,10.13905 7.5935,24.4661 16.6133,31.3457 l 7,5.33789 -3.129,4.29297 c -1.7196,2.36097 -4.0859,7.87879 -5.2578,12.25977 -0.7301,2.73005 -1.1648,4.58156 -1.2617,6.01953 -0.9724,4.5012 -0.8383,11.79134 0.6204,15.54677 1.4587,3.75543 3.2366,6.81691 6.4988,11.63096 6.476,9.55781 18.8874,18.62181 30.3164,22.14063 10.5525,3.2496 31.918,3.32291 42.6015,0.15039 12.1416,-3.60575 24.4304,-12.29939 30.17,-21.34961 2.918,-4.60148 4.5016,-7.53955 4.9275,-9.5485 2.0952,-7.07935 1.9388,-13.49223 1.7118,-20.11141 -0.537,-6.73261 -2.0405,-10.63062 -4.9355,-14.97307 l -4.0293,-5.65625 8.5019,-8.15039 c 15.4062,-14.77116 18.3396,-32.97006 8.0059,-49.6836 -3.6226,-5.85926 -7.6319,-9.48315 -14.4531,-13.06445 -8.3326,-4.37736 -10.8767,-4.88744 -21.6758,-4.35938 -10.1633,0.49709 -13.7351,1.53333 -21.0996,6.11133 l -8.8633,5.50977 -6.2168,-4.21485 c -7.8295,-5.31299 -16.3289,-7.69791 -27.3184,-7.6621 z"
           sodipodi:nodetypes="sscccsccccsscccccscssccss" /><path
           id="path39597"
           style="fill:#ffffff;fill-opacity:1;stroke-width:7.55906;stroke-linecap:round"
           d="m 1454.2148,364.4082 c -11.9584,0.33453 -23.2418,7.89476 -28.5297,18.5568 -2.6615,5.35283 -4.0086,11.53723 -2.9622,17.48264 1.4005,6.8016 4.8077,13.08177 9.1912,18.41955 2.1859,2.59849 4.8249,4.75635 7.5707,6.73317 2.9172,2.22293 5.8329,4.44798 8.7515,6.66917 -2.3438,3.44282 -5.0087,6.66273 -7.2347,10.18428 -3.1333,5.89755 -4.9206,12.5045 -5.2952,19.16647 -0.068,3.26029 0.056,6.6597 1.5645,9.62747 1.8266,3.7948 4.1192,7.36114 6.6642,10.71187 3.0916,3.91746 6.8472,7.28202 10.8911,10.19077 0.3315,0.2192 0.9465,0.66984 1.4087,0.9678 5.3208,3.52086 11.1761,6.43591 17.5075,7.54694 1.0704,0.19786 1.9746,0.32869 3.0888,0.45568 6.2789,0.78766 12.7463,0.91526 18.9891,0.56669 5.9052,-0.35501 11.8951,-1.12325 17.357,-3.52564 7.6339,-3.16742 14.699,-7.92542 20.0961,-14.22241 2.3397,-2.94225 4.2923,-6.19183 5.9268,-9.56985 2.124,-5.86824 2.2304,-12.22199 1.9783,-18.38775 -0.094,-3.97247 -0.9012,-7.99972 -2.9207,-11.46208 -2.2124,-3.47215 -4.7386,-6.73362 -7.0785,-10.12049 -0.146,-0.47446 -1.1414,-1.02785 -0.6591,-1.44391 4.8913,-4.81725 9.988,-9.36738 14.7268,-14.33499 5.0981,-5.62699 8.9219,-12.72886 9.4656,-20.40403 0.5311,-7.74676 -2.2884,-15.45691 -6.9121,-21.59989 -2.1754,-2.8968 -4.9841,-5.27811 -8.1348,-7.05453 -0.6751,-0.40468 -1.2943,-0.75088 -2.0472,-1.15757 -2.1243,-1.08341 -4.241,-2.22288 -6.4991,-3.00458 -4.1419,-1.34604 -8.5594,-0.87891 -12.8328,-0.72251 -1.9712,0.10957 -3.9449,0.22668 -5.9018,0.49656 -0.3978,0.0541 -1.1632,0.17481 -1.6956,0.28198 -4.8034,0.81771 -8.8534,3.68989 -12.9187,6.18094 -3.1002,1.92246 -6.1968,3.8523 -9.2959,5.77731 -4.4445,-2.86632 -8.6466,-6.1201 -13.2803,-8.68439 -6.4177,-3.40358 -13.7886,-4.47872 -20.9795,-4.32147 z" /></g><path
         id="path3471"
         style="fill:#000000;stroke-width:1.7212"
         d="m 1484.5137,272.29688 v 0.008 c -0.2104,-0.005 -0.3807,0.23261 -0.5117,0.66601 -0.01,0.0183 0,0.0689 -0.01,0.0879 -0.1459,0.51869 -0.1936,1.38918 -0.2265,2.34766 -0.055,1.48717 -0.01,3.26185 0.2402,5.38477 0,0.0395 -8e-4,0.062 0,0.10156 0.013,0.11256 0.014,0.15014 0.027,0.25976 0.2601,2.20321 0.4183,3.73278 0.4707,4.87305 0.046,0.91505 0.031,1.60089 -0.1075,1.98633 -0.089,0.25169 -0.2039,0.44223 -0.3886,0.51172 -0.2099,0.0797 -0.5288,-10e-4 -0.8809,-0.11328 -0.4763,-0.14977 -1.05,-0.40898 -1.834,-0.81055 -0.024,-0.0124 -0.036,-0.0167 -0.061,-0.0293 -0.4204,-0.21564 -1.1918,-0.81562 -1.7656,-1.1914 -1.624,-1.06374 -3.4341,-2.44331 -5.4454,-4.14453 -0.8054,-0.68119 -1.6488,-1.32356 -2.3769,-2 l -5.7969,-5.38282 v 0.004 -0.004 l 0.9043,5.16211 c 0.4972,2.83998 1.4347,6.83924 2.0859,8.88867 0.4261,1.34086 0.6584,2.19154 0.4161,2.64844 -0.081,0.1498 -0.2139,0.26027 -0.4082,0.32813 -0.3932,0.1371 -1.0372,0.11413 -2.0176,-0.041 -9e-4,-1.4e-4 0,1.5e-4 0,0 -0.9802,-0.15524 -2.295,-0.44282 -4.0274,-0.83203 -3.9755,-0.89331 -9.4685,-2.78589 -12.209,-4.20313 -1.0276,-0.53146 -1.9852,-0.95495 -2.7812,-1.24414 -0.1788,-0.0649 -0.245,-0.0466 -0.4063,-0.0976 -0.5504,-0.17653 -1.0497,-0.32455 -1.3515,-0.32813 -0.011,-7e-5 -0.04,-0.0119 -0.051,-0.0117 0,5e-5 0,0.002 0,0.002 -0.2541,0.004 -0.3945,0.0804 -0.3945,0.23633 0,3.58646 8.126,13.29754 13.5078,16.14062 3.1667,1.67294 4.4176,2.70921 4.2597,3.11719 -0.052,0.13428 -0.2618,0.19923 -0.6015,0.19726 -4e-4,0 0,1e-5 0,0 -0.6949,-0.008 -1.9429,-0.29426 -3.5918,-0.85742 -1.651,-0.56402 -3.7015,-1.40622 -6.0097,-2.52344 l -7.3028,-3.5332 -0.01,0.004 v -0.002 l -9.0156,4.56836 c -1.8194,0.92197 -3.7541,2.15158 -5.7168,3.49805 -0.2137,0.14665 -0.4084,0.22993 -0.6231,0.38086 -0.2303,0.16195 -0.466,0.38017 -0.6972,0.54687 -9.2906,6.69471 -19.2318,17.1108 -23.8926,25.59766 -2.908,5.29536 -4.2393,7.05037 -7.8828,8.04883 -7e-4,1.8e-4 0,-1.8e-4 0,0 -1.2134,0.33169 -2.6815,0.58028 -4.5507,0.84765 0,4.7e-4 0,10e-4 -0.01,0.002 -1.3519,0.19365 -2.6813,0.44916 -3.9843,0.76367 -1.3049,0.31504 -2.5849,0.68865 -3.836,1.11914 -7.6284,2.62295 -14.2026,7.34761 -19.207,13.50781 -0.026,0.032 -0.056,0.0598 -0.082,0.0918 -0.1362,0.16865 -0.26,0.34888 -0.3848,0.52734 -0.6981,0.89067 -1.3722,1.80153 -2.0039,2.74805 -0.067,0.0989 -0.1453,0.18891 -0.2109,0.28906 v 0.002 c -0.1609,0.24528 -0.291,0.51295 -0.4473,0.76171 -0.54,0.85943 -1.0607,1.7311 -1.5449,2.63086 -0.081,0.15023 -0.1786,0.28813 -0.2578,0.43946 v 0.002 c -0.1181,0.22558 -0.2078,0.46928 -0.3223,0.69727 -0.4607,0.91631 -0.8932,1.84781 -1.2949,2.80078 -0.083,0.19742 -0.1889,0.38117 -0.2696,0.58008 v 0.002 c -0.078,0.19293 -0.1313,0.39941 -0.207,0.59375 -0.3825,0.98114 -0.7301,1.97915 -1.0488,2.99414 -0.075,0.24073 -0.1762,0.46841 -0.2481,0.71094 -0.045,0.15231 -0.07,0.31373 -0.1132,0.46679 -0.3108,1.08771 -0.575,2.19514 -0.8106,3.31641 -0.038,0.18656 -0.085,0.3692 -0.1211,0.55664 -0.2889,1.46059 -0.5191,2.94336 -0.6758,4.45313 -0.021,0.12344 -0.043,0.24666 -0.055,0.37304 v 0.002 c 0,0.0289 0,0.059 0,0.0879 -0.1465,1.55552 -0.2382,3.12952 -0.2382,4.72851 0,9.76379 2.6928,18.73528 7.3535,26.20117 0.183,0.29327 0.3675,0.58261 0.5566,0.8711 2.0708,3.15741 4.5017,6.02037 7.252,8.53906 0.1333,0.12213 0.244,0.26818 0.3789,0.38867 0.1328,0.11874 0.2876,0.21101 0.4218,0.32813 6.5261,5.69185 14.6899,9.4973 23.8985,10.58789 6.9726,0.82601 9.0148,1.83742 10.5625,5.23437 1.5841,3.47649 1.4043,4.49757 -1.0293,5.85938 -15.0732,8.43544 -49.6219,43.73138 -57.2559,58.49414 l -2.7617,5.33203 0.018,-0.0137 v 0.008 l 6.5976,-4.93164 6.5879,-4.92188 -4.8144,6.44727 c -2.6517,3.55032 -6.0211,9.35856 -7.4864,12.9082 l -2.6621,6.45508 0.02,-0.0195 -0.01,0.0156 4.9961,-4.73243 c 2.7386,-2.59354 4.5482,-4.05777 5.4316,-4.39062 1.4479,-0.52796 0.3416,2.07222 -3.3144,7.83594 -7.7173,12.16648 -10.2305,22.74286 -10.2305,43.08007 0,31.20023 4.7732,35.87844 34.6035,33.92969 0.039,-0.003 0.065,-0.003 0.1036,-0.006 4.1711,-0.27178 7.5117,-0.42965 10.4433,-0.42969 0.3198,-0.002 0.6621,-0.0106 0.9707,-0.008 1.209,0.0165 2.3299,0.0727 3.3906,0.16602 0.3265,0.0272 0.6403,0.0679 0.9551,0.10351 1.0983,0.12811 2.1546,0.28507 3.1446,0.52344 0.2253,0.0543 0.437,0.13826 0.6582,0.19922 0.9268,0.22067 1.7992,0.50843 2.6523,0.82422 5.2787,2.26939 10.0367,6.97616 18.8105,16.0625 l 4.3868,4.54101 c -0.4785,-0.2879 -1.2022,-0.65433 -1.5762,-0.9082 l -3.2266,-2.50781 c -0.016,0.0355 -0.033,0.0699 -0.049,0.10547 l -1.2559,-1.11719 c -4e-4,-4.1e-4 0,4.1e-4 0,0 -3.9077,-3.47282 -6.5213,-5.63946 -8.7734,-7.33594 -4.6224,-3.48184 -7.1312,-4.14272 -12.0528,-4.1543 -7e-4,0 0,10e-6 0,0 0,0 0,10e-6 0,0 -1.7903,-0.004 -3.4827,0.19926 -5.127,0.49415 -0.4045,0.0725 -0.8039,0.14849 -1.1992,0.23828 -1.5797,0.3589 -3.106,0.8148 -4.5313,1.4375 -0.1519,0.0663 -0.2874,0.15541 -0.4375,0.22461 -1.2963,0.59798 -2.5101,1.31957 -3.666,2.12304 -0.3171,0.22036 -0.6333,0.4368 -0.9394,0.67188 -1.2058,0.92587 -2.3421,1.93825 -3.3711,3.08008 -0.041,0.0449 -0.093,0.0759 -0.1328,0.12109 -9e-4,10e-4 0,0.003 0,0.004 -0.6713,0.75566 -1.3036,1.55498 -1.8946,2.39648 -4e-4,5e-4 -1e-4,10e-4 0,0.002 -3e-4,4.2e-4 3e-4,0.002 0,0.002 -0.6762,0.96262 -1.3001,1.97973 -1.8672,3.04687 -2e-4,5e-4 3e-4,0.001 0,0.002 -0.6508,1.22491 -1.2061,2.53202 -1.707,3.88281 -0.3168,0.85512 -0.6223,1.71972 -0.8769,2.62109 -4e-4,0.001 0,0.002 0,0.004 -0.017,0.0614 -0.028,0.1278 -0.045,0.18945 -0.1413,0.51055 -0.2442,1.04588 -0.3652,1.57031 -0.1221,0.53005 -0.2679,1.04401 -0.3691,1.58789 -0.017,0.0888 -0.012,0.1899 -0.027,0.2793 -0.3673,2.05021 -0.5662,4.19726 -0.625,6.41797 -0.02,0.17421 -0.048,0.34404 -0.051,0.52734 v 0.002 c 0,0.17545 0.036,0.36854 0.035,0.54492 -0.01,2.2499 0.1295,4.56291 0.4512,6.94726 0.038,0.28388 0.096,0.5719 0.1386,0.85743 0.3791,2.51218 0.8966,5.07146 1.6582,7.6914 3.1951,10.99029 12.908,26.07206 25.3379,40.38672 0.9836,1.13286 1.9561,2.2525 2.9727,3.37305 0.8297,0.91458 1.6465,1.82311 2.4961,2.72656 1.8497,1.96723 3.7392,3.9004 5.6679,5.79492 2.8671,2.81613 5.7878,5.55805 8.7735,8.13867 4.9876,4.311 8.0796,7.55517 8.8926,9.2168 0.1524,0.31606 0.2834,0.61646 0.2597,0.80859 0,0.012 0.012,0.0334 0.01,0.0449 -1e-4,4.8e-4 10e-5,10e-4 0,0.002 -0.01,0.0286 -0.043,0.033 -0.053,0.0586 -0.045,0.12357 -0.1077,0.23332 -0.2539,0.28321 -1.3949,0.47582 -3.5611,0.98809 -6.1524,1.48828 -7.774,1.50057 -19.3791,2.89648 -25.5078,2.89648 -1.4586,0 -2.663,0.0668 -3.7031,0.18945 -1.0424,0.12296 -1.9195,0.30381 -2.7227,0.53126 -1.608,0.45535 -2.919,1.09984 -4.6582,1.86132 -1.4033,0.61446 -2.6897,1.52935 -3.8027,2.58203 -5.3164,6.11148 -7.3117,10.10124 -0.8731,13.94727 1.636,1.0916 2.7704,1.27861 3.8575,0.50391 0,-9.3e-4 0,-10e-4 0,-0.002 0.362,-0.2572 0.7179,-0.62065 1.0859,-1.09375 0.6328,-0.76517 1.3913,-1.34578 2.1816,-1.89453 0,-10e-4 0,-0.003 0.01,-0.004 0.7917,-0.54943 1.6157,-1.06685 2.3789,-1.70704 0,-0.002 0,-0.003 0.01,-0.006 1.0661,-0.8956 1.3107,-1.01387 2.4648,-1.79102 1.3764,-0.85784 2.8386,-1.57241 4.3691,-2.11133 1.2498,-0.43993 1.8114,-0.54629 3.0801,-0.85937 0.074,-0.0172 0.1404,-0.0271 0.1992,-0.0254 0.2061,0.009 0.3193,0.13196 0.3184,0.26757 0,0.002 -0.01,0.004 -0.01,0.006 0,0.13382 -0.1157,0.27957 -0.3671,0.3418 -1.2326,0.30307 -1.7867,0.40928 -2.9981,0.83398 0,5.2e-4 0,-5.1e-4 0,0 -0.7427,0.26066 -1.3548,0.66505 -1.9492,1.10547 -0.5977,0.44281 -1.1759,0.92202 -1.8477,1.33985 -1.1292,0.75888 -1.7461,1.77079 -2.7851,2.64258 -1.5023,1.25974 -1.7271,2.15628 -2.9746,3.66406 -0.029,0.0376 -0.026,0.0701 -0.053,0.10742 -0.1901,0.26071 -0.3479,0.51659 -0.4316,0.75976 -0.018,0.0522 -0.01,0.099 -0.019,0.1504 -0.03,0.11313 -0.033,0.22074 -0.041,0.33007 -0.01,0.1033 -0.051,0.21259 -0.041,0.3125 0.01,0.0576 0.071,0.10175 0.082,0.15821 0.4049,2.11742 4.5199,3.46995 6.5234,4.1914 2.7115,0.91637 5.2954,0.68376 7.8984,-2.13867 2.7424,-3.03036 5.928,-3.38554 34.5586,-3.87109 30.6557,-0.51997 31.6574,-0.65085 35.9707,-4.70703 0,-0.002 0,-0.005 0.01,-0.008 0.01,-0.009 0.016,-0.0185 0.025,-0.0273 0.6551,-0.61859 1.2126,-1.2603 1.7168,-1.91797 0.1494,-0.1951 0.2779,-0.40015 0.414,-0.59961 0.3518,-0.51503 0.659,-1.04863 0.9219,-1.59765 0.1,-0.20878 0.208,-0.41645 0.2949,-0.63086 0.3073,-0.75652 0.5621,-1.53722 0.709,-2.375 0.1614,-0.92086 0.2265,-1.89643 0.1934,-2.9375 v -0.002 -0.006 c 0,-0.044 -0.011,-0.0929 -0.018,-0.14062 -0.012,-0.0862 -0.025,-0.17341 -0.031,-0.25391 -0.01,-0.1555 -0.05,-0.336 -0.063,-0.49414 -0.067,-0.84202 -0.1512,-1.69509 -0.3378,-2.62695 0,-0.0172 0,-0.0316 -0.01,-0.0488 -0.2197,-1.11955 -0.5263,-2.30999 -0.9277,-3.58398 -5e-4,-0.002 0,-0.004 0,-0.006 -0.427,-1.35442 -0.9519,-2.80095 -1.5762,-4.34571 -5e-4,-10e-4 0,-0.003 0,-0.004 -0.6251,-1.54615 -1.3483,-3.19314 -2.1719,-4.95313 -7e-4,-10e-4 0,-0.002 0,-0.004 -0.1014,-0.21691 -0.1637,-0.38269 -0.2578,-0.58985 0,-0.0101 -0.01,-0.0189 -0.012,-0.0293 -1.0139,-2.20008 -1.7831,-4.08729 -2.3945,-5.80274 -0.2614,-0.7231 -0.5271,-1.45104 -0.7149,-2.09961 -0.079,-0.2742 -0.1523,-0.54383 -0.2187,-0.80664 -0.2302,-0.90573 -0.3783,-1.74133 -0.461,-2.5293 -0.021,-0.201 -0.061,-0.41687 -0.072,-0.61132 -0.056,-0.9494 -0.021,-1.83547 0.1503,-2.66016 0.037,-0.1764 0.1249,-0.33376 0.1719,-0.50586 0.3253,-1.1918 0.8521,-2.30523 1.6719,-3.39062 0.4692,-0.6213 1.0202,-1.23895 1.6504,-1.86914 0.82,-0.82 1.6501,-1.45029 2.4863,-1.89649 0.01,-0.006 0.021,-0.006 0.031,-0.0117 0.7429,-0.39077 1.4904,-0.59797 2.2363,-0.70117 0.2145,-0.03 0.4283,-0.0207 0.6426,-0.0273 0.5785,-0.0168 1.1546,0.0455 1.7285,0.19726 0.198,0.052 0.3966,0.0904 0.5937,0.16211 1.8334,0.67142 3.6132,2.25679 5.293,4.58203 0.9774,1.357 1.9122,2.9908 2.8008,4.87891 0.9708,2.06077 1.9006,4.31852 2.7305,6.98828 2.9893,9.6165 6.2966,16.19524 10.5214,20.36914 0.9108,0.89971 1.8784,1.65859 2.8809,2.33984 0.3257,0.22135 0.6696,0.41219 1.0059,0.61133 0.7705,0.4562 1.5727,0.85598 2.4023,1.19922 0.3661,0.15147 0.7292,0.31513 1.1074,0.44531 1.139,0.39176 2.3208,0.71323 3.5782,0.91993 1.5118,0.24873 3.1048,0.38086 4.8066,0.38086 1.8477,0 4.7034,-0.38698 8.2617,-1.06055 2.9189,-0.55296 6.453,-1.36424 10.334,-2.32227 1.3282,-0.32768 2.7577,-0.70628 4.1855,-1.07812 2.3365,-0.60849 4.8505,-1.31257 7.4297,-2.03321 7.2663,-2.02916 15.0916,-4.32394 23.8399,-7.13085 4.1139,-1.31999 8.2671,-2.45959 11.9707,-3.39063 2.2738,-0.56981 4.5138,-1.11687 6.1914,-1.43164 1.5908,-0.29885 2.8848,-0.48242 3.6523,-0.48242 4.1285,0 7.824,1.68015 10.9024,4.84765 0.7696,0.79188 1.5001,1.67556 2.1894,2.65039 0.6881,0.97357 1.3352,2.03569 1.9375,3.18555 9e-4,0.002 0,0.004 0,0.006 1.1992,2.29044 2.2205,4.9265 3.0449,7.88086 0,0.0159 0.011,0.029 0.016,0.0449 6e-4,0.002 0,0.004 0,0.006 0.01,0.0368 0.025,0.0687 0.035,0.10547 0.3844,1.3702 0.819,2.70221 1.2735,3.94336 0.4647,1.26927 0.9502,2.44342 1.4336,3.45508 7e-4,0.002 0,0.004 0,0.006 0.9679,2.0252 1.9134,3.41361 2.6015,3.67773 0,5e-4 0,-5e-4 0,0 0,6.7e-4 0,0.005 0.01,0.006 2.1335,0.81875 3.9301,-0.332 5.1211,-2.8125 0.069,-0.14312 0.1329,-0.28727 0.1972,-0.43945 0.8645,-2.03863 1.3662,-4.83293 1.3145,-8.23438 -0.087,-5.74052 -1.5106,-11.25655 -4.0801,-16.08398 -1.5399,-2.89314 -3.4909,-5.53832 -5.8125,-7.83789 -1.2078,-1.1963 -2.0074,-2.09097 -2.5996,-2.82617 -0.3804,-0.47291 -0.727,-0.92003 -0.8555,-1.19727 -0.1187,-0.2543 -0.1324,-0.42368 -0.043,-0.51172 3e-4,-3.2e-4 0,3.2e-4 0,0 0.1614,-0.1599 0.6611,-0.0431 1.4942,0.35352 0,4.9e-4 9e-4,-5e-4 0,0 0.8819,0.42024 2.1266,1.14716 3.7442,2.20703 0.7543,0.49424 1.485,1.05606 2.1894,1.67969 0.7001,0.62081 1.3752,1.30264 2.0235,2.04687 0.6514,0.7481 1.2763,1.55748 1.873,2.42578 0.7266,1.05735 1.3818,2.26171 2.0234,3.49024 0.9027,1.72675 1.7392,3.58081 2.4629,5.62695 0.03,0.0853 0.07,0.1544 0.1,0.24023 0.8363,2.4076 1.5465,5.0246 2.1192,7.83399 0.922,4.52349 2.1396,7.84831 3.4492,10 0,0.006 0.01,0.007 0.012,0.0137 0.6513,1.06624 1.3256,1.84776 1.9961,2.33789 3.3765,2.48429 6.6797,-2.28853 6.6797,-13.91016 0,-4.19538 -0.5707,-7.94718 -1.707,-11.45703 -0.093,-0.28785 -0.1917,-0.57683 -0.293,-0.86133 -0.9461,-2.65525 -2.2806,-5.17425 -3.9707,-7.62304 -1.1189,-1.62118 -2.3682,-3.22353 -3.8359,-4.81055 -0.068,-0.0735 -0.109,-0.14915 -0.1778,-0.22265 -2.4358,-2.60331 -3.5994,-4.73243 -2.5859,-4.73243 0.9308,0 2.2759,0.85728 3.7832,2.23243 0.027,0.0324 0.055,0.0681 0.08,0.0918 1.4144,1.30326 2.9632,3.04822 4.4531,4.99024 0.033,0.0422 0.064,0.0729 0.096,0.10937 0.011,0.014 0.023,0.025 0.033,0.0391 0.066,0.0865 0.1122,0.18428 0.1777,0.27149 1.5009,1.99567 2.9399,4.15298 4.0684,6.21484 0.4621,0.84429 0.8261,1.6439 1.1758,2.4336 0.094,0.21265 0.2319,0.44932 0.3164,0.65625 0.3998,0.97878 0.6892,1.88878 0.8398,2.6914 0.2781,1.48245 0.6406,2.81825 1.0371,4.08008 0.108,0.34425 0.2246,0.65358 0.3399,0.98047 0.3142,0.89003 0.6481,1.71139 1.0078,2.4668 0.1375,0.28932 0.2673,0.58474 0.4101,0.85351 0.4828,0.90729 0.9859,1.72967 1.5118,2.39063 0.01,0.0118 0.018,0.0293 0.027,0.041 0.027,0.0342 0.055,0.0505 0.082,0.084 0.51,0.62152 1.0299,1.0912 1.5528,1.46484 0.1814,0.13019 0.3562,0.21346 0.5371,0.3125 0.3793,0.20708 0.751,0.34089 1.1211,0.40625 0.1877,0.0337 0.3712,0.0782 0.5547,0.0742 0.4636,-0.0105 0.9096,-0.1304 1.332,-0.39063 1.1165,-0.68484 2.0624,-2.21353 2.6328,-4.81054 2.7565,-12.54998 -6.0779,-30.1209 -18.3828,-36.5625 -1.5427,-0.80763 -3.0153,-1.45788 -4.6016,-1.9961 -1.3642,-0.46308 -2.8937,-0.82181 -4.5664,-1.13281 -0.5276,-0.0978 -1.1749,-0.18592 -1.75,-0.27148 -1.0356,-0.15372 -2.3642,-0.28782 -3.5898,-0.40821 -3.2638,-0.31743 -7.0143,-0.5733 -12.2207,-0.75976 0,-1.2e-4 0,1.2e-4 -0.01,0 -4.4714,-0.16008 -7.9047,-0.29849 -10.5196,-0.45899 0,-2.2e-4 0,2.2e-4 -0.01,0 -2.3589,-0.14506 -3.8727,-0.32461 -5.0508,-0.54101 -0.7788,-0.14166 -1.4837,-0.28817 -1.8652,-0.48438 -0.9704,-0.49964 -0.8045,-1.20487 -0.2305,-2.27734 1.2626,-2.35962 5.2246,-5.5234 10.2911,-8.625 0.5369,-0.3287 1.1177,-0.65019 1.6796,-0.97656 2.0263,-1.17574 4.1882,-2.31849 6.4356,-3.40235 0.6383,-0.30768 1.2623,-0.62266 1.9101,-0.91797 2.8733,-1.30893 5.8166,-2.52458 8.6817,-3.47265 6.2981,-2.08386 17.55,-6.34943 25.0039,-9.48047 42.0328,-17.65643 67.7381,-43.90284 81.5684,-83.28516 7.155,-20.37473 9.6614,-36.79809 9.5839,-62.82422 -0.1424,-47.53328 -12.5965,-86.87792 -32.9511,-109.33789 -1.5484,-1.70889 -3.1511,-3.29732 -4.7891,-4.80664 -0.5575,-0.51362 -1.1277,-0.9925 -1.6953,-1.48242 -1.2737,-1.09959 -2.5714,-2.1375 -3.8945,-3.11523 -0.5903,-0.43611 -1.1755,-0.88161 -1.7754,-1.29297 -1.8133,-1.24369 -3.6585,-2.40392 -5.5567,-3.41602 -4.4445,-2.36889 -9.1108,-4.10319 -13.9824,-5.125 0,-6.9e-4 -0.01,-10e-4 -0.01,-0.002 -1.5773,-0.33085 -3.1415,-0.55994 -4.6875,-0.69336 0,-2.8e-4 -0.01,-0.002 -0.01,-0.002 -1.5457,-0.13301 -3.073,-0.16893 -4.5762,-0.11524 h -0.01 c -0.08,0.004 -0.1566,0.0176 -0.2363,0.0215 -1.3317,0.0569 -2.6439,0.18674 -3.9336,0.38281 -0.01,10e-4 -0.013,0.003 -0.02,0.004 -0.4528,0.0691 -0.889,0.17999 -1.336,0.26563 -0.015,0.003 -0.03,0.007 -0.045,0.01 -0.8831,0.17038 -1.7627,0.34881 -2.6211,0.58203 -0.01,0.001 -0.01,0.002 -0.016,0.004 -0.5137,0.13981 -1.0115,0.31103 -1.5156,0.47266 -0.019,0.006 -0.038,0.0115 -0.057,0.0176 -0.7657,0.24694 -1.5256,0.50691 -2.2675,0.80273 -0.01,0.002 -0.012,0.005 -0.018,0.008 -0.5091,0.20328 -1.0068,0.42286 -1.5039,0.64844 -0.011,0.005 -0.022,0.009 -0.033,0.0137 -0.7244,0.32959 -1.4354,0.68121 -2.1328,1.05664 -0.013,0.007 -0.026,0.0144 -0.039,0.0215 -0.4589,0.24779 -0.9129,0.49862 -1.3594,0.76562 -0.01,0.005 -0.017,0.009 -0.025,0.0137 -0.7064,0.42326 -1.3891,0.87989 -2.0625,1.34961 -0.011,0.008 -0.022,0.0157 -0.033,0.0234 -0.4022,0.28122 -0.8094,0.55239 -1.1992,0.84961 0,0.002 -0.01,0.004 -0.01,0.006 -0.7082,0.54038 -1.3819,1.12172 -2.0469,1.71289 -0.018,0.0156 -0.035,0.0314 -0.053,0.0469 -0.3036,0.27098 -0.6238,0.52153 -0.918,0.80273 -0.01,0.005 -0.011,0.009 -0.016,0.0137 -0.9544,0.91353 -1.8664,1.87122 -2.7149,2.88672 -3e-4,3.7e-4 4e-4,0.002 0,0.002 -0.8506,1.01828 -1.6359,2.09297 -2.371,3.20508 0,0.002 0,0.004 0,0.006 -0.223,0.3376 -0.4131,0.69725 -0.625,1.04297 -0.01,0.01 -0.012,0.0196 -0.017,0.0293 -0.4764,0.77915 -0.9421,1.56644 -1.3594,2.38476 0,0.007 -0.01,0.0145 -0.01,0.0215 -0.2295,0.45075 -0.4297,0.91693 -0.6406,1.3789 0,0.003 0,0.007 0,0.01 -0.3461,0.75864 -0.6765,1.52533 -0.9707,2.3125 -0.191,0.5109 -0.3629,1.02856 -0.5313,1.55078 -0.04,0.12437 -0.069,0.25392 -0.1074,0.37891 -0.2073,0.66875 -0.4066,1.34139 -0.5761,2.02734 0,0.007 0,0.0143 -0.01,0.0215 -0.1322,0.53629 -0.257,1.07301 -0.3652,1.61914 -0.1673,0.84354 -0.2921,1.70304 -0.4004,2.56836 -0.067,0.53836 -0.1455,1.07103 -0.1895,1.61718 -0.034,0.42308 -0.023,0.85963 -0.043,1.28711 -0.02,0.56163 -0.055,1.11863 -0.055,1.68555 0,0.0118 0,0.0234 0,0.0352 -2e-4,0.44425 -0.027,0.87979 -0.012,1.32812 0.051,1.47342 0.1718,2.96478 0.3985,4.47656 10e-5,6.6e-4 -10e-5,0.001 0,0.002 0,0.008 0,0.0156 0.01,0.0234 0.2031,1.34715 0.5162,2.69922 0.8848,4.04883 0.1084,0.39704 0.2355,0.78941 0.3574,1.18555 0.2323,0.75451 0.5095,1.49559 0.7891,2.24414 0.7389,1.97942 1.5784,3.94093 2.6172,5.83398 3e-4,5.2e-4 -3e-4,10e-4 0,0.002 1.0427,1.90013 2.2689,3.70559 3.5683,5.45312 0.3196,0.42971 0.6393,0.84371 0.9727,1.26172 1.3576,1.70317 2.7853,3.34063 4.3437,4.80859 2.3301,2.19477 4.8581,4.09129 7.5098,5.57618 5.0124,2.80692 9.5098,4.70516 9.9961,4.21875 3e-4,-2.8e-4 -3e-4,-0.002 0,-0.002 0.1214,-0.12128 0.1643,-0.41498 0.1367,-0.83984 0,-4.9e-4 10e-5,-10e-4 0,-0.002 -0.028,-0.42622 -0.1266,-0.98473 -0.2851,-1.63672 -2e-4,-4.9e-4 1e-4,-10e-4 0,-0.002 -0.3173,-1.30428 -0.8769,-2.98022 -1.6016,-4.71484 -2e-4,-5.8e-4 2e-4,-0.001 0,-0.002 -0.8082,-1.93417 -1.4609,-3.88806 -2.0039,-5.82813 -0.1799,-0.64299 -0.2843,-1.26994 -0.4356,-1.9082 -0.3055,-1.28942 -0.5987,-2.5765 -0.789,-3.83008 -0.2286,-1.50775 -0.4153,-3.0011 -0.4805,-4.42187 -0.065,-1.42633 -0.012,-2.76643 0.084,-4.06641 0.079,-1.07703 0.2537,-2.0574 0.4414,-3.02344 0.092,-0.47524 0.1415,-0.999 0.2598,-1.44336 0.3538,-1.32879 0.8083,-2.53356 1.3886,-3.53906 0.01,-0.0123 0.011,-0.0307 0.018,-0.043 3e-4,-4.6e-4 -2e-4,-0.001 0,-0.002 0.5538,-0.9499 1.2088,-1.73789 1.961,-2.33399 0.7525,-0.59639 1.6034,-1.00153 2.5488,-1.18359 1.5218,-0.29308 3.0424,-0.0852 4.5488,0.58594 0.7524,0.33546 1.5011,0.78528 2.2442,1.34765 0.071,0.0538 0.1399,0.13753 0.2109,0.19336 0.6716,0.52862 1.3389,1.11921 2,1.82618 0.7302,0.78094 1.4547,1.66828 2.168,2.6582 v 0.002 c 0.9565,1.32762 1.8884,2.90167 2.8066,4.58594 0.2188,0.40114 0.4361,0.81181 0.6523,1.23242 0.907,1.7645 1.8006,3.63916 2.6583,5.73242 1.2808,3.12606 2.5026,6.60583 3.6484,10.4043 v 0.002 c 1.1456,3.798 2.2165,7.91329 3.1973,12.31055 v 0.002 c 0.9807,4.3974 1.8721,9.07623 2.6582,14 v 0.002 c 0.786,4.92388 1.468,10.0934 2.0293,15.4707 0.4856,4.64998 0.7584,10.39635 0.8574,16.26953 0,0.19821 0,0.38747 0,0.58594 0.075,5.04788 -0.01,10.0463 -0.1601,14.61914 -0.1091,3.19652 -0.2314,6.36253 -0.4317,8.81055 -0.2207,2.69575 -0.5085,4.49821 -0.8183,5.75 -0.1142,0.45634 -0.2295,0.89881 -0.3535,1.10742 -0.089,0.14965 -0.1747,0.36334 -0.2676,0.375 -0.044,0.005 -0.088,-0.007 -0.1328,-0.0352 -0.1793,-0.10861 -0.364,-0.40312 -0.5567,-1.07226 0,-0.0122 -0.01,-0.013 -0.01,-0.0254 -0.011,-0.0395 -0.018,-0.0393 -0.029,-0.0781 -0.3339,-1.17947 -0.6097,-2.00736 -0.8907,-2.375 -0.029,-0.0373 -0.062,-0.0967 -0.092,-0.12305 -0.1401,-0.12626 -0.2833,-0.16876 -0.4414,-0.0195 -0.1742,0.16448 -0.3658,0.50978 -0.584,1.06641 -0.4363,1.1131 -0.9839,3.07038 -1.7382,6.11328 -0.7546,3.0433 -1.7149,7.17077 -2.9766,12.62695 -0.5199,2.2483 -1.1556,4.68321 -1.8594,7.16211 v 0.002 c -0.7035,2.47783 -1.4758,4.99745 -2.2676,7.41407 v 0.002 c -0.7919,2.41733 -1.6041,4.73056 -2.3886,6.79492 -0.4557,1.19901 -0.8632,2.07583 -1.291,3.07813 -0.3089,0.72383 -0.6475,1.6271 -0.9336,2.22265 v 0.002 l -4.9532,10.32031 0.9434,-9.45703 0.9453,-9.4668 v 0.006 -0.008 l -7.4864,14.62695 v 0.002 c -0.053,0.1033 -0.1166,0.20901 -0.1699,0.3125 -1.4767,2.86971 -3.1182,5.79356 -4.7773,8.62891 -0.2826,0.46238 -0.5641,0.93093 -0.8477,1.40625 -0.2657,0.4453 -0.5273,0.87037 -0.793,1.31836 -1.2075,1.988 -2.3919,3.86627 -3.539,5.60547 -0.5175,0.78396 -1.0421,1.59008 -1.5332,2.30273 -1.477,2.14159 -2.8566,4.02987 -3.9356,5.28907 -0.047,0.0544 -0.1165,0.16046 -0.1621,0.21289 v 0.002 c -0.6191,0.71161 -1.1475,1.24108 -1.5625,1.55078 -2e-4,2e-4 0,-1.9e-4 0,0 -0.4143,0.30898 -0.7133,0.39836 -0.877,0.23633 -0.1408,-0.14251 0.1322,-1.17953 0.6875,-2.73828 0.5557,-1.5598 1.3946,-3.64176 2.3789,-5.86719 2.3274,-5.2611 3.1994,-8.56972 2.8145,-9.60938 -0.01,-0.0167 0,-0.0587 0,-0.0742 -2e-4,-4.1e-4 10e-5,-0.002 0,-0.002 -0.1077,-0.24433 -0.2987,-0.33952 -0.5664,-0.2832 0,2.3e-4 -9e-4,-0.002 0,-0.002 0,10e-4 -0.016,0.0145 -0.021,0.0156 -0.3182,0.0754 -0.8163,0.51814 -1.3457,1.02344 -0.1458,0.13864 -0.2115,0.11272 -0.373,0.28516 -0.7523,0.80301 -1.674,1.97329 -2.7559,3.5332 v 0.002 c -1.2678,1.82742 -3.5953,4.64878 -6.3242,7.72461 -0.1517,0.17095 -0.3304,0.34129 -0.4844,0.51367 -2.618,2.92992 -5.5361,6.05008 -8.25,8.73243 v 0.002 l -10.4453,10.32226 5.0391,-9.45898 c 3.7359,-7.01461 5.916,-11.32997 5.5996,-12.80273 -0.042,-0.19998 -0.1393,-0.3384 -0.2754,-0.4336 -0.046,-0.0317 -0.1106,-0.0447 -0.168,-0.0645 -0.103,-0.0363 -0.2447,-0.0343 -0.3847,-0.0312 -0.1838,0.005 -0.4816,0.12295 -0.7305,0.19531 -0.5207,0.15055 -1.1984,0.45118 -2.0215,0.90039 -0.2906,0.1591 -0.5666,0.29971 -0.8965,0.4961 -1.2441,0.73974 -2.6765,1.65407 -4.5137,2.93164 v 0.002 c -4.043,2.81153 -9.5832,6.93593 -16.9003,12.42187 -7.5922,5.69196 -15.2244,11.74429 -21.4024,16.91016 v 0.002 c -3.0887,2.58276 -5.8125,4.94599 -7.9883,6.92969 -3e-4,2.8e-4 0,-2.8e-4 0,0 -2.1759,1.98387 -3.8025,3.58893 -4.6934,4.66211 -4e-4,4.9e-4 4e-4,10e-4 0,0.002 -5.521,6.65148 -9.7147,11.4736 -13.2324,15.32422 v 0.002 c -0.2294,0.24999 -0.5225,0.58563 -0.7441,0.82421 v 0.002 c -0.041,0.0442 -0.067,0.0676 -0.1075,0.11133 -1.4393,1.55315 -2.6967,2.83052 -3.8359,3.94335 v 0.002 c -0.189,0.18336 -0.3968,0.39465 -0.5781,0.5664 0,0.002 0,0.004 -0.01,0.006 -1.2376,1.18043 -2.3206,2.10994 -3.2226,2.77539 0,0.002 -0.014,0.008 -0.014,0.01 -0.01,0.009 -0.025,0.0181 -0.035,0.0273 -0.4505,0.33006 -0.9508,0.73723 -1.3261,0.94727 -0.1361,0.0761 -0.3538,0.28279 -0.4805,0.34375 -9e-4,4.4e-4 0,0.002 0,0.002 -0.1169,0.0549 -0.1233,0.0226 -0.2207,0.0605 -1.4514,0.57788 -0.2348,-0.95524 3.0527,-3.7207 1.8761,-1.57809 4.5769,-4.47221 7.377,-7.74024 0.3459,-0.4038 0.6465,-0.84045 0.9941,-1.25391 2.0965,-2.50442 4.2498,-5.11914 6.0059,-7.58007 5e-4,-7.4e-4 0,-10e-4 0,-0.002 1.1347,-1.6241 2.3565,-3.213 3.6524,-4.77148 8e-4,-10e-4 10e-4,-0.003 0,-0.004 0.5384,-0.64736 1.1398,-1.269 1.7031,-1.90625 0.7938,-0.89792 1.5612,-1.80601 2.4004,-2.68554 1.467,-1.53747 3.0023,-3.0466 4.5899,-4.53516 0.3549,-0.33298 0.7355,-0.65547 1.0957,-0.98633 1.2472,-1.14496 2.5039,-2.28574 3.8066,-3.4082 0.789,-0.68039 1.6491,-1.33234 2.4551,-2.00586 2.7205,-2.27174 5.466,-4.53397 8.3144,-6.75391 0.08,-0.0624 0.1601,-0.1251 0.2403,-0.1875 6.4378,-5.01121 13.0478,-9.95344 19.3164,-15.03515 0.03,-0.0243 0.062,-0.0479 0.092,-0.0723 0.2406,-0.19522 0.4967,-0.38447 0.7363,-0.58008 0,-9e-4 0,-10e-4 0,-0.002 3.0279,-2.47399 5.9103,-5.00795 8.6895,-7.58398 1.8914,-1.75346 3.7588,-3.51676 5.4843,-5.3379 0.024,-0.0248 0.051,-0.0475 0.074,-0.0723 9e-4,-9.9e-4 0,-9.6e-4 0,-0.002 v -0.002 c 0,-0.004 0.01,-0.009 0.012,-0.0137 1.8787,-1.98774 3.5948,-4.04162 5.2246,-6.13086 0.6305,-0.80811 1.258,-1.61783 1.8457,-2.44336 0.3021,-0.42435 0.6102,-0.84618 0.9004,-1.27539 1.0053,-1.4867 1.9611,-2.99344 2.8125,-4.54297 0.4983,-0.95837 0.9555,-1.97048 1.3711,-3.03125 0.016,-0.0417 0.027,-0.0909 0.043,-0.13281 0.4758,-1.22892 0.8592,-2.55579 1.2265,-3.90234 0.097,-0.35544 0.2347,-0.66847 0.3242,-1.03125 7e-4,-0.003 0,-0.007 0,-0.01 0.4397,-1.78294 0.7877,-3.65312 1.0489,-5.58789 3e-4,-0.002 -4e-4,-0.005 0,-0.008 0.3481,-2.58205 0.5395,-5.28072 0.5781,-8.04492 0,-0.003 0,-0.005 0,-0.008 0.038,-2.76508 -0.076,-5.5949 -0.3379,-8.4414 -2e-4,-0.002 2e-4,-0.004 0,-0.006 -1.0499,-11.394 -4.4691,-23.03755 -9.9609,-31.69727 -1.2765,-2.01284 -2.1267,-3.50372 -2.7461,-4.71289 -0.3782,-0.7408 -0.7263,-1.4477 -0.8555,-1.88281 -0.01,-0.022 -0.029,-0.0628 -0.035,-0.084 -0.091,-0.32428 -0.073,-0.51411 -0.017,-0.6582 0.045,-0.12209 0.1818,-0.13174 0.33,-0.12695 0.073,0.003 0.1051,-0.0473 0.2032,-0.0137 0.273,0.0926 0.6479,0.31178 1.1152,0.64453 0.9804,0.69878 2.3656,1.89946 4.1953,3.65234 9e-4,8.5e-4 0,10e-4 0,0.002 0.134,0.12839 0.2192,0.18124 0.3476,0.30079 0.6994,0.65138 1.3609,1.24354 1.8946,1.64062 9e-4,6.7e-4 0,0.001 0,0.002 0.6307,0.46901 1.1481,0.76725 1.5488,0.90235 0.418,0.1413 0.6998,0.0917 0.8711,-0.10352 0.068,-0.0923 0.091,-0.24124 0.1191,-0.38476 0.015,-0.0802 0.065,-0.11522 0.066,-0.21289 5e-4,-0.0431 -0.037,-0.13328 -0.039,-0.17969 -0.014,-0.34746 -0.1342,-0.82197 -0.3008,-1.35352 -0.047,-0.14798 -0.053,-0.24675 -0.1113,-0.4082 -0.7824,-2.1782 -2.6033,-5.54472 -5.4805,-9.82031 -1.4771,-2.19495 -2.5823,-4.09361 -3.3906,-5.63672 -0.4614,-0.8874 -0.8895,-1.73561 -1.045,-2.24414 -0.1695,-0.54139 -0.1959,-0.89649 0.033,-0.89649 0.4125,0.002 0.9052,0.19124 1.3672,0.5 0.4643,0.31009 0.8985,0.73833 1.1895,1.20899 5e-4,7.6e-4 0,10e-4 0,0.002 0.292,0.4706 0.969,1.1205 1.832,1.78906 0.8646,0.66971 1.9112,1.36011 2.9317,1.90625 l 0.01,0.002 3.6895,1.98047 v -0.004 l 0.025,0.0137 -3.1914,-4.99219 c -2.4305,-3.80175 -5.1062,-7.58516 -7.875,-11.33789 -0.5237,-0.70978 -1.0425,-1.40553 -1.5762,-2.11133 -5.6289,-7.44485 -11.759,-14.60603 -18.0742,-21.14843 -0.6105,-0.63262 -1.2112,-1.24729 -1.8242,-1.86719 -7.8,-7.88808 -15.7546,-14.78034 -23.1602,-19.76758 -5.0333,-3.38961 -7.0757,-4.89546 -7.3378,-6.35156 -10e-5,-5.4e-4 0,-10e-4 0,-0.002 -0.065,-0.36115 0.038,-0.73027 0.1738,-1.11329 0.1913,-0.54824 0.507,-1.11982 1.0195,-1.85156 0.4039,-0.5766 0.9191,-1.10225 1.543,-1.57617 0.5642,-0.42862 1.2445,-0.79969 1.9804,-1.14062 0.2081,-0.0964 0.4369,-0.18226 0.6583,-0.27149 0.4389,-0.17682 0.9297,-0.32455 1.4199,-0.47266 1.2685,-0.38321 2.6489,-0.70317 4.2441,-0.88671 0.025,-0.003 0.044,-0.009 0.068,-0.0117 0.2583,-0.0291 0.5011,-0.0993 0.7578,-0.13281 1.608,-0.21021 3.1891,-0.48887 4.7305,-0.86719 3.8755,-0.95125 7.5023,-2.45406 10.8808,-4.34961 0.087,-0.0485 0.1728,-0.0994 0.2598,-0.14844 1.1143,-0.63518 2.2062,-1.29752 3.2578,-2.02344 0.3537,-0.24081 0.6869,-0.50724 1.0332,-0.75781 0.8044,-0.5897 1.6138,-1.17009 2.377,-1.81055 1.0135,-0.84218 1.9792,-1.738 2.914,-2.66796 1.6883,-1.68185 3.2207,-3.51009 4.6406,-5.43165 0.3215,-0.43485 0.6326,-0.87054 0.9395,-1.3164 1.2562,-1.82523 2.4339,-3.70536 3.4336,-5.69531 3e-4,-5.4e-4 -3e-4,-0.001 0,-0.002 0.4569,-0.90963 0.8322,-1.8616 1.2324,-2.80078 0.2548,-0.59777 0.5521,-1.17447 0.7832,-1.7832 0.4036,-1.06241 0.7174,-2.1614 1.0469,-3.25391 0.156,-0.51741 0.3571,-1.01754 0.4961,-1.54101 10e-5,-6.2e-4 -2e-4,-0.001 0,-0.002 v -0.002 c 0.4319,-1.62765 0.7815,-3.28357 1.0429,-4.96094 10e-5,-6.3e-4 -10e-5,-0.001 0,-0.002 v -0.002 c 0.087,-0.55805 0.1044,-1.13083 0.1719,-1.69336 0.1349,-1.12584 0.2908,-2.24771 0.3457,-3.38867 10e-5,-0.002 0,-0.005 0,-0.008 10e-5,-6.4e-4 0,-10e-4 0,-0.002 v -0.002 c 0.082,-1.71116 0.073,-3.43589 -0.031,-5.16993 -2e-4,-0.003 0,-0.006 0,-0.01 -0.074,-1.21119 -0.2555,-2.42965 -0.4238,-3.64649 -0.073,-0.52601 -0.093,-1.0497 -0.1836,-1.57617 -6e-4,-0.004 0,-0.008 0,-0.0117 -0.268,-1.54836 -0.6455,-3.09683 -1.0742,-4.64257 -0.054,-0.19518 -0.08,-0.39088 -0.1367,-0.58594 -10e-4,-0.003 0,-0.007 0,-0.01 -0.6142,-2.11273 -1.3787,-4.15981 -2.2812,-6.13476 -0.9034,-1.9766 -1.9468,-3.87956 -3.1153,-5.69727 -7.0156,-10.91337 -18.5943,-18.77555 -32.1797,-21.32422 -2.4277,-0.45536 -4.2355,-1.16596 -5.957,-2.5664 -1.7218,-1.40346 -3.359,-3.49636 -5.4473,-6.71875 -0.022,-0.0335 -0.052,-0.0661 -0.074,-0.0996 -1.2195,-1.8749 -2.6267,-3.74398 -4.1152,-5.60157 -0.3922,-0.48942 -0.7849,-0.96897 -1.1934,-1.45507 -1.563,-1.86052 -3.1978,-3.70356 -4.9648,-5.48438 -0.01,-0.007 -0.013,-0.0145 -0.02,-0.0215 0,-0.003 -0.01,-0.007 -0.01,-0.01 -0.1792,-0.18041 -0.3757,-0.34804 -0.5567,-0.52734 -1.1726,-1.16175 -2.3652,-2.31049 -3.6035,-3.41797 -1.425,-1.27469 -2.8873,-2.50859 -4.3769,-3.69141 0,-0.003 -0.01,-0.007 -0.012,-0.01 -1.4894,-1.18219 -3.0052,-2.31383 -4.5352,-3.38282 0,-0.003 -0.01,-0.007 -0.014,-0.01 -1.5295,-1.06823 -3.0729,-2.07407 -4.6191,-3.00781 -0.01,-0.003 -0.01,-0.007 -0.016,-0.01 -1.5456,-0.93284 -3.0945,-1.79123 -4.6328,-2.56836 -0.01,-0.003 -0.011,-0.006 -0.018,-0.01 -2.6011,-1.31308 -4.838,-2.587 -6.6836,-3.70704 -1.2052,-0.7338 -2.3842,-1.46282 -3.0176,-1.96093 -0.5362,-0.42171 -0.834,-0.73801 -0.834,-0.91211 0,-0.69623 -1.9981,-3.59168 -4.4258,-6.43164 l -4.4101,-5.16016 v 0.0137 l -0.022,-0.0254 0.9747,5.78906 0.9785,5.78516 -4.711,-2.98633 c -1.3003,-0.82419 -3.216,-2.3726 -5.2558,-4.20117 -2.0403,-1.82906 -4.2039,-3.93965 -6,-5.89062 l -6.5293,-7.08985 v 0.0137 l -0.025,-0.0273 0.5918,6.45508 c 0.3242,3.5356 0.1674,6.42166 -0.3476,6.44336 -0.5344,-0.0262 -3.2668,-3.47029 -6.0957,-7.69141 -1.4194,-2.11769 -2.881,-4.04798 -4.0938,-5.45117 v -0.002 c -0.6065,-0.70166 -1.1506,-1.27029 -1.5957,-1.66602 -0.4444,-0.39523 -0.7894,-0.61705 -1,-0.62305 l -0.022,-0.008 c -7e-4,-2e-5 0,-0.002 0,-0.002 z m -90.9961,79.01562 c 0.637,-0.072 1.2142,-0.073 1.7168,0 0.6698,0.0987 1.2083,0.33039 1.5761,0.70898 0.1843,0.18978 0.3253,0.41483 0.42,0.67969 0.095,0.26525 0.1428,0.56828 0.1386,0.91211 -0.012,0.97723 -0.18,1.81492 -0.5097,2.5293 -0.3182,0.6904 -0.7924,1.26117 -1.4356,1.72656 -0.6677,0.4832 -1.5137,0.85281 -2.5625,1.11524 -1.034,0.259 -2.261,0.41652 -3.6953,0.48242 -1.4845,0.0681 -2.8424,0.26927 -4.084,0.60742 -1.1301,0.30811 -2.1347,0.77267 -3.084,1.3164 -0.2443,0.14035 -0.4719,0.31032 -0.705,0.4668 -0.3539,0.23705 -0.7375,0.43032 -1.0664,0.70508 -0.331,0.27646 -0.6114,0.636 -0.918,0.95117 -0.1922,0.1979 -0.3931,0.38622 -0.5762,0.59961 -0.1367,0.15918 -0.2977,0.27736 -0.4297,0.44531 -0.5918,0.75302 -1.1337,1.59287 -1.6328,2.52539 -0.7182,1.34211 -0.9924,2.04256 -0.5469,2.20313 0,6.3e-4 0.01,-0.003 0.01,-0.002 0.4427,0.16405 1.6063,-0.21105 3.7793,-1.03125 1.4711,-0.55526 2.8702,-0.91457 4.1817,-1.09375 1.3023,-0.17795 2.5168,-0.17515 3.6308,-0.0176 1.1241,0.16036 2.1447,0.47909 3.0449,0.94531 0.035,0.0181 0.061,0.046 0.096,0.0644 0.7463,0.39848 1.379,0.9272 1.9473,1.51563 0.151,0.15688 0.3039,0.31109 0.4414,0.48047 0.5153,0.63312 0.9445,1.34188 1.2598,2.13672 0.077,0.1944 0.1194,0.41196 0.1836,0.61523 0.2237,0.70647 0.3679,1.46601 0.4316,2.27149 0.018,0.2426 0.062,0.46983 0.065,0.7207 0.015,0.95865 -0.1068,1.98446 -0.3243,3.05078 -0.069,0.33538 -0.1631,0.68069 -0.2558,1.02539 -0.2777,1.03335 -0.6444,2.09855 -1.1485,3.20508 -0.057,0.12534 -0.088,0.24297 -0.1484,0.36914 -1.0433,2.18768 -1.7893,4.5872 -2.2422,7.11133 -0.453,2.52411 -0.6135,5.17307 -0.4844,7.86132 0.2582,5.37655 1.6727,10.90891 4.209,15.90821 2.3626,4.65704 4.3028,8.66178 4.3028,8.89844 0,0.25949 -0.1376,0.44602 -0.4004,0.56835 -0.2619,0.12256 -0.643,0.18029 -1.1192,0.17969 -0.9539,-0.003 -2.2787,-0.23395 -3.7793,-0.64258 -3.012,-0.82019 -6.7159,-2.34577 -9.4629,-4.12695 -2.6644,-1.72764 -5.0223,-3.73455 -7.1074,-5.93164 -1.1589,-1.22048 -2.2056,-2.51567 -3.1816,-3.85156 -0.3472,-0.47556 -0.684,-0.95694 -1.0078,-1.44531 -0.8813,-1.3286 -1.6923,-2.69304 -2.3985,-4.10352 -6.8975,-13.78493 -5.3957,-31.00719 5.7696,-42.76172 2.5014,-2.63331 5.5242,-4.87835 8.4843,-6.58594 0.3055,-0.17597 0.6048,-0.3286 0.9082,-0.49218 1.1307,-0.60984 2.2351,-1.1293 3.2969,-1.55274 0.2955,-0.11746 0.598,-0.24978 0.8848,-0.35156 1.281,-0.45549 2.498,-0.79671 3.5293,-0.91211 z m 190.5508,0 c 1.1225,0.079 2.4264,0.40137 3.8457,0.94531 1.4247,0.54569 2.9638,1.31421 4.5449,2.28125 v 0.002 c 1.58,0.96688 3.2018,2.1325 4.7949,3.47265 0.018,0.0149 0.035,0.0358 0.053,0.0508 1.5765,1.33049 3.1277,2.82486 4.5762,4.47461 0.9784,1.11423 1.863,2.29059 2.6602,3.51563 v 0.002 c 0.2069,0.31805 0.3734,0.65775 0.5683,0.98242 0.4495,0.74809 0.8851,1.50293 1.2715,2.28321 0.2732,0.55199 0.5119,1.11927 0.7539,1.68554 0.2676,0.62573 0.52,1.25718 0.75,1.89844 0.217,0.60547 0.4293,1.21253 0.6133,1.83008 0.1926,0.64604 0.349,1.30357 0.5059,1.96094 0.6249,2.62169 0.9682,5.32042 1.0429,8.04492 0.01,0.27099 0.019,0.54116 0.022,0.8125 0.017,2.14364 -0.105,4.2963 -0.4101,6.42773 0,0.017 -0.01,0.0338 -0.01,0.0508 -0.303,2.09932 -0.7869,4.16991 -1.3886,6.19922 -0.068,0.22939 -0.1275,0.46137 -0.1992,0.68946 -0.6421,2.04087 -1.4214,4.03185 -2.3536,5.93554 -0.055,0.11314 -0.1213,0.21949 -0.1777,0.33203 -0.8969,1.78963 -1.9331,3.49105 -3.0762,5.10352 -0.1729,0.24379 -0.3313,0.4992 -0.5097,0.73828 -0.3847,0.51578 -0.7913,1.01131 -1.2012,1.50391 -0.425,0.51038 -0.8648,1.00471 -1.3164,1.48828 -0.4209,0.45103 -0.8415,0.90202 -1.2852,1.32812 -0.4359,0.41833 -0.9038,0.79865 -1.3613,1.19141 -0.5622,0.48277 -1.1128,0.97998 -1.707,1.42187 -0.5832,0.43326 -1.2089,0.80623 -1.8223,1.19727 -0.4822,0.3083 -0.9405,0.65123 -1.4414,0.93164 -1.2498,0.69957 -2.5572,1.31398 -3.918,1.82813 -2.6623,1.0059 -6.3889,1.83039 -8.291,1.83203 -0.8525,0 -1.4909,-0.004 -1.918,-0.0762 -0.015,-0.003 -0.019,-0.009 -0.033,-0.0117 -0.2548,-0.0474 -0.394,-0.13953 -0.4863,-0.25782 -0.033,-0.0441 -0.057,-0.0936 -0.068,-0.15039 -0.015,-0.0652 0.033,-0.17309 0.049,-0.25781 0.041,-0.21062 0.2127,-0.52217 0.4394,-0.87891 0.3249,-0.5294 0.9044,-1.30536 1.6758,-2.29297 0.1839,-0.23509 0.2604,-0.35007 0.4688,-0.61523 4.6591,-5.92318 8.9409,-20.51975 7.6972,-26.23828 -0.539,-2.47732 -2.2349,-6.99108 -3.7715,-10.03125 -0.5034,-0.99612 -0.8977,-1.97145 -1.1992,-2.91992 -0.029,-0.0912 -0.041,-0.17687 -0.068,-0.26758 -0.2475,-0.82647 -0.4235,-1.63053 -0.5215,-2.40625 -0.023,-0.18508 -0.024,-0.36121 -0.039,-0.54297 -0.054,-0.65957 -0.061,-1.29916 -0.01,-1.91016 0.018,-0.20811 0.047,-0.40946 0.078,-0.61132 0.085,-0.56147 0.2184,-1.0968 0.3965,-1.60547 0.067,-0.19151 0.1345,-0.38305 0.2149,-0.56641 0.2127,-0.4869 0.4809,-0.93631 0.7832,-1.36133 0.1092,-0.15308 0.2035,-0.31648 0.3242,-0.46093 0.3638,-0.43683 0.796,-0.81951 1.2617,-1.17188 0.1128,-0.0851 0.2036,-0.18972 0.3223,-0.26953 1.2517,-0.84472 2.8192,-1.40135 4.6914,-1.58203 0.7791,-0.0752 1.5919,-0.0892 2.3945,-0.0508 0,6e-5 0,-7e-5 0,0 0.7964,0.0395 1.5829,0.13047 2.3145,0.26562 0.7367,0.13612 1.4194,0.31828 2.0019,0.53516 0.5836,0.21727 1.0686,0.47015 1.4082,0.75195 0.4885,0.40548 0.8861,0.70318 1.209,0.89063 0.3207,0.18613 0.5642,0.26278 0.75,0.22851 0,-4.2e-4 0,-0.005 0,-0.006 0.3873,-0.0579 0.5273,-0.57352 0.5274,-1.58984 0,-0.75841 -0.2507,-1.49949 -0.6055,-2.22461 -0.045,-0.092 -0.091,-0.18033 -0.1406,-0.27148 -0.7817,-1.42021 -2.1647,-2.71418 -3.9688,-3.76172 -0.1369,-0.0798 -0.2706,-0.15571 -0.4121,-0.23243 -1.5891,-0.85939 -3.4224,-1.54234 -5.4297,-1.91406 -0.7725,-0.14398 -1.5704,-0.23418 -2.3769,-0.28711 -0.06,-0.004 -0.1173,-0.0181 -0.1778,-0.0215 -0.01,-3.5e-4 -0.01,-0.002 -0.016,-0.002 -1.3666,-0.0754 -2.4709,-0.1809 -3.3691,-0.34374 -8e-4,-1.4e-4 0,1.3e-4 0,0 -0.216,-0.0393 -0.3174,-0.12116 -0.5098,-0.16797 -0.6061,-0.14751 -1.2014,-0.2951 -1.6054,-0.53125 -0.2545,-0.14904 -0.3758,-0.39676 -0.5645,-0.58985 -0.6005,-0.61741 -0.9923,-1.39846 -1.164,-2.60742 -0.2115,-1.48875 0.091,-2.54217 0.7832,-3.19922 0.6915,-0.65599 1.7735,-0.91783 3.1211,-0.82617 z m -129.0039,7.08398 c 2.7399,-0.008 5.3265,0.13283 7.7851,0.4336 0,2.3e-4 0,0.002 0.01,0.002 2.4595,0.30155 4.7928,0.76 7.0273,1.38672 1.2118,0.33974 2.3317,0.85594 3.4902,1.29492 0.9814,0.37195 2.0081,0.65283 2.9571,1.09766 0.565,0.26477 1.0894,0.65038 1.6445,0.9414 1.4797,0.7758 2.9623,1.53733 4.3867,2.50391 l 6.2129,4.21094 0.01,-0.006 0.018,0.0117 8.8632,-5.50977 c 3.5281,-2.19317 6.1926,-3.53983 9.1211,-4.4375 0.3542,-0.10842 0.7297,-0.19611 1.0938,-0.29101 1.1364,-0.29795 2.3426,-0.53752 3.6562,-0.72657 0.4195,-0.0604 0.8217,-0.12989 1.2676,-0.18164 1.7523,-0.20435 3.6482,-0.36149 5.961,-0.47461 0.8752,-0.0428 1.421,-0.0231 2.1953,-0.0508 1.6501,-0.0591 3.3319,-0.13197 4.6367,-0.10156 0.9931,0.0236 1.7752,0.17238 2.6367,0.26367 0.7412,0.0781 1.5791,0.089 2.2637,0.22656 1.5111,0.30435 2.945,0.76387 4.5215,1.41797 1.5801,0.65541 3.3019,1.50638 5.3867,2.60157 6.8211,3.58129 10.8305,7.20519 14.4531,13.06445 0.5298,0.85692 0.907,1.72774 1.3672,2.5918 0.5632,1.05716 1.1735,2.11012 1.6328,3.17578 0.4378,1.01624 0.7345,2.04069 1.0781,3.0625 0.3287,0.9767 0.6809,1.95173 0.9239,2.93164 0.2607,1.05232 0.4159,2.10633 0.5781,3.16015 0.1467,0.9528 0.287,1.90517 0.3535,2.85743 0.074,1.06416 0.08,2.12624 0.055,3.1875 -0.023,0.93828 -0.085,1.8743 -0.1856,2.80859 -0.114,1.06041 -0.2588,2.11885 -0.4726,3.17187 -0.1889,0.93005 -0.4484,1.85285 -0.7149,2.7754 -0.3008,1.04162 -0.5947,2.08343 -0.9941,3.11328 -0.3547,0.9145 -0.814,1.81332 -1.2461,2.71679 -0.4863,1.01669 -0.9297,2.04052 -1.5137,3.04102 -0.5474,0.93776 -1.2342,1.84799 -1.8672,2.76953 -0.602,0.87669 -1.1295,1.7686 -1.8085,2.62891 v 0.002 c -1.534,1.94317 -3.2644,3.84371 -5.1895,5.68945 l -8.5,8.15039 4.0293,5.65625 c 3.0291,4.25391 4.0318,7.98595 4.0508,15.06055 l 0.022,9.4043 -9.4668,4.76172 c -2.6045,1.3102 -5.8565,2.68922 -8.9981,3.85937 -3.1402,1.16949 -6.1701,2.12826 -8.332,2.59375 -0.01,0.001 -0.015,0.003 -0.022,0.004 -0.01,0.002 -0.019,0.004 -0.027,0.006 -3.0511,0.6543 -6.8896,1.19885 -11.1368,1.62304 -0.012,0.001 -0.021,0.003 -0.033,0.004 -8.573,0.85445 -18.7916,1.21326 -27.5,0.96484 0,-6e-5 3e-4,7e-5 -0.01,0 -4.3357,-0.12387 -8.2904,-0.40131 -11.4864,-0.83984 0,-2.2e-4 0,2.2e-4 -0.01,0 -3.448,-0.4754 -7.2703,-1.37978 -11.1211,-2.5332 -2.1313,-0.63765 -4.2568,-1.37137 -6.3477,-2.14844 -0.7582,-0.28214 -1.5077,-0.56917 -2.25,-0.86524 -1.9402,-0.77368 -3.8193,-1.58181 -5.582,-2.42187 -0.5279,-0.25173 -1.033,-0.50061 -1.5391,-0.75586 -1.6724,-0.84338 -3.1813,-1.69919 -4.5527,-2.55469 -0.8257,-0.5154 -1.6477,-1.03103 -2.3359,-1.53906 -0.1049,-0.0774 -0.219,-0.15532 -0.3203,-0.23242 -0.9659,-0.73479 -1.7918,-1.45877 -2.4063,-2.15235 -3.0304,-3.42037 -3.1447,-4.53361 -1.2168,-11.74218 1.1719,-4.38098 3.5378,-9.8988 5.2578,-12.25977 l 3.127,-4.29297 -7,-5.33789 c -9.0198,-6.87964 -16.6133,-21.20661 -16.6133,-31.3457 0,-0.37999 0.049,-0.75102 0.061,-1.12891 0.042,-1.31927 0.1549,-2.62335 0.3379,-3.91211 0.095,-0.66678 0.1896,-1.33319 0.3203,-1.99023 0.3,-1.50499 0.68,-2.98711 1.1602,-4.43164 0.2048,-0.61669 0.4554,-1.21437 0.6914,-1.81836 0.4227,-1.08056 0.8923,-2.13843 1.4102,-3.17383 0.2785,-0.55749 0.5349,-1.1268 0.8398,-1.66992 0.7378,-1.31277 1.5707,-2.56736 2.4531,-3.78711 0.38,-0.5258 0.7726,-1.04198 1.1778,-1.54883 0.9757,-1.21902 1.9962,-2.40277 3.1074,-3.50195 0.3589,-0.3554 0.7529,-0.67371 1.125,-1.01563 0.9484,-0.87043 1.9365,-1.69531 2.9648,-2.47265 0.4422,-0.33471 0.8742,-0.68161 1.3301,-0.99805 1.3204,-0.91495 2.6999,-1.74455 4.125,-2.49609 0.4762,-0.25156 0.9645,-0.48073 1.4512,-0.71289 1.424,-0.67775 2.8802,-1.2946 4.3847,-1.79688 3.7416,-1.25262 7.7016,-1.95919 11.7872,-1.97266 z m 66.9667,20.51172 c -0.1112,-1.9e-4 -0.2224,0.0195 -0.3339,0.0215 -0.012,1.1e-4 -0.023,0.004 -0.035,0.004 -1.4502,0.0167 -2.8931,0.19513 -4.3144,0.48633 -0.017,0.004 -0.035,0.002 -0.053,0.006 -0.3688,0.0762 -0.7453,0.11683 -1.1094,0.21094 -0.066,0.0171 -0.1253,0.0526 -0.1914,0.0703 -1.1729,0.31523 -2.301,0.74906 -3.3984,1.24609 -0.346,0.15651 -0.6795,0.31811 -1.0156,0.49219 -1.0635,0.55111 -2.0879,1.16263 -3.0274,1.88477 -0.1232,0.0947 -0.2405,0.19152 -0.3613,0.28906 -0.9092,0.73474 -1.7193,1.57154 -2.4668,2.46484 -0.2419,0.28887 -0.4689,0.58177 -0.6914,0.88672 -0.6928,0.9496 -1.3124,1.95399 -1.793,3.05469 -0.035,0.0793 -0.095,0.14062 -0.1289,0.2207 -1.3455,3.22001 -2.4472,6.76966 -2.4472,7.88672 0,0.27585 0.1113,0.37382 0.3066,0.32422 0,-3.1e-4 0,-0.004 0.01,-0.004 0.2479,-0.0567 0.6999,-0.50768 1.1953,-1.03124 0.5195,-0.55315 1.1377,-1.35419 1.8261,-2.31836 0.2283,-0.31761 0.3756,-0.42698 0.6153,-0.78321 0.9234,-1.37226 1.9595,-2.55617 3.0527,-3.62304 0.2353,-0.22908 0.4826,-0.43158 0.7246,-0.64649 0.8986,-0.79942 1.8424,-1.49985 2.8223,-2.10351 0.2808,-0.17248 0.5553,-0.3612 0.8418,-0.51758 2.5857,-1.41545 5.3801,-2.21192 8.2402,-2.3086 1.487,-0.0492 2.9884,0.0791 4.4805,0.38868 0.01,10e-4 0.01,8.7e-4 0.016,0.002 1.4951,0.31164 2.9808,0.80314 4.4336,1.47656 2.9119,1.34925 5.6917,3.42425 8.1484,6.23633 l 4.8477,5.55469 v -0.0215 l 0.033,0.0391 -1.0547,-5.16211 c -0.5796,-2.83999 -3.3606,-7.29512 -6.1816,-9.89844 -2.6603,-2.45472 -5.971,-3.92577 -9.461,-4.51953 -1.1507,-0.19733 -2.3185,-0.29745 -3.4922,-0.30664 -0.01,-7e-5 -0.015,-0.002 -0.023,-0.002 z m -64.8789,0.22461 c -1.0558,-0.0599 -2.1248,-0.0443 -3.1953,0.0469 -1.4249,0.12151 -2.8544,0.3833 -4.2636,0.78515 -1.4123,0.40345 -2.8038,0.95007 -4.1543,1.64844 -5.2504,2.71516 -10.2846,10.4518 -10.2676,15.80469 0,0.46754 0.062,0.76753 0.1797,0.92383 0,0.004 0.01,-10e-4 0.012,0.002 0.3858,0.63478 1.4395,-0.477 3.2969,-3.52344 0.1108,-0.18179 0.266,-0.34295 0.3847,-0.52148 0.496,-0.74541 1.04,-1.46878 1.6582,-2.15039 0.3153,-0.34763 0.6693,-0.66722 1.0118,-0.9961 0.5103,-0.48961 1.0374,-0.96426 1.5996,-1.4082 0.3951,-0.31213 0.8004,-0.61286 1.2168,-0.90039 0.6008,-0.41428 1.2233,-0.79353 1.8593,-1.15234 0.4066,-0.22959 0.8053,-0.47251 1.2227,-0.67774 0.9346,-0.45861 1.8894,-0.85388 2.8555,-1.17969 0.1608,-0.0543 0.3173,-0.12339 0.4785,-0.17382 1.2462,-0.38892 2.496,-0.61518 3.7265,-0.75196 0.5037,-0.0563 1.0069,-0.11074 1.5,-0.12109 0.2395,-0.005 0.4807,-0.0163 0.7168,-0.01 0.8284,0.0219 1.6405,0.095 2.4141,0.26172 0.01,0.002 0.016,0.002 0.023,0.004 0,9.4e-4 0.01,-9.5e-4 0.014,0 0.6704,0.14748 1.481,0.48079 2.3731,0.95117 1.2156,0.64096 2.5954,1.5992 3.9609,2.65234 0.2706,0.20893 0.5372,0.42252 0.8066,0.64258 1.364,1.11577 2.7198,2.33344 3.8672,3.60352 1.5022,1.66265 2.6132,2.76411 3.5391,3.58984 0.557,0.49847 1.0798,0.94044 1.4355,1.13477 0.025,0.0133 0.076,0.0683 0.1,0.0801 0.01,0.003 0.01,-0.001 0.014,0.002 0.2997,0.14827 0.5132,0.16524 0.6582,0.0723 0.6037,-0.38704 -0.1132,-2.86295 -2.0605,-7.52343 -2.4315,-5.81935 -7.9407,-9.64738 -14.2383,-10.79102 -6e-4,-1.1e-4 0,1.2e-4 0,0 -0.8971,-0.16338 -1.8079,-0.27177 -2.7304,-0.32422 h -0.01 z m 64.9727,8.47461 c -1.8226,3.2e-4 -3.5175,0.22675 -5.0703,0.64063 -0.037,0.01 -0.065,0.0309 -0.1016,0.041 -1.1788,0.323 -2.2518,0.77695 -3.2558,1.30078 -0.1175,0.0612 -0.2659,0.0886 -0.3809,0.15235 -0.069,0.0381 -0.1157,0.0957 -0.1836,0.13476 -0.9357,0.53784 -1.7707,1.16513 -2.5273,1.85352 -0.089,0.0812 -0.2121,0.13567 -0.2989,0.21875 -0.089,0.0857 -0.1398,0.19558 -0.2265,0.2832 -0.7075,0.71528 -1.3334,1.48128 -1.8477,2.3086 -0.039,0.0629 -0.1026,0.11232 -0.1406,0.17578 v 0.002 c -0.068,0.11301 -0.088,0.24466 -0.1523,0.35937 -0.4741,0.85098 -0.87,1.73611 -1.1329,2.66407 -0.03,0.10582 -0.057,0.20979 -0.084,0.3164 -0.2365,0.92821 -0.3361,1.88796 -0.3497,2.85938 0,0.1393 -0.053,0.27031 -0.051,0.41015 0,0.0743 0.02,0.14955 0.037,0.22461 0.043,1.129 0.2641,2.26821 0.6269,3.4043 0.029,0.0961 0.056,0.19111 0.088,0.28711 0.3371,0.97914 0.7821,1.94814 1.3731,2.89844 0.045,0.0725 0.059,0.14849 0.1054,0.2207 0.076,0.11825 0.2087,0.2243 0.2891,0.3418 0.674,0.98607 1.4556,1.95175 2.4258,2.86719 0.029,0.0274 0.043,0.0587 0.072,0.0859 0.028,0.0259 0.062,0.0389 0.09,0.0645 0.7021,0.64395 1.4644,1.16704 2.2539,1.6289 0.108,0.0631 0.1992,0.16288 0.3086,0.22266 0.1208,0.066 0.2565,0.0903 0.3789,0.15234 0.8091,0.411 1.6396,0.76392 2.5039,1.00586 0.023,0.006 0.043,0.0211 0.066,0.0274 0,0.001 0.01,7.4e-4 0.014,0.002 0.6766,0.18505 1.3661,0.31895 2.0625,0.40625 8.3992,1.05291 17.8045,-4.83446 17.8047,-13.55664 0,-0.36139 -0.1205,-0.74433 -0.1778,-1.11719 -0.04,-0.2263 -0.039,-0.44549 -0.094,-0.67383 -0.02,-0.0854 -0.012,-0.16626 -0.035,-0.25195 -0.01,-0.0258 -0.022,-0.0523 -0.029,-0.0781 -0.1131,-0.4089 -0.3009,-0.81769 -0.4707,-1.23046 -0.1084,-0.26364 -0.1712,-0.52566 -0.3008,-0.78907 v -0.002 c -0.038,-0.0776 -0.097,-0.15298 -0.1367,-0.23047 -0.2084,-0.40453 -0.4575,-0.79624 -0.7109,-1.19531 -0.1378,-0.21732 -0.2405,-0.43955 -0.3906,-0.6543 -0.086,-0.12316 -0.1972,-0.23731 -0.2871,-0.35937 -0.2858,-0.38803 -0.5896,-0.75732 -0.9102,-1.13086 -0.1395,-0.16263 -0.2532,-0.3369 -0.3984,-0.4961 0,-0.005 -0.013,-0.009 -0.018,-0.0137 -0.133,-0.14537 -0.2883,-0.27181 -0.4258,-0.41406 -0.3553,-0.36722 -0.7117,-0.71815 -1.0937,-1.06055 -0.3273,-0.29434 -0.6646,-0.56345 -1.0079,-0.83594 -0.3734,-0.29552 -0.7371,-0.58792 -1.125,-0.85351 -0.089,-0.061 -0.1702,-0.13794 -0.2597,-0.19727 v -0.002 c -0.3358,-0.22247 -0.6847,-0.38729 -1.0274,-0.58398 -0.3338,-0.19117 -0.6584,-0.40228 -0.9961,-0.56641 -0.05,-0.0244 -0.098,-0.0602 -0.1484,-0.084 -0.6338,-0.30093 -1.2698,-0.52475 -1.9023,-0.7168 -0.1,-0.0301 -0.1996,-0.0862 -0.2989,-0.11328 -0.8304,-0.22798 -1.6487,-0.3502 -2.4375,-0.35156 0,-1e-5 -0.01,-0.002 -0.014,-0.002 z m -68.7266,0.45703 c -1.3139,0.10916 -2.5661,0.39066 -3.7382,0.81641 -1.0265,0.37312 -1.9906,0.85783 -2.879,1.4375 -0.081,0.0527 -0.1412,0.1274 -0.2207,0.18164 -0.2439,0.16655 -0.4402,0.3779 -0.6718,0.55859 -0.667,0.52001 -1.2981,1.06589 -1.8535,1.69141 -0.2508,0.28231 -0.4538,0.58941 -0.6797,0.89062 -0.2918,0.38862 -0.635,0.7413 -0.8828,1.15821 -0.1375,0.23123 -0.2049,0.4972 -0.3282,0.73633 -0.182,0.35291 -0.3306,0.71154 -0.4804,1.08007 -0.2771,0.68047 -0.4904,1.37507 -0.6504,2.09961 -0.089,0.40062 -0.1702,0.79383 -0.2207,1.20508 -0.034,0.27786 -0.1322,0.53837 -0.1485,0.82031 -0.028,0.48524 0.074,0.98955 0.1016,1.48438 0.022,0.40436 0.021,0.7982 0.082,1.20703 0.1291,0.86785 0.3943,1.73756 0.7071,2.61328 0.1172,0.32832 0.176,0.65265 0.3203,0.98047 0.045,0.10151 0.052,0.20328 0.1,0.30469 0.5165,1.10706 1.1924,2.20688 2.039,3.2832 0.726,0.92293 1.401,1.66779 2.1036,2.26563 0.7021,0.59727 1.4312,1.04886 2.2656,1.38476 0,0.001 0.01,6.2e-4 0.012,0.002 0.8313,0.33262 1.7644,0.55565 2.8809,0.69141 0,4e-4 0.01,-4e-4 0.012,0 1.1245,0.13735 2.4319,0.19141 4.0019,0.19141 3.8885,0 7.0927,-0.94697 9.6231,-2.44336 0.1548,-0.0917 0.3115,-0.17746 0.4609,-0.27344 1.0373,-0.665 1.9513,-1.41867 2.7227,-2.26172 0.023,-0.0254 0.059,-0.0428 0.082,-0.0684 0.046,-0.0508 0.065,-0.11464 0.1094,-0.16601 0.7692,-0.88203 1.413,-1.828 1.8867,-2.83985 0,-0.005 0.01,-0.009 0.01,-0.0137 8e-4,-0.002 0,-0.004 0,-0.006 0.4713,-1.01165 0.7623,-2.07417 0.9258,-3.16015 0.02,-0.13512 0.039,-0.26656 0.055,-0.40235 0.1241,-1.08677 0.1169,-2.18569 -0.078,-3.28515 0,-0.007 0,-0.013 0,-0.0195 0,-0.0158 -0.013,-0.031 -0.016,-0.0469 -0.1991,-1.08593 -0.5785,-2.15648 -1.1015,-3.20117 -0.035,-0.0695 -0.038,-0.14369 -0.074,-0.21289 -0.018,-0.0343 -0.054,-0.0635 -0.072,-0.0977 -0.5449,-1.01761 -1.26,-1.99082 -2.1289,-2.91406 -0.059,-0.0632 -0.086,-0.1366 -0.1465,-0.19922 v -0.002 c -0.079,-0.081 -0.2038,-0.14261 -0.2852,-0.22266 -1.5546,-1.52669 -3.5237,-2.89468 -6.0507,-3.94141 -1.3571,-0.56215 -2.6961,-0.93765 -3.9981,-1.14843 -7e-4,-1.1e-4 0,10e-5 0,0 0,-3.2e-4 0,-0.002 -0.01,-0.002 -1.195,-0.19347 -2.3485,-0.21313 -3.4707,-0.14258 -0.101,0.006 -0.2121,-0.022 -0.3125,-0.0137 z m 74.709,3.19336 c 0.2894,-0.0228 0.5674,4e-4 0.836,0.082 1.1,0.33048 2.1025,1.54973 3.5976,3.83204 1.7173,2.62035 2.29,5.75538 1.5742,8.60742 -0.6724,2.68016 -1.7212,4.16989 -2.6015,4.35742 -0.2142,0.0414 -0.4177,0.0119 -0.6035,-0.10352 -0.02,-0.0122 -0.034,-0.0485 -0.053,-0.0625 -0.2215,-0.15489 -0.3999,-0.47305 -0.5527,-0.86328 -0.057,-0.14926 -0.1062,-0.31472 -0.1504,-0.49804 -0.1037,-0.42037 -0.1642,-0.94527 -0.1875,-1.55079 0,-0.14123 -0.029,-0.23932 -0.029,-0.39062 0,-1.97818 -1.7438,-5.06238 -3.873,-6.85156 -0.093,-0.0781 -0.1268,-0.1204 -0.2149,-0.19532 -0.9211,-0.78427 -1.5194,-1.38032 -1.9199,-1.89257 -0.2083,-0.26209 -0.4013,-0.51883 -0.4824,-0.73829 -0.028,-0.0752 -0.071,-0.15491 -0.084,-0.22656 -0.1292,-0.67494 0.3449,-1.21597 1.4101,-1.92969 1.4163,-0.94941 2.4444,-1.49958 3.334,-1.57617 z m -67.6679,1.81641 c 0,-2.9e-4 0.01,2.9e-4 0.01,0 v 0.002 c 0.5619,-0.0734 1.2014,-0.0772 1.916,0 0.9888,0.11442 1.7849,0.26236 2.4277,0.4961 0.079,0.0286 0.123,0.082 0.1973,0.11328 0.4655,0.19314 0.841,0.44943 1.1543,0.77148 0.1501,0.15549 0.271,0.35171 0.3926,0.54492 0.1797,0.28032 0.3337,0.61404 0.4628,0.98828 0.101,0.2961 0.2081,0.57618 0.2852,0.93946 0.071,0.32682 0.1215,0.75821 0.1777,1.14648 0.062,0.44019 0.1334,0.82958 0.1836,1.35547 0.3054,3.19697 -0.2756,6.64252 -1.291,7.6582 -0.4193,0.4195 -0.7667,0.61917 -1.0488,0.6211 -0.2532,-0.0106 -0.439,-0.22879 -0.5781,-0.58789 -0.068,-0.16167 -0.083,-0.48007 -0.125,-0.71875 -0.1579,-0.96265 -0.1712,-2.37218 0.057,-4.52344 0.071,-0.66318 -1.4778,-1.79905 -3.4414,-2.52539 -0.8053,-0.2979 -1.4246,-0.66896 -1.9609,-1.0625 -0.3085,-0.22554 -0.6018,-0.45576 -0.8243,-0.69922 -0.1576,-0.17348 -0.2659,-0.35104 -0.3808,-0.5293 -0.1214,-0.18802 -0.2322,-0.37519 -0.3067,-0.56445 -0.073,-0.18635 -0.126,-0.37119 -0.1543,-0.55469 -0.028,-0.18122 -0.021,-0.35671 -0.01,-0.53125 0.015,-0.17395 0.021,-0.35018 0.078,-0.51367 0.073,-0.20675 0.2068,-0.39124 0.3457,-0.57422 0.4653,-0.61695 1.2558,-1.09567 2.4317,-1.25195 z m 40.9335,32.72461 c -0.6902,0.13039 -2.382,1.40686 -5.8671,3.97851 -3.2064,2.36558 -6.394,4.29904 -7.086,4.30078 -0.347,-0.003 -1.2517,-0.49869 -2.4355,-1.30468 -10e-4,-6.7e-4 0,-10e-4 0,-0.002 -1.1854,-0.80723 -2.6484,-1.92227 -4.1035,-3.14648 0,-10e-4 0,-8.3e-4 0,-0.002 -0.016,-0.0133 -0.027,-0.0199 -0.043,-0.0332 -1.0721,-0.90012 -2.0738,-1.67826 -2.9063,-2.26172 -0.1781,-0.12485 -0.2442,-0.13117 -0.4062,-0.23828 -0.5974,-0.39598 -1.1424,-0.74334 -1.4668,-0.86523 -0.011,-0.004 -0.04,-0.0274 -0.051,-0.0312 -0.2644,-0.0925 -0.4095,-0.0724 -0.4121,0.0742 -10e-5,0.003 -0.01,-9.1e-4 -0.01,0.002 0,2.83998 5.5405,11.32456 8.959,13.71875 0.074,0.052 0.1138,0.0617 0.1855,0.11133 0.5343,0.36988 1.0205,0.69726 1.4453,0.92578 0.085,0.0456 0.1526,0.0481 0.2344,0.0879 2.1055,1.03625 3.3549,0.18863 7.4629,-3.79297 3.0302,-2.93775 5.8938,-6.80593 6.3613,-8.59375 0.032,-0.12302 0.034,-0.15978 0.064,-0.27539 0.1853,-0.70483 0.3244,-1.27603 0.4004,-1.69922 0.1099,-0.63804 0.082,-1.02474 -0.3067,-0.95312 v 0 z m -68.2011,46.65429 c 0.7028,-0.0219 1.7506,0.24287 3.166,0.77735 1.4205,0.53642 3.205,1.34228 5.3691,2.39453 1.699,0.8261 3.3743,1.58442 5.0469,2.2793 v 0.002 c 1.6724,0.69471 3.3418,1.32505 5.0293,1.89648 1.1829,0.40056 2.3939,0.73679 3.6016,1.08008 0.516,0.14668 1.0166,0.32436 1.539,0.46094 1.7444,0.45603 3.5266,0.85652 5.3692,1.20508 1.841,0.34805 3.7399,0.64599 5.7207,0.89453 3e-4,1e-5 -6e-4,-2e-4 0.01,0 0.01,8.6e-4 0.015,0.001 0.022,0.002 1.9748,0.24727 4.0289,0.44924 6.1836,0.60547 0,3.4e-4 0.01,-3.4e-4 0.014,0 4.3343,0.31484 9.0738,0.45373 14.3867,0.44727 21.3376,-0.0258 34.9434,-2.35337 47.5801,-8.13867 4.0233,-1.84192 6.6445,-2.79979 7.9785,-2.6875 0.025,0.002 0.036,0.0163 0.061,0.0195 0.3424,0.0407 0.5555,0.19147 0.7168,0.38867 0.056,0.0725 0.1172,0.141 0.1504,0.23437 0.046,0.11958 0.013,0.31292 0.02,0.46875 0.01,0.26999 0.029,0.53063 -0.074,0.91016 -0.026,0.0973 -0.093,0.23696 -0.1269,0.3418 -0.1624,0.5015 -0.3694,1.04801 -0.6973,1.72265 -0.1295,0.26841 -0.4575,0.76354 -0.6133,1.06055 -0.7878,1.49487 -1.7172,3.13831 -3.1406,5.38281 -5.7395,9.05018 -18.0268,17.74391 -30.1679,21.34961 -2.6709,0.7931 -6.0093,1.3831 -9.6797,1.77149 -0.01,5e-4 -0.01,-5.9e-4 -0.016,0 -0.047,0.005 -0.1016,0.003 -0.1484,0.008 -3.5785,0.37251 -7.4632,0.55504 -11.3516,0.54687 -0.035,-7e-5 -0.068,0.003 -0.1015,0.006 -0.01,6.5e-4 -0.018,-3.6e-4 -0.027,0 -7.9963,-0.0282 -15.9757,-0.85955 -21.2519,-2.48437 -11.429,-3.51882 -23.8404,-12.58279 -30.3164,-22.14063 -5.0132,-7.39803 -6.5865,-10.72044 -4.25,-10.80469 z m -18.5117,39.96094 -1.8868,5.14649 v 0.002 c -0.1434,0.39117 -0.3705,1.37963 -0.5371,1.92773 -0.02,0.0669 -0.05,0.21251 -0.07,0.28125 -0.7049,2.36575 -1.5015,5.59043 -2.373,9.5254 -0.1256,0.56248 -0.2248,1.00253 -0.3496,1.57812 -0.8336,3.85913 -1.5749,7.56898 -2.1954,11.07812 -0.038,0.21524 -0.098,0.47185 -0.1347,0.6836 -0.1001,0.57584 -0.2555,1.30588 -0.3438,1.84375 v 0.002 c -0.4735,2.88416 -0.7675,5.16946 -0.7675,6.29297 v 0.002 c 6e-4,0.46589 0.1534,0.72319 0.457,0.77344 9e-4,1.4e-4 0,-0.002 0,-0.002 0.9129,0.15854 3.2168,-1.58537 6.9726,-5.27149 0.068,-0.0667 0.1592,-0.13442 0.2286,-0.20117 1.1833,-1.13453 2.593,-2.26753 4.1113,-3.38476 0.3908,-0.28797 0.7782,-0.57549 1.1855,-0.85938 0.7992,-0.55192 1.6466,-1.04798 2.4961,-1.57617 1.5645,-0.98486 3.1714,-1.9179 4.8184,-2.7832 0.9815,-0.51573 1.8941,-0.97429 2.8789,-1.4336 1.3884,-0.6451 2.6826,-1.16085 4.0078,-1.66015 1.1615,-0.44034 2.3248,-0.93301 3.3887,-1.23829 0.014,-0.004 0.027,-0.006 0.041,-0.01 0,-4e-4 0,-0.002 0,-0.002 1.953,-0.55552 3.7518,-0.91842 5.1504,-0.90039 3.529,0.0457 -0.3658,3.26047 -5.9766,5.96875 -0.2284,0.12594 -0.4572,0.24983 -0.6855,0.375 -2.0051,0.92296 -4.1979,1.76331 -6.3477,2.36523 -4.1346,1.15756 -10.7052,5.11959 -15.2929,9.18359 -0.052,0.0454 -0.119,0.0834 -0.17,0.12891 -0.023,0.0207 -0.053,0.0398 -0.076,0.0606 -3.9174,3.52207 -6.0879,5.35992 -9.25,6.53515 -3.1602,1.17558 -7.3109,1.68809 -15.1895,2.55274 -8.9753,0.98514 -17.868,2.38974 -19.7637,3.125 -1.3972,0.5426 -2.084,0.74039 -2.3476,0.58789 -0.3527,-0.21116 0.179,-1.14595 1.7265,-3.46875 1.462,-2.1941 2.7528,-3.19521 5.5938,-3.70313 1.9561,-0.35138 4.7758,-0.47681 9.1113,-0.49414 0.3815,-10e-4 0.5747,-0.0155 0.9805,-0.0156 0.034,-9.9e-4 0.067,-0.002 0.1152,-0.002 h 12.9981 0.014 l 1.0918,-5.82226 c 1.7037,-9.09328 9.2277,-28.1512 12.9903,-32.9043 z m 148.6386,1.33203 c 0.1099,-0.10988 0.2632,-0.0745 0.4453,0.0586 0.2263,0.16004 0.5474,0.65786 0.8692,1.15234 0.2896,0.44782 0.6105,1.01096 0.9609,1.68555 0.1632,0.3134 0.3279,0.63154 0.502,0.98828 0.8914,1.83215 1.9537,4.46909 3.0097,7.11328 0.4231,1.05923 0.813,1.90212 1.2403,3.0332 1.1664,3.09294 2.2637,6.34206 3.2812,9.49805 0.2533,0.78581 0.5669,1.604 0.8008,2.36719 1.1777,3.84254 2.0971,7.34616 2.4785,9.81054 0.1062,0.6861 0.1807,0.91947 0.2813,1.56055 0.5514,3.51953 1.0548,6.59852 1.5449,8.57227 0.1131,0.45053 0.2414,0.81267 0.3574,1.16992 0.2082,0.64468 0.4187,1.2822 0.6465,1.60742 0.035,0.0498 0.069,0.1321 0.1055,0.17383 0.1258,0.14808 0.2592,0.21811 0.3945,0.26562 0.037,0.0125 0.071,0.0637 0.1094,0.0684 5e-4,7e-5 0,-6e-5 0,0 0.1266,0.015 0.2657,-0.0793 0.4024,-0.15234 0.068,-0.036 0.1301,-0.0157 0.2011,-0.0742 0,-8.4e-4 0,-10e-4 0,-0.002 0.018,-0.0147 0.05,-0.0187 0.068,-0.0332 0.6012,-0.48103 1.4127,-0.86433 2.2695,-1.08399 0.8803,-0.22525 1.7931,-0.2879 2.5254,-0.13086 0.8477,0.18176 0.7181,1.46901 -0.2676,3.24414 -0.089,0.16172 -0.2156,0.34171 -0.3203,0.51172 -0.457,0.73815 -1.071,1.54959 -1.8105,2.40039 -0.1902,0.21889 -0.3634,0.4327 -0.5723,0.65625 -0.9993,1.06767 -2.1661,2.17489 -3.5879,3.27149 l -9.2109,7.10742 -0.014,-0.10938 v 0.004 l -0.1992,-4.87891 c 4e-4,-3.1e-4 0,3.2e-4 0,0 l -0.7286,-18.03711 -0.1015,-2.48047 c -0.2086,-4.05029 -0.6643,-8.29054 -1.0977,-12.42968 -0.1561,-1.49098 -0.2204,-3.06441 -0.3945,-4.47657 -0.3282,-2.66331 -0.683,-5.14354 -1.0449,-7.28125 -0.3626,-2.14108 -0.7313,-3.9388 -1.0879,-5.23046 -1.4243,-5.15782 -2.3508,-9.61406 -2.0606,-9.91407 3e-4,-2.7e-4 10e-5,-0.004 0,-0.006 z m -100.6465,29.46094 c -0.036,0.0354 -0.1233,0.16911 -0.1562,0.19922 -1.138,1.0402 -3.9781,2.85748 -5.8164,3.98047 -2.5102,1.5334 -3.3401,1.95486 -4.1875,2.32226 -3.8275,1.7823 -7.7083,3.74997 -10.6797,6.81836 -1.5126,1.5003 -2.785,3.58057 -2.3672,5.79297 0.7418,2.9522 3.0147,5.21285 5.2969,7.08985 5.2098,4.18809 11.2704,7.15735 17.3984,9.74804 2.9194,1.3049 5.9781,2.27909 8.8848,3.60938 3.0732,1.4521 6.0648,3.8529 6.8789,7.30859 0.7714,2.8291 -0.4942,5.86003 -2.6543,7.72852 -1.8007,1.6557 -4.1544,2.48044 -6.4863,3.05664 1.0696,0.4864 2.134,0.99311 3.1269,1.625 2.368,1.3912 3.943,3.90007 4.3496,6.60156 -2.2285,-0.38456 -3.9882,-1.00946 -4.7636,-1.94336 -0.6348,-0.76498 -2.5288,-1.79079 -4.8496,-2.81641 -1.8417,-0.81839 -3.8824,-1.61807 -6.0547,-2.25585 -0.01,-0.003 -0.019,-0.007 -0.029,-0.01 -0.013,-0.004 -0.023,-0.01 -0.035,-0.0137 -1.974,-0.57592 -4.4088,-1.54922 -6.9062,-2.66406 -0.7383,-0.32979 -1.467,-0.71848 -2.2129,-1.07422 -1.7249,-0.82328 -3.4413,-1.66498 -5.0528,-2.54102 -0.8187,-0.44582 -1.501,-0.86289 -2.248,-1.29883 -1.3302,-0.77721 -2.5365,-1.51992 -3.5117,-2.19531 -1.0683,-0.74242 -2.1249,-1.4848 -2.5547,-1.98828 -0.3418,-0.39995 -0.4691,-0.71448 -0.2871,-0.89649 0.093,-0.0817 0.4076,-0.0451 0.9179,0.10157 0.6235,0.17856 1.678,0.60746 2.7657,1.0625 1.5249,0.63913 3.3387,1.46563 5.3476,2.47461 0.1102,0.0553 0.1958,0.0884 0.3067,0.14453 2.4316,1.2322 5.3431,2.33766 8.1074,3.13476 0,0.001 0.01,8e-4 0.012,0.002 1.3767,0.3966 2.7176,0.72025 3.9434,0.9414 0,6.7e-4 0.01,0.001 0.01,0.002 1.2267,0.22082 2.3419,0.34179 3.2617,0.34179 0,1e-5 0.01,0.002 0.012,0.002 4.9172,0 8.3945,-1.1769 10.2304,-2.84766 0.4728,-0.43026 0.8033,-0.89898 1.0489,-1.38477 0.077,-0.15241 0.1548,-0.29865 0.2089,-0.45507 0.1812,-0.5217 0.2515,-1.05794 0.17,-1.60743 -0.02,-0.13263 -0.082,-0.26317 -0.1172,-0.39648 -0.1289,-0.48751 -0.3656,-0.97368 -0.709,-1.45898 -0.091,-0.12827 -0.1535,-0.25355 -0.2598,-0.38086 -0.4664,-0.56056 -1.1026,-1.10575 -1.873,-1.63086 -0.1849,-0.12585 -0.389,-0.24439 -0.5918,-0.36719 -0.8674,-0.5265 -1.8473,-1.03043 -3.0508,-1.48242 -0.025,-0.009 -0.038,-0.022 -0.062,-0.0312 -4.0352,-1.49808 -7.5718,-3.0191 -10.8516,-4.54688 -2.131,-0.99267 -4.2171,-1.98575 -6.0273,-2.98633 -0.079,-0.0436 -0.1542,-0.0873 -0.2324,-0.13086 -1.9852,-1.10617 -3.7076,-2.21729 -5.2988,-3.32812 -0.431,-0.30095 -0.8481,-0.60128 -1.25,-0.90234 -1.4658,-1.09754 -2.8,-2.19517 -3.879,-3.29102 -8.4533,-8.59213 -4.9971,-17.06431 10.8829,-24.26367 2.8511,-1.29261 7.2769,-2.26431 11.8964,-2.89844 z m -29.9648,61.12695 4.6133,2.7754 2.7793,1.67187 v 0 c 1.194,0.71848 2.4847,1.39931 3.8379,2.03516 0.2198,0.10329 0.4607,0.18621 0.6836,0.28711 1.1531,0.5218 2.3256,1.02992 3.5391,1.48242 1.4454,0.53905 2.9203,1.02566 4.3886,1.45312 0.712,0.20726 1.406,0.35275 2.1114,0.53125 0.7493,0.18989 1.5093,0.41132 2.2422,0.56641 0,7.2e-4 0.01,10e-4 0.01,0.002 0.1595,0.0337 0.3026,0.0461 0.461,0.0781 1.2512,0.25356 2.4834,0.477 3.6425,0.61914 0,5.9e-4 0.01,-6e-4 0.014,0 0.5486,0.0671 1.019,0.0661 1.5391,0.10547 3.2059,0.25136 5.8899,0.0458 7.3301,-0.85352 1.338,-0.83559 3.7056,-1.41856 5.9648,-1.7168 -0.586,1.72763 -1.6082,3.3112 -3.0293,4.46485 -1.9785,1.7216 -4.6713,2.12217 -7.1992,2.23047 1.6436,1.59969 2.7008,3.95578 2.2129,6.26757 -0.6499,3.5747 -3.7979,6.22232 -7.2051,7.10352 -5.1904,1.36569 -10.6657,0.73012 -16.6855,-1.08008 -5.1962,-1.56256 -8.9779,-3.04954 -11.5489,-4.18164 -3.1978,-2.89594 -5.6544,-5.41395 -5.1582,-5.91016 0.107,-0.10694 0.6756,0.016 1.4336,0.23829 1.6912,0.49261 4.7791,1.7334 8.211,3.3164 0.1094,0.0506 0.1809,0.0718 0.291,0.12305 6.6394,3.09075 13.7199,4.54899 18.9121,4.22461 0.2585,-0.0156 0.4659,-0.0776 0.7148,-0.10156 0.7484,-0.0748 1.4974,-0.15112 2.1485,-0.30664 0,-5.3e-4 0,-10e-4 0.01,-0.002 0.8665,-0.20784 1.64,-0.48847 2.3008,-0.84179 0.6618,-0.3546 1.2093,-0.78188 1.627,-1.28516 0.3616,-0.43581 0.6352,-0.85721 0.8164,-1.26953 0.1808,-0.41109 0.2692,-0.81274 0.2617,-1.20899 0,-6.1e-4 0,-10e-4 0,-0.002 0,-0.0841 -0.056,-0.1663 -0.066,-0.25 -0.088,-0.70532 -0.4389,-1.39802 -1.1758,-2.09961 -0.4128,-0.39294 -0.9317,-0.78967 -1.5606,-1.19336 -0.6282,-0.4034 -1.3657,-0.81366 -2.2187,-1.23633 -1.7059,-0.84535 -3.869,-1.73729 -6.5274,-2.71093 -5e-4,-1.9e-4 0,1.8e-4 0,0 -1.0748,-0.3936 -2.2673,-0.91751 -3.5039,-1.52539 -3.71,-1.82346 -7.8081,-4.41141 -10.2637,-6.57032 v 0 l -4.5293,-3.98437 -1.4121,-1.24024 z m 90.1348,5.36914 c -0.8599,2.69279 -2.0165,4.90249 -3.4297,6.50977 -0.8945,1.01908 -1.8695,1.83513 -2.9649,2.30078 -0.057,0.0239 -0.1083,0.0657 -0.166,0.0879 -2.4228,0.93341 -9.3221,3.97568 -15.332,6.76367 -9.9176,4.60078 -10.828,5.46039 -9.8633,9.30469 0.5902,2.35099 0.3075,4.23633 -0.6328,4.23633 -0.9319,0 -4.3396,2.32408 -7.5742,5.16406 -3.2344,2.83999 -6.1634,5.09676 -6.5117,5.01758 -0.073,-0.0165 -1.7001,-0.37832 -2.1055,-0.46875 0.3821,-1.82369 0.6949,-2.69396 2.25,-4.14648 1.6284,-1.521 3.6005,-3.35902 5.7266,-5.01172 1.4079,-1.2617 3.2049,-1.92752 5.0039,-2.41602 0.1391,-1.7771 -0.7284,-3.54385 -0.2325,-5.31054 0.9478,-3.19029 3.734,-5.33806 6.418,-7.06446 1.896,-1.1228 3.9406,-1.98843 5.9199,-2.95703 5.084,-2.3547 10.2054,-4.64039 15.375,-6.79687 0.8175,-0.2888 1.319,-0.97698 3.0742,-2.10938 1.5521,-1.00127 2.8523,-1.98655 5.045,-3.10352 z m -4.4161,13.71094 c 1.0959,0 2.1152,0.062 3.0665,0.18946 0,2.4e-4 0,0.002 0.01,0.002 0.8048,0.10923 1.5361,0.29296 2.2461,0.50195 0.1284,0.0378 0.2809,0.0486 0.4063,0.0898 0,3.7e-4 0,-3.8e-4 0,0 0,0.002 0.011,0.002 0.016,0.004 6e-4,1.9e-4 0,-1.9e-4 0,0 0,6.6e-4 0,10e-4 0.01,0.002 0.7365,0.24283 1.4052,0.56702 2.0449,0.9336 0.1929,0.11075 0.374,0.23876 0.5586,0.36133 0.4485,0.29704 0.873,0.63074 1.2754,1 0.1727,0.15875 0.349,0.31181 0.5137,0.48437 0.5009,0.5237 0.9738,1.09735 1.4062,1.75391 0.7037,1.07036 1.3049,2.37279 1.8555,3.82422 0.1147,0.30167 0.2269,0.61255 0.3359,0.93164 0.5079,1.48874 0.9714,3.10518 1.375,4.99219 0.5813,2.71804 1.2709,5.37151 1.9161,7.45898 0.6452,2.08747 1.246,3.60894 1.6445,4.05859 0.3984,0.44965 0.7588,1.56425 1.0215,2.99805 v 0.002 c 0.2625,1.43349 0.4276,3.18559 0.4277,4.91016 0,1.62433 -0.1659,3.01253 -0.502,4.28125 -0.039,0.14658 -0.051,0.31415 -0.096,0.45703 v 0.002 c -0.2137,0.68915 -0.4922,1.33718 -0.8457,1.95508 v 0.002 c -0.3536,0.61758 -0.7814,1.20458 -1.2968,1.77539 v 0.002 c -1.0316,1.14249 -2.4103,2.21656 -4.2227,3.31836 v 0.002 c -1.8133,1.10196 -4.0606,2.23129 -6.832,3.48828 v 0.002 c -1.9638,0.89057 -3.8179,1.61445 -5.5274,2.16992 v 0.002 c 0,5.8e-4 7e-4,8.6e-4 -0.01,0.002 -0.2207,0.0717 -0.3861,0.0824 -0.6016,0.14844 -1.5628,0.47794 -3.0078,0.82082 -4.293,1.00977 -1.2851,0.18894 -2.4106,0.22394 -3.332,0.0859 -0.4905,-0.0732 -0.9258,-0.19228 -1.3047,-0.35546 -0.3798,-0.16515 -0.7011,-0.37693 -0.959,-0.63477 -0.9367,-0.93663 -1.2338,-1.70822 -0.8047,-2.48633 0.1056,-0.19376 0.2479,-0.38889 0.4512,-0.58594 0.4315,-0.41585 1.1565,-0.85485 2.0606,-1.32226 1.0011,-0.52068 2.3652,-1.10417 4.0215,-1.75391 0.2844,-0.11145 0.4275,-0.19217 0.7324,-0.30859 0.4328,-0.16531 0.7902,-0.37788 1.2109,-0.55469 1.169,-0.49114 2.3183,-0.99102 3.3555,-1.54101 0.6519,-0.34564 1.1527,-0.68819 1.7344,-1.04297 0.7078,-0.43102 1.4049,-0.84658 1.9863,-1.27344 0.4789,-0.35164 0.8022,-0.66132 1.1797,-0.99805 0.5762,-0.51163 1.1449,-1.01682 1.4472,-1.46289 0.052,-0.0768 0.133,-0.15823 0.1758,-0.23242 0.1024,-0.17599 0.1321,-0.32878 0.1817,-0.48828 0.1256,-0.4124 0.1351,-0.78677 -0.1348,-1.05664 -10e-4,-9.7e-4 -0.01,9.4e-4 -0.01,0 -4e-4,-4.8e-4 5e-4,-0.001 0,-0.002 -0.094,-0.0901 -0.4275,-0.0612 -0.9316,0.0566 -1.5461,0.36146 -4.7832,1.61357 -8.3457,3.27148 -6.5165,3.03259 -11.147,4.72368 -14.7363,5.17969 -0.8971,0.11436 -1.7295,0.15144 -2.5098,0.11328 -0.7804,-0.0386 -1.5074,-0.15394 -2.1973,-0.3418 -0.078,-0.0212 -0.1456,-0.0648 -0.2226,-0.0879 -1.284,-0.38609 -2.4461,-1.01048 -3.5547,-1.9082 -0.026,-0.0207 -0.039,-0.0399 -0.064,-0.0605 -0.913,-0.74838 -1.5347,-1.46488 -1.9922,-2.15039 -0.1017,-0.1524 -0.2405,-0.31087 -0.3203,-0.45898 -0.063,-0.11664 -0.097,-0.22806 -0.1465,-0.3418 -0.1245,-0.28808 -0.219,-0.56881 -0.2578,-0.83594 -0.017,-0.11971 -0.017,-0.2346 -0.018,-0.34961 -7e-4,-0.24554 0.035,-0.47926 0.1113,-0.70117 0.035,-0.10371 0.073,-0.20661 0.125,-0.30469 0.1095,-0.20622 0.2695,-0.39503 0.4512,-0.57422 0.097,-0.0936 0.1811,-0.1916 0.2968,-0.27734 0.1095,-0.0819 0.2655,-0.1426 0.3926,-0.2168 0.6063,-0.35254 1.3565,-0.64078 2.3516,-0.79687 0.6812,-0.10735 1.4417,-0.16992 2.2988,-0.16992 2.9677,0 6.8497,-0.91506 10.7617,-2.21485 0.4687,-0.15563 0.8953,-0.30131 1.3633,-0.46875 8.8423,-3.15903 17.3113,-8.25125 15.1289,-10.43359 0,-10e-4 -0.01,-7.2e-4 -0.01,-0.002 -0.1502,-0.15028 -0.4968,-0.18995 -0.9512,-0.16407 -0.3724,0.007 -0.8665,0.0964 -1.4062,0.21094 -0.024,0.005 -0.038,0.005 -0.062,0.01 -0.3018,0.0656 -0.5261,0.078 -0.8692,0.17383 -1.6962,0.47389 -3.8539,1.30402 -6.0664,2.3789 v 0.002 c -0.045,0.0219 -0.091,0.0387 -0.1367,0.0606 -1.6185,0.78134 -3.2667,1.45635 -4.9141,2.08399 -1.4611,0.55628 -2.9144,1.01687 -4.3632,1.45117 -0.6164,0.18477 -1.2417,0.41361 -1.8516,0.57617 -2.0541,0.54715 -4.0741,0.98795 -5.9922,1.28125 -1.7917,0.27424 -3.5022,0.43817 -5.0937,0.48828 -1.5931,0.0499 -3.0655,-0.0142 -4.3789,-0.19141 -0.027,-0.004 -0.047,-0.0118 -0.074,-0.0156 -1.0883,-0.15162 -2.0067,-0.41968 -2.8496,-0.73047 -0.1132,-0.0485 -0.236,-0.0908 -0.3515,-0.13867 -0.3138,-0.13442 -0.6235,-0.27001 -0.8926,-0.42969 -0.351,-0.2013 -0.6491,-0.42718 -0.9219,-0.66992 -0.1165,-0.10684 -0.2151,-0.2214 -0.3164,-0.33594 -0.276,-0.30406 -0.5225,-0.61968 -0.6797,-0.98047 -6e-4,-10e-4 0,-0.003 0,-0.004 -0.1899,-0.43695 -0.3604,-0.88388 -0.3613,-1.4043 v -0.002 -0.002 c 0,-0.003 0,-0.005 0,-0.008 0,-0.54666 0.167,-1.04612 0.4102,-1.52539 0.066,-0.12922 0.1406,-0.25623 0.2246,-0.38086 0.3021,-0.44972 0.6884,-0.8777 1.2363,-1.27148 0.048,-0.0344 0.1026,-0.0676 0.1524,-0.10157 0.4993,-0.34098 1.1631,-0.65029 1.8613,-0.95312 2.376,-1.02992 5.8434,-1.86455 10.7441,-2.55664 10.5902,-1.49573 24.4619,-9.01865 21.7071,-11.77344 -0.3393,-0.33923 -0.7481,-0.55722 -1.2481,-0.65039 0,-2.9e-4 0,-0.002 0,-0.002 -0.4494,-0.0837 -1.0049,-0.031 -1.6191,0.0918 -0.1635,0.033 -0.3546,0.0927 -0.5313,0.14063 -0.3938,0.10644 -0.8697,0.29266 -1.3339,0.47461 -1.0984,0.43262 -2.343,1.01078 -3.8985,1.8789 -0.063,0.0353 -0.094,0.0402 -0.1582,0.0762 v 0.002 c -1.1357,0.63835 -2.2372,1.0378 -3.3476,1.49023 6e-4,-10e-4 0,-0.002 0,-0.004 -1.0098,0.41152 -1.9921,0.7478 -2.9473,1.03515 -1.0761,0.28679 -2.1497,0.56368 -3.0918,0.64454 -0.087,0.008 -0.1936,0.047 -0.2793,0.0527 -0.6814,0.046 -1.3169,0.0338 -1.8965,-0.0332 -0.7739,-0.0894 -1.4013,-0.31959 -1.9473,-0.61328 -0.2042,-0.11089 -0.4092,-0.22128 -0.5761,-0.36133 -0.087,-0.0728 -0.1793,-0.14191 -0.2559,-0.22266 -0.2654,-0.2819 -0.4848,-0.59743 -0.6094,-0.97656 0,-0.0109 0.01,-0.026 0,-0.0371 -0.068,-0.2499 0.072,-0.56325 0.3164,-0.9043 0.05,-0.0699 0.081,-0.13393 0.1426,-0.20703 0.1018,-0.1203 0.3034,-0.26625 0.4356,-0.39453 0.3481,-0.33663 0.771,-0.69038 1.3027,-1.07031 0.4815,-0.34405 1.2688,-0.73292 1.8731,-1.09961 1.3276,-0.80379 2.755,-1.62161 4.4668,-2.43946 0.8282,-0.39469 1.7013,-0.74375 2.5703,-1.11914 1.6399,-0.70702 3.2784,-1.36275 4.9004,-1.92578 1.7506,-0.60486 3.5162,-1.20866 4.9863,-1.52539 1.1744,-0.25361 2.2279,-0.40625 3.0722,-0.40625 z" /><g
         id="g14556"
         transform="matrix(1.2431592,0,0,1.2431592,1364.2858,418.292)"><ellipse
           style="fill:#aa5c3e;fill-opacity:1;stroke:none;stroke-width:1.98256;stroke-linecap:round"
           id="ellipse18294"
           cx="97.496559"
           cy="159.18202"
           rx="59.445724"
           ry="62.294876" /><path
           id="path17737"
           style="fill:#d47a4c;fill-opacity:1;stroke:none;stroke-width:2.37822;stroke-linecap:round"
           d="m 51.2371,119.35217 c -2.95577,4.04466 -5.58271,8.33766 -7.6316,12.91478 -2.39855,5.37084 -4.33758,11.01512 -5.10484,16.86697 -0.5725,5.61837 -0.60534,11.2949 -0.18755,16.92591 0.48981,5.03232 1.7023,9.98295 3.35563,14.75523 3.46025,9.84118 9.56843,18.69695 17.36719,25.60352 4.52133,3.86438 9.45144,7.33826 14.9082,9.75195 1.03716,0.34511 2.10121,1.03344 3.24219,0.81836 1.02914,-0.83357 2.38808,-1.2 3.59495,-1.75423 1.50369,-0.67248 3.17771,-1.18373 4.36794,-2.37272 0.33091,-0.27614 0.20353,-0.92973 0.76953,-0.80078 1.97543,0.0526 3.54239,-1.35875 5.13071,-2.33303 7.62075,-5.10322 14.25536,-11.50207 21.35506,-17.25175 4.91301,-4.1116 10.22841,-7.91962 14.08907,-13.10755 0.96409,-1.37813 1.85386,-2.81349 2.80407,-4.1983 0.60396,-1.81474 0.70972,-3.76425 0.91601,-5.64062 0.50742,-0.46842 1.32095,-0.57494 1.66993,-1.25 0.97832,-1.70512 1.31611,-3.6882 1.91994,-5.54058 1.17452,-3.89141 1.50506,-7.96471 1.58512,-12.01043 0.069,-5.5535 0.37012,-11.15051 -0.44256,-16.66579 -0.72982,-4.2928 -1.92315,-8.50418 -3.39186,-12.60007 -0.33439,-0.70069 -0.49862,-1.66348 -1.20761,-2.06263 -4.19278,-0.19967 -8.39706,-0.13734 -12.59467,-0.19388 -22.11869,-0.11342 -44.23776,-0.0624 -66.35665,-0.079 -0.0527,0.0749 -0.10546,0.14974 -0.1582,0.22461 z" /><path
           id="path17590"
           style="fill:#000000;stroke-width:0.352778"
           d="m 96.777555,92.441903 c -3.992246,-0.0162 -7.903776,0.308977 -11.16521,0.99167 -10.07161,2.108221 -20.732159,7.250507 -28.398783,13.698907 -5.01094,4.21469 -10.342253,10.49204 -13.828097,16.28118 -5.933948,9.85484 -8.909705,20.14684 -9.332763,32.27916 -0.2411,6.91419 0.171797,11.83902 1.483113,17.68574 3.170074,14.13435 9.167478,24.88629 19.258256,34.52555 10.71299,10.23361 22.514621,15.62424 37.697441,17.21962 6.758986,0.71022 16.559158,-0.57401 24.094138,-3.15743 16.14724,-5.53624 29.18881,-17.27436 36.78897,-33.11219 4.66706,-9.72562 6.58405,-17.37233 7.07553,-28.22205 0.51507,-11.36997 -1.69768,-22.20662 -6.55515,-32.10295 -6.23301,-12.69875 -16.98494,-23.54264 -29.23543,-29.48606 -1.47165,-0.713988 -2.8317,-1.32541 -3.19205,-1.503784 -0.31626,-0.157565 -6.14025,-2.380719 -6.6275,-2.508374 -0.53405,-0.09737 -2.03186,-0.484357 -3.47214,-0.867647 -4.19075,-1.115249 -9.45743,-1.700508 -14.590325,-1.721342 z m 0.649056,4.705139 c 3.639739,0.0051 7.251329,0.155647 8.647019,0.449068 3.73007,0.784185 6.91476,1.619005 7.20731,1.706356 2.70294,0.635426 3.54758,1.058164 6.02806,2.233414 l 2.55436,1.28003 c 4.13833,2.07391 7.31882,4.0039 10.13944,6.15259 2.62881,2.00258 5.6441,4.7178 5.6441,5.08238 0,0.10482 -5.55662,0.19069 -12.3486,0.19069 h -12.34912 c 0,0 -6.82759,0.0225 -6.84713,0 H 94.534281 c -10.780878,0 -11.567319,-0.0422 -11.569319,-0.61754 -0.0028,-0.95618 -1.512419,-3.22412 -2.664437,-4.00285 -2.766404,-1.87001 -6.458694,-2.29649 -9.180318,-1.0604 -1.788768,0.8124 -3.879886,2.92572 -4.447274,4.49481 l -0.428398,1.18598 h -4.691703 c -2.580394,0 -4.691703,-0.12016 -4.691703,-0.26717 0,-0.2925 5.044518,-4.6611 7.042464,-6.09885 6.011178,-4.32584 15.149952,-8.348997 21.591118,-9.621175 0.46517,-0.09187 1.884597,-0.394208 3.145775,-0.636249 1.507841,-0.289391 5.146393,-0.476184 8.786125,-0.471124 z m -2.083173,6.990198 c -2.458133,0.0955 -3.54217,0.47455 -4.994948,1.43513 -0.858648,0.56775 -2.075626,1.59996 -2.704744,2.2934 -1.358298,1.49717 -2.705705,4.09154 -2.390035,4.6023 0.476958,0.77174 1.146241,0.27805 2.579687,-1.90221 2.589866,-3.93921 6.167064,-5.42656 10.222116,-4.25039 1.616156,0.46878 2.438186,1.00302 4.105696,2.66858 2.13041,2.12793 2.47677,2.33957 2.84737,1.73994 0.5867,-0.94931 -2.10469,-3.98239 -4.75578,-5.35936 -1.340516,-0.69626 -2.93776,-1.30399 -4.909362,-1.22739 z m -19.713946,5.51757 c 0.940176,0.0324 1.780371,0.17983 2.251026,0.45423 1.899076,1.10717 3.322277,2.71599 3.322277,3.75636 0,0.25254 -2.139284,0.37621 -6.515364,0.37621 -6.150428,0 -6.500683,-0.0361 -6.261633,-0.64028 0.430698,-1.08857 1.657589,-2.43385 2.923335,-3.20548 0.869411,-0.53002 2.713399,-0.79512 4.280359,-0.74104 z m -23.648169,9.52551 h 45.300078 45.299559 l 1.86345,2.55799 c 7.25105,9.95185 10.83668,20.39193 11.41946,33.24913 0.61519,13.57269 -3.02007,27.08543 -10.32857,38.39197 -9.31449,14.40988 -22.6555,23.26691 -39.99084,26.54928 -1.43953,0.27271 -13.788515,0.495 -15.345831,0.27647 -0.58209,-0.0817 -2.639635,-0.47616 -4.572331,-0.87695 -11.388788,-2.36168 -21.430931,-8.01296 -29.869495,-16.80879 -10.135138,-10.56425 -15.556019,-22.8276 -17.095597,-38.67516 -0.840788,-8.65468 0.143582,-17.06548 2.996716,-25.59895 2.067786,-6.18459 5.809264,-13.3367 9.281088,-17.74207 z m 72.936637,2.86391 c -0.52389,0.0737 -0.31611,1.21208 1.08934,7.86825 0.77517,3.67129 1.40921,6.73864 1.40921,6.81664 0,0.078 0.27799,0.0861 0.61754,0.0176 0.76288,-0.1539 0.70632,-1.17392 -0.33745,-6.10092 -1.52381,-7.19291 -1.89526,-8.46214 -2.51096,-8.58087 -0.10334,-0.0199 -0.19284,-0.0312 -0.26768,-0.0207 z m -60.972509,3.88245 c -0.07564,-0.0109 -0.166645,-4.8e-4 -0.271301,0.0196 -0.70969,0.13668 -1.349858,2.42812 -3.088184,11.04945 -1.624926,8.05891 -3.206744,23.71183 -2.509924,24.83931 0.13064,0.21138 0.455256,0.38448 0.720886,0.38448 0.566428,0 0.778346,-1.67225 1.029394,-8.11424 0.22388,-5.74504 1.301473,-13.11922 3.042709,-20.81992 1.39283,-6.1598 1.605882,-7.28231 1.07642,-7.35872 z m 28.546061,1.19114 c -0.4553,0 -0.564079,1.69896 -0.779797,12.17084 -0.21498,10.43608 -1.142264,25.54141 -1.913062,31.16502 -0.20568,1.50058 -0.161232,1.64331 0.506946,1.64331 0.807828,0 0.810167,-0.0102 1.457275,-6.52622 0.881788,-8.87913 1.177864,-15.31834 1.216464,-26.45213 0.03623,-10.4507 -0.02701,-12.00082 -0.487826,-12.00082 z m 24.748358,10.76007 c -0.74515,0 -0.75971,0.10449 -0.76171,5.55625 -0.004,8.37676 -0.65212,20.42229 -1.42523,26.47177 -0.3791,2.96634 -0.68937,5.79559 -0.68937,6.28747 0,0.66165 0.16053,0.86356 0.61702,0.77566 0.4813,-0.0927 0.70964,-0.73849 1.03663,-2.93625 1.04441,-7.01953 1.5801,-14.56067 1.77353,-24.95455 l 0.20878,-11.20035 z m -67.03725,1.46399 c -0.526243,0.0323 -0.692143,0.88183 -1.50275,5.94434 -0.915618,5.71838 -1.120326,18.88858 -0.375688,24.16494 0.772328,5.47252 2.186452,12.486 3.10162,15.38304 0.888158,2.8115 1.101646,3.09707 1.795756,2.40295 0.274298,-0.27429 0.196439,-0.99578 -0.276469,-2.55747 -3.687114,-12.17599 -4.72631,-28.85665 -2.541964,-40.80474 0.732918,-4.00927 0.736508,-4.36771 0.04961,-4.50722 -0.09283,-0.0188 -0.174936,-0.0304 -0.250114,-0.0258 z m 55.84672,3.64112 c -0.12788,0.004 -0.23605,0.035 -0.29404,0.093 -0.11603,0.11599 -0.21246,2.12913 -0.21446,4.47363 -0.0111,14.14161 -1.36496,30.04972 -3.5388,41.58144 -0.39432,2.09182 -0.62225,3.95701 -0.50694,4.14548 0.35638,0.57619 0.87725,0.37806 1.19166,-0.45371 0.46226,-1.22295 1.70152,-8.64402 2.48873,-14.90504 1.59859,-12.71417 2.3992,-34.43549 1.2852,-34.86299 -0.13604,-0.0522 -0.28347,-0.0756 -0.41135,-0.0718 z m 32.12672,3.53777 c -0.67873,0 -0.70049,0.19464 -0.58291,5.11545 0.15958,6.67886 -0.52635,14.21557 -1.91823,21.0783 -0.20253,0.99858 -0.13869,1.1467 0.4961,1.1467 0.93581,0 0.9585,-0.0449 1.60455,-3.1781 1.03026,-4.99651 1.7383,-14.92719 1.40818,-19.7528 -0.2787,-4.07396 -0.35585,-4.40955 -1.00769,-4.40955 z m -67.965875,3.70417 c -0.891498,2e-5 -1.120558,4.30676 -0.907438,17.05684 0.209918,12.5584 1.205117,21.96694 3.262333,30.83274 0.17615,0.75913 1.00904,1.08561 1.349788,0.52917 0.08911,-0.14552 -0.14107,-1.85227 -0.51108,-3.79253 -0.370018,-1.94028 -1.10006,-6.782 -1.62264,-10.75955 -0.882958,-6.72089 -0.951499,-8.17287 -0.967899,-20.54914 -0.01609,-12.16663 -0.06798,-13.31754 -0.603064,-13.31753 z m 79.859725,6.35465 c -0.1787,0.009 -0.39728,0.1809 -0.65836,0.53795 -0.28144,0.3849 -0.47542,1.57022 -0.47542,2.90318 0,3.15344 -1.20154,10.68001 -2.60398,16.3127 -1.36446,5.48013 -3.53905,11.42962 -6.36137,17.40256 -1.08539,2.29709 -1.88433,4.32116 -1.77508,4.49791 0.36131,0.58461 1.1909,0.33459 1.75751,-0.5302 1.1659,-1.77937 5.09105,-11.1886 6.48023,-15.53393 3.36468,-10.52469 5.36391,-25.67644 3.63647,-25.59017 z m -66.381995,11.81323 c -0.28229,0 -0.62368,0.39705 -0.75861,0.88212 -0.662018,2.37996 -0.164468,18.09097 0.93276,29.45712 0.548458,5.68153 2.058926,15.76186 2.458764,16.40881 0.11832,0.19143 0.443882,0.34779 0.72347,0.34779 0.60319,0 0.673175,-1.89771 0.149345,-4.0566 -1.436246,-5.91937 -2.501207,-18.12487 -2.769857,-31.75 -0.188128,-9.5419 -0.302032,-11.28924 -0.735872,-11.28924 z m 47.346985,0.17674 c -0.64974,0 -0.74773,0.29294 -0.96997,2.91041 -0.93526,11.01525 -4.50986,22.84842 -10.34407,34.24287 -2.19675,4.29024 -2.58468,5.28517 -2.16473,5.55057 0.28142,0.17785 0.64893,0.28008 0.81649,0.22738 0.57097,-0.17958 5.40777,-9.93313 7.20679,-14.53297 3.22404,-8.24333 5.52908,-17.79523 5.94848,-24.64966 0.22134,-3.61755 0.20415,-3.7486 -0.49299,-3.7486 z"
           sodipodi:nodetypes="sssssssssssssccsscscccsssccscssccsscssccsssssssssscssssscccccsscscssscccssssscccsssssccsssssssscssssccscsssssccccsccscssssssssssssssssscsscssssssscssssssssssssssss" /><path
           style="fill:#fff6d5;stroke-width:2;stroke-linecap:round"
           d="m 153.8869,19.450955 4.75392,2.465551 -45.76957,92.328544 c -2.30296,0.009 -4.60591,8.7e-4 -6.90887,-0.005 z"
           id="path14385"
           sodipodi:nodetypes="ccccc" /></g><g
         id="g44598"
         transform="translate(-1065.3597,-238.67189)"><g
           id="g43864"
           transform="translate(-88.134891,243.05426)"><path
             id="path43857"
             style="fill:#000000;stroke-width:1.7212"
             d="m 2736.1074,564.08008 c -0.9561,0.9971 -2.0407,2.01652 -3.3613,3.03515 l -9.2246,7.11719 v -0.008 l -0.014,-0.11719 -8.625,6.53711 c -5.5864,4.15937 -11.8692,10.44395 -19.166,16.51953 -0.9344,0.77503 -1.8141,1.54609 -2.7871,2.3086 -3.5528,2.79406 -7.2941,5.49298 -11.4434,7.80664 -3.6578,2.03955 -5.7735,3.06405 -8.5722,4.53515 -0.948,1.086 -1.9773,1.97043 -3.1543,2.42383 -2.4228,0.9334 -9.3222,3.97572 -15.3321,6.76367 -2.2126,1.0264 -3.8352,1.81808 -5.2304,2.54688 -0.8949,0.5847 -1.7641,1.21063 -2.5918,1.89453 -0.9545,0.7436 -1.819,1.74777 -2.2539,2.88867 -0.019,0.5914 0.017,1.19291 0.2129,1.97461 0.1694,0.675 0.1174,1.15816 0.1484,1.72266 0.1105,0.2563 0.072,0.40488 0.2715,0.76758 0.6161,1.12005 1.762,1.98526 2.9433,2.54296 -2.3595,0.4208 -5.2016,0.64066 -8.5976,2.03516 -0.9826,0.7432 -1.939,1.42433 -2.9727,2.33203 -1.5007,1.3176 -2.8835,2.45195 -4.0254,3.34375 -0.11,0.2112 -0.2018,0.29608 -0.3183,0.54688 -0.9158,1.97095 -0.6735,2.68654 -0.5352,3.37304 0.1055,0.53616 0.3595,1.00483 0.5742,1.49024 0.284,0.64092 0.6529,1.23723 1.084,1.78515 9e-4,10e-4 0,0.003 0,0.004 0.414,0.52581 0.8934,0.99917 1.4121,1.42773 0.1059,0.0843 0.2189,0.15809 0.3282,0.23829 0.4483,0.34076 0.9161,0.65987 1.414,0.92382 0.4603,0.2368 0.9403,0.41818 1.4238,0.58789 0.2042,0.0726 0.3963,0.18074 0.6036,0.24024 1.2151,0.3627 2.473,0.55818 3.7304,0.70508 v 0.008 c -0.3778,0.4386 -0.6869,0.93416 -0.9218,1.46094 -0.2331,0.52461 -0.3929,1.07973 -0.4708,1.64648 -0.1565,1.13884 0.012,2.31732 0.5645,3.35352 1.3569,3.01805 4.1409,5.12296 7.0117,6.60156 1.8081,0.8917 3.8349,1.1914 5.834,1.0918 1.1542,0 2.3081,-0.10977 3.4473,-0.29297 -0.7437,2.71535 1.0991,5.48342 3.414,6.77734 2.1873,1.3293 4.8484,1.34839 7.3028,0.96289 5.0659,-0.7786 9.823,-2.84051 14.4297,-5.00781 1.1008,-0.1415 13.9936,-6.46519 19.0918,-10.15234 0.5116,-0.3699 1.0081,-0.86778 1.4668,-1.35938 2.4371,-2.84492 4.9548,-5.96722 7.0019,-8.83594 2.2709,-3.25048 4.8883,-6.35978 7.7578,-9.36718 5.9407,-6.22622 12.9735,-12.00943 20.2617,-17.68946 6.5438,-5.09972 13.2754,-10.12386 19.6485,-15.29492 0.2417,-0.19611 0.4997,-0.38546 0.7402,-0.58203 5.1178,-4.18157 9.9738,-8.47187 14.252,-12.99609 v -0.002 c 4.2787,-4.52494 7.9806,-9.28431 10.7949,-14.40625 0.4983,-0.95837 0.9555,-1.97048 1.3711,-3.03125 0.6222,-1.58819 1.1537,-3.28402 1.5937,-5.0664 7e-4,-0.003 0,-0.007 0,-0.01 0.2507,-1.0164 0.4057,-2.11664 0.5977,-3.18555 -0.065,0.006 -0.1302,0.0138 -0.1953,0.0195 -4.2035,0.39169 -8.4165,0.56377 -12.6368,0.53907 -4.7755,-0.11283 -9.5325,-0.58554 -14.2714,-1.16407 -3.6088,-0.43856 -7.1841,-1.09651 -10.75,-1.79492 -2.528,-0.51341 -5.0645,-0.98213 -7.6075,-1.41406 -0.9485,-0.15997 -1.8996,-0.31188 -2.8496,-0.46289 -1.0139,-0.16119 -1.9503,-0.37879 -2.8203,-0.63867 z m -64.2265,54.96289 c 0.2052,0 0.3742,0.0352 0.5742,0.0352 0.8757,0.019 1.7344,0.0514 2.5137,0.15626 0.8069,0.10908 1.54,0.29435 2.2519,0.5039 0.1284,0.0378 0.2809,0.0487 0.4063,0.0898 0,6e-4 -9e-4,10e-4 0.012,0 4.9345,1.6242 7.5907,5.91786 9.3808,14.28711 0.5813,2.71805 1.2708,5.37152 1.916,7.45899 0.6452,2.08747 1.2461,3.60894 1.6446,4.05859 0.3984,0.44965 0.7588,1.56425 1.0215,2.99805 v 0.002 c 0.2625,1.43349 0.4276,3.18559 0.4277,4.91016 0,1.62433 -0.1659,3.01253 -0.502,4.28125 -0.039,0.14658 -0.051,0.31415 -0.096,0.45703 v 0.002 c -0.2137,0.68915 -0.4922,1.33718 -0.8457,1.95508 v 0.002 c -0.3536,0.61759 -0.7814,1.20462 -1.2968,1.77539 v 0.002 c -1.0316,1.14249 -2.4103,2.21656 -4.2227,3.31836 v 0.002 c -1.8133,1.10196 -4.0606,2.23129 -6.832,3.48828 v 0.002 c -1.9638,0.89058 -3.8179,1.61446 -5.5274,2.16993 V 671 c 0,5.8e-4 6e-4,7.6e-4 -0.012,0.002 -0.2207,0.0717 -0.3864,0.0824 -0.6015,0.14844 -3.1257,0.95587 -5.7826,1.37172 -7.625,1.0957 -0.9882,-0.14741 -1.7589,-0.47566 -2.2754,-0.99218 -0.5771,-0.57704 -0.9261,-1.09209 -1.0098,-1.58399 -0.042,-0.24339 -0.017,-0.48162 0.076,-0.71875 0.4706,-1.19711 2.7252,-2.37498 7.3945,-4.1582 6.1892,-2.36371 11.2777,-6.00727 11.4023,-7.93555 0.017,-0.27458 -0.068,-0.51486 -0.2636,-0.71094 -0.3841,-0.36662 -4.5532,1.12962 -9.2774,3.32813 -6.5165,3.03259 -11.147,4.72368 -14.7363,5.17969 -0.8971,0.11436 -1.7295,0.15144 -2.5098,0.11328 -0.7804,-0.0386 -1.5073,-0.15394 -2.1972,-0.3418 -1.3819,-0.3753 -2.6094,-1.04428 -3.7871,-1.99805 -2.1142,-1.71179 -3.0159,-3.3133 -2.8106,-4.57226 0.05,-0.31313 0.1697,-0.60383 0.3555,-0.87109 0.1913,-0.27525 0.4596,-0.52124 0.791,-0.74024 0.632,-0.41668 1.5148,-0.72289 2.6367,-0.89453 0.016,-0.002 0.021,-0.0113 0.037,-0.0137 0.6584,-0.0984 1.3981,-0.15039 2.2168,-0.15039 1.2538,0 2.67,-0.15379 4.1836,-0.42969 4.5409,-0.8278 9.9505,-2.75235 14.4258,-4.90625 0,-9e-4 -9e-4,-0.001 0.012,0 2.982,-1.4356 5.5482,-2.97317 7.166,-4.35547 0.6918,-0.59105 1.1072,-1.13232 1.4102,-1.64648 0.051,-0.0865 0.1978,-0.19374 0.2363,-0.27735 0.1069,-0.23214 0.1272,-0.44293 0.1328,-0.65039 0,-0.0524 0.038,-0.11344 0.033,-0.16406 v -0.002 c -0.027,-0.2505 -0.1386,-0.47849 -0.3418,-0.68164 -0.2857,-0.28579 -1.2295,-0.20106 -2.4199,0.0566 -0.3018,0.0656 -0.526,0.078 -0.8691,0.17382 -1.6962,0.4739 -3.8539,1.30403 -6.0664,2.37891 v 0.002 c -1.441,0.70004 -2.904,1.33807 -4.3711,1.91602 v 0.002 c -4.4037,1.73478 -8.8495,2.9178 -12.8868,3.53516 -1.7913,0.27424 -3.5022,0.43817 -5.0937,0.48828 -1.5931,0.0499 -3.0655,-0.0142 -4.3789,-0.19141 -0.8833,-0.11893 -1.6659,-0.30516 -2.3848,-0.53125 -0.3283,-0.10025 -0.5976,-0.23205 -0.8906,-0.35351 -0.3138,-0.13442 -0.6235,-0.27001 -0.8926,-0.42969 -0.351,-0.2013 -0.6494,-0.42718 -0.9218,-0.66992 -0.1165,-0.10684 -0.2152,-0.2214 -0.3165,-0.33594 -0.276,-0.30406 -0.5224,-0.61968 -0.6796,-0.98047 -6e-4,-10e-4 0,-0.003 0,-0.004 -0.1904,-0.43809 -0.3614,-0.88605 -0.3614,-1.40821 0,-2.49655 2.4457,-4.25655 8.0098,-5.59375 1.8526,-0.4452 4.0499,-0.84423 6.6191,-1.20703 2.6476,-0.37392 5.4995,-1.12338 8.2461,-2.08203 1.3725,-0.47904 2.7192,-1.01038 4,-1.57227 v -0.002 c 1.2806,-0.56188 2.4963,-1.15325 3.6075,-1.75586 v -0.002 c 2.2232,-1.20602 4.0288,-2.45233 5.1074,-3.56836 0.5388,-0.55753 0.8966,-1.08078 1.0332,-1.55273 v -0.002 -0.0332 c 0.1214,-0.45704 0.04,-0.86591 -0.2949,-1.20117 -0.3381,-0.33812 -0.7444,-0.55671 -1.2422,-0.65039 -1.4931,-0.27823 -3.8053,0.56258 -7.5411,2.66211 v 0.002 c -1.1353,0.63835 -2.2372,1.0378 -3.3476,1.49023 6e-4,-0.001 0,-0.002 0,-0.004 -2.2768,0.92787 -4.4788,1.60919 -6.3184,1.73242 -0.6814,0.046 -1.3172,0.0338 -1.8964,-0.0332 -1.7482,-0.2019 -2.9833,-0.91984 -3.3965,-2.17774 -0.7532,-2.2925 13.2508,-9.09561 21.1328,-10.75781 1.1188,-0.23603 2.1135,-0.36805 2.9258,-0.36914 z" /><path
             style="fill:#000000;stroke-width:1.7212"
             d="m 2612.6641,525.57617 c -0.588,-0.1102 -1.2353,-0.0858 -1.9297,0.10352 -9.0796,0.5013 -16.7943,5.75528 -24.5957,9.85547 -2.5102,1.1095 -5.4756,2.28209 -9.25,3.85546 -0.4191,0.17471 -0.7972,0.45157 -1.211,0.64649 -1e-4,10e-4 10e-5,0.003 0,0.004 -3.2813,1.5457 -6.4094,3.60339 -8.9101,5.83984 -0.023,0.0207 -0.051,0.0398 -0.074,0.0606 -3.9174,3.52205 -6.0879,5.35992 -9.25,6.53515 -3.1602,1.17558 -7.3109,1.68809 -15.1895,2.55274 -8.9753,0.98514 -17.868,2.38974 -19.7637,3.125 -1.4083,0.54688 -2.1004,0.74722 -2.3593,0.58789 -0.045,-0.0269 -0.1906,0.0229 -0.2032,-0.0312 v -0.002 c -0.086,-0.3723 0.5771,-1.4103 1.9278,-3.4375 0.6073,-0.91147 1.1525,-1.59834 1.7793,-2.16015 -0.8547,0.16671 -1.7056,0.35127 -2.5528,0.55664 -2.267,0.53469 -4.5289,1.08974 -6.8008,1.60351 -3.5975,0.78794 -7.2131,1.49505 -10.8359,2.15821 -3.069,0.55825 -6.1424,1.098 -9.2226,1.58984 -0.014,1.00479 -0.1075,1.76836 -0.1075,2.82422 v 0.002 c 0,0.0972 0.01,0.16499 0.01,0.26172 0.01,7.21517 0.311,12.92225 1.0957,17.52735 0.049,0.28456 0.057,0.67166 0.1094,0.94726 0.055,0.28858 0.1338,0.52775 0.1933,0.80664 0.1878,0.88046 0.3776,1.75817 0.6133,2.54492 0.31,1.0345 0.6629,1.99013 1.0645,2.8711 v 0.002 c 0.4017,0.88071 0.8503,1.68886 1.3535,2.42578 v 0.002 c 0.5032,0.73668 1.0612,1.40322 1.6758,2.00585 1.2302,1.2061 2.6942,2.15356 4.4297,2.88086 1.7362,0.7274 3.7433,1.23455 6.0644,1.56055 2.3212,0.3263 4.954,0.47231 7.9395,0.47461 2.9856,0.002 6.3241,-0.13931 10.0527,-0.38281 8.9265,-0.5832 14.4302,-0.75988 19.0371,0.35742 1.5347,0.32279 2.9354,0.76108 4.2852,1.33398 4.0464,1.71736 7.6237,4.65521 12.8886,9.4043 0.039,0.0351 0.071,0.0569 0.1094,0.0918 2.0345,1.82772 3.8996,3.31542 5.668,4.62109 v 0.002 c 4.4304,3.27101 8.1316,5.15911 11.3906,6.52344 1.744,0.5026 4.9638,1.78235 8.5781,3.46485 1.3273,0.6179 2.6716,1.16995 4.0157,1.65625 2.6868,0.97197 5.3699,1.67972 7.9003,2.11132 1.2643,0.2154 2.4908,0.36246 3.6602,0.43946 1.1718,0.077 2.2868,0.0835 3.3262,0.0195 0.2585,-0.0156 0.4659,-0.0776 0.7148,-0.10156 0.7505,-0.075 1.502,-0.1522 2.1543,-0.3086 0.8671,-0.208 1.6416,-0.48812 2.3027,-0.84179 0.6611,-0.3544 1.2074,-0.78236 1.625,-1.28516 2.8889,-3.4812 0.1609,-6.07623 -10.4726,-9.9707 -4.2993,-1.5744 -10.4954,-5.21721 -13.7695,-8.09571 l -5.9414,-5.22461 -0.012,-0.0117 7.3985,4.45313 c 1.1944,0.7188 2.486,1.39906 3.8398,2.03516 0.2197,0.1033 0.4607,0.18631 0.6836,0.28711 1.1531,0.52177 2.3256,1.02992 3.5391,1.48242 1.4455,0.5389 2.9202,1.02582 4.3886,1.45312 1.4683,0.4272 2.9308,0.79657 4.3536,1.09766 1.4227,0.301 2.8043,0.53872 4.1132,0.69922 1.3115,0.1609 2.5491,0.24 3.6778,0.25 1.127,0.01 2.145,-0.07 3.0215,-0.23438 0.8771,-0.1643 1.612,-0.41722 2.1699,-0.76562 3.4591,-2.67029 2.8781,-6.0646 1.25,-8.1211 -0.2923,-0.3692 -0.7843,-0.70898 -1.2578,-1.05078 -2.1035,-1.2768 -5.7115,-2.79576 -9.3164,-3.85156 -0.016,0 -0.035,-0.0156 -0.051,-0.0156 -7.2604,-2.11817 -20.3234,-9.1415 -22.5352,-11.80859 -0.3163,-0.3813 -0.4124,-0.67341 -0.2363,-0.84961 0.088,-0.086 0.4128,-0.045 0.9297,0.10352 1.5515,0.4444 4.8179,1.85635 8.4199,3.68164 2.4316,1.2322 5.3431,2.33766 8.1074,3.13476 1.3809,0.3982 2.7257,0.72156 3.9551,0.94336 1.2311,0.2221 2.3489,0.34375 3.2715,0.34375 0.2561,0 0.4468,-0.0486 0.6953,-0.0586 1.3051,-0.033 2.565,-0.10427 3.6523,-0.29297 0.5669,-0.098 0.983,-0.28277 1.4883,-0.41797 0.6469,-0.1732 1.3634,-0.30908 1.9063,-0.53515 0.9681,-0.4035 1.7697,-0.88528 2.3926,-1.42188 3.1144,-2.683 1.7943,-6.74237 -5.1446,-9.31836 -13.4057,-4.97677 -22.6557,-10.15639 -27.6504,-15.28906 -6.6615,-6.84609 -5.7515,-13.61035 2.9786,-19.71485 1.0912,-0.76317 2.3061,-1.51641 3.6425,-2.25781 1.3355,-0.7409 2.7921,-1.4707 4.3731,-2.1875 1.1759,-0.5331 2.6956,-0.99591 8.6172,-4.75 5.1814,-3.28481 3.9285,-10.63487 -0.1875,-11.40625 z"
             id="path43855" /></g><path
           style="fill:#cccccc;stroke-width:1.7212"
           d="m 2583.8013,862.08415 c 8.8116,0 12.7411,3.9149 15.1279,15.074 1.1626,5.436 2.7631,10.6179 3.5601,11.5172 0.7968,0.8994 1.4487,4.4598 1.4489,7.9103 0,7.248 -2.7108,10.2524 -13.8,15.2824 -7.8586,3.5646 -13.9694,4.4898 -16.0321,2.4271 -2.3021,-2.3019 -0.9976,-3.6092 6.4613,-6.4578 7.0753,-2.7021 12.7098,-7.0774 11.1374,-8.6497 -0.3729,-0.373 -4.5502,1.1262 -9.2817,3.3281 -13.0331,6.0652 -18.521,6.7617 -23.2262,2.9515 -4.8249,-3.9068 -3.3402,-7.2378 3.2272,-7.2378 10.0301,0 30.5125,-9.8586 27.2535,-13.1175 -0.7166,-0.7167 -4.9315,0.4594 -9.3624,2.6121 -15.3731,7.4688 -33.1768,8.0265 -33.1768,1.0388 0,-3.3278 4.3449,-5.3482 14.6303,-6.8007 10.5902,-1.4957 24.4614,-9.0181 21.7066,-11.7729 -1.3525,-1.3525 -3.802,-0.7903 -8.7908,2.0137 -6.9231,3.8908 -13.8525,4.3586 -14.953,1.0086 -0.8605,-2.6193 17.5433,-11.1274 24.0698,-11.1274 z"
           id="path43866" /></g><g
         id="g40342"><path
           style="fill:#cccccc;fill-opacity:1;stroke-width:7.55906;stroke-linecap:round"
           d="m 1584.0841,351.31175 c -2.7011,-0.18589 -4.333,1.04788 -3.9101,4.02539 0.4513,3.17769 1.7481,3.93943 7.2304,4.24219 7.0153,0.38727 13.1114,4.43793 13.1114,8.71289 -2e-4,1.99901 -0.5127,2.1004 -2.4668,0.47851 -1.3583,-1.1272 -5.025,-1.80528 -8.1465,-1.5039 -7.621,0.73547 -10.3365,7.56307 -6.2364,15.67578 1.5366,3.04017 3.2325,7.55393 3.7715,10.03125 1.2437,5.71853 -3.0381,20.3151 -7.6972,26.23828 -3.5425,4.50716 -3.544,4.54297 -0.1133,4.54297 1.9004,0 5.6339,-0.82512 8.2988,-1.83203 21.8037,-8.23802 29.6472,-41.54392 13.9844,-59.38281 -5.8565,-6.67018 -13.3246,-10.91871 -17.8262,-11.22852 z"
           id="path37164" /><path
           style="fill:#cccccc;fill-opacity:1;stroke-width:7.55906;stroke-linecap:round"
           d="m 1393.5275,351.31175 c -4.479,0.50121 -11.9103,4.42748 -17.1035,9.89453 -16.0321,16.87827 -12.1899,45.05047 7.9257,58.09375 5.4939,3.56237 14.8133,6.09938 14.7793,4.02344 0,-0.23667 -1.9401,-4.24138 -4.3027,-8.89844 -5.0726,-9.99864 -5.6573,-22.1301 -1.4844,-30.88086 5.5158,-11.56666 -1.6513,-19.7331 -13.4199,-15.29101 -4.3338,1.63582 -4.667,1.51624 -3.2305,-1.16797 2.6591,-4.9686 6.5564,-7.34438 12.5,-7.61719 5.7371,-0.26352 8.1533,-1.98648 8.1993,-5.85352 0.017,-1.37248 -0.7944,-2.10617 -2.1387,-2.30273 -0.5042,-0.074 -1.0847,-0.0723 -1.7246,0 z"
           id="path37162" /></g></g></g></svg>
