<?xml version="1.0" encoding="UTF-8" standalone="no"?>
<!-- Created with Inkscape (http://www.inkscape.org/) -->

<svg
   version="1.1"
   id="svg2"
   width="1024"
   height="1024"
   viewBox="0 0 1024 1024"
   sodipodi:docname="monkeys.svg"
   inkscape:version="1.2.2 (b0a8486541, 2022-12-01)"
   xml:space="preserve"
   xmlns:inkscape="http://www.inkscape.org/namespaces/inkscape"
   xmlns:sodipodi="http://sodipodi.sourceforge.net/DTD/sodipodi-0.dtd"
   xmlns="http://www.w3.org/2000/svg"
   xmlns:svg="http://www.w3.org/2000/svg"><defs
     id="defs6" /><sodipodi:namedview
     id="namedview4"
     pagecolor="#ffffff"
     bordercolor="#000000"
     borderopacity="0.25"
     inkscape:showpageshadow="2"
     inkscape:pageopacity="0.0"
     inkscape:pagecheckerboard="0"
     inkscape:deskcolor="#d1d1d1"
     showgrid="false"
     inkscape:zoom="0.70710678"
     inkscape:cx="916.41038"
     inkscape:cy="645.58849"
     inkscape:window-width="1920"
     inkscape:window-height="1200"
     inkscape:window-x="0"
     inkscape:window-y="0"
     inkscape:window-maximized="1"
     inkscape:current-layer="g8" /><g
     inkscape:groupmode="layer"
     inkscape:label="Image"
     id="g8"><path
       id="path1754"
       style="fill:#000000;fill-opacity:1"
       d="M 958.32031 239.32227 C 958.00151 239.32227 957.74242 243.25977 957.73242 248.07227 C 957.71732 261.68881 952.83053 272.77489 943.97266 279.28906 C 938.51426 283.30316 937.79619 283.11674 940.24219 278.32227 C 942.66129 273.58057 942.06125 273.4158 934.18945 276.6543 C 917.76621 283.41097 897.16376 301.51365 884.93359 319.93359 L 878.2207 330.04492 L 869.96094 329.93359 C 862.53184 329.83379 861.03221 330.15215 855.05664 333.09375 C 843.16877 338.94562 837.30956 348.45538 836.50586 363.20312 C 835.65546 378.80899 840.61954 392.48477 850.84961 402.71484 C 856.87008 408.73534 865.70466 413.80114 872.86133 415.33594 C 877.4738 416.32514 877.93018 416.70891 880.10938 421.45898 C 881.38845 424.24708 882.05369 426.83644 881.58789 427.21094 C 881.12209 427.58544 878.0453 429.67612 874.75 431.85742 C 865.69913 437.84872 852.48245 451.62075 845.00195 462.85742 C 830.85832 484.10282 820.17307 512.60832 816.92188 536.37109 C 816.9724 536.3553 817.01348 536.34272 817.06055 536.32812 C 816.39325 541.02341 815.90086 545.6051 815.87109 549.82227 C 815.87107 549.82648 815.87112 549.82977 815.87109 549.83398 C 815.87109 549.83523 815.8711 549.83664 815.87109 549.83789 C 815.87107 549.84092 815.87111 549.84267 815.87109 549.8457 C 815.84838 553.22144 815.95033 556.07469 816.2168 558.53125 C 816.21745 558.53726 816.21809 558.54477 816.21875 558.55078 C 817.02614 565.94714 819.34253 569.7003 824.33398 573 C 825.40449 573.70767 826.26162 574.22537 827.10742 574.62109 C 827.75146 574.923 828.40002 575.14893 829.12305 575.3125 C 830.94855 575.72396 833.3051 575.76355 837.67188 575.70898 C 852.50092 575.52378 868.18648 569.37896 894.80859 553.32422 C 901.51599 549.27922 907.54258 546.32398 909.08008 546.33398 C 909.78404 546.33687 910.94141 546.51235 912.24414 546.77344 C 912.89943 546.90001 913.55452 547.08585 914.25195 547.25391 C 914.81669 547.39228 915.36658 547.49741 915.91602 547.65234 C 915.91397 547.65689 915.91221 547.66147 915.91016 547.66602 C 916.15435 547.73483 916.41517 547.77826 916.65039 547.84961 C 922.69421 549.68311 928.23486 549.79638 928.25586 548.08789 C 928.26746 547.13993 928.47402 547.15721 929.10742 548.15625 C 929.72222 549.12585 930.8398 549.2399 933.3418 548.5918 C 936.01912 547.8981 936.85978 547.08828 937.29688 544.77539 C 937.8242 541.9848 937.88878 541.9498 938.61328 544.08789 C 939.48488 546.66038 940.1386 546.7976 943.73242 545.16016 C 945.15452 544.51216 946.11057 543.43824 945.85547 542.77344 C 945.56727 542.02524 946.05844 541.73929 947.15234 542.02539 C 948.13344 542.28189 950.28562 541.33135 952.01172 539.87891 L 954.91797 537.43164 L 955.07227 536.72852 C 955.07227 536.72852 958.56403 534.19967 957.59375 529.79102 C 957.3751 529.64881 957.0321 528.71999 956.37109 526.86914 C 954.51637 521.67561 947.6905 514.45067 942.42188 512.10547 C 940.29973 511.16086 937.6123 510.62613 934.2793 510.41406 C 933.39665 510.3571 932.50106 510.30739 931.50586 510.30469 C 931.27281 510.3043 931.03067 510.30788 930.79102 510.31055 C 929.77733 510.32061 928.66422 510.37435 927.52539 510.43945 C 925.55491 510.55614 923.49038 510.71131 921.07227 511.00586 C 921.0269 511.01139 920.9928 511.01394 920.94727 511.01953 C 912.16912 512.09703 900.26643 514.35908 884.33594 517.81836 C 881.23963 518.48963 878.67969 519.00024 875.24219 519.77148 C 846.87898 526.13508 849.40839 525.65988 851.74219 524.19141 C 852.84219 523.49931 859.59219 521.05381 866.74219 518.75781 L 879.74219 514.58398 L 883.83008 507.44531 L 887.91992 500.30664 L 889.73828 506.31445 C 890.71426 509.5381 891.51647 512.04452 891.60352 512.17188 C 894.06554 511.65497 896.52384 511.12055 898.99219 510.63281 C 909.20709 508.68103 919.47352 506.67543 929.89258 506.28516 C 932.95212 506.21805 936.03179 506.32412 939.04297 506.9082 C 943.39294 507.63754 947.32842 509.91171 950.5957 512.81055 C 954.32745 516.15233 957.76239 520.0183 959.78516 524.65234 C 960.33301 525.65229 960.40053 526.88161 961.13867 527.77148 C 962.54181 531.47177 961.51669 535.94867 958.73438 538.75 C 958.7851 539.43285 958.13324 539.82598 957.72656 540.29297 C 955.06731 542.48978 952.48565 545.14537 948.98047 545.88086 C 948.29863 546.8905 947.359 547.71476 946.30664 548.32227 C 944.0942 549.43748 941.62662 550.6655 939.08008 550.06445 C 938.16344 550.88851 937.05009 551.59622 935.85352 552.00586 C 933.61433 552.71882 931.17199 553.39357 928.8418 552.69922 C 927.05048 553.38186 925.09017 553.37798 923.20703 553.20508 C 918.80873 552.97766 914.70035 551.21602 910.38281 550.54883 C 909.63451 550.57162 908.89987 550.65446 908.17188 550.79883 C 907.51527 551.06258 906.86995 551.36426 906.22461 551.63672 C 904.03483 552.65767 902.08918 553.77957 899.97852 554.95508 C 898.09767 556.06596 896.19308 557.14193 894.30859 558.25 C 893.44235 559.17242 893.42765 559.93207 893.68945 561.1543 C 894.39375 564.44237 896.16894 578.15765 896.21094 580.64062 C 896.24004 582.35002 896.07253 582.33916 893.41016 580.44336 C 888.06706 576.63866 880.01896 574.03969 873.24219 573.92969 C 867.82359 573.84169 865.95651 574.28373 862.02344 576.5957 C 852.35747 582.2777 847.30669 594.42753 849.15039 607.5625 C 850.89129 619.96527 856.01619 632.74508 865.41016 648.10742 C 874.39483 662.80039 888.18415 678.16285 906.24219 693.60352 C 912.01716 698.54139 917.13233 702.93765 917.61133 703.37305 C 918.09023 703.80795 916.74023 703.78376 914.61133 703.31836 C 905.80856 701.39416 886.41315 700.1396 870.59961 700.4707 C 854.49327 700.8079 853.53039 700.942 848.99609 703.5 L 844.25 706.17773 C 842.3708 707.99783 841.7082 713.30917 840.5918 720.36914 L 844.44141 722.63867 L 849.5918 720.08203 C 856.48587 716.65983 860.99256 715.59235 855.02539 718.79492 C 850.36852 721.29432 848.24219 723.77048 848.24219 726.68945 C 848.24219 727.51315 851.44894 730.44711 855.36914 733.20898 L 862.49609 738.23047 L 865.82422 735.69336 C 873.77179 729.63139 886.10425 728.45379 916.38086 730.86719 C 928.67943 731.84759 940.37811 732.34089 942.37891 731.96289 C 947.88778 730.92209 951.24219 727.01778 951.24219 721.64648 C 951.24219 716.86701 949.13396 712.04024 943.24219 703.32227 C 940.31639 698.99307 925.8906 676.20144 921.86133 669.54297 C 921.43533 668.83897 924.27212 670.32485 928.16602 672.84375 C 936.56589 678.27762 942.88548 681.27078 946.01758 681.30078 C 948.21648 681.32198 948.24178 681.22382 946.76758 678.37305 C 944.50658 674.00085 944.86836 673.788 948.75586 677.20117 C 953.83013 681.65647 957.73183 683.41469 963.9707 684.05859 C 969.3118 684.60989 969.44082 684.56539 968.35742 682.54102 C 967.74332 681.39362 967.24219 679.66517 967.24219 678.70117 C 967.24219 677.22417 967.67499 677.3505 969.99219 679.5 C 977.64126 686.59557 989.65548 685.63554 1002.7051 676.88477 C 1006.3004 674.47387 1009.2422 672.72776 1009.2422 673.00586 C 1009.2422 673.86046 997.20321 690.34528 990.0293 699.31445 C 981.9079 709.46812 980.32305 713.27365 982.70312 716.90625 C 986.58052 722.82382 992.90927 722.56466 1022.2422 715.28906 C 1049.7874 708.45699 1061.552 706.3154 1075.3262 705.625 C 1089.9573 704.8917 1095.2533 706.06283 1101.8164 711.48633 C 1106.588 715.4292 1106.8585 715.51684 1113.1055 715.11914 C 1118.8011 714.75644 1119.8205 714.35865 1122.373 711.50195 C 1125.9741 707.47138 1125.9829 704.88357 1122.4102 699.25 C 1117.3907 691.33503 1111.1044 687.09802 1100.873 684.73242 L 1094.7422 683.31445 L 1100.6621 683.84766 C 1111.1069 684.78866 1119.7201 690.16477 1124.875 698.96094 C 1126.3976 701.55911 1127.8981 703.06035 1128.5859 702.67188 C 1133.2439 700.04088 1134.4439 696.11249 1131.9551 691.63672 C 1130.36 688.76782 1118.7015 678.65937 1114.2422 676.2793 C 1112.3172 675.2518 1111.3221 674.39119 1112.0312 674.36719 C 1114.5877 674.27959 1120.8291 678.24836 1125.1992 682.74023 C 1129.7535 687.42143 1131.9153 688.24882 1134.041 686.12305 C 1137.8715 682.29255 1133.2975 674.19421 1124.8672 669.88281 C 1116.8849 665.80054 1105.905 665.32531 1086.1738 668.20898 C 1071.8423 670.30348 1040.574 676.40221 1036.7422 677.84961 C 1035.6171 678.27461 1037.189 676.02894 1040.3379 672.71484 C 1063.1356 648.72093 1076.9924 626.62758 1080.8516 608.11914 C 1081.6601 604.24144 1082.0882 600.83809 1081.8047 600.55469 C 1081.7505 600.50054 1081.5327 600.59769 1081.3125 600.69727 C 1076.8666 604.83025 1072.2563 608.78765 1067.5098 612.56641 C 1054.0501 623.23608 1039.5217 632.56657 1024.2168 640.36328 C 1017.1445 643.90109 1009.8311 647.23606 1002.002 648.66016 C 996.23939 649.68322 990.02169 649.55099 984.68359 646.92383 C 982.42777 645.85222 980.18257 644.06182 979.74023 641.46094 C 977.72511 640.91554 975.65294 640.17634 974.10547 638.72461 C 972.12014 636.83573 971.69402 633.66194 972.93945 631.25391 C 970.35941 631.23901 967.7274 630.92284 965.35352 629.85742 C 962.66754 628.67905 960.02111 626.57909 959.47656 623.53906 C 958.91922 620.57563 960.60474 617.721 962.73047 615.78906 C 964.68234 613.83927 967.09007 612.23316 969.85156 611.76172 C 976.43658 610.82715 983.15827 611.914 989.7207 610.71289 C 986.72744 610.86093 983.68501 610.76772 980.77539 609.98828 C 976.50829 609.08032 973.27752 604.94195 973.29492 600.60352 C 973.29314 596.49679 976.05432 592.8114 979.58203 590.91797 C 982.97803 588.93283 987.03649 588.85507 990.85547 589.01953 C 999.08832 589.35941 1007.2869 590.43907 1015.3594 592.07812 C 1019.5876 592.82795 1023.6482 594.24633 1027.7363 595.52148 C 1028.1181 594.83007 1028.4951 594.13695 1028.873 593.44336 C 1032.5718 586.48883 1036.6353 579.73316 1040.9863 573.16602 L 1043.5 568.99023 L 1043.6504 548.90625 C 1043.7688 532.99611 1044.1939 527.1913 1045.6973 520.9707 L 1047.5938 513.11914 L 1053.168 524.18555 C 1060.4429 538.63119 1064.7609 544.73673 1067.0352 543.79883 C 1072.4186 541.57883 1072.2102 542.59793 1066.0371 548.6875 C 1058.4855 556.1369 1052.2418 563.50868 1046.3848 571.96094 C 1046.3927 572.00657 1046.4024 572.05197 1046.4102 572.09766 C 1042.2943 578.03061 1038.3341 584.3805 1034.3027 591.83789 C 1031.9241 596.23788 1029.8713 599.9674 1029.7402 600.125 C 1029.7347 600.13169 1029.4333 600.02863 1029.416 600.03125 C 1028.9443 599.99956 1026.7635 599.34604 1024.2383 598.54297 C 1023.258 598.23684 1023.2411 598.30961 1022.1035 597.92773 C 1012.427 594.67949 989.49926 591.92249 984.14844 593.36328 C 977.68514 595.10367 975.17368 601.15595 979.3457 604.93359 C 981.6198 606.99278 988.42355 607.34648 997.34961 605.87109 C 1000.8641 605.29019 1002.8281 605.52342 1005.623 606.84961 L 1009.2871 608.58789 L 999.59766 611.96289 C 991.02962 614.94698 988.71851 615.33789 979.65039 615.33789 C 970.07567 615.33789 969.19076 615.51089 966.31836 617.92773 C 962.34666 621.26972 962.38234 623.8436 966.43164 625.9375 C 968.98804 627.25949 971.52402 627.48622 979.18164 627.07812 C 987.06826 626.65788 990.71033 625.85301 999.99219 622.48242 C 1011.024 618.47639 1014.1868 618.16774 1008.252 621.67383 C 1004.1718 624.08413 995.12824 627.14338 986.92578 628.88867 C 978.55096 630.67067 976.24219 631.84774 976.24219 634.33398 C 976.24219 635.71948 977.38522 636.59997 980.32422 637.48047 C 985.65854 639.07877 993.81261 637.48446 1004.7422 632.70703 C 1009.1422 630.78364 1013.4172 628.97816 1014.2422 628.69336 C 1017.1549 627.68767 1011.678 631.46307 1004.5391 635.38281 C 998.23731 638.84289 996.52392 639.33789 990.84766 639.33789 C 987.27926 639.33789 984.11195 639.73691 983.81055 640.22461 C 983.08675 641.39581 985.43041 643.27247 988.92773 644.32227 C 996.56604 646.61497 1006.0688 644.64352 1019.4219 638.20312 C 1019.4232 638.19722 1019.4245 638.19146 1019.4258 638.18555 C 1020.0233 637.89733 1020.5173 637.73247 1021.1309 637.42578 C 1034.6184 630.68418 1047.7193 622.5322 1059.7539 613.48633 C 1059.7614 613.48067 1059.7698 613.47636 1059.7773 613.4707 C 1060.048 613.26721 1060.3007 613.0501 1060.5703 612.8457 C 1063.2557 610.8096 1065.9017 608.74021 1068.4707 606.62109 C 1069.6733 605.62846 1070.8078 604.59881 1071.9824 603.58984 C 1073.5743 602.22326 1075.1914 600.8706 1076.7285 599.47656 C 1078.3527 598.00271 1079.8867 596.49134 1081.4453 594.99023 C 1082.4562 594.01708 1083.5125 593.06155 1084.4941 592.07812 C 1086.1231 590.44556 1087.6474 588.78231 1089.1914 587.125 C 1090.1221 586.12622 1091.1117 585.14325 1092.0098 584.13672 C 1105.1976 569.35685 1112.2422 557.67628 1112.2422 550.58398 C 1112.2422 549.21551 1111.2444 546.32124 1110.0254 544.15234 C 1108.2154 540.93197 1108.0597 540.05428 1109.1777 539.36328 C 1111.9359 537.65868 1108.1194 514.05958 1101.5703 492.32227 C 1095.0754 470.76513 1083.8532 450.80255 1071.9941 439.70898 C 1066.2938 434.37661 1057.6861 427.97094 1055.0312 427.08594 C 1054.4642 426.89684 1055.2868 424.43088 1056.873 421.56641 C 1059.5652 416.70441 1060.1393 416.26578 1066.2422 414.39648 C 1086.5139 408.18731 1100.2422 388.72636 1100.2422 366.19922 C 1100.2422 350.03645 1093.5696 338.56882 1080.7422 332.68555 C 1075.7091 330.37705 1073.4255 329.94147 1066.5762 329.98047 L 1058.4102 330.02539 L 1056.5801 325.92383 C 1053.713 319.49923 1040.8907 303.07299 1033.4746 296.32422 C 1029.771 292.95392 1023.0263 287.70879 1018.4863 284.66602 C 1009.8213 278.85852 996.95959 272.81258 996.43359 274.30078 C 996.26389 274.78078 997.08261 277.05166 998.25391 279.34766 L 1000.3848 283.52344 L 995.36523 279.67383 C 992.53762 277.50463 986.23759 270.3488 980.93359 263.2832 C 972.98682 252.69713 960.36431 239.32227 958.32031 239.32227 z M 1065.9043 340.30078 C 1066.795 340.31852 1067.9904 340.39121 1069.5762 340.49219 C 1077.5039 340.99699 1083.1576 344.37232 1086.4707 350.57422 C 1088.4524 354.28412 1088.7422 356.2814 1088.7422 366.32227 C 1088.7422 376.65774 1088.4739 378.39246 1086.1055 383.44336 C 1083.0762 389.90413 1077.6444 396.28031 1071.7988 400.23828 C 1062.2843 406.68025 1061.706 404.51594 1070.7031 396.13477 C 1082.3893 385.2485 1084.8624 376.06241 1079.3691 363.94727 C 1077.2486 359.27077 1076.7546 357.15759 1077.4746 355.87109 C 1079.0528 353.05092 1076.9974 351.98238 1071.5664 352.79688 C 1068.9125 353.19475 1066.5172 353.51977 1066.2422 353.50977 C 1065.9672 353.50377 1065.417 351.54593 1065.0195 349.16016 C 1064.622 346.77436 1064.0355 343.75642 1063.7188 342.45312 C 1063.2925 340.70062 1063.232 340.24757 1065.9043 340.30078 z M 869.31836 340.32227 C 874.44513 340.32227 874.45686 340.32967 873.69336 343.07227 C 873.27226 344.58474 872.43032 348.14006 871.82422 350.97266 L 870.72266 356.12305 L 867.23242 354.26562 C 865.31252 353.24365 863.00848 352.38823 862.11328 352.36523 C 859.97318 352.31013 857.76076 354.90757 859.19336 355.79297 C 860.90026 356.84787 860.40979 359.52608 857.54102 364.83008 C 854.19152 371.02265 853.88682 378.85067 856.76172 384.82227 C 857.82082 387.02224 861.73737 391.80853 865.46484 395.45703 C 869.19224 399.10553 872.24219 402.36803 872.24219 402.70703 C 872.24219 405.79133 861.28533 398.58463 856.20703 392.16016 C 850.18036 384.53596 847.98063 377.59141 847.86523 365.82227 C 847.78253 357.39687 848.10335 355.19244 849.90625 351.82227 C 854.03515 344.10397 860.41959 340.32227 869.31836 340.32227 z M 999.74219 341.17578 C 1007.7167 341.21148 1013.3576 342.93131 1019.5977 347.22461 C 1025.5046 351.28871 1030.0372 356.66077 1033.1406 363.27734 C 1035.4895 368.28524 1035.7422 369.9859 1035.7422 380.82227 C 1035.7422 390.88414 1035.4032 393.55141 1033.6523 397.33398 C 1029.4344 406.44628 1021.069 412.07536 1010.291 413.05273 L 1004.6152 413.56641 L 1009.9746 418.92578 C 1017.6855 426.63665 1020.7402 433.6989 1020.7402 443.82227 C 1020.7402 453.72644 1017.6889 461.01917 1010.7051 467.80664 C 1005.4416 472.92214 994.38328 478.58246 986.44141 480.22656 C 978.89321 481.78906 956.90796 481.49679 950.24219 479.74609 C 940.49392 477.18602 930.86804 471.78749 925.41797 465.82422 C 919.32597 459.15865 916.86322 452.55848 916.82422 442.78711 C 916.79002 434.14814 919.91992 427.02408 927.29102 418.95898 L 932.19336 413.5957 L 927.21875 413.00586 C 916.64508 411.75356 907.95658 405.73907 904.23828 397.0957 C 901.18138 389.98993 900.8178 372.47379 903.5625 364.60352 C 908.78447 349.62945 927.18353 339.65272 944.45117 342.43359 C 951.52104 343.57209 962.58054 348.97977 966.75781 353.33984 L 969.54883 356.25391 L 975.36133 350.87305 C 982.7564 344.02645 990.03138 341.13278 999.74219 341.17578 z M 1002.6465 360.65039 C 991.55762 360.28955 980.25181 368.1026 980.24219 377.30469 L 980.24219 380.78711 L 982.83984 376.96289 C 987.53314 370.05622 999.84382 366.33767 1007.9258 369.38477 C 1015.4966 372.23904 1021.1838 381.30267 1021.2188 390.57227 L 1021.2148 390.57227 C 1021.2269 393.73474 1021.486 396.32227 1021.7891 396.32227 C 1023.2038 396.32227 1025.2385 388.80504 1025.2285 383.60547 C 1025.2116 373.1901 1017.9189 364.10022 1007.3516 361.32422 C 1005.8099 360.91922 1004.2306 360.70194 1002.6465 360.65039 z M 937.5918 360.75195 C 928.53433 360.28443 918.58462 365.91264 914.15039 374.5332 C 911.98549 378.7419 911.57787 388.11923 913.33984 393.17383 L 913.33594 393.17383 C 915.02174 398.0099 916.23577 396.92934 916.25977 390.57227 C 916.31237 376.8121 926.15012 367.63925 939.91406 368.51562 C 945.01426 368.84032 946.84063 369.46028 949.8457 371.89258 C 951.8708 373.53158 954.36241 376.42933 955.38281 378.33203 L 957.23828 381.79102 L 957.23828 377.80664 C 957.23128 370.41317 950.89376 363.82178 941.40039 361.33398 C 940.16157 361.00933 938.88572 360.81874 937.5918 360.75195 z M 1071.1953 362.32227 C 1071.6917 362.32227 1073.0711 364.90977 1074.2598 368.07227 C 1077.0231 375.42424 1076.4594 380.0147 1072.082 385.82617 C 1070.2447 388.26537 1068.4047 390.27402 1067.9922 390.29102 C 1067.5797 390.30802 1067.2422 385.35071 1067.2422 379.27344 C 1067.2422 368.51527 1068.6859 362.32227 1071.1953 362.32227 z M 865.39062 363.50195 C 865.9395 363.511 866.58289 364.06843 867.45898 365.07227 C 868.57558 366.35154 869.12963 370.11717 869.51953 379.07227 C 869.81323 385.80974 869.95428 391.32227 869.83398 391.32227 C 869.04631 391.32227 864.18997 385.26872 862.85547 382.62305 C 860.83747 378.62105 860.8175 375.11008 862.7793 368.50391 C 863.82111 364.99578 864.47585 363.48688 865.39062 363.50195 z M 1136.7246 365.97852 C 1125.4876 365.62197 1114.5627 370.01714 1105.332 379.88477 C 1084.989 401.63178 1083.6175 434.38288 1102.5195 447.01562 C 1115.7595 455.86412 1129.8074 448.76501 1129.6191 433.32227 C 1129.553 427.90667 1126.6933 420.33909 1124.1094 418.74219 C 1122.1097 417.50629 1129.4075 414.41023 1134.4258 414.36523 C 1140.4805 414.31113 1143.2296 415.41226 1148.1758 419.88086 C 1155.4226 426.42793 1161.5213 439.96768 1164.9023 457.01172 C 1167.571 470.46459 1167.2788 499.7197 1164.3066 516.82227 C 1156.1107 563.98312 1136.6385 587.1811 1094.5156 599.96484 L 1085.291 602.76562 L 1084.1543 608.29297 C 1081.241 622.45101 1072.9064 639.16187 1060.2305 656.25781 L 1054.041 664.60352 L 1060.3906 663.89844 C 1083.8901 661.28994 1115.4888 650.55661 1135.8242 638.27344 C 1180.0637 611.5516 1202.5282 575.97727 1208.7266 522.82812 C 1212.31 492.10204 1209.1061 454.67299 1200.7539 429.67188 C 1187.6838 390.548 1161.446 366.7629 1136.7246 365.97852 z M 937.15234 373.47656 C 936.85136 373.4852 936.47241 373.56468 935.99219 373.69336 C 934.75469 374.02506 933.21356 374.29859 932.56836 374.30859 C 931.92316 374.31609 930.01066 375.70809 928.31836 377.40039 C 922.64139 383.07746 924.83048 392.43318 932.65625 395.93945 C 938.58452 398.59555 945.26648 395.66051 948.60938 388.93164 C 950.05155 386.02874 950.23883 384.67359 949.42773 382.99609 C 948.84963 381.80049 948.34559 381.38477 948.30859 382.07227 C 948.19239 384.21874 943.26701 383.44084 940.69531 380.86914 C 939.31861 379.49244 938.24219 377.24505 938.24219 375.75195 C 938.24219 374.0475 938.05528 373.45066 937.15234 373.47656 z M 998.09961 374.32227 C 994.56987 374.32227 989.55969 378.59638 988.74609 382.30078 C 988.31989 384.24138 988.78149 386.75374 990.11719 389.77344 C 991.22409 392.27551 992.26705 394.32789 992.43555 394.33789 C 992.60395 394.34619 994.54215 394.99003 996.74219 395.76953 C 1002.8311 397.92693 1007.6919 396.21885 1011.3789 390.62695 C 1013.3822 387.58868 1013.8504 382.81624 1012.2422 381.82227 C 1011.6922 381.48237 1011.2422 381.68117 1011.2422 382.26367 C 1011.2422 382.84617 1009.7362 383.32227 1007.8965 383.32227 C 1004.0014 383.32227 1001.3486 380.88012 1001.0273 376.99805 C 1000.8463 374.81195 1000.3105 374.32227 998.09961 374.32227 z M 970.86523 402.40625 C 970.62293 402.42202 970.49022 402.4903 970.49219 402.62109 C 970.50159 403.24909 974.119 405.22843 978.5293 407.01953 C 987.80398 410.78653 990.0936 411.28891 987.875 409.07031 C 985.876 407.07149 973.20749 402.25377 970.86523 402.40625 z M 963.05469 403.02344 C 957.88238 403.13076 948.59961 407.1891 948.59961 409.44531 C 948.59961 410.34791 949.55801 410.21089 950.87109 409.12109 C 952.12049 408.08419 956.47603 406.31932 960.54883 405.19922 C 966.47441 403.56972 967.07267 403.13689 963.54297 403.02539 C 963.38513 403.02043 963.22154 403.01998 963.05469 403.02344 z M 957.49414 410.81445 C 957.19506 410.83737 956.9156 410.89446 956.66602 410.99023 C 955.40132 411.47553 956.0248 412.52015 959.6543 415.99805 C 962.17677 418.41512 964.24219 420.82652 964.24219 421.35742 C 964.24219 421.88822 964.72661 422.32227 965.32031 422.32227 C 966.55661 422.32227 965.62497 416.91103 963.91797 414.17773 C 962.85679 412.47856 960.43193 411.1033 958.44336 410.8457 C 958.11193 410.80277 957.79322 410.79153 957.49414 410.81445 z M 978.26367 411.32227 C 974.8865 411.32227 972.66303 413.96436 971.61133 419.22266 L 970.95312 422.51562 L 976.09766 417.37109 C 978.92693 414.54172 981.24219 412.02419 981.24219 411.77539 C 981.24219 411.52659 979.90097 411.32227 978.26367 411.32227 z M 923.71484 449.32227 C 923.39214 449.32227 923.92795 450.67781 924.90625 452.33398 C 928.76485 458.86598 941.34338 466.38572 952.43945 468.79492 C 960.84512 470.62022 976.10672 470.63146 984.74219 468.81836 C 994.44746 466.78076 1005.3005 461.24052 1009.7344 456.06055 C 1011.7147 453.74695 1012.8702 451.69887 1012.3027 451.50977 C 1011.7352 451.32057 1007.6905 452.54668 1003.3145 454.23438 C 980.75075 462.93585 954.58292 462.06746 930.20898 451.80859 C 926.96041 450.44132 924.03754 449.32227 923.71484 449.32227 z M 932.05078 523.69141 C 932.10468 523.63021 932.32969 523.7342 932.74219 524.02539 C 935.59661 526.04018 938.23811 528.726 941.16211 532.58789 C 943.64151 535.86258 941.75431 534.29969 935.74219 528.09766 C 933.26719 525.54451 931.88906 523.87499 932.05078 523.69141 z " /><g
       id="g510"
       transform="translate(-800.99121,-1002.678)"><path
         style="fill:#e6e6e6"
         d="m 1363.2682,1387.4547 c 6.9812,-3.6814 14.0493,-11.2147 17.564,-18.7198 2.2214,-4.7436 2.579,-6.8754 2.5996,-15.5 0.021,-8.9531 -0.2799,-10.6578 -2.8771,-16.2821 -3.7229,-8.0619 -12.2799,-16.2065 -20.102,-19.1332 -8.2482,-3.086 -8.2449,-3.0879 -7.2036,4.1653 0.4935,3.4375 1.0717,7.1975 1.2848,8.3557 0.2131,1.1582 2.1406,3.266 4.2834,4.684 7.4513,4.9311 10.9094,16.8621 7.6935,26.5442 -2.034,6.1239 -4.6045,9.5408 -9.504,12.6338 -3.5434,2.2368 -3.7406,2.658 -4.6674,9.9676 l -0.9676,7.6322 3.0419,-0.6413 c 1.6731,-0.3527 5.6576,-2.0206 8.8545,-3.7064 z"
         id="path479" /><path
         style="fill:#e6e6e6"
         d="m 1171.947,1388.9849 c -0.021,-6.625 -1.3189,-13.25 -2.5958,-13.25 -2.1744,0 -8.3675,-6.0246 -10.5097,-10.2238 -2.6707,-5.2351 -3.4501,-12.6891 -1.9041,-18.211 1.4714,-5.2554 6.7176,-11.7839 10.8424,-13.4924 2.6228,-1.0864 2.965,-1.7812 3.5275,-7.1634 0.3427,-3.2781 0.9025,-7.0738 1.2441,-8.4348 0.5466,-2.1778 0.2953,-2.4746 -2.0944,-2.4746 -5.1294,0 -14.9692,5.6578 -20.8083,11.9648 -8.5971,9.2859 -12.0786,21.0116 -9.6836,32.6149 2.865,13.8801 11.3045,23.9319 24.6344,29.3407 6.5183,2.6449 7.3577,2.5683 7.3475,-0.6704 z"
         id="path477" /><path
         style="fill:#ffffff"
         d="m 1231.4902,1390.8582 c 4.4501,-2.0214 14.436,-12.4341 16.8959,-17.618 4.8201,-10.1577 -1.6448,-21.9862 -12.6976,-23.232 -5.6323,-0.6348 -10.9109,1.0661 -15.3186,4.9361 l -3.4143,2.9977 v -3.4687 c 0,-4.4123 3.1263,-8.4372 8.4214,-10.8421 7.565,-3.4359 14.2069,-2.1201 24.3378,4.8214 5.0388,3.4526 7.9411,4.7347 11.4945,5.0781 4.3959,0.4247 5.3166,0.079 12.2313,-4.5924 12.4955,-8.4416 22.1203,-9.2652 29.5747,-2.5306 3.1094,2.8092 3.9403,4.2734 3.9403,6.9435 0,1.861 -0.2513,3.3837 -0.5586,3.3837 -0.3072,0 -2.3438,-1.4347 -4.5257,-3.1881 -3.2122,-2.5814 -5.0564,-3.2553 -9.6914,-3.5414 -7.5403,-0.4654 -12.7689,2.3818 -16.0386,8.7336 -4.086,7.9375 -1.1718,17.1451 8.1443,25.7323 9.4945,8.7518 17.7694,10.4989 25.7243,5.4315 10.6617,-6.7917 17.0163,-17.6741 17.7532,-30.4025 0.7732,-13.3571 -3.0335,-21.5852 -13.0553,-28.2185 -13.2767,-8.7877 -36.7508,-9.1257 -48.3865,-0.6969 l -4.0068,2.9025 -3.91,-2.9154 c -6.1188,-4.5623 -13.0497,-6.1276 -24.8284,-5.6075 -16.8803,0.7453 -27.5019,6.2768 -33.1101,17.2426 -2.7087,5.2964 -3.006,6.7954 -2.967,14.957 0.055,11.4717 2.5851,18.3618 9.5361,25.9673 8.3214,9.1049 16.0474,11.546 24.4551,7.7268 z"
         id="path471" /><path
         style="fill:#ffffff"
         d="m 1273.3452,1478.3323 c 4.0219,-2.6859 6.1984,-3.3578 5.0954,-1.573 -0.3482,0.5634 -0.3309,2.4004 0.038,4.0822 l 0.6716,3.0578 8.1525,-7.8702 c 4.4838,-4.3286 11.2617,-10.3114 15.0619,-13.2952 8.9093,-6.9952 13.9344,-14.6631 16.1573,-24.6546 3.9716,-17.8516 -3.372,-31.8123 -20.9468,-39.8214 -3.9733,-1.8107 -11.4758,-6.1898 -16.6721,-9.7314 -9.7601,-6.652 -14.3673,-8.7987 -18.8471,-8.7819 -3.595,0.014 -10.9127,3.6054 -21.999,10.7983 -5.1691,3.3538 -11.6941,6.9004 -14.5,7.8814 -3.6496,1.276 -6.9687,3.6377 -11.6607,8.2972 -8.1474,8.0908 -10.4732,14.1777 -9.6917,25.3648 0.9642,13.8022 5.9956,22.1736 20.0815,33.4125 3.8564,3.077 10.0268,8.4389 13.712,11.9153 3.6852,3.4764 6.9831,6.3208 7.3288,6.3208 0.3456,0 0.6284,-1.8116 0.6284,-4.0257 v -4.0257 l 3.25,1.6573 c 1.7875,0.9115 5.4258,3.6769 8.0851,6.1454 l 4.8352,4.4882 3.6648,-3.5223 c 2.0157,-1.9373 5.4152,-4.6912 7.5544,-6.1198 z"
         id="path463" /><path
         id="path303"
         style="fill:#000000"
         d="m 1203.0282,1735.8125 c -2.4774,-2.4775 -2.7703,-8.4692 -0.6609,-13.5178 1.741,-4.1668 8.2084,-10.7557 13.2886,-13.5383 2.606,-1.4274 3.0139,-1.8857 1.299,-1.4592 -7.7071,1.9165 -16.8514,11.4303 -19.1106,19.8828 -1.3152,4.9209 -2.5529,6.5592 -4.9551,6.5592 -2.6874,0 -4.9343,-3.8827 -4.9343,-8.5268 0,-6.3081 4.731,-12.9689 14.0414,-19.769 1.4895,-1.0879 0.7331,-0.8908 -1.9189,0.5 -5.9579,3.1245 -12.8434,10.9817 -14.1431,16.1389 -1.5995,6.3466 -2.7892,8.6569 -4.4579,8.6569 -2.2197,0 -5.504,-3.6446 -5.6321,-6.25 -0.499,-10.1424 4.7368,-17.535 17.1597,-24.2287 7.9427,-4.2797 7.1202,-4.6452 -1.1072,-0.492 -8.1461,4.1122 -13.6806,9.3538 -16.8445,15.9534 -2.9058,6.0612 -4.7702,6.8543 -6.9563,2.9594 -4.6552,-8.2938 5.9095,-19.6603 23.6084,-25.4001 2.8872,-0.9363 5.9247,-2.6665 6.75,-3.8447 3.0806,-4.3982 2.0256,-6.2421 -8.2495,-14.4185 -19.0962,-15.1959 -29.9591,-26.3579 -40.1728,-41.2788 -13.5009,-19.7233 -18.1692,-34.2238 -15.9845,-49.6504 0.9159,-6.4676 4.4771,-16.3496 5.8918,-16.3496 0.406,0 6.0881,2.6905 12.6269,5.979 6.5387,3.2884 18.3874,8.4588 26.3304,11.4897 16.3386,6.2345 17.6518,7.2223 27.9557,21.0313 17.6698,23.6803 32.0858,50.8858 41.2804,77.9033 5.057,14.8595 5.4118,20.5962 1.6274,26.3148 -3.8765,5.8578 -8.3536,7.6128 -21.0356,8.2461 -9.743,0.4865 -10.96,0.7658 -13.2264,3.0358 -1.3728,1.375 -3.3255,4.9409 -4.3394,7.9243 -1.0138,2.9833 -2.7914,6.0538 -3.9503,6.8233 -1.8712,1.2424 -2.339,1.167 -4.1803,-0.6743 z m 190.7318,-29.7863 c -0.8646,-0.9829 -2.4807,-3.587 -3.5912,-5.787 -1.1106,-2.2 -3.2014,-5.1036 -4.6463,-6.4524 -2.7674,-2.5832 -2.4014,-2.542 -18.0676,-2.0364 -9.5416,0.3078 -15.008,-1.548 -19.4451,-6.6016 -5.4168,-6.1693 -5.9438,-13.8472 -2.5332,-36.9096 0.244,-1.65 -0.4749,-0.3 -1.5976,3 -1.1226,3.3 -2.579,10.2443 -3.2365,15.4318 l -1.1954,9.4318 -10.9961,5.7584 c -16.3372,8.5554 -25.6907,11.0364 -43.4961,11.5369 -11.3114,0.318 -16.3552,0.015 -22.9367,-1.3756 l -8.4367,-1.7833 -3.6675,-10.5 c -9.6568,-27.6467 -28.3513,-61.4687 -44.4925,-80.4959 -5.5212,-6.5084 -5.6417,-6.7673 -2.8651,-6.1575 6.0268,1.3237 18.971,2.6031 20.7241,2.0483 1.1423,-0.3615 3.8063,0.7374 7.1174,2.9358 11.6929,7.7636 31.9764,16.1282 44.057,18.1684 6.9369,1.1715 7.2238,1.3717 7.8845,5.5035 0.8044,5.0307 5.9759,10.3355 13.5291,13.8775 4.9375,2.3155 6.8063,2.616 16.0864,2.5866 11.9823,-0.038 16.274,-1.439 28.5,-9.3034 8.8933,-5.7205 38.959,-35.7471 50.4792,-50.4133 4.6442,-5.9125 8.7499,-10.75 9.1238,-10.75 1.3352,0 3.8389,7.9765 4.4859,14.2912 0.7927,7.7369 -0.9411,21.1065 -4.2112,32.4739 -1.3077,4.5458 -2.3777,8.7611 -2.3777,9.3672 0,0.6062 -2.25,6.2588 -5,12.5613 -5.7915,13.2731 -6.2875,17.6227 -2.5202,22.0999 2.7653,3.2864 4.0259,3.853 17.3874,7.8156 13.7179,4.0682 21.1198,10.3533 21.1291,17.9409 0.01,5.771 -3.9871,7.3004 -6.0513,2.3171 -0.7137,-1.7231 -2.4397,-4.4901 -3.8355,-6.1489 -2.8805,-3.4232 -9.8626,-8.7182 -11.4961,-8.7182 -0.5977,0 1.2501,1.5736 4.1061,3.4969 8.4549,5.6939 13.2214,15.8919 9.84,21.0526 -2.6811,4.0919 -5.6409,2.9411 -7.8435,-3.0495 -2.2128,-6.0185 -8.4984,-12.7887 -14.9327,-16.0842 -6.2371,-3.1945 -7.4949,-3.0796 -1.7833,0.1629 5.9099,3.3551 11.8912,9.1267 13.6164,13.1391 1.8012,4.1889 1.7675,9.7187 -0.068,11.2423 -2.5897,2.1493 -4.9874,0.6328 -7.7995,-4.933 -3.3599,-6.65 -8.8174,-12.398 -14.2839,-15.0443 -6.2705,-3.0355 -7.5983,-2.3572 -1.5018,0.7672 9.7882,5.0162 16.2751,16.1721 12.9001,22.185 -1.7853,3.1808 -4.012,3.6777 -6.0579,1.352 z m -91.8051,-71.6504 c -8.8669,-2.5876 -14.8912,-6.6405 -17.595,-11.837 -3.0721,-5.9045 -0.7461,-7.6404 4.4167,-3.2962 4.2562,3.5813 11.1078,6.4636 15.1783,6.3852 3.4837,-0.067 3.4787,-0.073 -1.0643,-1.3271 -6.1506,-1.6974 -13.1856,-5.9433 -16.9488,-10.2293 -3.3098,-3.7697 -3.5283,-5.962 -0.7673,-7.7007 1.388,-0.8741 2.3521,-0.4817 5,2.035 4.0622,3.8609 10.0198,6.8626 15.2804,7.699 l 4,0.636 -4.7176,-1.8918 c -10.7017,-4.2916 -19.0718,-12.8319 -16.7775,-17.1188 1.5185,-2.8374 2.7009,-2.5169 7.6937,2.0853 4.246,3.9138 9.8191,6.9753 12.5193,6.8772 0.7052,-0.026 -0.7729,-1.1174 -3.2847,-2.4261 -5.6863,-2.9628 -11.9332,-9.7279 -11.9332,-12.9232 0,-4.3651 2.8642,-3.929 8.5949,1.3085 2.9655,2.7103 6.905,5.4272 8.7544,6.0376 6.6305,2.1883 10.7347,-1.7806 9.2934,-8.987 -0.5692,-2.8459 -0.4451,-2.9679 3.1323,-3.0816 8.7173,-0.2768 9.0258,-0.5296 15.1117,-12.3816 3.1066,-6.05 7.0616,-13.046 8.7889,-15.5466 5.1484,-7.4533 14.2224,-15.9974 19.6965,-18.5462 3.8981,-1.8151 4.5284,-2.3795 2.6279,-2.3536 -1.375,0.019 -4.1207,0.6134 -6.1017,1.3214 l -3.6017,1.2873 -2.5412,-4.0812 c -6.3928,-10.2664 -10.0282,-19.8446 -14.2766,-37.6145 -1.8872,-7.8937 -2.3661,-9.1146 -1.9479,-4.9666 1.5973,15.8432 8.4099,36.5721 14.5313,44.2146 l 2.9753,3.7147 -2.5573,1.6756 c -4.4648,2.9255 -15.2204,18.4089 -20.1516,29.0096 l -4.7606,10.2339 -6.2934,0.3258 -6.2934,0.3258 -4.0279,-7.9434 c -6.9154,-13.6381 -14.9475,-24.5544 -26.95,-36.6273 -17.2314,-17.3323 -34.1365,-27.8501 -53.8284,-33.4904 -8.3715,-2.3978 -10.3146,-2.6019 -19,-1.9961 -15.8935,1.1085 -15.6153,1.1404 -21.5751,-2.4716 -3.0733,-1.8626 -6.7311,-4.3056 -8.1285,-5.4289 l -2.5408,-2.0423 1.5937,-8.3578 c 0.8766,-4.5967 1.4231,-8.5283 1.2146,-8.7369 -0.2086,-0.2085 -1.1735,2.9899 -2.1443,7.1077 -0.9708,4.1178 -2.128,7.487 -2.5716,7.487 -0.4436,0 -3.0588,-2.025 -5.8116,-4.5 -2.7528,-2.475 -5.747,-4.5 -6.6536,-4.5 -2.4977,0 -6.5577,4.5852 -6.5577,7.4061 0,1.984 1.3868,3.3956 6.75,6.8713 9.0758,5.8815 18.4325,13.7938 20.1679,17.0545 1.2479,2.3445 1.1937,3.5643 -0.4519,10.1728 -1.5996,6.4238 -1.7079,8.4544 -0.7491,14.0518 0.6164,3.5986 1.6624,7.1955 2.3244,7.9932 2.5306,3.0492 27.8887,1.1032 41.4587,-3.1816 2.75,-0.8683 8.0025,-3.3307 11.6723,-5.4719 7.3505,-4.2889 9.8277,-4.2582 9.8277,0.1219 0,3.5787 -4.1437,7.1576 -13.4717,11.6352 -5.9711,2.8663 -6.5354,3.3467 -3.9315,3.3467 4.3,0 12.8334,-2.6674 20.1998,-6.314 4.9005,-2.426 6.6742,-2.8792 8,-2.0444 6.4342,4.0518 -4.7294,13.1021 -20.7966,16.8598 -7.5078,1.7559 -12.1855,3.9722 -6.4687,3.0649 1.6328,-0.2592 5.5326,-0.7188 8.6663,-1.0213 3.1336,-0.3026 8.8922,-1.7026 12.7968,-3.111 7.8314,-2.825 11.3077,-2.8649 11.828,-0.136 1.0603,5.5615 -12.4263,12.1216 -28.0155,13.6272 -5.8958,0.5694 -7.1459,0.8926 -4.3069,1.1135 6.3112,0.4912 11.3493,0.074 20.6071,-1.7069 4.7339,-0.9105 9.3464,-1.3718 10.25,-1.0251 2.4061,0.9233 2.0355,5.3021 -0.6071,7.1719 -3.3084,2.341 -14.7531,5.6085 -23.0231,6.5733 -6.1187,0.7138 -5.4414,0.7747 4.4168,0.3972 9.7055,-0.3716 11.7393,-0.1964 12.2186,1.0525 1.5105,3.9363 -3.3706,7.3341 -11.7831,8.2023 -2.8578,0.295 -10.3446,-0.1658 -16.6375,-1.0239 -6.2929,-0.8581 -14.7216,-1.8411 -18.7305,-2.1845 -23.6169,-2.0228 -70.7987,-23.3846 -89.5974,-40.5656 -8.0785,-7.3833 -9.9665,-11.9612 -9.379,-22.7422 0.958,-17.5825 9.4806,-47.5924 19.3613,-68.1758 10.0568,-20.9503 24.5742,-40.0646 36.8512,-48.5201 7.8766,-5.4248 7.4432,-7.4992 -1.9473,-9.3204 -19.1395,-3.712 -35.6025,-19.8975 -39.5424,-38.8758 -1.4932,-7.1927 -0.7471,-19.131 1.6395,-26.2318 5.6442,-16.7938 23.4397,-30.8441 41.4499,-32.7265 l 5.8292,-0.6093 2.6669,-8.114 c 2.8892,-8.7905 9.1668,-21.614 10.5808,-21.614 0.4819,0 0.9104,1.0125 0.9522,2.25 0.042,1.2375 0.6658,3.825 1.3866,5.75 1.1319,3.0227 1.4002,3.2273 1.9682,1.5 4.1287,-12.5574 14.3686,-24.544 26.3191,-30.8086 3.9875,-2.0903 7.25,-3.5421 7.25,-3.2261 0,0.3159 -1.0636,2.2592 -2.3635,4.3185 -2.7307,4.3257 -7.6365,13.8391 -7.6365,14.8088 0,0.3626 2.2544,-1.5349 5.0097,-4.2167 9.2892,-9.0412 21.6412,-15.2345 35.8283,-17.9641 10.7292,-2.0644 10.8492,-1.9992 6.1495,3.3381 -2.3004,2.6125 -4.5981,5.5256 -5.106,6.4735 -0.8513,1.5888 -0.584,1.578 3.421,-0.1388 11.0774,-4.7483 28.7062,-5.43 37.675,-1.4569 l 4.4775,1.9835 -6.4775,3.1128 -6.4775,3.1129 7.6447,0.082 c 10.3143,0.11 19.3119,2.9957 26.0414,8.3519 l 5.3139,4.2297 -4.8335,0.3082 -4.8336,0.3082 4.5933,3.0425 c 5.8997,3.9077 13.7381,12.7131 17.1955,19.3167 2.7003,5.1574 2.7313,5.1786 9.237,6.293 26.2201,4.4913 44.5772,30.2014 40.2541,56.3784 -1.8315,11.0905 -5.9539,18.9269 -14.3417,27.2625 -8.0652,8.015 -13.7224,11.182 -24.222,13.5597 -5.8576,1.3266 -7.1019,1.9623 -7.3618,3.7613 -0.2406,1.6661 0.6246,2.643 3.7561,4.2406 5.0389,2.5706 17.1104,13.8337 22.0024,20.5289 9.0603,12.3999 12.9465,21.8351 21.1901,51.4468 10.8018,38.8016 12.1344,45.1954 11.6726,56.0051 -0.3486,8.1618 -0.8638,10.4943 -3.5481,16.0651 -6.3534,13.1857 -21.7516,32.4248 -42.8657,53.5581 -20.9804,20.9996 -31.4077,27.3866 -45.7391,28.0163 -4.8689,0.214 -9.969,-0.1708 -12.6556,-0.9548 z m -116.5697,-93.7716 c -0.8917,-1.7242 -4.2922,-5.8815 -7.5567,-9.2385 l -5.9355,-6.1035 3.531,-6.8643 c 3.3171,-6.4485 4.538,-11.6587 2.7318,-11.6587 -0.4395,0 -1.3833,1.6155 -2.0973,3.59 -0.714,1.9746 -2.6623,5.7846 -4.3296,8.4667 l -3.0315,4.8766 -4.1212,-2.4007 c -5.8493,-3.4075 -12.8073,-4.9923 -16.3108,-3.7151 -2.7548,1.0043 -2.7313,1.0263 1.1895,1.1133 7.6159,0.1689 20.0933,7.8998 31.4659,19.4959 3.0062,3.0653 5.6053,5.5733 5.7757,5.5733 0.1704,0 -0.4197,-1.4108 -1.3113,-3.135 z m 87.9593,-62.2676 c 4.0219,-2.6859 6.1984,-3.3578 5.0954,-1.573 -0.3482,0.5634 -0.3309,2.4004 0.038,4.0822 l 0.6716,3.0578 8.1525,-7.8702 c 4.4838,-4.3286 11.2617,-10.3114 15.0619,-13.2952 8.9093,-6.9952 13.9344,-14.6631 16.1573,-24.6546 3.9716,-17.8516 -3.372,-31.8123 -20.9468,-39.8214 -3.9733,-1.8107 -11.4758,-6.1898 -16.6721,-9.7314 -9.7601,-6.652 -14.3673,-8.7987 -18.8471,-8.7819 -3.595,0.014 -10.9127,3.6054 -21.999,10.7983 -5.1691,3.3538 -11.6941,6.9004 -14.5,7.8814 -3.6496,1.276 -6.9687,3.6377 -11.6607,8.2972 -8.1474,8.0908 -10.4732,14.1777 -9.6917,25.3648 0.9642,13.8022 5.9956,22.1736 20.0815,33.4125 3.8564,3.077 10.0268,8.4389 13.712,11.9153 3.6852,3.4764 6.9831,6.3208 7.3288,6.3208 0.3456,0 0.6284,-1.8116 0.6284,-4.0257 v -4.0257 l 3.25,1.6573 c 1.7875,0.9115 5.4258,3.6769 8.0851,6.1454 l 4.8352,4.4882 3.6648,-3.5223 c 2.0157,-1.9373 5.4152,-4.6912 7.5544,-6.1198 z m -27.5009,-26.5908 c -20.7208,-1.973 -29.6522,-6.5907 -31.8836,-16.4841 -1.0014,-4.4402 -0.1506,-4.4569 2.8464,-0.056 5.2363,7.6896 18.2249,10.7977 45.1485,10.8038 13.577,0 20.4681,-0.436 25.8958,-1.65 9.6714,-2.1633 16.8958,-6.1155 18.9137,-10.347 2.8402,-5.9562 4.437,-3.1924 1.8007,3.117 -2.8242,6.7593 -9.4928,10.7449 -21.8657,13.0684 -9.557,1.7948 -30.092,2.5727 -40.8558,1.5478 z m 11.6468,-43.8949 c -0.3296,-1.0385 -2.3491,-3.0462 -4.4878,-4.4615 -6.1355,-4.0603 -6.3437,-9.6502 -0.3595,-9.6502 5.8977,0 9.2347,5.6159 8.4674,14.25 -0.208,2.3399 -2.8657,2.2384 -3.6201,-0.1383 z m 6.1312,1.2216 c -1.0527,-1.0527 -0.7773,-6.25 0.4583,-8.6491 3.0241,-5.8717 7.8225,-8.3368 10.675,-5.4842 2.4321,2.432 1.3495,5.6805 -2.757,8.2728 -2.1763,1.3739 -4.4421,3.4045 -5.0351,4.5126 -1.1118,2.0773 -2.1806,2.5085 -3.3412,1.3479 z m -32.1321,-18.21 c 4.4501,-2.0214 14.436,-12.4341 16.8959,-17.618 4.8201,-10.1577 -1.6448,-21.9862 -12.6976,-23.232 -5.6323,-0.6348 -10.9109,1.0661 -15.3186,4.9361 l -3.4143,2.9977 v -3.4687 c 0,-4.4123 3.1263,-8.4372 8.4214,-10.8421 7.565,-3.4359 14.2069,-2.1201 24.3378,4.8214 5.0388,3.4526 7.9411,4.7347 11.4945,5.0781 4.3959,0.4247 5.3166,0.079 12.2313,-4.5924 12.4955,-8.4416 22.1203,-9.2652 29.5747,-2.5306 3.1094,2.8092 3.9403,4.2734 3.9403,6.9435 0,1.861 -0.2513,3.3837 -0.5586,3.3837 -0.3072,0 -2.3438,-1.4347 -4.5257,-3.1881 -3.2122,-2.5814 -5.0564,-3.2553 -9.6914,-3.5414 -7.5403,-0.4654 -12.7689,2.3818 -16.0386,8.7336 -4.086,7.9375 -1.1718,17.1451 8.1443,25.7323 9.4945,8.7518 17.7694,10.4989 25.7243,5.4315 10.6617,-6.7917 17.0163,-17.6741 17.7532,-30.4025 0.7732,-13.3571 -3.0335,-21.5852 -13.0553,-28.2185 -13.2767,-8.7877 -36.7508,-9.1257 -48.3865,-0.6969 l -4.0068,2.9025 -3.91,-2.9154 c -6.1188,-4.5623 -13.0497,-6.1276 -24.8284,-5.6075 -16.8803,0.7453 -27.5019,6.2768 -33.1101,17.2426 -2.7087,5.2964 -3.006,6.7954 -2.967,14.957 0.055,11.4717 2.5851,18.3618 9.5361,25.9673 8.3214,9.1049 16.0474,11.546 24.4551,7.7268 z m 54.7923,-12.8446 c -3.2915,-0.6024 -7.1968,-5.0683 -7.9519,-9.0935 -0.9245,-4.928 1.9529,-10.1128 6.9727,-12.5643 3.2799,-1.6017 4.4162,-1.7087 7.6998,-0.7249 6.9375,2.0785 10.051,10.1453 6.5379,16.939 -2.0576,3.9789 -7.9788,6.41 -13.2585,5.4437 z m -59.3302,-3.1283 c -7.5088,-7.5088 -2.8873,-19.5504 7.5033,-19.5504 7.1096,0 11.5,4.7444 11.5,12.4272 0,3.2276 -0.6367,4.7634 -2.923,7.0497 -2.4746,2.4745 -3.7139,2.9231 -8.077,2.9231 -4.3326,0 -5.6078,-0.4541 -8.0033,-2.8496 z m -55.0053,14.0996 c -0.021,-6.625 -1.3189,-13.25 -2.5958,-13.25 -2.1744,0 -8.3675,-6.0246 -10.5097,-10.2238 -2.6707,-5.2351 -3.4501,-12.6891 -1.9041,-18.211 1.4714,-5.2554 6.7176,-11.7839 10.8424,-13.4924 2.6228,-1.0864 2.965,-1.7812 3.5275,-7.1634 0.3427,-3.2781 0.9025,-7.0738 1.2441,-8.4348 0.5466,-2.1778 0.2953,-2.4746 -2.0944,-2.4746 -5.1294,0 -14.9692,5.6578 -20.8083,11.9648 -8.5971,9.2859 -12.0786,21.0116 -9.6836,32.6149 2.865,13.8801 11.3045,23.9319 24.6344,29.3407 6.5183,2.6449 7.3577,2.5683 7.3475,-0.6704 z m 191.3212,-1.5302 c 6.9812,-3.6814 14.0493,-11.2147 17.564,-18.7198 2.2214,-4.7436 2.579,-6.8754 2.5996,-15.5 0.021,-8.9531 -0.2799,-10.6578 -2.8771,-16.2821 -3.7229,-8.0619 -12.2799,-16.2065 -20.102,-19.1332 -8.2482,-3.086 -8.2449,-3.0879 -7.2036,4.1653 0.4935,3.4375 1.0717,7.1975 1.2848,8.3557 0.2131,1.1582 2.1406,3.266 4.2834,4.684 7.4513,4.9311 10.9094,16.8621 7.6935,26.5442 -2.034,6.1239 -4.6045,9.5408 -9.504,12.6338 -3.5434,2.2368 -3.7406,2.658 -4.6674,9.9676 l -0.9676,7.6322 3.0419,-0.6413 c 1.6731,-0.3527 5.6576,-2.0206 8.8545,-3.7064 z m 39.748,227.6138 c 2.5299,-7.3412 4.9394,-20.959 4.9394,-27.9154 0,-6.6722 -1.6728,-14.7372 -4.1185,-19.8561 -1.0348,-2.1658 -1.8815,-4.0726 -1.8815,-4.2374 0,-0.1648 3.2625,-1.9413 7.25,-3.9479 10.4299,-5.2484 18.2552,-10.8152 25.4093,-18.0757 36.711,-37.2573 37.3807,-104.5351 1.5397,-154.6944 -6.9806,-9.7693 -21.2777,-24.3533 -30.7461,-31.3629 -6.893,-5.103 -7.0753,-5.3531 -8.3304,-11.4296 -1.4918,-7.2231 -5.6285,-16.7824 -10.0314,-23.1819 -1.7001,-2.471 -3.0911,-4.7649 -3.0911,-5.0977 0,-0.9246 4.0996,1.4446 7.9444,4.5912 4.0182,3.2886 4.9043,3.0991 2.5205,-0.5391 -1.3442,-2.0515 -1.4087,-2.5867 -0.312,-2.5867 1.7373,0 8.2526,4.2799 12.8471,8.4393 7.0596,6.391 7.5548,6.5684 5.1436,1.8421 -1.1789,-2.311 -2.1436,-4.4563 -2.1436,-4.7673 0,-1.9107 7.7734,4.0889 15.3218,11.8257 l 8.8219,9.0419 -2.5168,-5.6909 c -1.3842,-3.13 -2.1383,-5.6908 -1.6757,-5.6908 1.7978,0 15.7314,15.9883 19.0488,21.8579 5.6976,10.0806 5.9361,10.2922 4.8468,4.2992 -0.5303,-2.9177 -0.8065,-5.778 -0.6137,-6.3562 0.5741,-1.7224 10.3029,13.9117 15.6809,25.1991 4.8324,10.1424 5.0061,10.3638 5.102,6.5 0.055,-2.2 0.426,-5.8 0.8253,-8 l 0.7259,-4 3.3187,7.9262 c 3.585,8.5622 7.398,22.519 9.4366,34.5408 l 1.2773,7.533 3.4501,-8.397 3.4501,-8.397 1.2912,8.897 c 1.2708,8.7576 1.0068,37.7767 -0.3949,43.397 -0.3944,1.5813 1.287,-0.072 4.5759,-4.5 2.8597,-3.85 5.3464,-7.1481 5.526,-7.329 0.7102,-0.7157 -0.7342,12.7815 -2.1756,20.329 -0.8403,4.4 -3.0186,12.5 -4.8407,18 l -3.3128,10 6.9155,-7.3439 c 3.8035,-4.039 6.9154,-6.7113 6.9154,-5.9383 0,2.9063 -4.0064,16.5479 -6.5475,22.2938 -1.452,3.2831 -5.0728,9.7016 -8.0462,14.2632 -2.9734,4.5617 -5.4063,8.4835 -5.4063,8.7152 0,0.7572 7.4118,-2.1897 11.2927,-4.49 2.086,-1.2364 3.9672,-2.0736 4.1803,-1.8604 1.248,1.248 -11.7767,17.9128 -20.1205,25.7437 l -9.5772,8.9885 4.3624,-1.3153 c 2.3993,-0.7235 6.1048,-2.0447 8.2345,-2.936 2.1296,-0.8913 4.072,-1.6205 4.3163,-1.6205 0.2443,0 -1.7231,2.7656 -4.3721,6.1458 -6.0712,7.747 -15.0241,15.6979 -26.1447,23.2187 -4.7694,3.2254 -8.8967,6.08 -9.1717,6.3435 -1.0096,0.9673 9.6636,-0.9889 14.9907,-2.7475 3.0198,-0.9969 5.6207,-1.6825 5.7797,-1.5235 0.159,0.1589 -3.5478,3.9209 -8.2373,8.3599 -17.8847,16.9294 -41.6377,29.6105 -61.258,32.7042 l -4.2249,0.6662 z" /></g><path
       id="path3471"
       style="fill:#000000;stroke-width:1.7212"
       d="m 1484.5198,272.30615 v 0 c -0.8418,-0.0206 -1.0694,3.84259 -0.5075,8.58588 1.0013,8.45594 0.9459,8.58761 -2.7736,6.67965 -2.0867,-1.07042 -6.4018,-4.3722 -9.5909,-7.33525 l -5.7991,-5.38548 0.9044,5.16362 c 0.4972,2.83998 1.4364,6.83902 2.0876,8.88846 1.1361,3.57563 0.8915,3.66272 -6.0444,2.10435 -3.9755,-0.89331 -9.4694,-2.78491 -12.2099,-4.20215 -2.7404,-1.41724 -4.9852,-2.06803 -4.9852,-1.44547 0,3.58647 8.1254,13.29648 13.5072,16.13956 8.4446,4.46119 3.2793,4.40508 -5.9536,-0.0637 l -7.3016,-3.53311 -9.0161,4.56859 c -10.7671,5.45622 -25.0525,19.32465 -30.928,30.02348 -3.878,7.06175 -4.9524,7.82683 -12.4452,8.89863 -21.6759,3.10074 -37.3654,22.09887 -37.3654,45.24546 0,24.49548 16.7202,44.17573 39.86,46.91623 6.9726,0.82601 9.0148,1.83722 10.5625,5.23418 1.5841,3.47649 1.4049,4.49769 -1.0287,5.8595 -15.0732,8.43545 -49.6229,43.73132 -57.2569,58.49409 l -2.76,5.3316 6.6024,-4.93504 6.6026,-4.93159 -4.8208,6.45452 c -2.6517,3.55032 -6.0213,9.35938 -7.4866,12.90903 l -2.6625,6.45451 4.9989,-4.73331 c 7.3107,-6.92338 7.9974,-5.81079 2.1279,3.44241 -7.7173,12.1665 -10.2296,22.7433 -10.2296,43.08053 0,31.20026 4.7719,35.87867 34.6023,33.92992 22.0782,-1.44237 23.4788,-0.84666 41.1307,17.43391 l 11.1878,11.58456 -12.9091,-11.47028 c -11.929,-10.60158 -13.5094,-11.4732 -20.8292,-11.49041 -21.0628,-0.0516 -32.4126,21.31126 -24.9543,46.96667 4.7705,16.40944 23.9253,41.98946 45.249,60.42046 6.8632,5.93213 10.2668,9.93272 8.8547,10.41449 -5.5796,1.9033 -23.4891,4.38373 -31.6607,4.38373 -5.8465,0 -7.6088,1.06043 -11.0835,2.58181 -1.4033,0.61446 -2.6892,1.52911 -3.8022,2.5818 -5.3164,6.11148 -7.3126,10.10175 -0.874,13.94778 2.1787,1.45373 3.4686,1.30708 4.9404,-0.58538 1.2698,-1.53618 3.0443,-2.32828 4.5733,-3.61263 1.069,-0.89813 1.3086,-1.01242 2.4707,-1.79523 1.3764,-0.85784 2.8398,-1.57231 4.3703,-2.11123 1.2498,-0.43993 1.8107,-0.54751 3.0794,-0.86059 0.074,-0.0172 0.1395,-0.0258 0.1983,-0.0241 0.4122,0.0189 0.4582,0.48865 -0.053,0.61516 -1.234,0.30344 -1.7877,0.40775 -3.0022,0.83374 -1.4895,0.52273 -2.4586,1.61198 -3.7985,2.44539 -1.1292,0.75888 -1.7453,1.76943 -2.7843,2.64122 -1.5023,1.25975 -1.7262,2.1567 -2.9737,3.66448 -2.5074,3.20161 3.4884,5.09997 6.0178,6.01082 2.7115,0.91637 5.2959,0.68384 7.8989,-2.13859 2.7424,-3.03036 5.9278,-3.38716 34.5585,-3.87271 30.6557,-0.51997 31.6573,-0.65027 35.9706,-4.70646 5.9564,-5.60149 5.7345,-12.46427 -0.8606,-26.55766 -5.4319,-11.60781 -5.5289,-15.85504 -0.4875,-20.89646 6.5604,-6.56036 13.8411,-1.00104 18.5566,14.16964 5.9391,19.10589 13.1152,26.26524 26.3023,26.26524 7.1141,0 28.0417,-5.28048 54.0498,-13.62523 9.0911,-2.91692 18.9081,-5.30475 21.8142,-5.30475 8.257,0 14.7874,6.71941 18.0962,18.62068 1.5649,5.62885 3.9706,10.66578 5.3485,11.19453 3.9052,1.49866 6.7551,-3.43448 6.6328,-11.48714 -0.1394,-9.1809 -3.6983,-17.78537 -9.8936,-23.92198 -5.3478,-5.29684 -4.6069,-6.13506 1.7448,-1.97336 6.0345,3.95395 10.5108,12.11934 12.8014,23.35725 3.688,18.09416 12.1257,16.99982 12.1257,-1.57317 0,-9.97766 -3.018,-17.5284 -9.9844,-24.97434 -2.4358,-2.60331 -3.5986,-4.73331 -2.5851,-4.73331 3.6833,0 13.8257,13.32229 15.0303,19.74342 2.4262,12.9333 9.9601,17.86197 12.1392,7.94043 2.7565,-12.54999 -6.0771,-30.12055 -18.382,-36.56216 -6.0614,-3.17321 -10.9076,-4.00197 -26.7291,-4.56859 -17.8993,-0.64081 -19.2038,-0.91947 -17.6826,-3.76169 2.6279,-4.91146 16.5967,-13.28993 28.9983,-17.39363 6.2981,-2.08386 17.5506,-6.34901 25.0045,-9.48005 42.0329,-17.65645 67.7386,-43.90447 81.5689,-83.28683 7.1551,-20.37475 9.6618,-36.79779 9.5843,-62.82394 -0.2062,-68.81615 -26.199,-120.51183 -64.646,-128.57602 -25.2902,-5.30474 -47.2227,15.39858 -43.3898,40.95933 1.7995,11.99989 10.4423,24.49841 21.0477,30.43709 5.0124,2.80693 9.5115,4.70542 9.9978,4.21901 0.4864,-0.48624 -0.3012,-3.72693 -1.7515,-7.19756 -6.054,-14.48893 -4.5711,-30.1672 2.992,-31.62368 12.1747,-2.34463 24.3345,27.33306 28.8268,70.35748 1.9422,18.60002 0.4781,54.74066 -1.8791,46.3818 -1.4677,-5.2044 -1.7018,-4.60628 -6.7472,17.21205 -2.0795,8.99328 -6.0127,20.99869 -8.7404,26.67866 l -4.9585,10.32722 0.9446,-9.46662 0.9447,-9.46662 -7.4866,14.63024 c -6.7675,13.22555 -16.8929,28.17094 -18.2004,26.86352 -0.2829,-0.2828 1.0971,-4.15517 3.0658,-8.60603 4.7294,-10.69108 3.5204,-13.43227 -2.2521,-5.10973 -2.5354,3.65514 -9.3104,11.29333 -15.0573,16.9733 l -10.4517,10.32723 5.0426,-9.46663 c 9.8429,-18.48091 8.9808,-18.32686 -20.288,3.61729 -15.186,11.38524 -30.5246,24.21115 -34.0879,28.504 -13.2732,15.99102 -20.1336,23.22851 -23.5859,24.88689 -1.9522,0.93788 -0.6783,-0.70931 2.8306,-3.661 3.5088,-2.95152 9.9799,-10.40967 14.378,-16.5733 5.5961,-7.84181 14.2733,-16.1566 28.9043,-27.69039 26.239,-20.68526 39.9601,-33.82063 44.5495,-42.64696 7.9734,-15.33404 5.2789,-44.58332 -5.7047,-61.90277 -5.6156,-8.8549 -4.8664,-9.94236 2.1917,-3.18027 6.9265,6.63594 6.3404,1.40744 -1.079,-9.61791 -3.2493,-4.82849 -5.2305,-8.77745 -4.4038,-8.77745 0.8269,0 1.9797,0.76972 2.5616,1.71105 0.5818,0.94167 2.7281,2.60522 4.7701,3.69801 l 3.7115,1.99005 -3.1902,-4.99218 c -14.1683,-22.16205 -34.9219,-44.38675 -52.5102,-56.23157 -8.0563,-5.4254 -8.4523,-6.0249 -6.1454,-9.31859 1.6155,-2.30642 5.0338,-3.81023 9.9138,-4.36016 27.9317,-3.14842 46.6026,-32.39564 38.4918,-60.29601 -4.9196,-16.92253 -19.4684,-29.75945 -37.5774,-33.15676 -4.8608,-0.91173 -7.2331,-2.8448 -11.4131,-9.29519 -7.4254,-11.46013 -20.3971,-23.06173 -32.7498,-29.29731 -5.7997,-2.92776 -10.5526,-5.89271 -10.5526,-6.58911 0,-0.69623 -1.9956,-3.59095 -4.424,-6.43093 l -4.414,-5.16362 0.9749,5.78893 0.9783,5.78892 -4.7299,-2.99867 c -2.6011,-1.64875 -7.6662,-6.18997 -11.2585,-10.09194 l -6.5318,-7.09325 0.5917,6.45451 c 0.3255,3.54999 0.167,6.45297 -0.353,6.45125 -0.5198,0 -3.2721,-3.4715 -6.1116,-7.70859 -2.84,-4.23708 -5.8513,-7.72132 -6.6933,-7.74198 z m -91.0019,79.00723 c 0.6399,-0.0723 1.2204,-0.074 1.7246,0 1.3443,0.19656 2.1547,0.9303 2.1381,2.30279 -0.046,3.86704 -2.4622,5.58927 -8.1993,5.85279 -5.9436,0.27281 -9.8398,2.6491 -12.4989,7.6177 -1.4365,2.68422 -1.1033,2.8023 3.2305,1.16647 11.7686,-4.44209 18.9359,3.72588 13.4201,15.29255 -4.1729,8.75077 -3.5901,20.88216 1.4825,30.88081 2.3626,4.65706 4.303,8.66178 4.303,8.89845 0.034,2.07594 -9.2842,-0.46163 -14.7781,-4.024 -20.1157,-13.04329 -23.9591,-41.21562 -7.927,-58.09391 5.1932,-5.46706 12.6255,-9.39244 17.1045,-9.89365 z m 190.5562,0 c 4.5016,0.30981 11.9707,4.55809 17.8272,11.22827 15.6628,17.83891 7.8189,51.14351 -13.9848,59.38154 -2.6649,1.00691 -6.3998,1.83205 -8.3002,1.83205 -3.4307,0 -3.4288,-0.0344 0.1137,-4.54156 4.6591,-5.92319 8.9421,-20.51985 7.6984,-26.23839 -0.539,-2.47732 -2.2353,-6.99118 -3.7719,-10.03135 -4.1002,-8.11272 -1.3851,-14.94022 6.2359,-15.67569 3.1215,-0.30138 6.7874,0.3754 8.1457,1.50261 1.9541,1.62189 2.4673,1.52172 2.4675,-0.47729 0,-4.27496 -6.0955,-8.32632 -13.1108,-8.71359 -5.4823,-0.30276 -6.7798,-1.06491 -7.2311,-4.2426 -0.4229,-2.97751 1.2086,-4.20989 3.9097,-4.024 z m -129.0096,7.08326 c 10.9905,-0.0361 19.4907,2.3479 27.3207,7.66126 l 6.2158,4.21574 8.8648,-5.50992 c 7.3645,-4.57805 10.9349,-5.61456 21.0982,-6.11165 10.7992,-0.52806 13.344,-0.0172 21.6766,4.36016 6.8212,3.5813 10.8294,7.20445 14.452,13.06376 10.3338,16.71359 7.4019,34.9117 -8.0043,49.68291 l -8.5019,8.15214 4.0275,5.65449 c 3.0291,4.25396 4.0319,7.98587 4.0508,15.06054 l 0.024,9.40603 -9.4666,4.76016 c -5.2066,2.61933 -13.0027,5.52353 -17.3265,6.45452 -12.2784,2.64377 -37.4477,3.52451 -50.2578,1.75821 -13.0118,-1.79401 -31.351,-9.44149 -36.4545,-15.20167 -3.0304,-3.42038 -3.1449,-4.534 -1.217,-11.74258 1.1719,-4.38098 3.5378,-9.89916 5.2578,-12.26013 l 3.1264,-4.29303 -6.9991,-5.33831 c -9.0198,-6.87965 -16.6136,-21.20575 -16.6136,-31.34485 0,-20.65841 17.8382,-38.35892 38.7271,-38.42778 z m 66.9958,20.51314 c -7.8862,-0.0499 -15.9017,4.0753 -18.9367,11.33912 -1.3455,3.22003 -2.4472,6.76968 -2.4472,7.88674 0,1.11705 1.772,-0.59899 3.9366,-3.81557 7.9647,-11.83569 22.9506,-12.33656 32.7734,-1.09262 l 4.8643,5.57033 -1.0554,-5.16361 c -0.5796,-2.83999 -3.3612,-7.2936 -6.1822,-9.89692 -3.5372,-3.26392 -8.2212,-4.79734 -12.9528,-4.82747 z m -64.8914,0.22531 c -1.0565,-0.0602 -2.1259,-0.0447 -3.197,0.0465 -2.8563,0.24355 -5.727,1.03719 -8.4279,2.43395 -5.2504,2.7152 -10.2839,10.45047 -10.2666,15.80341 0,2.12861 1.0957,1.31654 3.4826,-2.5985 4.1144,-6.7485 13.7483,-11.30091 20.6915,-9.77592 2.6892,0.59071 7.6437,4.12383 11.0097,7.84955 6.5859,7.28964 7.5383,6.60236 3.6742,-2.64567 -2.7771,-6.6466 -9.5709,-10.69521 -16.9665,-11.11381 z m 64.9722,8.47486 c -14.5931,0 -21.0822,14.46242 -10.7913,24.04987 8.7662,8.16712 25.4717,1.5768 25.4719,-10.04822 -2e-4,-6.04968 -8.3377,-14.00165 -14.6806,-14.00165 z m -68.7273,0.45733 c -10.5225,0.8742 -17.15,12.70644 -9.4094,22.54708 2.904,3.69182 4.998,4.53486 11.2651,4.53486 17.7683,0 22.1474,-19.05734 5.9233,-25.77761 -2.7141,-1.1243 -5.3507,-1.50623 -7.779,-1.30433 z m 74.6941,3.19026 c 0.2967,-0.0258 0.5791,8.6e-4 0.8539,0.0843 1.1,0.33048 2.1016,1.55012 3.5971,3.83244 1.7173,2.62036 2.2891,5.75398 1.5733,8.60602 -1.3456,5.36327 -4.1955,5.96552 -4.1953,0.88745 0,-1.97818 -1.7435,-5.06206 -3.8727,-6.85125 -3.317,-2.78628 -3.5022,-3.50041 -1.2909,-4.98203 1.4163,-0.94942 2.445,-1.50003 3.3346,-1.57662 z m -67.6613,1.81862 v 0 c 0.5665,-0.074 1.2113,-0.0792 1.933,0 3.9858,0.4587 4.8234,1.4613 5.2914,6.35691 0.3054,3.19697 -0.2755,6.64231 -1.2909,7.65799 -1.7001,1.70055 -2.2709,-0.0206 -1.7213,-5.2106 0.071,-0.66318 -1.4788,-1.79832 -3.4424,-2.52466 -4.8283,-1.7861 -4.7357,-5.7619 -0.7698,-6.28308 z m 40.9391,32.72301 c -0.6883,0.12737 -2.3829,1.40502 -5.8729,3.98028 -3.2078,2.36666 -6.3965,4.30302 -7.0865,4.30302 -0.6902,0 -3.6361,-2.00676 -6.5487,-4.45758 -2.9126,-2.45082 -5.2982,-3.95946 -5.298,-3.35497 0,2.83998 5.5403,11.32501 8.9588,13.7192 3.591,2.5152 4.142,2.35805 9.3289,-2.66924 3.0302,-2.93776 5.8929,-6.80478 6.3604,-8.5926 0.5308,-2.03016 0.8451,-3.05479 0.1583,-2.92811 z m -68.2094,46.6541 c 1.4057,-0.0482 4.2207,1.06886 8.5489,3.17338 13.5964,6.61132 25.6779,8.89742 46.9028,8.87161 21.3376,-0.0258 34.9451,-2.35341 47.5818,-8.13872 10.7683,-4.92987 11.5245,-3.55309 4.2996,7.83957 -5.7396,9.05026 -18.0265,17.74458 -30.1681,21.35033 -10.6835,3.17253 -32.0507,3.09817 -42.6032,-0.15147 -11.429,-3.51882 -23.8399,-12.58251 -30.3159,-22.14036 -5.0165,-7.4029 -6.5891,-10.72448 -4.2459,-10.80452 z m -18.5029,39.94398 -1.8929,5.16361 c -2.0619,5.6218 -6.7703,28.71846 -6.7703,33.2139 0,1.87577 2.4322,0.40294 7.4259,-4.49802 7.0036,-6.87362 21.6318,-14.13469 28.3092,-14.04863 4.9176,0.0637 -4.3973,6.29891 -13.0099,8.71032 -4.2002,1.17593 -10.9329,5.24123 -15.5278,9.37247 -7.8324,7.04196 -8.6792,7.35746 -24.4365,9.08676 -8.9776,0.98538 -17.8742,2.39126 -19.7668,3.12639 -3.3004,1.28161 -3.3261,1.16233 -0.6321,-2.88112 2.569,-3.85567 3.9273,-4.21557 15.8136,-4.21557 h 12.9997 l 1.0926,-5.8225 c 1.7037,-9.09329 9.2271,-28.1515 12.9897,-32.9046 z m 148.6252,1.34805 c 1.6495,-1.64961 12.0264,25.61909 13.5881,35.70827 1.4485,9.35802 2.3177,11.52811 4.0441,10.09538 1.2097,-1.00381 3.3996,-1.56544 4.8677,-1.25063 1.7619,0.3778 -0.4685,2.99093 -6.5586,7.68828 l -9.2246,7.11683 -1.0321,-20.02586 c -0.5671,-11.01433 -2.1985,-24.24919 -3.6239,-29.41177 -1.4256,-5.16258 -2.3534,-9.6279 -2.0607,-9.9205 z m -56.8568,10.17265 c 4.3102,0.61431 5.0801,6.34816 1.1195,8.32702 -1.4201,0.70931 -6.5806,3.62658 -11.4704,6.48137 l -8.8917,5.19046 1.7279,-4.95845 c 2.335,-6.69806 12.8276,-15.70856 17.5147,-15.0404 z m -32.2659,18.48952 v 0 c 4.3975,0.0671 7.5569,0.68178 7.5571,1.94635 0,3.88923 -3.7104,8.49173 -6.8443,8.49173 -1.8042,0 -3.7586,0.77454 -4.3435,1.7212 -0.5851,0.94666 -0.2995,1.7212 0.6355,1.7212 0.9349,0 2.9695,1.26543 4.5182,2.81383 2.1011,2.10124 3.3114,2.31949 4.7702,0.8606 1.0752,-1.07507 3.3486,-1.95322 5.0527,-1.95322 1.7039,0 3.0959,-0.77455 3.096,-1.72121 0,-0.94665 -1.1622,-1.7212 -2.5818,-1.7212 -3.3093,0 -3.3381,-4.11523 -0.043,-6.84781 7.0259,-5.83109 31.3955,15.34024 36.1722,31.4254 5.0558,17.02443 2.1656,36.34856 -5.9033,39.45671 -2.4228,0.93341 -9.3229,3.97564 -15.3328,6.76364 -9.9176,4.60078 -10.8281,5.46104 -9.8634,9.30535 0.5902,2.35099 0.3083,4.23571 -0.632,4.23571 -0.9319,0 -4.3394,2.32362 -7.574,5.16361 -3.2344,2.83999 -6.1633,5.09821 -6.5116,5.01903 -0.3484,-0.0791 -4.8957,-1.09124 -10.102,-2.24892 -5.2066,-1.15768 -12.8357,-3.86049 -16.9532,-6.00408 -7.3252,-3.81368 -23.3373,-17.29242 -22.0596,-18.57007 0.3553,-0.35526 4.8264,1.30002 9.934,3.67769 10.6186,4.94313 22.3689,5.71371 25.7105,1.68748 2.8891,-3.48114 0.1617,-6.0762 -10.4718,-9.97076 -4.2993,-1.5744 -10.4956,-5.21646 -13.7697,-8.095 l -5.9537,-5.23436 7.3991,4.45103 c 9.5643,5.75623 25.3346,9.09399 29.7984,6.3065 1.7629,-1.10088 5.3972,-2.00021 8.0783,-2.00021 5.8831,0 22.2041,-4.67117 23.4681,-6.71665 0.4975,-0.80484 -1.9865,-0.43082 -5.5199,0.8303 -8.7511,3.12416 -21.8151,3.09215 -24.4296,-0.0568 -1.1418,-1.37593 -6.0788,-3.66944 -10.9694,-5.09631 -8.2984,-2.42105 -24.1806,-11.24859 -22.7724,-12.65705 0.3467,-0.34597 4.5531,1.3551 9.3491,3.78545 4.8633,2.46442 11.6445,4.42056 15.3329,4.42056 12.8122,0 16.0978,-7.92012 4.9954,-12.04172 -35.7554,-13.2741 -41.9631,-27.97713 -16.6573,-39.44982 5.3136,-2.40899 16.085,-3.80989 23.4179,-3.69784 z m 115.1357,31.37153 c 0.3829,0.3828 -7.8312,9.74976 -18.2508,20.8159 -10.4197,11.06613 -21.4171,21.86773 -24.4398,24.00615 -4.7632,3.3696 -4.2443,2.28593 3.8896,-8.12873 18.55,-23.75193 22.9634,-28.51794 30.4773,-32.92147 4.1954,-2.45857 7.9409,-4.15481 8.3237,-3.77185 z m -82.3019,40.03159 c -0.7763,0.0947 -2.8812,0.95992 -6.3502,2.72966 -3.796,1.93653 -11.3479,4.66326 -16.7817,6.06122 l -9.88,2.54136 9.2144,-0.80346 c 5.5902,-0.48796 12.1889,-2.54927 16.7818,-5.24089 5.9162,-3.46719 8.3101,-5.44503 7.0157,-5.28789 z m 11.3963,9.60432 c 8.8116,0 12.7411,3.91488 15.1279,15.07397 1.1626,5.43607 2.7631,10.61793 3.5601,11.51726 0.7968,0.89933 1.4487,4.45981 1.4489,7.91031 0,7.24799 -2.7108,10.25235 -13.8,15.2824 -7.8586,3.56461 -13.9694,4.48976 -16.0321,2.42707 -2.3021,-2.30194 -0.9976,-3.6092 6.4613,-6.45779 7.0753,-2.70212 12.7098,-7.07742 11.1374,-8.64974 -0.3729,-0.37298 -4.5502,1.12619 -9.2817,3.32812 -13.0331,6.06518 -18.521,6.76175 -23.2262,2.95152 -4.8249,-3.90678 -3.3402,-7.23783 3.2272,-7.23783 10.0301,0 30.5125,-9.85854 27.2535,-13.11747 -0.7166,-0.71671 -4.9315,0.45939 -9.3624,2.6121 -15.3731,7.46882 -33.1768,8.02649 -33.1768,1.03875 0,-3.32778 4.3449,-5.34813 14.6303,-6.80065 10.5902,-1.49573 24.4614,-9.01808 21.7066,-11.77287 -1.3525,-1.35252 -3.802,-0.79037 -8.7908,2.01364 -6.9231,3.89078 -13.8525,4.3586 -14.953,1.00863 -0.8605,-2.61933 17.5433,-11.12742 24.0698,-11.12742 z"
       sodipodi:nodetypes="csssccssssssccsssssssccccsccssssccccssssscccscscccscscccssssssssssssssssssssssssscsssssssssccccssssccssssssssssssscccsscsscssccccsccscsccscsssssscssssssscsssssssssccccscsscccccssssccssccsssscccssssscsssssssssscssscscssssssscscssssccsssscsssssssssssssssccsssssssssccsccssscccscssscsscsssssssssscssssssssssssssccssscsssssssscsssssssssccsssssssssssssssssssss" /><g
       id="g23972"
       transform="matrix(0.99567705,0,0,0.99567705,855.66936,388.23138)"><path
         style="fill:#1c484b;fill-opacity:1;stroke-width:0.352778"
         d="m 102.41047,265.96419 c -4.096519,-0.64062 -8.287569,-0.87236 -12.248289,-2.19067 -1.51636,-0.282 -2.96072,-0.74052 -4.36592,-1.37815 -11.23133,-3.4903 -21.15766,-10.41108 -29.24354,-18.85527 -1.16194,-1.15354 -2.32246,-2.31063 -3.40789,-3.53735 0.16802,-1.17841 -1.43247,-1.67627 -1.92385,-2.62223 -0.72755,-1.13726 -1.48063,-2.23824 -2.17174,-3.38541 -0.92996,-0.96464 -1.15267,-2.3361 -2.07923,-3.30651 -0.61877,-0.93811 -0.83856,-2.06919 -1.40513,-3.0445 -0.46553,-1.0475 -1.12764,-2.001 -1.64294,-3.01218 -0.22092,-1.51898 -1.11759,-2.76108 -1.57547,-4.15814 -0.44043,-1.33049 -0.97067,-2.62703 -1.23057,-4.00901 -0.38018,-1.40548 -0.86582,-2.81204 -0.87175,-4.28442 -0.58225,-1.61299 -0.73561,-3.32899 -0.97108,-5.01046 -0.50031,-1.89575 -0.30752,-3.86927 -0.44284,-5.80703 -0.17049,-5.08399 -0.21724,-10.20905 0.68516,-15.23477 0.50158,-2.94286 1.16694,-5.86881 2.11653,-8.69947 0.60908,-1.55452 0.86102,-3.22701 1.53453,-4.76393 1.16293,-2.90952 2.58102,-5.71369 4.23372,-8.37555 0.95612,-1.81003 1.83061,-3.66677 2.972,-5.37388 1.86414,-2.91485 3.45546,-5.99301 5.35525,-8.88643 1.67083,-3.15605 3.47673,-6.24156 5.41886,-9.23855 0.69396,-1.34363 1.5046,-2.63136 2.46888,-3.79457 1.36592,-2.5099 2.70928,-5.03628 4.31434,-7.40593 1.77215,-2.59618 3.12659,-5.46696 5.07802,-7.94058 0.55571,-1.13397 1.02846,-2.3055 1.7163,-3.3722 1.72492,-3.1551 3.44878,-6.35403 5.86769,-9.04549 2.25829,-2.74069 4.67133,-5.39994 7.55069,-7.50389 1.68495,-0.63384 2.96452,-2.013242 4.67766,-2.607271 1.72865,-0.852645 3.61216,-1.282669 5.36645,-2.071488 1.28729,-0.116179 2.165439,-1.12475 3.329539,-1.51729 1.09758,1.19598 2.5623,-0.366469 3.00313,-1.430102 1.77528,-2.433002 6.10647,-2.226854 7.50545,0.486864 0.76424,1.392486 2.40058,1.409515 3.73702,1.758923 1.57493,0.537811 3.14483,1.135648 4.78931,1.403771 1.74608,0.773285 3.54256,1.436227 5.18775,2.417473 2.32628,1.26826 4.4857,2.85049 6.29519,4.79199 2.64073,2.55496 5.12152,5.32777 7.03038,8.47898 1.19641,2.13873 2.1258,4.42751 3.49447,6.46729 0.81009,1.34135 1.67097,2.64881 2.51652,3.96732 0.42062,1.39633 1.59973,2.29643 2.17487,3.64336 0.95975,1.97752 2.4741,3.63787 3.32302,5.67526 0.94575,0.95076 1.23097,2.33394 2.06567,3.37018 0.76968,1.25852 1.55755,2.49479 2.35125,3.72779 0.61562,1.26564 1.54406,2.33703 2.16982,3.60279 0.85296,1.18192 1.22907,2.58534 2.26044,3.67172 0.89803,2.03543 2.21739,3.83777 3.27316,5.7885 1.02872,1.641 2.10042,3.25301 3.05239,4.94196 1.12294,1.84901 2.13403,3.76827 3.20294,5.64357 1.60404,2.03282 2.4251,4.51542 3.49317,6.8416 1.84751,4.32195 3.36614,8.8069 4.12851,13.4555 2.15014,11.71911 1.77381,24.06789 -2.25092,35.35536 -2.50153,7.18797 -6.27299,13.90255 -10.90031,19.93206 -1.10618,1.69752 -2.72856,2.96273 -4.09325,4.43911 -3.3658,3.38054 -6.80539,6.74818 -10.84658,9.3249 -9.87116,6.57674 -21.23284,10.93057 -32.98308,12.5696 -4.33432,0.56933 -8.74579,0.68769 -13.0857,0.10685 z m 13.93472,-9.19699 c 5.40464,-0.80492 10.73066,-2.20006 15.82802,-4.1643 1.36439,-0.92113 2.89286,-1.45536 4.38457,-2.09972 2.14602,-1.13369 4.17901,-2.47067 6.27885,-3.68259 2.82434,-1.94542 5.40723,-4.21856 7.9541,-6.50786 9.65917,-9.04249 16.14007,-21.42727 17.93936,-34.54561 1.7191,-12.29605 -0.72857,-25.05546 -6.53119,-36.00271 -0.98001,-1.91904 -2.11484,-3.75495 -3.37809,-5.49751 -2.5368,-4.49627 -5.21392,-8.91347 -7.83777,-13.36032 -5.08386,-8.54932 -10.24441,-17.05329 -15.48437,-25.50751 -2.02043,-3.25776 -3.60278,-6.78689 -5.95522,-9.83362 -3.83446,-5.17658 -9.17748,-9.53998 -15.55408,-11.02475 -5.42516,-1.28164 -11.23575,-0.48933 -16.246689,1.89793 -1.84491,0.74351 -3.661,1.6325 -5.14627,2.97708 -4.36459,3.11767 -7.27828,7.78079 -9.82572,12.40332 -3.64389,6.87995 -8.05429,13.31197 -11.98372,20.02632 -4.05072,6.71078 -8.1372,13.40085 -12.04222,20.19803 -2.70722,4.38707 -5.59799,8.71235 -7.45896,13.54962 -5.49331,13.50036 -5.39049,29.03323 -0.26724,42.62815 4.26904,11.48011 12.07871,21.68565 22.3134,28.46908 10.05545,6.82018 22.15642,10.62357 34.320439,10.58009 2.90437,0.013 5.80875,-0.16239 8.6928,-0.50312 z"
         id="path8042" /><path
         id="path8038"
         style="fill:#d35821;fill-opacity:1;stroke-width:0.352778"
         d="m 108.27151,160.42773 c -4.58646,0.2015 -8.774959,2.49729 -12.418289,5.13104 -5.91286,4.3903 -10.81211,10.12324 -14.37252,16.56076 -2.57669,4.77877 -4.53222,10.16214 -4.135,15.66945 0.18551,3.41773 2.54755,6.23259 5.07819,8.31863 6.15384,5.04849 14.91475,6.81044 22.488239,4.26348 5.98896,-1.97398 10.80495,-6.74308 13.3881,-12.43315 2.70429,-5.78427 3.27811,-12.3551 2.52956,-18.64057 -0.40934,-3.87417 -0.21239,-7.96127 -1.29912,-11.721 -0.5989,-2.15998 -2.43932,-3.92543 -4.40479,-5.02737 -1.96701,-1.22082 -4.18097,-2.21021 -6.54539,-2.12242 -0.10279,0.003 -0.20642,-0.005 -0.30898,0.001 z m -6.91992,7.10157 c 0.66546,0.12982 0.27687,1.05112 0.0581,1.4273 -0.8467,1.36543 -2.290159,2.20595 -3.315639,3.42638 -4.9623,5.29169 -8.43695,11.93697 -10.16126,18.9725 -0.56142,2.049 -0.62871,4.1915 -1.11831,6.24804 -0.6884,0.15475 -1.80064,-0.005 -1.90625,-0.89258 -0.33119,-2.10192 0.41882,-4.18841 1.00108,-6.18053 1.20911,-3.60903 2.92552,-7.28348 4.8177,-10.69683 2.20466,-3.87517 4.6034,-7.74319 7.89997,-10.79256 0.79408,-0.641 1.653229,-1.45712 2.724609,-1.51172 z"
         sodipodi:nodetypes="ccccccccccccccccccccccc" /><path
         id="path8044"
         style="fill:#863519;fill-opacity:1;stroke-width:0.352778"
         d="m 117.95315,164.43555 c -0.73799,0.12379 -0.46674,1.04618 -0.24081,1.52397 1.79063,4.8994 2.28899,10.19198 2.44487,15.34217 0.0774,4.59057 -0.16633,9.32093 -1.32125,13.72175 -0.79097,2.98403 -2.50439,5.53307 -4.54492,7.79297 -6.04812,6.52731 -15.846889,9.15916 -24.311019,6.62191 -4.67945,-1.3557 -8.79644,-4.52226 -11.25199,-8.73781 -0.38479,-0.64458 -0.90301,-1.19415 -1.35301,-1.79231 0.18681,5.73378 2.72298,11.27075 6.70447,15.3663 5.17547,5.43247 12.45052,8.55615 19.849949,9.35605 7.27136,0.90445 15.00197,0.0269 21.37991,-3.78406 5.90658,-3.43267 10.20642,-9.41114 11.70048,-16.0656 1.85524,-7.84257 0.10286,-16.21299 -3.77234,-23.17672 -3.54821,-6.41806 -8.76051,-11.83502 -14.72575,-16.05144 -0.17036,-0.0712 -0.37236,-0.18946 -0.55859,-0.11718 z m 13.0332,25.54492 c 0.78007,0.20736 0.76536,1.23467 0.92383,1.88476 0.72593,4.96955 -0.0823,10.20674 -2.64533,14.56098 -3.49218,6.13333 -9.9763,10.20129 -16.84421,11.4508 -3.16912,0.64152 -6.42458,0.57734 -9.55428,0.14613 -2.47834,-0.35646 -5.039309,-0.88661 -7.202269,-1.95478 -0.53506,-0.33676 -1.40053,-0.68558 -1.39258,-1.41211 0.26556,-1.01821 1.53855,-0.70266 2.28423,-0.52346 2.77579,0.90591 5.650529,1.70852 8.598749,1.90353 6.59903,0.56627 13.55994,-1.42156 18.3837,-6.07536 4.18516,-3.93981 6.40431,-9.71905 6.30132,-15.43205 0.0664,-1.43715 -0.19165,-2.96062 0.3211,-4.33273 0.16581,-0.26445 0.55899,-0.22122 0.82574,-0.21571 z" /><path
         id="path8046"
         style="fill:#c0dd6f;fill-opacity:1;stroke-width:0.352778"
         d="m 106.52542,107.25 c -4.49183,-0.088 -8.588285,2.17261 -12.188331,4.63749 -2.344814,1.65793 -4.307431,3.83548 -5.888787,6.22311 -1.346761,2.20325 -2.841309,4.34134 -3.771343,6.76734 -1.220452,2.61548 -3.117832,4.82157 -4.511657,7.33654 -2.687638,4.52453 -5.295459,9.09997 -8.186365,13.49969 -1.736119,2.9028 -3.345357,5.88781 -5.256908,8.68015 -1.201647,2.32079 -2.577042,4.54392 -3.975545,6.74877 -2.380274,3.99006 -4.911845,7.89933 -7.045981,12.02925 -0.9681,2.34039 -1.930659,4.68867 -2.764028,7.07988 -1.909555,6.15906 -2.58393,12.64262 -2.601877,19.07066 0.0166,3.22436 0.413235,6.43802 1.078906,9.58896 0.434179,3.1485 1.477866,6.17221 2.526581,9.15843 1.12085,2.8986 2.445582,5.72996 4.160948,8.32767 4.875566,8.26318 12.005891,15.12699 20.297655,19.92277 3.561108,2.18069 7.435745,3.80301 11.398708,5.09355 2.913678,0.90494 5.869839,1.71523 8.905069,2.08368 3.968855,0.56119 7.990035,1.02608 12.000875,0.70434 4.45284,-0.22757 8.94092,-0.70676 13.18263,-2.15285 3.2398,-0.93933 6.57366,-1.75455 9.49599,-3.50485 1.62835,-0.88703 3.3533,-1.58422 5.01901,-2.38731 2.11036,-1.38434 4.19118,-2.82427 6.17927,-4.37876 3.25162,-2.59486 6.31591,-5.44719 8.91109,-8.70776 4.4726,-5.25548 7.43837,-11.58903 9.86193,-17.9982 0.76424,-2.26752 1.25916,-4.61556 1.84069,-6.93211 1.53027,-10.04111 1.12222,-20.57361 -2.50472,-30.14235 -0.86903,-2.29465 -1.77652,-4.58587 -2.98679,-6.72406 -0.67554,-1.43413 -1.41035,-2.84637 -2.37215,-4.11075 -1.09833,-1.73931 -3.09446,-4.28974 -4.13946,-6.06161 -1.12627,-0.55377 -0.57911,1.8123 -0.15611,2.59019 0.45641,0.75633 0.87363,1.51196 1.12557,2.38289 3.92346,10.57825 6.38337,21.88156 5.70799,33.2115 -0.63651,11.09436 -5.14921,22.04914 -13.00958,29.97669 -6.56616,6.88709 -15.16085,12.05416 -24.59996,13.70556 -10.32064,1.82791 -21.42323,-0.18314 -30.118541,-6.14324 -7.189455,-4.84809 -12.372359,-12.76944 -13.394584,-21.43362 -0.188517,-1.95785 -1.203398,-3.68256 -2.194461,-5.33037 -1.589813,-3.18599 -2.454407,-6.68337 -3.047983,-10.17722 -0.589608,-4.20186 0.213998,-8.44207 1.292581,-12.4962 0.882648,-3.10306 2.283953,-6.04152 4.013193,-8.75819 0.986649,-2.01533 2.20174,-3.91411 3.677387,-5.60685 2.25477,-2.82181 4.785297,-5.42983 7.641107,-7.64781 1.356146,-1.21145 2.777436,-2.35574 4.370069,-3.2431 2.154425,-1.32502 4.227535,-2.79031 6.450172,-3.99923 3.54841,-1.75215 7.76579,-2.28114 11.5882,-1.17555 2.49884,0.80085 4.63546,2.37157 6.83338,3.75317 0.64529,0.81605 1.98252,0.8054 2.58456,-0.0521 0.70863,-0.80052 0.43248,-1.90997 0.63168,-2.87121 1.49762,-13.48647 1.53078,-27.27051 -1.36123,-40.58032 -0.64658,-2.69719 -1.53231,-5.42369 -3.26949,-7.63164 -1.78928,-1.63418 -4.34156,-1.66244 -6.57462,-2.2038 -1.6081,-0.22415 -3.23708,-0.16919 -4.85474,-0.12125 z m -13.972659,26.48438 c 0.827716,0.88641 0.211766,2.19318 -0.489261,2.94905 -3.789411,4.25712 -7.825941,8.35339 -10.909304,13.17678 -1.71149,2.23003 -3.496988,4.4327 -4.773134,6.95215 -1.617074,2.55447 -3.126797,5.17615 -4.465579,7.88741 -1.073708,2.05611 -1.999087,4.18767 -2.905505,6.31878 -0.626395,1.09011 -0.48743,2.72251 -1.754204,3.36263 -0.911821,0.44069 -1.892406,-0.46547 -1.868065,-1.39498 -0.147065,-1.01398 0.535557,-1.8166 1.012211,-2.62652 0.829962,-1.64711 1.319323,-3.45094 2.300414,-5.0259 0.876555,-1.5967 1.881494,-3.16969 2.288606,-4.96856 1.579363,-2.05622 2.57126,-4.48658 4.09322,-6.58145 2.565291,-4.1242 5.583913,-7.93857 8.491482,-11.82145 2.517616,-3.20211 5.444317,-6.15521 8.979119,-8.22794 z"
         sodipodi:nodetypes="ccccccccccccccccccccccccccccccccccccccccccccccccccccccccccccccccccc" /><path
         id="path8048"
         style="fill:#68a043;fill-opacity:1;stroke-width:0.352778"
         d="m 117.35745,109.02539 c -0.70739,0.45424 -0.42906,1.41319 0.0276,1.9439 0.51374,0.6298 1.0674,1.22986 1.38711,1.99155 1.10238,2.30728 2.08502,4.69176 2.60756,7.20447 0.69439,3.03711 0.83462,6.15872 0.94986,9.26061 0.37446,8.36139 0.35144,16.75011 -0.2997,25.09731 -0.21173,2.21156 -0.5637,4.41091 -0.65422,6.6331 0.29651,1.70126 1.97728,2.52266 3.20919,3.49029 6.43138,5.29038 11.64691,12.13127 14.69357,19.90517 1.25831,3.27321 2.23631,6.68914 2.55859,10.19068 0.55605,6.84761 -1.47306,13.84563 -5.46674,19.41858 -0.99098,1.26396 -1.83848,2.64999 -3.04095,3.73378 -2.10188,2.01714 -4.57039,3.59658 -7.06271,5.08188 -2.23582,1.22245 -4.64615,2.10444 -7.07537,2.85724 -3.89549,1.20501 -7.99491,1.4797 -12.049,1.53109 -3.26315,0.0245 -6.53567,-0.31258 -9.692596,-1.15803 -1.932871,-0.48476 -3.838002,-1.10595 -5.621854,-2.00113 -1.775153,-0.76196 -3.530067,-1.58853 -5.123493,-2.6912 -3.140371,-2.05239 -5.801087,-4.79315 -7.87818,-7.90932 -0.22017,-0.47255 -1.168711,-1.22686 -0.95898,-0.18544 0.08358,3.99794 1.230769,7.93947 3.165079,11.43092 4.737897,9.31434 13.699978,16.30852 23.836094,18.79058 9.90119,2.57428 20.73509,1.0999 29.67395,-3.84127 15.04655,-8.02781 25.28008,-24.25331 26.18611,-41.26705 0.8406,-12.58206 -2.01292,-25.2267 -7.19285,-36.66074 -4.01844,-8.80055 -9.571,-16.76325 -14.45317,-25.08432 -1.42581,-2.10854 -2.62305,-4.35994 -3.99513,-6.50259 -2.25149,-3.72449 -4.44727,-7.48331 -6.69883,-11.20707 -1.7769,-2.70199 -3.66105,-5.42761 -6.22147,-7.44779 -1.50638,-0.90659 -3.0301,-1.79946 -4.61673,-2.55492 l -0.0954,-0.0281 z m 8.49609,28.25 c 2.34808,0.98527 3.58691,3.34905 5.34325,5.04675 6.42033,7.51557 11.33065,16.17796 15.63299,25.03862 2.2213,4.69562 4.31858,9.54534 5.08205,14.72178 -0.17203,1.14473 -1.79303,0.9824 -2.34806,0.23373 -0.69391,-0.93583 -0.53763,-2.17932 -0.9899,-3.21672 -2.11846,-7.28737 -5.56538,-14.0978 -9.22406,-20.71605 -2.06804,-3.65564 -4.45861,-7.12081 -7.0483,-10.42448 -1.96912,-2.78076 -4.22854,-5.33506 -6.50874,-7.86027 -0.42568,-0.67093 -1.50434,-1.32766 -1.10774,-2.21698 0.21523,-0.41202 0.69881,-0.70339 1.16851,-0.60638 z m 22.11133,77.68359 c 0.75704,0.23108 0.84042,1.16753 0.52673,1.78094 -0.37134,0.83296 -1.00821,1.50644 -1.4851,2.27873 -2.06495,2.9114 -4.5599,5.47948 -7.12567,7.94774 -1.13505,1.08078 -2.21503,2.24249 -3.48489,3.16492 -1.66632,1.16074 -3.08514,2.66036 -4.88378,3.6334 -2.40156,1.54992 -4.86431,3.0716 -7.58917,3.98667 -0.80684,0.11733 -1.33108,-0.78511 -1.01278,-1.47747 0.21017,-0.85613 1.13898,-0.98649 1.75667,-1.4271 3.52939,-2.08109 7.09908,-4.14627 10.22659,-6.8165 1.66345,-1.41425 3.14573,-3.02308 4.70878,-4.54431 1.50855,-1.53034 2.97284,-3.10636 4.34324,-4.76229 1.44811,-0.87573 1.43146,-3.10028 3.1111,-3.70487 0.28888,-0.1067 0.60737,-0.0965 0.90828,-0.0599 z" /><path
         id="path8050"
         style="fill:#062627;fill-opacity:1;stroke-width:0.352778"
         d="m 107.75586,88.636719 c -3.49971,0.123469 -7.01459,2.769816 -7.42369,6.36856 -0.19937,1.282108 1.39233,2.184913 2.46408,1.565302 1.19906,-0.368752 1.9774,-1.429173 2.5768,-2.459253 1.76631,-1.774263 5.05506,-1.053211 6.26172,1.03125 0.9674,1.059047 2.53108,1.979258 3.97641,1.452613 0.95047,-0.648133 0.58085,-1.904396 0.18891,-2.765443 -1.19947,-3.224684 -4.62989,-5.374684 -8.04423,-5.193029 z m -1.09375,14.470701 c -7.122268,0.31788 -13.738915,4.12024 -18.423184,9.36495 -2.394663,2.59276 -4.217944,5.63515 -5.890187,8.71343 -6.709459,11.73045 -14.101554,23.0515 -20.902746,34.72749 -3.496962,5.97102 -6.975589,11.97493 -9.961511,18.2235 -3.714768,8.44348 -5.195184,17.78248 -4.834091,26.97259 0.659045,14.41093 6.842375,28.53846 17.174301,38.63914 10.379577,10.23337 24.418191,16.44605 38.846098,18.04368 8.60665,0.98814 17.37973,-0.28306 25.52671,-3.14344 12.10782,-4.26539 23.1711,-11.94348 30.6503,-22.45859 7.89366,-10.96558 12.08209,-24.70376 10.9505,-38.22399 -0.83467,-10.79271 -4.6373,-21.24514 -10.41755,-30.36307 -7.42134,-12.31778 -14.70718,-24.72135 -22.32264,-36.92533 -3.10776,-5.289 -5.92015,-10.8978 -10.39018,-15.20711 -5.25033,-5.20546 -12.49735,-8.73109 -20.00582,-8.36325 z m 1.46094,4.31446 c 5.83676,-0.0342 11.44591,2.65791 15.5684,6.70026 1.74891,1.6293 3.29515,3.52346 4.50826,5.64459 1.31692,1.9134 2.30457,4.02299 3.31108,6.10397 0.9725,1.5193 2.09189,2.94832 2.91109,4.56082 1.55086,2.37706 3.0357,4.8003 4.54684,7.20036 1.05586,1.9655 2.13123,3.93059 3.47177,5.72027 1.61177,2.62633 2.88692,5.45902 4.72681,7.94264 1.52361,2.57341 2.8284,5.28119 4.60293,7.69893 4.48323,7.24249 9.32234,14.39676 11.69648,22.66532 3.93493,13.10325 2.84844,27.58326 -3.08076,39.91833 -3.22009,6.68879 -7.7958,12.66082 -13.37423,17.59646 -5.61735,4.99029 -12.43008,8.96779 -19.54048,11.46706 -5.68033,1.9834 -11.74695,3.08541 -17.81259,3.28396 -8.5676,0.22286 -17.18372,-1.60141 -24.969067,-5.04269 -10.504382,-4.64566 -19.838853,-12.32423 -25.876974,-22.19617 -2.120656,-3.46257 -3.778041,-7.00382 -5.113506,-10.86883 -0.797428,-2.32955 -1.354102,-4.72814 -2.048712,-7.08864 -0.972836,-6.40255 -0.833674,-12.93281 -0.235592,-19.34945 0.651163,-5.3477 2.525877,-10.40279 4.941941,-15.20107 6.197268,-12.83337 13.888705,-24.84253 21.28112,-37.01304 3.195971,-5.09989 6.495307,-10.14476 9.265633,-15.49519 2.622565,-4.74511 6.229446,-9.14956 11.118629,-11.67487 3.101528,-1.6366 6.590218,-2.54874 10.100928,-2.57302 z M 91.9375,133.68945 c -0.761491,0.13399 -1.371558,0.7596 -2.017266,1.1736 -3.008946,2.29504 -5.250389,5.39377 -7.667397,8.26554 -6.328479,7.93857 -11.587236,16.71061 -15.741839,25.96963 -0.794608,1.55191 -1.718452,3.35991 -1.120373,5.13811 0.589887,1.14342 2.435821,0.82947 2.864699,-0.30252 0.924458,-1.64953 1.396504,-3.50613 2.287627,-5.17523 4.31215,-9.34883 10.023639,-18.19304 16.728533,-26.00272 1.700903,-2.00517 3.519825,-3.87367 5.316022,-5.81951 0.654477,-0.71426 1.309408,-1.961 0.545306,-2.81135 -0.322549,-0.29114 -0.760406,-0.45423 -1.195312,-0.43555 z m 33.48633,3.10938 c -0.84895,0.11244 -1.78088,1.20693 -1.04492,1.98047 2.03921,3.23451 4.96918,5.78751 7.04669,8.99453 3.66026,4.3862 6.66147,9.35919 9.32768,14.42908 2.97995,5.20942 5.203,10.8193 7.10873,16.49895 0.47264,1.41239 0.89145,2.84144 1.31572,4.26884 0.66012,0.76939 2.21981,1.1287 2.74415,0.0332 0.48617,-2.17724 -0.34288,-4.38012 -0.93137,-6.46011 -1.53076,-5.90459 -4.44852,-11.30485 -7.07917,-16.76784 -1.84255,-3.55041 -4.23662,-6.76983 -6.22179,-10.23698 -1.15625,-1.83074 -2.68868,-3.38938 -3.9989,-5.10921 -1.48186,-1.80539 -3.01518,-3.57408 -4.41917,-5.43954 -1.13661,-0.93 -2.21413,-2.31171 -3.84765,-2.1914 z m -17.78711,19.34179 c -4.85576,0.18155 -9.214581,2.67641 -13.121962,5.35866 -7.264849,4.93287 -13.375798,11.60169 -17.52257,19.34838 -1.466169,3.18554 -2.844727,6.47074 -3.266641,9.98175 -0.498822,3.42334 -0.661729,6.92043 -0.282188,10.36395 0.444428,3.11147 1.575017,6.08297 2.831598,8.9478 1.814165,3.9952 4.548608,7.58901 7.98495,10.3248 2.262588,1.5716 4.587179,3.09332 7.138315,4.1639 5.44567,2.32979 11.394248,3.35184 17.303088,3.30951 2.35032,0.0777 4.74367,0.0885 7.01545,-0.59804 3.21177,-0.50478 6.34784,-1.49779 9.1978,-3.07612 5.36742,-2.91714 9.9146,-7.27319 13.27294,-12.35896 2.36672,-3.71595 4.14709,-7.90975 4.60083,-12.32057 0.15983,-2.96614 -0.38533,-5.91202 -0.786,-8.83686 -0.58136,-2.52707 -1.61015,-4.93094 -2.27649,-7.42959 -2.06881,-4.14779 -4.48626,-8.13041 -7.40444,-11.73848 -2.21166,-2.91676 -4.84466,-5.49662 -7.7795,-7.6819 -4.10035,-3.24249 -8.59018,-6.27956 -13.74633,-7.49624 -1.03746,-0.2135 -2.10078,-0.29173 -3.15885,-0.26199 z m 0.58594,4.73243 c 4.43329,0.11598 8.37306,2.58117 11.64393,5.38332 5.96205,4.74177 11.63523,10.27065 14.79644,17.32179 1.88942,4.10603 2.9586,8.738 2.89211,13.28197 -0.0314,6.01206 -2.26567,12.10924 -6.36143,16.59214 -5.27934,5.88435 -13.0328,9.52982 -20.96357,9.58261 -3.3933,0.10906 -6.7672,-0.10242 -10.03162,-0.76886 -7.352502,-1.48942 -14.411127,-5.57333 -18.520185,-11.97018 -2.89518,-4.51555 -4.121207,-9.99348 -3.738882,-15.3642 0.596868,-8.49583 4.868799,-16.39525 10.71471,-22.44998 3.881216,-4.01242 8.470366,-7.32858 13.422367,-9.89201 1.93123,-0.91787 3.96117,-1.79819 6.14613,-1.7166 z m 22.4082,28.60547 c -1.242,0.45972 -1.268,2.00762 -1.34652,3.11855 -0.006,1.7157 0.22538,3.43893 -0.0675,5.14512 -0.28165,2.40221 -1.11616,4.98654 -2.37424,7.17386 -1.90347,3.40966 -4.86426,6.19334 -8.39826,7.9275 -5.92438,2.98426 -12.95579,3.17853 -19.282895,1.48103 -1.51748,-0.52888 -3.244515,-1.36493 -4.817655,-0.57263 -0.728666,0.53228 -0.07777,1.4905 0.325568,2.02843 1.242721,1.38381 3.215812,1.58006 4.874915,2.18514 9.693647,3.04001 21.063967,-0.0958 27.673727,-7.84957 4.55852,-5.30299 6.71704,-12.84042 4.89532,-19.6765 -0.15252,-0.64031 -0.83267,-1.12754 -1.48242,-0.96093 z m 17.38086,24.94726 c -1.49965,0.006 -2.4942,1.29468 -3.22828,2.44106 -4.93763,6.45865 -11.04112,11.93936 -18.03149,16.09605 -1.43422,1.16269 -3.65467,1.38465 -4.52279,3.20074 -0.68587,0.95698 0.33178,2.29119 1.42912,2.09207 1.62547,-0.16192 2.95424,-1.23434 4.40373,-1.89044 4.35991,-2.35648 8.24275,-5.4701 12.03399,-8.63373 3.31199,-2.56796 5.61845,-6.13846 8.03264,-9.50382 0.57801,-0.92997 1.61469,-2.05404 1.01198,-3.20623 -0.24226,-0.37665 -0.6804,-0.61304 -1.1289,-0.5957 z" /><path
         id="path22990"
         style="fill:#ffffff;fill-opacity:1;stroke:none;stroke-width:1.18911;stroke-linecap:round;stroke-opacity:1"
         d="m 101.02019,167.16499 c -0.77981,0.0359 -1.394083,0.58023 -1.991028,1.02186 -1.590085,1.2074 -2.875304,2.75842 -4.083873,4.33402 -2.223262,2.95469 -4.12147,6.14333 -5.808991,9.43033 -1.516568,2.99649 -2.889964,6.0782 -3.888631,9.28889 -0.434224,1.46526 -0.838211,2.96531 -0.862637,4.503 0.0048,0.70115 0.107725,1.50243 0.685228,1.97559 0.42073,0.29775 0.960795,0.39765 1.468644,0.37568 0.421095,-0.0361 0.680657,-0.43028 0.76843,-0.80925 0.26122,-1.03788 0.386733,-2.10415 0.568235,-3.15779 0.443005,-2.92484 1.2691,-5.78609 2.408626,-8.5146 1.273522,-3.02693 2.778442,-5.97164 4.670735,-8.66176 1.178612,-1.675 2.540256,-3.28127 3.983325,-4.76177 0.993773,-1.03118 2.077837,-1.99608 2.883577,-3.18986 0.25358,-0.39356 0.50309,-0.91238 0.26393,-1.36925 -0.19759,-0.3855 -0.66642,-0.4919 -1.06557,-0.46509 z" /></g><path
       id="path25450"
       style="fill:#000000;fill-opacity:1"
       d="M 928.80664 510.31055 C 918.38095 510.76135 902.18885 513.72568 875.24219 519.77148 C 852.90721 524.78257 849.83736 525.50672 850.63477 524.89062 L 850.49805 524.92969 L 817.5918 532.43164 C 816.5736 538.53163 815.90765 544.43455 815.87109 549.82227 C 815.77889 563.39585 817.67869 568.6004 824.33398 573 C 828.27568 575.6057 829.30038 575.81358 837.67188 575.70898 C 852.50096 575.52378 868.18642 569.379 894.80859 553.32422 C 901.51599 549.27922 907.54258 546.32398 909.08008 546.33398 C 910.54378 546.33998 913.95049 547.01499 916.65039 547.83398 C 922.69428 549.66748 928.23486 549.78076 928.25586 548.07227 C 928.26746 547.12407 928.47402 547.14163 929.10742 548.14062 C 929.72222 549.11022 930.8398 549.22427 933.3418 548.57617 C 936.01919 547.88247 936.85978 547.07266 937.29688 544.75977 C 937.82427 541.96917 937.88878 541.93417 938.61328 544.07227 C 939.48488 546.64476 940.13853 546.78203 943.73242 545.14453 C 945.15452 544.49653 946.11057 543.42261 945.85547 542.75781 C 945.56727 542.00961 946.05844 541.72367 947.15234 542.00977 C 948.13344 542.26627 950.28562 541.31578 952.01172 539.86328 L 954.91797 537.41602 L 955.07227 536.71289 C 955.07227 536.71289 958.56403 534.18411 957.59375 529.77539 C 957.3751 529.63318 957.0321 528.70437 956.37109 526.85352 C 954.5163 521.65992 947.69057 514.43504 942.42188 512.08984 C 939.24214 510.67448 935.06206 510.04007 928.80664 510.31055 z M 932.05078 523.67578 C 932.10469 523.61459 932.32969 523.71859 932.74219 524.00977 C 935.59668 526.02456 938.23811 528.71037 941.16211 532.57227 C 943.64151 535.84696 941.75438 534.28413 935.74219 528.08203 C 933.26719 525.52888 931.88906 523.85936 932.05078 523.67578 z M 1046.6699 571.69922 C 1042.46 577.73977 1038.4194 584.20699 1034.3027 591.82227 C 1031.9241 596.22226 1029.8713 599.95178 1029.7402 600.10938 C 1029.6092 600.26697 1026.1724 599.27801 1022.1035 597.91211 C 1012.427 594.66381 989.49933 591.90686 984.14844 593.34766 C 977.68514 595.08805 975.17361 601.14027 979.3457 604.91797 C 981.6198 606.97717 988.42348 607.33087 997.34961 605.85547 C 1000.8641 605.27457 1002.8281 605.50779 1005.623 606.83398 L 1009.2871 608.57227 L 999.59766 611.94727 C 991.02962 614.93136 988.71858 615.32227 979.65039 615.32227 C 970.0756 615.32227 969.19076 615.49521 966.31836 617.91211 C 962.34666 621.25411 962.38234 623.82798 966.43164 625.92188 C 968.98804 627.24387 971.52395 627.4706 979.18164 627.0625 C 987.06833 626.6422 990.71026 625.83739 999.99219 622.4668 C 1011.024 618.4607 1014.1875 618.15211 1008.252 621.6582 C 1004.1718 624.0685 995.12831 627.12775 986.92578 628.87305 C 978.55089 630.65505 976.24219 631.83206 976.24219 634.31836 C 976.24219 635.70386 977.38522 636.58434 980.32422 637.46484 C 985.65861 639.06314 993.81261 637.4691 1004.7422 632.69141 C 1009.1422 630.76801 1013.4172 628.96253 1014.2422 628.67773 C 1017.1549 627.67204 1011.678 631.44739 1004.5391 635.36719 C 998.23752 638.82728 996.52399 639.32227 990.84766 639.32227 C 987.27926 639.32227 984.11195 639.72128 983.81055 640.20898 C 983.08675 641.38018 985.43034 643.25684 988.92773 644.30664 C 996.90867 646.70224 1006.8028 644.58747 1021.1309 637.42578 C 1048.1228 623.93419 1073.5702 604.8024 1092.0098 584.13672 C 1095.1089 580.66346 1097.8022 577.3968 1100.2109 574.28516 L 1046.6699 571.69922 z " /></g></svg>
